solid OpenSCAD_Model
  facet normal 0 0 -1
    outer loop
      vertex 32.9028 0 0
      vertex 10.2804 6.7 0
      vertex 32.9028 6.7 0
    endloop
  endfacet
  facet normal 0 -0 -1
    outer loop
      vertex 10.2804 6.7 0
      vertex 32.9028 0 0
      vertex 0.596786 0 0
    endloop
  endfacet
  facet normal -0 0 -1
    outer loop
      vertex 32.0616 33.5264 0
      vertex 21.4832 33.0384 0
      vertex 32.0616 39.7652 0
    endloop
  endfacet
  facet normal 0 0 -1
    outer loop
      vertex 32.0616 33.5264 0
      vertex 17.386 19.855 0
      vertex 21.4832 33.0384 0
    endloop
  endfacet
  facet normal 0 0 -1
    outer loop
      vertex 10.2804 6.7 0
      vertex 17.386 19.855 0
      vertex 32.0616 33.5264 0
    endloop
  endfacet
  facet normal -0 0 -1
    outer loop
      vertex 16.386 18.855 0
      vertex 10.2804 6.7 0
      vertex 15.386 19.855 0
    endloop
  endfacet
  facet normal 0 0 -1
    outer loop
      vertex 17.386 19.855 0
      vertex 10.2804 6.7 0
      vertex 16.386 18.855 0
    endloop
  endfacet
  facet normal 0 0 -1
    outer loop
      vertex 2.95679 39.7652 0
      vertex 21.4832 33.0384 0
      vertex 2.95679 33.0384 0
    endloop
  endfacet
  facet normal 0 0 -1
    outer loop
      vertex 21.4832 33.0384 0
      vertex 2.95679 39.7652 0
      vertex 32.0616 39.7652 0
    endloop
  endfacet
  facet normal 0 0 -1
    outer loop
      vertex 16.386 20.855 0
      vertex 21.4832 33.0384 0
      vertex 17.386 19.855 0
    endloop
  endfacet
  facet normal 0 0 -1
    outer loop
      vertex 15.386 19.855 0
      vertex 21.4832 33.0384 0
      vertex 16.386 20.855 0
    endloop
  endfacet
  facet normal 0 0 -1
    outer loop
      vertex 0.596786 7.24239 0
      vertex 10.2804 6.7 0
      vertex 0.596786 0 0
    endloop
  endfacet
  facet normal 0 0 -1
    outer loop
      vertex 10.2804 6.7 0
      vertex 0.596786 7.24239 0
      vertex 15.386 19.855 0
    endloop
  endfacet
  facet normal -0 0 -1
    outer loop
      vertex 15.386 19.855 0
      vertex 0.596786 7.24239 0
      vertex 21.4832 33.0384 0
    endloop
  endfacet
  facet normal 0 0 1
    outer loop
      vertex 32.0616 39.7652 5
      vertex 21.4832 33.0384 5
      vertex 32.0616 33.5264 5
    endloop
  endfacet
  facet normal -0 0 1
    outer loop
      vertex 2.95679 39.7652 5
      vertex 21.4832 33.0384 5
      vertex 32.0616 39.7652 5
    endloop
  endfacet
  facet normal 0 0 1
    outer loop
      vertex 21.4832 33.0384 5
      vertex 2.95679 39.7652 5
      vertex 2.95679 33.0384 5
    endloop
  endfacet
  facet normal -0 0 1
    outer loop
      vertex 21.4832 33.0384 5
      vertex 10.2804 6.7 5
      vertex 32.0616 33.5264 5
    endloop
  endfacet
  facet normal 0 -0 1
    outer loop
      vertex 10.2804 6.7 5
      vertex 21.4832 33.0384 5
      vertex 0.596786 7.24239 5
    endloop
  endfacet
  facet normal -0 0 1
    outer loop
      vertex 10.2804 6.7 5
      vertex 32.9028 0 5
      vertex 32.9028 6.7 5
    endloop
  endfacet
  facet normal 0 0 1
    outer loop
      vertex 0.596786 0 5
      vertex 10.2804 6.7 5
      vertex 0.596786 7.24239 5
    endloop
  endfacet
  facet normal 0 0 1
    outer loop
      vertex 10.2804 6.7 5
      vertex 0.596786 0 5
      vertex 32.9028 0 5
    endloop
  endfacet
  facet normal 0 1 -0
    outer loop
      vertex 32.9028 6.7 0
      vertex 10.2804 6.7 5
      vertex 32.9028 6.7 5
    endloop
  endfacet
  facet normal 0 1 0
    outer loop
      vertex 10.2804 6.7 5
      vertex 32.9028 6.7 0
      vertex 10.2804 6.7 0
    endloop
  endfacet
  facet normal 0.77633 -0.630327 0
    outer loop
      vertex 10.2804 6.7 5
      vertex 32.0616 33.5264 0
      vertex 32.0616 33.5264 5
    endloop
  endfacet
  facet normal 0.77633 -0.630327 0
    outer loop
      vertex 32.0616 33.5264 0
      vertex 10.2804 6.7 5
      vertex 10.2804 6.7 0
    endloop
  endfacet
  facet normal 1 -0 0
    outer loop
      vertex 32.0616 33.5264 5
      vertex 32.0616 39.7652 0
      vertex 32.0616 39.7652 5
    endloop
  endfacet
  facet normal 1 0 0
    outer loop
      vertex 32.0616 39.7652 0
      vertex 32.0616 33.5264 5
      vertex 32.0616 33.5264 0
    endloop
  endfacet
  facet normal 0 1 -0
    outer loop
      vertex 32.0616 39.7652 0
      vertex 2.95679 39.7652 5
      vertex 32.0616 39.7652 5
    endloop
  endfacet
  facet normal 0 1 0
    outer loop
      vertex 2.95679 39.7652 5
      vertex 32.0616 39.7652 0
      vertex 2.95679 39.7652 0
    endloop
  endfacet
  facet normal -1 0 0
    outer loop
      vertex 2.95679 33.0384 0
      vertex 2.95679 39.7652 5
      vertex 2.95679 39.7652 0
    endloop
  endfacet
  facet normal -1 -0 0
    outer loop
      vertex 2.95679 39.7652 5
      vertex 2.95679 33.0384 0
      vertex 2.95679 33.0384 5
    endloop
  endfacet
  facet normal 0 -1 0
    outer loop
      vertex 2.95679 33.0384 0
      vertex 21.4832 33.0384 5
      vertex 2.95679 33.0384 5
    endloop
  endfacet
  facet normal 0 -1 -0
    outer loop
      vertex 21.4832 33.0384 5
      vertex 2.95679 33.0384 0
      vertex 21.4832 33.0384 0
    endloop
  endfacet
  facet normal -0.777187 0.62927 0
    outer loop
      vertex 0.596786 7.24239 0
      vertex 21.4832 33.0384 5
      vertex 21.4832 33.0384 0
    endloop
  endfacet
  facet normal -0.777187 0.62927 0
    outer loop
      vertex 21.4832 33.0384 5
      vertex 0.596786 7.24239 0
      vertex 0.596786 7.24239 5
    endloop
  endfacet
  facet normal -1 0 0
    outer loop
      vertex 0.596786 0 0
      vertex 0.596786 7.24239 5
      vertex 0.596786 7.24239 0
    endloop
  endfacet
  facet normal -1 -0 0
    outer loop
      vertex 0.596786 7.24239 5
      vertex 0.596786 0 0
      vertex 0.596786 0 5
    endloop
  endfacet
  facet normal 0 -1 0
    outer loop
      vertex 0.596786 0 0
      vertex 32.9028 0 5
      vertex 0.596786 0 5
    endloop
  endfacet
  facet normal 0 -1 -0
    outer loop
      vertex 32.9028 0 5
      vertex 0.596786 0 0
      vertex 32.9028 0 0
    endloop
  endfacet
  facet normal 1 -0 0
    outer loop
      vertex 32.9028 0 5
      vertex 32.9028 6.7 0
      vertex 32.9028 6.7 5
    endloop
  endfacet
  facet normal 1 0 0
    outer loop
      vertex 32.9028 6.7 0
      vertex 32.9028 0 5
      vertex 32.9028 0 0
    endloop
  endfacet
  facet normal 0.707107 -0.707107 0
    outer loop
      vertex 15.386 19.855 2
      vertex 16.386 20.855 0
      vertex 16.386 20.855 2
    endloop
  endfacet
  facet normal 0.707107 -0.707107 0
    outer loop
      vertex 16.386 20.855 0
      vertex 15.386 19.855 2
      vertex 15.386 19.855 0
    endloop
  endfacet
  facet normal -0.707107 -0.707107 0
    outer loop
      vertex 17.386 19.855 0
      vertex 16.386 20.855 2
      vertex 16.386 20.855 0
    endloop
  endfacet
  facet normal -0.707107 -0.707107 0
    outer loop
      vertex 16.386 20.855 2
      vertex 17.386 19.855 0
      vertex 17.386 19.855 2
    endloop
  endfacet
  facet normal 0 0 -1
    outer loop
      vertex 16.386 18.855 2
      vertex 16.386 20.855 2
      vertex 17.386 19.855 2
    endloop
  endfacet
  facet normal 0 -0 -1
    outer loop
      vertex 16.386 20.855 2
      vertex 16.386 18.855 2
      vertex 15.386 19.855 2
    endloop
  endfacet
  facet normal -0.707107 0.707107 0
    outer loop
      vertex 16.386 18.855 0
      vertex 17.386 19.855 2
      vertex 17.386 19.855 0
    endloop
  endfacet
  facet normal -0.707107 0.707107 0
    outer loop
      vertex 17.386 19.855 2
      vertex 16.386 18.855 0
      vertex 16.386 18.855 2
    endloop
  endfacet
  facet normal 0.707107 0.707107 0
    outer loop
      vertex 16.386 18.855 2
      vertex 15.386 19.855 0
      vertex 15.386 19.855 2
    endloop
  endfacet
  facet normal 0.707107 0.707107 0
    outer loop
      vertex 15.386 19.855 0
      vertex 16.386 18.855 2
      vertex 16.386 18.855 0
    endloop
  endfacet
endsolid OpenSCAD_Model
