solid OpenSCAD_Model
  facet normal 0 0 -1
    outer loop
      vertex 30.5089 7.6662 0
      vertex 34.1781 2.18677 0
      vertex 31.858 1.2204 0
    endloop
  endfacet
  facet normal 0 0 -1
    outer loop
      vertex 34.1781 2.18677 0
      vertex 31.5583 8.27734 0
      vertex 32.4416 8.95119 0
    endloop
  endfacet
  facet normal 0 0 -1
    outer loop
      vertex 34.1781 2.18677 0
      vertex 30.5089 7.6662 0
      vertex 31.5583 8.27734 0
    endloop
  endfacet
  facet normal 0 0 -1
    outer loop
      vertex 29.2933 7.11774 0
      vertex 31.858 1.2204 0
      vertex 29.3939 0.449173 0
    endloop
  endfacet
  facet normal 0 0 -1
    outer loop
      vertex 31.858 1.2204 0
      vertex 29.2933 7.11774 0
      vertex 30.5089 7.6662 0
    endloop
  endfacet
  facet normal 0 0 -1
    outer loop
      vertex 29.3939 0.449173 0
      vertex 27.9116 6.63199 0
      vertex 29.2933 7.11774 0
    endloop
  endfacet
  facet normal 0 0 -1
    outer loop
      vertex 26.4349 6.23439 0
      vertex 29.3939 0.449173 0
      vertex 26.8705 -0.1017 0
    endloop
  endfacet
  facet normal 0 0 -1
    outer loop
      vertex 29.3939 0.449173 0
      vertex 26.4349 6.23439 0
      vertex 27.9116 6.63199 0
    endloop
  endfacet
  facet normal 0 0 -1
    outer loop
      vertex 26.8705 -0.1017 0
      vertex 24.9346 5.95039 0
      vertex 26.4349 6.23439 0
    endloop
  endfacet
  facet normal 0 0 -1
    outer loop
      vertex 24.2877 -0.43222 0
      vertex 24.9346 5.95039 0
      vertex 26.8705 -0.1017 0
    endloop
  endfacet
  facet normal 0 0 -1
    outer loop
      vertex 24.2877 -0.43222 0
      vertex 23.4105 5.78 0
      vertex 24.9346 5.95039 0
    endloop
  endfacet
  facet normal 0 0 -1
    outer loop
      vertex 21.6456 -0.542389 0
      vertex 23.4105 5.78 0
      vertex 24.2877 -0.43222 0
    endloop
  endfacet
  facet normal 0 0 -1
    outer loop
      vertex 23.4105 5.78 0
      vertex 21.6456 -0.542389 0
      vertex 21.8628 5.72319 0
    endloop
  endfacet
  facet normal 0 0 -1
    outer loop
      vertex 21.6456 -0.542389 0
      vertex 19.2766 5.94444 0
      vertex 21.8628 5.72319 0
    endloop
  endfacet
  facet normal 0 0 -1
    outer loop
      vertex 17.2497 -0.219437 0
      vertex 19.2766 5.94444 0
      vertex 21.6456 -0.542389 0
    endloop
  endfacet
  facet normal 0 0 -1
    outer loop
      vertex 17.2497 -0.219437 0
      vertex 16.9973 6.60818 0
      vertex 19.2766 5.94444 0
    endloop
  endfacet
  facet normal 0 0 -1
    outer loop
      vertex 13.3929 0.74939 0
      vertex 16.9973 6.60818 0
      vertex 17.2497 -0.219437 0
    endloop
  endfacet
  facet normal -0 0 -1
    outer loop
      vertex 16.9973 6.60818 0
      vertex 13.3929 0.74939 0
      vertex 15.0248 7.71445 0
    endloop
  endfacet
  facet normal 0 0 -1
    outer loop
      vertex 10.0751 2.36414 0
      vertex 15.0248 7.71445 0
      vertex 13.3929 0.74939 0
    endloop
  endfacet
  facet normal -0 0 -1
    outer loop
      vertex 15.0248 7.71445 0
      vertex 10.0751 2.36414 0
      vertex 13.3592 9.2632 0
    endloop
  endfacet
  facet normal 0 0 -1
    outer loop
      vertex 7.29639 4.62479 0
      vertex 13.3592 9.2632 0
      vertex 10.0751 2.36414 0
    endloop
  endfacet
  facet normal -0 0 -1
    outer loop
      vertex 13.3592 9.2632 0
      vertex 7.29639 4.62479 0
      vertex 12.036 11.2171 0
    endloop
  endfacet
  facet normal 0 0 -1
    outer loop
      vertex 5.10101 7.47882 0
      vertex 12.036 11.2171 0
      vertex 7.29639 4.62479 0
    endloop
  endfacet
  facet normal 0 0 -1
    outer loop
      vertex 3.5329 10.8737 0
      vertex 12.036 11.2171 0
      vertex 5.10101 7.47882 0
    endloop
  endfacet
  facet normal -0 0 -1
    outer loop
      vertex 12.036 11.2171 0
      vertex 3.5329 10.8737 0
      vertex 11.0909 13.5389 0
    endloop
  endfacet
  facet normal 0 -0 -1
    outer loop
      vertex 2.59372 23.7301 0
      vertex 10.3348 19.286 0
      vertex 2.2784 19.286 0
    endloop
  endfacet
  facet normal 0 0 -1
    outer loop
      vertex 2.59201 14.8094 0
      vertex 11.0909 13.5389 0
      vertex 3.5329 10.8737 0
    endloop
  endfacet
  facet normal 0 -0 -1
    outer loop
      vertex 3.53969 27.6233 0
      vertex 10.3348 19.286 0
      vertex 2.59372 23.7301 0
    endloop
  endfacet
  facet normal 0 0 -1
    outer loop
      vertex 11.0909 13.5389 0
      vertex 2.59201 14.8094 0
      vertex 10.5238 16.2285 0
    endloop
  endfacet
  facet normal 0 -0 -1
    outer loop
      vertex 5.11632 30.9655 0
      vertex 10.3348 19.286 0
      vertex 3.53969 27.6233 0
    endloop
  endfacet
  facet normal 0 0 -1
    outer loop
      vertex 2.2784 19.286 0
      vertex 10.5238 16.2285 0
      vertex 2.59201 14.8094 0
    endloop
  endfacet
  facet normal 0 0 -1
    outer loop
      vertex 10.3348 19.286 0
      vertex 7.32359 33.7568 0
      vertex 10.1227 35.9583 0
    endloop
  endfacet
  facet normal 0 0 -1
    outer loop
      vertex 10.5238 16.2285 0
      vertex 2.2784 19.286 0
      vertex 10.3348 19.286 0
    endloop
  endfacet
  facet normal 0 0 -1
    outer loop
      vertex 10.3348 19.286 0
      vertex 5.11632 30.9655 0
      vertex 7.32359 33.7568 0
    endloop
  endfacet
  facet normal 0 0 -1
    outer loop
      vertex 32.4416 8.95119 0
      vertex 39.7652 6.1032 0
      vertex 38.1317 4.62817 0
    endloop
  endfacet
  facet normal 0 0 -1
    outer loop
      vertex 32.4416 8.95119 0
      vertex 38.1317 4.62817 0
      vertex 36.2694 3.32269 0
    endloop
  endfacet
  facet normal 0 0 -1
    outer loop
      vertex 32.4416 8.95119 0
      vertex 36.2694 3.32269 0
      vertex 34.1781 2.18677 0
    endloop
  endfacet
  facet normal 0 0 -1
    outer loop
      vertex 39.7652 6.1032 0
      vertex 32.4416 8.95119 0
      vertex 32.4416 14.2408 0
    endloop
  endfacet
  facet normal 0 0 -1
    outer loop
      vertex 39.7652 6.1032 0
      vertex 32.4416 14.2408 0
      vertex 39.7652 20.154 0
    endloop
  endfacet
  facet normal 0 0 -1
    outer loop
      vertex 23.1104 20.154 0
      vertex 32.4416 14.2408 0
      vertex 23.1104 14.2408 0
    endloop
  endfacet
  facet normal 0 0 -1
    outer loop
      vertex 32.4416 14.2408 0
      vertex 23.1104 20.154 0
      vertex 39.7652 20.154 0
    endloop
  endfacet
  facet normal 0 0 -1
    outer loop
      vertex 27.83 31.0036 0
      vertex 28.3251 36.1885 0
      vertex 29.0202 30.1696 0
    endloop
  endfacet
  facet normal 0 0 -1
    outer loop
      vertex 27.83 31.0036 0
      vertex 27.3251 35.1885 0
      vertex 28.3251 36.1885 0
    endloop
  endfacet
  facet normal 0 0 -1
    outer loop
      vertex 26.4992 31.6563 0
      vertex 27.3251 35.1885 0
      vertex 27.83 31.0036 0
    endloop
  endfacet
  facet normal 0 0 -1
    outer loop
      vertex 25.0566 32.1226 0
      vertex 27.3251 35.1885 0
      vertex 26.4992 31.6563 0
    endloop
  endfacet
  facet normal -0 0 -1
    outer loop
      vertex 27.3251 35.1885 0
      vertex 25.0566 32.1226 0
      vertex 26.3251 36.1885 0
    endloop
  endfacet
  facet normal 0 0 -1
    outer loop
      vertex 30.892 27.9726 0
      vertex 36.5086 33.1892 0
      vertex 38.9516 28.834 0
    endloop
  endfacet
  facet normal 0 0 -1
    outer loop
      vertex 30.892 27.9726 0
      vertex 38.9516 28.834 0
      vertex 31.5736 26.6096 0
    endloop
  endfacet
  facet normal 0 0 -1
    outer loop
      vertex 30.0409 29.1593 0
      vertex 36.5086 33.1892 0
      vertex 30.892 27.9726 0
    endloop
  endfacet
  facet normal -0 0 -1
    outer loop
      vertex 36.5086 33.1892 0
      vertex 30.0409 29.1593 0
      vertex 32.8416 36.3001 0
    endloop
  endfacet
  facet normal 0 0 -1
    outer loop
      vertex 29.0202 30.1696 0
      vertex 32.8416 36.3001 0
      vertex 30.0409 29.1593 0
    endloop
  endfacet
  facet normal 0 0 -1
    outer loop
      vertex 28.3251 36.1885 0
      vertex 32.8416 36.3001 0
      vertex 29.0202 30.1696 0
    endloop
  endfacet
  facet normal 0 0 -1
    outer loop
      vertex 28.3251 36.1885 0
      vertex 27.9506 38.1666 0
      vertex 32.8416 36.3001 0
    endloop
  endfacet
  facet normal 0 0 -1
    outer loop
      vertex 27.3251 37.1885 0
      vertex 27.9506 38.1666 0
      vertex 28.3251 36.1885 0
    endloop
  endfacet
  facet normal 0 0 -1
    outer loop
      vertex 21.8356 38.7888 0
      vertex 27.3251 37.1885 0
      vertex 26.3251 36.1885 0
    endloop
  endfacet
  facet normal 0 0 -1
    outer loop
      vertex 23.502 32.4023 0
      vertex 26.3251 36.1885 0
      vertex 25.0566 32.1226 0
    endloop
  endfacet
  facet normal 0 0 -1
    outer loop
      vertex 21.8356 38.7888 0
      vertex 23.502 32.4023 0
      vertex 21.8356 32.4956 0
    endloop
  endfacet
  facet normal 0 0 -1
    outer loop
      vertex 23.502 32.4023 0
      vertex 21.8356 38.7888 0
      vertex 26.3251 36.1885 0
    endloop
  endfacet
  facet normal 0 0 -1
    outer loop
      vertex 27.3251 37.1885 0
      vertex 21.8356 38.7888 0
      vertex 27.9506 38.1666 0
    endloop
  endfacet
  facet normal 0 0 -1
    outer loop
      vertex 19.1841 32.282 0
      vertex 21.8356 38.7888 0
      vertex 21.8356 32.4956 0
    endloop
  endfacet
  facet normal 0 0 -1
    outer loop
      vertex 19.1841 32.282 0
      vertex 17.3787 38.4743 0
      vertex 21.8356 38.7888 0
    endloop
  endfacet
  facet normal 0 0 -1
    outer loop
      vertex 16.8717 31.6412 0
      vertex 17.3787 38.4743 0
      vertex 19.1841 32.282 0
    endloop
  endfacet
  facet normal 0 0 -1
    outer loop
      vertex 13.4744 37.5308 0
      vertex 16.8717 31.6412 0
      vertex 14.8983 30.5732 0
    endloop
  endfacet
  facet normal 0 0 -1
    outer loop
      vertex 16.8717 31.6412 0
      vertex 13.4744 37.5308 0
      vertex 17.3787 38.4743 0
    endloop
  endfacet
  facet normal 0 0 -1
    outer loop
      vertex 10.1227 35.9583 0
      vertex 14.8983 30.5732 0
      vertex 13.264 29.078 0
    endloop
  endfacet
  facet normal 0 0 -1
    outer loop
      vertex 10.1227 35.9583 0
      vertex 13.264 29.078 0
      vertex 11.9825 27.1844 0
    endloop
  endfacet
  facet normal 0 0 -1
    outer loop
      vertex 10.1227 35.9583 0
      vertex 11.9825 27.1844 0
      vertex 11.0671 24.9212 0
    endloop
  endfacet
  facet normal 0 0 -1
    outer loop
      vertex 10.1227 35.9583 0
      vertex 11.0671 24.9212 0
      vertex 10.5179 22.2884 0
    endloop
  endfacet
  facet normal 0 0 -1
    outer loop
      vertex 14.8983 30.5732 0
      vertex 10.1227 35.9583 0
      vertex 13.4744 37.5308 0
    endloop
  endfacet
  facet normal 0 0 -1
    outer loop
      vertex 10.1227 35.9583 0
      vertex 10.5179 22.2884 0
      vertex 10.3348 19.286 0
    endloop
  endfacet
  facet normal 0 0 1
    outer loop
      vertex 30.0409 29.1593 5
      vertex 36.5086 33.1892 5
      vertex 32.8416 36.3001 5
    endloop
  endfacet
  facet normal 0 0 1
    outer loop
      vertex 36.5086 33.1892 5
      vertex 30.892 27.9726 5
      vertex 38.9516 28.834 5
    endloop
  endfacet
  facet normal 0 0 1
    outer loop
      vertex 38.9516 28.834 5
      vertex 30.892 27.9726 5
      vertex 31.5736 26.6096 5
    endloop
  endfacet
  facet normal 0 0 1
    outer loop
      vertex 36.5086 33.1892 5
      vertex 30.0409 29.1593 5
      vertex 30.892 27.9726 5
    endloop
  endfacet
  facet normal 0 0 1
    outer loop
      vertex 32.8416 36.3001 5
      vertex 29.0202 30.1696 5
      vertex 30.0409 29.1593 5
    endloop
  endfacet
  facet normal 0 0 1
    outer loop
      vertex 27.83 31.0036 5
      vertex 32.8416 36.3001 5
      vertex 27.9506 38.1666 5
    endloop
  endfacet
  facet normal 0 0 1
    outer loop
      vertex 32.8416 36.3001 5
      vertex 27.83 31.0036 5
      vertex 29.0202 30.1696 5
    endloop
  endfacet
  facet normal 0 0 1
    outer loop
      vertex 27.9506 38.1666 5
      vertex 26.4992 31.6563 5
      vertex 27.83 31.0036 5
    endloop
  endfacet
  facet normal 0 0 1
    outer loop
      vertex 27.9506 38.1666 5
      vertex 25.0566 32.1226 5
      vertex 26.4992 31.6563 5
    endloop
  endfacet
  facet normal 0 0 1
    outer loop
      vertex 27.9506 38.1666 5
      vertex 23.502 32.4023 5
      vertex 25.0566 32.1226 5
    endloop
  endfacet
  facet normal 0 0 1
    outer loop
      vertex 21.8356 38.7888 5
      vertex 23.502 32.4023 5
      vertex 27.9506 38.1666 5
    endloop
  endfacet
  facet normal 0 0 1
    outer loop
      vertex 21.8356 38.7888 5
      vertex 21.8356 32.4956 5
      vertex 23.502 32.4023 5
    endloop
  endfacet
  facet normal 0 0 1
    outer loop
      vertex 21.8356 38.7888 5
      vertex 19.1841 32.282 5
      vertex 21.8356 32.4956 5
    endloop
  endfacet
  facet normal -0 0 1
    outer loop
      vertex 17.3787 38.4743 5
      vertex 19.1841 32.282 5
      vertex 21.8356 38.7888 5
    endloop
  endfacet
  facet normal 0 0 1
    outer loop
      vertex 17.3787 38.4743 5
      vertex 16.8717 31.6412 5
      vertex 19.1841 32.282 5
    endloop
  endfacet
  facet normal -0 0 1
    outer loop
      vertex 13.4744 37.5308 5
      vertex 16.8717 31.6412 5
      vertex 17.3787 38.4743 5
    endloop
  endfacet
  facet normal 0 0 1
    outer loop
      vertex 16.8717 31.6412 5
      vertex 13.4744 37.5308 5
      vertex 14.8983 30.5732 5
    endloop
  endfacet
  facet normal -0 0 1
    outer loop
      vertex 10.1227 35.9583 5
      vertex 14.8983 30.5732 5
      vertex 13.4744 37.5308 5
    endloop
  endfacet
  facet normal 0 0 1
    outer loop
      vertex 14.8983 30.5732 5
      vertex 10.1227 35.9583 5
      vertex 13.264 29.078 5
    endloop
  endfacet
  facet normal -0 0 1
    outer loop
      vertex 7.32359 33.7568 5
      vertex 13.264 29.078 5
      vertex 10.1227 35.9583 5
    endloop
  endfacet
  facet normal 0 0 1
    outer loop
      vertex 13.264 29.078 5
      vertex 7.32359 33.7568 5
      vertex 11.9825 27.1844 5
    endloop
  endfacet
  facet normal -0 0 1
    outer loop
      vertex 3.53969 27.6233 5
      vertex 11.9825 27.1844 5
      vertex 5.11632 30.9655 5
    endloop
  endfacet
  facet normal -0 0 1
    outer loop
      vertex 5.11632 30.9655 5
      vertex 11.9825 27.1844 5
      vertex 7.32359 33.7568 5
    endloop
  endfacet
  facet normal -0 0 1
    outer loop
      vertex 32.4416 14.2408 5
      vertex 39.7652 6.1032 5
      vertex 39.7652 20.154 5
    endloop
  endfacet
  facet normal -0 0 1
    outer loop
      vertex 32.4416 8.95119 5
      vertex 39.7652 6.1032 5
      vertex 32.4416 14.2408 5
    endloop
  endfacet
  facet normal 0 0 1
    outer loop
      vertex 38.1317 4.62817 5
      vertex 32.4416 8.95119 5
      vertex 36.2694 3.32269 5
    endloop
  endfacet
  facet normal 0 0 1
    outer loop
      vertex 39.7652 6.1032 5
      vertex 32.4416 8.95119 5
      vertex 38.1317 4.62817 5
    endloop
  endfacet
  facet normal -0 0 1
    outer loop
      vertex 23.1104 20.154 5
      vertex 32.4416 14.2408 5
      vertex 39.7652 20.154 5
    endloop
  endfacet
  facet normal 0 0 1
    outer loop
      vertex 32.4416 14.2408 5
      vertex 23.1104 20.154 5
      vertex 23.1104 14.2408 5
    endloop
  endfacet
  facet normal -0 0 1
    outer loop
      vertex 31.5583 8.27734 5
      vertex 36.2694 3.32269 5
      vertex 32.4416 8.95119 5
    endloop
  endfacet
  facet normal 0 0 1
    outer loop
      vertex 36.2694 3.32269 5
      vertex 31.5583 8.27734 5
      vertex 34.1781 2.18677 5
    endloop
  endfacet
  facet normal -0 0 1
    outer loop
      vertex 30.5089 7.6662 5
      vertex 34.1781 2.18677 5
      vertex 31.5583 8.27734 5
    endloop
  endfacet
  facet normal 0 0 1
    outer loop
      vertex 34.1781 2.18677 5
      vertex 30.5089 7.6662 5
      vertex 31.858 1.2204 5
    endloop
  endfacet
  facet normal -0 0 1
    outer loop
      vertex 29.2933 7.11774 5
      vertex 31.858 1.2204 5
      vertex 30.5089 7.6662 5
    endloop
  endfacet
  facet normal 0 0 1
    outer loop
      vertex 31.858 1.2204 5
      vertex 29.2933 7.11774 5
      vertex 29.3939 0.449173 5
    endloop
  endfacet
  facet normal -0 0 1
    outer loop
      vertex 27.9116 6.63199 5
      vertex 29.3939 0.449173 5
      vertex 29.2933 7.11774 5
    endloop
  endfacet
  facet normal -0 0 1
    outer loop
      vertex 26.4349 6.23439 5
      vertex 29.3939 0.449173 5
      vertex 27.9116 6.63199 5
    endloop
  endfacet
  facet normal 0 0 1
    outer loop
      vertex 29.3939 0.449173 5
      vertex 26.4349 6.23439 5
      vertex 26.8705 -0.1017 5
    endloop
  endfacet
  facet normal -0 0 1
    outer loop
      vertex 24.9346 5.95039 5
      vertex 26.8705 -0.1017 5
      vertex 26.4349 6.23439 5
    endloop
  endfacet
  facet normal 0 0 1
    outer loop
      vertex 24.9346 5.95039 5
      vertex 24.2877 -0.43222 5
      vertex 26.8705 -0.1017 5
    endloop
  endfacet
  facet normal -0 0 1
    outer loop
      vertex 23.4105 5.78 5
      vertex 24.2877 -0.43222 5
      vertex 24.9346 5.95039 5
    endloop
  endfacet
  facet normal 0 0 1
    outer loop
      vertex 21.6456 -0.542389 5
      vertex 23.4105 5.78 5
      vertex 21.8628 5.72319 5
    endloop
  endfacet
  facet normal 0 0 1
    outer loop
      vertex 23.4105 5.78 5
      vertex 21.6456 -0.542389 5
      vertex 24.2877 -0.43222 5
    endloop
  endfacet
  facet normal 0 0 1
    outer loop
      vertex 19.2766 5.94444 5
      vertex 21.6456 -0.542389 5
      vertex 21.8628 5.72319 5
    endloop
  endfacet
  facet normal 0 0 1
    outer loop
      vertex 19.2766 5.94444 5
      vertex 17.2497 -0.219437 5
      vertex 21.6456 -0.542389 5
    endloop
  endfacet
  facet normal 0 0 1
    outer loop
      vertex 16.9973 6.60818 5
      vertex 17.2497 -0.219437 5
      vertex 19.2766 5.94444 5
    endloop
  endfacet
  facet normal 0 0 1
    outer loop
      vertex 13.3929 0.74939 5
      vertex 16.9973 6.60818 5
      vertex 15.0248 7.71445 5
    endloop
  endfacet
  facet normal 0 0 1
    outer loop
      vertex 16.9973 6.60818 5
      vertex 13.3929 0.74939 5
      vertex 17.2497 -0.219437 5
    endloop
  endfacet
  facet normal 0 0 1
    outer loop
      vertex 10.0751 2.36414 5
      vertex 15.0248 7.71445 5
      vertex 13.3592 9.2632 5
    endloop
  endfacet
  facet normal 0 0 1
    outer loop
      vertex 7.29639 4.62479 5
      vertex 13.3592 9.2632 5
      vertex 12.036 11.2171 5
    endloop
  endfacet
  facet normal 0 0 1
    outer loop
      vertex 3.5329 10.8737 5
      vertex 12.036 11.2171 5
      vertex 11.0909 13.5389 5
    endloop
  endfacet
  facet normal -0 0 1
    outer loop
      vertex 2.59201 14.8094 5
      vertex 11.0909 13.5389 5
      vertex 10.5238 16.2285 5
    endloop
  endfacet
  facet normal 0 0 1
    outer loop
      vertex 15.0248 7.71445 5
      vertex 10.0751 2.36414 5
      vertex 13.3929 0.74939 5
    endloop
  endfacet
  facet normal -0 0 1
    outer loop
      vertex 2.2784 19.286 5
      vertex 10.5238 16.2285 5
      vertex 10.3348 19.286 5
    endloop
  endfacet
  facet normal 0 0 1
    outer loop
      vertex 11.9825 27.1844 5
      vertex 3.53969 27.6233 5
      vertex 11.0671 24.9212 5
    endloop
  endfacet
  facet normal 0 0 1
    outer loop
      vertex 2.59372 23.7301 5
      vertex 11.0671 24.9212 5
      vertex 3.53969 27.6233 5
    endloop
  endfacet
  facet normal 0 0 1
    outer loop
      vertex 10.5238 16.2285 5
      vertex 2.2784 19.286 5
      vertex 2.59201 14.8094 5
    endloop
  endfacet
  facet normal 0 0 1
    outer loop
      vertex 11.0671 24.9212 5
      vertex 2.59372 23.7301 5
      vertex 10.5179 22.2884 5
    endloop
  endfacet
  facet normal 0 0 1
    outer loop
      vertex 11.0909 13.5389 5
      vertex 2.59201 14.8094 5
      vertex 3.5329 10.8737 5
    endloop
  endfacet
  facet normal 0 0 1
    outer loop
      vertex 2.2784 19.286 5
      vertex 10.5179 22.2884 5
      vertex 2.59372 23.7301 5
    endloop
  endfacet
  facet normal 0 0 1
    outer loop
      vertex 12.036 11.2171 5
      vertex 3.5329 10.8737 5
      vertex 5.10101 7.47882 5
    endloop
  endfacet
  facet normal 0 0 1
    outer loop
      vertex 10.5179 22.2884 5
      vertex 2.2784 19.286 5
      vertex 10.3348 19.286 5
    endloop
  endfacet
  facet normal 0 0 1
    outer loop
      vertex 13.3592 9.2632 5
      vertex 7.29639 4.62479 5
      vertex 10.0751 2.36414 5
    endloop
  endfacet
  facet normal 0 0 1
    outer loop
      vertex 12.036 11.2171 5
      vertex 5.10101 7.47882 5
      vertex 7.29639 4.62479 5
    endloop
  endfacet
  facet normal 0.126935 -0.991911 0
    outer loop
      vertex 24.2877 -0.43222 0
      vertex 26.8705 -0.1017 5
      vertex 24.2877 -0.43222 5
    endloop
  endfacet
  facet normal 0.126935 -0.991911 0
    outer loop
      vertex 26.8705 -0.1017 5
      vertex 24.2877 -0.43222 0
      vertex 26.8705 -0.1017 0
    endloop
  endfacet
  facet normal 0.213283 -0.976991 0
    outer loop
      vertex 26.8705 -0.1017 0
      vertex 29.3939 0.449173 5
      vertex 26.8705 -0.1017 5
    endloop
  endfacet
  facet normal 0.213283 -0.976991 0
    outer loop
      vertex 29.3939 0.449173 5
      vertex 26.8705 -0.1017 0
      vertex 29.3939 0.449173 0
    endloop
  endfacet
  facet normal 0.298697 -0.954348 0
    outer loop
      vertex 29.3939 0.449173 0
      vertex 31.858 1.2204 5
      vertex 29.3939 0.449173 5
    endloop
  endfacet
  facet normal 0.298697 -0.954348 0
    outer loop
      vertex 31.858 1.2204 5
      vertex 29.3939 0.449173 0
      vertex 31.858 1.2204 0
    endloop
  endfacet
  facet normal 0.384501 -0.923125 0
    outer loop
      vertex 31.858 1.2204 0
      vertex 34.1781 2.18677 5
      vertex 31.858 1.2204 5
    endloop
  endfacet
  facet normal 0.384501 -0.923125 0
    outer loop
      vertex 34.1781 2.18677 5
      vertex 31.858 1.2204 0
      vertex 34.1781 2.18677 0
    endloop
  endfacet
  facet normal 0.4773 -0.87874 0
    outer loop
      vertex 34.1781 2.18677 0
      vertex 36.2694 3.32269 5
      vertex 34.1781 2.18677 5
    endloop
  endfacet
  facet normal 0.4773 -0.87874 0
    outer loop
      vertex 36.2694 3.32269 5
      vertex 34.1781 2.18677 0
      vertex 36.2694 3.32269 0
    endloop
  endfacet
  facet normal 0.574014 -0.818845 0
    outer loop
      vertex 36.2694 3.32269 0
      vertex 38.1317 4.62817 5
      vertex 36.2694 3.32269 5
    endloop
  endfacet
  facet normal 0.574014 -0.818845 0
    outer loop
      vertex 38.1317 4.62817 5
      vertex 36.2694 3.32269 0
      vertex 38.1317 4.62817 0
    endloop
  endfacet
  facet normal 0.670189 -0.742191 0
    outer loop
      vertex 38.1317 4.62817 0
      vertex 39.7652 6.1032 5
      vertex 38.1317 4.62817 5
    endloop
  endfacet
  facet normal 0.670189 -0.742191 0
    outer loop
      vertex 39.7652 6.1032 5
      vertex 38.1317 4.62817 0
      vertex 39.7652 6.1032 0
    endloop
  endfacet
  facet normal 1 -0 0
    outer loop
      vertex 39.7652 6.1032 5
      vertex 39.7652 20.154 0
      vertex 39.7652 20.154 5
    endloop
  endfacet
  facet normal 1 0 0
    outer loop
      vertex 39.7652 20.154 0
      vertex 39.7652 6.1032 5
      vertex 39.7652 6.1032 0
    endloop
  endfacet
  facet normal 0 1 -0
    outer loop
      vertex 39.7652 20.154 0
      vertex 23.1104 20.154 5
      vertex 39.7652 20.154 5
    endloop
  endfacet
  facet normal 0 1 0
    outer loop
      vertex 23.1104 20.154 5
      vertex 39.7652 20.154 0
      vertex 23.1104 20.154 0
    endloop
  endfacet
  facet normal -1 0 0
    outer loop
      vertex 23.1104 14.2408 0
      vertex 23.1104 20.154 5
      vertex 23.1104 20.154 0
    endloop
  endfacet
  facet normal -1 -0 0
    outer loop
      vertex 23.1104 20.154 5
      vertex 23.1104 14.2408 0
      vertex 23.1104 14.2408 5
    endloop
  endfacet
  facet normal 0 -1 0
    outer loop
      vertex 23.1104 14.2408 0
      vertex 32.4416 14.2408 5
      vertex 23.1104 14.2408 5
    endloop
  endfacet
  facet normal 0 -1 -0
    outer loop
      vertex 32.4416 14.2408 5
      vertex 23.1104 14.2408 0
      vertex 32.4416 14.2408 0
    endloop
  endfacet
  facet normal -1 0 0
    outer loop
      vertex 32.4416 8.95119 0
      vertex 32.4416 14.2408 5
      vertex 32.4416 14.2408 0
    endloop
  endfacet
  facet normal -1 -0 0
    outer loop
      vertex 32.4416 14.2408 5
      vertex 32.4416 8.95119 0
      vertex 32.4416 8.95119 5
    endloop
  endfacet
  facet normal -0.606533 0.795059 0
    outer loop
      vertex 32.4416 8.95119 0
      vertex 31.5583 8.27734 5
      vertex 32.4416 8.95119 5
    endloop
  endfacet
  facet normal -0.606533 0.795059 0
    outer loop
      vertex 31.5583 8.27734 5
      vertex 32.4416 8.95119 0
      vertex 31.5583 8.27734 0
    endloop
  endfacet
  facet normal -0.50325 0.864141 0
    outer loop
      vertex 31.5583 8.27734 0
      vertex 30.5089 7.6662 5
      vertex 31.5583 8.27734 5
    endloop
  endfacet
  facet normal -0.50325 0.864141 0
    outer loop
      vertex 30.5089 7.6662 5
      vertex 31.5583 8.27734 0
      vertex 30.5089 7.6662 0
    endloop
  endfacet
  facet normal -0.411262 0.911517 0
    outer loop
      vertex 30.5089 7.6662 0
      vertex 29.2933 7.11774 5
      vertex 30.5089 7.6662 5
    endloop
  endfacet
  facet normal -0.411262 0.911517 0
    outer loop
      vertex 29.2933 7.11774 5
      vertex 30.5089 7.6662 0
      vertex 29.2933 7.11774 0
    endloop
  endfacet
  facet normal -0.331661 0.943399 0
    outer loop
      vertex 29.2933 7.11774 0
      vertex 27.9116 6.63199 5
      vertex 29.2933 7.11774 5
    endloop
  endfacet
  facet normal -0.331661 0.943399 0
    outer loop
      vertex 27.9116 6.63199 5
      vertex 29.2933 7.11774 0
      vertex 27.9116 6.63199 0
    endloop
  endfacet
  facet normal -0.25999 0.965611 0
    outer loop
      vertex 27.9116 6.63199 0
      vertex 26.4349 6.23439 5
      vertex 27.9116 6.63199 5
    endloop
  endfacet
  facet normal -0.25999 0.965611 0
    outer loop
      vertex 26.4349 6.23439 5
      vertex 27.9116 6.63199 0
      vertex 26.4349 6.23439 0
    endloop
  endfacet
  facet normal -0.185992 0.982551 0
    outer loop
      vertex 26.4349 6.23439 0
      vertex 24.9346 5.95039 5
      vertex 26.4349 6.23439 5
    endloop
  endfacet
  facet normal -0.185992 0.982551 0
    outer loop
      vertex 24.9346 5.95039 5
      vertex 26.4349 6.23439 0
      vertex 24.9346 5.95039 0
    endloop
  endfacet
  facet normal -0.111105 0.993809 0
    outer loop
      vertex 24.9346 5.95039 0
      vertex 23.4105 5.78 5
      vertex 24.9346 5.95039 5
    endloop
  endfacet
  facet normal -0.111105 0.993809 0
    outer loop
      vertex 23.4105 5.78 5
      vertex 24.9346 5.95039 0
      vertex 23.4105 5.78 0
    endloop
  endfacet
  facet normal -0.0366814 0.999327 0
    outer loop
      vertex 23.4105 5.78 0
      vertex 21.8628 5.72319 5
      vertex 23.4105 5.78 5
    endloop
  endfacet
  facet normal -0.0366814 0.999327 0
    outer loop
      vertex 21.8628 5.72319 5
      vertex 23.4105 5.78 0
      vertex 21.8628 5.72319 0
    endloop
  endfacet
  facet normal 0.0852389 0.996361 -0
    outer loop
      vertex 21.8628 5.72319 0
      vertex 19.2766 5.94444 5
      vertex 21.8628 5.72319 5
    endloop
  endfacet
  facet normal 0.0852389 0.996361 0
    outer loop
      vertex 19.2766 5.94444 5
      vertex 21.8628 5.72319 0
      vertex 19.2766 5.94444 0
    endloop
  endfacet
  facet normal 0.27959 0.960119 -0
    outer loop
      vertex 19.2766 5.94444 0
      vertex 16.9973 6.60818 5
      vertex 19.2766 5.94444 5
    endloop
  endfacet
  facet normal 0.27959 0.960119 0
    outer loop
      vertex 16.9973 6.60818 5
      vertex 19.2766 5.94444 0
      vertex 16.9973 6.60818 0
    endloop
  endfacet
  facet normal 0.489165 0.872191 -0
    outer loop
      vertex 16.9973 6.60818 0
      vertex 15.0248 7.71445 5
      vertex 16.9973 6.60818 5
    endloop
  endfacet
  facet normal 0.489165 0.872191 0
    outer loop
      vertex 15.0248 7.71445 5
      vertex 16.9973 6.60818 0
      vertex 15.0248 7.71445 0
    endloop
  endfacet
  facet normal 0.680952 0.732328 -0
    outer loop
      vertex 15.0248 7.71445 0
      vertex 13.3592 9.2632 5
      vertex 15.0248 7.71445 5
    endloop
  endfacet
  facet normal 0.680952 0.732328 0
    outer loop
      vertex 13.3592 9.2632 5
      vertex 15.0248 7.71445 0
      vertex 13.3592 9.2632 0
    endloop
  endfacet
  facet normal 0.827999 0.560729 0
    outer loop
      vertex 13.3592 9.2632 5
      vertex 12.036 11.2171 0
      vertex 12.036 11.2171 5
    endloop
  endfacet
  facet normal 0.827999 0.560729 0
    outer loop
      vertex 12.036 11.2171 0
      vertex 13.3592 9.2632 5
      vertex 13.3592 9.2632 0
    endloop
  endfacet
  facet normal 0.926206 0.377017 0
    outer loop
      vertex 12.036 11.2171 5
      vertex 11.0909 13.5389 0
      vertex 11.0909 13.5389 5
    endloop
  endfacet
  facet normal 0.926206 0.377017 0
    outer loop
      vertex 11.0909 13.5389 0
      vertex 12.036 11.2171 5
      vertex 12.036 11.2171 0
    endloop
  endfacet
  facet normal 0.978486 0.206313 0
    outer loop
      vertex 11.0909 13.5389 5
      vertex 10.5238 16.2285 0
      vertex 10.5238 16.2285 5
    endloop
  endfacet
  facet normal 0.978486 0.206313 0
    outer loop
      vertex 10.5238 16.2285 0
      vertex 11.0909 13.5389 5
      vertex 11.0909 13.5389 0
    endloop
  endfacet
  facet normal 0.998095 0.0616974 0
    outer loop
      vertex 10.5238 16.2285 5
      vertex 10.3348 19.286 0
      vertex 10.3348 19.286 5
    endloop
  endfacet
  facet normal 0.998095 0.0616974 0
    outer loop
      vertex 10.3348 19.286 0
      vertex 10.5238 16.2285 5
      vertex 10.5238 16.2285 0
    endloop
  endfacet
  facet normal 0.998146 -0.0608715 0
    outer loop
      vertex 10.3348 19.286 5
      vertex 10.5179 22.2884 0
      vertex 10.5179 22.2884 5
    endloop
  endfacet
  facet normal 0.998146 -0.0608715 0
    outer loop
      vertex 10.5179 22.2884 0
      vertex 10.3348 19.286 5
      vertex 10.3348 19.286 0
    endloop
  endfacet
  facet normal 0.978928 -0.204204 0
    outer loop
      vertex 10.5179 22.2884 5
      vertex 11.0671 24.9212 0
      vertex 11.0671 24.9212 5
    endloop
  endfacet
  facet normal 0.978928 -0.204204 0
    outer loop
      vertex 11.0671 24.9212 0
      vertex 10.5179 22.2884 5
      vertex 10.5179 22.2884 0
    endloop
  endfacet
  facet normal 0.92704 -0.374961 0
    outer loop
      vertex 11.0671 24.9212 5
      vertex 11.9825 27.1844 0
      vertex 11.9825 27.1844 5
    endloop
  endfacet
  facet normal 0.92704 -0.374961 0
    outer loop
      vertex 11.9825 27.1844 0
      vertex 11.0671 24.9212 5
      vertex 11.0671 24.9212 0
    endloop
  endfacet
  facet normal 0.828175 -0.56047 0
    outer loop
      vertex 11.9825 27.1844 5
      vertex 13.264 29.078 0
      vertex 13.264 29.078 5
    endloop
  endfacet
  facet normal 0.828175 -0.56047 0
    outer loop
      vertex 13.264 29.078 0
      vertex 11.9825 27.1844 5
      vertex 11.9825 27.1844 0
    endloop
  endfacet
  facet normal 0.675011 -0.737808 0
    outer loop
      vertex 13.264 29.078 0
      vertex 14.8983 30.5732 5
      vertex 13.264 29.078 5
    endloop
  endfacet
  facet normal 0.675011 -0.737808 0
    outer loop
      vertex 14.8983 30.5732 5
      vertex 13.264 29.078 0
      vertex 14.8983 30.5732 0
    endloop
  endfacet
  facet normal 0.475964 -0.879465 0
    outer loop
      vertex 14.8983 30.5732 0
      vertex 16.8717 31.6412 5
      vertex 14.8983 30.5732 5
    endloop
  endfacet
  facet normal 0.475964 -0.879465 0
    outer loop
      vertex 16.8717 31.6412 5
      vertex 14.8983 30.5732 0
      vertex 16.8717 31.6412 0
    endloop
  endfacet
  facet normal 0.267051 -0.963683 0
    outer loop
      vertex 16.8717 31.6412 0
      vertex 19.1841 32.282 5
      vertex 16.8717 31.6412 5
    endloop
  endfacet
  facet normal 0.267051 -0.963683 0
    outer loop
      vertex 19.1841 32.282 5
      vertex 16.8717 31.6412 0
      vertex 19.1841 32.282 0
    endloop
  endfacet
  facet normal 0.080298 -0.996771 0
    outer loop
      vertex 19.1841 32.282 0
      vertex 21.8356 32.4956 5
      vertex 19.1841 32.282 5
    endloop
  endfacet
  facet normal 0.080298 -0.996771 0
    outer loop
      vertex 21.8356 32.4956 5
      vertex 19.1841 32.282 0
      vertex 21.8356 32.4956 0
    endloop
  endfacet
  facet normal -0.0559014 -0.998436 0
    outer loop
      vertex 21.8356 32.4956 0
      vertex 23.502 32.4023 5
      vertex 21.8356 32.4956 5
    endloop
  endfacet
  facet normal -0.0559014 -0.998436 -0
    outer loop
      vertex 23.502 32.4023 5
      vertex 21.8356 32.4956 0
      vertex 23.502 32.4023 0
    endloop
  endfacet
  facet normal -0.177075 -0.984197 0
    outer loop
      vertex 23.502 32.4023 0
      vertex 25.0566 32.1226 5
      vertex 23.502 32.4023 5
    endloop
  endfacet
  facet normal -0.177075 -0.984197 -0
    outer loop
      vertex 25.0566 32.1226 5
      vertex 23.502 32.4023 0
      vertex 25.0566 32.1226 0
    endloop
  endfacet
  facet normal -0.307567 -0.951526 0
    outer loop
      vertex 25.0566 32.1226 0
      vertex 26.4992 31.6563 5
      vertex 25.0566 32.1226 5
    endloop
  endfacet
  facet normal -0.307567 -0.951526 -0
    outer loop
      vertex 26.4992 31.6563 5
      vertex 25.0566 32.1226 0
      vertex 26.4992 31.6563 0
    endloop
  endfacet
  facet normal -0.440346 -0.897828 0
    outer loop
      vertex 26.4992 31.6563 0
      vertex 27.83 31.0036 5
      vertex 26.4992 31.6563 5
    endloop
  endfacet
  facet normal -0.440346 -0.897828 -0
    outer loop
      vertex 27.83 31.0036 5
      vertex 26.4992 31.6563 0
      vertex 27.83 31.0036 0
    endloop
  endfacet
  facet normal -0.573859 -0.818954 0
    outer loop
      vertex 27.83 31.0036 0
      vertex 29.0202 30.1696 5
      vertex 27.83 31.0036 5
    endloop
  endfacet
  facet normal -0.573859 -0.818954 -0
    outer loop
      vertex 29.0202 30.1696 5
      vertex 27.83 31.0036 0
      vertex 29.0202 30.1696 0
    endloop
  endfacet
  facet normal -0.703477 -0.710718 0
    outer loop
      vertex 29.0202 30.1696 0
      vertex 30.0409 29.1593 5
      vertex 29.0202 30.1696 5
    endloop
  endfacet
  facet normal -0.703477 -0.710718 -0
    outer loop
      vertex 30.0409 29.1593 5
      vertex 29.0202 30.1696 0
      vertex 30.0409 29.1593 0
    endloop
  endfacet
  facet normal -0.812612 -0.582805 0
    outer loop
      vertex 30.892 27.9726 0
      vertex 30.0409 29.1593 5
      vertex 30.0409 29.1593 0
    endloop
  endfacet
  facet normal -0.812612 -0.582805 0
    outer loop
      vertex 30.0409 29.1593 5
      vertex 30.892 27.9726 0
      vertex 30.892 27.9726 5
    endloop
  endfacet
  facet normal -0.894401 -0.447266 0
    outer loop
      vertex 31.5736 26.6096 0
      vertex 30.892 27.9726 5
      vertex 30.892 27.9726 0
    endloop
  endfacet
  facet normal -0.894401 -0.447266 0
    outer loop
      vertex 30.892 27.9726 5
      vertex 31.5736 26.6096 0
      vertex 31.5736 26.6096 5
    endloop
  endfacet
  facet normal 0.288657 -0.957433 0
    outer loop
      vertex 31.5736 26.6096 0
      vertex 38.9516 28.834 5
      vertex 31.5736 26.6096 5
    endloop
  endfacet
  facet normal 0.288657 -0.957433 0
    outer loop
      vertex 38.9516 28.834 5
      vertex 31.5736 26.6096 0
      vertex 38.9516 28.834 0
    endloop
  endfacet
  facet normal 0.872157 0.489226 0
    outer loop
      vertex 38.9516 28.834 5
      vertex 36.5086 33.1892 0
      vertex 36.5086 33.1892 5
    endloop
  endfacet
  facet normal 0.872157 0.489226 0
    outer loop
      vertex 36.5086 33.1892 0
      vertex 38.9516 28.834 5
      vertex 38.9516 28.834 0
    endloop
  endfacet
  facet normal 0.646918 0.76256 -0
    outer loop
      vertex 36.5086 33.1892 0
      vertex 32.8416 36.3001 5
      vertex 36.5086 33.1892 5
    endloop
  endfacet
  facet normal 0.646918 0.76256 0
    outer loop
      vertex 32.8416 36.3001 5
      vertex 36.5086 33.1892 0
      vertex 32.8416 36.3001 0
    endloop
  endfacet
  facet normal 0.356539 0.93428 -0
    outer loop
      vertex 32.8416 36.3001 0
      vertex 27.9506 38.1666 5
      vertex 32.8416 36.3001 5
    endloop
  endfacet
  facet normal 0.356539 0.93428 0
    outer loop
      vertex 27.9506 38.1666 5
      vertex 32.8416 36.3001 0
      vertex 27.9506 38.1666 0
    endloop
  endfacet
  facet normal 0.101227 0.994863 -0
    outer loop
      vertex 27.9506 38.1666 0
      vertex 21.8356 38.7888 5
      vertex 27.9506 38.1666 5
    endloop
  endfacet
  facet normal 0.101227 0.994863 0
    outer loop
      vertex 21.8356 38.7888 5
      vertex 27.9506 38.1666 0
      vertex 21.8356 38.7888 0
    endloop
  endfacet
  facet normal -0.0703897 0.99752 0
    outer loop
      vertex 21.8356 38.7888 0
      vertex 17.3787 38.4743 5
      vertex 21.8356 38.7888 5
    endloop
  endfacet
  facet normal -0.0703897 0.99752 0
    outer loop
      vertex 17.3787 38.4743 5
      vertex 21.8356 38.7888 0
      vertex 17.3787 38.4743 0
    endloop
  endfacet
  facet normal -0.234895 0.972021 0
    outer loop
      vertex 17.3787 38.4743 0
      vertex 13.4744 37.5308 5
      vertex 17.3787 38.4743 5
    endloop
  endfacet
  facet normal -0.234895 0.972021 0
    outer loop
      vertex 13.4744 37.5308 5
      vertex 17.3787 38.4743 0
      vertex 13.4744 37.5308 0
    endloop
  endfacet
  facet normal -0.424742 0.905315 0
    outer loop
      vertex 13.4744 37.5308 0
      vertex 10.1227 35.9583 5
      vertex 13.4744 37.5308 5
    endloop
  endfacet
  facet normal -0.424742 0.905315 0
    outer loop
      vertex 10.1227 35.9583 5
      vertex 13.4744 37.5308 0
      vertex 10.1227 35.9583 0
    endloop
  endfacet
  facet normal -0.618203 0.786018 0
    outer loop
      vertex 10.1227 35.9583 0
      vertex 7.32359 33.7568 5
      vertex 10.1227 35.9583 5
    endloop
  endfacet
  facet normal -0.618203 0.786018 0
    outer loop
      vertex 7.32359 33.7568 5
      vertex 10.1227 35.9583 0
      vertex 7.32359 33.7568 0
    endloop
  endfacet
  facet normal -0.784389 0.620269 0
    outer loop
      vertex 5.11632 30.9655 0
      vertex 7.32359 33.7568 5
      vertex 7.32359 33.7568 0
    endloop
  endfacet
  facet normal -0.784389 0.620269 0
    outer loop
      vertex 7.32359 33.7568 5
      vertex 5.11632 30.9655 0
      vertex 5.11632 30.9655 5
    endloop
  endfacet
  facet normal -0.904419 0.426645 0
    outer loop
      vertex 3.53969 27.6233 0
      vertex 5.11632 30.9655 5
      vertex 5.11632 30.9655 0
    endloop
  endfacet
  facet normal -0.904419 0.426645 0
    outer loop
      vertex 5.11632 30.9655 5
      vertex 3.53969 27.6233 0
      vertex 3.53969 27.6233 5
    endloop
  endfacet
  facet normal -0.971726 0.23611 0
    outer loop
      vertex 2.59372 23.7301 0
      vertex 3.53969 27.6233 5
      vertex 3.53969 27.6233 0
    endloop
  endfacet
  facet normal -0.971726 0.23611 0
    outer loop
      vertex 3.53969 27.6233 5
      vertex 2.59372 23.7301 0
      vertex 2.59372 23.7301 5
    endloop
  endfacet
  facet normal -0.997492 0.0707746 0
    outer loop
      vertex 2.2784 19.286 0
      vertex 2.59372 23.7301 5
      vertex 2.59372 23.7301 0
    endloop
  endfacet
  facet normal -0.997492 0.0707746 0
    outer loop
      vertex 2.59372 23.7301 5
      vertex 2.2784 19.286 0
      vertex 2.2784 19.286 5
    endloop
  endfacet
  facet normal -0.997555 -0.0698841 0
    outer loop
      vertex 2.59201 14.8094 0
      vertex 2.2784 19.286 5
      vertex 2.2784 19.286 0
    endloop
  endfacet
  facet normal -0.997555 -0.0698841 0
    outer loop
      vertex 2.2784 19.286 5
      vertex 2.59201 14.8094 0
      vertex 2.59201 14.8094 5
    endloop
  endfacet
  facet normal -0.972593 -0.232513 0
    outer loop
      vertex 3.5329 10.8737 0
      vertex 2.59201 14.8094 5
      vertex 2.59201 14.8094 0
    endloop
  endfacet
  facet normal -0.972593 -0.232513 0
    outer loop
      vertex 2.59201 14.8094 5
      vertex 3.5329 10.8737 0
      vertex 3.5329 10.8737 5
    endloop
  endfacet
  facet normal -0.907833 -0.419332 0
    outer loop
      vertex 5.10101 7.47882 0
      vertex 3.5329 10.8737 5
      vertex 3.5329 10.8737 0
    endloop
  endfacet
  facet normal -0.907833 -0.419332 0
    outer loop
      vertex 3.5329 10.8737 5
      vertex 5.10101 7.47882 0
      vertex 5.10101 7.47882 5
    endloop
  endfacet
  facet normal -0.792628 -0.609706 0
    outer loop
      vertex 7.29639 4.62479 0
      vertex 5.10101 7.47882 5
      vertex 5.10101 7.47882 0
    endloop
  endfacet
  facet normal -0.792628 -0.609706 0
    outer loop
      vertex 5.10101 7.47882 5
      vertex 7.29639 4.62479 0
      vertex 7.29639 4.62479 5
    endloop
  endfacet
  facet normal -0.631088 -0.775711 0
    outer loop
      vertex 7.29639 4.62479 0
      vertex 10.0751 2.36414 5
      vertex 7.29639 4.62479 5
    endloop
  endfacet
  facet normal -0.631088 -0.775711 -0
    outer loop
      vertex 10.0751 2.36414 5
      vertex 7.29639 4.62479 0
      vertex 10.0751 2.36414 0
    endloop
  endfacet
  facet normal -0.437616 -0.899162 0
    outer loop
      vertex 10.0751 2.36414 0
      vertex 13.3929 0.74939 5
      vertex 10.0751 2.36414 5
    endloop
  endfacet
  facet normal -0.437616 -0.899162 -0
    outer loop
      vertex 13.3929 0.74939 5
      vertex 10.0751 2.36414 0
      vertex 13.3929 0.74939 0
    endloop
  endfacet
  facet normal -0.243631 -0.969868 0
    outer loop
      vertex 13.3929 0.74939 0
      vertex 17.2497 -0.219437 5
      vertex 13.3929 0.74939 5
    endloop
  endfacet
  facet normal -0.243631 -0.969868 -0
    outer loop
      vertex 17.2497 -0.219437 5
      vertex 13.3929 0.74939 0
      vertex 17.2497 -0.219437 0
    endloop
  endfacet
  facet normal -0.0732692 -0.997312 0
    outer loop
      vertex 17.2497 -0.219437 0
      vertex 21.6456 -0.542389 5
      vertex 17.2497 -0.219437 5
    endloop
  endfacet
  facet normal -0.0732692 -0.997312 -0
    outer loop
      vertex 21.6456 -0.542389 5
      vertex 17.2497 -0.219437 0
      vertex 21.6456 -0.542389 0
    endloop
  endfacet
  facet normal 0.0416613 -0.999132 0
    outer loop
      vertex 21.6456 -0.542389 0
      vertex 24.2877 -0.43222 5
      vertex 21.6456 -0.542389 5
    endloop
  endfacet
  facet normal 0.0416613 -0.999132 0
    outer loop
      vertex 24.2877 -0.43222 5
      vertex 21.6456 -0.542389 0
      vertex 24.2877 -0.43222 0
    endloop
  endfacet
  facet normal 0.707107 -0.707107 0
    outer loop
      vertex 26.3251 36.1885 2
      vertex 27.3251 37.1885 0
      vertex 27.3251 37.1885 2
    endloop
  endfacet
  facet normal 0.707107 -0.707107 0
    outer loop
      vertex 27.3251 37.1885 0
      vertex 26.3251 36.1885 2
      vertex 26.3251 36.1885 0
    endloop
  endfacet
  facet normal -0.707107 -0.707107 0
    outer loop
      vertex 28.3251 36.1885 0
      vertex 27.3251 37.1885 2
      vertex 27.3251 37.1885 0
    endloop
  endfacet
  facet normal -0.707107 -0.707107 0
    outer loop
      vertex 27.3251 37.1885 2
      vertex 28.3251 36.1885 0
      vertex 28.3251 36.1885 2
    endloop
  endfacet
  facet normal 0 0 -1
    outer loop
      vertex 27.3251 35.1885 2
      vertex 27.3251 37.1885 2
      vertex 28.3251 36.1885 2
    endloop
  endfacet
  facet normal 0 -0 -1
    outer loop
      vertex 27.3251 37.1885 2
      vertex 27.3251 35.1885 2
      vertex 26.3251 36.1885 2
    endloop
  endfacet
  facet normal 0.707107 0.707107 0
    outer loop
      vertex 27.3251 35.1885 2
      vertex 26.3251 36.1885 0
      vertex 26.3251 36.1885 2
    endloop
  endfacet
  facet normal 0.707107 0.707107 0
    outer loop
      vertex 26.3251 36.1885 0
      vertex 27.3251 35.1885 2
      vertex 27.3251 35.1885 0
    endloop
  endfacet
  facet normal -0.707107 0.707107 0
    outer loop
      vertex 27.3251 35.1885 0
      vertex 28.3251 36.1885 2
      vertex 28.3251 36.1885 0
    endloop
  endfacet
  facet normal -0.707107 0.707107 0
    outer loop
      vertex 28.3251 36.1885 2
      vertex 27.3251 35.1885 0
      vertex 27.3251 35.1885 2
    endloop
  endfacet
endsolid OpenSCAD_Model
