solid OpenSCAD_Model
  facet normal 0 0 -1
    outer loop
      vertex 32.2244 0 0
      vertex 11.718 6.18439 0
      vertex 32.2244 6.18439 0
    endloop
  endfacet
  facet normal 0 0 -1
    outer loop
      vertex 3.71599 0 0
      vertex 11.718 6.18439 0
      vertex 32.2244 0 0
    endloop
  endfacet
  facet normal 0 0 -1
    outer loop
      vertex 3.71599 38.2192 0
      vertex 11.718 6.18439 0
      vertex 3.71599 0 0
    endloop
  endfacet
  facet normal 0 0 -1
    outer loop
      vertex 11.718 6.18439 0
      vertex 3.71599 38.2192 0
      vertex 11.718 38.2192 0
    endloop
  endfacet
  facet normal 0 0 1
    outer loop
      vertex 11.718 38.2192 5
      vertex 3.71599 38.2192 5
      vertex 11.718 6.18439 5
    endloop
  endfacet
  facet normal -0 0 1
    outer loop
      vertex 11.718 6.18439 5
      vertex 32.2244 0 5
      vertex 32.2244 6.18439 5
    endloop
  endfacet
  facet normal 0 0 1
    outer loop
      vertex 11.718 6.18439 5
      vertex 3.71599 0 5
      vertex 32.2244 0 5
    endloop
  endfacet
  facet normal 0 0 1
    outer loop
      vertex 3.71599 0 5
      vertex 11.718 6.18439 5
      vertex 3.71599 38.2192 5
    endloop
  endfacet
  facet normal 0 1 -0
    outer loop
      vertex 32.2244 6.18439 0
      vertex 11.718 6.18439 5
      vertex 32.2244 6.18439 5
    endloop
  endfacet
  facet normal 0 1 0
    outer loop
      vertex 11.718 6.18439 5
      vertex 32.2244 6.18439 0
      vertex 11.718 6.18439 0
    endloop
  endfacet
  facet normal 1 -0 0
    outer loop
      vertex 11.718 6.18439 5
      vertex 11.718 38.2192 0
      vertex 11.718 38.2192 5
    endloop
  endfacet
  facet normal 1 0 0
    outer loop
      vertex 11.718 38.2192 0
      vertex 11.718 6.18439 5
      vertex 11.718 6.18439 0
    endloop
  endfacet
  facet normal 0 1 -0
    outer loop
      vertex 11.718 38.2192 0
      vertex 3.71599 38.2192 5
      vertex 11.718 38.2192 5
    endloop
  endfacet
  facet normal 0 1 0
    outer loop
      vertex 3.71599 38.2192 5
      vertex 11.718 38.2192 0
      vertex 3.71599 38.2192 0
    endloop
  endfacet
  facet normal -1 0 0
    outer loop
      vertex 3.71599 0 0
      vertex 3.71599 38.2192 5
      vertex 3.71599 38.2192 0
    endloop
  endfacet
  facet normal -1 -0 0
    outer loop
      vertex 3.71599 38.2192 5
      vertex 3.71599 0 0
      vertex 3.71599 0 5
    endloop
  endfacet
  facet normal 0 -1 0
    outer loop
      vertex 3.71599 0 0
      vertex 32.2244 0 5
      vertex 3.71599 0 5
    endloop
  endfacet
  facet normal 0 -1 -0
    outer loop
      vertex 32.2244 0 5
      vertex 3.71599 0 0
      vertex 32.2244 0 0
    endloop
  endfacet
  facet normal 1 -0 0
    outer loop
      vertex 32.2244 0 5
      vertex 32.2244 6.18439 0
      vertex 32.2244 6.18439 5
    endloop
  endfacet
  facet normal 1 0 0
    outer loop
      vertex 32.2244 6.18439 0
      vertex 32.2244 0 5
      vertex 32.2244 0 0
    endloop
  endfacet
endsolid OpenSCAD_Model
