solid OpenSCAD_Model
  facet normal 0 0 -1
    outer loop
      vertex 14.566 15.6784 0
      vertex 22.5408 15.6784 0
      vertex 22.5408 0 0
    endloop
  endfacet
  facet normal 0 0 -1
    outer loop
      vertex 14.566 15.6784 0
      vertex 22.5408 0 0
      vertex 14.566 0 0
    endloop
  endfacet
  facet normal 0 0 -1
    outer loop
      vertex 22.5408 15.6784 0
      vertex 14.566 15.6784 0
      vertex 18.4992 22.0528 0
    endloop
  endfacet
  facet normal 0 0 -1
    outer loop
      vertex 14.566 15.6784 0
      vertex 9.33119 38.2192 0
      vertex 18.4992 22.0528 0
    endloop
  endfacet
  facet normal -0 -0 -1
    outer loop
      vertex 9.33119 38.2192 0
      vertex 14.566 15.6784 0
      vertex 0.949188 38.2192 0
    endloop
  endfacet
  facet normal 0 0 -1
    outer loop
      vertex 22.5408 15.6784 0
      vertex 27.776 38.2192 0
      vertex 36.1576 38.2192 0
    endloop
  endfacet
  facet normal 0 0 -1
    outer loop
      vertex 27.776 38.2192 0
      vertex 22.5408 15.6784 0
      vertex 18.4992 22.0528 0
    endloop
  endfacet
  facet normal 0 0 1
    outer loop
      vertex 9.33119 38.2192 5
      vertex 14.566 15.6784 5
      vertex 18.4992 22.0528 5
    endloop
  endfacet
  facet normal 0 0 1
    outer loop
      vertex 14.566 15.6784 5
      vertex 9.33119 38.2192 5
      vertex 0.949188 38.2192 5
    endloop
  endfacet
  facet normal -0 0 1
    outer loop
      vertex 27.776 38.2192 5
      vertex 22.5408 15.6784 5
      vertex 36.1576 38.2192 5
    endloop
  endfacet
  facet normal -0 0 1
    outer loop
      vertex 18.4992 22.0528 5
      vertex 22.5408 15.6784 5
      vertex 27.776 38.2192 5
    endloop
  endfacet
  facet normal 0 0 1
    outer loop
      vertex 14.566 15.6784 5
      vertex 22.5408 15.6784 5
      vertex 18.4992 22.0528 5
    endloop
  endfacet
  facet normal 0 0 1
    outer loop
      vertex 22.5408 15.6784 5
      vertex 14.566 15.6784 5
      vertex 22.5408 0 5
    endloop
  endfacet
  facet normal 0 0 1
    outer loop
      vertex 22.5408 0 5
      vertex 14.566 15.6784 5
      vertex 14.566 0 5
    endloop
  endfacet
  facet normal 0.855942 -0.517071 0
    outer loop
      vertex 22.5408 15.6784 5
      vertex 36.1576 38.2192 0
      vertex 36.1576 38.2192 5
    endloop
  endfacet
  facet normal 0.855942 -0.517071 0
    outer loop
      vertex 36.1576 38.2192 0
      vertex 22.5408 15.6784 5
      vertex 22.5408 15.6784 0
    endloop
  endfacet
  facet normal 0 1 -0
    outer loop
      vertex 36.1576 38.2192 0
      vertex 27.776 38.2192 5
      vertex 36.1576 38.2192 5
    endloop
  endfacet
  facet normal 0 1 0
    outer loop
      vertex 27.776 38.2192 5
      vertex 36.1576 38.2192 0
      vertex 27.776 38.2192 0
    endloop
  endfacet
  facet normal -0.867344 0.49771 0
    outer loop
      vertex 18.4992 22.0528 0
      vertex 27.776 38.2192 5
      vertex 27.776 38.2192 0
    endloop
  endfacet
  facet normal -0.867344 0.49771 0
    outer loop
      vertex 27.776 38.2192 5
      vertex 18.4992 22.0528 0
      vertex 18.4992 22.0528 5
    endloop
  endfacet
  facet normal 0.869859 0.4933 0
    outer loop
      vertex 18.4992 22.0528 5
      vertex 9.33119 38.2192 0
      vertex 9.33119 38.2192 5
    endloop
  endfacet
  facet normal 0.869859 0.4933 0
    outer loop
      vertex 9.33119 38.2192 0
      vertex 18.4992 22.0528 5
      vertex 18.4992 22.0528 0
    endloop
  endfacet
  facet normal 0 1 -0
    outer loop
      vertex 9.33119 38.2192 0
      vertex 0.949188 38.2192 5
      vertex 9.33119 38.2192 5
    endloop
  endfacet
  facet normal 0 1 0
    outer loop
      vertex 0.949188 38.2192 5
      vertex 9.33119 38.2192 0
      vertex 0.949188 38.2192 0
    endloop
  endfacet
  facet normal -0.855942 -0.517071 0
    outer loop
      vertex 14.566 15.6784 0
      vertex 0.949188 38.2192 5
      vertex 0.949188 38.2192 0
    endloop
  endfacet
  facet normal -0.855942 -0.517071 0
    outer loop
      vertex 0.949188 38.2192 5
      vertex 14.566 15.6784 0
      vertex 14.566 15.6784 5
    endloop
  endfacet
  facet normal -1 0 0
    outer loop
      vertex 14.566 0 0
      vertex 14.566 15.6784 5
      vertex 14.566 15.6784 0
    endloop
  endfacet
  facet normal -1 -0 0
    outer loop
      vertex 14.566 15.6784 5
      vertex 14.566 0 0
      vertex 14.566 0 5
    endloop
  endfacet
  facet normal 0 -1 0
    outer loop
      vertex 14.566 0 0
      vertex 22.5408 0 5
      vertex 14.566 0 5
    endloop
  endfacet
  facet normal 0 -1 -0
    outer loop
      vertex 22.5408 0 5
      vertex 14.566 0 0
      vertex 22.5408 0 0
    endloop
  endfacet
  facet normal 1 -0 0
    outer loop
      vertex 22.5408 0 5
      vertex 22.5408 15.6784 0
      vertex 22.5408 15.6784 5
    endloop
  endfacet
  facet normal 1 0 0
    outer loop
      vertex 22.5408 15.6784 0
      vertex 22.5408 0 5
      vertex 22.5408 0 0
    endloop
  endfacet
endsolid OpenSCAD_Model
