solid OpenSCAD_Model
  facet normal -0 0 -1
    outer loop
      vertex 36.7272 14.7288 0
      vertex 28.5811 13.0582 0
      vertex 28.7252 15.2172 0
    endloop
  endfacet
  facet normal 0 0 -1
    outer loop
      vertex 32.238 3.45839 0
      vertex 28.1488 11.1654 0
      vertex 28.5811 13.0582 0
    endloop
  endfacet
  facet normal 0 0 -1
    outer loop
      vertex 32.238 3.45839 0
      vertex 27.4283 9.53864 0
      vertex 28.1488 11.1654 0
    endloop
  endfacet
  facet normal 0 0 -1
    outer loop
      vertex 25.143 7.10402 0
      vertex 29.7654 1.70804 0
      vertex 26.8367 0.457794 0
    endloop
  endfacet
  facet normal 0 0 -1
    outer loop
      vertex 32.238 3.45839 0
      vertex 26.4196 8.17799 0
      vertex 27.4283 9.53864 0
    endloop
  endfacet
  facet normal 0 0 -1
    outer loop
      vertex 29.7654 1.70804 0
      vertex 25.143 7.10402 0
      vertex 26.4196 8.17799 0
    endloop
  endfacet
  facet normal 0 0 -1
    outer loop
      vertex 26.8367 0.457794 0
      vertex 23.619 6.3369 0
      vertex 25.143 7.10402 0
    endloop
  endfacet
  facet normal 0 0 -1
    outer loop
      vertex 23.452 -0.292343 0
      vertex 23.619 6.3369 0
      vertex 26.8367 0.457794 0
    endloop
  endfacet
  facet normal 0 0 -1
    outer loop
      vertex 23.452 -0.292343 0
      vertex 21.8474 5.87662 0
      vertex 23.619 6.3369 0
    endloop
  endfacet
  facet normal 0 0 -1
    outer loop
      vertex 19.6112 -0.542389 0
      vertex 21.8474 5.87662 0
      vertex 23.452 -0.292343 0
    endloop
  endfacet
  facet normal 0 0 -1
    outer loop
      vertex 21.8474 5.87662 0
      vertex 19.6112 -0.542389 0
      vertex 19.8284 5.72319 0
    endloop
  endfacet
  facet normal 0 0 -1
    outer loop
      vertex 19.6112 -0.542389 0
      vertex 17.8661 5.86984 0
      vertex 19.8284 5.72319 0
    endloop
  endfacet
  facet normal 0 0 -1
    outer loop
      vertex 15.896 -0.301666 0
      vertex 17.8661 5.86984 0
      vertex 19.6112 -0.542389 0
    endloop
  endfacet
  facet normal -0 0 -1
    outer loop
      vertex 17.8661 5.86984 0
      vertex 15.896 -0.301666 0
      vertex 16.1564 6.3098 0
    endloop
  endfacet
  facet normal 0 0 -1
    outer loop
      vertex 12.6436 0.420486 0
      vertex 16.1564 6.3098 0
      vertex 15.896 -0.301666 0
    endloop
  endfacet
  facet normal -0 0 -1
    outer loop
      vertex 16.1564 6.3098 0
      vertex 12.6436 0.420486 0
      vertex 14.6993 7.04305 0
    endloop
  endfacet
  facet normal 0 0 -1
    outer loop
      vertex 9.85399 1.62411 0
      vertex 14.6993 7.04305 0
      vertex 12.6436 0.420486 0
    endloop
  endfacet
  facet normal -0 0 -1
    outer loop
      vertex 14.6993 7.04305 0
      vertex 9.85399 1.62411 0
      vertex 13.4948 8.0696 0
    endloop
  endfacet
  facet normal 0 0 -1
    outer loop
      vertex 7.52719 3.30919 0
      vertex 13.4948 8.0696 0
      vertex 9.85399 1.62411 0
    endloop
  endfacet
  facet normal -0 0 -1
    outer loop
      vertex 13.4948 8.0696 0
      vertex 7.52719 3.30919 0
      vertex 12.5514 9.37927 0
    endloop
  endfacet
  facet normal 0 0 -1
    outer loop
      vertex 5.69371 5.44199 0
      vertex 12.5514 9.37927 0
      vertex 7.52719 3.30919 0
    endloop
  endfacet
  facet normal 0 0 -1
    outer loop
      vertex 4.38409 7.98839 0
      vertex 12.5514 9.37927 0
      vertex 5.69371 5.44199 0
    endloop
  endfacet
  facet normal -0 0 -1
    outer loop
      vertex 12.5514 9.37927 0
      vertex 4.38409 7.98839 0
      vertex 11.8775 10.9619 0
    endloop
  endfacet
  facet normal 0 0 -1
    outer loop
      vertex 3.59831 10.9484 0
      vertex 11.8775 10.9619 0
      vertex 4.38409 7.98839 0
    endloop
  endfacet
  facet normal -0 0 -1
    outer loop
      vertex 11.8775 10.9619 0
      vertex 3.59831 10.9484 0
      vertex 11.4732 12.8175 0
    endloop
  endfacet
  facet normal 0 0 -1
    outer loop
      vertex 3.3364 14.322 0
      vertex 11.4732 12.8175 0
      vertex 3.59831 10.9484 0
    endloop
  endfacet
  facet normal 0 0 -1
    outer loop
      vertex 11.4732 12.8175 0
      vertex 3.3364 14.322 0
      vertex 11.3384 14.946 0
    endloop
  endfacet
  facet normal 0 0 -1
    outer loop
      vertex 3.3364 38.2192 0
      vertex 11.3384 14.946 0
      vertex 3.3364 14.322 0
    endloop
  endfacet
  facet normal 0 0 -1
    outer loop
      vertex 11.3384 14.946 0
      vertex 3.3364 38.2192 0
      vertex 11.3384 38.2192 0
    endloop
  endfacet
  facet normal 0 0 -1
    outer loop
      vertex 28.5811 13.0582 0
      vertex 36.7272 14.7288 0
      vertex 36.4466 11.2983 0
    endloop
  endfacet
  facet normal 0 0 -1
    outer loop
      vertex 28.5811 13.0582 0
      vertex 36.4466 11.2983 0
      vertex 35.6049 8.2764 0
    endloop
  endfacet
  facet normal 0 0 -1
    outer loop
      vertex 28.5811 13.0582 0
      vertex 35.6049 8.2764 0
      vertex 34.202 5.66309 0
    endloop
  endfacet
  facet normal 0 0 -1
    outer loop
      vertex 28.5811 13.0582 0
      vertex 34.202 5.66309 0
      vertex 32.238 3.45839 0
    endloop
  endfacet
  facet normal 0 0 -1
    outer loop
      vertex 26.4196 8.17799 0
      vertex 32.238 3.45839 0
      vertex 29.7654 1.70804 0
    endloop
  endfacet
  facet normal 0 0 -1
    outer loop
      vertex 36.7272 14.7288 0
      vertex 28.7252 15.2172 0
      vertex 36.7272 38.2192 0
    endloop
  endfacet
  facet normal -0 0 -1
    outer loop
      vertex 36.7272 38.2192 0
      vertex 28.7252 15.2172 0
      vertex 28.7252 38.2192 0
    endloop
  endfacet
  facet normal -0 0 1
    outer loop
      vertex 3.3364 38.2192 5
      vertex 11.3384 14.946 5
      vertex 11.3384 38.2192 5
    endloop
  endfacet
  facet normal 0 -0 1
    outer loop
      vertex 3.59831 10.9484 5
      vertex 11.3384 14.946 5
      vertex 3.3364 14.322 5
    endloop
  endfacet
  facet normal 0 -0 1
    outer loop
      vertex 4.38409 7.98839 5
      vertex 11.3384 14.946 5
      vertex 3.59831 10.9484 5
    endloop
  endfacet
  facet normal 0 -0 1
    outer loop
      vertex 5.69371 5.44199 5
      vertex 11.3384 14.946 5
      vertex 4.38409 7.98839 5
    endloop
  endfacet
  facet normal 0 0 1
    outer loop
      vertex 11.3384 14.946 5
      vertex 7.52719 3.30919 5
      vertex 9.85399 1.62411 5
    endloop
  endfacet
  facet normal 0 0 1
    outer loop
      vertex 11.3384 14.946 5
      vertex 3.3364 38.2192 5
      vertex 3.3364 14.322 5
    endloop
  endfacet
  facet normal 0 0 1
    outer loop
      vertex 11.3384 14.946 5
      vertex 5.69371 5.44199 5
      vertex 7.52719 3.30919 5
    endloop
  endfacet
  facet normal -0 0 1
    outer loop
      vertex 28.7252 15.2172 5
      vertex 36.7272 14.7288 5
      vertex 36.7272 38.2192 5
    endloop
  endfacet
  facet normal 0 0 1
    outer loop
      vertex 28.5811 13.0582 5
      vertex 36.7272 14.7288 5
      vertex 28.7252 15.2172 5
    endloop
  endfacet
  facet normal 0 0 1
    outer loop
      vertex 36.7272 14.7288 5
      vertex 28.5811 13.0582 5
      vertex 36.4466 11.2983 5
    endloop
  endfacet
  facet normal 0 0 1
    outer loop
      vertex 28.1488 11.1654 5
      vertex 36.4466 11.2983 5
      vertex 28.5811 13.0582 5
    endloop
  endfacet
  facet normal 0 0 1
    outer loop
      vertex 36.4466 11.2983 5
      vertex 28.1488 11.1654 5
      vertex 35.6049 8.2764 5
    endloop
  endfacet
  facet normal 0 0 1
    outer loop
      vertex 28.7252 15.2172 5
      vertex 36.7272 38.2192 5
      vertex 28.7252 38.2192 5
    endloop
  endfacet
  facet normal 0 0 1
    outer loop
      vertex 35.6049 8.2764 5
      vertex 28.1488 11.1654 5
      vertex 34.202 5.66309 5
    endloop
  endfacet
  facet normal -0 0 1
    outer loop
      vertex 27.4283 9.53864 5
      vertex 34.202 5.66309 5
      vertex 28.1488 11.1654 5
    endloop
  endfacet
  facet normal 0 0 1
    outer loop
      vertex 34.202 5.66309 5
      vertex 27.4283 9.53864 5
      vertex 32.238 3.45839 5
    endloop
  endfacet
  facet normal -0 0 1
    outer loop
      vertex 26.4196 8.17799 5
      vertex 32.238 3.45839 5
      vertex 27.4283 9.53864 5
    endloop
  endfacet
  facet normal 0 0 1
    outer loop
      vertex 32.238 3.45839 5
      vertex 26.4196 8.17799 5
      vertex 29.7654 1.70804 5
    endloop
  endfacet
  facet normal -0 0 1
    outer loop
      vertex 25.143 7.10402 5
      vertex 29.7654 1.70804 5
      vertex 26.4196 8.17799 5
    endloop
  endfacet
  facet normal 0 0 1
    outer loop
      vertex 29.7654 1.70804 5
      vertex 25.143 7.10402 5
      vertex 26.8367 0.457794 5
    endloop
  endfacet
  facet normal -0 0 1
    outer loop
      vertex 23.619 6.3369 5
      vertex 26.8367 0.457794 5
      vertex 25.143 7.10402 5
    endloop
  endfacet
  facet normal 0 0 1
    outer loop
      vertex 23.619 6.3369 5
      vertex 23.452 -0.292343 5
      vertex 26.8367 0.457794 5
    endloop
  endfacet
  facet normal -0 0 1
    outer loop
      vertex 21.8474 5.87662 5
      vertex 23.452 -0.292343 5
      vertex 23.619 6.3369 5
    endloop
  endfacet
  facet normal 0 0 1
    outer loop
      vertex 19.6112 -0.542389 5
      vertex 21.8474 5.87662 5
      vertex 19.8284 5.72319 5
    endloop
  endfacet
  facet normal 0 0 1
    outer loop
      vertex 21.8474 5.87662 5
      vertex 19.6112 -0.542389 5
      vertex 23.452 -0.292343 5
    endloop
  endfacet
  facet normal 0 0 1
    outer loop
      vertex 17.8661 5.86984 5
      vertex 19.6112 -0.542389 5
      vertex 19.8284 5.72319 5
    endloop
  endfacet
  facet normal 0 0 1
    outer loop
      vertex 15.896 -0.301666 5
      vertex 17.8661 5.86984 5
      vertex 16.1564 6.3098 5
    endloop
  endfacet
  facet normal 0 0 1
    outer loop
      vertex 17.8661 5.86984 5
      vertex 15.896 -0.301666 5
      vertex 19.6112 -0.542389 5
    endloop
  endfacet
  facet normal 0 0 1
    outer loop
      vertex 12.6436 0.420486 5
      vertex 16.1564 6.3098 5
      vertex 14.6993 7.04305 5
    endloop
  endfacet
  facet normal 0 0 1
    outer loop
      vertex 9.85399 1.62411 5
      vertex 14.6993 7.04305 5
      vertex 13.4948 8.0696 5
    endloop
  endfacet
  facet normal 0 0 1
    outer loop
      vertex 16.1564 6.3098 5
      vertex 12.6436 0.420486 5
      vertex 15.896 -0.301666 5
    endloop
  endfacet
  facet normal 0 0 1
    outer loop
      vertex 9.85399 1.62411 5
      vertex 13.4948 8.0696 5
      vertex 12.5514 9.37927 5
    endloop
  endfacet
  facet normal 0 0 1
    outer loop
      vertex 9.85399 1.62411 5
      vertex 12.5514 9.37927 5
      vertex 11.8775 10.9619 5
    endloop
  endfacet
  facet normal 0 0 1
    outer loop
      vertex 9.85399 1.62411 5
      vertex 11.8775 10.9619 5
      vertex 11.4732 12.8175 5
    endloop
  endfacet
  facet normal 0 0 1
    outer loop
      vertex 14.6993 7.04305 5
      vertex 9.85399 1.62411 5
      vertex 12.6436 0.420486 5
    endloop
  endfacet
  facet normal 0 0 1
    outer loop
      vertex 9.85399 1.62411 5
      vertex 11.4732 12.8175 5
      vertex 11.3384 14.946 5
    endloop
  endfacet
  facet normal 0.216376 -0.97631 0
    outer loop
      vertex 23.452 -0.292343 0
      vertex 26.8367 0.457794 5
      vertex 23.452 -0.292343 5
    endloop
  endfacet
  facet normal 0.216376 -0.97631 0
    outer loop
      vertex 26.8367 0.457794 5
      vertex 23.452 -0.292343 0
      vertex 26.8367 0.457794 0
    endloop
  endfacet
  facet normal 0.392616 -0.919703 0
    outer loop
      vertex 26.8367 0.457794 0
      vertex 29.7654 1.70804 5
      vertex 26.8367 0.457794 5
    endloop
  endfacet
  facet normal 0.392616 -0.919703 0
    outer loop
      vertex 29.7654 1.70804 5
      vertex 26.8367 0.457794 0
      vertex 29.7654 1.70804 0
    endloop
  endfacet
  facet normal 0.577781 -0.816192 0
    outer loop
      vertex 29.7654 1.70804 0
      vertex 32.238 3.45839 5
      vertex 29.7654 1.70804 5
    endloop
  endfacet
  facet normal 0.577781 -0.816192 0
    outer loop
      vertex 32.238 3.45839 5
      vertex 29.7654 1.70804 0
      vertex 32.238 3.45839 0
    endloop
  endfacet
  facet normal 0.746691 -0.665171 0
    outer loop
      vertex 32.238 3.45839 5
      vertex 34.202 5.66309 0
      vertex 34.202 5.66309 5
    endloop
  endfacet
  facet normal 0.746691 -0.665171 0
    outer loop
      vertex 34.202 5.66309 0
      vertex 32.238 3.45839 5
      vertex 32.238 3.45839 0
    endloop
  endfacet
  facet normal 0.881071 -0.472984 0
    outer loop
      vertex 34.202 5.66309 5
      vertex 35.6049 8.2764 0
      vertex 35.6049 8.2764 5
    endloop
  endfacet
  facet normal 0.881071 -0.472984 0
    outer loop
      vertex 35.6049 8.2764 0
      vertex 34.202 5.66309 5
      vertex 34.202 5.66309 0
    endloop
  endfacet
  facet normal 0.96333 -0.26832 0
    outer loop
      vertex 35.6049 8.2764 5
      vertex 36.4466 11.2983 0
      vertex 36.4466 11.2983 5
    endloop
  endfacet
  facet normal 0.96333 -0.26832 0
    outer loop
      vertex 36.4466 11.2983 0
      vertex 35.6049 8.2764 5
      vertex 35.6049 8.2764 0
    endloop
  endfacet
  facet normal 0.996671 -0.0815234 0
    outer loop
      vertex 36.4466 11.2983 5
      vertex 36.7272 14.7288 0
      vertex 36.7272 14.7288 5
    endloop
  endfacet
  facet normal 0.996671 -0.0815234 0
    outer loop
      vertex 36.7272 14.7288 0
      vertex 36.4466 11.2983 5
      vertex 36.4466 11.2983 0
    endloop
  endfacet
  facet normal 1 -0 0
    outer loop
      vertex 36.7272 14.7288 5
      vertex 36.7272 38.2192 0
      vertex 36.7272 38.2192 5
    endloop
  endfacet
  facet normal 1 0 0
    outer loop
      vertex 36.7272 38.2192 0
      vertex 36.7272 14.7288 5
      vertex 36.7272 14.7288 0
    endloop
  endfacet
  facet normal 0 1 -0
    outer loop
      vertex 36.7272 38.2192 0
      vertex 28.7252 38.2192 5
      vertex 36.7272 38.2192 5
    endloop
  endfacet
  facet normal 0 1 0
    outer loop
      vertex 28.7252 38.2192 5
      vertex 36.7272 38.2192 0
      vertex 28.7252 38.2192 0
    endloop
  endfacet
  facet normal -1 0 0
    outer loop
      vertex 28.7252 15.2172 0
      vertex 28.7252 38.2192 5
      vertex 28.7252 38.2192 0
    endloop
  endfacet
  facet normal -1 -0 0
    outer loop
      vertex 28.7252 38.2192 5
      vertex 28.7252 15.2172 0
      vertex 28.7252 15.2172 5
    endloop
  endfacet
  facet normal -0.99778 0.0665957 0
    outer loop
      vertex 28.5811 13.0582 0
      vertex 28.7252 15.2172 5
      vertex 28.7252 15.2172 0
    endloop
  endfacet
  facet normal -0.99778 0.0665957 0
    outer loop
      vertex 28.7252 15.2172 5
      vertex 28.5811 13.0582 0
      vertex 28.5811 13.0582 5
    endloop
  endfacet
  facet normal -0.974897 0.222658 0
    outer loop
      vertex 28.1488 11.1654 0
      vertex 28.5811 13.0582 5
      vertex 28.5811 13.0582 0
    endloop
  endfacet
  facet normal -0.974897 0.222658 0
    outer loop
      vertex 28.5811 13.0582 5
      vertex 28.1488 11.1654 0
      vertex 28.1488 11.1654 5
    endloop
  endfacet
  facet normal -0.914333 0.404963 0
    outer loop
      vertex 27.4283 9.53864 0
      vertex 28.1488 11.1654 5
      vertex 28.1488 11.1654 0
    endloop
  endfacet
  facet normal -0.914333 0.404963 0
    outer loop
      vertex 28.1488 11.1654 5
      vertex 27.4283 9.53864 0
      vertex 27.4283 9.53864 5
    endloop
  endfacet
  facet normal -0.803328 0.595537 0
    outer loop
      vertex 26.4196 8.17799 0
      vertex 27.4283 9.53864 5
      vertex 27.4283 9.53864 0
    endloop
  endfacet
  facet normal -0.803328 0.595537 0
    outer loop
      vertex 27.4283 9.53864 5
      vertex 26.4196 8.17799 0
      vertex 26.4196 8.17799 5
    endloop
  endfacet
  facet normal -0.643763 0.765225 0
    outer loop
      vertex 26.4196 8.17799 0
      vertex 25.143 7.10402 5
      vertex 26.4196 8.17799 5
    endloop
  endfacet
  facet normal -0.643763 0.765225 0
    outer loop
      vertex 25.143 7.10402 5
      vertex 26.4196 8.17799 0
      vertex 25.143 7.10402 0
    endloop
  endfacet
  facet normal -0.449613 0.893224 0
    outer loop
      vertex 25.143 7.10402 0
      vertex 23.619 6.3369 5
      vertex 25.143 7.10402 5
    endloop
  endfacet
  facet normal -0.449613 0.893224 0
    outer loop
      vertex 23.619 6.3369 5
      vertex 25.143 7.10402 0
      vertex 23.619 6.3369 0
    endloop
  endfacet
  facet normal -0.251462 0.967867 0
    outer loop
      vertex 23.619 6.3369 0
      vertex 21.8474 5.87662 5
      vertex 23.619 6.3369 5
    endloop
  endfacet
  facet normal -0.251462 0.967867 0
    outer loop
      vertex 21.8474 5.87662 5
      vertex 23.619 6.3369 0
      vertex 21.8474 5.87662 0
    endloop
  endfacet
  facet normal -0.0757746 0.997125 0
    outer loop
      vertex 21.8474 5.87662 0
      vertex 19.8284 5.72319 5
      vertex 21.8474 5.87662 5
    endloop
  endfacet
  facet normal -0.0757746 0.997125 0
    outer loop
      vertex 19.8284 5.72319 5
      vertex 21.8474 5.87662 0
      vertex 19.8284 5.72319 0
    endloop
  endfacet
  facet normal 0.0745259 0.997219 -0
    outer loop
      vertex 19.8284 5.72319 0
      vertex 17.8661 5.86984 5
      vertex 19.8284 5.72319 5
    endloop
  endfacet
  facet normal 0.0745259 0.997219 0
    outer loop
      vertex 17.8661 5.86984 5
      vertex 19.8284 5.72319 0
      vertex 17.8661 5.86984 0
    endloop
  endfacet
  facet normal 0.249213 0.968449 -0
    outer loop
      vertex 17.8661 5.86984 0
      vertex 16.1564 6.3098 5
      vertex 17.8661 5.86984 5
    endloop
  endfacet
  facet normal 0.249213 0.968449 0
    outer loop
      vertex 16.1564 6.3098 5
      vertex 17.8661 5.86984 0
      vertex 16.1564 6.3098 0
    endloop
  endfacet
  facet normal 0.449517 0.893272 -0
    outer loop
      vertex 16.1564 6.3098 0
      vertex 14.6993 7.04305 5
      vertex 16.1564 6.3098 5
    endloop
  endfacet
  facet normal 0.449517 0.893272 0
    outer loop
      vertex 14.6993 7.04305 5
      vertex 16.1564 6.3098 0
      vertex 14.6993 7.04305 0
    endloop
  endfacet
  facet normal 0.648647 0.761089 -0
    outer loop
      vertex 14.6993 7.04305 0
      vertex 13.4948 8.0696 5
      vertex 14.6993 7.04305 5
    endloop
  endfacet
  facet normal 0.648647 0.761089 0
    outer loop
      vertex 13.4948 8.0696 5
      vertex 14.6993 7.04305 0
      vertex 13.4948 8.0696 0
    endloop
  endfacet
  facet normal 0.811406 0.584483 0
    outer loop
      vertex 13.4948 8.0696 5
      vertex 12.5514 9.37927 0
      vertex 12.5514 9.37927 5
    endloop
  endfacet
  facet normal 0.811406 0.584483 0
    outer loop
      vertex 12.5514 9.37927 0
      vertex 13.4948 8.0696 5
      vertex 13.4948 8.0696 0
    endloop
  endfacet
  facet normal 0.920062 0.391772 0
    outer loop
      vertex 12.5514 9.37927 5
      vertex 11.8775 10.9619 0
      vertex 11.8775 10.9619 5
    endloop
  endfacet
  facet normal 0.920062 0.391772 0
    outer loop
      vertex 11.8775 10.9619 0
      vertex 12.5514 9.37927 5
      vertex 12.5514 9.37927 0
    endloop
  endfacet
  facet normal 0.977077 0.212887 0
    outer loop
      vertex 11.8775 10.9619 5
      vertex 11.4732 12.8175 0
      vertex 11.4732 12.8175 5
    endloop
  endfacet
  facet normal 0.977077 0.212887 0
    outer loop
      vertex 11.4732 12.8175 0
      vertex 11.8775 10.9619 5
      vertex 11.8775 10.9619 0
    endloop
  endfacet
  facet normal 0.998001 0.0632044 0
    outer loop
      vertex 11.4732 12.8175 5
      vertex 11.3384 14.946 0
      vertex 11.3384 14.946 5
    endloop
  endfacet
  facet normal 0.998001 0.0632044 0
    outer loop
      vertex 11.3384 14.946 0
      vertex 11.4732 12.8175 5
      vertex 11.4732 12.8175 0
    endloop
  endfacet
  facet normal 1 -0 0
    outer loop
      vertex 11.3384 14.946 5
      vertex 11.3384 38.2192 0
      vertex 11.3384 38.2192 5
    endloop
  endfacet
  facet normal 1 0 0
    outer loop
      vertex 11.3384 38.2192 0
      vertex 11.3384 14.946 5
      vertex 11.3384 14.946 0
    endloop
  endfacet
  facet normal 0 1 -0
    outer loop
      vertex 11.3384 38.2192 0
      vertex 3.3364 38.2192 5
      vertex 11.3384 38.2192 5
    endloop
  endfacet
  facet normal 0 1 0
    outer loop
      vertex 3.3364 38.2192 5
      vertex 11.3384 38.2192 0
      vertex 3.3364 38.2192 0
    endloop
  endfacet
  facet normal -1 0 0
    outer loop
      vertex 3.3364 14.322 0
      vertex 3.3364 38.2192 5
      vertex 3.3364 38.2192 0
    endloop
  endfacet
  facet normal -1 -0 0
    outer loop
      vertex 3.3364 38.2192 5
      vertex 3.3364 14.322 0
      vertex 3.3364 14.322 5
    endloop
  endfacet
  facet normal -0.997 -0.0774023 0
    outer loop
      vertex 3.59831 10.9484 0
      vertex 3.3364 14.322 5
      vertex 3.3364 14.322 0
    endloop
  endfacet
  facet normal -0.997 -0.0774023 0
    outer loop
      vertex 3.3364 14.322 5
      vertex 3.59831 10.9484 0
      vertex 3.59831 10.9484 5
    endloop
  endfacet
  facet normal -0.966523 -0.256578 0
    outer loop
      vertex 4.38409 7.98839 0
      vertex 3.59831 10.9484 5
      vertex 3.59831 10.9484 0
    endloop
  endfacet
  facet normal -0.966523 -0.256578 0
    outer loop
      vertex 3.59831 10.9484 5
      vertex 4.38409 7.98839 0
      vertex 4.38409 7.98839 5
    endloop
  endfacet
  facet normal -0.889282 -0.45736 0
    outer loop
      vertex 5.69371 5.44199 0
      vertex 4.38409 7.98839 5
      vertex 4.38409 7.98839 0
    endloop
  endfacet
  facet normal -0.889282 -0.45736 0
    outer loop
      vertex 4.38409 7.98839 5
      vertex 5.69371 5.44199 0
      vertex 5.69371 5.44199 5
    endloop
  endfacet
  facet normal -0.758313 -0.65189 0
    outer loop
      vertex 7.52719 3.30919 0
      vertex 5.69371 5.44199 5
      vertex 5.69371 5.44199 0
    endloop
  endfacet
  facet normal -0.758313 -0.65189 0
    outer loop
      vertex 5.69371 5.44199 5
      vertex 7.52719 3.30919 0
      vertex 7.52719 3.30919 5
    endloop
  endfacet
  facet normal -0.586545 -0.809916 0
    outer loop
      vertex 7.52719 3.30919 0
      vertex 9.85399 1.62411 5
      vertex 7.52719 3.30919 5
    endloop
  endfacet
  facet normal -0.586545 -0.809916 -0
    outer loop
      vertex 9.85399 1.62411 5
      vertex 7.52719 3.30919 0
      vertex 9.85399 1.62411 0
    endloop
  endfacet
  facet normal -0.396164 -0.91818 0
    outer loop
      vertex 9.85399 1.62411 0
      vertex 12.6436 0.420486 5
      vertex 9.85399 1.62411 5
    endloop
  endfacet
  facet normal -0.396164 -0.91818 -0
    outer loop
      vertex 12.6436 0.420486 5
      vertex 9.85399 1.62411 0
      vertex 12.6436 0.420486 0
    endloop
  endfacet
  facet normal -0.216758 -0.976225 0
    outer loop
      vertex 12.6436 0.420486 0
      vertex 15.896 -0.301666 5
      vertex 12.6436 0.420486 5
    endloop
  endfacet
  facet normal -0.216758 -0.976225 -0
    outer loop
      vertex 15.896 -0.301666 5
      vertex 12.6436 0.420486 0
      vertex 15.896 -0.301666 0
    endloop
  endfacet
  facet normal -0.0646585 -0.997907 0
    outer loop
      vertex 15.896 -0.301666 0
      vertex 19.6112 -0.542389 5
      vertex 15.896 -0.301666 5
    endloop
  endfacet
  facet normal -0.0646585 -0.997907 -0
    outer loop
      vertex 19.6112 -0.542389 5
      vertex 15.896 -0.301666 0
      vertex 19.6112 -0.542389 0
    endloop
  endfacet
  facet normal 0.0649651 -0.997888 0
    outer loop
      vertex 19.6112 -0.542389 0
      vertex 23.452 -0.292343 5
      vertex 19.6112 -0.542389 5
    endloop
  endfacet
  facet normal 0.0649651 -0.997888 0
    outer loop
      vertex 23.452 -0.292343 5
      vertex 19.6112 -0.542389 0
      vertex 23.452 -0.292343 0
    endloop
  endfacet
endsolid OpenSCAD_Model
