solid OpenSCAD_Model
  facet normal 0 0 -1
    outer loop
      vertex 3.71599 0 0
      vertex 11.718 14.512 0
      vertex 11.718 0 0
    endloop
  endfacet
  facet normal -0 0 -1
    outer loop
      vertex 11.718 14.512 0
      vertex 3.71599 0 0
      vertex 11.718 20.7236 0
    endloop
  endfacet
  facet normal 0 0 -1
    outer loop
      vertex 3.71599 38.2192 0
      vertex 11.718 20.7236 0
      vertex 3.71599 0 0
    endloop
  endfacet
  facet normal 0 0 -1
    outer loop
      vertex 29.9732 0 0
      vertex 28.644 16.058 0
      vertex 38.9788 0 0
    endloop
  endfacet
  facet normal 0 0 -1
    outer loop
      vertex 32.1227 17.4787 0
      vertex 28.0471 23.0783 0
      vertex 28.5896 24.0667 0
    endloop
  endfacet
  facet normal 0 0 -1
    outer loop
      vertex 23.2278 13.94 0
      vertex 28.644 16.058 0
      vertex 29.9732 0 0
    endloop
  endfacet
  facet normal 0 0 -1
    outer loop
      vertex 30.4834 16.6438 0
      vertex 27.2876 22.2424 0
      vertex 28.0471 23.0783 0
    endloop
  endfacet
  facet normal 0 0 -1
    outer loop
      vertex 22.2278 14.94 0
      vertex 28.644 16.058 0
      vertex 23.2278 13.94 0
    endloop
  endfacet
  facet normal 0 0 -1
    outer loop
      vertex 28.644 16.058 0
      vertex 26.3179 21.5779 0
      vertex 27.2876 22.2424 0
    endloop
  endfacet
  facet normal 0 0 -1
    outer loop
      vertex 28.644 16.058 0
      vertex 25.1448 21.1033 0
      vertex 26.3179 21.5779 0
    endloop
  endfacet
  facet normal 0 -0 -1
    outer loop
      vertex 23.7683 20.8185 0
      vertex 28.644 16.058 0
      vertex 22.2278 14.94 0
    endloop
  endfacet
  facet normal 0 0 -1
    outer loop
      vertex 29.9732 0 0
      vertex 22.2278 12.94 0
      vertex 23.2278 13.94 0
    endloop
  endfacet
  facet normal -0 -0 -1
    outer loop
      vertex 22.2278 12.94 0
      vertex 29.9732 0 0
      vertex 21.8066 13.3612 0
    endloop
  endfacet
  facet normal 0 0 -1
    outer loop
      vertex 36.9376 24.8881 0
      vertex 28.9151 25.2077 0
      vertex 29.0236 26.5012 0
    endloop
  endfacet
  facet normal 0 0 -1
    outer loop
      vertex 27.2876 22.2424 0
      vertex 30.4834 16.6438 0
      vertex 28.644 16.058 0
    endloop
  endfacet
  facet normal 0 0 -1
    outer loop
      vertex 32.1227 17.4787 0
      vertex 28.5896 24.0667 0
      vertex 28.9151 25.2077 0
    endloop
  endfacet
  facet normal 0 0 -1
    outer loop
      vertex 29.0236 26.5012 0
      vertex 37.08 26.8268 0
      vertex 36.9376 24.8881 0
    endloop
  endfacet
  facet normal 0 0 -1
    outer loop
      vertex 28.9151 25.2077 0
      vertex 36.9376 24.8881 0
      vertex 36.5103 23.0867 0
    endloop
  endfacet
  facet normal -0 0 -1
    outer loop
      vertex 37.08 26.8268 0
      vertex 29.0236 26.5012 0
      vertex 36.8477 29.4198 0
    endloop
  endfacet
  facet normal 0 0 -1
    outer loop
      vertex 28.9151 25.2077 0
      vertex 36.5103 23.0867 0
      vertex 35.7982 21.4227 0
    endloop
  endfacet
  facet normal 0 0 -1
    outer loop
      vertex 28.5828 28.9102 0
      vertex 36.8477 29.4198 0
      vertex 29.0236 26.5012 0
    endloop
  endfacet
  facet normal 0 0 -1
    outer loop
      vertex 28.9151 25.2077 0
      vertex 35.7982 21.4227 0
      vertex 34.8012 19.896 0
    endloop
  endfacet
  facet normal 0 0 -1
    outer loop
      vertex 28.9151 25.2077 0
      vertex 34.8012 19.896 0
      vertex 33.562 18.5628 0
    endloop
  endfacet
  facet normal -0 0 -1
    outer loop
      vertex 36.8477 29.4198 0
      vertex 28.5828 28.9102 0
      vertex 36.1509 31.6923 0
    endloop
  endfacet
  facet normal 0 0 -1
    outer loop
      vertex 28.9151 25.2077 0
      vertex 33.562 18.5628 0
      vertex 32.1227 17.4787 0
    endloop
  endfacet
  facet normal -0 0 -1
    outer loop
      vertex 36.1509 31.6923 0
      vertex 28.5828 28.9102 0
      vertex 34.9895 33.6444 0
    endloop
  endfacet
  facet normal 0 0 -1
    outer loop
      vertex 28.0471 23.0783 0
      vertex 32.1227 17.4787 0
      vertex 30.4834 16.6438 0
    endloop
  endfacet
  facet normal -0 0 -1
    outer loop
      vertex 34.9895 33.6444 0
      vertex 28.5828 28.9102 0
      vertex 33.3636 35.276 0
    endloop
  endfacet
  facet normal 0 0 -1
    outer loop
      vertex 27.2605 30.631 0
      vertex 33.3636 35.276 0
      vertex 28.5828 28.9102 0
    endloop
  endfacet
  facet normal -0 0 -1
    outer loop
      vertex 33.3636 35.276 0
      vertex 27.2605 30.631 0
      vertex 31.3106 36.5636 0
    endloop
  endfacet
  facet normal -0 0 -1
    outer loop
      vertex 31.3106 36.5636 0
      vertex 27.2605 30.631 0
      vertex 28.8677 37.4834 0
    endloop
  endfacet
  facet normal 0 0 -1
    outer loop
      vertex 25.0566 31.6634 0
      vertex 28.8677 37.4834 0
      vertex 27.2605 30.631 0
    endloop
  endfacet
  facet normal -0 0 -1
    outer loop
      vertex 28.8677 37.4834 0
      vertex 25.0566 31.6634 0
      vertex 26.0348 38.0352 0
    endloop
  endfacet
  facet normal 0 0 -1
    outer loop
      vertex 25.0566 31.6634 0
      vertex 22.812 38.2192 0
      vertex 26.0348 38.0352 0
    endloop
  endfacet
  facet normal 0 0 -1
    outer loop
      vertex 21.9712 32.0076 0
      vertex 22.812 38.2192 0
      vertex 25.0566 31.6634 0
    endloop
  endfacet
  facet normal 0 0 -1
    outer loop
      vertex 11.718 32.0076 0
      vertex 22.812 38.2192 0
      vertex 21.9712 32.0076 0
    endloop
  endfacet
  facet normal 0 0 -1
    outer loop
      vertex 11.718 32.0076 0
      vertex 3.71599 38.2192 0
      vertex 22.812 38.2192 0
    endloop
  endfacet
  facet normal 0 0 -1
    outer loop
      vertex 11.718 20.7236 0
      vertex 3.71599 38.2192 0
      vertex 11.718 32.0076 0
    endloop
  endfacet
  facet normal 0 0 -1
    outer loop
      vertex 28.644 16.058 0
      vertex 23.7683 20.8185 0
      vertex 25.1448 21.1033 0
    endloop
  endfacet
  facet normal 0 0 -1
    outer loop
      vertex 22.2278 14.94 0
      vertex 22.1884 20.7236 0
      vertex 23.7683 20.8185 0
    endloop
  endfacet
  facet normal 0 0 -1
    outer loop
      vertex 21.1032 14.512 0
      vertex 22.2278 14.94 0
      vertex 21.3675 14.0796 0
    endloop
  endfacet
  facet normal -0 0 -1
    outer loop
      vertex 22.2278 14.94 0
      vertex 21.1032 14.512 0
      vertex 22.1884 20.7236 0
    endloop
  endfacet
  facet normal 0 0 -1
    outer loop
      vertex 11.718 20.7236 0
      vertex 21.1032 14.512 0
      vertex 11.718 14.512 0
    endloop
  endfacet
  facet normal 0 0 -1
    outer loop
      vertex 21.1032 14.512 0
      vertex 11.718 20.7236 0
      vertex 22.1884 20.7236 0
    endloop
  endfacet
  facet normal 0 0 1
    outer loop
      vertex 29.0236 26.5012 5
      vertex 37.08 26.8268 5
      vertex 36.8477 29.4198 5
    endloop
  endfacet
  facet normal 0 0 1
    outer loop
      vertex 37.08 26.8268 5
      vertex 29.0236 26.5012 5
      vertex 36.9376 24.8881 5
    endloop
  endfacet
  facet normal 0 0 1
    outer loop
      vertex 28.5828 28.9102 5
      vertex 36.8477 29.4198 5
      vertex 36.1509 31.6923 5
    endloop
  endfacet
  facet normal -0 0 1
    outer loop
      vertex 28.9151 25.2077 5
      vertex 36.9376 24.8881 5
      vertex 29.0236 26.5012 5
    endloop
  endfacet
  facet normal 0 0 1
    outer loop
      vertex 28.5828 28.9102 5
      vertex 36.1509 31.6923 5
      vertex 34.9895 33.6444 5
    endloop
  endfacet
  facet normal 0 0 1
    outer loop
      vertex 36.9376 24.8881 5
      vertex 28.9151 25.2077 5
      vertex 36.5103 23.0867 5
    endloop
  endfacet
  facet normal 0 0 1
    outer loop
      vertex 36.5103 23.0867 5
      vertex 28.9151 25.2077 5
      vertex 35.7982 21.4227 5
    endloop
  endfacet
  facet normal 0 0 1
    outer loop
      vertex 28.5828 28.9102 5
      vertex 34.9895 33.6444 5
      vertex 33.3636 35.276 5
    endloop
  endfacet
  facet normal -0 0 1
    outer loop
      vertex 28.5896 24.0667 5
      vertex 35.7982 21.4227 5
      vertex 28.9151 25.2077 5
    endloop
  endfacet
  facet normal 0 0 1
    outer loop
      vertex 27.2605 30.631 5
      vertex 33.3636 35.276 5
      vertex 31.3106 36.5636 5
    endloop
  endfacet
  facet normal 0 0 1
    outer loop
      vertex 35.7982 21.4227 5
      vertex 28.5896 24.0667 5
      vertex 34.8012 19.896 5
    endloop
  endfacet
  facet normal -0 0 1
    outer loop
      vertex 28.0471 23.0783 5
      vertex 34.8012 19.896 5
      vertex 28.5896 24.0667 5
    endloop
  endfacet
  facet normal 0 0 1
    outer loop
      vertex 27.2605 30.631 5
      vertex 31.3106 36.5636 5
      vertex 28.8677 37.4834 5
    endloop
  endfacet
  facet normal 0 0 1
    outer loop
      vertex 36.8477 29.4198 5
      vertex 28.5828 28.9102 5
      vertex 29.0236 26.5012 5
    endloop
  endfacet
  facet normal 0 0 1
    outer loop
      vertex 33.3636 35.276 5
      vertex 27.2605 30.631 5
      vertex 28.5828 28.9102 5
    endloop
  endfacet
  facet normal 0 0 1
    outer loop
      vertex 25.0566 31.6634 5
      vertex 28.8677 37.4834 5
      vertex 26.0348 38.0352 5
    endloop
  endfacet
  facet normal 0 0 1
    outer loop
      vertex 28.8677 37.4834 5
      vertex 25.0566 31.6634 5
      vertex 27.2605 30.631 5
    endloop
  endfacet
  facet normal 0 0 1
    outer loop
      vertex 22.812 38.2192 5
      vertex 25.0566 31.6634 5
      vertex 26.0348 38.0352 5
    endloop
  endfacet
  facet normal 0 0 1
    outer loop
      vertex 22.812 38.2192 5
      vertex 21.9712 32.0076 5
      vertex 25.0566 31.6634 5
    endloop
  endfacet
  facet normal 0 0 1
    outer loop
      vertex 22.812 38.2192 5
      vertex 11.718 32.0076 5
      vertex 21.9712 32.0076 5
    endloop
  endfacet
  facet normal 0 0 1
    outer loop
      vertex 3.71599 38.2192 5
      vertex 11.718 20.7236 5
      vertex 11.718 32.0076 5
    endloop
  endfacet
  facet normal 0 0 1
    outer loop
      vertex 3.71599 0 5
      vertex 11.718 20.7236 5
      vertex 3.71599 38.2192 5
    endloop
  endfacet
  facet normal -0 0 1
    outer loop
      vertex 3.71599 38.2192 5
      vertex 11.718 32.0076 5
      vertex 22.812 38.2192 5
    endloop
  endfacet
  facet normal 0 0 1
    outer loop
      vertex 11.718 20.7236 5
      vertex 3.71599 0 5
      vertex 11.718 14.512 5
    endloop
  endfacet
  facet normal 0 0 1
    outer loop
      vertex 11.718 14.512 5
      vertex 3.71599 0 5
      vertex 11.718 0 5
    endloop
  endfacet
  facet normal 0 0 1
    outer loop
      vertex 34.8012 19.896 5
      vertex 28.0471 23.0783 5
      vertex 33.562 18.5628 5
    endloop
  endfacet
  facet normal 0 0 1
    outer loop
      vertex 33.562 18.5628 5
      vertex 28.0471 23.0783 5
      vertex 32.1227 17.4787 5
    endloop
  endfacet
  facet normal -0 0 1
    outer loop
      vertex 27.2876 22.2424 5
      vertex 32.1227 17.4787 5
      vertex 28.0471 23.0783 5
    endloop
  endfacet
  facet normal 0 0 1
    outer loop
      vertex 28.644 16.058 5
      vertex 29.9732 0 5
      vertex 38.9788 0 5
    endloop
  endfacet
  facet normal 0 0 1
    outer loop
      vertex 32.1227 17.4787 5
      vertex 27.2876 22.2424 5
      vertex 30.4834 16.6438 5
    endloop
  endfacet
  facet normal 0 0 1
    outer loop
      vertex 30.4834 16.6438 5
      vertex 27.2876 22.2424 5
      vertex 28.644 16.058 5
    endloop
  endfacet
  facet normal -0 0 1
    outer loop
      vertex 26.3179 21.5779 5
      vertex 28.644 16.058 5
      vertex 27.2876 22.2424 5
    endloop
  endfacet
  facet normal -0 0 1
    outer loop
      vertex 25.1448 21.1033 5
      vertex 28.644 16.058 5
      vertex 26.3179 21.5779 5
    endloop
  endfacet
  facet normal -0 0 1
    outer loop
      vertex 23.7683 20.8185 5
      vertex 28.644 16.058 5
      vertex 25.1448 21.1033 5
    endloop
  endfacet
  facet normal 0 0 1
    outer loop
      vertex 28.644 16.058 5
      vertex 23.7683 20.8185 5
      vertex 21.1032 14.512 5
    endloop
  endfacet
  facet normal 0 0 1
    outer loop
      vertex 21.1032 14.512 5
      vertex 23.7683 20.8185 5
      vertex 22.1884 20.7236 5
    endloop
  endfacet
  facet normal 0 0 1
    outer loop
      vertex 28.644 16.058 5
      vertex 21.1032 14.512 5
      vertex 29.9732 0 5
    endloop
  endfacet
  facet normal -0 0 1
    outer loop
      vertex 11.718 20.7236 5
      vertex 21.1032 14.512 5
      vertex 22.1884 20.7236 5
    endloop
  endfacet
  facet normal 0 0 1
    outer loop
      vertex 21.1032 14.512 5
      vertex 11.718 20.7236 5
      vertex 11.718 14.512 5
    endloop
  endfacet
  facet normal 0 -1 0
    outer loop
      vertex 11.718 14.512 0
      vertex 21.1032 14.512 5
      vertex 11.718 14.512 5
    endloop
  endfacet
  facet normal 0 -1 -0
    outer loop
      vertex 21.1032 14.512 5
      vertex 11.718 14.512 0
      vertex 21.1032 14.512 0
    endloop
  endfacet
  facet normal -0.853241 -0.521516 0
    outer loop
      vertex 21.8066 13.3612 0
      vertex 29.9732 0 0
      vertex 21.8066 13.3612 2
    endloop
  endfacet
  facet normal -0.853233 -0.52153 -0
    outer loop
      vertex 21.3675 14.0796 2
      vertex 21.1032 14.512 0
      vertex 21.3675 14.0796 0
    endloop
  endfacet
  facet normal -0.853233 -0.52153 0
    outer loop
      vertex 21.1032 14.512 0
      vertex 21.3675 14.0796 2
      vertex 21.1032 14.512 5
    endloop
  endfacet
  facet normal -0.853241 -0.521517 -2.48624e-06
    outer loop
      vertex 21.8066 13.3612 2
      vertex 21.1032 14.512 5
      vertex 21.3675 14.0796 2
    endloop
  endfacet
  facet normal -0.853241 -0.521516 -0
    outer loop
      vertex 29.9732 0 5
      vertex 21.8066 13.3612 2
      vertex 29.9732 0 0
    endloop
  endfacet
  facet normal -0.853241 -0.521517 -2.83787e-06
    outer loop
      vertex 21.8066 13.3612 2
      vertex 29.9732 0 5
      vertex 21.1032 14.512 5
    endloop
  endfacet
  facet normal 0 -1 0
    outer loop
      vertex 29.9732 0 0
      vertex 38.9788 0 5
      vertex 29.9732 0 5
    endloop
  endfacet
  facet normal 0 -1 -0
    outer loop
      vertex 38.9788 0 5
      vertex 29.9732 0 0
      vertex 38.9788 0 0
    endloop
  endfacet
  facet normal 0.840897 0.541195 0
    outer loop
      vertex 38.9788 0 5
      vertex 28.644 16.058 0
      vertex 28.644 16.058 5
    endloop
  endfacet
  facet normal 0.840897 0.541195 0
    outer loop
      vertex 28.644 16.058 0
      vertex 38.9788 0 5
      vertex 38.9788 0 0
    endloop
  endfacet
  facet normal 0.303456 -0.952845 0
    outer loop
      vertex 28.644 16.058 0
      vertex 30.4834 16.6438 5
      vertex 28.644 16.058 5
    endloop
  endfacet
  facet normal 0.303456 -0.952845 0
    outer loop
      vertex 30.4834 16.6438 5
      vertex 28.644 16.058 0
      vertex 30.4834 16.6438 0
    endloop
  endfacet
  facet normal 0.453833 -0.891087 0
    outer loop
      vertex 30.4834 16.6438 0
      vertex 32.1227 17.4787 5
      vertex 30.4834 16.6438 5
    endloop
  endfacet
  facet normal 0.453833 -0.891087 0
    outer loop
      vertex 32.1227 17.4787 5
      vertex 30.4834 16.6438 0
      vertex 32.1227 17.4787 0
    endloop
  endfacet
  facet normal 0.601641 -0.798766 0
    outer loop
      vertex 32.1227 17.4787 0
      vertex 33.562 18.5628 5
      vertex 32.1227 17.4787 5
    endloop
  endfacet
  facet normal 0.601641 -0.798766 0
    outer loop
      vertex 33.562 18.5628 5
      vertex 32.1227 17.4787 0
      vertex 33.562 18.5628 0
    endloop
  endfacet
  facet normal 0.732457 -0.680813 0
    outer loop
      vertex 33.562 18.5628 5
      vertex 34.8012 19.896 0
      vertex 34.8012 19.896 5
    endloop
  endfacet
  facet normal 0.732457 -0.680813 0
    outer loop
      vertex 34.8012 19.896 0
      vertex 33.562 18.5628 5
      vertex 33.562 18.5628 0
    endloop
  endfacet
  facet normal 0.837278 -0.546778 0
    outer loop
      vertex 34.8012 19.896 5
      vertex 35.7982 21.4227 0
      vertex 35.7982 21.4227 5
    endloop
  endfacet
  facet normal 0.837278 -0.546778 0
    outer loop
      vertex 35.7982 21.4227 0
      vertex 34.8012 19.896 5
      vertex 34.8012 19.896 0
    endloop
  endfacet
  facet normal 0.919354 -0.393432 0
    outer loop
      vertex 35.7982 21.4227 5
      vertex 36.5103 23.0867 0
      vertex 36.5103 23.0867 5
    endloop
  endfacet
  facet normal 0.919354 -0.393432 0
    outer loop
      vertex 36.5103 23.0867 0
      vertex 35.7982 21.4227 5
      vertex 35.7982 21.4227 0
    endloop
  endfacet
  facet normal 0.973001 -0.2308 0
    outer loop
      vertex 36.5103 23.0867 5
      vertex 36.9376 24.8881 0
      vertex 36.9376 24.8881 5
    endloop
  endfacet
  facet normal 0.973001 -0.2308 0
    outer loop
      vertex 36.9376 24.8881 0
      vertex 36.5103 23.0867 5
      vertex 36.5103 23.0867 0
    endloop
  endfacet
  facet normal 0.997313 -0.0732539 0
    outer loop
      vertex 36.9376 24.8881 5
      vertex 37.08 26.8268 0
      vertex 37.08 26.8268 5
    endloop
  endfacet
  facet normal 0.997313 -0.0732539 0
    outer loop
      vertex 37.08 26.8268 0
      vertex 36.9376 24.8881 5
      vertex 36.9376 24.8881 0
    endloop
  endfacet
  facet normal 0.996011 0.08923 0
    outer loop
      vertex 37.08 26.8268 5
      vertex 36.8477 29.4198 0
      vertex 36.8477 29.4198 5
    endloop
  endfacet
  facet normal 0.996011 0.08923 0
    outer loop
      vertex 36.8477 29.4198 0
      vertex 37.08 26.8268 5
      vertex 37.08 26.8268 0
    endloop
  endfacet
  facet normal 0.956066 0.293152 0
    outer loop
      vertex 36.8477 29.4198 5
      vertex 36.1509 31.6923 0
      vertex 36.1509 31.6923 5
    endloop
  endfacet
  facet normal 0.956066 0.293152 0
    outer loop
      vertex 36.1509 31.6923 0
      vertex 36.8477 29.4198 5
      vertex 36.8477 29.4198 0
    endloop
  endfacet
  facet normal 0.859402 0.5113 0
    outer loop
      vertex 36.1509 31.6923 5
      vertex 34.9895 33.6444 0
      vertex 34.9895 33.6444 5
    endloop
  endfacet
  facet normal 0.859402 0.5113 0
    outer loop
      vertex 34.9895 33.6444 0
      vertex 36.1509 31.6923 5
      vertex 36.1509 31.6923 0
    endloop
  endfacet
  facet normal 0.708343 0.705868 0
    outer loop
      vertex 34.9895 33.6444 5
      vertex 33.3636 35.276 0
      vertex 33.3636 35.276 5
    endloop
  endfacet
  facet normal 0.708343 0.705868 0
    outer loop
      vertex 33.3636 35.276 0
      vertex 34.9895 33.6444 5
      vertex 34.9895 33.6444 0
    endloop
  endfacet
  facet normal 0.531326 0.847167 -0
    outer loop
      vertex 33.3636 35.276 0
      vertex 31.3106 36.5636 5
      vertex 33.3636 35.276 5
    endloop
  endfacet
  facet normal 0.531326 0.847167 0
    outer loop
      vertex 31.3106 36.5636 5
      vertex 33.3636 35.276 0
      vertex 31.3106 36.5636 0
    endloop
  endfacet
  facet normal 0.35237 0.935861 -0
    outer loop
      vertex 31.3106 36.5636 0
      vertex 28.8677 37.4834 5
      vertex 31.3106 36.5636 5
    endloop
  endfacet
  facet normal 0.35237 0.935861 0
    outer loop
      vertex 28.8677 37.4834 5
      vertex 31.3106 36.5636 0
      vertex 28.8677 37.4834 0
    endloop
  endfacet
  facet normal 0.19119 0.981553 -0
    outer loop
      vertex 28.8677 37.4834 0
      vertex 26.0348 38.0352 5
      vertex 28.8677 37.4834 5
    endloop
  endfacet
  facet normal 0.19119 0.981553 0
    outer loop
      vertex 26.0348 38.0352 5
      vertex 28.8677 37.4834 0
      vertex 26.0348 38.0352 0
    endloop
  endfacet
  facet normal 0.0570004 0.998374 -0
    outer loop
      vertex 26.0348 38.0352 0
      vertex 22.812 38.2192 5
      vertex 26.0348 38.0352 5
    endloop
  endfacet
  facet normal 0.0570004 0.998374 0
    outer loop
      vertex 22.812 38.2192 5
      vertex 26.0348 38.0352 0
      vertex 22.812 38.2192 0
    endloop
  endfacet
  facet normal 0 1 -0
    outer loop
      vertex 22.812 38.2192 0
      vertex 3.71599 38.2192 5
      vertex 22.812 38.2192 5
    endloop
  endfacet
  facet normal 0 1 0
    outer loop
      vertex 3.71599 38.2192 5
      vertex 22.812 38.2192 0
      vertex 3.71599 38.2192 0
    endloop
  endfacet
  facet normal -1 0 0
    outer loop
      vertex 3.71599 0 0
      vertex 3.71599 38.2192 5
      vertex 3.71599 38.2192 0
    endloop
  endfacet
  facet normal -1 -0 0
    outer loop
      vertex 3.71599 38.2192 5
      vertex 3.71599 0 0
      vertex 3.71599 0 5
    endloop
  endfacet
  facet normal 0 -1 0
    outer loop
      vertex 3.71599 0 0
      vertex 11.718 0 5
      vertex 3.71599 0 5
    endloop
  endfacet
  facet normal 0 -1 -0
    outer loop
      vertex 11.718 0 5
      vertex 3.71599 0 0
      vertex 11.718 0 0
    endloop
  endfacet
  facet normal 1 -0 0
    outer loop
      vertex 11.718 0 5
      vertex 11.718 14.512 0
      vertex 11.718 14.512 5
    endloop
  endfacet
  facet normal 1 0 0
    outer loop
      vertex 11.718 14.512 0
      vertex 11.718 0 5
      vertex 11.718 0 0
    endloop
  endfacet
  facet normal 1 -0 0
    outer loop
      vertex 11.718 20.7236 5
      vertex 11.718 32.0076 0
      vertex 11.718 32.0076 5
    endloop
  endfacet
  facet normal 1 0 0
    outer loop
      vertex 11.718 32.0076 0
      vertex 11.718 20.7236 5
      vertex 11.718 20.7236 0
    endloop
  endfacet
  facet normal 0 -1 0
    outer loop
      vertex 11.718 32.0076 0
      vertex 21.9712 32.0076 5
      vertex 11.718 32.0076 5
    endloop
  endfacet
  facet normal 0 -1 -0
    outer loop
      vertex 21.9712 32.0076 5
      vertex 11.718 32.0076 0
      vertex 21.9712 32.0076 0
    endloop
  endfacet
  facet normal -0.11087 -0.993835 0
    outer loop
      vertex 21.9712 32.0076 0
      vertex 25.0566 31.6634 5
      vertex 21.9712 32.0076 5
    endloop
  endfacet
  facet normal -0.11087 -0.993835 -0
    outer loop
      vertex 25.0566 31.6634 5
      vertex 21.9712 32.0076 0
      vertex 25.0566 31.6634 0
    endloop
  endfacet
  facet normal -0.424205 -0.905566 0
    outer loop
      vertex 25.0566 31.6634 0
      vertex 27.2605 30.631 5
      vertex 25.0566 31.6634 5
    endloop
  endfacet
  facet normal -0.424205 -0.905566 -0
    outer loop
      vertex 27.2605 30.631 5
      vertex 25.0566 31.6634 0
      vertex 27.2605 30.631 0
    endloop
  endfacet
  facet normal -0.792934 -0.609308 0
    outer loop
      vertex 28.5828 28.9102 0
      vertex 27.2605 30.631 5
      vertex 27.2605 30.631 0
    endloop
  endfacet
  facet normal -0.792934 -0.609308 0
    outer loop
      vertex 27.2605 30.631 5
      vertex 28.5828 28.9102 0
      vertex 28.5828 28.9102 5
    endloop
  endfacet
  facet normal -0.983668 -0.179992 0
    outer loop
      vertex 29.0236 26.5012 0
      vertex 28.5828 28.9102 5
      vertex 28.5828 28.9102 0
    endloop
  endfacet
  facet normal -0.983668 -0.179992 0
    outer loop
      vertex 28.5828 28.9102 5
      vertex 29.0236 26.5012 0
      vertex 29.0236 26.5012 5
    endloop
  endfacet
  facet normal -0.9965 0.0835874 0
    outer loop
      vertex 28.9151 25.2077 0
      vertex 29.0236 26.5012 5
      vertex 29.0236 26.5012 0
    endloop
  endfacet
  facet normal -0.9965 0.0835874 0
    outer loop
      vertex 29.0236 26.5012 5
      vertex 28.9151 25.2077 0
      vertex 28.9151 25.2077 5
    endloop
  endfacet
  facet normal -0.961635 0.274332 0
    outer loop
      vertex 28.5896 24.0667 0
      vertex 28.9151 25.2077 5
      vertex 28.9151 25.2077 0
    endloop
  endfacet
  facet normal -0.961635 0.274332 0
    outer loop
      vertex 28.9151 25.2077 5
      vertex 28.5896 24.0667 0
      vertex 28.5896 24.0667 5
    endloop
  endfacet
  facet normal -0.876635 0.481156 0
    outer loop
      vertex 28.0471 23.0783 0
      vertex 28.5896 24.0667 5
      vertex 28.5896 24.0667 0
    endloop
  endfacet
  facet normal -0.876635 0.481156 0
    outer loop
      vertex 28.5896 24.0667 5
      vertex 28.0471 23.0783 0
      vertex 28.0471 23.0783 5
    endloop
  endfacet
  facet normal -0.74012 0.672474 0
    outer loop
      vertex 27.2876 22.2424 0
      vertex 28.0471 23.0783 5
      vertex 28.0471 23.0783 0
    endloop
  endfacet
  facet normal -0.74012 0.672474 0
    outer loop
      vertex 28.0471 23.0783 5
      vertex 27.2876 22.2424 0
      vertex 27.2876 22.2424 5
    endloop
  endfacet
  facet normal -0.565275 0.824902 0
    outer loop
      vertex 27.2876 22.2424 0
      vertex 26.3179 21.5779 5
      vertex 27.2876 22.2424 5
    endloop
  endfacet
  facet normal -0.565275 0.824902 0
    outer loop
      vertex 26.3179 21.5779 5
      vertex 27.2876 22.2424 0
      vertex 26.3179 21.5779 0
    endloop
  endfacet
  facet normal -0.375039 0.927009 0
    outer loop
      vertex 26.3179 21.5779 0
      vertex 25.1448 21.1033 5
      vertex 26.3179 21.5779 5
    endloop
  endfacet
  facet normal -0.375039 0.927009 0
    outer loop
      vertex 25.1448 21.1033 5
      vertex 26.3179 21.5779 0
      vertex 25.1448 21.1033 0
    endloop
  endfacet
  facet normal -0.20261 0.979259 0
    outer loop
      vertex 25.1448 21.1033 0
      vertex 23.7683 20.8185 5
      vertex 25.1448 21.1033 5
    endloop
  endfacet
  facet normal -0.20261 0.979259 0
    outer loop
      vertex 23.7683 20.8185 5
      vertex 25.1448 21.1033 0
      vertex 23.7683 20.8185 0
    endloop
  endfacet
  facet normal -0.059959 0.998201 0
    outer loop
      vertex 23.7683 20.8185 0
      vertex 22.1884 20.7236 5
      vertex 23.7683 20.8185 5
    endloop
  endfacet
  facet normal -0.059959 0.998201 0
    outer loop
      vertex 22.1884 20.7236 5
      vertex 23.7683 20.8185 0
      vertex 22.1884 20.7236 0
    endloop
  endfacet
  facet normal 0 1 -0
    outer loop
      vertex 22.1884 20.7236 0
      vertex 11.718 20.7236 5
      vertex 22.1884 20.7236 5
    endloop
  endfacet
  facet normal 0 1 0
    outer loop
      vertex 11.718 20.7236 5
      vertex 22.1884 20.7236 0
      vertex 11.718 20.7236 0
    endloop
  endfacet
  facet normal 0.707148 -0.707066 0
    outer loop
      vertex 21.3675 14.0796 2
      vertex 22.2278 14.94 0
      vertex 22.2278 14.94 2
    endloop
  endfacet
  facet normal 0.707148 -0.707066 0
    outer loop
      vertex 22.2278 14.94 0
      vertex 21.3675 14.0796 2
      vertex 21.3675 14.0796 0
    endloop
  endfacet
  facet normal -0.707107 -0.707107 0
    outer loop
      vertex 23.2278 13.94 0
      vertex 22.2278 14.94 2
      vertex 22.2278 14.94 0
    endloop
  endfacet
  facet normal -0.707107 -0.707107 0
    outer loop
      vertex 22.2278 14.94 2
      vertex 23.2278 13.94 0
      vertex 23.2278 13.94 2
    endloop
  endfacet
  facet normal 0 0 -1
    outer loop
      vertex 21.8066 13.3612 2
      vertex 23.2278 13.94 2
      vertex 22.2278 12.94 2
    endloop
  endfacet
  facet normal -0 0 -1
    outer loop
      vertex 23.2278 13.94 2
      vertex 21.8066 13.3612 2
      vertex 22.2278 14.94 2
    endloop
  endfacet
  facet normal 0 0 -1
    outer loop
      vertex 22.2278 14.94 2
      vertex 21.8066 13.3612 2
      vertex 21.3675 14.0796 2
    endloop
  endfacet
  facet normal -0.707107 0.707107 0
    outer loop
      vertex 22.2278 12.94 0
      vertex 23.2278 13.94 2
      vertex 23.2278 13.94 0
    endloop
  endfacet
  facet normal -0.707107 0.707107 0
    outer loop
      vertex 23.2278 13.94 2
      vertex 22.2278 12.94 0
      vertex 22.2278 12.94 2
    endloop
  endfacet
  facet normal 0.707107 0.707107 0
    outer loop
      vertex 22.2278 12.94 2
      vertex 21.8066 13.3612 0
      vertex 21.8066 13.3612 2
    endloop
  endfacet
  facet normal 0.707107 0.707107 0
    outer loop
      vertex 21.8066 13.3612 0
      vertex 22.2278 12.94 2
      vertex 22.2278 12.94 0
    endloop
  endfacet
endsolid OpenSCAD_Model
