solid OpenSCAD_Model
  facet normal 0 0 -1
    outer loop
      vertex 3.71599 0 0
      vertex 10.8228 22.5408 0
      vertex 10.8228 0 0
    endloop
  endfacet
  facet normal 0 0 -1
    outer loop
      vertex 3.71599 38.2192 0
      vertex 10.8228 22.5408 0
      vertex 3.71599 0 0
    endloop
  endfacet
  facet normal 0 0 -1
    outer loop
      vertex 10.8228 22.5408 0
      vertex 3.71599 38.2192 0
      vertex 10.7923 23.9479 0
    endloop
  endfacet
  facet normal 0 0 -1
    outer loop
      vertex 10.7923 23.9479 0
      vertex 3.71599 38.2192 0
      vertex 10.7008 25.5653 0
    endloop
  endfacet
  facet normal 0 0 -1
    outer loop
      vertex 10.7008 25.5653 0
      vertex 3.71599 38.2192 0
      vertex 10.5483 27.3929 0
    endloop
  endfacet
  facet normal 0 0 -1
    outer loop
      vertex 29.5425 10.5466 0
      vertex 36.3748 0 0
      vertex 29.756 8.54439 0
    endloop
  endfacet
  facet normal 0 0 -1
    outer loop
      vertex 29.756 8.54439 0
      vertex 27.8812 11.0013 0
      vertex 28.1843 11.3044 0
    endloop
  endfacet
  facet normal 0 0 -1
    outer loop
      vertex 26.9892 0 0
      vertex 29.756 8.54439 0
      vertex 36.3748 0 0
    endloop
  endfacet
  facet normal 0 0 -1
    outer loop
      vertex 26.9892 0 0
      vertex 27.8812 11.0013 0
      vertex 29.756 8.54439 0
    endloop
  endfacet
  facet normal 0 0 -1
    outer loop
      vertex 26.9892 0 0
      vertex 26.8812 12.0013 0
      vertex 27.8812 11.0013 0
    endloop
  endfacet
  facet normal 0 0 -1
    outer loop
      vertex 10.3348 29.4308 0
      vertex 26.8812 12.0013 0
      vertex 26.9892 0 0
    endloop
  endfacet
  facet normal 0 0 -1
    outer loop
      vertex 26.8812 12.0013 0
      vertex 10.3348 29.4308 0
      vertex 12.8572 38.2192 0
    endloop
  endfacet
  facet normal 0 0 -1
    outer loop
      vertex 10.3348 29.4308 0
      vertex 3.71599 38.2192 0
      vertex 12.8572 38.2192 0
    endloop
  endfacet
  facet normal 0 0 -1
    outer loop
      vertex 10.5483 27.3929 0
      vertex 3.71599 38.2192 0
      vertex 10.3348 29.4308 0
    endloop
  endfacet
  facet normal 0 0 -1
    outer loop
      vertex 29.39 12.4572 0
      vertex 36.3748 0 0
      vertex 29.5425 10.5466 0
    endloop
  endfacet
  facet normal 0 0 -1
    outer loop
      vertex 29.2985 14.2762 0
      vertex 36.3748 0 0
      vertex 29.39 12.4572 0
    endloop
  endfacet
  facet normal 0 0 -1
    outer loop
      vertex 29.268 16.0036 0
      vertex 36.3748 0 0
      vertex 29.2985 14.2762 0
    endloop
  endfacet
  facet normal 0 0 -1
    outer loop
      vertex 36.3748 0 0
      vertex 29.268 16.0036 0
      vertex 36.3748 38.2192 0
    endloop
  endfacet
  facet normal -0 0 -1
    outer loop
      vertex 36.3748 38.2192 0
      vertex 29.268 16.0036 0
      vertex 29.268 38.2192 0
    endloop
  endfacet
  facet normal -0 0 -1
    outer loop
      vertex 27.4586 12.5787 0
      vertex 26.8812 12.0013 0
      vertex 12.8572 38.2192 0
    endloop
  endfacet
  facet normal -0 0 1
    outer loop
      vertex 29.268 16.0036 5
      vertex 36.3748 0 5
      vertex 36.3748 38.2192 5
    endloop
  endfacet
  facet normal 0 0 1
    outer loop
      vertex 36.3748 0 5
      vertex 29.5425 10.5466 5
      vertex 29.756 8.54439 5
    endloop
  endfacet
  facet normal 0 0 1
    outer loop
      vertex 36.3748 0 5
      vertex 29.39 12.4572 5
      vertex 29.5425 10.5466 5
    endloop
  endfacet
  facet normal 0 0 1
    outer loop
      vertex 36.3748 0 5
      vertex 29.2985 14.2762 5
      vertex 29.39 12.4572 5
    endloop
  endfacet
  facet normal 0 0 1
    outer loop
      vertex 29.268 16.0036 5
      vertex 36.3748 38.2192 5
      vertex 29.268 38.2192 5
    endloop
  endfacet
  facet normal 0 0 1
    outer loop
      vertex 36.3748 0 5
      vertex 29.268 16.0036 5
      vertex 29.2985 14.2762 5
    endloop
  endfacet
  facet normal 0 0 1
    outer loop
      vertex 29.756 8.54439 5
      vertex 26.9892 0 5
      vertex 36.3748 0 5
    endloop
  endfacet
  facet normal -0 0 1
    outer loop
      vertex 10.3348 29.4308 5
      vertex 29.756 8.54439 5
      vertex 12.8572 38.2192 5
    endloop
  endfacet
  facet normal 0 0 1
    outer loop
      vertex 29.756 8.54439 5
      vertex 10.3348 29.4308 5
      vertex 26.9892 0 5
    endloop
  endfacet
  facet normal 0 -0 1
    outer loop
      vertex 10.3348 29.4308 5
      vertex 12.8572 38.2192 5
      vertex 3.71599 38.2192 5
    endloop
  endfacet
  facet normal 0 0 1
    outer loop
      vertex 3.71599 38.2192 5
      vertex 10.8228 22.5408 5
      vertex 10.7923 23.9479 5
    endloop
  endfacet
  facet normal 0 0 1
    outer loop
      vertex 3.71599 38.2192 5
      vertex 10.7923 23.9479 5
      vertex 10.7008 25.5653 5
    endloop
  endfacet
  facet normal 0 0 1
    outer loop
      vertex 3.71599 38.2192 5
      vertex 10.7008 25.5653 5
      vertex 10.5483 27.3929 5
    endloop
  endfacet
  facet normal 0 0 1
    outer loop
      vertex 3.71599 38.2192 5
      vertex 10.5483 27.3929 5
      vertex 10.3348 29.4308 5
    endloop
  endfacet
  facet normal 0 0 1
    outer loop
      vertex 10.8228 22.5408 5
      vertex 3.71599 38.2192 5
      vertex 3.71599 0 5
    endloop
  endfacet
  facet normal 0 0 1
    outer loop
      vertex 10.8228 22.5408 5
      vertex 3.71599 0 5
      vertex 10.8228 0 5
    endloop
  endfacet
  facet normal 0.999765 0.0216707 0
    outer loop
      vertex 10.8228 22.5408 5
      vertex 10.7923 23.9479 0
      vertex 10.7923 23.9479 5
    endloop
  endfacet
  facet normal 0.999765 0.0216707 0
    outer loop
      vertex 10.7923 23.9479 0
      vertex 10.8228 22.5408 5
      vertex 10.8228 22.5408 0
    endloop
  endfacet
  facet normal 0.998404 0.056482 0
    outer loop
      vertex 10.7923 23.9479 5
      vertex 10.7008 25.5653 0
      vertex 10.7008 25.5653 5
    endloop
  endfacet
  facet normal 0.998404 0.056482 0
    outer loop
      vertex 10.7008 25.5653 0
      vertex 10.7923 23.9479 5
      vertex 10.7923 23.9479 0
    endloop
  endfacet
  facet normal 0.996537 0.0831538 0
    outer loop
      vertex 10.7008 25.5653 5
      vertex 10.5483 27.3929 0
      vertex 10.5483 27.3929 5
    endloop
  endfacet
  facet normal 0.996537 0.0831538 0
    outer loop
      vertex 10.5483 27.3929 0
      vertex 10.7008 25.5653 5
      vertex 10.7008 25.5653 0
    endloop
  endfacet
  facet normal 0.994557 0.104194 0
    outer loop
      vertex 10.5483 27.3929 5
      vertex 10.3348 29.4308 0
      vertex 10.3348 29.4308 5
    endloop
  endfacet
  facet normal 0.994557 0.104194 0
    outer loop
      vertex 10.3348 29.4308 0
      vertex 10.5483 27.3929 5
      vertex 10.5483 27.3929 0
    endloop
  endfacet
  facet normal -0.870314 -0.492496 0
    outer loop
      vertex 26.9892 0 0
      vertex 10.3348 29.4308 5
      vertex 10.3348 29.4308 0
    endloop
  endfacet
  facet normal -0.870314 -0.492496 0
    outer loop
      vertex 10.3348 29.4308 5
      vertex 26.9892 0 0
      vertex 26.9892 0 5
    endloop
  endfacet
  facet normal 0 -1 0
    outer loop
      vertex 26.9892 0 0
      vertex 36.3748 0 5
      vertex 26.9892 0 5
    endloop
  endfacet
  facet normal 0 -1 -0
    outer loop
      vertex 36.3748 0 5
      vertex 26.9892 0 0
      vertex 36.3748 0 0
    endloop
  endfacet
  facet normal 1 -0 0
    outer loop
      vertex 36.3748 0 5
      vertex 36.3748 38.2192 0
      vertex 36.3748 38.2192 5
    endloop
  endfacet
  facet normal 1 0 0
    outer loop
      vertex 36.3748 38.2192 0
      vertex 36.3748 0 5
      vertex 36.3748 0 0
    endloop
  endfacet
  facet normal 0 1 -0
    outer loop
      vertex 36.3748 38.2192 0
      vertex 29.268 38.2192 5
      vertex 36.3748 38.2192 5
    endloop
  endfacet
  facet normal 0 1 0
    outer loop
      vertex 29.268 38.2192 5
      vertex 36.3748 38.2192 0
      vertex 29.268 38.2192 0
    endloop
  endfacet
  facet normal -1 0 0
    outer loop
      vertex 29.268 16.0036 0
      vertex 29.268 38.2192 5
      vertex 29.268 38.2192 0
    endloop
  endfacet
  facet normal -1 -0 0
    outer loop
      vertex 29.268 38.2192 5
      vertex 29.268 16.0036 0
      vertex 29.268 16.0036 5
    endloop
  endfacet
  facet normal -0.999844 -0.0176538 0
    outer loop
      vertex 29.2985 14.2762 0
      vertex 29.268 16.0036 5
      vertex 29.268 16.0036 0
    endloop
  endfacet
  facet normal -0.999844 -0.0176538 0
    outer loop
      vertex 29.268 16.0036 5
      vertex 29.2985 14.2762 0
      vertex 29.2985 14.2762 5
    endloop
  endfacet
  facet normal -0.998737 -0.0502388 0
    outer loop
      vertex 29.39 12.4572 0
      vertex 29.2985 14.2762 5
      vertex 29.2985 14.2762 0
    endloop
  endfacet
  facet normal -0.998737 -0.0502388 0
    outer loop
      vertex 29.2985 14.2762 5
      vertex 29.39 12.4572 0
      vertex 29.39 12.4572 5
    endloop
  endfacet
  facet normal -0.99683 -0.0795648 0
    outer loop
      vertex 29.5425 10.5466 0
      vertex 29.39 12.4572 5
      vertex 29.39 12.4572 0
    endloop
  endfacet
  facet normal -0.99683 -0.0795648 0
    outer loop
      vertex 29.39 12.4572 5
      vertex 29.5425 10.5466 0
      vertex 29.5425 10.5466 5
    endloop
  endfacet
  facet normal -0.994363 -0.106031 0
    outer loop
      vertex 29.756 8.54439 0
      vertex 29.5425 10.5466 5
      vertex 29.5425 10.5466 0
    endloop
  endfacet
  facet normal -0.994363 -0.106031 0
    outer loop
      vertex 29.5425 10.5466 5
      vertex 29.756 8.54439 0
      vertex 29.756 8.54439 5
    endloop
  endfacet
  facet normal 0.868977 0.494853 0
    outer loop
      vertex 12.8572 38.2192 5
      vertex 27.4586 12.5787 2
      vertex 12.8572 38.2192 0
    endloop
  endfacet
  facet normal 0.868977 0.494853 8.71999e-07
    outer loop
      vertex 29.756 8.54439 5
      vertex 27.4586 12.5787 2
      vertex 12.8572 38.2192 5
    endloop
  endfacet
  facet normal 0.868968 0.494868 2.77193e-05
    outer loop
      vertex 27.4586 12.5787 2
      vertex 29.756 8.54439 5
      vertex 28.1843 11.3044 2
    endloop
  endfacet
  facet normal 0.868981 0.494845 -0
    outer loop
      vertex 29.756 8.54439 0
      vertex 28.1843 11.3044 2
      vertex 29.756 8.54439 5
    endloop
  endfacet
  facet normal 0.868981 0.494845 0
    outer loop
      vertex 28.1843 11.3044 2
      vertex 29.756 8.54439 0
      vertex 28.1843 11.3044 0
    endloop
  endfacet
  facet normal 0.868977 0.494853 0
    outer loop
      vertex 12.8572 38.2192 0
      vertex 27.4586 12.5787 2
      vertex 27.4586 12.5787 0
    endloop
  endfacet
  facet normal 0 1 -0
    outer loop
      vertex 12.8572 38.2192 0
      vertex 3.71599 38.2192 5
      vertex 12.8572 38.2192 5
    endloop
  endfacet
  facet normal 0 1 0
    outer loop
      vertex 3.71599 38.2192 5
      vertex 12.8572 38.2192 0
      vertex 3.71599 38.2192 0
    endloop
  endfacet
  facet normal -1 0 0
    outer loop
      vertex 3.71599 0 0
      vertex 3.71599 38.2192 5
      vertex 3.71599 38.2192 0
    endloop
  endfacet
  facet normal -1 -0 0
    outer loop
      vertex 3.71599 38.2192 5
      vertex 3.71599 0 0
      vertex 3.71599 0 5
    endloop
  endfacet
  facet normal 0 -1 0
    outer loop
      vertex 3.71599 0 0
      vertex 10.8228 0 5
      vertex 3.71599 0 5
    endloop
  endfacet
  facet normal 0 -1 -0
    outer loop
      vertex 10.8228 0 5
      vertex 3.71599 0 0
      vertex 10.8228 0 0
    endloop
  endfacet
  facet normal 1 -0 0
    outer loop
      vertex 10.8228 0 5
      vertex 10.8228 22.5408 0
      vertex 10.8228 22.5408 5
    endloop
  endfacet
  facet normal 1 0 0
    outer loop
      vertex 10.8228 22.5408 0
      vertex 10.8228 0 5
      vertex 10.8228 0 0
    endloop
  endfacet
  facet normal 0.707107 -0.707107 0
    outer loop
      vertex 26.8812 12.0013 2
      vertex 27.4586 12.5787 0
      vertex 27.4586 12.5787 2
    endloop
  endfacet
  facet normal 0.707107 -0.707107 0
    outer loop
      vertex 27.4586 12.5787 0
      vertex 26.8812 12.0013 2
      vertex 26.8812 12.0013 0
    endloop
  endfacet
  facet normal 0 0 -1
    outer loop
      vertex 26.8812 12.0013 2
      vertex 28.1843 11.3044 2
      vertex 27.8812 11.0013 2
    endloop
  endfacet
  facet normal 0 0 -1
    outer loop
      vertex 28.1843 11.3044 2
      vertex 26.8812 12.0013 2
      vertex 27.4586 12.5787 2
    endloop
  endfacet
  facet normal -0.707107 0.707107 0
    outer loop
      vertex 27.8812 11.0013 0
      vertex 28.1843 11.3044 2
      vertex 28.1843 11.3044 0
    endloop
  endfacet
  facet normal -0.707107 0.707107 0
    outer loop
      vertex 28.1843 11.3044 2
      vertex 27.8812 11.0013 0
      vertex 27.8812 11.0013 2
    endloop
  endfacet
  facet normal 0.707107 0.707107 0
    outer loop
      vertex 27.8812 11.0013 2
      vertex 26.8812 12.0013 0
      vertex 26.8812 12.0013 2
    endloop
  endfacet
  facet normal 0.707107 0.707107 0
    outer loop
      vertex 26.8812 12.0013 0
      vertex 27.8812 11.0013 2
      vertex 27.8812 11.0013 0
    endloop
  endfacet
endsolid OpenSCAD_Model
