solid OpenSCAD_Model
  facet normal 0 0 -1
    outer loop
      vertex 39.6568 16.9532 0
      vertex 52.3784 38.2192 0
      vertex 42.5048 0 0
    endloop
  endfacet
  facet normal -0 0 -1
    outer loop
      vertex 52.3784 38.2192 0
      vertex 39.6568 16.9532 0
      vertex 44.268 38.2192 0
    endloop
  endfacet
  facet normal 0 0 -1
    outer loop
      vertex 42.5048 0 0
      vertex 38.2192 10.7144 0
      vertex 39.6568 16.9532 0
    endloop
  endfacet
  facet normal 0 0 -1
    outer loop
      vertex 42.5048 0 0
      vertex 37.5412 7.56799 0
      vertex 38.2192 10.7144 0
    endloop
  endfacet
  facet normal 0 0 -1
    outer loop
      vertex 33.0112 0 0
      vertex 36.9122 11.223 0
      vertex 37.5412 7.56799 0
    endloop
  endfacet
  facet normal 0 0 -1
    outer loop
      vertex 27.8304 22.1068 0
      vertex 36.9122 11.223 0
      vertex 33.0112 0 0
    endloop
  endfacet
  facet normal 0 0 -1
    outer loop
      vertex 36.3815 14.1592 0
      vertex 27.8304 22.1068 0
      vertex 35.9492 16.3766 0
    endloop
  endfacet
  facet normal 0 0 -1
    outer loop
      vertex 33.0112 0 0
      vertex 37.5412 7.56799 0
      vertex 42.5048 0 0
    endloop
  endfacet
  facet normal 0 0 -1
    outer loop
      vertex 36.9122 11.223 0
      vertex 27.8304 22.1068 0
      vertex 36.3815 14.1592 0
    endloop
  endfacet
  facet normal 0 0 -1
    outer loop
      vertex 35.9492 16.3766 0
      vertex 27.8304 22.1068 0
      vertex 35.6152 17.8752 0
    endloop
  endfacet
  facet normal 0 0 -1
    outer loop
      vertex 27.3743 24.0818 0
      vertex 35.6152 17.8752 0
      vertex 27.8304 22.1068 0
    endloop
  endfacet
  facet normal 0 0 -1
    outer loop
      vertex 26.9555 26.101 0
      vertex 35.6152 17.8752 0
      vertex 27.3743 24.0818 0
    endloop
  endfacet
  facet normal 0 0 -1
    outer loop
      vertex 35.6152 17.8752 0
      vertex 26.9555 26.101 0
      vertex 30.7868 38.2192 0
    endloop
  endfacet
  facet normal 0 0 -1
    outer loop
      vertex 26.5741 28.1642 0
      vertex 30.7868 38.2192 0
      vertex 26.9555 26.101 0
    endloop
  endfacet
  facet normal 0 0 -1
    outer loop
      vertex 26.23 30.2716 0
      vertex 30.7868 38.2192 0
      vertex 26.5741 28.1642 0
    endloop
  endfacet
  facet normal 0 0 -1
    outer loop
      vertex 19.7377 29.2467 0
      vertex 25.9197 28.6008 0
      vertex 25.6399 27.1419 0
    endloop
  endfacet
  facet normal 0 0 -1
    outer loop
      vertex 19.7377 29.2467 0
      vertex 25.6399 27.1419 0
      vertex 25.3907 25.895 0
    endloop
  endfacet
  facet normal 0 0 -1
    outer loop
      vertex 19.7377 29.2467 0
      vertex 25.3907 25.895 0
      vertex 25.172 24.86 0
    endloop
  endfacet
  facet normal 0 0 -1
    outer loop
      vertex 18.1365 22.3476 0
      vertex 25.172 24.86 0
      vertex 24.6583 22.6095 0
    endloop
  endfacet
  facet normal 0 0 -1
    outer loop
      vertex 18.1365 22.3476 0
      vertex 24.6583 22.6095 0
      vertex 23.5242 17.716 0
    endloop
  endfacet
  facet normal 0 0 -1
    outer loop
      vertex 26.23 30.2716 0
      vertex 21.8356 38.2192 0
      vertex 30.7868 38.2192 0
    endloop
  endfacet
  facet normal -0 0 -1
    outer loop
      vertex 25.172 24.86 0
      vertex 18.1365 22.3476 0
      vertex 19.7377 29.2467 0
    endloop
  endfacet
  facet normal 0 0 -1
    outer loop
      vertex 16.424 14.7696 0
      vertex 23.5242 17.716 0
      vertex 21.7695 10.1795 0
    endloop
  endfacet
  facet normal -0 0 -1
    outer loop
      vertex 26.23 30.2716 0
      vertex 19.7377 29.2467 0
      vertex 21.8356 38.2192 0
    endloop
  endfacet
  facet normal 0 0 -1
    outer loop
      vertex 14.946 7.56799 0
      vertex 21.7695 10.1795 0
      vertex 19.3944 0 0
    endloop
  endfacet
  facet normal 0 0 -1
    outer loop
      vertex 25.9197 28.6008 0
      vertex 19.7377 29.2467 0
      vertex 26.23 30.2716 0
    endloop
  endfacet
  facet normal -0 0 -1
    outer loop
      vertex 23.5242 17.716 0
      vertex 17.0319 17.5219 0
      vertex 18.1365 22.3476 0
    endloop
  endfacet
  facet normal 0 0 -1
    outer loop
      vertex 23.5242 17.716 0
      vertex 16.424 14.7696 0
      vertex 17.0319 17.5219 0
    endloop
  endfacet
  facet normal 0 0 -1
    outer loop
      vertex 21.7695 10.1795 0
      vertex 16.0621 13.0328 0
      vertex 16.424 14.7696 0
    endloop
  endfacet
  facet normal 0 0 -1
    outer loop
      vertex 21.7695 10.1795 0
      vertex 15.6951 11.2536 0
      vertex 16.0621 13.0328 0
    endloop
  endfacet
  facet normal -0 0 -1
    outer loop
      vertex 21.7695 10.1795 0
      vertex 15.3231 9.43199 0
      vertex 15.6951 11.2536 0
    endloop
  endfacet
  facet normal 0 0 -1
    outer loop
      vertex 21.7695 10.1795 0
      vertex 14.946 7.56799 0
      vertex 15.3231 9.43199 0
    endloop
  endfacet
  facet normal 0 0 -1
    outer loop
      vertex 9.90079 0 0
      vertex 14.946 7.56799 0
      vertex 19.3944 0 0
    endloop
  endfacet
  facet normal 0 0 -1
    outer loop
      vertex 9.90079 0 0
      vertex 13.698 13.5352 0
      vertex 14.946 7.56799 0
    endloop
  endfacet
  facet normal 0 0 -1
    outer loop
      vertex 0.0543976 38.2192 0
      vertex 13.698 13.5352 0
      vertex 9.90079 0 0
    endloop
  endfacet
  facet normal 0 0 -1
    outer loop
      vertex 13.698 13.5352 0
      vertex 0.0543976 38.2192 0
      vertex 8.16479 38.2192 0
    endloop
  endfacet
  facet normal 0 0 1
    outer loop
      vertex 39.6568 16.9532 5
      vertex 52.3784 38.2192 5
      vertex 44.268 38.2192 5
    endloop
  endfacet
  facet normal 0 0 1
    outer loop
      vertex 52.3784 38.2192 5
      vertex 39.6568 16.9532 5
      vertex 42.5048 0 5
    endloop
  endfacet
  facet normal -0 0 1
    outer loop
      vertex 38.2192 10.7144 5
      vertex 42.5048 0 5
      vertex 39.6568 16.9532 5
    endloop
  endfacet
  facet normal -0 0 1
    outer loop
      vertex 37.5412 7.56799 5
      vertex 42.5048 0 5
      vertex 38.2192 10.7144 5
    endloop
  endfacet
  facet normal 0 0 1
    outer loop
      vertex 27.8304 22.1068 5
      vertex 36.9122 11.223 5
      vertex 36.3815 14.1592 5
    endloop
  endfacet
  facet normal 0 0 1
    outer loop
      vertex 27.8304 22.1068 5
      vertex 36.3815 14.1592 5
      vertex 35.9492 16.3766 5
    endloop
  endfacet
  facet normal 0 0 1
    outer loop
      vertex 27.8304 22.1068 5
      vertex 35.9492 16.3766 5
      vertex 35.6152 17.8752 5
    endloop
  endfacet
  facet normal 0 0 1
    outer loop
      vertex 37.5412 7.56799 5
      vertex 33.0112 0 5
      vertex 42.5048 0 5
    endloop
  endfacet
  facet normal 0 0 1
    outer loop
      vertex 36.9122 11.223 5
      vertex 27.8304 22.1068 5
      vertex 33.0112 0 5
    endloop
  endfacet
  facet normal -0 0 1
    outer loop
      vertex 26.9555 26.101 5
      vertex 35.6152 17.8752 5
      vertex 30.7868 38.2192 5
    endloop
  endfacet
  facet normal 0 0 1
    outer loop
      vertex 36.9122 11.223 5
      vertex 33.0112 0 5
      vertex 37.5412 7.56799 5
    endloop
  endfacet
  facet normal 0 0 1
    outer loop
      vertex 35.6152 17.8752 5
      vertex 27.3743 24.0818 5
      vertex 27.8304 22.1068 5
    endloop
  endfacet
  facet normal 0 0 1
    outer loop
      vertex 35.6152 17.8752 5
      vertex 26.9555 26.101 5
      vertex 27.3743 24.0818 5
    endloop
  endfacet
  facet normal 0 0 1
    outer loop
      vertex 30.7868 38.2192 5
      vertex 26.5741 28.1642 5
      vertex 26.9555 26.101 5
    endloop
  endfacet
  facet normal 0 0 1
    outer loop
      vertex 30.7868 38.2192 5
      vertex 26.23 30.2716 5
      vertex 26.5741 28.1642 5
    endloop
  endfacet
  facet normal -0 0 1
    outer loop
      vertex 19.7377 29.2467 5
      vertex 25.9197 28.6008 5
      vertex 26.23 30.2716 5
    endloop
  endfacet
  facet normal 0 0 1
    outer loop
      vertex 25.9197 28.6008 5
      vertex 19.7377 29.2467 5
      vertex 25.6399 27.1419 5
    endloop
  endfacet
  facet normal 0 0 1
    outer loop
      vertex 25.6399 27.1419 5
      vertex 19.7377 29.2467 5
      vertex 25.3907 25.895 5
    endloop
  endfacet
  facet normal 0 0 1
    outer loop
      vertex 25.3907 25.895 5
      vertex 19.7377 29.2467 5
      vertex 25.172 24.86 5
    endloop
  endfacet
  facet normal 0 0 1
    outer loop
      vertex 18.1365 22.3476 5
      vertex 25.172 24.86 5
      vertex 19.7377 29.2467 5
    endloop
  endfacet
  facet normal -0 0 1
    outer loop
      vertex 21.8356 38.2192 5
      vertex 26.23 30.2716 5
      vertex 30.7868 38.2192 5
    endloop
  endfacet
  facet normal 0 0 1
    outer loop
      vertex 19.7377 29.2467 5
      vertex 26.23 30.2716 5
      vertex 21.8356 38.2192 5
    endloop
  endfacet
  facet normal 0 0 1
    outer loop
      vertex 25.172 24.86 5
      vertex 18.1365 22.3476 5
      vertex 24.6583 22.6095 5
    endloop
  endfacet
  facet normal 0 0 1
    outer loop
      vertex 24.6583 22.6095 5
      vertex 18.1365 22.3476 5
      vertex 23.5242 17.716 5
    endloop
  endfacet
  facet normal 0 0 1
    outer loop
      vertex 17.0319 17.5219 5
      vertex 23.5242 17.716 5
      vertex 18.1365 22.3476 5
    endloop
  endfacet
  facet normal 0 0 1
    outer loop
      vertex 16.424 14.7696 5
      vertex 23.5242 17.716 5
      vertex 17.0319 17.5219 5
    endloop
  endfacet
  facet normal 0 0 1
    outer loop
      vertex 23.5242 17.716 5
      vertex 16.424 14.7696 5
      vertex 21.7695 10.1795 5
    endloop
  endfacet
  facet normal -0 0 1
    outer loop
      vertex 16.0621 13.0328 5
      vertex 21.7695 10.1795 5
      vertex 16.424 14.7696 5
    endloop
  endfacet
  facet normal -0 0 1
    outer loop
      vertex 15.6951 11.2536 5
      vertex 21.7695 10.1795 5
      vertex 16.0621 13.0328 5
    endloop
  endfacet
  facet normal 0 0 1
    outer loop
      vertex 15.3231 9.43199 5
      vertex 21.7695 10.1795 5
      vertex 15.6951 11.2536 5
    endloop
  endfacet
  facet normal 0 0 1
    outer loop
      vertex 14.946 7.56799 5
      vertex 21.7695 10.1795 5
      vertex 15.3231 9.43199 5
    endloop
  endfacet
  facet normal 0 0 1
    outer loop
      vertex 21.7695 10.1795 5
      vertex 14.946 7.56799 5
      vertex 19.3944 0 5
    endloop
  endfacet
  facet normal 0 0 1
    outer loop
      vertex 14.946 7.56799 5
      vertex 9.90079 0 5
      vertex 19.3944 0 5
    endloop
  endfacet
  facet normal 0 0 1
    outer loop
      vertex 13.698 13.5352 5
      vertex 9.90079 0 5
      vertex 14.946 7.56799 5
    endloop
  endfacet
  facet normal -0 0 1
    outer loop
      vertex 0.0543976 38.2192 5
      vertex 13.698 13.5352 5
      vertex 8.16479 38.2192 5
    endloop
  endfacet
  facet normal 0 0 1
    outer loop
      vertex 13.698 13.5352 5
      vertex 0.0543976 38.2192 5
      vertex 9.90079 0 5
    endloop
  endfacet
  facet normal 0.97395 -0.226762 0
    outer loop
      vertex 21.7695 10.1795 5
      vertex 23.5242 17.716 0
      vertex 23.5242 17.716 5
    endloop
  endfacet
  facet normal 0.97395 -0.226762 0
    outer loop
      vertex 23.5242 17.716 0
      vertex 21.7695 10.1795 5
      vertex 21.7695 10.1795 0
    endloop
  endfacet
  facet normal 0.97418 -0.225772 0
    outer loop
      vertex 23.5242 17.716 5
      vertex 24.6583 22.6095 0
      vertex 24.6583 22.6095 5
    endloop
  endfacet
  facet normal 0.97418 -0.225772 0
    outer loop
      vertex 24.6583 22.6095 0
      vertex 23.5242 17.716 5
      vertex 23.5242 17.716 0
    endloop
  endfacet
  facet normal 0.974924 -0.222537 0
    outer loop
      vertex 24.6583 22.6095 5
      vertex 25.172 24.86 0
      vertex 25.172 24.86 5
    endloop
  endfacet
  facet normal 0.974924 -0.222537 0
    outer loop
      vertex 25.172 24.86 0
      vertex 24.6583 22.6095 5
      vertex 24.6583 22.6095 0
    endloop
  endfacet
  facet normal 0.978396 -0.206739 0
    outer loop
      vertex 25.172 24.86 5
      vertex 25.3907 25.895 0
      vertex 25.3907 25.895 5
    endloop
  endfacet
  facet normal 0.978396 -0.206739 0
    outer loop
      vertex 25.3907 25.895 0
      vertex 25.172 24.86 5
      vertex 25.172 24.86 0
    endloop
  endfacet
  facet normal 0.980608 -0.19598 0
    outer loop
      vertex 25.3907 25.895 5
      vertex 25.6399 27.1419 0
      vertex 25.6399 27.1419 5
    endloop
  endfacet
  facet normal 0.980608 -0.19598 0
    outer loop
      vertex 25.6399 27.1419 0
      vertex 25.3907 25.895 5
      vertex 25.3907 25.895 0
    endloop
  endfacet
  facet normal 0.982101 -0.188355 0
    outer loop
      vertex 25.6399 27.1419 5
      vertex 25.9197 28.6008 0
      vertex 25.9197 28.6008 5
    endloop
  endfacet
  facet normal 0.982101 -0.188355 0
    outer loop
      vertex 25.9197 28.6008 0
      vertex 25.6399 27.1419 5
      vertex 25.6399 27.1419 0
    endloop
  endfacet
  facet normal 0.983188 -0.182597 0
    outer loop
      vertex 25.9197 28.6008 5
      vertex 26.23 30.2716 0
      vertex 26.23 30.2716 5
    endloop
  endfacet
  facet normal 0.983188 -0.182597 0
    outer loop
      vertex 26.23 30.2716 0
      vertex 25.9197 28.6008 5
      vertex 25.9197 28.6008 0
    endloop
  endfacet
  facet normal -0.98693 -0.161148 0
    outer loop
      vertex 26.5741 28.1642 0
      vertex 26.23 30.2716 5
      vertex 26.23 30.2716 0
    endloop
  endfacet
  facet normal -0.98693 -0.161148 0
    outer loop
      vertex 26.23 30.2716 5
      vertex 26.5741 28.1642 0
      vertex 26.5741 28.1642 5
    endloop
  endfacet
  facet normal -0.983339 -0.181779 0
    outer loop
      vertex 26.9555 26.101 0
      vertex 26.5741 28.1642 5
      vertex 26.5741 28.1642 0
    endloop
  endfacet
  facet normal -0.983339 -0.181779 0
    outer loop
      vertex 26.5741 28.1642 5
      vertex 26.9555 26.101 0
      vertex 26.9555 26.101 5
    endloop
  endfacet
  facet normal -0.979161 -0.203087 0
    outer loop
      vertex 27.3743 24.0818 0
      vertex 26.9555 26.101 5
      vertex 26.9555 26.101 0
    endloop
  endfacet
  facet normal -0.979161 -0.203087 0
    outer loop
      vertex 26.9555 26.101 5
      vertex 27.3743 24.0818 0
      vertex 27.3743 24.0818 5
    endloop
  endfacet
  facet normal -0.974355 -0.225014 0
    outer loop
      vertex 27.8304 22.1068 0
      vertex 27.3743 24.0818 5
      vertex 27.3743 24.0818 0
    endloop
  endfacet
  facet normal -0.974355 -0.225014 0
    outer loop
      vertex 27.3743 24.0818 5
      vertex 27.8304 22.1068 0
      vertex 27.8304 22.1068 5
    endloop
  endfacet
  facet normal -0.973621 -0.228171 0
    outer loop
      vertex 33.0112 0 0
      vertex 27.8304 22.1068 5
      vertex 27.8304 22.1068 0
    endloop
  endfacet
  facet normal -0.973621 -0.228171 0
    outer loop
      vertex 27.8304 22.1068 5
      vertex 33.0112 0 0
      vertex 33.0112 0 5
    endloop
  endfacet
  facet normal 0 -1 0
    outer loop
      vertex 33.0112 0 0
      vertex 42.5048 0 5
      vertex 33.0112 0 5
    endloop
  endfacet
  facet normal 0 -1 -0
    outer loop
      vertex 42.5048 0 5
      vertex 33.0112 0 0
      vertex 42.5048 0 0
    endloop
  endfacet
  facet normal 0.968212 -0.250129 0
    outer loop
      vertex 42.5048 0 5
      vertex 52.3784 38.2192 0
      vertex 52.3784 38.2192 5
    endloop
  endfacet
  facet normal 0.968212 -0.250129 0
    outer loop
      vertex 52.3784 38.2192 0
      vertex 42.5048 0 5
      vertex 42.5048 0 0
    endloop
  endfacet
  facet normal 0 1 -0
    outer loop
      vertex 52.3784 38.2192 0
      vertex 44.268 38.2192 5
      vertex 52.3784 38.2192 5
    endloop
  endfacet
  facet normal 0 1 0
    outer loop
      vertex 44.268 38.2192 5
      vertex 52.3784 38.2192 0
      vertex 44.268 38.2192 0
    endloop
  endfacet
  facet normal -0.977289 0.21191 0
    outer loop
      vertex 39.6568 16.9532 0
      vertex 44.268 38.2192 5
      vertex 44.268 38.2192 0
    endloop
  endfacet
  facet normal -0.977289 0.21191 0
    outer loop
      vertex 44.268 38.2192 5
      vertex 39.6568 16.9532 0
      vertex 39.6568 16.9532 5
    endloop
  endfacet
  facet normal -0.974464 0.224545 0
    outer loop
      vertex 38.2192 10.7144 0
      vertex 39.6568 16.9532 5
      vertex 39.6568 16.9532 0
    endloop
  endfacet
  facet normal -0.974464 0.224545 0
    outer loop
      vertex 39.6568 16.9532 5
      vertex 38.2192 10.7144 0
      vertex 38.2192 10.7144 5
    endloop
  endfacet
  facet normal -0.977562 0.210649 0
    outer loop
      vertex 37.5412 7.56799 0
      vertex 38.2192 10.7144 5
      vertex 38.2192 10.7144 0
    endloop
  endfacet
  facet normal -0.977562 0.210649 0
    outer loop
      vertex 38.2192 10.7144 5
      vertex 37.5412 7.56799 0
      vertex 37.5412 7.56799 5
    endloop
  endfacet
  facet normal 0.985513 0.169599 0
    outer loop
      vertex 37.5412 7.56799 5
      vertex 36.9122 11.223 0
      vertex 36.9122 11.223 5
    endloop
  endfacet
  facet normal 0.985513 0.169599 0
    outer loop
      vertex 36.9122 11.223 0
      vertex 37.5412 7.56799 5
      vertex 37.5412 7.56799 0
    endloop
  endfacet
  facet normal 0.984055 0.177862 0
    outer loop
      vertex 36.9122 11.223 5
      vertex 36.3815 14.1592 0
      vertex 36.3815 14.1592 5
    endloop
  endfacet
  facet normal 0.984055 0.177862 0
    outer loop
      vertex 36.3815 14.1592 0
      vertex 36.9122 11.223 5
      vertex 36.9122 11.223 0
    endloop
  endfacet
  facet normal 0.981521 0.191355 0
    outer loop
      vertex 36.3815 14.1592 5
      vertex 35.9492 16.3766 0
      vertex 35.9492 16.3766 5
    endloop
  endfacet
  facet normal 0.981521 0.191355 0
    outer loop
      vertex 35.9492 16.3766 0
      vertex 36.3815 14.1592 5
      vertex 36.3815 14.1592 0
    endloop
  endfacet
  facet normal 0.976052 0.217537 0
    outer loop
      vertex 35.9492 16.3766 5
      vertex 35.6152 17.8752 0
      vertex 35.6152 17.8752 5
    endloop
  endfacet
  facet normal 0.976052 0.217537 0
    outer loop
      vertex 35.6152 17.8752 0
      vertex 35.9492 16.3766 5
      vertex 35.9492 16.3766 0
    endloop
  endfacet
  facet normal 0.972972 0.230923 0
    outer loop
      vertex 35.6152 17.8752 5
      vertex 30.7868 38.2192 0
      vertex 30.7868 38.2192 5
    endloop
  endfacet
  facet normal 0.972972 0.230923 0
    outer loop
      vertex 30.7868 38.2192 0
      vertex 35.6152 17.8752 5
      vertex 35.6152 17.8752 0
    endloop
  endfacet
  facet normal 0 1 -0
    outer loop
      vertex 30.7868 38.2192 0
      vertex 21.8356 38.2192 5
      vertex 30.7868 38.2192 5
    endloop
  endfacet
  facet normal 0 1 0
    outer loop
      vertex 21.8356 38.2192 5
      vertex 30.7868 38.2192 0
      vertex 21.8356 38.2192 0
    endloop
  endfacet
  facet normal -0.973737 0.227674 0
    outer loop
      vertex 19.7377 29.2467 0
      vertex 21.8356 38.2192 5
      vertex 21.8356 38.2192 0
    endloop
  endfacet
  facet normal -0.973737 0.227674 0
    outer loop
      vertex 21.8356 38.2192 5
      vertex 19.7377 29.2467 0
      vertex 19.7377 29.2467 5
    endloop
  endfacet
  facet normal -0.974109 0.226079 0
    outer loop
      vertex 18.1365 22.3476 0
      vertex 19.7377 29.2467 5
      vertex 19.7377 29.2467 0
    endloop
  endfacet
  facet normal -0.974109 0.226079 0
    outer loop
      vertex 19.7377 29.2467 5
      vertex 18.1365 22.3476 0
      vertex 18.1365 22.3476 5
    endloop
  endfacet
  facet normal -0.974789 0.223129 0
    outer loop
      vertex 17.0319 17.5219 0
      vertex 18.1365 22.3476 5
      vertex 18.1365 22.3476 0
    endloop
  endfacet
  facet normal -0.974789 0.223129 0
    outer loop
      vertex 18.1365 22.3476 5
      vertex 17.0319 17.5219 0
      vertex 17.0319 17.5219 5
    endloop
  endfacet
  facet normal -0.976466 0.215672 0
    outer loop
      vertex 16.424 14.7696 0
      vertex 17.0319 17.5219 5
      vertex 17.0319 17.5219 0
    endloop
  endfacet
  facet normal -0.976466 0.215672 0
    outer loop
      vertex 17.0319 17.5219 5
      vertex 16.424 14.7696 0
      vertex 16.424 14.7696 5
    endloop
  endfacet
  facet normal -0.978973 0.20399 0
    outer loop
      vertex 16.0621 13.0328 0
      vertex 16.424 14.7696 5
      vertex 16.424 14.7696 0
    endloop
  endfacet
  facet normal -0.978973 0.20399 0
    outer loop
      vertex 16.424 14.7696 5
      vertex 16.0621 13.0328 0
      vertex 16.0621 13.0328 5
    endloop
  endfacet
  facet normal -0.979382 0.202019 0
    outer loop
      vertex 15.6951 11.2536 0
      vertex 16.0621 13.0328 5
      vertex 16.0621 13.0328 0
    endloop
  endfacet
  facet normal -0.979382 0.202019 0
    outer loop
      vertex 16.0621 13.0328 5
      vertex 15.6951 11.2536 0
      vertex 15.6951 11.2536 5
    endloop
  endfacet
  facet normal -0.979778 0.200085 0
    outer loop
      vertex 15.3231 9.43199 0
      vertex 15.6951 11.2536 5
      vertex 15.6951 11.2536 0
    endloop
  endfacet
  facet normal -0.979778 0.200085 0
    outer loop
      vertex 15.6951 11.2536 5
      vertex 15.3231 9.43199 0
      vertex 15.3231 9.43199 5
    endloop
  endfacet
  facet normal -0.980143 0.19829 0
    outer loop
      vertex 14.946 7.56799 0
      vertex 15.3231 9.43199 5
      vertex 15.3231 9.43199 0
    endloop
  endfacet
  facet normal -0.980143 0.19829 0
    outer loop
      vertex 15.3231 9.43199 5
      vertex 14.946 7.56799 0
      vertex 14.946 7.56799 5
    endloop
  endfacet
  facet normal 0.978822 0.204714 0
    outer loop
      vertex 14.946 7.56799 5
      vertex 13.698 13.5352 0
      vertex 13.698 13.5352 5
    endloop
  endfacet
  facet normal 0.978822 0.204714 0
    outer loop
      vertex 13.698 13.5352 0
      vertex 14.946 7.56799 5
      vertex 14.946 7.56799 0
    endloop
  endfacet
  facet normal 0.975785 0.218734 0
    outer loop
      vertex 13.698 13.5352 5
      vertex 8.16479 38.2192 0
      vertex 8.16479 38.2192 5
    endloop
  endfacet
  facet normal 0.975785 0.218734 0
    outer loop
      vertex 8.16479 38.2192 0
      vertex 13.698 13.5352 5
      vertex 13.698 13.5352 0
    endloop
  endfacet
  facet normal 0 1 -0
    outer loop
      vertex 8.16479 38.2192 0
      vertex 0.0543976 38.2192 5
      vertex 8.16479 38.2192 5
    endloop
  endfacet
  facet normal 0 1 0
    outer loop
      vertex 0.0543976 38.2192 5
      vertex 8.16479 38.2192 0
      vertex 0.0543976 38.2192 0
    endloop
  endfacet
  facet normal -0.968379 -0.249483 0
    outer loop
      vertex 9.90079 0 0
      vertex 0.0543976 38.2192 5
      vertex 0.0543976 38.2192 0
    endloop
  endfacet
  facet normal -0.968379 -0.249483 0
    outer loop
      vertex 0.0543976 38.2192 5
      vertex 9.90079 0 0
      vertex 9.90079 0 5
    endloop
  endfacet
  facet normal 0 -1 0
    outer loop
      vertex 9.90079 0 0
      vertex 19.3944 0 5
      vertex 9.90079 0 5
    endloop
  endfacet
  facet normal 0 -1 -0
    outer loop
      vertex 19.3944 0 5
      vertex 9.90079 0 0
      vertex 19.3944 0 0
    endloop
  endfacet
  facet normal 0.973844 -0.227219 0
    outer loop
      vertex 19.3944 0 5
      vertex 21.7695 10.1795 0
      vertex 21.7695 10.1795 5
    endloop
  endfacet
  facet normal 0.973844 -0.227219 0
    outer loop
      vertex 21.7695 10.1795 0
      vertex 19.3944 0 5
      vertex 19.3944 0 0
    endloop
  endfacet
endsolid OpenSCAD_Model
