solid OpenSCAD_Model
  facet normal 0 0 -1
    outer loop
      vertex 3.71599 0 0
      vertex 11.718 13.454 0
      vertex 11.718 0 0
    endloop
  endfacet
  facet normal -0 0 -1
    outer loop
      vertex 11.718 13.454 0
      vertex 3.71599 0 0
      vertex 11.718 19.6112 0
    endloop
  endfacet
  facet normal 0 0 -1
    outer loop
      vertex 3.71599 38.2192 0
      vertex 11.718 19.6112 0
      vertex 3.71599 0 0
    endloop
  endfacet
  facet normal 0 0 -1
    outer loop
      vertex 24.3175 20.5344 0
      vertex 28.6576 15.0408 0
      vertex 27.0174 14.3466 0
    endloop
  endfacet
  facet normal 0 0 -1
    outer loop
      vertex 28.6576 15.0408 0
      vertex 26.9861 24.5303 0
      vertex 27.098 25.9856 0
    endloop
  endfacet
  facet normal 0 0 -1
    outer loop
      vertex 28.6576 15.0408 0
      vertex 26.6504 23.2563 0
      vertex 26.9861 24.5303 0
    endloop
  endfacet
  facet normal 0 0 -1
    outer loop
      vertex 28.6576 15.0408 0
      vertex 26.0909 22.1637 0
      vertex 26.6504 23.2563 0
    endloop
  endfacet
  facet normal 0 0 -1
    outer loop
      vertex 28.6576 15.0408 0
      vertex 25.3076 21.2524 0
      vertex 26.0909 22.1637 0
    endloop
  endfacet
  facet normal 0 0 -1
    outer loop
      vertex 24.3175 20.5344 0
      vertex 27.0174 14.3466 0
      vertex 25.2297 13.8507 0
    endloop
  endfacet
  facet normal 0 0 -1
    outer loop
      vertex 28.6576 15.0408 0
      vertex 24.3175 20.5344 0
      vertex 25.3076 21.2524 0
    endloop
  endfacet
  facet normal 0 0 -1
    outer loop
      vertex 23.1375 20.0215 0
      vertex 25.2297 13.8507 0
      vertex 23.2944 13.5532 0
    endloop
  endfacet
  facet normal 0 0 -1
    outer loop
      vertex 25.2297 13.8507 0
      vertex 23.1375 20.0215 0
      vertex 24.3175 20.5344 0
    endloop
  endfacet
  facet normal 0 0 -1
    outer loop
      vertex 23.2944 13.5532 0
      vertex 21.7677 19.7138 0
      vertex 23.1375 20.0215 0
    endloop
  endfacet
  facet normal 0 0 -1
    outer loop
      vertex 21.2116 13.454 0
      vertex 21.7677 19.7138 0
      vertex 23.2944 13.5532 0
    endloop
  endfacet
  facet normal 0 0 -1
    outer loop
      vertex 21.2116 13.454 0
      vertex 20.208 19.6112 0
      vertex 21.7677 19.7138 0
    endloop
  endfacet
  facet normal 0 0 -1
    outer loop
      vertex 11.718 13.454 0
      vertex 20.208 19.6112 0
      vertex 21.2116 13.454 0
    endloop
  endfacet
  facet normal -0 0 -1
    outer loop
      vertex 20.208 19.6112 0
      vertex 11.718 13.454 0
      vertex 11.718 19.6112 0
    endloop
  endfacet
  facet normal 0 0 -1
    outer loop
      vertex 27.098 25.9856 0
      vertex 35.154 26.1212 0
      vertex 35.0489 24.3259 0
    endloop
  endfacet
  facet normal 0 0 -1
    outer loop
      vertex 27.098 25.9856 0
      vertex 35.0489 24.3259 0
      vertex 34.7335 22.629 0
    endloop
  endfacet
  facet normal -0 0 -1
    outer loop
      vertex 35.154 26.1212 0
      vertex 27.098 25.9856 0
      vertex 34.9226 28.8466 0
    endloop
  endfacet
  facet normal 0 0 -1
    outer loop
      vertex 27.098 25.9856 0
      vertex 34.7335 22.629 0
      vertex 34.2079 21.0303 0
    endloop
  endfacet
  facet normal 0 0 -1
    outer loop
      vertex 27.098 25.9856 0
      vertex 34.2079 21.0303 0
      vertex 33.472 19.53 0
    endloop
  endfacet
  facet normal 0 0 -1
    outer loop
      vertex 26.6538 28.6202 0
      vertex 34.9226 28.8466 0
      vertex 27.098 25.9856 0
    endloop
  endfacet
  facet normal 0 0 -1
    outer loop
      vertex 27.098 25.9856 0
      vertex 33.472 19.53 0
      vertex 32.5405 18.161 0
    endloop
  endfacet
  facet normal -0 0 -1
    outer loop
      vertex 34.9226 28.8466 0
      vertex 26.6538 28.6202 0
      vertex 34.2283 31.2447 0
    endloop
  endfacet
  facet normal 0 0 -1
    outer loop
      vertex 27.098 25.9856 0
      vertex 32.5405 18.161 0
      vertex 31.4276 16.9565 0
    endloop
  endfacet
  facet normal 0 0 -1
    outer loop
      vertex 27.098 25.9856 0
      vertex 31.4276 16.9565 0
      vertex 30.1333 15.9164 0
    endloop
  endfacet
  facet normal -0 0 -1
    outer loop
      vertex 34.2283 31.2447 0
      vertex 26.6538 28.6202 0
      vertex 33.0712 33.3156 0
    endloop
  endfacet
  facet normal 0 0 -1
    outer loop
      vertex 27.098 25.9856 0
      vertex 30.1333 15.9164 0
      vertex 28.6576 15.0408 0
    endloop
  endfacet
  facet normal -0 0 -1
    outer loop
      vertex 33.0712 33.3156 0
      vertex 26.6538 28.6202 0
      vertex 31.4512 35.0592 0
    endloop
  endfacet
  facet normal 0 0 -1
    outer loop
      vertex 25.3213 30.5021 0
      vertex 31.4512 35.0592 0
      vertex 26.6538 28.6202 0
    endloop
  endfacet
  facet normal -0 0 -1
    outer loop
      vertex 31.4512 35.0592 0
      vertex 25.3213 30.5021 0
      vertex 29.4025 36.4417 0
    endloop
  endfacet
  facet normal -0 0 -1
    outer loop
      vertex 29.4025 36.4417 0
      vertex 25.3213 30.5021 0
      vertex 26.9588 37.4292 0
    endloop
  endfacet
  facet normal 0 0 -1
    outer loop
      vertex 23.1004 31.6312 0
      vertex 26.9588 37.4292 0
      vertex 25.3213 30.5021 0
    endloop
  endfacet
  facet normal -0 0 -1
    outer loop
      vertex 26.9588 37.4292 0
      vertex 23.1004 31.6312 0
      vertex 24.1201 38.0217 0
    endloop
  endfacet
  facet normal 0 0 -1
    outer loop
      vertex 23.1004 31.6312 0
      vertex 20.8864 38.2192 0
      vertex 24.1201 38.0217 0
    endloop
  endfacet
  facet normal 0 0 -1
    outer loop
      vertex 19.9912 32.0076 0
      vertex 20.8864 38.2192 0
      vertex 23.1004 31.6312 0
    endloop
  endfacet
  facet normal 0 0 -1
    outer loop
      vertex 11.718 32.0076 0
      vertex 20.8864 38.2192 0
      vertex 19.9912 32.0076 0
    endloop
  endfacet
  facet normal 0 0 -1
    outer loop
      vertex 11.718 32.0076 0
      vertex 3.71599 38.2192 0
      vertex 20.8864 38.2192 0
    endloop
  endfacet
  facet normal 0 0 -1
    outer loop
      vertex 11.718 19.6112 0
      vertex 3.71599 38.2192 0
      vertex 11.718 32.0076 0
    endloop
  endfacet
  facet normal 0 0 1
    outer loop
      vertex 27.098 25.9856 5
      vertex 35.154 26.1212 5
      vertex 34.9226 28.8466 5
    endloop
  endfacet
  facet normal 0 0 1
    outer loop
      vertex 35.154 26.1212 5
      vertex 27.098 25.9856 5
      vertex 35.0489 24.3259 5
    endloop
  endfacet
  facet normal 0 0 1
    outer loop
      vertex 26.6538 28.6202 5
      vertex 34.9226 28.8466 5
      vertex 34.2283 31.2447 5
    endloop
  endfacet
  facet normal -0 0 1
    outer loop
      vertex 26.9861 24.5303 5
      vertex 35.0489 24.3259 5
      vertex 27.098 25.9856 5
    endloop
  endfacet
  facet normal 0 0 1
    outer loop
      vertex 35.0489 24.3259 5
      vertex 26.9861 24.5303 5
      vertex 34.7335 22.629 5
    endloop
  endfacet
  facet normal 0 0 1
    outer loop
      vertex 26.6538 28.6202 5
      vertex 34.2283 31.2447 5
      vertex 33.0712 33.3156 5
    endloop
  endfacet
  facet normal 0 0 1
    outer loop
      vertex 34.7335 22.629 5
      vertex 26.9861 24.5303 5
      vertex 34.2079 21.0303 5
    endloop
  endfacet
  facet normal 0 0 1
    outer loop
      vertex 26.6538 28.6202 5
      vertex 33.0712 33.3156 5
      vertex 31.4512 35.0592 5
    endloop
  endfacet
  facet normal -0 0 1
    outer loop
      vertex 26.6504 23.2563 5
      vertex 34.2079 21.0303 5
      vertex 26.9861 24.5303 5
    endloop
  endfacet
  facet normal 0 0 1
    outer loop
      vertex 34.2079 21.0303 5
      vertex 26.6504 23.2563 5
      vertex 33.472 19.53 5
    endloop
  endfacet
  facet normal 0 0 1
    outer loop
      vertex 25.3213 30.5021 5
      vertex 31.4512 35.0592 5
      vertex 29.4025 36.4417 5
    endloop
  endfacet
  facet normal 0 0 1
    outer loop
      vertex 33.472 19.53 5
      vertex 26.6504 23.2563 5
      vertex 32.5405 18.161 5
    endloop
  endfacet
  facet normal -0 0 1
    outer loop
      vertex 26.0909 22.1637 5
      vertex 32.5405 18.161 5
      vertex 26.6504 23.2563 5
    endloop
  endfacet
  facet normal 0 0 1
    outer loop
      vertex 25.3213 30.5021 5
      vertex 29.4025 36.4417 5
      vertex 26.9588 37.4292 5
    endloop
  endfacet
  facet normal 0 0 1
    outer loop
      vertex 34.9226 28.8466 5
      vertex 26.6538 28.6202 5
      vertex 27.098 25.9856 5
    endloop
  endfacet
  facet normal 0 0 1
    outer loop
      vertex 31.4512 35.0592 5
      vertex 25.3213 30.5021 5
      vertex 26.6538 28.6202 5
    endloop
  endfacet
  facet normal 0 0 1
    outer loop
      vertex 23.1004 31.6312 5
      vertex 26.9588 37.4292 5
      vertex 24.1201 38.0217 5
    endloop
  endfacet
  facet normal 0 0 1
    outer loop
      vertex 26.9588 37.4292 5
      vertex 23.1004 31.6312 5
      vertex 25.3213 30.5021 5
    endloop
  endfacet
  facet normal 0 0 1
    outer loop
      vertex 20.8864 38.2192 5
      vertex 23.1004 31.6312 5
      vertex 24.1201 38.0217 5
    endloop
  endfacet
  facet normal 0 0 1
    outer loop
      vertex 20.8864 38.2192 5
      vertex 19.9912 32.0076 5
      vertex 23.1004 31.6312 5
    endloop
  endfacet
  facet normal 0 0 1
    outer loop
      vertex 20.8864 38.2192 5
      vertex 11.718 32.0076 5
      vertex 19.9912 32.0076 5
    endloop
  endfacet
  facet normal 0 0 1
    outer loop
      vertex 3.71599 38.2192 5
      vertex 11.718 19.6112 5
      vertex 11.718 32.0076 5
    endloop
  endfacet
  facet normal 0 0 1
    outer loop
      vertex 3.71599 0 5
      vertex 11.718 19.6112 5
      vertex 3.71599 38.2192 5
    endloop
  endfacet
  facet normal -0 0 1
    outer loop
      vertex 3.71599 38.2192 5
      vertex 11.718 32.0076 5
      vertex 20.8864 38.2192 5
    endloop
  endfacet
  facet normal 0 0 1
    outer loop
      vertex 11.718 19.6112 5
      vertex 3.71599 0 5
      vertex 11.718 13.454 5
    endloop
  endfacet
  facet normal 0 0 1
    outer loop
      vertex 11.718 13.454 5
      vertex 3.71599 0 5
      vertex 11.718 0 5
    endloop
  endfacet
  facet normal 0 0 1
    outer loop
      vertex 32.5405 18.161 5
      vertex 26.0909 22.1637 5
      vertex 31.4276 16.9565 5
    endloop
  endfacet
  facet normal 0 0 1
    outer loop
      vertex 31.4276 16.9565 5
      vertex 26.0909 22.1637 5
      vertex 30.1333 15.9164 5
    endloop
  endfacet
  facet normal -0 0 1
    outer loop
      vertex 25.3076 21.2524 5
      vertex 30.1333 15.9164 5
      vertex 26.0909 22.1637 5
    endloop
  endfacet
  facet normal 0 0 1
    outer loop
      vertex 30.1333 15.9164 5
      vertex 25.3076 21.2524 5
      vertex 28.6576 15.0408 5
    endloop
  endfacet
  facet normal -0 0 1
    outer loop
      vertex 24.3175 20.5344 5
      vertex 28.6576 15.0408 5
      vertex 25.3076 21.2524 5
    endloop
  endfacet
  facet normal 0 0 1
    outer loop
      vertex 28.6576 15.0408 5
      vertex 24.3175 20.5344 5
      vertex 27.0174 14.3466 5
    endloop
  endfacet
  facet normal 0 0 1
    outer loop
      vertex 27.0174 14.3466 5
      vertex 24.3175 20.5344 5
      vertex 25.2297 13.8507 5
    endloop
  endfacet
  facet normal -0 0 1
    outer loop
      vertex 23.1375 20.0215 5
      vertex 25.2297 13.8507 5
      vertex 24.3175 20.5344 5
    endloop
  endfacet
  facet normal 0 0 1
    outer loop
      vertex 25.2297 13.8507 5
      vertex 23.1375 20.0215 5
      vertex 23.2944 13.5532 5
    endloop
  endfacet
  facet normal -0 0 1
    outer loop
      vertex 21.7677 19.7138 5
      vertex 23.2944 13.5532 5
      vertex 23.1375 20.0215 5
    endloop
  endfacet
  facet normal 0 0 1
    outer loop
      vertex 21.7677 19.7138 5
      vertex 21.2116 13.454 5
      vertex 23.2944 13.5532 5
    endloop
  endfacet
  facet normal -0 0 1
    outer loop
      vertex 20.208 19.6112 5
      vertex 21.2116 13.454 5
      vertex 21.7677 19.7138 5
    endloop
  endfacet
  facet normal 0 0 1
    outer loop
      vertex 11.718 13.454 5
      vertex 20.208 19.6112 5
      vertex 11.718 19.6112 5
    endloop
  endfacet
  facet normal 0 0 1
    outer loop
      vertex 20.208 19.6112 5
      vertex 11.718 13.454 5
      vertex 21.2116 13.454 5
    endloop
  endfacet
  facet normal 0 -1 0
    outer loop
      vertex 11.718 13.454 0
      vertex 21.2116 13.454 5
      vertex 11.718 13.454 5
    endloop
  endfacet
  facet normal 0 -1 -0
    outer loop
      vertex 21.2116 13.454 5
      vertex 11.718 13.454 0
      vertex 21.2116 13.454 0
    endloop
  endfacet
  facet normal 0.0475743 -0.998868 0
    outer loop
      vertex 21.2116 13.454 0
      vertex 23.2944 13.5532 5
      vertex 21.2116 13.454 5
    endloop
  endfacet
  facet normal 0.0475743 -0.998868 0
    outer loop
      vertex 23.2944 13.5532 5
      vertex 21.2116 13.454 0
      vertex 23.2944 13.5532 0
    endloop
  endfacet
  facet normal 0.151938 -0.98839 0
    outer loop
      vertex 23.2944 13.5532 0
      vertex 25.2297 13.8507 5
      vertex 23.2944 13.5532 5
    endloop
  endfacet
  facet normal 0.151938 -0.98839 0
    outer loop
      vertex 25.2297 13.8507 5
      vertex 23.2944 13.5532 0
      vertex 25.2297 13.8507 0
    endloop
  endfacet
  facet normal 0.267302 -0.963613 0
    outer loop
      vertex 25.2297 13.8507 0
      vertex 27.0174 14.3466 5
      vertex 25.2297 13.8507 5
    endloop
  endfacet
  facet normal 0.267302 -0.963613 0
    outer loop
      vertex 27.0174 14.3466 5
      vertex 25.2297 13.8507 0
      vertex 27.0174 14.3466 0
    endloop
  endfacet
  facet normal 0.389768 -0.920913 0
    outer loop
      vertex 27.0174 14.3466 0
      vertex 28.6576 15.0408 5
      vertex 27.0174 14.3466 5
    endloop
  endfacet
  facet normal 0.389768 -0.920913 0
    outer loop
      vertex 28.6576 15.0408 5
      vertex 27.0174 14.3466 0
      vertex 28.6576 15.0408 0
    endloop
  endfacet
  facet normal 0.510282 -0.860007 0
    outer loop
      vertex 28.6576 15.0408 0
      vertex 30.1333 15.9164 5
      vertex 28.6576 15.0408 5
    endloop
  endfacet
  facet normal 0.510282 -0.860007 0
    outer loop
      vertex 30.1333 15.9164 5
      vertex 28.6576 15.0408 0
      vertex 30.1333 15.9164 0
    endloop
  endfacet
  facet normal 0.626405 -0.779498 0
    outer loop
      vertex 30.1333 15.9164 0
      vertex 31.4276 16.9565 5
      vertex 30.1333 15.9164 5
    endloop
  endfacet
  facet normal 0.626405 -0.779498 0
    outer loop
      vertex 31.4276 16.9565 5
      vertex 30.1333 15.9164 0
      vertex 31.4276 16.9565 0
    endloop
  endfacet
  facet normal 0.734483 -0.678627 0
    outer loop
      vertex 31.4276 16.9565 5
      vertex 32.5405 18.161 0
      vertex 32.5405 18.161 5
    endloop
  endfacet
  facet normal 0.734483 -0.678627 0
    outer loop
      vertex 32.5405 18.161 0
      vertex 31.4276 16.9565 5
      vertex 31.4276 16.9565 0
    endloop
  endfacet
  facet normal 0.826764 -0.56255 0
    outer loop
      vertex 32.5405 18.161 5
      vertex 33.472 19.53 0
      vertex 33.472 19.53 5
    endloop
  endfacet
  facet normal 0.826764 -0.56255 0
    outer loop
      vertex 33.472 19.53 0
      vertex 32.5405 18.161 5
      vertex 32.5405 18.161 0
    endloop
  endfacet
  facet normal 0.897812 -0.440379 0
    outer loop
      vertex 33.472 19.53 5
      vertex 34.2079 21.0303 0
      vertex 34.2079 21.0303 5
    endloop
  endfacet
  facet normal 0.897812 -0.440379 0
    outer loop
      vertex 34.2079 21.0303 0
      vertex 33.472 19.53 5
      vertex 33.472 19.53 0
    endloop
  endfacet
  facet normal 0.949977 -0.312321 0
    outer loop
      vertex 34.2079 21.0303 5
      vertex 34.7335 22.629 0
      vertex 34.7335 22.629 5
    endloop
  endfacet
  facet normal 0.949977 -0.312321 0
    outer loop
      vertex 34.7335 22.629 0
      vertex 34.2079 21.0303 5
      vertex 34.2079 21.0303 0
    endloop
  endfacet
  facet normal 0.983162 -0.182739 0
    outer loop
      vertex 34.7335 22.629 5
      vertex 35.0489 24.3259 0
      vertex 35.0489 24.3259 5
    endloop
  endfacet
  facet normal 0.983162 -0.182739 0
    outer loop
      vertex 35.0489 24.3259 0
      vertex 34.7335 22.629 5
      vertex 34.7335 22.629 0
    endloop
  endfacet
  facet normal 0.998291 -0.0584417 0
    outer loop
      vertex 35.0489 24.3259 5
      vertex 35.154 26.1212 0
      vertex 35.154 26.1212 5
    endloop
  endfacet
  facet normal 0.998291 -0.0584417 0
    outer loop
      vertex 35.154 26.1212 0
      vertex 35.0489 24.3259 5
      vertex 35.0489 24.3259 0
    endloop
  endfacet
  facet normal 0.996415 0.0846006 0
    outer loop
      vertex 35.154 26.1212 5
      vertex 34.9226 28.8466 0
      vertex 34.9226 28.8466 5
    endloop
  endfacet
  facet normal 0.996415 0.0846006 0
    outer loop
      vertex 34.9226 28.8466 0
      vertex 35.154 26.1212 5
      vertex 35.154 26.1212 0
    endloop
  endfacet
  facet normal 0.960552 0.2781 0
    outer loop
      vertex 34.9226 28.8466 5
      vertex 34.2283 31.2447 0
      vertex 34.2283 31.2447 5
    endloop
  endfacet
  facet normal 0.960552 0.2781 0
    outer loop
      vertex 34.2283 31.2447 0
      vertex 34.9226 28.8466 5
      vertex 34.9226 28.8466 0
    endloop
  endfacet
  facet normal 0.872974 0.487768 0
    outer loop
      vertex 34.2283 31.2447 5
      vertex 33.0712 33.3156 0
      vertex 33.0712 33.3156 5
    endloop
  endfacet
  facet normal 0.872974 0.487768 0
    outer loop
      vertex 33.0712 33.3156 0
      vertex 34.2283 31.2447 5
      vertex 34.2283 31.2447 0
    endloop
  endfacet
  facet normal 0.732596 0.680664 0
    outer loop
      vertex 33.0712 33.3156 5
      vertex 31.4512 35.0592 0
      vertex 31.4512 35.0592 5
    endloop
  endfacet
  facet normal 0.732596 0.680664 0
    outer loop
      vertex 31.4512 35.0592 0
      vertex 33.0712 33.3156 5
      vertex 33.0712 33.3156 0
    endloop
  endfacet
  facet normal 0.559369 0.828919 -0
    outer loop
      vertex 31.4512 35.0592 0
      vertex 29.4025 36.4417 5
      vertex 31.4512 35.0592 5
    endloop
  endfacet
  facet normal 0.559369 0.828919 0
    outer loop
      vertex 29.4025 36.4417 5
      vertex 31.4512 35.0592 0
      vertex 29.4025 36.4417 0
    endloop
  endfacet
  facet normal 0.374666 0.92716 -0
    outer loop
      vertex 29.4025 36.4417 0
      vertex 26.9588 37.4292 5
      vertex 29.4025 36.4417 5
    endloop
  endfacet
  facet normal 0.374666 0.92716 0
    outer loop
      vertex 26.9588 37.4292 5
      vertex 29.4025 36.4417 0
      vertex 26.9588 37.4292 0
    endloop
  endfacet
  facet normal 0.204319 0.978904 -0
    outer loop
      vertex 26.9588 37.4292 0
      vertex 24.1201 38.0217 5
      vertex 26.9588 37.4292 5
    endloop
  endfacet
  facet normal 0.204319 0.978904 0
    outer loop
      vertex 24.1201 38.0217 5
      vertex 26.9588 37.4292 0
      vertex 24.1201 38.0217 0
    endloop
  endfacet
  facet normal 0.060962 0.99814 -0
    outer loop
      vertex 24.1201 38.0217 0
      vertex 20.8864 38.2192 5
      vertex 24.1201 38.0217 5
    endloop
  endfacet
  facet normal 0.060962 0.99814 0
    outer loop
      vertex 20.8864 38.2192 5
      vertex 24.1201 38.0217 0
      vertex 20.8864 38.2192 0
    endloop
  endfacet
  facet normal 0 1 -0
    outer loop
      vertex 20.8864 38.2192 0
      vertex 3.71599 38.2192 5
      vertex 20.8864 38.2192 5
    endloop
  endfacet
  facet normal 0 1 0
    outer loop
      vertex 3.71599 38.2192 5
      vertex 20.8864 38.2192 0
      vertex 3.71599 38.2192 0
    endloop
  endfacet
  facet normal -1 0 0
    outer loop
      vertex 3.71599 0 0
      vertex 3.71599 38.2192 5
      vertex 3.71599 38.2192 0
    endloop
  endfacet
  facet normal -1 -0 0
    outer loop
      vertex 3.71599 38.2192 5
      vertex 3.71599 0 0
      vertex 3.71599 0 5
    endloop
  endfacet
  facet normal 0 -1 0
    outer loop
      vertex 3.71599 0 0
      vertex 11.718 0 5
      vertex 3.71599 0 5
    endloop
  endfacet
  facet normal 0 -1 -0
    outer loop
      vertex 11.718 0 5
      vertex 3.71599 0 0
      vertex 11.718 0 0
    endloop
  endfacet
  facet normal 1 -0 0
    outer loop
      vertex 11.718 0 5
      vertex 11.718 13.454 0
      vertex 11.718 13.454 5
    endloop
  endfacet
  facet normal 1 0 0
    outer loop
      vertex 11.718 13.454 0
      vertex 11.718 0 5
      vertex 11.718 0 0
    endloop
  endfacet
  facet normal 1 -0 0
    outer loop
      vertex 11.718 19.6112 5
      vertex 11.718 32.0076 0
      vertex 11.718 32.0076 5
    endloop
  endfacet
  facet normal 1 0 0
    outer loop
      vertex 11.718 32.0076 0
      vertex 11.718 19.6112 5
      vertex 11.718 19.6112 0
    endloop
  endfacet
  facet normal 0 -1 0
    outer loop
      vertex 11.718 32.0076 0
      vertex 19.9912 32.0076 5
      vertex 11.718 32.0076 5
    endloop
  endfacet
  facet normal 0 -1 -0
    outer loop
      vertex 19.9912 32.0076 5
      vertex 11.718 32.0076 0
      vertex 19.9912 32.0076 0
    endloop
  endfacet
  facet normal -0.120183 -0.992752 0
    outer loop
      vertex 19.9912 32.0076 0
      vertex 23.1004 31.6312 5
      vertex 19.9912 32.0076 5
    endloop
  endfacet
  facet normal -0.120183 -0.992752 -0
    outer loop
      vertex 23.1004 31.6312 5
      vertex 19.9912 32.0076 0
      vertex 23.1004 31.6312 0
    endloop
  endfacet
  facet normal -0.453192 -0.891413 0
    outer loop
      vertex 23.1004 31.6312 0
      vertex 25.3213 30.5021 5
      vertex 23.1004 31.6312 5
    endloop
  endfacet
  facet normal -0.453192 -0.891413 -0
    outer loop
      vertex 25.3213 30.5021 5
      vertex 23.1004 31.6312 0
      vertex 25.3213 30.5021 0
    endloop
  endfacet
  facet normal -0.816129 -0.577869 0
    outer loop
      vertex 26.6538 28.6202 0
      vertex 25.3213 30.5021 5
      vertex 25.3213 30.5021 0
    endloop
  endfacet
  facet normal -0.816129 -0.577869 0
    outer loop
      vertex 25.3213 30.5021 5
      vertex 26.6538 28.6202 0
      vertex 26.6538 28.6202 5
    endloop
  endfacet
  facet normal -0.986083 -0.166256 0
    outer loop
      vertex 27.098 25.9856 0
      vertex 26.6538 28.6202 5
      vertex 26.6538 28.6202 0
    endloop
  endfacet
  facet normal -0.986083 -0.166256 0
    outer loop
      vertex 26.6538 28.6202 5
      vertex 27.098 25.9856 0
      vertex 27.098 25.9856 5
    endloop
  endfacet
  facet normal -0.997057 0.0766651 0
    outer loop
      vertex 26.9861 24.5303 0
      vertex 27.098 25.9856 5
      vertex 27.098 25.9856 0
    endloop
  endfacet
  facet normal -0.997057 0.0766651 0
    outer loop
      vertex 27.098 25.9856 5
      vertex 26.9861 24.5303 0
      vertex 26.9861 24.5303 5
    endloop
  endfacet
  facet normal -0.966993 0.254803 0
    outer loop
      vertex 26.6504 23.2563 0
      vertex 26.9861 24.5303 5
      vertex 26.9861 24.5303 0
    endloop
  endfacet
  facet normal -0.966993 0.254803 0
    outer loop
      vertex 26.9861 24.5303 5
      vertex 26.6504 23.2563 0
      vertex 26.6504 23.2563 5
    endloop
  endfacet
  facet normal -0.890084 0.455796 0
    outer loop
      vertex 26.0909 22.1637 0
      vertex 26.6504 23.2563 5
      vertex 26.6504 23.2563 0
    endloop
  endfacet
  facet normal -0.890084 0.455796 0
    outer loop
      vertex 26.6504 23.2563 5
      vertex 26.0909 22.1637 0
      vertex 26.0909 22.1637 5
    endloop
  endfacet
  facet normal -0.758357 0.651839 0
    outer loop
      vertex 25.3076 21.2524 0
      vertex 26.0909 22.1637 5
      vertex 26.0909 22.1637 0
    endloop
  endfacet
  facet normal -0.758357 0.651839 0
    outer loop
      vertex 26.0909 22.1637 5
      vertex 25.3076 21.2524 0
      vertex 25.3076 21.2524 5
    endloop
  endfacet
  facet normal -0.587063 0.809541 0
    outer loop
      vertex 25.3076 21.2524 0
      vertex 24.3175 20.5344 5
      vertex 25.3076 21.2524 5
    endloop
  endfacet
  facet normal -0.587063 0.809541 0
    outer loop
      vertex 24.3175 20.5344 5
      vertex 25.3076 21.2524 0
      vertex 24.3175 20.5344 0
    endloop
  endfacet
  facet normal -0.398632 0.917111 0
    outer loop
      vertex 24.3175 20.5344 0
      vertex 23.1375 20.0215 5
      vertex 24.3175 20.5344 5
    endloop
  endfacet
  facet normal -0.398632 0.917111 0
    outer loop
      vertex 23.1375 20.0215 5
      vertex 24.3175 20.5344 0
      vertex 23.1375 20.0215 0
    endloop
  endfacet
  facet normal -0.21917 0.975687 0
    outer loop
      vertex 23.1375 20.0215 0
      vertex 21.7677 19.7138 5
      vertex 23.1375 20.0215 5
    endloop
  endfacet
  facet normal -0.21917 0.975687 0
    outer loop
      vertex 21.7677 19.7138 5
      vertex 23.1375 20.0215 0
      vertex 21.7677 19.7138 0
    endloop
  endfacet
  facet normal -0.06564 0.997843 0
    outer loop
      vertex 21.7677 19.7138 0
      vertex 20.208 19.6112 5
      vertex 21.7677 19.7138 5
    endloop
  endfacet
  facet normal -0.06564 0.997843 0
    outer loop
      vertex 20.208 19.6112 5
      vertex 21.7677 19.7138 0
      vertex 20.208 19.6112 0
    endloop
  endfacet
  facet normal 0 1 -0
    outer loop
      vertex 20.208 19.6112 0
      vertex 11.718 19.6112 5
      vertex 20.208 19.6112 5
    endloop
  endfacet
  facet normal 0 1 0
    outer loop
      vertex 11.718 19.6112 5
      vertex 20.208 19.6112 0
      vertex 11.718 19.6112 0
    endloop
  endfacet
endsolid OpenSCAD_Model
