solid OpenSCAD_Model
  facet normal 0 0 -1
    outer loop
      vertex 4.09599 0 0
      vertex 12.1248 16.8988 0
      vertex 12.1248 0 0
    endloop
  endfacet
  facet normal 0 0 -1
    outer loop
      vertex 4.09599 39.7652 0
      vertex 12.1248 16.8988 0
      vertex 4.09599 0 0
    endloop
  endfacet
  facet normal 0 0 -1
    outer loop
      vertex 12.1248 16.8988 0
      vertex 4.09599 39.7652 0
      vertex 12.1248 23.626 0
    endloop
  endfacet
  facet normal 0 0 -1
    outer loop
      vertex 12.1248 33.0384 0
      vertex 31.3564 39.7652 0
      vertex 31.3564 33.0384 0
    endloop
  endfacet
  facet normal 0 0 -1
    outer loop
      vertex 12.1248 33.0384 0
      vertex 4.09599 39.7652 0
      vertex 31.3564 39.7652 0
    endloop
  endfacet
  facet normal 0 0 -1
    outer loop
      vertex 12.1248 23.626 0
      vertex 4.09599 39.7652 0
      vertex 12.1248 33.0384 0
    endloop
  endfacet
  facet normal 0 0 -1
    outer loop
      vertex 28.7252 16.8988 0
      vertex 14.277 20.289 0
      vertex 28.7252 23.626 0
    endloop
  endfacet
  facet normal 0 0 -1
    outer loop
      vertex 12.1248 16.8988 0
      vertex 14.277 20.289 0
      vertex 28.7252 16.8988 0
    endloop
  endfacet
  facet normal -0 0 -1
    outer loop
      vertex 13.277 19.289 0
      vertex 12.1248 16.8988 0
      vertex 12.277 20.289 0
    endloop
  endfacet
  facet normal 0 0 -1
    outer loop
      vertex 14.277 20.289 0
      vertex 12.1248 16.8988 0
      vertex 13.277 19.289 0
    endloop
  endfacet
  facet normal 0 0 -1
    outer loop
      vertex 12.1248 23.626 0
      vertex 14.277 20.289 0
      vertex 13.277 21.289 0
    endloop
  endfacet
  facet normal 0 0 -1
    outer loop
      vertex 14.277 20.289 0
      vertex 12.1248 23.626 0
      vertex 28.7252 23.626 0
    endloop
  endfacet
  facet normal 0 0 -1
    outer loop
      vertex 12.277 20.289 0
      vertex 12.1248 23.626 0
      vertex 13.277 21.289 0
    endloop
  endfacet
  facet normal 0 0 -1
    outer loop
      vertex 12.1248 23.626 0
      vertex 12.277 20.289 0
      vertex 12.1248 16.8988 0
    endloop
  endfacet
  facet normal 0 0 1
    outer loop
      vertex 31.3564 39.7652 5
      vertex 12.1248 33.0384 5
      vertex 31.3564 33.0384 5
    endloop
  endfacet
  facet normal 0 0 1
    outer loop
      vertex 4.09599 39.7652 5
      vertex 12.1248 23.626 5
      vertex 12.1248 33.0384 5
    endloop
  endfacet
  facet normal 0 0 1
    outer loop
      vertex 12.1248 23.626 5
      vertex 4.09599 39.7652 5
      vertex 12.1248 16.8988 5
    endloop
  endfacet
  facet normal -0 0 1
    outer loop
      vertex 4.09599 39.7652 5
      vertex 12.1248 33.0384 5
      vertex 31.3564 39.7652 5
    endloop
  endfacet
  facet normal 0 0 1
    outer loop
      vertex 12.1248 16.8988 5
      vertex 4.09599 39.7652 5
      vertex 4.09599 0 5
    endloop
  endfacet
  facet normal 0 0 1
    outer loop
      vertex 12.1248 16.8988 5
      vertex 4.09599 0 5
      vertex 12.1248 0 5
    endloop
  endfacet
  facet normal -0 0 1
    outer loop
      vertex 12.1248 23.626 5
      vertex 28.7252 16.8988 5
      vertex 28.7252 23.626 5
    endloop
  endfacet
  facet normal 0 0 1
    outer loop
      vertex 28.7252 16.8988 5
      vertex 12.1248 23.626 5
      vertex 12.1248 16.8988 5
    endloop
  endfacet
  facet normal 0 -1 0
    outer loop
      vertex 12.1248 16.8988 0
      vertex 28.7252 16.8988 5
      vertex 12.1248 16.8988 5
    endloop
  endfacet
  facet normal 0 -1 -0
    outer loop
      vertex 28.7252 16.8988 5
      vertex 12.1248 16.8988 0
      vertex 28.7252 16.8988 0
    endloop
  endfacet
  facet normal 1 -0 0
    outer loop
      vertex 28.7252 16.8988 5
      vertex 28.7252 23.626 0
      vertex 28.7252 23.626 5
    endloop
  endfacet
  facet normal 1 0 0
    outer loop
      vertex 28.7252 23.626 0
      vertex 28.7252 16.8988 5
      vertex 28.7252 16.8988 0
    endloop
  endfacet
  facet normal 0 1 -0
    outer loop
      vertex 28.7252 23.626 0
      vertex 12.1248 23.626 5
      vertex 28.7252 23.626 5
    endloop
  endfacet
  facet normal 0 1 0
    outer loop
      vertex 12.1248 23.626 5
      vertex 28.7252 23.626 0
      vertex 12.1248 23.626 0
    endloop
  endfacet
  facet normal 1 -0 0
    outer loop
      vertex 12.1248 23.626 5
      vertex 12.1248 33.0384 0
      vertex 12.1248 33.0384 5
    endloop
  endfacet
  facet normal 1 0 0
    outer loop
      vertex 12.1248 33.0384 0
      vertex 12.1248 23.626 5
      vertex 12.1248 23.626 0
    endloop
  endfacet
  facet normal 0 -1 0
    outer loop
      vertex 12.1248 33.0384 0
      vertex 31.3564 33.0384 5
      vertex 12.1248 33.0384 5
    endloop
  endfacet
  facet normal 0 -1 -0
    outer loop
      vertex 31.3564 33.0384 5
      vertex 12.1248 33.0384 0
      vertex 31.3564 33.0384 0
    endloop
  endfacet
  facet normal 1 -0 0
    outer loop
      vertex 31.3564 33.0384 5
      vertex 31.3564 39.7652 0
      vertex 31.3564 39.7652 5
    endloop
  endfacet
  facet normal 1 0 0
    outer loop
      vertex 31.3564 39.7652 0
      vertex 31.3564 33.0384 5
      vertex 31.3564 33.0384 0
    endloop
  endfacet
  facet normal 0 1 -0
    outer loop
      vertex 31.3564 39.7652 0
      vertex 4.09599 39.7652 5
      vertex 31.3564 39.7652 5
    endloop
  endfacet
  facet normal 0 1 0
    outer loop
      vertex 4.09599 39.7652 5
      vertex 31.3564 39.7652 0
      vertex 4.09599 39.7652 0
    endloop
  endfacet
  facet normal -1 0 0
    outer loop
      vertex 4.09599 0 0
      vertex 4.09599 39.7652 5
      vertex 4.09599 39.7652 0
    endloop
  endfacet
  facet normal -1 -0 0
    outer loop
      vertex 4.09599 39.7652 5
      vertex 4.09599 0 0
      vertex 4.09599 0 5
    endloop
  endfacet
  facet normal 0 -1 0
    outer loop
      vertex 4.09599 0 0
      vertex 12.1248 0 5
      vertex 4.09599 0 5
    endloop
  endfacet
  facet normal 0 -1 -0
    outer loop
      vertex 12.1248 0 5
      vertex 4.09599 0 0
      vertex 12.1248 0 0
    endloop
  endfacet
  facet normal 1 -0 0
    outer loop
      vertex 12.1248 0 5
      vertex 12.1248 16.8988 0
      vertex 12.1248 16.8988 5
    endloop
  endfacet
  facet normal 1 0 0
    outer loop
      vertex 12.1248 16.8988 0
      vertex 12.1248 0 5
      vertex 12.1248 0 0
    endloop
  endfacet
  facet normal 0.707107 -0.707107 0
    outer loop
      vertex 12.277 20.289 2
      vertex 13.277 21.289 0
      vertex 13.277 21.289 2
    endloop
  endfacet
  facet normal 0.707107 -0.707107 0
    outer loop
      vertex 13.277 21.289 0
      vertex 12.277 20.289 2
      vertex 12.277 20.289 0
    endloop
  endfacet
  facet normal -0.707107 -0.707107 0
    outer loop
      vertex 14.277 20.289 0
      vertex 13.277 21.289 2
      vertex 13.277 21.289 0
    endloop
  endfacet
  facet normal -0.707107 -0.707107 0
    outer loop
      vertex 13.277 21.289 2
      vertex 14.277 20.289 0
      vertex 14.277 20.289 2
    endloop
  endfacet
  facet normal 0 0 -1
    outer loop
      vertex 13.277 19.289 2
      vertex 13.277 21.289 2
      vertex 14.277 20.289 2
    endloop
  endfacet
  facet normal 0 -0 -1
    outer loop
      vertex 13.277 21.289 2
      vertex 13.277 19.289 2
      vertex 12.277 20.289 2
    endloop
  endfacet
  facet normal -0.707107 0.707107 0
    outer loop
      vertex 13.277 19.289 0
      vertex 14.277 20.289 2
      vertex 14.277 20.289 0
    endloop
  endfacet
  facet normal -0.707107 0.707107 0
    outer loop
      vertex 14.277 20.289 2
      vertex 13.277 19.289 0
      vertex 13.277 19.289 2
    endloop
  endfacet
  facet normal 0.707107 0.707107 0
    outer loop
      vertex 13.277 19.289 2
      vertex 12.277 20.289 0
      vertex 12.277 20.289 2
    endloop
  endfacet
  facet normal 0.707107 0.707107 0
    outer loop
      vertex 12.277 20.289 0
      vertex 13.277 19.289 2
      vertex 13.277 19.289 0
    endloop
  endfacet
endsolid OpenSCAD_Model
