solid OpenSCAD_Model
  facet normal 0 0 -1
    outer loop
      vertex 3.71599 0 0
      vertex 10.8228 23.1648 0
      vertex 10.8228 0 0
    endloop
  endfacet
  facet normal 0 0 -1
    outer loop
      vertex 3.71599 38.2192 0
      vertex 10.8228 23.1648 0
      vertex 3.71599 0 0
    endloop
  endfacet
  facet normal 0 0 -1
    outer loop
      vertex 10.8228 23.1648 0
      vertex 3.71599 38.2192 0
      vertex 10.8024 24.4481 0
    endloop
  endfacet
  facet normal 0 0 -1
    outer loop
      vertex 10.8024 24.4481 0
      vertex 3.71599 38.2192 0
      vertex 10.7414 26.2638 0
    endloop
  endfacet
  facet normal 0 0 -1
    outer loop
      vertex 10.7414 26.2638 0
      vertex 3.71599 38.2192 0
      vertex 10.6396 28.6117 0
    endloop
  endfacet
  facet normal 0 0 -1
    outer loop
      vertex 35.4524 23.1648 0
      vertex 42.5592 38.2192 0
      vertex 42.5592 0 0
    endloop
  endfacet
  facet normal 0 0 -1
    outer loop
      vertex 42.5592 38.2192 0
      vertex 35.616 28.8322 0
      vertex 35.7236 31.492 0
    endloop
  endfacet
  facet normal 0 0 -1
    outer loop
      vertex 42.5592 38.2192 0
      vertex 35.5372 26.8199 0
      vertex 35.616 28.8322 0
    endloop
  endfacet
  facet normal 0 0 -1
    outer loop
      vertex 42.5592 38.2192 0
      vertex 35.4872 25.4552 0
      vertex 35.5372 26.8199 0
    endloop
  endfacet
  facet normal 0 0 -1
    outer loop
      vertex 42.5592 38.2192 0
      vertex 35.466 24.738 0
      vertex 35.4872 25.4552 0
    endloop
  endfacet
  facet normal 0 0 -1
    outer loop
      vertex 42.5592 38.2192 0
      vertex 35.46 24.3446 0
      vertex 35.466 24.738 0
    endloop
  endfacet
  facet normal 0 0 -1
    outer loop
      vertex 42.5592 38.2192 0
      vertex 35.4558 23.9513 0
      vertex 35.46 24.3446 0
    endloop
  endfacet
  facet normal 0 0 -1
    outer loop
      vertex 42.5592 38.2192 0
      vertex 35.4532 23.558 0
      vertex 35.4558 23.9513 0
    endloop
  endfacet
  facet normal 0 0 -1
    outer loop
      vertex 35.4524 23.1648 0
      vertex 42.5592 0 0
      vertex 35.4524 0 0
    endloop
  endfacet
  facet normal 0 0 -1
    outer loop
      vertex 42.5592 38.2192 0
      vertex 35.4524 23.1648 0
      vertex 35.4532 23.558 0
    endloop
  endfacet
  facet normal 0 0 -1
    outer loop
      vertex 31.8992 38.2192 0
      vertex 34.8233 28.1201 0
      vertex 34.0486 25.3009 0
    endloop
  endfacet
  facet normal 0 0 -1
    outer loop
      vertex 24.8736 15.7868 0
      vertex 34.0486 25.3009 0
      vertex 33.3993 23.0343 0
    endloop
  endfacet
  facet normal 0 0 -1
    outer loop
      vertex 24.8736 15.7868 0
      vertex 33.3993 23.0343 0
      vertex 32.8756 21.3204 0
    endloop
  endfacet
  facet normal 0 0 -1
    outer loop
      vertex 35.7236 31.492 0
      vertex 31.8992 38.2192 0
      vertex 42.5592 38.2192 0
    endloop
  endfacet
  facet normal 0 0 -1
    outer loop
      vertex 34.8233 28.1201 0
      vertex 31.8992 38.2192 0
      vertex 35.7236 31.492 0
    endloop
  endfacet
  facet normal 0 0 -1
    outer loop
      vertex 23.1648 9.65639 0
      vertex 32.8756 21.3204 0
      vertex 25.9856 0 0
    endloop
  endfacet
  facet normal -0 0 -1
    outer loop
      vertex 34.0486 25.3009 0
      vertex 24.8736 15.7868 0
      vertex 31.8992 38.2192 0
    endloop
  endfacet
  facet normal 0 0 -1
    outer loop
      vertex 32.8756 21.3204 0
      vertex 23.1648 9.65639 0
      vertex 24.8736 15.7868 0
    endloop
  endfacet
  facet normal 0 0 -1
    outer loop
      vertex 13.3996 21.3204 0
      vertex 21.8628 14.7832 0
      vertex 23.1648 9.65639 0
    endloop
  endfacet
  facet normal 0 0 -1
    outer loop
      vertex 20.2896 0 0
      vertex 23.1648 9.65639 0
      vertex 25.9856 0 0
    endloop
  endfacet
  facet normal 0 0 -1
    outer loop
      vertex 13.3996 21.3204 0
      vertex 23.1648 9.65639 0
      vertex 20.2896 0 0
    endloop
  endfacet
  facet normal 0 0 -1
    outer loop
      vertex 21.8628 14.7832 0
      vertex 13.3996 21.3204 0
      vertex 21.266 16.8448 0
    endloop
  endfacet
  facet normal 0 0 -1
    outer loop
      vertex 21.266 16.8448 0
      vertex 13.3996 21.3204 0
      vertex 14.4304 38.2192 0
    endloop
  endfacet
  facet normal 0 0 -1
    outer loop
      vertex 10.4972 31.492 0
      vertex 14.4304 38.2192 0
      vertex 13.3996 21.3204 0
    endloop
  endfacet
  facet normal 0 0 -1
    outer loop
      vertex 10.4972 31.492 0
      vertex 3.71599 38.2192 0
      vertex 14.4304 38.2192 0
    endloop
  endfacet
  facet normal 0 0 -1
    outer loop
      vertex 10.6396 28.6117 0
      vertex 3.71599 38.2192 0
      vertex 10.4972 31.492 0
    endloop
  endfacet
  facet normal 0 0 1
    outer loop
      vertex 35.616 28.8322 5
      vertex 42.5592 38.2192 5
      vertex 35.7236 31.492 5
    endloop
  endfacet
  facet normal 0 0 1
    outer loop
      vertex 31.8992 38.2192 5
      vertex 34.8233 28.1201 5
      vertex 35.7236 31.492 5
    endloop
  endfacet
  facet normal 0 0 1
    outer loop
      vertex 34.8233 28.1201 5
      vertex 31.8992 38.2192 5
      vertex 34.0486 25.3009 5
    endloop
  endfacet
  facet normal 0 0 1
    outer loop
      vertex 24.8736 15.7868 5
      vertex 34.0486 25.3009 5
      vertex 31.8992 38.2192 5
    endloop
  endfacet
  facet normal -0 0 1
    outer loop
      vertex 31.8992 38.2192 5
      vertex 35.7236 31.492 5
      vertex 42.5592 38.2192 5
    endloop
  endfacet
  facet normal 0 0 1
    outer loop
      vertex 34.0486 25.3009 5
      vertex 24.8736 15.7868 5
      vertex 33.3993 23.0343 5
    endloop
  endfacet
  facet normal 0 0 1
    outer loop
      vertex 33.3993 23.0343 5
      vertex 24.8736 15.7868 5
      vertex 32.8756 21.3204 5
    endloop
  endfacet
  facet normal 0 0 1
    outer loop
      vertex 23.1648 9.65639 5
      vertex 32.8756 21.3204 5
      vertex 24.8736 15.7868 5
    endloop
  endfacet
  facet normal 0 0 1
    outer loop
      vertex 32.8756 21.3204 5
      vertex 23.1648 9.65639 5
      vertex 25.9856 0 5
    endloop
  endfacet
  facet normal 0 0 1
    outer loop
      vertex 13.3996 21.3204 5
      vertex 21.8628 14.7832 5
      vertex 21.266 16.8448 5
    endloop
  endfacet
  facet normal 0 0 1
    outer loop
      vertex 23.1648 9.65639 5
      vertex 20.2896 0 5
      vertex 25.9856 0 5
    endloop
  endfacet
  facet normal 0 0 1
    outer loop
      vertex 21.8628 14.7832 5
      vertex 13.3996 21.3204 5
      vertex 23.1648 9.65639 5
    endloop
  endfacet
  facet normal -0 0 1
    outer loop
      vertex 13.3996 21.3204 5
      vertex 21.266 16.8448 5
      vertex 14.4304 38.2192 5
    endloop
  endfacet
  facet normal 0 0 1
    outer loop
      vertex 23.1648 9.65639 5
      vertex 13.3996 21.3204 5
      vertex 20.2896 0 5
    endloop
  endfacet
  facet normal 0 0 1
    outer loop
      vertex 14.4304 38.2192 5
      vertex 10.4972 31.492 5
      vertex 13.3996 21.3204 5
    endloop
  endfacet
  facet normal 0 -0 1
    outer loop
      vertex 10.4972 31.492 5
      vertex 14.4304 38.2192 5
      vertex 3.71599 38.2192 5
    endloop
  endfacet
  facet normal 0 0 1
    outer loop
      vertex 35.5372 26.8199 5
      vertex 42.5592 38.2192 5
      vertex 35.616 28.8322 5
    endloop
  endfacet
  facet normal 0 0 1
    outer loop
      vertex 35.4872 25.4552 5
      vertex 42.5592 38.2192 5
      vertex 35.5372 26.8199 5
    endloop
  endfacet
  facet normal 0 0 1
    outer loop
      vertex 35.466 24.738 5
      vertex 42.5592 38.2192 5
      vertex 35.4872 25.4552 5
    endloop
  endfacet
  facet normal 0 0 1
    outer loop
      vertex 35.46 24.3446 5
      vertex 42.5592 38.2192 5
      vertex 35.466 24.738 5
    endloop
  endfacet
  facet normal 0 0 1
    outer loop
      vertex 35.4558 23.9513 5
      vertex 42.5592 38.2192 5
      vertex 35.46 24.3446 5
    endloop
  endfacet
  facet normal 0 0 1
    outer loop
      vertex 35.4532 23.558 5
      vertex 42.5592 38.2192 5
      vertex 35.4558 23.9513 5
    endloop
  endfacet
  facet normal 0 0 1
    outer loop
      vertex 35.4524 23.1648 5
      vertex 42.5592 38.2192 5
      vertex 35.4532 23.558 5
    endloop
  endfacet
  facet normal 0 0 1
    outer loop
      vertex 42.5592 38.2192 5
      vertex 35.4524 23.1648 5
      vertex 42.5592 0 5
    endloop
  endfacet
  facet normal 0 0 1
    outer loop
      vertex 42.5592 0 5
      vertex 35.4524 23.1648 5
      vertex 35.4524 0 5
    endloop
  endfacet
  facet normal 0 0 1
    outer loop
      vertex 3.71599 38.2192 5
      vertex 10.8228 23.1648 5
      vertex 10.8024 24.4481 5
    endloop
  endfacet
  facet normal 0 0 1
    outer loop
      vertex 3.71599 38.2192 5
      vertex 10.8024 24.4481 5
      vertex 10.7414 26.2638 5
    endloop
  endfacet
  facet normal 0 0 1
    outer loop
      vertex 3.71599 38.2192 5
      vertex 10.7414 26.2638 5
      vertex 10.6396 28.6117 5
    endloop
  endfacet
  facet normal 0 0 1
    outer loop
      vertex 3.71599 38.2192 5
      vertex 10.6396 28.6117 5
      vertex 10.4972 31.492 5
    endloop
  endfacet
  facet normal 0 0 1
    outer loop
      vertex 10.8228 23.1648 5
      vertex 3.71599 38.2192 5
      vertex 3.71599 0 5
    endloop
  endfacet
  facet normal 0 0 1
    outer loop
      vertex 10.8228 23.1648 5
      vertex 3.71599 0 5
      vertex 10.8228 0 5
    endloop
  endfacet
  facet normal 0.999874 0.0158945 0
    outer loop
      vertex 10.8228 23.1648 5
      vertex 10.8024 24.4481 0
      vertex 10.8024 24.4481 5
    endloop
  endfacet
  facet normal 0.999874 0.0158945 0
    outer loop
      vertex 10.8024 24.4481 0
      vertex 10.8228 23.1648 5
      vertex 10.8228 23.1648 0
    endloop
  endfacet
  facet normal 0.999436 0.0335769 0
    outer loop
      vertex 10.8024 24.4481 5
      vertex 10.7414 26.2638 0
      vertex 10.7414 26.2638 5
    endloop
  endfacet
  facet normal 0.999436 0.0335769 0
    outer loop
      vertex 10.7414 26.2638 0
      vertex 10.8024 24.4481 5
      vertex 10.8024 24.4481 0
    endloop
  endfacet
  facet normal 0.999061 0.0433172 0
    outer loop
      vertex 10.7414 26.2638 5
      vertex 10.6396 28.6117 0
      vertex 10.6396 28.6117 5
    endloop
  endfacet
  facet normal 0.999061 0.0433172 0
    outer loop
      vertex 10.6396 28.6117 0
      vertex 10.7414 26.2638 5
      vertex 10.7414 26.2638 0
    endloop
  endfacet
  facet normal 0.99878 0.049379 0
    outer loop
      vertex 10.6396 28.6117 5
      vertex 10.4972 31.492 0
      vertex 10.4972 31.492 5
    endloop
  endfacet
  facet normal 0.99878 0.049379 0
    outer loop
      vertex 10.4972 31.492 0
      vertex 10.6396 28.6117 5
      vertex 10.6396 28.6117 0
    endloop
  endfacet
  facet normal -0.961618 -0.274391 0
    outer loop
      vertex 13.3996 21.3204 0
      vertex 10.4972 31.492 5
      vertex 10.4972 31.492 0
    endloop
  endfacet
  facet normal -0.961618 -0.274391 0
    outer loop
      vertex 10.4972 31.492 5
      vertex 13.3996 21.3204 0
      vertex 13.3996 21.3204 5
    endloop
  endfacet
  facet normal -0.951546 -0.307506 0
    outer loop
      vertex 20.2896 0 0
      vertex 13.3996 21.3204 5
      vertex 13.3996 21.3204 0
    endloop
  endfacet
  facet normal -0.951546 -0.307506 0
    outer loop
      vertex 13.3996 21.3204 5
      vertex 20.2896 0 0
      vertex 20.2896 0 5
    endloop
  endfacet
  facet normal 0 -1 0
    outer loop
      vertex 20.2896 0 0
      vertex 25.9856 0 5
      vertex 20.2896 0 5
    endloop
  endfacet
  facet normal 0 -1 -0
    outer loop
      vertex 25.9856 0 5
      vertex 20.2896 0 0
      vertex 25.9856 0 0
    endloop
  endfacet
  facet normal 0.951546 -0.307506 0
    outer loop
      vertex 25.9856 0 5
      vertex 32.8756 21.3204 0
      vertex 32.8756 21.3204 5
    endloop
  endfacet
  facet normal 0.951546 -0.307506 0
    outer loop
      vertex 32.8756 21.3204 0
      vertex 25.9856 0 5
      vertex 25.9856 0 0
    endloop
  endfacet
  facet normal 0.95635 -0.292223 0
    outer loop
      vertex 32.8756 21.3204 5
      vertex 33.3993 23.0343 0
      vertex 33.3993 23.0343 5
    endloop
  endfacet
  facet normal 0.95635 -0.292223 0
    outer loop
      vertex 33.3993 23.0343 0
      vertex 32.8756 21.3204 5
      vertex 32.8756 21.3204 0
    endloop
  endfacet
  facet normal 0.961333 -0.275388 0
    outer loop
      vertex 33.3993 23.0343 5
      vertex 34.0486 25.3009 0
      vertex 34.0486 25.3009 5
    endloop
  endfacet
  facet normal 0.961333 -0.275388 0
    outer loop
      vertex 34.0486 25.3009 0
      vertex 33.3993 23.0343 5
      vertex 33.3993 23.0343 0
    endloop
  endfacet
  facet normal 0.964256 -0.264972 0
    outer loop
      vertex 34.0486 25.3009 5
      vertex 34.8233 28.1201 0
      vertex 34.8233 28.1201 5
    endloop
  endfacet
  facet normal 0.964256 -0.264972 0
    outer loop
      vertex 34.8233 28.1201 0
      vertex 34.0486 25.3009 5
      vertex 34.0486 25.3009 0
    endloop
  endfacet
  facet normal 0.966155 -0.257964 0
    outer loop
      vertex 34.8233 28.1201 5
      vertex 35.7236 31.492 0
      vertex 35.7236 31.492 5
    endloop
  endfacet
  facet normal 0.966155 -0.257964 0
    outer loop
      vertex 35.7236 31.492 0
      vertex 34.8233 28.1201 5
      vertex 34.8233 28.1201 0
    endloop
  endfacet
  facet normal -0.999183 0.0404211 0
    outer loop
      vertex 35.616 28.8322 0
      vertex 35.7236 31.492 5
      vertex 35.7236 31.492 0
    endloop
  endfacet
  facet normal -0.999183 0.0404211 0
    outer loop
      vertex 35.7236 31.492 5
      vertex 35.616 28.8322 0
      vertex 35.616 28.8322 5
    endloop
  endfacet
  facet normal -0.999234 0.0391292 0
    outer loop
      vertex 35.5372 26.8199 0
      vertex 35.616 28.8322 5
      vertex 35.616 28.8322 0
    endloop
  endfacet
  facet normal -0.999234 0.0391292 0
    outer loop
      vertex 35.616 28.8322 5
      vertex 35.5372 26.8199 0
      vertex 35.5372 26.8199 5
    endloop
  endfacet
  facet normal -0.99933 0.0366135 0
    outer loop
      vertex 35.4872 25.4552 0
      vertex 35.5372 26.8199 5
      vertex 35.5372 26.8199 0
    endloop
  endfacet
  facet normal -0.99933 0.0366135 0
    outer loop
      vertex 35.5372 26.8199 5
      vertex 35.4872 25.4552 0
      vertex 35.4872 25.4552 5
    endloop
  endfacet
  facet normal -0.999563 0.0295465 0
    outer loop
      vertex 35.466 24.738 0
      vertex 35.4872 25.4552 5
      vertex 35.4872 25.4552 0
    endloop
  endfacet
  facet normal -0.999563 0.0295465 0
    outer loop
      vertex 35.4872 25.4552 5
      vertex 35.466 24.738 0
      vertex 35.466 24.738 5
    endloop
  endfacet
  facet normal -0.999884 0.0152499 0
    outer loop
      vertex 35.46 24.3446 0
      vertex 35.466 24.738 5
      vertex 35.466 24.738 0
    endloop
  endfacet
  facet normal -0.999884 0.0152499 0
    outer loop
      vertex 35.466 24.738 5
      vertex 35.46 24.3446 0
      vertex 35.46 24.3446 5
    endloop
  endfacet
  facet normal -0.999943 0.0106783 0
    outer loop
      vertex 35.4558 23.9513 0
      vertex 35.46 24.3446 5
      vertex 35.46 24.3446 0
    endloop
  endfacet
  facet normal -0.999943 0.0106783 0
    outer loop
      vertex 35.46 24.3446 5
      vertex 35.4558 23.9513 0
      vertex 35.4558 23.9513 5
    endloop
  endfacet
  facet normal -0.999978 0.00661059 0
    outer loop
      vertex 35.4532 23.558 0
      vertex 35.4558 23.9513 5
      vertex 35.4558 23.9513 0
    endloop
  endfacet
  facet normal -0.999978 0.00661059 0
    outer loop
      vertex 35.4558 23.9513 5
      vertex 35.4532 23.558 0
      vertex 35.4532 23.558 5
    endloop
  endfacet
  facet normal -0.999998 0.00203458 0
    outer loop
      vertex 35.4524 23.1648 0
      vertex 35.4532 23.558 5
      vertex 35.4532 23.558 0
    endloop
  endfacet
  facet normal -0.999998 0.00203458 0
    outer loop
      vertex 35.4532 23.558 5
      vertex 35.4524 23.1648 0
      vertex 35.4524 23.1648 5
    endloop
  endfacet
  facet normal -1 0 0
    outer loop
      vertex 35.4524 0 0
      vertex 35.4524 23.1648 5
      vertex 35.4524 23.1648 0
    endloop
  endfacet
  facet normal -1 -0 0
    outer loop
      vertex 35.4524 23.1648 5
      vertex 35.4524 0 0
      vertex 35.4524 0 5
    endloop
  endfacet
  facet normal 0 -1 0
    outer loop
      vertex 35.4524 0 0
      vertex 42.5592 0 5
      vertex 35.4524 0 5
    endloop
  endfacet
  facet normal 0 -1 -0
    outer loop
      vertex 42.5592 0 5
      vertex 35.4524 0 0
      vertex 42.5592 0 0
    endloop
  endfacet
  facet normal 1 -0 0
    outer loop
      vertex 42.5592 0 5
      vertex 42.5592 38.2192 0
      vertex 42.5592 38.2192 5
    endloop
  endfacet
  facet normal 1 0 0
    outer loop
      vertex 42.5592 38.2192 0
      vertex 42.5592 0 5
      vertex 42.5592 0 0
    endloop
  endfacet
  facet normal 0 1 -0
    outer loop
      vertex 42.5592 38.2192 0
      vertex 31.8992 38.2192 5
      vertex 42.5592 38.2192 5
    endloop
  endfacet
  facet normal 0 1 0
    outer loop
      vertex 31.8992 38.2192 5
      vertex 42.5592 38.2192 0
      vertex 31.8992 38.2192 0
    endloop
  endfacet
  facet normal -0.954292 0.298875 0
    outer loop
      vertex 24.8736 15.7868 0
      vertex 31.8992 38.2192 5
      vertex 31.8992 38.2192 0
    endloop
  endfacet
  facet normal -0.954292 0.298875 0
    outer loop
      vertex 31.8992 38.2192 5
      vertex 24.8736 15.7868 0
      vertex 24.8736 15.7868 5
    endloop
  endfacet
  facet normal -0.963278 0.268506 0
    outer loop
      vertex 23.1648 9.65639 0
      vertex 24.8736 15.7868 5
      vertex 24.8736 15.7868 0
    endloop
  endfacet
  facet normal -0.963278 0.268506 0
    outer loop
      vertex 24.8736 15.7868 5
      vertex 23.1648 9.65639 0
      vertex 23.1648 9.65639 5
    endloop
  endfacet
  facet normal 0.969233 0.246146 0
    outer loop
      vertex 23.1648 9.65639 5
      vertex 21.8628 14.7832 0
      vertex 21.8628 14.7832 5
    endloop
  endfacet
  facet normal 0.969233 0.246146 0
    outer loop
      vertex 21.8628 14.7832 0
      vertex 23.1648 9.65639 5
      vertex 23.1648 9.65639 0
    endloop
  endfacet
  facet normal 0.960562 0.278067 0
    outer loop
      vertex 21.8628 14.7832 5
      vertex 21.266 16.8448 0
      vertex 21.266 16.8448 5
    endloop
  endfacet
  facet normal 0.960562 0.278067 0
    outer loop
      vertex 21.266 16.8448 0
      vertex 21.8628 14.7832 5
      vertex 21.8628 14.7832 0
    endloop
  endfacet
  facet normal 0.952479 0.304606 0
    outer loop
      vertex 21.266 16.8448 5
      vertex 14.4304 38.2192 0
      vertex 14.4304 38.2192 5
    endloop
  endfacet
  facet normal 0.952479 0.304606 0
    outer loop
      vertex 14.4304 38.2192 0
      vertex 21.266 16.8448 5
      vertex 21.266 16.8448 0
    endloop
  endfacet
  facet normal 0 1 -0
    outer loop
      vertex 14.4304 38.2192 0
      vertex 3.71599 38.2192 5
      vertex 14.4304 38.2192 5
    endloop
  endfacet
  facet normal 0 1 0
    outer loop
      vertex 3.71599 38.2192 5
      vertex 14.4304 38.2192 0
      vertex 3.71599 38.2192 0
    endloop
  endfacet
  facet normal -1 0 0
    outer loop
      vertex 3.71599 0 0
      vertex 3.71599 38.2192 5
      vertex 3.71599 38.2192 0
    endloop
  endfacet
  facet normal -1 -0 0
    outer loop
      vertex 3.71599 38.2192 5
      vertex 3.71599 0 0
      vertex 3.71599 0 5
    endloop
  endfacet
  facet normal 0 -1 0
    outer loop
      vertex 3.71599 0 0
      vertex 10.8228 0 5
      vertex 3.71599 0 5
    endloop
  endfacet
  facet normal 0 -1 -0
    outer loop
      vertex 10.8228 0 5
      vertex 3.71599 0 0
      vertex 10.8228 0 0
    endloop
  endfacet
  facet normal 1 -0 0
    outer loop
      vertex 10.8228 0 5
      vertex 10.8228 23.1648 0
      vertex 10.8228 23.1648 5
    endloop
  endfacet
  facet normal 1 0 0
    outer loop
      vertex 10.8228 23.1648 0
      vertex 10.8228 0 5
      vertex 10.8228 0 0
    endloop
  endfacet
endsolid OpenSCAD_Model
