solid OpenSCAD_Model
  facet normal -1 0 0
    outer loop
      vertex 3.71599 0 0
      vertex 3.71599 38.2192 5
      vertex 3.71599 38.2192 0
    endloop
  endfacet
  facet normal -1 -0 0
    outer loop
      vertex 3.71599 38.2192 5
      vertex 3.71599 0 0
      vertex 3.71599 0 5
    endloop
  endfacet
  facet normal 1 0 0
    outer loop
      vertex 11.718 38.2192 5
      vertex 11.718 24.2086 2
      vertex 11.718 38.2192 0
    endloop
  endfacet
  facet normal 1 0 0
    outer loop
      vertex 11.718 38.2192 5
      vertex 11.718 22.3196 2
      vertex 11.718 24.2086 2
    endloop
  endfacet
  facet normal 1 -0 0
    outer loop
      vertex 11.718 0 5
      vertex 11.718 22.3196 2
      vertex 11.718 38.2192 5
    endloop
  endfacet
  facet normal 1 0 0
    outer loop
      vertex 11.718 0 0
      vertex 11.718 22.3196 2
      vertex 11.718 0 5
    endloop
  endfacet
  facet normal 1 0 0
    outer loop
      vertex 11.718 22.3196 2
      vertex 11.718 0 0
      vertex 11.718 22.3196 0
    endloop
  endfacet
  facet normal 1 0 0
    outer loop
      vertex 11.718 38.2192 0
      vertex 11.718 24.2086 2
      vertex 11.718 24.2086 0
    endloop
  endfacet
  facet normal 0 0 -1
    outer loop
      vertex 11.718 0 0
      vertex 11.6625 22.2641 0
      vertex 11.718 22.3196 0
    endloop
  endfacet
  facet normal 0 0 -1
    outer loop
      vertex 3.71599 0 0
      vertex 11.6625 22.2641 0
      vertex 11.718 0 0
    endloop
  endfacet
  facet normal -0 0 -1
    outer loop
      vertex 11.6625 22.2641 0
      vertex 3.71599 0 0
      vertex 10.6625 23.2641 0
    endloop
  endfacet
  facet normal 0 0 -1
    outer loop
      vertex 11.6625 24.2641 0
      vertex 11.718 38.2192 0
      vertex 11.718 24.2086 0
    endloop
  endfacet
  facet normal 0 0 -1
    outer loop
      vertex 3.71599 38.2192 0
      vertex 11.6625 24.2641 0
      vertex 10.6625 23.2641 0
    endloop
  endfacet
  facet normal 0 0 -1
    outer loop
      vertex 3.71599 38.2192 0
      vertex 10.6625 23.2641 0
      vertex 3.71599 0 0
    endloop
  endfacet
  facet normal 0 0 -1
    outer loop
      vertex 11.6625 24.2641 0
      vertex 3.71599 38.2192 0
      vertex 11.718 38.2192 0
    endloop
  endfacet
  facet normal -0 0 1
    outer loop
      vertex 3.71599 38.2192 5
      vertex 11.718 0 5
      vertex 11.718 38.2192 5
    endloop
  endfacet
  facet normal 0 0 1
    outer loop
      vertex 11.718 0 5
      vertex 3.71599 38.2192 5
      vertex 3.71599 0 5
    endloop
  endfacet
  facet normal 0 1 -0
    outer loop
      vertex 11.718 38.2192 0
      vertex 3.71599 38.2192 5
      vertex 11.718 38.2192 5
    endloop
  endfacet
  facet normal 0 1 0
    outer loop
      vertex 3.71599 38.2192 5
      vertex 11.718 38.2192 0
      vertex 3.71599 38.2192 0
    endloop
  endfacet
  facet normal 0 -1 0
    outer loop
      vertex 3.71599 0 0
      vertex 11.718 0 5
      vertex 3.71599 0 5
    endloop
  endfacet
  facet normal 0 -1 -0
    outer loop
      vertex 11.718 0 5
      vertex 3.71599 0 0
      vertex 11.718 0 0
    endloop
  endfacet
  facet normal 0.707107 -0.707107 0
    outer loop
      vertex 10.6625 23.2641 2
      vertex 11.6625 24.2641 0
      vertex 11.6625 24.2641 2
    endloop
  endfacet
  facet normal 0.707107 -0.707107 0
    outer loop
      vertex 11.6625 24.2641 0
      vertex 10.6625 23.2641 2
      vertex 10.6625 23.2641 0
    endloop
  endfacet
  facet normal -0.707107 -0.707107 0
    outer loop
      vertex 11.718 24.2086 0
      vertex 11.6625 24.2641 2
      vertex 11.6625 24.2641 0
    endloop
  endfacet
  facet normal -0.707107 -0.707107 0
    outer loop
      vertex 11.6625 24.2641 2
      vertex 11.718 24.2086 0
      vertex 11.718 24.2086 2
    endloop
  endfacet
  facet normal 0 0 -1
    outer loop
      vertex 10.6625 23.2641 2
      vertex 11.718 22.3196 2
      vertex 11.6625 22.2641 2
    endloop
  endfacet
  facet normal 0 0 -1
    outer loop
      vertex 11.718 22.3196 2
      vertex 10.6625 23.2641 2
      vertex 11.718 24.2086 2
    endloop
  endfacet
  facet normal -0 0 -1
    outer loop
      vertex 11.718 24.2086 2
      vertex 10.6625 23.2641 2
      vertex 11.6625 24.2641 2
    endloop
  endfacet
  facet normal -0.707107 0.707107 0
    outer loop
      vertex 11.6625 22.2641 0
      vertex 11.718 22.3196 2
      vertex 11.718 22.3196 0
    endloop
  endfacet
  facet normal -0.707107 0.707107 0
    outer loop
      vertex 11.718 22.3196 2
      vertex 11.6625 22.2641 0
      vertex 11.6625 22.2641 2
    endloop
  endfacet
  facet normal 0.707107 0.707107 0
    outer loop
      vertex 11.6625 22.2641 2
      vertex 10.6625 23.2641 0
      vertex 10.6625 23.2641 2
    endloop
  endfacet
  facet normal 0.707107 0.707107 0
    outer loop
      vertex 10.6625 23.2641 0
      vertex 11.6625 22.2641 2
      vertex 11.6625 22.2641 0
    endloop
  endfacet
endsolid OpenSCAD_Model
