solid OpenSCAD_Model
  facet normal 0 0 -1
    outer loop
      vertex 29.4553 10.2185 0
      vertex 37.5952 10.9044 0
      vertex 37.3511 8.44786 0
    endloop
  endfacet
  facet normal 0 0 -1
    outer loop
      vertex 37.5952 10.9044 0
      vertex 29.5664 11.528 0
      vertex 37.4435 12.7616 0
    endloop
  endfacet
  facet normal 0 0 -1
    outer loop
      vertex 29.4553 10.2185 0
      vertex 37.3511 8.44786 0
      vertex 36.6187 6.28629 0
    endloop
  endfacet
  facet normal -0 0 -1
    outer loop
      vertex 37.4435 12.7616 0
      vertex 29.5664 11.528 0
      vertex 36.9883 14.4272 0
    endloop
  endfacet
  facet normal 0 0 -1
    outer loop
      vertex 29.1222 9.0835 0
      vertex 36.6187 6.28629 0
      vertex 35.3981 4.41966 0
    endloop
  endfacet
  facet normal -0 0 -1
    outer loop
      vertex 37.5952 10.9044 0
      vertex 29.4553 10.2185 0
      vertex 29.5664 11.528 0
    endloop
  endfacet
  facet normal 0 0 -1
    outer loop
      vertex 29.0849 13.8777 0
      vertex 36.2297 15.9012 0
      vertex 29.5664 11.528 0
    endloop
  endfacet
  facet normal 0 0 -1
    outer loop
      vertex 28.5669 8.12306 0
      vertex 35.3981 4.41966 0
      vertex 33.6892 2.84799 0
    endloop
  endfacet
  facet normal -0 0 -1
    outer loop
      vertex 36.2297 15.9012 0
      vertex 29.0849 13.8777 0
      vertex 35.1676 17.1836 0
    endloop
  endfacet
  facet normal 0 0 -1
    outer loop
      vertex 28.5669 8.12306 0
      vertex 33.6892 2.84799 0
      vertex 31.5463 1.60199 0
    endloop
  endfacet
  facet normal -0 0 -1
    outer loop
      vertex 35.1676 17.1836 0
      vertex 29.0849 13.8777 0
      vertex 33.8156 18.2559 0
    endloop
  endfacet
  facet normal -0 0 -1
    outer loop
      vertex 33.8156 18.2559 0
      vertex 29.0849 13.8777 0
      vertex 32.1873 19.0994 0
    endloop
  endfacet
  facet normal -0 0 -1
    outer loop
      vertex 36.9883 14.4272 0
      vertex 29.5664 11.528 0
      vertex 36.2297 15.9012 0
    endloop
  endfacet
  facet normal 0 0 -1
    outer loop
      vertex 36.6187 6.28629 0
      vertex 29.1222 9.0835 0
      vertex 29.4553 10.2185 0
    endloop
  endfacet
  facet normal 0 0 -1
    outer loop
      vertex 27.7896 7.33719 0
      vertex 31.5463 1.60199 0
      vertex 29.0237 0.71199 0
    endloop
  endfacet
  facet normal 0 0 -1
    outer loop
      vertex 35.3981 4.41966 0
      vertex 28.5669 8.12306 0
      vertex 29.1222 9.0835 0
    endloop
  endfacet
  facet normal 0 0 -1
    outer loop
      vertex 31.5463 1.60199 0
      vertex 27.7896 7.33719 0
      vertex 28.5669 8.12306 0
    endloop
  endfacet
  facet normal 0 0 -1
    outer loop
      vertex 29.0237 0.71199 0
      vertex 26.7715 6.72609 0
      vertex 27.7896 7.33719 0
    endloop
  endfacet
  facet normal 0 0 -1
    outer loop
      vertex 25.4941 6.2896 0
      vertex 29.0237 0.71199 0
      vertex 26.1213 0.177994 0
    endloop
  endfacet
  facet normal 0 0 -1
    outer loop
      vertex 29.0237 0.71199 0
      vertex 25.4941 6.2896 0
      vertex 26.7715 6.72609 0
    endloop
  endfacet
  facet normal 0 0 -1
    outer loop
      vertex 26.1213 0.177994 0
      vertex 23.9573 6.02769 0
      vertex 25.4941 6.2896 0
    endloop
  endfacet
  facet normal 0 0 -1
    outer loop
      vertex 22.8392 0 0
      vertex 23.9573 6.02769 0
      vertex 26.1213 0.177994 0
    endloop
  endfacet
  facet normal 0 0 -1
    outer loop
      vertex 22.8392 0 0
      vertex 22.1612 5.9404 0
      vertex 23.9573 6.02769 0
    endloop
  endfacet
  facet normal 0 0 -1
    outer loop
      vertex 22.8392 0 0
      vertex 11.718 5.9404 0
      vertex 22.1612 5.9404 0
    endloop
  endfacet
  facet normal 0 0 -1
    outer loop
      vertex 3.71599 0 0
      vertex 11.718 16.8988 0
      vertex 11.718 5.9404 0
    endloop
  endfacet
  facet normal 0 0 -1
    outer loop
      vertex 3.71599 38.2192 0
      vertex 11.718 16.8988 0
      vertex 3.71599 0 0
    endloop
  endfacet
  facet normal 0 0 -1
    outer loop
      vertex 11.718 16.8988 0
      vertex 3.71599 38.2192 0
      vertex 11.718 22.812 0
    endloop
  endfacet
  facet normal 0 0 -1
    outer loop
      vertex 3.71599 0 0
      vertex 11.718 5.9404 0
      vertex 22.8392 0 0
    endloop
  endfacet
  facet normal 0 0 -1
    outer loop
      vertex 27.6405 15.5561 0
      vertex 32.1873 19.0994 0
      vertex 29.0849 13.8777 0
    endloop
  endfacet
  facet normal -0 0 -1
    outer loop
      vertex 32.1873 19.0994 0
      vertex 27.6405 15.5561 0
      vertex 30.2826 19.7139 0
    endloop
  endfacet
  facet normal -0 0 -1
    outer loop
      vertex 30.2826 19.7139 0
      vertex 27.6405 15.5561 0
      vertex 28.1016 20.0996 0
    endloop
  endfacet
  facet normal 0 0 -1
    outer loop
      vertex 27.342 27.532 0
      vertex 35.398 28.6168 0
      vertex 35.2852 27.0529 0
    endloop
  endfacet
  facet normal 0 0 -1
    outer loop
      vertex 27.342 27.532 0
      vertex 35.2852 27.0529 0
      vertex 34.947 25.6162 0
    endloop
  endfacet
  facet normal -0 0 -1
    outer loop
      vertex 35.398 28.6168 0
      vertex 27.342 27.532 0
      vertex 27.2394 28.7271 0
    endloop
  endfacet
  facet normal 0 0 -1
    outer loop
      vertex 27.2462 26.4257 0
      vertex 34.947 25.6162 0
      vertex 34.3832 24.3065 0
    endloop
  endfacet
  facet normal 0 0 -1
    outer loop
      vertex 27.2462 26.4257 0
      vertex 34.3832 24.3065 0
      vertex 33.594 23.124 0
    endloop
  endfacet
  facet normal 0 0 -1
    outer loop
      vertex 35.398 28.6168 0
      vertex 27.2394 28.7271 0
      vertex 35.1734 30.8452 0
    endloop
  endfacet
  facet normal 0 0 -1
    outer loop
      vertex 27.2462 26.4257 0
      vertex 33.594 23.124 0
      vertex 32.5744 22.0959 0
    endloop
  endfacet
  facet normal 0 0 -1
    outer loop
      vertex 26.9317 29.7358 0
      vertex 35.1734 30.8452 0
      vertex 27.2394 28.7271 0
    endloop
  endfacet
  facet normal 0 0 -1
    outer loop
      vertex 26.9588 25.467 0
      vertex 32.5744 22.0959 0
      vertex 31.3191 21.2491 0
    endloop
  endfacet
  facet normal 0 0 -1
    outer loop
      vertex 26.9588 25.467 0
      vertex 31.3191 21.2491 0
      vertex 29.8282 20.5837 0
    endloop
  endfacet
  facet normal -0 0 -1
    outer loop
      vertex 35.1734 30.8452 0
      vertex 26.9317 29.7358 0
      vertex 34.4995 32.7838 0
    endloop
  endfacet
  facet normal 0 0 -1
    outer loop
      vertex 26.4798 24.6557 0
      vertex 29.8282 20.5837 0
      vertex 28.1016 20.0996 0
    endloop
  endfacet
  facet normal 0 0 -1
    outer loop
      vertex 25.2331 16.5631 0
      vertex 28.1016 20.0996 0
      vertex 27.6405 15.5561 0
    endloop
  endfacet
  facet normal 0 0 -1
    outer loop
      vertex 34.947 25.6162 0
      vertex 27.2462 26.4257 0
      vertex 27.342 27.532 0
    endloop
  endfacet
  facet normal -0 0 -1
    outer loop
      vertex 33.3764 34.4324 0
      vertex 26.9317 29.7358 0
      vertex 31.804 35.7912 0
    endloop
  endfacet
  facet normal -0 0 -1
    outer loop
      vertex 34.4995 32.7838 0
      vertex 26.9317 29.7358 0
      vertex 33.3764 34.4324 0
    endloop
  endfacet
  facet normal 0 0 -1
    outer loop
      vertex 32.5744 22.0959 0
      vertex 26.9588 25.467 0
      vertex 27.2462 26.4257 0
    endloop
  endfacet
  facet normal 0 0 -1
    outer loop
      vertex 29.8282 20.5837 0
      vertex 26.4798 24.6557 0
      vertex 26.9588 25.467 0
    endloop
  endfacet
  facet normal 0 0 -1
    outer loop
      vertex 28.1016 20.0996 0
      vertex 25.8092 23.992 0
      vertex 26.4798 24.6557 0
    endloop
  endfacet
  facet normal 0 0 -1
    outer loop
      vertex 23.8123 23.107 0
      vertex 28.1016 20.0996 0
      vertex 25.2331 16.5631 0
    endloop
  endfacet
  facet normal 0 0 -1
    outer loop
      vertex 28.1016 20.0996 0
      vertex 24.9269 23.4757 0
      vertex 25.8092 23.992 0
    endloop
  endfacet
  facet normal 0 0 -1
    outer loop
      vertex 28.1016 20.0996 0
      vertex 23.8123 23.107 0
      vertex 24.9269 23.4757 0
    endloop
  endfacet
  facet normal 0 0 -1
    outer loop
      vertex 21.8628 16.8988 0
      vertex 23.8123 23.107 0
      vertex 25.2331 16.5631 0
    endloop
  endfacet
  facet normal 0 0 -1
    outer loop
      vertex 23.8123 23.107 0
      vertex 21.8628 16.8988 0
      vertex 22.4655 22.8857 0
    endloop
  endfacet
  facet normal 0 0 -1
    outer loop
      vertex 21.8628 16.8988 0
      vertex 20.8864 22.812 0
      vertex 22.4655 22.8857 0
    endloop
  endfacet
  facet normal 0 0 -1
    outer loop
      vertex 11.718 16.8988 0
      vertex 20.8864 22.812 0
      vertex 21.8628 16.8988 0
    endloop
  endfacet
  facet normal -0 0 -1
    outer loop
      vertex 20.8864 22.812 0
      vertex 11.718 16.8988 0
      vertex 11.718 22.812 0
    endloop
  endfacet
  facet normal 0 0 -1
    outer loop
      vertex 26.4188 30.5579 0
      vertex 31.804 35.7912 0
      vertex 26.9317 29.7358 0
    endloop
  endfacet
  facet normal -0 0 -1
    outer loop
      vertex 31.804 35.7912 0
      vertex 26.4188 30.5579 0
      vertex 29.7942 36.8534 0
    endloop
  endfacet
  facet normal 0 0 -1
    outer loop
      vertex 25.7008 31.1936 0
      vertex 29.7942 36.8534 0
      vertex 26.4188 30.5579 0
    endloop
  endfacet
  facet normal -0 0 -1
    outer loop
      vertex 29.7942 36.8534 0
      vertex 25.7008 31.1936 0
      vertex 27.3589 37.6122 0
    endloop
  endfacet
  facet normal 0 0 -1
    outer loop
      vertex 24.7812 31.6684 0
      vertex 27.3589 37.6122 0
      vertex 25.7008 31.1936 0
    endloop
  endfacet
  facet normal 0 0 -1
    outer loop
      vertex 24.7812 31.6684 0
      vertex 24.498 38.0674 0
      vertex 27.3589 37.6122 0
    endloop
  endfacet
  facet normal 0 0 -1
    outer loop
      vertex 23.6632 32.0075 0
      vertex 24.498 38.0674 0
      vertex 24.7812 31.6684 0
    endloop
  endfacet
  facet normal 0 0 -1
    outer loop
      vertex 22.3468 32.211 0
      vertex 24.498 38.0674 0
      vertex 23.6632 32.0075 0
    endloop
  endfacet
  facet normal 0 0 -1
    outer loop
      vertex 22.3468 32.211 0
      vertex 21.2116 38.2192 0
      vertex 24.498 38.0674 0
    endloop
  endfacet
  facet normal 0 0 -1
    outer loop
      vertex 20.832 32.2788 0
      vertex 21.2116 38.2192 0
      vertex 22.3468 32.211 0
    endloop
  endfacet
  facet normal 0 0 -1
    outer loop
      vertex 11.718 32.2788 0
      vertex 21.2116 38.2192 0
      vertex 20.832 32.2788 0
    endloop
  endfacet
  facet normal 0 0 -1
    outer loop
      vertex 11.718 32.2788 0
      vertex 3.71599 38.2192 0
      vertex 21.2116 38.2192 0
    endloop
  endfacet
  facet normal 0 0 -1
    outer loop
      vertex 11.718 22.812 0
      vertex 3.71599 38.2192 0
      vertex 11.718 32.2788 0
    endloop
  endfacet
  facet normal 0 0 1
    outer loop
      vertex 35.398 28.6168 5
      vertex 27.2394 28.7271 5
      vertex 27.342 27.532 5
    endloop
  endfacet
  facet normal 0 0 1
    outer loop
      vertex 29.7942 36.8534 5
      vertex 26.9317 29.7358 5
      vertex 27.2394 28.7271 5
    endloop
  endfacet
  facet normal 0 0 1
    outer loop
      vertex 29.7942 36.8534 5
      vertex 26.4188 30.5579 5
      vertex 26.9317 29.7358 5
    endloop
  endfacet
  facet normal 0 0 1
    outer loop
      vertex 29.7942 36.8534 5
      vertex 25.7008 31.1936 5
      vertex 26.4188 30.5579 5
    endloop
  endfacet
  facet normal 0 0 1
    outer loop
      vertex 27.3589 37.6122 5
      vertex 24.7812 31.6684 5
      vertex 25.7008 31.1936 5
    endloop
  endfacet
  facet normal 0 0 1
    outer loop
      vertex 24.498 38.0674 5
      vertex 24.7812 31.6684 5
      vertex 27.3589 37.6122 5
    endloop
  endfacet
  facet normal 0 0 1
    outer loop
      vertex 24.498 38.0674 5
      vertex 23.6632 32.0075 5
      vertex 24.7812 31.6684 5
    endloop
  endfacet
  facet normal 0 0 1
    outer loop
      vertex 24.498 38.0674 5
      vertex 22.3468 32.211 5
      vertex 23.6632 32.0075 5
    endloop
  endfacet
  facet normal 0 0 1
    outer loop
      vertex 21.2116 38.2192 5
      vertex 22.3468 32.211 5
      vertex 24.498 38.0674 5
    endloop
  endfacet
  facet normal 0 0 1
    outer loop
      vertex 21.2116 38.2192 5
      vertex 20.832 32.2788 5
      vertex 22.3468 32.211 5
    endloop
  endfacet
  facet normal 0 0 1
    outer loop
      vertex 21.2116 38.2192 5
      vertex 11.718 32.2788 5
      vertex 20.832 32.2788 5
    endloop
  endfacet
  facet normal 0 0 1
    outer loop
      vertex 3.71599 38.2192 5
      vertex 11.718 22.812 5
      vertex 11.718 32.2788 5
    endloop
  endfacet
  facet normal 0 0 1
    outer loop
      vertex 11.718 22.812 5
      vertex 3.71599 38.2192 5
      vertex 11.718 16.8988 5
    endloop
  endfacet
  facet normal 0 0 1
    outer loop
      vertex 3.71599 0 5
      vertex 11.718 16.8988 5
      vertex 3.71599 38.2192 5
    endloop
  endfacet
  facet normal -0 0 1
    outer loop
      vertex 3.71599 38.2192 5
      vertex 11.718 32.2788 5
      vertex 21.2116 38.2192 5
    endloop
  endfacet
  facet normal -0 0 1
    outer loop
      vertex 27.2394 28.7271 5
      vertex 35.398 28.6168 5
      vertex 35.1734 30.8452 5
    endloop
  endfacet
  facet normal 0 0 1
    outer loop
      vertex 35.398 28.6168 5
      vertex 27.342 27.532 5
      vertex 35.2852 27.0529 5
    endloop
  endfacet
  facet normal 0 0 1
    outer loop
      vertex 27.2394 28.7271 5
      vertex 35.1734 30.8452 5
      vertex 34.4995 32.7838 5
    endloop
  endfacet
  facet normal 0 0 1
    outer loop
      vertex 35.2852 27.0529 5
      vertex 27.342 27.532 5
      vertex 34.947 25.6162 5
    endloop
  endfacet
  facet normal -0 0 1
    outer loop
      vertex 27.2462 26.4257 5
      vertex 34.947 25.6162 5
      vertex 27.342 27.532 5
    endloop
  endfacet
  facet normal 0 0 1
    outer loop
      vertex 27.2394 28.7271 5
      vertex 34.4995 32.7838 5
      vertex 33.3764 34.4324 5
    endloop
  endfacet
  facet normal 0 0 1
    outer loop
      vertex 34.947 25.6162 5
      vertex 27.2462 26.4257 5
      vertex 34.3832 24.3065 5
    endloop
  endfacet
  facet normal 0 0 1
    outer loop
      vertex 27.2394 28.7271 5
      vertex 33.3764 34.4324 5
      vertex 31.804 35.7912 5
    endloop
  endfacet
  facet normal 0 0 1
    outer loop
      vertex 34.3832 24.3065 5
      vertex 27.2462 26.4257 5
      vertex 33.594 23.124 5
    endloop
  endfacet
  facet normal 0 0 1
    outer loop
      vertex 33.594 23.124 5
      vertex 27.2462 26.4257 5
      vertex 32.5744 22.0959 5
    endloop
  endfacet
  facet normal 0 0 1
    outer loop
      vertex 27.2394 28.7271 5
      vertex 31.804 35.7912 5
      vertex 29.7942 36.8534 5
    endloop
  endfacet
  facet normal -0 0 1
    outer loop
      vertex 26.9588 25.467 5
      vertex 32.5744 22.0959 5
      vertex 27.2462 26.4257 5
    endloop
  endfacet
  facet normal 0 0 1
    outer loop
      vertex 32.5744 22.0959 5
      vertex 26.9588 25.467 5
      vertex 31.3191 21.2491 5
    endloop
  endfacet
  facet normal 0 0 1
    outer loop
      vertex 25.7008 31.1936 5
      vertex 29.7942 36.8534 5
      vertex 27.3589 37.6122 5
    endloop
  endfacet
  facet normal 0 0 1
    outer loop
      vertex 31.3191 21.2491 5
      vertex 26.9588 25.467 5
      vertex 29.8282 20.5837 5
    endloop
  endfacet
  facet normal -0 0 1
    outer loop
      vertex 26.4798 24.6557 5
      vertex 29.8282 20.5837 5
      vertex 26.9588 25.467 5
    endloop
  endfacet
  facet normal 0 0 1
    outer loop
      vertex 29.8282 20.5837 5
      vertex 26.4798 24.6557 5
      vertex 28.1016 20.0996 5
    endloop
  endfacet
  facet normal -0 0 1
    outer loop
      vertex 25.8092 23.992 5
      vertex 28.1016 20.0996 5
      vertex 26.4798 24.6557 5
    endloop
  endfacet
  facet normal -0 0 1
    outer loop
      vertex 24.9269 23.4757 5
      vertex 28.1016 20.0996 5
      vertex 25.8092 23.992 5
    endloop
  endfacet
  facet normal 0 0 1
    outer loop
      vertex 28.1016 20.0996 5
      vertex 25.2331 16.5631 5
      vertex 27.6405 15.5561 5
    endloop
  endfacet
  facet normal -0 0 1
    outer loop
      vertex 23.8123 23.107 5
      vertex 28.1016 20.0996 5
      vertex 24.9269 23.4757 5
    endloop
  endfacet
  facet normal 0 0 1
    outer loop
      vertex 28.1016 20.0996 5
      vertex 23.8123 23.107 5
      vertex 25.2331 16.5631 5
    endloop
  endfacet
  facet normal 0 0 1
    outer loop
      vertex 21.8628 16.8988 5
      vertex 23.8123 23.107 5
      vertex 22.4655 22.8857 5
    endloop
  endfacet
  facet normal 0 0 1
    outer loop
      vertex 23.8123 23.107 5
      vertex 21.8628 16.8988 5
      vertex 25.2331 16.5631 5
    endloop
  endfacet
  facet normal -0 0 1
    outer loop
      vertex 20.8864 22.812 5
      vertex 21.8628 16.8988 5
      vertex 22.4655 22.8857 5
    endloop
  endfacet
  facet normal 0 0 1
    outer loop
      vertex 11.718 16.8988 5
      vertex 20.8864 22.812 5
      vertex 11.718 22.812 5
    endloop
  endfacet
  facet normal 0 0 1
    outer loop
      vertex 20.8864 22.812 5
      vertex 11.718 16.8988 5
      vertex 21.8628 16.8988 5
    endloop
  endfacet
  facet normal 0 0 1
    outer loop
      vertex 36.2297 15.9012 5
      vertex 29.0849 13.8777 5
      vertex 29.5664 11.528 5
    endloop
  endfacet
  facet normal 0 0 1
    outer loop
      vertex 27.6405 15.5561 5
      vertex 30.2826 19.7139 5
      vertex 28.1016 20.0996 5
    endloop
  endfacet
  facet normal 0 0 1
    outer loop
      vertex 32.1873 19.0994 5
      vertex 27.6405 15.5561 5
      vertex 29.0849 13.8777 5
    endloop
  endfacet
  facet normal -0 0 1
    outer loop
      vertex 29.5664 11.528 5
      vertex 37.5952 10.9044 5
      vertex 37.4435 12.7616 5
    endloop
  endfacet
  facet normal 0 0 1
    outer loop
      vertex 29.5664 11.528 5
      vertex 37.4435 12.7616 5
      vertex 36.9883 14.4272 5
    endloop
  endfacet
  facet normal 0 0 1
    outer loop
      vertex 29.4553 10.2185 5
      vertex 37.5952 10.9044 5
      vertex 29.5664 11.528 5
    endloop
  endfacet
  facet normal 0 0 1
    outer loop
      vertex 29.5664 11.528 5
      vertex 36.9883 14.4272 5
      vertex 36.2297 15.9012 5
    endloop
  endfacet
  facet normal 0 0 1
    outer loop
      vertex 37.5952 10.9044 5
      vertex 29.4553 10.2185 5
      vertex 37.3511 8.44786 5
    endloop
  endfacet
  facet normal 0 0 1
    outer loop
      vertex 29.0849 13.8777 5
      vertex 36.2297 15.9012 5
      vertex 35.1676 17.1836 5
    endloop
  endfacet
  facet normal 0 0 1
    outer loop
      vertex 29.0849 13.8777 5
      vertex 35.1676 17.1836 5
      vertex 33.8156 18.2559 5
    endloop
  endfacet
  facet normal 0 0 1
    outer loop
      vertex 37.3511 8.44786 5
      vertex 29.4553 10.2185 5
      vertex 36.6187 6.28629 5
    endloop
  endfacet
  facet normal 0 0 1
    outer loop
      vertex 29.0849 13.8777 5
      vertex 33.8156 18.2559 5
      vertex 32.1873 19.0994 5
    endloop
  endfacet
  facet normal -0 0 1
    outer loop
      vertex 29.1222 9.0835 5
      vertex 36.6187 6.28629 5
      vertex 29.4553 10.2185 5
    endloop
  endfacet
  facet normal 0 0 1
    outer loop
      vertex 27.6405 15.5561 5
      vertex 32.1873 19.0994 5
      vertex 30.2826 19.7139 5
    endloop
  endfacet
  facet normal 0 0 1
    outer loop
      vertex 36.6187 6.28629 5
      vertex 29.1222 9.0835 5
      vertex 35.3981 4.41966 5
    endloop
  endfacet
  facet normal -0 0 1
    outer loop
      vertex 28.5669 8.12306 5
      vertex 35.3981 4.41966 5
      vertex 29.1222 9.0835 5
    endloop
  endfacet
  facet normal 0 0 1
    outer loop
      vertex 35.3981 4.41966 5
      vertex 28.5669 8.12306 5
      vertex 33.6892 2.84799 5
    endloop
  endfacet
  facet normal 0 0 1
    outer loop
      vertex 33.6892 2.84799 5
      vertex 28.5669 8.12306 5
      vertex 31.5463 1.60199 5
    endloop
  endfacet
  facet normal -0 0 1
    outer loop
      vertex 27.7896 7.33719 5
      vertex 31.5463 1.60199 5
      vertex 28.5669 8.12306 5
    endloop
  endfacet
  facet normal 0 0 1
    outer loop
      vertex 31.5463 1.60199 5
      vertex 27.7896 7.33719 5
      vertex 29.0237 0.71199 5
    endloop
  endfacet
  facet normal -0 0 1
    outer loop
      vertex 26.7715 6.72609 5
      vertex 29.0237 0.71199 5
      vertex 27.7896 7.33719 5
    endloop
  endfacet
  facet normal -0 0 1
    outer loop
      vertex 25.4941 6.2896 5
      vertex 29.0237 0.71199 5
      vertex 26.7715 6.72609 5
    endloop
  endfacet
  facet normal 0 0 1
    outer loop
      vertex 29.0237 0.71199 5
      vertex 25.4941 6.2896 5
      vertex 26.1213 0.177994 5
    endloop
  endfacet
  facet normal -0 0 1
    outer loop
      vertex 23.9573 6.02769 5
      vertex 26.1213 0.177994 5
      vertex 25.4941 6.2896 5
    endloop
  endfacet
  facet normal 0 0 1
    outer loop
      vertex 23.9573 6.02769 5
      vertex 22.8392 0 5
      vertex 26.1213 0.177994 5
    endloop
  endfacet
  facet normal -0 0 1
    outer loop
      vertex 22.1612 5.9404 5
      vertex 22.8392 0 5
      vertex 23.9573 6.02769 5
    endloop
  endfacet
  facet normal -0 0 1
    outer loop
      vertex 11.718 5.9404 5
      vertex 22.8392 0 5
      vertex 22.1612 5.9404 5
    endloop
  endfacet
  facet normal 0 0 1
    outer loop
      vertex 11.718 5.9404 5
      vertex 3.71599 0 5
      vertex 22.8392 0 5
    endloop
  endfacet
  facet normal 0 0 1
    outer loop
      vertex 11.718 16.8988 5
      vertex 3.71599 0 5
      vertex 11.718 5.9404 5
    endloop
  endfacet
  facet normal 0.180947 -0.983493 0
    outer loop
      vertex 26.1213 0.177994 0
      vertex 29.0237 0.71199 5
      vertex 26.1213 0.177994 5
    endloop
  endfacet
  facet normal 0.180947 -0.983493 0
    outer loop
      vertex 29.0237 0.71199 5
      vertex 26.1213 0.177994 0
      vertex 29.0237 0.71199 0
    endloop
  endfacet
  facet normal 0.332711 -0.943029 0
    outer loop
      vertex 29.0237 0.71199 0
      vertex 31.5463 1.60199 5
      vertex 29.0237 0.71199 5
    endloop
  endfacet
  facet normal 0.332711 -0.943029 0
    outer loop
      vertex 31.5463 1.60199 5
      vertex 29.0237 0.71199 0
      vertex 31.5463 1.60199 0
    endloop
  endfacet
  facet normal 0.502659 -0.864485 0
    outer loop
      vertex 31.5463 1.60199 0
      vertex 33.6892 2.84799 5
      vertex 31.5463 1.60199 5
    endloop
  endfacet
  facet normal 0.502659 -0.864485 0
    outer loop
      vertex 33.6892 2.84799 5
      vertex 31.5463 1.60199 0
      vertex 33.6892 2.84799 0
    endloop
  endfacet
  facet normal 0.676936 -0.736042 0
    outer loop
      vertex 33.6892 2.84799 0
      vertex 35.3981 4.41966 5
      vertex 33.6892 2.84799 5
    endloop
  endfacet
  facet normal 0.676936 -0.736042 0
    outer loop
      vertex 35.3981 4.41966 5
      vertex 33.6892 2.84799 0
      vertex 35.3981 4.41966 0
    endloop
  endfacet
  facet normal 0.836947 -0.547284 0
    outer loop
      vertex 35.3981 4.41966 5
      vertex 36.6187 6.28629 0
      vertex 36.6187 6.28629 5
    endloop
  endfacet
  facet normal 0.836947 -0.547284 0
    outer loop
      vertex 36.6187 6.28629 0
      vertex 35.3981 4.41966 5
      vertex 35.3981 4.41966 0
    endloop
  endfacet
  facet normal 0.947111 -0.320907 0
    outer loop
      vertex 36.6187 6.28629 5
      vertex 37.3511 8.44786 0
      vertex 37.3511 8.44786 5
    endloop
  endfacet
  facet normal 0.947111 -0.320907 0
    outer loop
      vertex 37.3511 8.44786 0
      vertex 36.6187 6.28629 5
      vertex 36.6187 6.28629 0
    endloop
  endfacet
  facet normal 0.995099 -0.0988804 0
    outer loop
      vertex 37.3511 8.44786 5
      vertex 37.5952 10.9044 0
      vertex 37.5952 10.9044 5
    endloop
  endfacet
  facet normal 0.995099 -0.0988804 0
    outer loop
      vertex 37.5952 10.9044 0
      vertex 37.3511 8.44786 5
      vertex 37.3511 8.44786 0
    endloop
  endfacet
  facet normal 0.996681 0.081411 0
    outer loop
      vertex 37.5952 10.9044 5
      vertex 37.4435 12.7616 0
      vertex 37.4435 12.7616 5
    endloop
  endfacet
  facet normal 0.996681 0.081411 0
    outer loop
      vertex 37.4435 12.7616 0
      vertex 37.5952 10.9044 5
      vertex 37.5952 10.9044 0
    endloop
  endfacet
  facet normal 0.964625 0.263627 0
    outer loop
      vertex 37.4435 12.7616 5
      vertex 36.9883 14.4272 0
      vertex 36.9883 14.4272 5
    endloop
  endfacet
  facet normal 0.964625 0.263627 0
    outer loop
      vertex 36.9883 14.4272 0
      vertex 37.4435 12.7616 5
      vertex 37.4435 12.7616 0
    endloop
  endfacet
  facet normal 0.889155 0.457607 0
    outer loop
      vertex 36.9883 14.4272 5
      vertex 36.2297 15.9012 0
      vertex 36.2297 15.9012 5
    endloop
  endfacet
  facet normal 0.889155 0.457607 0
    outer loop
      vertex 36.2297 15.9012 0
      vertex 36.9883 14.4272 5
      vertex 36.9883 14.4272 0
    endloop
  endfacet
  facet normal 0.770157 0.637854 0
    outer loop
      vertex 36.2297 15.9012 5
      vertex 35.1676 17.1836 0
      vertex 35.1676 17.1836 5
    endloop
  endfacet
  facet normal 0.770157 0.637854 0
    outer loop
      vertex 35.1676 17.1836 0
      vertex 36.2297 15.9012 5
      vertex 36.2297 15.9012 0
    endloop
  endfacet
  facet normal 0.621403 0.783491 -0
    outer loop
      vertex 35.1676 17.1836 0
      vertex 33.8156 18.2559 5
      vertex 35.1676 17.1836 5
    endloop
  endfacet
  facet normal 0.621403 0.783491 0
    outer loop
      vertex 33.8156 18.2559 5
      vertex 35.1676 17.1836 0
      vertex 33.8156 18.2559 0
    endloop
  endfacet
  facet normal 0.459972 0.887934 -0
    outer loop
      vertex 33.8156 18.2559 0
      vertex 32.1873 19.0994 5
      vertex 33.8156 18.2559 5
    endloop
  endfacet
  facet normal 0.459972 0.887934 0
    outer loop
      vertex 32.1873 19.0994 5
      vertex 33.8156 18.2559 0
      vertex 32.1873 19.0994 0
    endloop
  endfacet
  facet normal 0.307039 0.951697 -0
    outer loop
      vertex 32.1873 19.0994 0
      vertex 30.2826 19.7139 5
      vertex 32.1873 19.0994 5
    endloop
  endfacet
  facet normal 0.307039 0.951697 0
    outer loop
      vertex 30.2826 19.7139 5
      vertex 32.1873 19.0994 0
      vertex 30.2826 19.7139 0
    endloop
  endfacet
  facet normal 0.174143 0.98472 -0
    outer loop
      vertex 30.2826 19.7139 0
      vertex 28.1016 20.0996 5
      vertex 30.2826 19.7139 5
    endloop
  endfacet
  facet normal 0.174143 0.98472 0
    outer loop
      vertex 28.1016 20.0996 5
      vertex 30.2826 19.7139 0
      vertex 28.1016 20.0996 0
    endloop
  endfacet
  facet normal 0.269967 -0.96287 0
    outer loop
      vertex 28.1016 20.0996 0
      vertex 29.8282 20.5837 5
      vertex 28.1016 20.0996 5
    endloop
  endfacet
  facet normal 0.269967 -0.96287 0
    outer loop
      vertex 29.8282 20.5837 5
      vertex 28.1016 20.0996 0
      vertex 29.8282 20.5837 0
    endloop
  endfacet
  facet normal 0.407559 -0.913179 0
    outer loop
      vertex 29.8282 20.5837 0
      vertex 31.3191 21.2491 5
      vertex 29.8282 20.5837 5
    endloop
  endfacet
  facet normal 0.407559 -0.913179 0
    outer loop
      vertex 31.3191 21.2491 5
      vertex 29.8282 20.5837 0
      vertex 31.3191 21.2491 0
    endloop
  endfacet
  facet normal 0.559234 -0.82901 0
    outer loop
      vertex 31.3191 21.2491 0
      vertex 32.5744 22.0959 5
      vertex 31.3191 21.2491 5
    endloop
  endfacet
  facet normal 0.559234 -0.82901 0
    outer loop
      vertex 32.5744 22.0959 5
      vertex 31.3191 21.2491 0
      vertex 32.5744 22.0959 0
    endloop
  endfacet
  facet normal 0.710036 -0.704166 0
    outer loop
      vertex 32.5744 22.0959 5
      vertex 33.594 23.124 0
      vertex 33.594 23.124 5
    endloop
  endfacet
  facet normal 0.710036 -0.704166 0
    outer loop
      vertex 33.594 23.124 0
      vertex 32.5744 22.0959 5
      vertex 32.5744 22.0959 0
    endloop
  endfacet
  facet normal 0.831769 -0.555122 0
    outer loop
      vertex 33.594 23.124 5
      vertex 34.3832 24.3065 0
      vertex 34.3832 24.3065 5
    endloop
  endfacet
  facet normal 0.831769 -0.555122 0
    outer loop
      vertex 34.3832 24.3065 0
      vertex 33.594 23.124 5
      vertex 33.594 23.124 0
    endloop
  endfacet
  facet normal 0.918509 -0.3954 0
    outer loop
      vertex 34.3832 24.3065 5
      vertex 34.947 25.6162 0
      vertex 34.947 25.6162 5
    endloop
  endfacet
  facet normal 0.918509 -0.3954 0
    outer loop
      vertex 34.947 25.6162 0
      vertex 34.3832 24.3065 5
      vertex 34.3832 24.3065 0
    endloop
  endfacet
  facet normal 0.973394 -0.229138 0
    outer loop
      vertex 34.947 25.6162 5
      vertex 35.2852 27.0529 0
      vertex 35.2852 27.0529 5
    endloop
  endfacet
  facet normal 0.973394 -0.229138 0
    outer loop
      vertex 35.2852 27.0529 0
      vertex 34.947 25.6162 5
      vertex 34.947 25.6162 0
    endloop
  endfacet
  facet normal 0.997409 -0.0719405 0
    outer loop
      vertex 35.2852 27.0529 5
      vertex 35.398 28.6168 0
      vertex 35.398 28.6168 5
    endloop
  endfacet
  facet normal 0.997409 -0.0719405 0
    outer loop
      vertex 35.398 28.6168 0
      vertex 35.2852 27.0529 5
      vertex 35.2852 27.0529 0
    endloop
  endfacet
  facet normal 0.994959 0.100282 0
    outer loop
      vertex 35.398 28.6168 5
      vertex 35.1734 30.8452 0
      vertex 35.1734 30.8452 5
    endloop
  endfacet
  facet normal 0.994959 0.100282 0
    outer loop
      vertex 35.1734 30.8452 0
      vertex 35.398 28.6168 5
      vertex 35.398 28.6168 0
    endloop
  endfacet
  facet normal 0.944557 0.328349 0
    outer loop
      vertex 35.1734 30.8452 5
      vertex 34.4995 32.7838 0
      vertex 34.4995 32.7838 5
    endloop
  endfacet
  facet normal 0.944557 0.328349 0
    outer loop
      vertex 34.4995 32.7838 0
      vertex 35.1734 30.8452 5
      vertex 35.1734 30.8452 0
    endloop
  endfacet
  facet normal 0.826448 0.563013 0
    outer loop
      vertex 34.4995 32.7838 5
      vertex 33.3764 34.4324 0
      vertex 33.3764 34.4324 5
    endloop
  endfacet
  facet normal 0.826448 0.563013 0
    outer loop
      vertex 33.3764 34.4324 0
      vertex 34.4995 32.7838 5
      vertex 34.4995 32.7838 0
    endloop
  endfacet
  facet normal 0.653845 0.756628 -0
    outer loop
      vertex 33.3764 34.4324 0
      vertex 31.804 35.7912 5
      vertex 33.3764 34.4324 5
    endloop
  endfacet
  facet normal 0.653845 0.756628 0
    outer loop
      vertex 31.804 35.7912 5
      vertex 33.3764 34.4324 0
      vertex 31.804 35.7912 0
    endloop
  endfacet
  facet normal 0.467265 0.884117 -0
    outer loop
      vertex 31.804 35.7912 0
      vertex 29.7942 36.8534 5
      vertex 31.804 35.7912 5
    endloop
  endfacet
  facet normal 0.467265 0.884117 0
    outer loop
      vertex 29.7942 36.8534 5
      vertex 31.804 35.7912 0
      vertex 29.7942 36.8534 0
    endloop
  endfacet
  facet normal 0.297478 0.954729 -0
    outer loop
      vertex 29.7942 36.8534 0
      vertex 27.3589 37.6122 5
      vertex 29.7942 36.8534 5
    endloop
  endfacet
  facet normal 0.297478 0.954729 0
    outer loop
      vertex 27.3589 37.6122 5
      vertex 29.7942 36.8534 0
      vertex 27.3589 37.6122 0
    endloop
  endfacet
  facet normal 0.157134 0.987577 -0
    outer loop
      vertex 27.3589 37.6122 0
      vertex 24.498 38.0674 5
      vertex 27.3589 37.6122 5
    endloop
  endfacet
  facet normal 0.157134 0.987577 0
    outer loop
      vertex 24.498 38.0674 5
      vertex 27.3589 37.6122 0
      vertex 24.498 38.0674 0
    endloop
  endfacet
  facet normal 0.0461412 0.998935 -0
    outer loop
      vertex 24.498 38.0674 0
      vertex 21.2116 38.2192 5
      vertex 24.498 38.0674 5
    endloop
  endfacet
  facet normal 0.0461412 0.998935 0
    outer loop
      vertex 21.2116 38.2192 5
      vertex 24.498 38.0674 0
      vertex 21.2116 38.2192 0
    endloop
  endfacet
  facet normal 0 1 -0
    outer loop
      vertex 21.2116 38.2192 0
      vertex 3.71599 38.2192 5
      vertex 21.2116 38.2192 5
    endloop
  endfacet
  facet normal 0 1 0
    outer loop
      vertex 3.71599 38.2192 5
      vertex 21.2116 38.2192 0
      vertex 3.71599 38.2192 0
    endloop
  endfacet
  facet normal -1 0 0
    outer loop
      vertex 3.71599 0 0
      vertex 3.71599 38.2192 5
      vertex 3.71599 38.2192 0
    endloop
  endfacet
  facet normal -1 -0 0
    outer loop
      vertex 3.71599 38.2192 5
      vertex 3.71599 0 0
      vertex 3.71599 0 5
    endloop
  endfacet
  facet normal 0 -1 0
    outer loop
      vertex 3.71599 0 0
      vertex 22.8392 0 5
      vertex 3.71599 0 5
    endloop
  endfacet
  facet normal 0 -1 -0
    outer loop
      vertex 22.8392 0 5
      vertex 3.71599 0 0
      vertex 22.8392 0 0
    endloop
  endfacet
  facet normal 0.0541522 -0.998533 0
    outer loop
      vertex 22.8392 0 0
      vertex 26.1213 0.177994 5
      vertex 22.8392 0 5
    endloop
  endfacet
  facet normal 0.0541522 -0.998533 0
    outer loop
      vertex 26.1213 0.177994 5
      vertex 22.8392 0 0
      vertex 26.1213 0.177994 0
    endloop
  endfacet
  facet normal 1 -0 0
    outer loop
      vertex 11.718 22.812 5
      vertex 11.718 32.2788 0
      vertex 11.718 32.2788 5
    endloop
  endfacet
  facet normal 1 0 0
    outer loop
      vertex 11.718 32.2788 0
      vertex 11.718 22.812 5
      vertex 11.718 22.812 0
    endloop
  endfacet
  facet normal 0 -1 0
    outer loop
      vertex 11.718 32.2788 0
      vertex 20.832 32.2788 5
      vertex 11.718 32.2788 5
    endloop
  endfacet
  facet normal 0 -1 -0
    outer loop
      vertex 20.832 32.2788 5
      vertex 11.718 32.2788 0
      vertex 20.832 32.2788 0
    endloop
  endfacet
  facet normal -0.0447136 -0.999 0
    outer loop
      vertex 20.832 32.2788 0
      vertex 22.3468 32.211 5
      vertex 20.832 32.2788 5
    endloop
  endfacet
  facet normal -0.0447136 -0.999 -0
    outer loop
      vertex 22.3468 32.211 5
      vertex 20.832 32.2788 0
      vertex 22.3468 32.211 0
    endloop
  endfacet
  facet normal -0.152774 -0.988261 0
    outer loop
      vertex 22.3468 32.211 0
      vertex 23.6632 32.0075 5
      vertex 22.3468 32.211 5
    endloop
  endfacet
  facet normal -0.152774 -0.988261 -0
    outer loop
      vertex 23.6632 32.0075 5
      vertex 22.3468 32.211 0
      vertex 23.6632 32.0075 0
    endloop
  endfacet
  facet normal -0.290252 -0.95695 0
    outer loop
      vertex 23.6632 32.0075 0
      vertex 24.7812 31.6684 5
      vertex 23.6632 32.0075 5
    endloop
  endfacet
  facet normal -0.290252 -0.95695 -0
    outer loop
      vertex 24.7812 31.6684 5
      vertex 23.6632 32.0075 0
      vertex 24.7812 31.6684 0
    endloop
  endfacet
  facet normal -0.458771 -0.888555 0
    outer loop
      vertex 24.7812 31.6684 0
      vertex 25.7008 31.1936 5
      vertex 24.7812 31.6684 5
    endloop
  endfacet
  facet normal -0.458771 -0.888555 -0
    outer loop
      vertex 25.7008 31.1936 5
      vertex 24.7812 31.6684 0
      vertex 25.7008 31.1936 0
    endloop
  endfacet
  facet normal -0.662893 -0.748714 0
    outer loop
      vertex 25.7008 31.1936 0
      vertex 26.4188 30.5579 5
      vertex 25.7008 31.1936 5
    endloop
  endfacet
  facet normal -0.662893 -0.748714 -0
    outer loop
      vertex 26.4188 30.5579 5
      vertex 25.7008 31.1936 0
      vertex 26.4188 30.5579 0
    endloop
  endfacet
  facet normal -0.848421 -0.529322 0
    outer loop
      vertex 26.9317 29.7358 0
      vertex 26.4188 30.5579 5
      vertex 26.4188 30.5579 0
    endloop
  endfacet
  facet normal -0.848421 -0.529322 0
    outer loop
      vertex 26.4188 30.5579 5
      vertex 26.9317 29.7358 0
      vertex 26.9317 29.7358 5
    endloop
  endfacet
  facet normal -0.956488 -0.291773 0
    outer loop
      vertex 27.2394 28.7271 0
      vertex 26.9317 29.7358 5
      vertex 26.9317 29.7358 0
    endloop
  endfacet
  facet normal -0.956488 -0.291773 0
    outer loop
      vertex 26.9317 29.7358 5
      vertex 27.2394 28.7271 0
      vertex 27.2394 28.7271 5
    endloop
  endfacet
  facet normal -0.996335 -0.0855359 0
    outer loop
      vertex 27.342 27.532 0
      vertex 27.2394 28.7271 5
      vertex 27.2394 28.7271 0
    endloop
  endfacet
  facet normal -0.996335 -0.0855359 0
    outer loop
      vertex 27.2394 28.7271 5
      vertex 27.342 27.532 0
      vertex 27.342 27.532 5
    endloop
  endfacet
  facet normal -0.996272 0.0862721 0
    outer loop
      vertex 27.2462 26.4257 0
      vertex 27.342 27.532 5
      vertex 27.342 27.532 0
    endloop
  endfacet
  facet normal -0.996272 0.0862721 0
    outer loop
      vertex 27.342 27.532 5
      vertex 27.2462 26.4257 0
      vertex 27.2462 26.4257 5
    endloop
  endfacet
  facet normal -0.957884 0.287155 0
    outer loop
      vertex 26.9588 25.467 0
      vertex 27.2462 26.4257 5
      vertex 27.2462 26.4257 0
    endloop
  endfacet
  facet normal -0.957884 0.287155 0
    outer loop
      vertex 27.2462 26.4257 5
      vertex 26.9588 25.467 0
      vertex 26.9588 25.467 5
    endloop
  endfacet
  facet normal -0.861115 0.508411 0
    outer loop
      vertex 26.4798 24.6557 0
      vertex 26.9588 25.467 5
      vertex 26.9588 25.467 0
    endloop
  endfacet
  facet normal -0.861115 0.508411 0
    outer loop
      vertex 26.9588 25.467 5
      vertex 26.4798 24.6557 0
      vertex 26.4798 24.6557 5
    endloop
  endfacet
  facet normal -0.703441 0.710754 0
    outer loop
      vertex 26.4798 24.6557 0
      vertex 25.8092 23.992 5
      vertex 26.4798 24.6557 5
    endloop
  endfacet
  facet normal -0.703441 0.710754 0
    outer loop
      vertex 25.8092 23.992 5
      vertex 26.4798 24.6557 0
      vertex 25.8092 23.992 0
    endloop
  endfacet
  facet normal -0.505057 0.863086 0
    outer loop
      vertex 25.8092 23.992 0
      vertex 24.9269 23.4757 5
      vertex 25.8092 23.992 5
    endloop
  endfacet
  facet normal -0.505057 0.863086 0
    outer loop
      vertex 24.9269 23.4757 5
      vertex 25.8092 23.992 0
      vertex 24.9269 23.4757 0
    endloop
  endfacet
  facet normal -0.314055 0.949405 0
    outer loop
      vertex 24.9269 23.4757 0
      vertex 23.8123 23.107 5
      vertex 24.9269 23.4757 5
    endloop
  endfacet
  facet normal -0.314055 0.949405 0
    outer loop
      vertex 23.8123 23.107 5
      vertex 24.9269 23.4757 0
      vertex 23.8123 23.107 0
    endloop
  endfacet
  facet normal -0.162141 0.986768 0
    outer loop
      vertex 23.8123 23.107 0
      vertex 22.4655 22.8857 5
      vertex 23.8123 23.107 5
    endloop
  endfacet
  facet normal -0.162141 0.986768 0
    outer loop
      vertex 22.4655 22.8857 5
      vertex 23.8123 23.107 0
      vertex 22.4655 22.8857 0
    endloop
  endfacet
  facet normal -0.0466214 0.998913 0
    outer loop
      vertex 22.4655 22.8857 0
      vertex 20.8864 22.812 5
      vertex 22.4655 22.8857 5
    endloop
  endfacet
  facet normal -0.0466214 0.998913 0
    outer loop
      vertex 20.8864 22.812 5
      vertex 22.4655 22.8857 0
      vertex 20.8864 22.812 0
    endloop
  endfacet
  facet normal 0 1 -0
    outer loop
      vertex 20.8864 22.812 0
      vertex 11.718 22.812 5
      vertex 20.8864 22.812 5
    endloop
  endfacet
  facet normal 0 1 0
    outer loop
      vertex 11.718 22.812 5
      vertex 20.8864 22.812 0
      vertex 11.718 22.812 0
    endloop
  endfacet
  facet normal 1 -0 0
    outer loop
      vertex 11.718 5.9404 5
      vertex 11.718 16.8988 0
      vertex 11.718 16.8988 5
    endloop
  endfacet
  facet normal 1 0 0
    outer loop
      vertex 11.718 16.8988 0
      vertex 11.718 5.9404 5
      vertex 11.718 5.9404 0
    endloop
  endfacet
  facet normal 0 -1 0
    outer loop
      vertex 11.718 16.8988 0
      vertex 21.8628 16.8988 5
      vertex 11.718 16.8988 5
    endloop
  endfacet
  facet normal 0 -1 -0
    outer loop
      vertex 21.8628 16.8988 5
      vertex 11.718 16.8988 0
      vertex 21.8628 16.8988 0
    endloop
  endfacet
  facet normal -0.0991149 -0.995076 0
    outer loop
      vertex 21.8628 16.8988 0
      vertex 25.2331 16.5631 5
      vertex 21.8628 16.8988 5
    endloop
  endfacet
  facet normal -0.0991149 -0.995076 -0
    outer loop
      vertex 25.2331 16.5631 5
      vertex 21.8628 16.8988 0
      vertex 25.2331 16.5631 0
    endloop
  endfacet
  facet normal -0.385894 -0.922543 0
    outer loop
      vertex 25.2331 16.5631 0
      vertex 27.6405 15.5561 5
      vertex 25.2331 16.5631 5
    endloop
  endfacet
  facet normal -0.385894 -0.922543 -0
    outer loop
      vertex 27.6405 15.5561 5
      vertex 25.2331 16.5631 0
      vertex 27.6405 15.5561 0
    endloop
  endfacet
  facet normal -0.757967 -0.652293 0
    outer loop
      vertex 29.0849 13.8777 0
      vertex 27.6405 15.5561 5
      vertex 27.6405 15.5561 0
    endloop
  endfacet
  facet normal -0.757967 -0.652293 0
    outer loop
      vertex 27.6405 15.5561 5
      vertex 29.0849 13.8777 0
      vertex 29.0849 13.8777 5
    endloop
  endfacet
  facet normal -0.979643 -0.200748 0
    outer loop
      vertex 29.5664 11.528 0
      vertex 29.0849 13.8777 5
      vertex 29.0849 13.8777 0
    endloop
  endfacet
  facet normal -0.979643 -0.200748 0
    outer loop
      vertex 29.0849 13.8777 5
      vertex 29.5664 11.528 0
      vertex 29.5664 11.528 5
    endloop
  endfacet
  facet normal -0.99642 0.0845378 0
    outer loop
      vertex 29.4553 10.2185 0
      vertex 29.5664 11.528 5
      vertex 29.5664 11.528 0
    endloop
  endfacet
  facet normal -0.99642 0.0845378 0
    outer loop
      vertex 29.5664 11.528 5
      vertex 29.4553 10.2185 0
      vertex 29.4553 10.2185 5
    endloop
  endfacet
  facet normal -0.959531 0.281603 0
    outer loop
      vertex 29.1222 9.0835 0
      vertex 29.4553 10.2185 5
      vertex 29.4553 10.2185 0
    endloop
  endfacet
  facet normal -0.959531 0.281603 0
    outer loop
      vertex 29.4553 10.2185 5
      vertex 29.1222 9.0835 0
      vertex 29.1222 9.0835 5
    endloop
  endfacet
  facet normal -0.865717 0.500534 0
    outer loop
      vertex 28.5669 8.12306 0
      vertex 29.1222 9.0835 5
      vertex 29.1222 9.0835 0
    endloop
  endfacet
  facet normal -0.865717 0.500534 0
    outer loop
      vertex 29.1222 9.0835 5
      vertex 28.5669 8.12306 0
      vertex 28.5669 8.12306 5
    endloop
  endfacet
  facet normal -0.710973 0.70322 0
    outer loop
      vertex 27.7896 7.33719 0
      vertex 28.5669 8.12306 5
      vertex 28.5669 8.12306 0
    endloop
  endfacet
  facet normal -0.710973 0.70322 0
    outer loop
      vertex 28.5669 8.12306 5
      vertex 27.7896 7.33719 0
      vertex 27.7896 7.33719 5
    endloop
  endfacet
  facet normal -0.514644 0.857404 0
    outer loop
      vertex 27.7896 7.33719 0
      vertex 26.7715 6.72609 5
      vertex 27.7896 7.33719 5
    endloop
  endfacet
  facet normal -0.514644 0.857404 0
    outer loop
      vertex 26.7715 6.72609 5
      vertex 27.7896 7.33719 0
      vertex 26.7715 6.72609 0
    endloop
  endfacet
  facet normal -0.323346 0.946281 0
    outer loop
      vertex 26.7715 6.72609 0
      vertex 25.4941 6.2896 5
      vertex 26.7715 6.72609 5
    endloop
  endfacet
  facet normal -0.323346 0.946281 0
    outer loop
      vertex 25.4941 6.2896 5
      vertex 26.7715 6.72609 0
      vertex 25.4941 6.2896 0
    endloop
  endfacet
  facet normal -0.168003 0.985786 0
    outer loop
      vertex 25.4941 6.2896 0
      vertex 23.9573 6.02769 5
      vertex 25.4941 6.2896 5
    endloop
  endfacet
  facet normal -0.168003 0.985786 0
    outer loop
      vertex 23.9573 6.02769 5
      vertex 25.4941 6.2896 0
      vertex 23.9573 6.02769 0
    endloop
  endfacet
  facet normal -0.0485425 0.998821 0
    outer loop
      vertex 23.9573 6.02769 0
      vertex 22.1612 5.9404 5
      vertex 23.9573 6.02769 5
    endloop
  endfacet
  facet normal -0.0485425 0.998821 0
    outer loop
      vertex 22.1612 5.9404 5
      vertex 23.9573 6.02769 0
      vertex 22.1612 5.9404 0
    endloop
  endfacet
  facet normal 0 1 -0
    outer loop
      vertex 22.1612 5.9404 0
      vertex 11.718 5.9404 5
      vertex 22.1612 5.9404 5
    endloop
  endfacet
  facet normal 0 1 0
    outer loop
      vertex 11.718 5.9404 5
      vertex 22.1612 5.9404 0
      vertex 11.718 5.9404 0
    endloop
  endfacet
endsolid OpenSCAD_Model
