solid OpenSCAD_Model
  facet normal 0 0 -1
    outer loop
      vertex 11.3924 0 0
      vertex 3.9332 0 0
      vertex 11.3924 31.3024 0
    endloop
  endfacet
  facet normal 0 0 -1
    outer loop
      vertex 26.9892 0 0
      vertex 23.398 5.265 0
      vertex 24.398 6.265 0
    endloop
  endfacet
  facet normal 0 0 -1
    outer loop
      vertex 19.2588 0 0
      vertex 23.398 5.265 0
      vertex 26.9892 0 0
    endloop
  endfacet
  facet normal -0 0 -1
    outer loop
      vertex 23.398 5.265 0
      vertex 19.2588 0 0
      vertex 22.398 6.265 0
    endloop
  endfacet
  facet normal 0 0 -1
    outer loop
      vertex 34.8828 31.3024 0
      vertex 42.342 0 0
      vertex 34.8828 0 0
    endloop
  endfacet
  facet normal 0 0 -1
    outer loop
      vertex 42.342 0 0
      vertex 34.8828 31.3024 0
      vertex 42.342 39.7652 0
    endloop
  endfacet
  facet normal 0 0 -1
    outer loop
      vertex 34.8828 31.3024 0
      vertex 30.2988 39.7652 0
      vertex 42.342 39.7652 0
    endloop
  endfacet
  facet normal 0 0 -1
    outer loop
      vertex 24.398 6.265 0
      vertex 34.8828 31.3024 0
      vertex 26.9892 0 0
    endloop
  endfacet
  facet normal 0 0 -1
    outer loop
      vertex 34.8828 31.3024 0
      vertex 24.398 6.265 0
      vertex 23.1648 12.6404 0
    endloop
  endfacet
  facet normal 0 0 -1
    outer loop
      vertex 23.1648 12.6404 0
      vertex 24.398 6.265 0
      vertex 23.398 7.265 0
    endloop
  endfacet
  facet normal -0 0 -1
    outer loop
      vertex 34.8828 31.3024 0
      vertex 23.1648 12.6404 0
      vertex 30.2988 39.7652 0
    endloop
  endfacet
  facet normal 0 0 -1
    outer loop
      vertex 22.398 6.265 0
      vertex 23.1648 12.6404 0
      vertex 23.398 7.265 0
    endloop
  endfacet
  facet normal 0 0 -1
    outer loop
      vertex 19.2588 0 0
      vertex 23.1648 12.6404 0
      vertex 22.398 6.265 0
    endloop
  endfacet
  facet normal 0 0 -1
    outer loop
      vertex 11.3924 31.3024 0
      vertex 23.1648 12.6404 0
      vertex 19.2588 0 0
    endloop
  endfacet
  facet normal 0 0 -1
    outer loop
      vertex 23.1648 12.6404 0
      vertex 11.3924 31.3024 0
      vertex 15.9496 39.7652 0
    endloop
  endfacet
  facet normal 0 0 -1
    outer loop
      vertex 11.3924 31.3024 0
      vertex 3.9332 39.7652 0
      vertex 15.9496 39.7652 0
    endloop
  endfacet
  facet normal 0 0 -1
    outer loop
      vertex 3.9332 39.7652 0
      vertex 11.3924 31.3024 0
      vertex 3.9332 0 0
    endloop
  endfacet
  facet normal 0 0 1
    outer loop
      vertex 42.342 39.7652 5
      vertex 34.8828 31.3024 5
      vertex 42.342 0 5
    endloop
  endfacet
  facet normal -0 0 1
    outer loop
      vertex 30.2988 39.7652 5
      vertex 34.8828 31.3024 5
      vertex 42.342 39.7652 5
    endloop
  endfacet
  facet normal 0 0 1
    outer loop
      vertex 23.1648 12.6404 5
      vertex 34.8828 31.3024 5
      vertex 30.2988 39.7652 5
    endloop
  endfacet
  facet normal 0 0 1
    outer loop
      vertex 34.8828 31.3024 5
      vertex 23.1648 12.6404 5
      vertex 26.9892 0 5
    endloop
  endfacet
  facet normal 0 0 1
    outer loop
      vertex 23.1648 12.6404 5
      vertex 19.2588 0 5
      vertex 26.9892 0 5
    endloop
  endfacet
  facet normal -0 0 1
    outer loop
      vertex 11.3924 31.3024 5
      vertex 23.1648 12.6404 5
      vertex 15.9496 39.7652 5
    endloop
  endfacet
  facet normal 0 0 1
    outer loop
      vertex 23.1648 12.6404 5
      vertex 11.3924 31.3024 5
      vertex 19.2588 0 5
    endloop
  endfacet
  facet normal -0 0 1
    outer loop
      vertex 3.9332 39.7652 5
      vertex 11.3924 31.3024 5
      vertex 15.9496 39.7652 5
    endloop
  endfacet
  facet normal 0 0 1
    outer loop
      vertex 3.9332 0 5
      vertex 11.3924 31.3024 5
      vertex 3.9332 39.7652 5
    endloop
  endfacet
  facet normal 0 0 1
    outer loop
      vertex 11.3924 31.3024 5
      vertex 3.9332 0 5
      vertex 11.3924 0 5
    endloop
  endfacet
  facet normal 0 0 1
    outer loop
      vertex 42.342 0 5
      vertex 34.8828 31.3024 5
      vertex 34.8828 0 5
    endloop
  endfacet
  facet normal -0.969844 -0.243725 0
    outer loop
      vertex 19.2588 0 0
      vertex 11.3924 31.3024 5
      vertex 11.3924 31.3024 0
    endloop
  endfacet
  facet normal -0.969844 -0.243725 0
    outer loop
      vertex 11.3924 31.3024 5
      vertex 19.2588 0 0
      vertex 19.2588 0 5
    endloop
  endfacet
  facet normal 0 -1 0
    outer loop
      vertex 19.2588 0 0
      vertex 26.9892 0 5
      vertex 19.2588 0 5
    endloop
  endfacet
  facet normal 0 -1 -0
    outer loop
      vertex 26.9892 0 5
      vertex 19.2588 0 0
      vertex 26.9892 0 0
    endloop
  endfacet
  facet normal 0.969645 -0.244518 0
    outer loop
      vertex 26.9892 0 5
      vertex 34.8828 31.3024 0
      vertex 34.8828 31.3024 5
    endloop
  endfacet
  facet normal 0.969645 -0.244518 0
    outer loop
      vertex 34.8828 31.3024 0
      vertex 26.9892 0 5
      vertex 26.9892 0 0
    endloop
  endfacet
  facet normal -1 0 0
    outer loop
      vertex 34.8828 0 0
      vertex 34.8828 31.3024 5
      vertex 34.8828 31.3024 0
    endloop
  endfacet
  facet normal -1 -0 0
    outer loop
      vertex 34.8828 31.3024 5
      vertex 34.8828 0 0
      vertex 34.8828 0 5
    endloop
  endfacet
  facet normal 0 -1 0
    outer loop
      vertex 34.8828 0 0
      vertex 42.342 0 5
      vertex 34.8828 0 5
    endloop
  endfacet
  facet normal 0 -1 -0
    outer loop
      vertex 42.342 0 5
      vertex 34.8828 0 0
      vertex 42.342 0 0
    endloop
  endfacet
  facet normal 1 -0 0
    outer loop
      vertex 42.342 0 5
      vertex 42.342 39.7652 0
      vertex 42.342 39.7652 5
    endloop
  endfacet
  facet normal 1 0 0
    outer loop
      vertex 42.342 39.7652 0
      vertex 42.342 0 5
      vertex 42.342 0 0
    endloop
  endfacet
  facet normal 0 1 -0
    outer loop
      vertex 42.342 39.7652 0
      vertex 30.2988 39.7652 5
      vertex 42.342 39.7652 5
    endloop
  endfacet
  facet normal 0 1 0
    outer loop
      vertex 30.2988 39.7652 5
      vertex 42.342 39.7652 0
      vertex 30.2988 39.7652 0
    endloop
  endfacet
  facet normal -0.967111 0.254356 0
    outer loop
      vertex 23.1648 12.6404 0
      vertex 30.2988 39.7652 5
      vertex 30.2988 39.7652 0
    endloop
  endfacet
  facet normal -0.967111 0.254356 0
    outer loop
      vertex 30.2988 39.7652 5
      vertex 23.1648 12.6404 0
      vertex 23.1648 12.6404 5
    endloop
  endfacet
  facet normal 0.966395 0.257061 0
    outer loop
      vertex 23.1648 12.6404 5
      vertex 15.9496 39.7652 0
      vertex 15.9496 39.7652 5
    endloop
  endfacet
  facet normal 0.966395 0.257061 0
    outer loop
      vertex 15.9496 39.7652 0
      vertex 23.1648 12.6404 5
      vertex 23.1648 12.6404 0
    endloop
  endfacet
  facet normal 0 1 -0
    outer loop
      vertex 15.9496 39.7652 0
      vertex 3.9332 39.7652 5
      vertex 15.9496 39.7652 5
    endloop
  endfacet
  facet normal 0 1 0
    outer loop
      vertex 3.9332 39.7652 5
      vertex 15.9496 39.7652 0
      vertex 3.9332 39.7652 0
    endloop
  endfacet
  facet normal -1 0 0
    outer loop
      vertex 3.9332 0 0
      vertex 3.9332 39.7652 5
      vertex 3.9332 39.7652 0
    endloop
  endfacet
  facet normal -1 -0 0
    outer loop
      vertex 3.9332 39.7652 5
      vertex 3.9332 0 0
      vertex 3.9332 0 5
    endloop
  endfacet
  facet normal 0 -1 0
    outer loop
      vertex 3.9332 0 0
      vertex 11.3924 0 5
      vertex 3.9332 0 5
    endloop
  endfacet
  facet normal 0 -1 -0
    outer loop
      vertex 11.3924 0 5
      vertex 3.9332 0 0
      vertex 11.3924 0 0
    endloop
  endfacet
  facet normal 1 -0 0
    outer loop
      vertex 11.3924 0 5
      vertex 11.3924 31.3024 0
      vertex 11.3924 31.3024 5
    endloop
  endfacet
  facet normal 1 0 0
    outer loop
      vertex 11.3924 31.3024 0
      vertex 11.3924 0 5
      vertex 11.3924 0 0
    endloop
  endfacet
  facet normal 0.707107 -0.707107 0
    outer loop
      vertex 22.398 6.265 2
      vertex 23.398 7.265 0
      vertex 23.398 7.265 2
    endloop
  endfacet
  facet normal 0.707107 -0.707107 0
    outer loop
      vertex 23.398 7.265 0
      vertex 22.398 6.265 2
      vertex 22.398 6.265 0
    endloop
  endfacet
  facet normal -0.707107 -0.707107 0
    outer loop
      vertex 24.398 6.265 0
      vertex 23.398 7.265 2
      vertex 23.398 7.265 0
    endloop
  endfacet
  facet normal -0.707107 -0.707107 0
    outer loop
      vertex 23.398 7.265 2
      vertex 24.398 6.265 0
      vertex 24.398 6.265 2
    endloop
  endfacet
  facet normal 0 0 -1
    outer loop
      vertex 23.398 5.265 2
      vertex 23.398 7.265 2
      vertex 24.398 6.265 2
    endloop
  endfacet
  facet normal 0 -0 -1
    outer loop
      vertex 23.398 7.265 2
      vertex 23.398 5.265 2
      vertex 22.398 6.265 2
    endloop
  endfacet
  facet normal 0.707107 0.707107 0
    outer loop
      vertex 23.398 5.265 2
      vertex 22.398 6.265 0
      vertex 22.398 6.265 2
    endloop
  endfacet
  facet normal 0.707107 0.707107 0
    outer loop
      vertex 22.398 6.265 0
      vertex 23.398 5.265 2
      vertex 23.398 5.265 0
    endloop
  endfacet
  facet normal -0.707107 0.707107 0
    outer loop
      vertex 23.398 5.265 0
      vertex 24.398 6.265 2
      vertex 24.398 6.265 0
    endloop
  endfacet
  facet normal -0.707107 0.707107 0
    outer loop
      vertex 24.398 6.265 2
      vertex 23.398 5.265 0
      vertex 23.398 5.265 2
    endloop
  endfacet
endsolid OpenSCAD_Model
