solid OpenSCAD_Model
  facet normal 0 0 -1
    outer loop
      vertex 37.724 -3.34309 0
      vertex 42.4776 1.68159 0
      vertex 39.5212 -3.9872 0
    endloop
  endfacet
  facet normal -0 0 -1
    outer loop
      vertex 42.4776 1.68159 0
      vertex 37.724 -3.34309 0
      vertex 39.1345 3.1465 0
    endloop
  endfacet
  facet normal 0 0 -1
    outer loop
      vertex 35.9676 -2.49559 0
      vertex 39.1345 3.1465 0
      vertex 37.724 -3.34309 0
    endloop
  endfacet
  facet normal 0 0 -1
    outer loop
      vertex 34.4419 -1.519 0
      vertex 39.1345 3.1465 0
      vertex 35.9676 -2.49559 0
    endloop
  endfacet
  facet normal 0 0 -1
    outer loop
      vertex 32.4923 16.7362 0
      vertex 40.9588 19.8828 0
      vertex 40.5994 15.0408 0
    endloop
  endfacet
  facet normal 0 0 -1
    outer loop
      vertex 31.9124 13.9692 0
      vertex 40.5994 15.0408 0
      vertex 39.5212 10.8228 0
    endloop
  endfacet
  facet normal 0 0 -1
    outer loop
      vertex 30.9462 11.5823 0
      vertex 39.5212 10.8228 0
      vertex 38.1106 7.8866 0
    endloop
  endfacet
  facet normal 0 0 -1
    outer loop
      vertex 30.9462 11.5823 0
      vertex 38.1106 7.8866 0
      vertex 36.0492 5.0452 0
    endloop
  endfacet
  facet normal -0 0 -1
    outer loop
      vertex 40.9588 19.8828 0
      vertex 32.4923 16.7362 0
      vertex 32.6856 19.8828 0
    endloop
  endfacet
  facet normal -0 0 -1
    outer loop
      vertex 39.1345 3.1465 0
      vertex 34.4419 -1.519 0
      vertex 36.0492 5.0452 0
    endloop
  endfacet
  facet normal 0 0 -1
    outer loop
      vertex 30.624 1.03079 0
      vertex 36.0492 5.0452 0
      vertex 34.4419 -1.519 0
    endloop
  endfacet
  facet normal 0 0 -1
    outer loop
      vertex 40.9588 19.8828 0
      vertex 31.9261 25.901 0
      vertex 39.6636 28.5388 0
    endloop
  endfacet
  facet normal -0 0 -1
    outer loop
      vertex 39.6636 28.5388 0
      vertex 31.9261 25.901 0
      vertex 35.778 35.0316 0
    endloop
  endfacet
  facet normal 0 0 -1
    outer loop
      vertex 29.6476 30.1764 0
      vertex 35.778 35.0316 0
      vertex 31.9261 25.901 0
    endloop
  endfacet
  facet normal -0 0 -1
    outer loop
      vertex 35.778 35.0316 0
      vertex 29.6476 30.1764 0
      vertex 29.6817 39.0903 0
    endloop
  endfacet
  facet normal 0 0 -1
    outer loop
      vertex 26.1417 32.7297 0
      vertex 29.6817 39.0903 0
      vertex 29.6476 30.1764 0
    endloop
  endfacet
  facet normal 0 0 -1
    outer loop
      vertex 22.878 36.7082 0
      vertex 29.6817 39.0903 0
      vertex 26.1417 32.7297 0
    endloop
  endfacet
  facet normal 0 0 -1
    outer loop
      vertex 22.878 36.8338 0
      vertex 29.6817 39.0903 0
      vertex 22.88 36.771 0
    endloop
  endfacet
  facet normal 0 0 -1
    outer loop
      vertex 22.8721 36.8963 0
      vertex 29.6817 39.0903 0
      vertex 22.878 36.8338 0
    endloop
  endfacet
  facet normal 0 0 -1
    outer loop
      vertex 22.8623 36.9584 0
      vertex 29.6817 39.0903 0
      vertex 22.8721 36.8963 0
    endloop
  endfacet
  facet normal 0 0 -1
    outer loop
      vertex 22.8486 37.0197 0
      vertex 29.6817 39.0903 0
      vertex 22.8623 36.9584 0
    endloop
  endfacet
  facet normal 0 0 -1
    outer loop
      vertex 22.8311 37.08 0
      vertex 29.6817 39.0903 0
      vertex 22.8486 37.0197 0
    endloop
  endfacet
  facet normal 0 0 -1
    outer loop
      vertex 22.8098 37.1391 0
      vertex 29.6817 39.0903 0
      vertex 22.8311 37.08 0
    endloop
  endfacet
  facet normal 0 0 -1
    outer loop
      vertex 22.7848 37.1968 0
      vertex 29.6817 39.0903 0
      vertex 22.8098 37.1391 0
    endloop
  endfacet
  facet normal 0 0 -1
    outer loop
      vertex 22.7563 37.2528 0
      vertex 29.6817 39.0903 0
      vertex 22.7848 37.1968 0
    endloop
  endfacet
  facet normal 0 0 -1
    outer loop
      vertex 22.7243 37.3068 0
      vertex 29.6817 39.0903 0
      vertex 22.7563 37.2528 0
    endloop
  endfacet
  facet normal 0 0 -1
    outer loop
      vertex 22.689 37.3588 0
      vertex 29.6817 39.0903 0
      vertex 22.7243 37.3068 0
    endloop
  endfacet
  facet normal 0 0 -1
    outer loop
      vertex 22.6505 37.4084 0
      vertex 29.6817 39.0903 0
      vertex 22.689 37.3588 0
    endloop
  endfacet
  facet normal 0 0 -1
    outer loop
      vertex 21.7544 40.4432 0
      vertex 22.6505 37.4084 0
      vertex 22.609 37.4555 0
    endloop
  endfacet
  facet normal 0 0 -1
    outer loop
      vertex 21.7544 40.4432 0
      vertex 22.609 37.4555 0
      vertex 22.5645 37.5 0
    endloop
  endfacet
  facet normal 0 0 -1
    outer loop
      vertex 21.7544 40.4432 0
      vertex 22.5645 37.5 0
      vertex 22.5174 37.5415 0
    endloop
  endfacet
  facet normal 0 0 -1
    outer loop
      vertex 21.7544 40.4432 0
      vertex 22.5174 37.5415 0
      vertex 22.4678 37.58 0
    endloop
  endfacet
  facet normal 0 0 -1
    outer loop
      vertex 21.7544 40.4432 0
      vertex 22.4678 37.58 0
      vertex 22.4158 37.6153 0
    endloop
  endfacet
  facet normal 0 0 -1
    outer loop
      vertex 21.7544 40.4432 0
      vertex 22.4158 37.6153 0
      vertex 22.3618 37.6473 0
    endloop
  endfacet
  facet normal 0 0 -1
    outer loop
      vertex 21.7544 40.4432 0
      vertex 22.3618 37.6473 0
      vertex 22.3058 37.6758 0
    endloop
  endfacet
  facet normal 0 0 -1
    outer loop
      vertex 21.7544 40.4432 0
      vertex 22.3058 37.6758 0
      vertex 22.2481 37.7008 0
    endloop
  endfacet
  facet normal 0 0 -1
    outer loop
      vertex 21.7544 40.4432 0
      vertex 22.2481 37.7008 0
      vertex 22.189 37.7221 0
    endloop
  endfacet
  facet normal 0 0 -1
    outer loop
      vertex 21.7544 40.4432 0
      vertex 22.189 37.7221 0
      vertex 22.1287 37.7396 0
    endloop
  endfacet
  facet normal 0 0 -1
    outer loop
      vertex 21.7544 40.4432 0
      vertex 22.1287 37.7396 0
      vertex 22.0674 37.7533 0
    endloop
  endfacet
  facet normal 0 0 -1
    outer loop
      vertex 21.7544 40.4432 0
      vertex 22.0674 37.7533 0
      vertex 22.0053 37.7631 0
    endloop
  endfacet
  facet normal 0 0 -1
    outer loop
      vertex 21.7544 40.4432 0
      vertex 22.0053 37.7631 0
      vertex 21.9428 37.769 0
    endloop
  endfacet
  facet normal 0 0 -1
    outer loop
      vertex 21.7544 40.4432 0
      vertex 21.9428 37.769 0
      vertex 21.88 37.771 0
    endloop
  endfacet
  facet normal 0 0 -1
    outer loop
      vertex 21.7544 40.4432 0
      vertex 21.88 37.771 0
      vertex 21.8172 37.769 0
    endloop
  endfacet
  facet normal 0 0 -1
    outer loop
      vertex 21.7544 40.4432 0
      vertex 21.8172 37.769 0
      vertex 21.7547 37.7631 0
    endloop
  endfacet
  facet normal 0 0 -1
    outer loop
      vertex 22.6505 37.4084 0
      vertex 21.7544 40.4432 0
      vertex 29.6817 39.0903 0
    endloop
  endfacet
  facet normal 0 0 -1
    outer loop
      vertex 21.6926 37.7533 0
      vertex 21.7544 40.4432 0
      vertex 21.7547 37.7631 0
    endloop
  endfacet
  facet normal 0 0 -1
    outer loop
      vertex 21.6313 37.7396 0
      vertex 21.7544 40.4432 0
      vertex 21.6926 37.7533 0
    endloop
  endfacet
  facet normal 0 0 -1
    outer loop
      vertex 21.571 37.7221 0
      vertex 21.7544 40.4432 0
      vertex 21.6313 37.7396 0
    endloop
  endfacet
  facet normal 0 0 -1
    outer loop
      vertex 21.5119 37.7008 0
      vertex 21.7544 40.4432 0
      vertex 21.571 37.7221 0
    endloop
  endfacet
  facet normal 0 0 -1
    outer loop
      vertex 21.4542 37.6758 0
      vertex 21.7544 40.4432 0
      vertex 21.5119 37.7008 0
    endloop
  endfacet
  facet normal 0 0 -1
    outer loop
      vertex 21.3982 37.6473 0
      vertex 21.7544 40.4432 0
      vertex 21.4542 37.6758 0
    endloop
  endfacet
  facet normal 0 0 -1
    outer loop
      vertex 21.3442 37.6153 0
      vertex 21.7544 40.4432 0
      vertex 21.3982 37.6473 0
    endloop
  endfacet
  facet normal 0 0 -1
    outer loop
      vertex 21.2922 37.58 0
      vertex 21.7544 40.4432 0
      vertex 21.3442 37.6153 0
    endloop
  endfacet
  facet normal 0 0 -1
    outer loop
      vertex 21.2426 37.5415 0
      vertex 21.7544 40.4432 0
      vertex 21.2922 37.58 0
    endloop
  endfacet
  facet normal 0 0 -1
    outer loop
      vertex 21.1955 37.5 0
      vertex 21.7544 40.4432 0
      vertex 21.2426 37.5415 0
    endloop
  endfacet
  facet normal 0 0 -1
    outer loop
      vertex 21.151 37.4555 0
      vertex 21.7544 40.4432 0
      vertex 21.1955 37.5 0
    endloop
  endfacet
  facet normal 0 0 -1
    outer loop
      vertex 21.1095 37.4084 0
      vertex 21.7544 40.4432 0
      vertex 21.151 37.4555 0
    endloop
  endfacet
  facet normal 0 0 -1
    outer loop
      vertex 21.071 37.3588 0
      vertex 21.7544 40.4432 0
      vertex 21.1095 37.4084 0
    endloop
  endfacet
  facet normal 0 0 -1
    outer loop
      vertex 13.7591 39.0903 0
      vertex 21.071 37.3588 0
      vertex 21.0357 37.3068 0
    endloop
  endfacet
  facet normal 0 0 -1
    outer loop
      vertex 13.7591 39.0903 0
      vertex 21.0357 37.3068 0
      vertex 21.0037 37.2528 0
    endloop
  endfacet
  facet normal 0 0 -1
    outer loop
      vertex 13.7591 39.0903 0
      vertex 21.0037 37.2528 0
      vertex 20.9752 37.1968 0
    endloop
  endfacet
  facet normal 0 0 -1
    outer loop
      vertex 13.7591 39.0903 0
      vertex 20.9752 37.1968 0
      vertex 20.9502 37.1391 0
    endloop
  endfacet
  facet normal 0 0 -1
    outer loop
      vertex 13.7591 39.0903 0
      vertex 20.9502 37.1391 0
      vertex 20.9289 37.08 0
    endloop
  endfacet
  facet normal 0 0 -1
    outer loop
      vertex 13.7591 39.0903 0
      vertex 20.9289 37.08 0
      vertex 20.9114 37.0197 0
    endloop
  endfacet
  facet normal 0 0 -1
    outer loop
      vertex 13.7591 39.0903 0
      vertex 20.88 36.771 0
      vertex 17.2549 32.7263 0
    endloop
  endfacet
  facet normal 0 0 -1
    outer loop
      vertex 20.88 36.771 0
      vertex 13.7591 39.0903 0
      vertex 20.882 36.8338 0
    endloop
  endfacet
  facet normal 0 0 -1
    outer loop
      vertex 20.882 36.8338 0
      vertex 13.7591 39.0903 0
      vertex 20.8879 36.8963 0
    endloop
  endfacet
  facet normal 0 0 -1
    outer loop
      vertex 20.8879 36.8963 0
      vertex 13.7591 39.0903 0
      vertex 20.8977 36.9584 0
    endloop
  endfacet
  facet normal 0 0 -1
    outer loop
      vertex 20.8977 36.9584 0
      vertex 13.7591 39.0903 0
      vertex 20.9114 37.0197 0
    endloop
  endfacet
  facet normal 0 0 -1
    outer loop
      vertex 21.071 37.3588 0
      vertex 13.7591 39.0903 0
      vertex 21.7544 40.4432 0
    endloop
  endfacet
  facet normal 0 0 -1
    outer loop
      vertex 13.7388 30.1628 0
      vertex 13.7591 39.0903 0
      vertex 17.2549 32.7263 0
    endloop
  endfacet
  facet normal 0 0 -1
    outer loop
      vertex 7.62199 35.0316 0
      vertex 13.7388 30.1628 0
      vertex 11.4501 25.884 0
    endloop
  endfacet
  facet normal 0 0 -1
    outer loop
      vertex 13.7388 30.1628 0
      vertex 7.62199 35.0316 0
      vertex 13.7591 39.0903 0
    endloop
  endfacet
  facet normal 0 0 -1
    outer loop
      vertex 2.41399 19.8828 0
      vertex 11.4501 25.884 0
      vertex 10.6872 19.8828 0
    endloop
  endfacet
  facet normal 0 0 -1
    outer loop
      vertex 29.6817 39.0903 0
      vertex 22.878 36.7082 0
      vertex 22.88 36.771 0
    endloop
  endfacet
  facet normal 0 0 -1
    outer loop
      vertex 26.1417 32.7297 0
      vertex 22.8721 36.6457 0
      vertex 22.878 36.7082 0
    endloop
  endfacet
  facet normal 0 0 -1
    outer loop
      vertex 26.1417 32.7297 0
      vertex 22.8623 36.5836 0
      vertex 22.8721 36.6457 0
    endloop
  endfacet
  facet normal 0 0 -1
    outer loop
      vertex 26.1417 32.7297 0
      vertex 22.8486 36.5223 0
      vertex 22.8623 36.5836 0
    endloop
  endfacet
  facet normal 0 0 -1
    outer loop
      vertex 26.1417 32.7297 0
      vertex 22.8311 36.462 0
      vertex 22.8486 36.5223 0
    endloop
  endfacet
  facet normal 0 0 -1
    outer loop
      vertex 26.1417 32.7297 0
      vertex 22.8098 36.4029 0
      vertex 22.8311 36.462 0
    endloop
  endfacet
  facet normal 0 0 -1
    outer loop
      vertex 26.1417 32.7297 0
      vertex 22.7848 36.3452 0
      vertex 22.8098 36.4029 0
    endloop
  endfacet
  facet normal 0 0 -1
    outer loop
      vertex 26.1417 32.7297 0
      vertex 22.7563 36.2892 0
      vertex 22.7848 36.3452 0
    endloop
  endfacet
  facet normal 0 0 -1
    outer loop
      vertex 26.1417 32.7297 0
      vertex 22.7243 36.2352 0
      vertex 22.7563 36.2892 0
    endloop
  endfacet
  facet normal 0 0 -1
    outer loop
      vertex 26.1417 32.7297 0
      vertex 22.689 36.1832 0
      vertex 22.7243 36.2352 0
    endloop
  endfacet
  facet normal 0 0 -1
    outer loop
      vertex 26.1417 32.7297 0
      vertex 22.6505 36.1336 0
      vertex 22.689 36.1832 0
    endloop
  endfacet
  facet normal 0 0 -1
    outer loop
      vertex 26.1417 32.7297 0
      vertex 22.609 36.0865 0
      vertex 22.6505 36.1336 0
    endloop
  endfacet
  facet normal 0 0 -1
    outer loop
      vertex 26.1417 32.7297 0
      vertex 22.5645 36.042 0
      vertex 22.609 36.0865 0
    endloop
  endfacet
  facet normal 0 0 -1
    outer loop
      vertex 26.1417 32.7297 0
      vertex 22.5174 36.0005 0
      vertex 22.5645 36.042 0
    endloop
  endfacet
  facet normal 0 0 -1
    outer loop
      vertex 21.7 33.5808 0
      vertex 22.5174 36.0005 0
      vertex 26.1417 32.7297 0
    endloop
  endfacet
  facet normal 0 0 -1
    outer loop
      vertex 22.5174 36.0005 0
      vertex 21.7 33.5808 0
      vertex 22.4678 35.962 0
    endloop
  endfacet
  facet normal 0 0 -1
    outer loop
      vertex 22.4678 35.962 0
      vertex 21.7 33.5808 0
      vertex 22.4158 35.9267 0
    endloop
  endfacet
  facet normal 0 0 -1
    outer loop
      vertex 22.4158 35.9267 0
      vertex 21.7 33.5808 0
      vertex 22.3618 35.8947 0
    endloop
  endfacet
  facet normal 0 0 -1
    outer loop
      vertex 22.3618 35.8947 0
      vertex 21.7 33.5808 0
      vertex 22.3058 35.8662 0
    endloop
  endfacet
  facet normal 0 0 -1
    outer loop
      vertex 22.3058 35.8662 0
      vertex 21.7 33.5808 0
      vertex 22.2481 35.8412 0
    endloop
  endfacet
  facet normal 0 0 -1
    outer loop
      vertex 22.2481 35.8412 0
      vertex 21.7 33.5808 0
      vertex 22.189 35.8199 0
    endloop
  endfacet
  facet normal 0 0 -1
    outer loop
      vertex 22.189 35.8199 0
      vertex 21.7 33.5808 0
      vertex 22.1287 35.8024 0
    endloop
  endfacet
  facet normal 0 0 -1
    outer loop
      vertex 22.1287 35.8024 0
      vertex 21.7 33.5808 0
      vertex 22.0674 35.7887 0
    endloop
  endfacet
  facet normal 0 0 -1
    outer loop
      vertex 22.0674 35.7887 0
      vertex 21.7 33.5808 0
      vertex 22.0053 35.7789 0
    endloop
  endfacet
  facet normal 0 0 -1
    outer loop
      vertex 22.0053 35.7789 0
      vertex 21.7 33.5808 0
      vertex 21.9428 35.773 0
    endloop
  endfacet
  facet normal 0 0 -1
    outer loop
      vertex 21.9428 35.773 0
      vertex 21.7 33.5808 0
      vertex 21.88 35.771 0
    endloop
  endfacet
  facet normal -0 0 -1
    outer loop
      vertex 21.88 35.771 0
      vertex 21.7 33.5808 0
      vertex 21.8172 35.773 0
    endloop
  endfacet
  facet normal -0 0 -1
    outer loop
      vertex 21.8172 35.773 0
      vertex 21.7 33.5808 0
      vertex 21.7547 35.7789 0
    endloop
  endfacet
  facet normal 0 0 -1
    outer loop
      vertex 21.7 33.5808 0
      vertex 21.6926 35.7887 0
      vertex 21.7547 35.7789 0
    endloop
  endfacet
  facet normal 0 0 -1
    outer loop
      vertex 21.7 33.5808 0
      vertex 21.6313 35.8024 0
      vertex 21.6926 35.7887 0
    endloop
  endfacet
  facet normal 0 0 -1
    outer loop
      vertex 21.7 33.5808 0
      vertex 21.571 35.8199 0
      vertex 21.6313 35.8024 0
    endloop
  endfacet
  facet normal 0 0 -1
    outer loop
      vertex 21.7 33.5808 0
      vertex 21.5119 35.8412 0
      vertex 21.571 35.8199 0
    endloop
  endfacet
  facet normal 0 0 -1
    outer loop
      vertex 21.7 33.5808 0
      vertex 21.4542 35.8662 0
      vertex 21.5119 35.8412 0
    endloop
  endfacet
  facet normal 0 0 -1
    outer loop
      vertex 21.7 33.5808 0
      vertex 21.3982 35.8947 0
      vertex 21.4542 35.8662 0
    endloop
  endfacet
  facet normal 0 0 -1
    outer loop
      vertex 21.7 33.5808 0
      vertex 21.3442 35.9267 0
      vertex 21.3982 35.8947 0
    endloop
  endfacet
  facet normal 0 0 -1
    outer loop
      vertex 21.7 33.5808 0
      vertex 21.2922 35.962 0
      vertex 21.3442 35.9267 0
    endloop
  endfacet
  facet normal 0 0 -1
    outer loop
      vertex 21.7 33.5808 0
      vertex 21.2426 36.0005 0
      vertex 21.2922 35.962 0
    endloop
  endfacet
  facet normal 0 0 -1
    outer loop
      vertex 21.7 33.5808 0
      vertex 21.1955 36.042 0
      vertex 21.2426 36.0005 0
    endloop
  endfacet
  facet normal 0 0 -1
    outer loop
      vertex 21.7 33.5808 0
      vertex 21.151 36.0865 0
      vertex 21.1955 36.042 0
    endloop
  endfacet
  facet normal 0 0 -1
    outer loop
      vertex 17.2549 32.7263 0
      vertex 21.151 36.0865 0
      vertex 21.7 33.5808 0
    endloop
  endfacet
  facet normal -0 0 -1
    outer loop
      vertex 21.151 36.0865 0
      vertex 17.2549 32.7263 0
      vertex 21.1095 36.1336 0
    endloop
  endfacet
  facet normal -0 0 -1
    outer loop
      vertex 21.1095 36.1336 0
      vertex 17.2549 32.7263 0
      vertex 21.071 36.1832 0
    endloop
  endfacet
  facet normal -0 0 -1
    outer loop
      vertex 21.071 36.1832 0
      vertex 17.2549 32.7263 0
      vertex 21.0357 36.2352 0
    endloop
  endfacet
  facet normal -0 0 -1
    outer loop
      vertex 21.0357 36.2352 0
      vertex 17.2549 32.7263 0
      vertex 21.0037 36.2892 0
    endloop
  endfacet
  facet normal -0 0 -1
    outer loop
      vertex 21.0037 36.2892 0
      vertex 17.2549 32.7263 0
      vertex 20.9752 36.3452 0
    endloop
  endfacet
  facet normal -0 0 -1
    outer loop
      vertex 20.9752 36.3452 0
      vertex 17.2549 32.7263 0
      vertex 20.9502 36.4029 0
    endloop
  endfacet
  facet normal -0 0 -1
    outer loop
      vertex 20.9502 36.4029 0
      vertex 17.2549 32.7263 0
      vertex 20.9289 36.462 0
    endloop
  endfacet
  facet normal -0 0 -1
    outer loop
      vertex 20.882 36.7082 0
      vertex 17.2549 32.7263 0
      vertex 20.88 36.771 0
    endloop
  endfacet
  facet normal -0 0 -1
    outer loop
      vertex 20.8879 36.6457 0
      vertex 17.2549 32.7263 0
      vertex 20.882 36.7082 0
    endloop
  endfacet
  facet normal -0 0 -1
    outer loop
      vertex 20.8977 36.5836 0
      vertex 17.2549 32.7263 0
      vertex 20.8879 36.6457 0
    endloop
  endfacet
  facet normal -0 0 -1
    outer loop
      vertex 20.9114 36.5223 0
      vertex 17.2549 32.7263 0
      vertex 20.8977 36.5836 0
    endloop
  endfacet
  facet normal -0 0 -1
    outer loop
      vertex 20.9289 36.462 0
      vertex 17.2549 32.7263 0
      vertex 20.9114 36.5223 0
    endloop
  endfacet
  facet normal 0 0 -1
    outer loop
      vertex 31.9261 25.901 0
      vertex 40.9588 19.8828 0
      vertex 32.6856 19.8828 0
    endloop
  endfacet
  facet normal -0 0 -1
    outer loop
      vertex 40.5994 15.0408 0
      vertex 31.9124 13.9692 0
      vertex 32.4923 16.7362 0
    endloop
  endfacet
  facet normal 0 0 -1
    outer loop
      vertex 39.5212 10.8228 0
      vertex 30.9462 11.5823 0
      vertex 31.9124 13.9692 0
    endloop
  endfacet
  facet normal 0 0 -1
    outer loop
      vertex 29.5932 9.5752 0
      vertex 36.0492 5.0452 0
      vertex 30.624 1.03079 0
    endloop
  endfacet
  facet normal 0 0 -1
    outer loop
      vertex 36.0492 5.0452 0
      vertex 29.5932 9.5752 0
      vertex 30.9462 11.5823 0
    endloop
  endfacet
  facet normal 0 0 -1
    outer loop
      vertex 24.738 6.56439 0
      vertex 30.624 1.03079 0
      vertex 26.5078 -0.250793 0
    endloop
  endfacet
  facet normal 0 0 -1
    outer loop
      vertex 30.624 1.03079 0
      vertex 24.738 6.56439 0
      vertex 29.5932 9.5752 0
    endloop
  endfacet
  facet normal -0 0 -1
    outer loop
      vertex 29.5932 9.5752 0
      vertex 24.738 6.56439 0
      vertex 25.8975 11.9486 0
    endloop
  endfacet
  facet normal 0 0 -1
    outer loop
      vertex 26.5078 -0.250793 0
      vertex 23.1445 6.13719 0
      vertex 24.738 6.56439 0
    endloop
  endfacet
  facet normal 0 0 -1
    outer loop
      vertex 21.9712 -0.677994 0
      vertex 23.1445 6.13719 0
      vertex 26.5078 -0.250793 0
    endloop
  endfacet
  facet normal 0 0 -1
    outer loop
      vertex 21.9712 -0.677994 0
      vertex 21.456 5.9948 0
      vertex 23.1445 6.13719 0
    endloop
  endfacet
  facet normal 0 0 -1
    outer loop
      vertex 21.9712 -0.677994 0
      vertex 17.1939 6.85939 0
      vertex 21.456 5.9948 0
    endloop
  endfacet
  facet normal 0 0 -1
    outer loop
      vertex 13.7965 0.671387 0
      vertex 17.1939 6.85939 0
      vertex 21.9712 -0.677994 0
    endloop
  endfacet
  facet normal 0 0 -1
    outer loop
      vertex 13.7965 0.671387 0
      vertex 13.7388 9.45319 0
      vertex 17.1939 6.85939 0
    endloop
  endfacet
  facet normal 0 0 -1
    outer loop
      vertex 7.6084 4.71959 0
      vertex 13.7388 9.45319 0
      vertex 13.7965 0.671387 0
    endloop
  endfacet
  facet normal 0 0 -1
    outer loop
      vertex 2.41399 19.8828 0
      vertex 10.6872 19.8828 0
      vertex 11.4501 13.7898 0
    endloop
  endfacet
  facet normal -0 0 -1
    outer loop
      vertex 13.7388 9.45319 0
      vertex 7.6084 4.71959 0
      vertex 11.4501 13.7898 0
    endloop
  endfacet
  facet normal 0 0 -1
    outer loop
      vertex 11.4501 13.7898 0
      vertex 7.6084 4.71959 0
      vertex 3.71259 11.2094 0
    endloop
  endfacet
  facet normal -0 0 -1
    outer loop
      vertex 11.4501 25.884 0
      vertex 2.41399 19.8828 0
      vertex 3.71599 28.5388 0
    endloop
  endfacet
  facet normal -0 0 -1
    outer loop
      vertex 11.4501 13.7898 0
      vertex 3.71259 11.2094 0
      vertex 2.41399 19.8828 0
    endloop
  endfacet
  facet normal 0 0 -1
    outer loop
      vertex 11.4501 25.884 0
      vertex 3.71599 28.5388 0
      vertex 7.62199 35.0316 0
    endloop
  endfacet
  facet normal 0 0 -1
    outer loop
      vertex 22.2764 7.98839 0
      vertex 25.8975 11.9486 0
      vertex 24.738 6.56439 0
    endloop
  endfacet
  facet normal 0 0 -1
    outer loop
      vertex 22.2764 7.98839 0
      vertex 22.0256 13.644 0
      vertex 25.8975 11.9486 0
    endloop
  endfacet
  facet normal 0 -0 -1
    outer loop
      vertex 22.0256 13.644 0
      vertex 22.2764 7.98839 0
      vertex 19.774 9.05959 0
    endloop
  endfacet
  facet normal 0 0 1
    outer loop
      vertex 25.8975 11.9486 5
      vertex 22.2764 7.98839 5
      vertex 24.738 6.56439 5
    endloop
  endfacet
  facet normal 0 0 1
    outer loop
      vertex 22.0256 13.644 5
      vertex 22.2764 7.98839 5
      vertex 25.8975 11.9486 5
    endloop
  endfacet
  facet normal 0 0 1
    outer loop
      vertex 22.2764 7.98839 5
      vertex 22.0256 13.644 5
      vertex 19.774 9.05959 5
    endloop
  endfacet
  facet normal -0 0 1
    outer loop
      vertex 31.9261 25.901 5
      vertex 40.9588 19.8828 5
      vertex 39.6636 28.5388 5
    endloop
  endfacet
  facet normal 0 0 1
    outer loop
      vertex 32.4923 16.7362 5
      vertex 40.9588 19.8828 5
      vertex 32.6856 19.8828 5
    endloop
  endfacet
  facet normal 0 0 1
    outer loop
      vertex 40.9588 19.8828 5
      vertex 32.4923 16.7362 5
      vertex 40.5994 15.0408 5
    endloop
  endfacet
  facet normal 0 0 1
    outer loop
      vertex 31.9124 13.9692 5
      vertex 40.5994 15.0408 5
      vertex 32.4923 16.7362 5
    endloop
  endfacet
  facet normal 0 0 1
    outer loop
      vertex 31.9261 25.901 5
      vertex 39.6636 28.5388 5
      vertex 35.778 35.0316 5
    endloop
  endfacet
  facet normal 0 0 1
    outer loop
      vertex 40.5994 15.0408 5
      vertex 31.9124 13.9692 5
      vertex 39.5212 10.8228 5
    endloop
  endfacet
  facet normal -0 0 1
    outer loop
      vertex 30.9462 11.5823 5
      vertex 39.5212 10.8228 5
      vertex 31.9124 13.9692 5
    endloop
  endfacet
  facet normal 0 0 1
    outer loop
      vertex 39.5212 10.8228 5
      vertex 30.9462 11.5823 5
      vertex 38.1106 7.8866 5
    endloop
  endfacet
  facet normal 0 0 1
    outer loop
      vertex 40.9588 19.8828 5
      vertex 31.9261 25.901 5
      vertex 32.6856 19.8828 5
    endloop
  endfacet
  facet normal 0 0 1
    outer loop
      vertex 29.6476 30.1764 5
      vertex 35.778 35.0316 5
      vertex 29.6817 39.0903 5
    endloop
  endfacet
  facet normal 0 0 1
    outer loop
      vertex 35.778 35.0316 5
      vertex 29.6476 30.1764 5
      vertex 31.9261 25.901 5
    endloop
  endfacet
  facet normal 0 0 1
    outer loop
      vertex 29.6817 39.0903 5
      vertex 26.1417 32.7297 5
      vertex 29.6476 30.1764 5
    endloop
  endfacet
  facet normal 0 0 1
    outer loop
      vertex 21.7544 40.4432 5
      vertex 26.1417 32.7297 5
      vertex 29.6817 39.0903 5
    endloop
  endfacet
  facet normal 0 0 1
    outer loop
      vertex 21.7544 40.4432 5
      vertex 21.7 33.5808 5
      vertex 26.1417 32.7297 5
    endloop
  endfacet
  facet normal 0 0 1
    outer loop
      vertex 21.7544 40.4432 5
      vertex 17.2549 32.7263 5
      vertex 21.7 33.5808 5
    endloop
  endfacet
  facet normal -0 0 1
    outer loop
      vertex 13.7591 39.0903 5
      vertex 17.2549 32.7263 5
      vertex 21.7544 40.4432 5
    endloop
  endfacet
  facet normal 0 0 1
    outer loop
      vertex 13.7591 39.0903 5
      vertex 13.7388 30.1628 5
      vertex 17.2549 32.7263 5
    endloop
  endfacet
  facet normal -0 0 1
    outer loop
      vertex 7.62199 35.0316 5
      vertex 13.7388 30.1628 5
      vertex 13.7591 39.0903 5
    endloop
  endfacet
  facet normal -0 0 1
    outer loop
      vertex 3.71599 28.5388 5
      vertex 11.4501 25.884 5
      vertex 7.62199 35.0316 5
    endloop
  endfacet
  facet normal 0 0 1
    outer loop
      vertex 13.7388 30.1628 5
      vertex 7.62199 35.0316 5
      vertex 11.4501 25.884 5
    endloop
  endfacet
  facet normal 0 0 1
    outer loop
      vertex 37.724 -3.34309 5
      vertex 42.4776 1.68159 5
      vertex 39.1345 3.1465 5
    endloop
  endfacet
  facet normal 0 0 1
    outer loop
      vertex 42.4776 1.68159 5
      vertex 37.724 -3.34309 5
      vertex 39.5212 -3.9872 5
    endloop
  endfacet
  facet normal 0 0 1
    outer loop
      vertex 35.9676 -2.49559 5
      vertex 39.1345 3.1465 5
      vertex 36.0492 5.0452 5
    endloop
  endfacet
  facet normal 0 0 1
    outer loop
      vertex 39.1345 3.1465 5
      vertex 35.9676 -2.49559 5
      vertex 37.724 -3.34309 5
    endloop
  endfacet
  facet normal 0 0 1
    outer loop
      vertex 38.1106 7.8866 5
      vertex 30.9462 11.5823 5
      vertex 36.0492 5.0452 5
    endloop
  endfacet
  facet normal -0 0 1
    outer loop
      vertex 29.5932 9.5752 5
      vertex 36.0492 5.0452 5
      vertex 30.9462 11.5823 5
    endloop
  endfacet
  facet normal 0 0 1
    outer loop
      vertex 36.0492 5.0452 5
      vertex 34.4419 -1.519 5
      vertex 35.9676 -2.49559 5
    endloop
  endfacet
  facet normal 0 0 1
    outer loop
      vertex 36.0492 5.0452 5
      vertex 30.624 1.03079 5
      vertex 34.4419 -1.519 5
    endloop
  endfacet
  facet normal 0 0 1
    outer loop
      vertex 36.0492 5.0452 5
      vertex 29.5932 9.5752 5
      vertex 30.624 1.03079 5
    endloop
  endfacet
  facet normal -0 0 1
    outer loop
      vertex 24.738 6.56439 5
      vertex 30.624 1.03079 5
      vertex 29.5932 9.5752 5
    endloop
  endfacet
  facet normal 0 0 1
    outer loop
      vertex 24.738 6.56439 5
      vertex 29.5932 9.5752 5
      vertex 25.8975 11.9486 5
    endloop
  endfacet
  facet normal 0 0 1
    outer loop
      vertex 30.624 1.03079 5
      vertex 24.738 6.56439 5
      vertex 26.5078 -0.250793 5
    endloop
  endfacet
  facet normal -0 0 1
    outer loop
      vertex 23.1445 6.13719 5
      vertex 26.5078 -0.250793 5
      vertex 24.738 6.56439 5
    endloop
  endfacet
  facet normal 0 0 1
    outer loop
      vertex 23.1445 6.13719 5
      vertex 21.9712 -0.677994 5
      vertex 26.5078 -0.250793 5
    endloop
  endfacet
  facet normal -0 0 1
    outer loop
      vertex 21.456 5.9948 5
      vertex 21.9712 -0.677994 5
      vertex 23.1445 6.13719 5
    endloop
  endfacet
  facet normal 0 0 1
    outer loop
      vertex 17.1939 6.85939 5
      vertex 21.9712 -0.677994 5
      vertex 21.456 5.9948 5
    endloop
  endfacet
  facet normal 0 0 1
    outer loop
      vertex 17.1939 6.85939 5
      vertex 13.7965 0.671387 5
      vertex 21.9712 -0.677994 5
    endloop
  endfacet
  facet normal 0 0 1
    outer loop
      vertex 13.7388 9.45319 5
      vertex 13.7965 0.671387 5
      vertex 17.1939 6.85939 5
    endloop
  endfacet
  facet normal 0 0 1
    outer loop
      vertex 7.6084 4.71959 5
      vertex 13.7388 9.45319 5
      vertex 11.4501 13.7898 5
    endloop
  endfacet
  facet normal 0 0 1
    outer loop
      vertex 2.41399 19.8828 5
      vertex 11.4501 25.884 5
      vertex 3.71599 28.5388 5
    endloop
  endfacet
  facet normal 0 0 1
    outer loop
      vertex 11.4501 25.884 5
      vertex 2.41399 19.8828 5
      vertex 10.6872 19.8828 5
    endloop
  endfacet
  facet normal 0 -0 1
    outer loop
      vertex 3.71259 11.2094 5
      vertex 11.4501 13.7898 5
      vertex 2.41399 19.8828 5
    endloop
  endfacet
  facet normal 0 0 1
    outer loop
      vertex 10.6872 19.8828 5
      vertex 2.41399 19.8828 5
      vertex 11.4501 13.7898 5
    endloop
  endfacet
  facet normal 0 -0 1
    outer loop
      vertex 7.6084 4.71959 5
      vertex 11.4501 13.7898 5
      vertex 3.71259 11.2094 5
    endloop
  endfacet
  facet normal 0 0 1
    outer loop
      vertex 13.7388 9.45319 5
      vertex 7.6084 4.71959 5
      vertex 13.7965 0.671387 5
    endloop
  endfacet
  facet normal 0.401349 0.915925 -0
    outer loop
      vertex 42.4776 1.68159 0
      vertex 39.1345 3.1465 5
      vertex 42.4776 1.68159 5
    endloop
  endfacet
  facet normal 0.401349 0.915925 0
    outer loop
      vertex 39.1345 3.1465 5
      vertex 42.4776 1.68159 0
      vertex 39.1345 3.1465 0
    endloop
  endfacet
  facet normal 0.524108 0.851652 -0
    outer loop
      vertex 39.1345 3.1465 0
      vertex 36.0492 5.0452 5
      vertex 39.1345 3.1465 5
    endloop
  endfacet
  facet normal 0.524108 0.851652 0
    outer loop
      vertex 36.0492 5.0452 5
      vertex 39.1345 3.1465 0
      vertex 36.0492 5.0452 0
    endloop
  endfacet
  facet normal 0.809423 -0.587226 0
    outer loop
      vertex 36.0492 5.0452 5
      vertex 38.1106 7.8866 0
      vertex 38.1106 7.8866 5
    endloop
  endfacet
  facet normal 0.809423 -0.587226 0
    outer loop
      vertex 38.1106 7.8866 0
      vertex 36.0492 5.0452 5
      vertex 36.0492 5.0452 0
    endloop
  endfacet
  facet normal 0.901376 -0.433036 0
    outer loop
      vertex 38.1106 7.8866 5
      vertex 39.5212 10.8228 0
      vertex 39.5212 10.8228 5
    endloop
  endfacet
  facet normal 0.901376 -0.433036 0
    outer loop
      vertex 39.5212 10.8228 0
      vertex 38.1106 7.8866 5
      vertex 38.1106 7.8866 0
    endloop
  endfacet
  facet normal 0.968848 -0.247656 0
    outer loop
      vertex 39.5212 10.8228 5
      vertex 40.5994 15.0408 0
      vertex 40.5994 15.0408 5
    endloop
  endfacet
  facet normal 0.968848 -0.247656 0
    outer loop
      vertex 40.5994 15.0408 0
      vertex 39.5212 10.8228 5
      vertex 39.5212 10.8228 0
    endloop
  endfacet
  facet normal 0.997257 -0.0740219 0
    outer loop
      vertex 40.5994 15.0408 5
      vertex 40.9588 19.8828 0
      vertex 40.9588 19.8828 5
    endloop
  endfacet
  facet normal 0.997257 -0.0740219 0
    outer loop
      vertex 40.9588 19.8828 0
      vertex 40.5994 15.0408 5
      vertex 40.5994 15.0408 0
    endloop
  endfacet
  facet normal 0.98899 0.147983 0
    outer loop
      vertex 40.9588 19.8828 5
      vertex 39.6636 28.5388 0
      vertex 39.6636 28.5388 5
    endloop
  endfacet
  facet normal 0.98899 0.147983 0
    outer loop
      vertex 39.6636 28.5388 0
      vertex 40.9588 19.8828 5
      vertex 40.9588 19.8828 0
    endloop
  endfacet
  facet normal 0.85808 0.513516 0
    outer loop
      vertex 39.6636 28.5388 5
      vertex 35.778 35.0316 0
      vertex 35.778 35.0316 5
    endloop
  endfacet
  facet normal 0.85808 0.513516 0
    outer loop
      vertex 35.778 35.0316 0
      vertex 39.6636 28.5388 5
      vertex 39.6636 28.5388 0
    endloop
  endfacet
  facet normal 0.55418 0.832397 -0
    outer loop
      vertex 35.778 35.0316 0
      vertex 29.6817 39.0903 5
      vertex 35.778 35.0316 5
    endloop
  endfacet
  facet normal 0.55418 0.832397 0
    outer loop
      vertex 29.6817 39.0903 5
      vertex 35.778 35.0316 0
      vertex 29.6817 39.0903 0
    endloop
  endfacet
  facet normal 0.168231 0.985748 -0
    outer loop
      vertex 29.6817 39.0903 0
      vertex 21.7544 40.4432 5
      vertex 29.6817 39.0903 5
    endloop
  endfacet
  facet normal 0.168231 0.985748 0
    outer loop
      vertex 21.7544 40.4432 5
      vertex 29.6817 39.0903 0
      vertex 21.7544 40.4432 0
    endloop
  endfacet
  facet normal -0.16684 0.985984 0
    outer loop
      vertex 21.7544 40.4432 0
      vertex 13.7591 39.0903 5
      vertex 21.7544 40.4432 5
    endloop
  endfacet
  facet normal -0.16684 0.985984 0
    outer loop
      vertex 13.7591 39.0903 5
      vertex 21.7544 40.4432 0
      vertex 13.7591 39.0903 0
    endloop
  endfacet
  facet normal -0.551619 0.834096 0
    outer loop
      vertex 13.7591 39.0903 0
      vertex 7.62199 35.0316 5
      vertex 13.7591 39.0903 5
    endloop
  endfacet
  facet normal -0.551619 0.834096 0
    outer loop
      vertex 7.62199 35.0316 5
      vertex 13.7591 39.0903 0
      vertex 7.62199 35.0316 0
    endloop
  endfacet
  facet normal -0.856891 0.515497 0
    outer loop
      vertex 3.71599 28.5388 0
      vertex 7.62199 35.0316 5
      vertex 7.62199 35.0316 0
    endloop
  endfacet
  facet normal -0.856891 0.515497 0
    outer loop
      vertex 7.62199 35.0316 5
      vertex 3.71599 28.5388 0
      vertex 3.71599 28.5388 5
    endloop
  endfacet
  facet normal -0.988876 0.148743 0
    outer loop
      vertex 2.41399 19.8828 0
      vertex 3.71599 28.5388 5
      vertex 3.71599 28.5388 0
    endloop
  endfacet
  facet normal -0.988876 0.148743 0
    outer loop
      vertex 3.71599 28.5388 5
      vertex 2.41399 19.8828 0
      vertex 2.41399 19.8828 5
    endloop
  endfacet
  facet normal -0.988977 -0.148072 0
    outer loop
      vertex 3.71259 11.2094 0
      vertex 2.41399 19.8828 5
      vertex 2.41399 19.8828 0
    endloop
  endfacet
  facet normal -0.988977 -0.148072 0
    outer loop
      vertex 2.41399 19.8828 5
      vertex 3.71259 11.2094 0
      vertex 3.71259 11.2094 5
    endloop
  endfacet
  facet normal -0.857381 -0.514683 0
    outer loop
      vertex 7.6084 4.71959 0
      vertex 3.71259 11.2094 5
      vertex 3.71259 11.2094 0
    endloop
  endfacet
  facet normal -0.857381 -0.514683 0
    outer loop
      vertex 3.71259 11.2094 5
      vertex 7.6084 4.71959 0
      vertex 7.6084 4.71959 5
    endloop
  endfacet
  facet normal -0.547452 -0.836837 0
    outer loop
      vertex 7.6084 4.71959 0
      vertex 13.7965 0.671387 5
      vertex 7.6084 4.71959 5
    endloop
  endfacet
  facet normal -0.547452 -0.836837 -0
    outer loop
      vertex 13.7965 0.671387 5
      vertex 7.6084 4.71959 0
      vertex 13.7965 0.671387 0
    endloop
  endfacet
  facet normal -0.162864 -0.986649 0
    outer loop
      vertex 13.7965 0.671387 0
      vertex 21.9712 -0.677994 5
      vertex 13.7965 0.671387 5
    endloop
  endfacet
  facet normal -0.162864 -0.986649 -0
    outer loop
      vertex 21.9712 -0.677994 5
      vertex 13.7965 0.671387 0
      vertex 21.9712 -0.677994 0
    endloop
  endfacet
  facet normal 0.0937529 -0.995595 0
    outer loop
      vertex 21.9712 -0.677994 0
      vertex 26.5078 -0.250793 5
      vertex 21.9712 -0.677994 5
    endloop
  endfacet
  facet normal 0.0937529 -0.995595 0
    outer loop
      vertex 26.5078 -0.250793 5
      vertex 21.9712 -0.677994 0
      vertex 26.5078 -0.250793 0
    endloop
  endfacet
  facet normal 0.297275 -0.954792 0
    outer loop
      vertex 26.5078 -0.250793 0
      vertex 30.624 1.03079 5
      vertex 26.5078 -0.250793 5
    endloop
  endfacet
  facet normal 0.297275 -0.954792 0
    outer loop
      vertex 30.624 1.03079 5
      vertex 26.5078 -0.250793 0
      vertex 30.624 1.03079 0
    endloop
  endfacet
  facet normal -0.555382 -0.831595 0
    outer loop
      vertex 30.624 1.03079 0
      vertex 34.4419 -1.519 5
      vertex 30.624 1.03079 5
    endloop
  endfacet
  facet normal -0.555382 -0.831595 -0
    outer loop
      vertex 34.4419 -1.519 5
      vertex 30.624 1.03079 0
      vertex 34.4419 -1.519 0
    endloop
  endfacet
  facet normal -0.539109 -0.842236 0
    outer loop
      vertex 34.4419 -1.519 0
      vertex 35.9676 -2.49559 5
      vertex 34.4419 -1.519 5
    endloop
  endfacet
  facet normal -0.539109 -0.842236 -0
    outer loop
      vertex 35.9676 -2.49559 5
      vertex 34.4419 -1.519 0
      vertex 35.9676 -2.49559 0
    endloop
  endfacet
  facet normal -0.434576 -0.900635 0
    outer loop
      vertex 35.9676 -2.49559 0
      vertex 37.724 -3.34309 5
      vertex 35.9676 -2.49559 5
    endloop
  endfacet
  facet normal -0.434576 -0.900635 -0
    outer loop
      vertex 37.724 -3.34309 5
      vertex 35.9676 -2.49559 0
      vertex 37.724 -3.34309 0
    endloop
  endfacet
  facet normal -0.337383 -0.941368 0
    outer loop
      vertex 37.724 -3.34309 0
      vertex 39.5212 -3.9872 5
      vertex 37.724 -3.34309 5
    endloop
  endfacet
  facet normal -0.337383 -0.941368 -0
    outer loop
      vertex 39.5212 -3.9872 5
      vertex 37.724 -3.34309 0
      vertex 39.5212 -3.9872 0
    endloop
  endfacet
  facet normal 0.886664 -0.462415 0
    outer loop
      vertex 39.5212 -3.9872 5
      vertex 42.4776 1.68159 0
      vertex 42.4776 1.68159 5
    endloop
  endfacet
  facet normal 0.886664 -0.462415 0
    outer loop
      vertex 42.4776 1.68159 0
      vertex 39.5212 -3.9872 5
      vertex 39.5212 -3.9872 0
    endloop
  endfacet
  facet normal 0.600367 0.799725 -0
    outer loop
      vertex 17.1939 6.85939 0
      vertex 13.7388 9.45319 5
      vertex 17.1939 6.85939 5
    endloop
  endfacet
  facet normal 0.600367 0.799725 0
    outer loop
      vertex 13.7388 9.45319 5
      vertex 17.1939 6.85939 0
      vertex 13.7388 9.45319 0
    endloop
  endfacet
  facet normal 0.88439 0.466748 0
    outer loop
      vertex 13.7388 9.45319 5
      vertex 11.4501 13.7898 0
      vertex 11.4501 13.7898 5
    endloop
  endfacet
  facet normal 0.88439 0.466748 0
    outer loop
      vertex 11.4501 13.7898 0
      vertex 13.7388 9.45319 5
      vertex 13.7388 9.45319 0
    endloop
  endfacet
  facet normal 0.992252 0.124239 0
    outer loop
      vertex 11.4501 13.7898 5
      vertex 10.6872 19.8828 0
      vertex 10.6872 19.8828 5
    endloop
  endfacet
  facet normal 0.992252 0.124239 0
    outer loop
      vertex 10.6872 19.8828 0
      vertex 11.4501 13.7898 5
      vertex 11.4501 13.7898 0
    endloop
  endfacet
  facet normal 0.992016 -0.12611 0
    outer loop
      vertex 10.6872 19.8828 5
      vertex 11.4501 25.884 0
      vertex 11.4501 25.884 5
    endloop
  endfacet
  facet normal 0.992016 -0.12611 0
    outer loop
      vertex 11.4501 25.884 0
      vertex 10.6872 19.8828 5
      vertex 10.6872 19.8828 0
    endloop
  endfacet
  facet normal 0.881781 -0.471659 0
    outer loop
      vertex 11.4501 25.884 5
      vertex 13.7388 30.1628 0
      vertex 13.7388 30.1628 5
    endloop
  endfacet
  facet normal 0.881781 -0.471659 0
    outer loop
      vertex 13.7388 30.1628 0
      vertex 11.4501 25.884 5
      vertex 11.4501 25.884 0
    endloop
  endfacet
  facet normal 0.589124 -0.808043 0
    outer loop
      vertex 13.7388 30.1628 0
      vertex 17.2549 32.7263 5
      vertex 13.7388 30.1628 5
    endloop
  endfacet
  facet normal 0.589124 -0.808043 0
    outer loop
      vertex 17.2549 32.7263 5
      vertex 13.7388 30.1628 0
      vertex 17.2549 32.7263 0
    endloop
  endfacet
  facet normal 0.188778 -0.98202 0
    outer loop
      vertex 17.2549 32.7263 0
      vertex 21.7 33.5808 5
      vertex 17.2549 32.7263 5
    endloop
  endfacet
  facet normal 0.188778 -0.98202 0
    outer loop
      vertex 21.7 33.5808 5
      vertex 17.2549 32.7263 0
      vertex 21.7 33.5808 0
    endloop
  endfacet
  facet normal -0.188192 -0.982132 0
    outer loop
      vertex 21.7 33.5808 0
      vertex 26.1417 32.7297 5
      vertex 21.7 33.5808 5
    endloop
  endfacet
  facet normal -0.188192 -0.982132 -0
    outer loop
      vertex 26.1417 32.7297 5
      vertex 21.7 33.5808 0
      vertex 26.1417 32.7297 0
    endloop
  endfacet
  facet normal -0.588708 -0.808346 0
    outer loop
      vertex 26.1417 32.7297 0
      vertex 29.6476 30.1764 5
      vertex 26.1417 32.7297 5
    endloop
  endfacet
  facet normal -0.588708 -0.808346 -0
    outer loop
      vertex 29.6476 30.1764 5
      vertex 26.1417 32.7297 0
      vertex 29.6476 30.1764 0
    endloop
  endfacet
  facet normal -0.8825 -0.470313 0
    outer loop
      vertex 31.9261 25.901 0
      vertex 29.6476 30.1764 5
      vertex 29.6476 30.1764 0
    endloop
  endfacet
  facet normal -0.8825 -0.470313 0
    outer loop
      vertex 29.6476 30.1764 5
      vertex 31.9261 25.901 0
      vertex 31.9261 25.901 5
    endloop
  endfacet
  facet normal -0.992131 -0.125207 0
    outer loop
      vertex 32.6856 19.8828 0
      vertex 31.9261 25.901 5
      vertex 31.9261 25.901 0
    endloop
  endfacet
  facet normal -0.992131 -0.125207 0
    outer loop
      vertex 31.9261 25.901 5
      vertex 32.6856 19.8828 0
      vertex 32.6856 19.8828 5
    endloop
  endfacet
  facet normal -0.998118 0.0613158 0
    outer loop
      vertex 32.4923 16.7362 0
      vertex 32.6856 19.8828 5
      vertex 32.6856 19.8828 0
    endloop
  endfacet
  facet normal -0.998118 0.0613158 0
    outer loop
      vertex 32.6856 19.8828 5
      vertex 32.4923 16.7362 0
      vertex 32.4923 16.7362 5
    endloop
  endfacet
  facet normal -0.978737 0.205121 0
    outer loop
      vertex 31.9124 13.9692 0
      vertex 32.4923 16.7362 5
      vertex 32.4923 16.7362 0
    endloop
  endfacet
  facet normal -0.978737 0.205121 0
    outer loop
      vertex 32.4923 16.7362 5
      vertex 31.9124 13.9692 0
      vertex 31.9124 13.9692 5
    endloop
  endfacet
  facet normal -0.926937 0.375217 0
    outer loop
      vertex 30.9462 11.5823 0
      vertex 31.9124 13.9692 5
      vertex 31.9124 13.9692 0
    endloop
  endfacet
  facet normal -0.926937 0.375217 0
    outer loop
      vertex 31.9124 13.9692 5
      vertex 30.9462 11.5823 0
      vertex 30.9462 11.5823 5
    endloop
  endfacet
  facet normal -0.829192 0.558964 0
    outer loop
      vertex 29.5932 9.5752 0
      vertex 30.9462 11.5823 5
      vertex 30.9462 11.5823 0
    endloop
  endfacet
  facet normal -0.829192 0.558964 0
    outer loop
      vertex 30.9462 11.5823 5
      vertex 29.5932 9.5752 0
      vertex 29.5932 9.5752 5
    endloop
  endfacet
  facet normal 0.54037 0.841428 -0
    outer loop
      vertex 29.5932 9.5752 0
      vertex 25.8975 11.9486 5
      vertex 29.5932 9.5752 5
    endloop
  endfacet
  facet normal 0.54037 0.841428 0
    outer loop
      vertex 25.8975 11.9486 5
      vertex 29.5932 9.5752 0
      vertex 25.8975 11.9486 0
    endloop
  endfacet
  facet normal 0.401106 0.916032 -0
    outer loop
      vertex 25.8975 11.9486 0
      vertex 22.0256 13.644 5
      vertex 25.8975 11.9486 5
    endloop
  endfacet
  facet normal 0.401106 0.916032 0
    outer loop
      vertex 22.0256 13.644 5
      vertex 25.8975 11.9486 0
      vertex 22.0256 13.644 0
    endloop
  endfacet
  facet normal -0.897585 0.440842 0
    outer loop
      vertex 19.774 9.05959 0
      vertex 22.0256 13.644 5
      vertex 22.0256 13.644 0
    endloop
  endfacet
  facet normal -0.897585 0.440842 0
    outer loop
      vertex 22.0256 13.644 5
      vertex 19.774 9.05959 0
      vertex 19.774 9.05959 5
    endloop
  endfacet
  facet normal -0.393529 -0.919312 0
    outer loop
      vertex 19.774 9.05959 0
      vertex 22.2764 7.98839 5
      vertex 19.774 9.05959 5
    endloop
  endfacet
  facet normal -0.393529 -0.919312 -0
    outer loop
      vertex 22.2764 7.98839 5
      vertex 19.774 9.05959 0
      vertex 22.2764 7.98839 0
    endloop
  endfacet
  facet normal -0.500737 -0.8656 0
    outer loop
      vertex 22.2764 7.98839 0
      vertex 24.738 6.56439 5
      vertex 22.2764 7.98839 5
    endloop
  endfacet
  facet normal -0.500737 -0.8656 -0
    outer loop
      vertex 24.738 6.56439 5
      vertex 22.2764 7.98839 0
      vertex 24.738 6.56439 0
    endloop
  endfacet
  facet normal -0.258945 0.965892 0
    outer loop
      vertex 24.738 6.56439 0
      vertex 23.1445 6.13719 5
      vertex 24.738 6.56439 5
    endloop
  endfacet
  facet normal -0.258945 0.965892 0
    outer loop
      vertex 23.1445 6.13719 5
      vertex 24.738 6.56439 0
      vertex 23.1445 6.13719 0
    endloop
  endfacet
  facet normal -0.084031 0.996463 0
    outer loop
      vertex 23.1445 6.13719 0
      vertex 21.456 5.9948 5
      vertex 23.1445 6.13719 5
    endloop
  endfacet
  facet normal -0.084031 0.996463 0
    outer loop
      vertex 21.456 5.9948 5
      vertex 23.1445 6.13719 0
      vertex 21.456 5.9948 0
    endloop
  endfacet
  facet normal 0.198806 0.980039 -0
    outer loop
      vertex 21.456 5.9948 0
      vertex 17.1939 6.85939 5
      vertex 21.456 5.9948 5
    endloop
  endfacet
  facet normal 0.198806 0.980039 0
    outer loop
      vertex 17.1939 6.85939 5
      vertex 21.456 5.9948 0
      vertex 17.1939 6.85939 0
    endloop
  endfacet
  facet normal -0.999493 -0.031831 0
    outer loop
      vertex 22.88 36.771 0
      vertex 22.878 36.8338 2
      vertex 22.878 36.8338 0
    endloop
  endfacet
  facet normal -0.999493 -0.031831 0
    outer loop
      vertex 22.878 36.8338 2
      vertex 22.88 36.771 0
      vertex 22.88 36.771 2
    endloop
  endfacet
  facet normal 0.999493 -0.031831 0
    outer loop
      vertex 20.88 36.771 2
      vertex 20.882 36.8338 0
      vertex 20.882 36.8338 2
    endloop
  endfacet
  facet normal 0.999493 -0.031831 0
    outer loop
      vertex 20.882 36.8338 0
      vertex 20.88 36.771 2
      vertex 20.88 36.771 0
    endloop
  endfacet
  facet normal -0.031831 -0.999493 0
    outer loop
      vertex 21.88 37.771 0
      vertex 21.9428 37.769 2
      vertex 21.88 37.771 2
    endloop
  endfacet
  facet normal -0.031831 -0.999493 -0
    outer loop
      vertex 21.9428 37.769 2
      vertex 21.88 37.771 0
      vertex 21.9428 37.769 0
    endloop
  endfacet
  facet normal -0.031831 0.999493 0
    outer loop
      vertex 21.9428 35.773 0
      vertex 21.88 35.771 2
      vertex 21.9428 35.773 2
    endloop
  endfacet
  facet normal -0.031831 0.999493 0
    outer loop
      vertex 21.88 35.771 2
      vertex 21.9428 35.773 0
      vertex 21.88 35.771 0
    endloop
  endfacet
  facet normal -0.707107 -0.707107 0
    outer loop
      vertex 22.609 37.4555 0
      vertex 22.5645 37.5 2
      vertex 22.5645 37.5 0
    endloop
  endfacet
  facet normal -0.707107 -0.707107 0
    outer loop
      vertex 22.5645 37.5 2
      vertex 22.609 37.4555 0
      vertex 22.609 37.4555 2
    endloop
  endfacet
  facet normal 0.661095 -0.750303 0
    outer loop
      vertex 21.1955 37.5 0
      vertex 21.2426 37.5415 2
      vertex 21.1955 37.5 2
    endloop
  endfacet
  facet normal 0.661095 -0.750303 0
    outer loop
      vertex 21.2426 37.5415 2
      vertex 21.1955 37.5 0
      vertex 21.2426 37.5415 0
    endloop
  endfacet
  facet normal 0.339058 -0.940766 0
    outer loop
      vertex 21.5119 37.7008 0
      vertex 21.571 37.7221 2
      vertex 21.5119 37.7008 2
    endloop
  endfacet
  facet normal 0.339058 -0.940766 0
    outer loop
      vertex 21.571 37.7221 2
      vertex 21.5119 37.7008 0
      vertex 21.571 37.7221 0
    endloop
  endfacet
  facet normal -0.917575 -0.397563 0
    outer loop
      vertex 22.8098 37.1391 0
      vertex 22.7848 37.1968 2
      vertex 22.7848 37.1968 0
    endloop
  endfacet
  facet normal -0.917575 -0.397563 0
    outer loop
      vertex 22.7848 37.1968 2
      vertex 22.8098 37.1391 0
      vertex 22.8098 37.1391 2
    endloop
  endfacet
  facet normal -0.397563 -0.917575 0
    outer loop
      vertex 22.2481 37.7008 0
      vertex 22.3058 37.6758 2
      vertex 22.2481 37.7008 2
    endloop
  endfacet
  facet normal -0.397563 -0.917575 -0
    outer loop
      vertex 22.3058 37.6758 2
      vertex 22.2481 37.7008 0
      vertex 22.3058 37.6758 0
    endloop
  endfacet
  facet normal -0.561657 -0.82737 0
    outer loop
      vertex 22.4158 37.6153 0
      vertex 22.4678 37.58 2
      vertex 22.4158 37.6153 2
    endloop
  endfacet
  facet normal -0.561657 -0.82737 -0
    outer loop
      vertex 22.4678 37.58 2
      vertex 22.4158 37.6153 0
      vertex 22.4678 37.58 0
    endloop
  endfacet
  facet normal 0.891222 -0.453568 0
    outer loop
      vertex 20.9752 37.1968 2
      vertex 21.0037 37.2528 0
      vertex 21.0037 37.2528 2
    endloop
  endfacet
  facet normal 0.891222 -0.453568 0
    outer loop
      vertex 21.0037 37.2528 0
      vertex 20.9752 37.1968 2
      vertex 20.9752 37.1968 0
    endloop
  endfacet
  facet normal 0.155881 -0.987776 0
    outer loop
      vertex 21.6926 37.7533 0
      vertex 21.7547 37.7631 2
      vertex 21.6926 37.7533 2
    endloop
  endfacet
  facet normal 0.155881 -0.987776 0
    outer loop
      vertex 21.7547 37.7631 2
      vertex 21.6926 37.7533 0
      vertex 21.7547 37.7631 0
    endloop
  endfacet
  facet normal -0.975924 -0.21811 0
    outer loop
      vertex 22.8623 36.9584 0
      vertex 22.8486 37.0197 2
      vertex 22.8486 37.0197 0
    endloop
  endfacet
  facet normal -0.975924 -0.21811 0
    outer loop
      vertex 22.8486 37.0197 2
      vertex 22.8623 36.9584 0
      vertex 22.8623 36.9584 2
    endloop
  endfacet
  facet normal -0.995574 -0.0939822 0
    outer loop
      vertex 22.878 36.8338 0
      vertex 22.8721 36.8963 2
      vertex 22.8721 36.8963 0
    endloop
  endfacet
  facet normal -0.995574 -0.0939822 0
    outer loop
      vertex 22.8721 36.8963 2
      vertex 22.878 36.8338 0
      vertex 22.878 36.8338 2
    endloop
  endfacet
  facet normal -0.82737 -0.561657 0
    outer loop
      vertex 22.7243 37.3068 0
      vertex 22.689 37.3588 2
      vertex 22.689 37.3588 0
    endloop
  endfacet
  facet normal -0.82737 -0.561657 0
    outer loop
      vertex 22.689 37.3588 2
      vertex 22.7243 37.3068 0
      vertex 22.7243 37.3068 2
    endloop
  endfacet
  facet normal -0.789952 -0.613168 0
    outer loop
      vertex 22.689 37.3588 0
      vertex 22.6505 37.4084 2
      vertex 22.6505 37.4084 0
    endloop
  endfacet
  facet normal -0.789952 -0.613168 0
    outer loop
      vertex 22.6505 37.4084 2
      vertex 22.689 37.3588 0
      vertex 22.689 37.3588 2
    endloop
  endfacet
  facet normal -0.891222 -0.453568 0
    outer loop
      vertex 22.7848 37.1968 0
      vertex 22.7563 37.2528 2
      vertex 22.7563 37.2528 0
    endloop
  endfacet
  facet normal -0.891222 -0.453568 0
    outer loop
      vertex 22.7563 37.2528 2
      vertex 22.7848 37.1968 0
      vertex 22.7848 37.1968 2
    endloop
  endfacet
  facet normal -0.21811 -0.975924 0
    outer loop
      vertex 22.0674 37.7533 0
      vertex 22.1287 37.7396 2
      vertex 22.0674 37.7533 2
    endloop
  endfacet
  facet normal -0.21811 -0.975924 -0
    outer loop
      vertex 22.1287 37.7396 2
      vertex 22.0674 37.7533 0
      vertex 22.1287 37.7396 0
    endloop
  endfacet
  facet normal -0.155881 -0.987776 0
    outer loop
      vertex 22.0053 37.7631 0
      vertex 22.0674 37.7533 2
      vertex 22.0053 37.7631 2
    endloop
  endfacet
  facet normal -0.155881 -0.987776 -0
    outer loop
      vertex 22.0674 37.7533 2
      vertex 22.0053 37.7631 0
      vertex 22.0674 37.7533 0
    endloop
  endfacet
  facet normal -0.509802 -0.860292 0
    outer loop
      vertex 22.3618 37.6473 0
      vertex 22.4158 37.6153 2
      vertex 22.3618 37.6473 2
    endloop
  endfacet
  facet normal -0.509802 -0.860292 -0
    outer loop
      vertex 22.4158 37.6153 2
      vertex 22.3618 37.6473 0
      vertex 22.4158 37.6153 0
    endloop
  endfacet
  facet normal -0.661095 -0.750303 0
    outer loop
      vertex 22.5174 37.5415 0
      vertex 22.5645 37.5 2
      vertex 22.5174 37.5415 2
    endloop
  endfacet
  facet normal -0.661095 -0.750303 -0
    outer loop
      vertex 22.5645 37.5 2
      vertex 22.5174 37.5415 0
      vertex 22.5645 37.5 0
    endloop
  endfacet
  facet normal 0.960374 -0.278715 0
    outer loop
      vertex 20.9114 37.0197 2
      vertex 20.9289 37.08 0
      vertex 20.9289 37.08 2
    endloop
  endfacet
  facet normal 0.960374 -0.278715 0
    outer loop
      vertex 20.9289 37.08 0
      vertex 20.9114 37.0197 2
      vertex 20.9114 37.0197 0
    endloop
  endfacet
  facet normal 0.789952 -0.613168 0
    outer loop
      vertex 21.071 37.3588 2
      vertex 21.1095 37.4084 0
      vertex 21.1095 37.4084 2
    endloop
  endfacet
  facet normal 0.789952 -0.613168 0
    outer loop
      vertex 21.1095 37.4084 0
      vertex 21.071 37.3588 2
      vertex 21.071 37.3588 0
    endloop
  endfacet
  facet normal 0.707107 -0.707107 0
    outer loop
      vertex 21.151 37.4555 2
      vertex 21.1955 37.5 0
      vertex 21.1955 37.5 2
    endloop
  endfacet
  facet normal 0.707107 -0.707107 0
    outer loop
      vertex 21.1955 37.5 0
      vertex 21.151 37.4555 2
      vertex 21.151 37.4555 0
    endloop
  endfacet
  facet normal 0.82737 -0.561657 0
    outer loop
      vertex 21.0357 37.3068 2
      vertex 21.071 37.3588 0
      vertex 21.071 37.3588 2
    endloop
  endfacet
  facet normal 0.82737 -0.561657 0
    outer loop
      vertex 21.071 37.3588 0
      vertex 21.0357 37.3068 2
      vertex 21.0357 37.3068 0
    endloop
  endfacet
  facet normal 0.509802 -0.860292 0
    outer loop
      vertex 21.3442 37.6153 0
      vertex 21.3982 37.6473 2
      vertex 21.3442 37.6153 2
    endloop
  endfacet
  facet normal 0.509802 -0.860292 0
    outer loop
      vertex 21.3982 37.6473 2
      vertex 21.3442 37.6153 0
      vertex 21.3982 37.6473 0
    endloop
  endfacet
  facet normal 0.397563 -0.917575 0
    outer loop
      vertex 21.4542 37.6758 0
      vertex 21.5119 37.7008 2
      vertex 21.4542 37.6758 2
    endloop
  endfacet
  facet normal 0.397563 -0.917575 0
    outer loop
      vertex 21.5119 37.7008 2
      vertex 21.4542 37.6758 0
      vertex 21.5119 37.7008 0
    endloop
  endfacet
  facet normal 0.21811 -0.975924 0
    outer loop
      vertex 21.6313 37.7396 0
      vertex 21.6926 37.7533 2
      vertex 21.6313 37.7396 2
    endloop
  endfacet
  facet normal 0.21811 -0.975924 0
    outer loop
      vertex 21.6926 37.7533 2
      vertex 21.6313 37.7396 0
      vertex 21.6926 37.7533 0
    endloop
  endfacet
  facet normal 0.0939822 -0.995574 0
    outer loop
      vertex 21.7547 37.7631 0
      vertex 21.8172 37.769 2
      vertex 21.7547 37.7631 2
    endloop
  endfacet
  facet normal 0.0939822 -0.995574 0
    outer loop
      vertex 21.8172 37.769 2
      vertex 21.7547 37.7631 0
      vertex 21.8172 37.769 0
    endloop
  endfacet
  facet normal -0.995574 0.0939822 0
    outer loop
      vertex 22.8721 36.6457 0
      vertex 22.878 36.7082 2
      vertex 22.878 36.7082 0
    endloop
  endfacet
  facet normal -0.995574 0.0939822 0
    outer loop
      vertex 22.878 36.7082 2
      vertex 22.8721 36.6457 0
      vertex 22.8721 36.6457 2
    endloop
  endfacet
  facet normal -0.750303 0.661095 0
    outer loop
      vertex 22.609 36.0865 0
      vertex 22.6505 36.1336 2
      vertex 22.6505 36.1336 0
    endloop
  endfacet
  facet normal -0.750303 0.661095 0
    outer loop
      vertex 22.6505 36.1336 2
      vertex 22.609 36.0865 0
      vertex 22.609 36.0865 2
    endloop
  endfacet
  facet normal -0.987776 -0.155881 0
    outer loop
      vertex 22.8721 36.8963 0
      vertex 22.8623 36.9584 2
      vertex 22.8623 36.9584 0
    endloop
  endfacet
  facet normal -0.987776 -0.155881 0
    outer loop
      vertex 22.8623 36.9584 2
      vertex 22.8721 36.8963 0
      vertex 22.8721 36.8963 2
    endloop
  endfacet
  facet normal -0.940766 -0.339058 0
    outer loop
      vertex 22.8311 37.08 0
      vertex 22.8098 37.1391 2
      vertex 22.8098 37.1391 0
    endloop
  endfacet
  facet normal -0.940766 -0.339058 0
    outer loop
      vertex 22.8098 37.1391 2
      vertex 22.8311 37.08 0
      vertex 22.8311 37.08 2
    endloop
  endfacet
  facet normal -0.960374 -0.278715 0
    outer loop
      vertex 22.8486 37.0197 0
      vertex 22.8311 37.08 2
      vertex 22.8311 37.08 0
    endloop
  endfacet
  facet normal -0.960374 -0.278715 0
    outer loop
      vertex 22.8311 37.08 2
      vertex 22.8486 37.0197 0
      vertex 22.8486 37.0197 2
    endloop
  endfacet
  facet normal -0.750303 -0.661095 0
    outer loop
      vertex 22.6505 37.4084 0
      vertex 22.609 37.4555 2
      vertex 22.609 37.4555 0
    endloop
  endfacet
  facet normal -0.750303 -0.661095 0
    outer loop
      vertex 22.609 37.4555 2
      vertex 22.6505 37.4084 0
      vertex 22.6505 37.4084 2
    endloop
  endfacet
  facet normal -0.860292 -0.509802 0
    outer loop
      vertex 22.7563 37.2528 0
      vertex 22.7243 37.3068 2
      vertex 22.7243 37.3068 0
    endloop
  endfacet
  facet normal -0.860292 -0.509802 0
    outer loop
      vertex 22.7243 37.3068 2
      vertex 22.7563 37.2528 0
      vertex 22.7563 37.2528 2
    endloop
  endfacet
  facet normal -0.278715 -0.960374 0
    outer loop
      vertex 22.1287 37.7396 0
      vertex 22.189 37.7221 2
      vertex 22.1287 37.7396 2
    endloop
  endfacet
  facet normal -0.278715 -0.960374 -0
    outer loop
      vertex 22.189 37.7221 2
      vertex 22.1287 37.7396 0
      vertex 22.189 37.7221 0
    endloop
  endfacet
  facet normal -0.339058 -0.940766 0
    outer loop
      vertex 22.189 37.7221 0
      vertex 22.2481 37.7008 2
      vertex 22.189 37.7221 2
    endloop
  endfacet
  facet normal -0.339058 -0.940766 -0
    outer loop
      vertex 22.2481 37.7008 2
      vertex 22.189 37.7221 0
      vertex 22.2481 37.7008 0
    endloop
  endfacet
  facet normal -0.0939822 -0.995574 0
    outer loop
      vertex 21.9428 37.769 0
      vertex 22.0053 37.7631 2
      vertex 21.9428 37.769 2
    endloop
  endfacet
  facet normal -0.0939822 -0.995574 -0
    outer loop
      vertex 22.0053 37.7631 2
      vertex 21.9428 37.769 0
      vertex 22.0053 37.7631 0
    endloop
  endfacet
  facet normal -0.453568 -0.891222 0
    outer loop
      vertex 22.3058 37.6758 0
      vertex 22.3618 37.6473 2
      vertex 22.3058 37.6758 2
    endloop
  endfacet
  facet normal -0.453568 -0.891222 -0
    outer loop
      vertex 22.3618 37.6473 2
      vertex 22.3058 37.6758 0
      vertex 22.3618 37.6473 0
    endloop
  endfacet
  facet normal -0.613168 -0.789952 0
    outer loop
      vertex 22.4678 37.58 0
      vertex 22.5174 37.5415 2
      vertex 22.4678 37.58 2
    endloop
  endfacet
  facet normal -0.613168 -0.789952 -0
    outer loop
      vertex 22.5174 37.5415 2
      vertex 22.4678 37.58 0
      vertex 22.5174 37.5415 0
    endloop
  endfacet
  facet normal 0.987776 -0.155881 0
    outer loop
      vertex 20.8879 36.8963 2
      vertex 20.8977 36.9584 0
      vertex 20.8977 36.9584 2
    endloop
  endfacet
  facet normal 0.987776 -0.155881 0
    outer loop
      vertex 20.8977 36.9584 0
      vertex 20.8879 36.8963 2
      vertex 20.8879 36.8963 0
    endloop
  endfacet
  facet normal 0.750303 -0.661095 0
    outer loop
      vertex 21.1095 37.4084 2
      vertex 21.151 37.4555 0
      vertex 21.151 37.4555 2
    endloop
  endfacet
  facet normal 0.750303 -0.661095 0
    outer loop
      vertex 21.151 37.4555 0
      vertex 21.1095 37.4084 2
      vertex 21.1095 37.4084 0
    endloop
  endfacet
  facet normal 0.860292 -0.509802 0
    outer loop
      vertex 21.0037 37.2528 2
      vertex 21.0357 37.3068 0
      vertex 21.0357 37.3068 2
    endloop
  endfacet
  facet normal 0.860292 -0.509802 0
    outer loop
      vertex 21.0357 37.3068 0
      vertex 21.0037 37.2528 2
      vertex 21.0037 37.2528 0
    endloop
  endfacet
  facet normal 0.940766 -0.339058 0
    outer loop
      vertex 20.9289 37.08 2
      vertex 20.9502 37.1391 0
      vertex 20.9502 37.1391 2
    endloop
  endfacet
  facet normal 0.940766 -0.339058 0
    outer loop
      vertex 20.9502 37.1391 0
      vertex 20.9289 37.08 2
      vertex 20.9289 37.08 0
    endloop
  endfacet
  facet normal 0.917575 -0.397563 0
    outer loop
      vertex 20.9502 37.1391 2
      vertex 20.9752 37.1968 0
      vertex 20.9752 37.1968 2
    endloop
  endfacet
  facet normal 0.917575 -0.397563 0
    outer loop
      vertex 20.9752 37.1968 0
      vertex 20.9502 37.1391 2
      vertex 20.9502 37.1391 0
    endloop
  endfacet
  facet normal 0.975924 -0.21811 0
    outer loop
      vertex 20.8977 36.9584 2
      vertex 20.9114 37.0197 0
      vertex 20.9114 37.0197 2
    endloop
  endfacet
  facet normal 0.975924 -0.21811 0
    outer loop
      vertex 20.9114 37.0197 0
      vertex 20.8977 36.9584 2
      vertex 20.8977 36.9584 0
    endloop
  endfacet
  facet normal 0.995574 -0.0939822 0
    outer loop
      vertex 20.882 36.8338 2
      vertex 20.8879 36.8963 0
      vertex 20.8879 36.8963 2
    endloop
  endfacet
  facet normal 0.995574 -0.0939822 0
    outer loop
      vertex 20.8879 36.8963 0
      vertex 20.882 36.8338 2
      vertex 20.882 36.8338 0
    endloop
  endfacet
  facet normal 0 0 -1
    outer loop
      vertex 22.878 36.7082 2
      vertex 22.878 36.8338 2
      vertex 22.88 36.771 2
    endloop
  endfacet
  facet normal 0 0 -1
    outer loop
      vertex 22.8721 36.6457 2
      vertex 22.878 36.8338 2
      vertex 22.878 36.7082 2
    endloop
  endfacet
  facet normal 0 0 -1
    outer loop
      vertex 22.8721 36.6457 2
      vertex 22.8721 36.8963 2
      vertex 22.878 36.8338 2
    endloop
  endfacet
  facet normal 0 0 -1
    outer loop
      vertex 22.8623 36.5836 2
      vertex 22.8721 36.8963 2
      vertex 22.8721 36.6457 2
    endloop
  endfacet
  facet normal 0 0 -1
    outer loop
      vertex 22.8623 36.5836 2
      vertex 22.8623 36.9584 2
      vertex 22.8721 36.8963 2
    endloop
  endfacet
  facet normal 0 0 -1
    outer loop
      vertex 22.8486 36.5223 2
      vertex 22.8623 36.9584 2
      vertex 22.8623 36.5836 2
    endloop
  endfacet
  facet normal 0 0 -1
    outer loop
      vertex 22.8486 36.5223 2
      vertex 22.8486 37.0197 2
      vertex 22.8623 36.9584 2
    endloop
  endfacet
  facet normal 0 0 -1
    outer loop
      vertex 22.8311 36.462 2
      vertex 22.8486 37.0197 2
      vertex 22.8486 36.5223 2
    endloop
  endfacet
  facet normal 0 0 -1
    outer loop
      vertex 22.8311 36.462 2
      vertex 22.8311 37.08 2
      vertex 22.8486 37.0197 2
    endloop
  endfacet
  facet normal 0 0 -1
    outer loop
      vertex 22.8098 36.4029 2
      vertex 22.8311 37.08 2
      vertex 22.8311 36.462 2
    endloop
  endfacet
  facet normal 0 0 -1
    outer loop
      vertex 22.8098 36.4029 2
      vertex 22.8098 37.1391 2
      vertex 22.8311 37.08 2
    endloop
  endfacet
  facet normal 0 0 -1
    outer loop
      vertex 22.7848 36.3452 2
      vertex 22.8098 37.1391 2
      vertex 22.8098 36.4029 2
    endloop
  endfacet
  facet normal 0 0 -1
    outer loop
      vertex 22.7848 36.3452 2
      vertex 22.7848 37.1968 2
      vertex 22.8098 37.1391 2
    endloop
  endfacet
  facet normal 0 0 -1
    outer loop
      vertex 22.7563 36.2892 2
      vertex 22.7848 37.1968 2
      vertex 22.7848 36.3452 2
    endloop
  endfacet
  facet normal 0 0 -1
    outer loop
      vertex 22.7563 36.2892 2
      vertex 22.7563 37.2528 2
      vertex 22.7848 37.1968 2
    endloop
  endfacet
  facet normal 0 0 -1
    outer loop
      vertex 22.7243 36.2352 2
      vertex 22.7563 37.2528 2
      vertex 22.7563 36.2892 2
    endloop
  endfacet
  facet normal 0 0 -1
    outer loop
      vertex 22.7243 36.2352 2
      vertex 22.7243 37.3068 2
      vertex 22.7563 37.2528 2
    endloop
  endfacet
  facet normal 0 0 -1
    outer loop
      vertex 22.689 36.1832 2
      vertex 22.7243 37.3068 2
      vertex 22.7243 36.2352 2
    endloop
  endfacet
  facet normal 0 0 -1
    outer loop
      vertex 22.689 36.1832 2
      vertex 22.689 37.3588 2
      vertex 22.7243 37.3068 2
    endloop
  endfacet
  facet normal 0 0 -1
    outer loop
      vertex 22.6505 36.1336 2
      vertex 22.689 37.3588 2
      vertex 22.689 36.1832 2
    endloop
  endfacet
  facet normal 0 0 -1
    outer loop
      vertex 22.6505 36.1336 2
      vertex 22.6505 37.4084 2
      vertex 22.689 37.3588 2
    endloop
  endfacet
  facet normal 0 0 -1
    outer loop
      vertex 22.609 36.0865 2
      vertex 22.6505 37.4084 2
      vertex 22.6505 36.1336 2
    endloop
  endfacet
  facet normal 0 0 -1
    outer loop
      vertex 22.609 36.0865 2
      vertex 22.609 37.4555 2
      vertex 22.6505 37.4084 2
    endloop
  endfacet
  facet normal 0 0 -1
    outer loop
      vertex 22.5645 36.042 2
      vertex 22.609 37.4555 2
      vertex 22.609 36.0865 2
    endloop
  endfacet
  facet normal 0 0 -1
    outer loop
      vertex 22.5645 36.042 2
      vertex 22.5645 37.5 2
      vertex 22.609 37.4555 2
    endloop
  endfacet
  facet normal 0 0 -1
    outer loop
      vertex 22.5174 36.0005 2
      vertex 22.5645 37.5 2
      vertex 22.5645 36.042 2
    endloop
  endfacet
  facet normal 0 0 -1
    outer loop
      vertex 22.5174 36.0005 2
      vertex 22.5174 37.5415 2
      vertex 22.5645 37.5 2
    endloop
  endfacet
  facet normal 0 0 -1
    outer loop
      vertex 22.4678 35.962 2
      vertex 22.5174 37.5415 2
      vertex 22.5174 36.0005 2
    endloop
  endfacet
  facet normal 0 0 -1
    outer loop
      vertex 22.4678 35.962 2
      vertex 22.4678 37.58 2
      vertex 22.5174 37.5415 2
    endloop
  endfacet
  facet normal 0 0 -1
    outer loop
      vertex 22.4158 35.9267 2
      vertex 22.4678 37.58 2
      vertex 22.4678 35.962 2
    endloop
  endfacet
  facet normal 0 0 -1
    outer loop
      vertex 22.4158 35.9267 2
      vertex 22.4158 37.6153 2
      vertex 22.4678 37.58 2
    endloop
  endfacet
  facet normal 0 0 -1
    outer loop
      vertex 22.3618 35.8947 2
      vertex 22.4158 37.6153 2
      vertex 22.4158 35.9267 2
    endloop
  endfacet
  facet normal 0 0 -1
    outer loop
      vertex 22.3618 35.8947 2
      vertex 22.3618 37.6473 2
      vertex 22.4158 37.6153 2
    endloop
  endfacet
  facet normal 0 0 -1
    outer loop
      vertex 22.3058 35.8662 2
      vertex 22.3618 37.6473 2
      vertex 22.3618 35.8947 2
    endloop
  endfacet
  facet normal 0 0 -1
    outer loop
      vertex 22.3058 35.8662 2
      vertex 22.3058 37.6758 2
      vertex 22.3618 37.6473 2
    endloop
  endfacet
  facet normal 0 0 -1
    outer loop
      vertex 22.2481 35.8412 2
      vertex 22.3058 37.6758 2
      vertex 22.3058 35.8662 2
    endloop
  endfacet
  facet normal 0 0 -1
    outer loop
      vertex 22.2481 35.8412 2
      vertex 22.2481 37.7008 2
      vertex 22.3058 37.6758 2
    endloop
  endfacet
  facet normal 0 0 -1
    outer loop
      vertex 22.189 35.8199 2
      vertex 22.2481 37.7008 2
      vertex 22.2481 35.8412 2
    endloop
  endfacet
  facet normal 0 0 -1
    outer loop
      vertex 22.189 35.8199 2
      vertex 22.189 37.7221 2
      vertex 22.2481 37.7008 2
    endloop
  endfacet
  facet normal 0 0 -1
    outer loop
      vertex 22.1287 35.8024 2
      vertex 22.189 37.7221 2
      vertex 22.189 35.8199 2
    endloop
  endfacet
  facet normal 0 0 -1
    outer loop
      vertex 22.1287 35.8024 2
      vertex 22.1287 37.7396 2
      vertex 22.189 37.7221 2
    endloop
  endfacet
  facet normal 0 0 -1
    outer loop
      vertex 22.0674 35.7887 2
      vertex 22.1287 37.7396 2
      vertex 22.1287 35.8024 2
    endloop
  endfacet
  facet normal 0 0 -1
    outer loop
      vertex 22.0674 35.7887 2
      vertex 22.0674 37.7533 2
      vertex 22.1287 37.7396 2
    endloop
  endfacet
  facet normal 0 0 -1
    outer loop
      vertex 22.0053 35.7789 2
      vertex 22.0674 37.7533 2
      vertex 22.0674 35.7887 2
    endloop
  endfacet
  facet normal 0 0 -1
    outer loop
      vertex 22.0053 35.7789 2
      vertex 22.0053 37.7631 2
      vertex 22.0674 37.7533 2
    endloop
  endfacet
  facet normal 0 0 -1
    outer loop
      vertex 21.9428 35.773 2
      vertex 22.0053 37.7631 2
      vertex 22.0053 35.7789 2
    endloop
  endfacet
  facet normal 0 0 -1
    outer loop
      vertex 21.9428 35.773 2
      vertex 21.9428 37.769 2
      vertex 22.0053 37.7631 2
    endloop
  endfacet
  facet normal 0 0 -1
    outer loop
      vertex 21.88 35.771 2
      vertex 21.9428 37.769 2
      vertex 21.9428 35.773 2
    endloop
  endfacet
  facet normal 0 0 -1
    outer loop
      vertex 21.88 35.771 2
      vertex 21.88 37.771 2
      vertex 21.9428 37.769 2
    endloop
  endfacet
  facet normal 0 0 -1
    outer loop
      vertex 21.8172 35.773 2
      vertex 21.88 37.771 2
      vertex 21.88 35.771 2
    endloop
  endfacet
  facet normal 0 0 -1
    outer loop
      vertex 21.8172 35.773 2
      vertex 21.8172 37.769 2
      vertex 21.88 37.771 2
    endloop
  endfacet
  facet normal 0 0 -1
    outer loop
      vertex 21.7547 35.7789 2
      vertex 21.8172 37.769 2
      vertex 21.8172 35.773 2
    endloop
  endfacet
  facet normal 0 0 -1
    outer loop
      vertex 21.7547 35.7789 2
      vertex 21.7547 37.7631 2
      vertex 21.8172 37.769 2
    endloop
  endfacet
  facet normal 0 0 -1
    outer loop
      vertex 21.6926 35.7887 2
      vertex 21.7547 37.7631 2
      vertex 21.7547 35.7789 2
    endloop
  endfacet
  facet normal 0 0 -1
    outer loop
      vertex 21.6926 35.7887 2
      vertex 21.6926 37.7533 2
      vertex 21.7547 37.7631 2
    endloop
  endfacet
  facet normal 0 0 -1
    outer loop
      vertex 21.6313 35.8024 2
      vertex 21.6926 37.7533 2
      vertex 21.6926 35.7887 2
    endloop
  endfacet
  facet normal 0 0 -1
    outer loop
      vertex 21.6313 35.8024 2
      vertex 21.6313 37.7396 2
      vertex 21.6926 37.7533 2
    endloop
  endfacet
  facet normal 0 0 -1
    outer loop
      vertex 21.571 35.8199 2
      vertex 21.6313 37.7396 2
      vertex 21.6313 35.8024 2
    endloop
  endfacet
  facet normal 0 0 -1
    outer loop
      vertex 21.571 35.8199 2
      vertex 21.571 37.7221 2
      vertex 21.6313 37.7396 2
    endloop
  endfacet
  facet normal 0 0 -1
    outer loop
      vertex 21.5119 35.8412 2
      vertex 21.571 37.7221 2
      vertex 21.571 35.8199 2
    endloop
  endfacet
  facet normal 0 0 -1
    outer loop
      vertex 21.5119 35.8412 2
      vertex 21.5119 37.7008 2
      vertex 21.571 37.7221 2
    endloop
  endfacet
  facet normal 0 0 -1
    outer loop
      vertex 21.4542 35.8662 2
      vertex 21.5119 37.7008 2
      vertex 21.5119 35.8412 2
    endloop
  endfacet
  facet normal 0 0 -1
    outer loop
      vertex 21.4542 35.8662 2
      vertex 21.4542 37.6758 2
      vertex 21.5119 37.7008 2
    endloop
  endfacet
  facet normal 0 0 -1
    outer loop
      vertex 21.3982 35.8947 2
      vertex 21.4542 37.6758 2
      vertex 21.4542 35.8662 2
    endloop
  endfacet
  facet normal 0 0 -1
    outer loop
      vertex 21.3982 35.8947 2
      vertex 21.3982 37.6473 2
      vertex 21.4542 37.6758 2
    endloop
  endfacet
  facet normal 0 0 -1
    outer loop
      vertex 21.3442 35.9267 2
      vertex 21.3982 37.6473 2
      vertex 21.3982 35.8947 2
    endloop
  endfacet
  facet normal 0 0 -1
    outer loop
      vertex 21.3442 35.9267 2
      vertex 21.3442 37.6153 2
      vertex 21.3982 37.6473 2
    endloop
  endfacet
  facet normal 0 0 -1
    outer loop
      vertex 21.2922 35.962 2
      vertex 21.3442 37.6153 2
      vertex 21.3442 35.9267 2
    endloop
  endfacet
  facet normal 0 0 -1
    outer loop
      vertex 21.2922 35.962 2
      vertex 21.2922 37.58 2
      vertex 21.3442 37.6153 2
    endloop
  endfacet
  facet normal 0 0 -1
    outer loop
      vertex 21.2426 36.0005 2
      vertex 21.2922 37.58 2
      vertex 21.2922 35.962 2
    endloop
  endfacet
  facet normal 0 0 -1
    outer loop
      vertex 21.2426 36.0005 2
      vertex 21.2426 37.5415 2
      vertex 21.2922 37.58 2
    endloop
  endfacet
  facet normal 0 0 -1
    outer loop
      vertex 21.1955 36.042 2
      vertex 21.2426 37.5415 2
      vertex 21.2426 36.0005 2
    endloop
  endfacet
  facet normal 0 0 -1
    outer loop
      vertex 21.1955 36.042 2
      vertex 21.1955 37.5 2
      vertex 21.2426 37.5415 2
    endloop
  endfacet
  facet normal 0 0 -1
    outer loop
      vertex 21.151 36.0865 2
      vertex 21.1955 37.5 2
      vertex 21.1955 36.042 2
    endloop
  endfacet
  facet normal 0 0 -1
    outer loop
      vertex 21.151 36.0865 2
      vertex 21.151 37.4555 2
      vertex 21.1955 37.5 2
    endloop
  endfacet
  facet normal 0 0 -1
    outer loop
      vertex 21.1095 36.1336 2
      vertex 21.151 37.4555 2
      vertex 21.151 36.0865 2
    endloop
  endfacet
  facet normal 0 0 -1
    outer loop
      vertex 21.1095 36.1336 2
      vertex 21.1095 37.4084 2
      vertex 21.151 37.4555 2
    endloop
  endfacet
  facet normal 0 0 -1
    outer loop
      vertex 21.071 36.1832 2
      vertex 21.1095 37.4084 2
      vertex 21.1095 36.1336 2
    endloop
  endfacet
  facet normal 0 0 -1
    outer loop
      vertex 21.071 36.1832 2
      vertex 21.071 37.3588 2
      vertex 21.1095 37.4084 2
    endloop
  endfacet
  facet normal 0 0 -1
    outer loop
      vertex 21.0357 36.2352 2
      vertex 21.071 37.3588 2
      vertex 21.071 36.1832 2
    endloop
  endfacet
  facet normal 0 0 -1
    outer loop
      vertex 21.0357 36.2352 2
      vertex 21.0357 37.3068 2
      vertex 21.071 37.3588 2
    endloop
  endfacet
  facet normal 0 0 -1
    outer loop
      vertex 21.0037 36.2892 2
      vertex 21.0357 37.3068 2
      vertex 21.0357 36.2352 2
    endloop
  endfacet
  facet normal 0 0 -1
    outer loop
      vertex 21.0037 36.2892 2
      vertex 21.0037 37.2528 2
      vertex 21.0357 37.3068 2
    endloop
  endfacet
  facet normal 0 0 -1
    outer loop
      vertex 20.9752 36.3452 2
      vertex 21.0037 37.2528 2
      vertex 21.0037 36.2892 2
    endloop
  endfacet
  facet normal 0 0 -1
    outer loop
      vertex 20.9752 36.3452 2
      vertex 20.9752 37.1968 2
      vertex 21.0037 37.2528 2
    endloop
  endfacet
  facet normal 0 0 -1
    outer loop
      vertex 20.9502 36.4029 2
      vertex 20.9752 37.1968 2
      vertex 20.9752 36.3452 2
    endloop
  endfacet
  facet normal 0 0 -1
    outer loop
      vertex 20.9502 36.4029 2
      vertex 20.9502 37.1391 2
      vertex 20.9752 37.1968 2
    endloop
  endfacet
  facet normal 0 0 -1
    outer loop
      vertex 20.9289 36.462 2
      vertex 20.9502 37.1391 2
      vertex 20.9502 36.4029 2
    endloop
  endfacet
  facet normal 0 0 -1
    outer loop
      vertex 20.9289 36.462 2
      vertex 20.9289 37.08 2
      vertex 20.9502 37.1391 2
    endloop
  endfacet
  facet normal 0 0 -1
    outer loop
      vertex 20.9114 36.5223 2
      vertex 20.9289 37.08 2
      vertex 20.9289 36.462 2
    endloop
  endfacet
  facet normal 0 0 -1
    outer loop
      vertex 20.9114 36.5223 2
      vertex 20.9114 37.0197 2
      vertex 20.9289 37.08 2
    endloop
  endfacet
  facet normal 0 0 -1
    outer loop
      vertex 20.8977 36.5836 2
      vertex 20.9114 37.0197 2
      vertex 20.9114 36.5223 2
    endloop
  endfacet
  facet normal 0 0 -1
    outer loop
      vertex 20.8977 36.5836 2
      vertex 20.8977 36.9584 2
      vertex 20.9114 37.0197 2
    endloop
  endfacet
  facet normal 0 0 -1
    outer loop
      vertex 20.8879 36.6457 2
      vertex 20.8977 36.9584 2
      vertex 20.8977 36.5836 2
    endloop
  endfacet
  facet normal 0 0 -1
    outer loop
      vertex 20.8879 36.6457 2
      vertex 20.8879 36.8963 2
      vertex 20.8977 36.9584 2
    endloop
  endfacet
  facet normal 0 0 -1
    outer loop
      vertex 20.882 36.7082 2
      vertex 20.8879 36.8963 2
      vertex 20.8879 36.6457 2
    endloop
  endfacet
  facet normal 0 0 -1
    outer loop
      vertex 20.882 36.7082 2
      vertex 20.882 36.8338 2
      vertex 20.8879 36.8963 2
    endloop
  endfacet
  facet normal 0 -0 -1
    outer loop
      vertex 20.882 36.8338 2
      vertex 20.882 36.7082 2
      vertex 20.88 36.771 2
    endloop
  endfacet
  facet normal 0.453568 -0.891222 0
    outer loop
      vertex 21.3982 37.6473 0
      vertex 21.4542 37.6758 2
      vertex 21.3982 37.6473 2
    endloop
  endfacet
  facet normal 0.453568 -0.891222 0
    outer loop
      vertex 21.4542 37.6758 2
      vertex 21.3982 37.6473 0
      vertex 21.4542 37.6758 0
    endloop
  endfacet
  facet normal 0.561657 -0.82737 0
    outer loop
      vertex 21.2922 37.58 0
      vertex 21.3442 37.6153 2
      vertex 21.2922 37.58 2
    endloop
  endfacet
  facet normal 0.561657 -0.82737 0
    outer loop
      vertex 21.3442 37.6153 2
      vertex 21.2922 37.58 0
      vertex 21.3442 37.6153 0
    endloop
  endfacet
  facet normal 0.613168 -0.789952 0
    outer loop
      vertex 21.2426 37.5415 0
      vertex 21.2922 37.58 2
      vertex 21.2426 37.5415 2
    endloop
  endfacet
  facet normal 0.613168 -0.789952 0
    outer loop
      vertex 21.2922 37.58 2
      vertex 21.2426 37.5415 0
      vertex 21.2922 37.58 0
    endloop
  endfacet
  facet normal 0.278715 -0.960374 0
    outer loop
      vertex 21.571 37.7221 0
      vertex 21.6313 37.7396 2
      vertex 21.571 37.7221 2
    endloop
  endfacet
  facet normal 0.278715 -0.960374 0
    outer loop
      vertex 21.6313 37.7396 2
      vertex 21.571 37.7221 0
      vertex 21.6313 37.7396 0
    endloop
  endfacet
  facet normal 0.031831 -0.999493 0
    outer loop
      vertex 21.8172 37.769 0
      vertex 21.88 37.771 2
      vertex 21.8172 37.769 2
    endloop
  endfacet
  facet normal 0.031831 -0.999493 0
    outer loop
      vertex 21.88 37.771 2
      vertex 21.8172 37.769 0
      vertex 21.88 37.771 0
    endloop
  endfacet
  facet normal -0.999493 0.031831 0
    outer loop
      vertex 22.878 36.7082 0
      vertex 22.88 36.771 2
      vertex 22.88 36.771 0
    endloop
  endfacet
  facet normal -0.999493 0.031831 0
    outer loop
      vertex 22.88 36.771 2
      vertex 22.878 36.7082 0
      vertex 22.878 36.7082 2
    endloop
  endfacet
  facet normal -0.940766 0.339058 0
    outer loop
      vertex 22.8098 36.4029 0
      vertex 22.8311 36.462 2
      vertex 22.8311 36.462 0
    endloop
  endfacet
  facet normal -0.940766 0.339058 0
    outer loop
      vertex 22.8311 36.462 2
      vertex 22.8098 36.4029 0
      vertex 22.8098 36.4029 2
    endloop
  endfacet
  facet normal -0.987776 0.155881 0
    outer loop
      vertex 22.8623 36.5836 0
      vertex 22.8721 36.6457 2
      vertex 22.8721 36.6457 0
    endloop
  endfacet
  facet normal -0.987776 0.155881 0
    outer loop
      vertex 22.8721 36.6457 2
      vertex 22.8623 36.5836 0
      vertex 22.8623 36.5836 2
    endloop
  endfacet
  facet normal -0.789952 0.613168 0
    outer loop
      vertex 22.6505 36.1336 0
      vertex 22.689 36.1832 2
      vertex 22.689 36.1832 0
    endloop
  endfacet
  facet normal -0.789952 0.613168 0
    outer loop
      vertex 22.689 36.1832 2
      vertex 22.6505 36.1336 0
      vertex 22.6505 36.1336 2
    endloop
  endfacet
  facet normal -0.21811 0.975924 0
    outer loop
      vertex 22.1287 35.8024 0
      vertex 22.0674 35.7887 2
      vertex 22.1287 35.8024 2
    endloop
  endfacet
  facet normal -0.21811 0.975924 0
    outer loop
      vertex 22.0674 35.7887 2
      vertex 22.1287 35.8024 0
      vertex 22.0674 35.7887 0
    endloop
  endfacet
  facet normal -0.397563 0.917575 0
    outer loop
      vertex 22.3058 35.8662 0
      vertex 22.2481 35.8412 2
      vertex 22.3058 35.8662 2
    endloop
  endfacet
  facet normal -0.397563 0.917575 0
    outer loop
      vertex 22.2481 35.8412 2
      vertex 22.3058 35.8662 0
      vertex 22.2481 35.8412 0
    endloop
  endfacet
  facet normal -0.960374 0.278715 0
    outer loop
      vertex 22.8311 36.462 0
      vertex 22.8486 36.5223 2
      vertex 22.8486 36.5223 0
    endloop
  endfacet
  facet normal -0.960374 0.278715 0
    outer loop
      vertex 22.8486 36.5223 2
      vertex 22.8311 36.462 0
      vertex 22.8311 36.462 2
    endloop
  endfacet
  facet normal -0.707107 0.707107 0
    outer loop
      vertex 22.5645 36.042 0
      vertex 22.609 36.0865 2
      vertex 22.609 36.0865 0
    endloop
  endfacet
  facet normal -0.707107 0.707107 0
    outer loop
      vertex 22.609 36.0865 2
      vertex 22.5645 36.042 0
      vertex 22.5645 36.042 2
    endloop
  endfacet
  facet normal -0.613168 0.789952 0
    outer loop
      vertex 22.5174 36.0005 0
      vertex 22.4678 35.962 2
      vertex 22.5174 36.0005 2
    endloop
  endfacet
  facet normal -0.613168 0.789952 0
    outer loop
      vertex 22.4678 35.962 2
      vertex 22.5174 36.0005 0
      vertex 22.4678 35.962 0
    endloop
  endfacet
  facet normal -0.82737 0.561657 0
    outer loop
      vertex 22.689 36.1832 0
      vertex 22.7243 36.2352 2
      vertex 22.7243 36.2352 0
    endloop
  endfacet
  facet normal -0.82737 0.561657 0
    outer loop
      vertex 22.7243 36.2352 2
      vertex 22.689 36.1832 0
      vertex 22.689 36.1832 2
    endloop
  endfacet
  facet normal 0.21811 0.975924 -0
    outer loop
      vertex 21.6926 35.7887 0
      vertex 21.6313 35.8024 2
      vertex 21.6926 35.7887 2
    endloop
  endfacet
  facet normal 0.21811 0.975924 0
    outer loop
      vertex 21.6313 35.8024 2
      vertex 21.6926 35.7887 0
      vertex 21.6313 35.8024 0
    endloop
  endfacet
  facet normal 0.0939822 0.995574 -0
    outer loop
      vertex 21.8172 35.773 0
      vertex 21.7547 35.7789 2
      vertex 21.8172 35.773 2
    endloop
  endfacet
  facet normal 0.0939822 0.995574 0
    outer loop
      vertex 21.7547 35.7789 2
      vertex 21.8172 35.773 0
      vertex 21.7547 35.7789 0
    endloop
  endfacet
  facet normal 0.707107 0.707107 0
    outer loop
      vertex 21.1955 36.042 2
      vertex 21.151 36.0865 0
      vertex 21.151 36.0865 2
    endloop
  endfacet
  facet normal 0.707107 0.707107 0
    outer loop
      vertex 21.151 36.0865 0
      vertex 21.1955 36.042 2
      vertex 21.1955 36.042 0
    endloop
  endfacet
  facet normal 0.960374 0.278715 0
    outer loop
      vertex 20.9289 36.462 2
      vertex 20.9114 36.5223 0
      vertex 20.9114 36.5223 2
    endloop
  endfacet
  facet normal 0.960374 0.278715 0
    outer loop
      vertex 20.9114 36.5223 0
      vertex 20.9289 36.462 2
      vertex 20.9289 36.462 0
    endloop
  endfacet
  facet normal 0.987776 0.155881 0
    outer loop
      vertex 20.8977 36.5836 2
      vertex 20.8879 36.6457 0
      vertex 20.8879 36.6457 2
    endloop
  endfacet
  facet normal 0.987776 0.155881 0
    outer loop
      vertex 20.8879 36.6457 0
      vertex 20.8977 36.5836 2
      vertex 20.8977 36.5836 0
    endloop
  endfacet
  facet normal 0.999493 0.031831 0
    outer loop
      vertex 20.882 36.7082 2
      vertex 20.88 36.771 0
      vertex 20.88 36.771 2
    endloop
  endfacet
  facet normal 0.999493 0.031831 0
    outer loop
      vertex 20.88 36.771 0
      vertex 20.882 36.7082 2
      vertex 20.882 36.7082 0
    endloop
  endfacet
  facet normal -0.453568 0.891222 0
    outer loop
      vertex 22.3618 35.8947 0
      vertex 22.3058 35.8662 2
      vertex 22.3618 35.8947 2
    endloop
  endfacet
  facet normal -0.453568 0.891222 0
    outer loop
      vertex 22.3058 35.8662 2
      vertex 22.3618 35.8947 0
      vertex 22.3058 35.8662 0
    endloop
  endfacet
  facet normal -0.975924 0.21811 0
    outer loop
      vertex 22.8486 36.5223 0
      vertex 22.8623 36.5836 2
      vertex 22.8623 36.5836 0
    endloop
  endfacet
  facet normal -0.975924 0.21811 0
    outer loop
      vertex 22.8623 36.5836 2
      vertex 22.8486 36.5223 0
      vertex 22.8486 36.5223 2
    endloop
  endfacet
  facet normal -0.917575 0.397563 0
    outer loop
      vertex 22.7848 36.3452 0
      vertex 22.8098 36.4029 2
      vertex 22.8098 36.4029 0
    endloop
  endfacet
  facet normal -0.917575 0.397563 0
    outer loop
      vertex 22.8098 36.4029 2
      vertex 22.7848 36.3452 0
      vertex 22.7848 36.3452 2
    endloop
  endfacet
  facet normal -0.891222 0.453568 0
    outer loop
      vertex 22.7563 36.2892 0
      vertex 22.7848 36.3452 2
      vertex 22.7848 36.3452 0
    endloop
  endfacet
  facet normal -0.891222 0.453568 0
    outer loop
      vertex 22.7848 36.3452 2
      vertex 22.7563 36.2892 0
      vertex 22.7563 36.2892 2
    endloop
  endfacet
  facet normal -0.661095 0.750303 0
    outer loop
      vertex 22.5645 36.042 0
      vertex 22.5174 36.0005 2
      vertex 22.5645 36.042 2
    endloop
  endfacet
  facet normal -0.661095 0.750303 0
    outer loop
      vertex 22.5174 36.0005 2
      vertex 22.5645 36.042 0
      vertex 22.5174 36.0005 0
    endloop
  endfacet
  facet normal -0.860292 0.509802 0
    outer loop
      vertex 22.7243 36.2352 0
      vertex 22.7563 36.2892 2
      vertex 22.7563 36.2892 0
    endloop
  endfacet
  facet normal -0.860292 0.509802 0
    outer loop
      vertex 22.7563 36.2892 2
      vertex 22.7243 36.2352 0
      vertex 22.7243 36.2352 2
    endloop
  endfacet
  facet normal 0.031831 0.999493 -0
    outer loop
      vertex 21.88 35.771 0
      vertex 21.8172 35.773 2
      vertex 21.88 35.771 2
    endloop
  endfacet
  facet normal 0.031831 0.999493 0
    outer loop
      vertex 21.8172 35.773 2
      vertex 21.88 35.771 0
      vertex 21.8172 35.773 0
    endloop
  endfacet
  facet normal 0.561657 0.82737 -0
    outer loop
      vertex 21.3442 35.9267 0
      vertex 21.2922 35.962 2
      vertex 21.3442 35.9267 2
    endloop
  endfacet
  facet normal 0.561657 0.82737 0
    outer loop
      vertex 21.2922 35.962 2
      vertex 21.3442 35.9267 0
      vertex 21.2922 35.962 0
    endloop
  endfacet
  facet normal 0.509802 0.860292 -0
    outer loop
      vertex 21.3982 35.8947 0
      vertex 21.3442 35.9267 2
      vertex 21.3982 35.8947 2
    endloop
  endfacet
  facet normal 0.509802 0.860292 0
    outer loop
      vertex 21.3442 35.9267 2
      vertex 21.3982 35.8947 0
      vertex 21.3442 35.9267 0
    endloop
  endfacet
  facet normal 0.397563 0.917575 -0
    outer loop
      vertex 21.5119 35.8412 0
      vertex 21.4542 35.8662 2
      vertex 21.5119 35.8412 2
    endloop
  endfacet
  facet normal 0.397563 0.917575 0
    outer loop
      vertex 21.4542 35.8662 2
      vertex 21.5119 35.8412 0
      vertex 21.4542 35.8662 0
    endloop
  endfacet
  facet normal 0.339058 0.940766 -0
    outer loop
      vertex 21.571 35.8199 0
      vertex 21.5119 35.8412 2
      vertex 21.571 35.8199 2
    endloop
  endfacet
  facet normal 0.339058 0.940766 0
    outer loop
      vertex 21.5119 35.8412 2
      vertex 21.571 35.8199 0
      vertex 21.5119 35.8412 0
    endloop
  endfacet
  facet normal 0.278715 0.960374 -0
    outer loop
      vertex 21.6313 35.8024 0
      vertex 21.571 35.8199 2
      vertex 21.6313 35.8024 2
    endloop
  endfacet
  facet normal 0.278715 0.960374 0
    outer loop
      vertex 21.571 35.8199 2
      vertex 21.6313 35.8024 0
      vertex 21.571 35.8199 0
    endloop
  endfacet
  facet normal 0.82737 0.561657 0
    outer loop
      vertex 21.071 36.1832 2
      vertex 21.0357 36.2352 0
      vertex 21.0357 36.2352 2
    endloop
  endfacet
  facet normal 0.82737 0.561657 0
    outer loop
      vertex 21.0357 36.2352 0
      vertex 21.071 36.1832 2
      vertex 21.071 36.1832 0
    endloop
  endfacet
  facet normal 0.750303 0.661095 0
    outer loop
      vertex 21.151 36.0865 2
      vertex 21.1095 36.1336 0
      vertex 21.1095 36.1336 2
    endloop
  endfacet
  facet normal 0.750303 0.661095 0
    outer loop
      vertex 21.1095 36.1336 0
      vertex 21.151 36.0865 2
      vertex 21.151 36.0865 0
    endloop
  endfacet
  facet normal 0.917575 0.397563 0
    outer loop
      vertex 20.9752 36.3452 2
      vertex 20.9502 36.4029 0
      vertex 20.9502 36.4029 2
    endloop
  endfacet
  facet normal 0.917575 0.397563 0
    outer loop
      vertex 20.9502 36.4029 0
      vertex 20.9752 36.3452 2
      vertex 20.9752 36.3452 0
    endloop
  endfacet
  facet normal 0.940766 0.339058 0
    outer loop
      vertex 20.9502 36.4029 2
      vertex 20.9289 36.462 0
      vertex 20.9289 36.462 2
    endloop
  endfacet
  facet normal 0.940766 0.339058 0
    outer loop
      vertex 20.9289 36.462 0
      vertex 20.9502 36.4029 2
      vertex 20.9502 36.4029 0
    endloop
  endfacet
  facet normal 0.975924 0.21811 0
    outer loop
      vertex 20.9114 36.5223 2
      vertex 20.8977 36.5836 0
      vertex 20.8977 36.5836 2
    endloop
  endfacet
  facet normal 0.975924 0.21811 0
    outer loop
      vertex 20.8977 36.5836 0
      vertex 20.9114 36.5223 2
      vertex 20.9114 36.5223 0
    endloop
  endfacet
  facet normal 0.995574 0.0939822 0
    outer loop
      vertex 20.8879 36.6457 2
      vertex 20.882 36.7082 0
      vertex 20.882 36.7082 2
    endloop
  endfacet
  facet normal 0.995574 0.0939822 0
    outer loop
      vertex 20.882 36.7082 0
      vertex 20.8879 36.6457 2
      vertex 20.8879 36.6457 0
    endloop
  endfacet
  facet normal -0.339058 0.940766 0
    outer loop
      vertex 22.2481 35.8412 0
      vertex 22.189 35.8199 2
      vertex 22.2481 35.8412 2
    endloop
  endfacet
  facet normal -0.339058 0.940766 0
    outer loop
      vertex 22.189 35.8199 2
      vertex 22.2481 35.8412 0
      vertex 22.189 35.8199 0
    endloop
  endfacet
  facet normal -0.278715 0.960374 0
    outer loop
      vertex 22.189 35.8199 0
      vertex 22.1287 35.8024 2
      vertex 22.189 35.8199 2
    endloop
  endfacet
  facet normal -0.278715 0.960374 0
    outer loop
      vertex 22.1287 35.8024 2
      vertex 22.189 35.8199 0
      vertex 22.1287 35.8024 0
    endloop
  endfacet
  facet normal -0.155881 0.987776 0
    outer loop
      vertex 22.0674 35.7887 0
      vertex 22.0053 35.7789 2
      vertex 22.0674 35.7887 2
    endloop
  endfacet
  facet normal -0.155881 0.987776 0
    outer loop
      vertex 22.0053 35.7789 2
      vertex 22.0674 35.7887 0
      vertex 22.0053 35.7789 0
    endloop
  endfacet
  facet normal -0.0939822 0.995574 0
    outer loop
      vertex 22.0053 35.7789 0
      vertex 21.9428 35.773 2
      vertex 22.0053 35.7789 2
    endloop
  endfacet
  facet normal -0.0939822 0.995574 0
    outer loop
      vertex 21.9428 35.773 2
      vertex 22.0053 35.7789 0
      vertex 21.9428 35.773 0
    endloop
  endfacet
  facet normal -0.561657 0.82737 0
    outer loop
      vertex 22.4678 35.962 0
      vertex 22.4158 35.9267 2
      vertex 22.4678 35.962 2
    endloop
  endfacet
  facet normal -0.561657 0.82737 0
    outer loop
      vertex 22.4158 35.9267 2
      vertex 22.4678 35.962 0
      vertex 22.4158 35.9267 0
    endloop
  endfacet
  facet normal -0.509802 0.860292 0
    outer loop
      vertex 22.4158 35.9267 0
      vertex 22.3618 35.8947 2
      vertex 22.4158 35.9267 2
    endloop
  endfacet
  facet normal -0.509802 0.860292 0
    outer loop
      vertex 22.3618 35.8947 2
      vertex 22.4158 35.9267 0
      vertex 22.3618 35.8947 0
    endloop
  endfacet
  facet normal 0.613168 0.789952 -0
    outer loop
      vertex 21.2922 35.962 0
      vertex 21.2426 36.0005 2
      vertex 21.2922 35.962 2
    endloop
  endfacet
  facet normal 0.613168 0.789952 0
    outer loop
      vertex 21.2426 36.0005 2
      vertex 21.2922 35.962 0
      vertex 21.2426 36.0005 0
    endloop
  endfacet
  facet normal 0.661095 0.750303 -0
    outer loop
      vertex 21.2426 36.0005 0
      vertex 21.1955 36.042 2
      vertex 21.2426 36.0005 2
    endloop
  endfacet
  facet normal 0.661095 0.750303 0
    outer loop
      vertex 21.1955 36.042 2
      vertex 21.2426 36.0005 0
      vertex 21.1955 36.042 0
    endloop
  endfacet
  facet normal 0.453568 0.891222 -0
    outer loop
      vertex 21.4542 35.8662 0
      vertex 21.3982 35.8947 2
      vertex 21.4542 35.8662 2
    endloop
  endfacet
  facet normal 0.453568 0.891222 0
    outer loop
      vertex 21.3982 35.8947 2
      vertex 21.4542 35.8662 0
      vertex 21.3982 35.8947 0
    endloop
  endfacet
  facet normal 0.155881 0.987776 -0
    outer loop
      vertex 21.7547 35.7789 0
      vertex 21.6926 35.7887 2
      vertex 21.7547 35.7789 2
    endloop
  endfacet
  facet normal 0.155881 0.987776 0
    outer loop
      vertex 21.6926 35.7887 2
      vertex 21.7547 35.7789 0
      vertex 21.6926 35.7887 0
    endloop
  endfacet
  facet normal 0.789952 0.613168 0
    outer loop
      vertex 21.1095 36.1336 2
      vertex 21.071 36.1832 0
      vertex 21.071 36.1832 2
    endloop
  endfacet
  facet normal 0.789952 0.613168 0
    outer loop
      vertex 21.071 36.1832 0
      vertex 21.1095 36.1336 2
      vertex 21.1095 36.1336 0
    endloop
  endfacet
  facet normal 0.860292 0.509802 0
    outer loop
      vertex 21.0357 36.2352 2
      vertex 21.0037 36.2892 0
      vertex 21.0037 36.2892 2
    endloop
  endfacet
  facet normal 0.860292 0.509802 0
    outer loop
      vertex 21.0037 36.2892 0
      vertex 21.0357 36.2352 2
      vertex 21.0357 36.2352 0
    endloop
  endfacet
  facet normal 0.891222 0.453568 0
    outer loop
      vertex 21.0037 36.2892 2
      vertex 20.9752 36.3452 0
      vertex 20.9752 36.3452 2
    endloop
  endfacet
  facet normal 0.891222 0.453568 0
    outer loop
      vertex 20.9752 36.3452 0
      vertex 21.0037 36.2892 2
      vertex 21.0037 36.2892 0
    endloop
  endfacet
endsolid OpenSCAD_Model
