solid OpenSCAD_Model
  facet normal 0 0 -1
    outer loop
      vertex 31.7564 0.481995 0
      vertex 37.758 2.81599 0
      vertex 37.6842 2.06142 0
    endloop
  endfacet
  facet normal -0 0 -1
    outer loop
      vertex 37.758 2.81599 0
      vertex 31.7564 0.481995 0
      vertex 37.697 3.47212 0
    endloop
  endfacet
  facet normal 0 0 -1
    outer loop
      vertex 37.0942 0.745621 0
      vertex 37.6842 2.06142 0
      vertex 37.463 1.37129 0
    endloop
  endfacet
  facet normal -0 0 -1
    outer loop
      vertex 37.697 3.47212 0
      vertex 31.7564 0.481995 0
      vertex 37.5139 4.27409 0
    endloop
  endfacet
  facet normal 0 0 -1
    outer loop
      vertex 37.6842 2.06142 0
      vertex 37.0942 0.745621 0
      vertex 31.7564 0.481995 0
    endloop
  endfacet
  facet normal 0 0 -1
    outer loop
      vertex 30.6765 2.04759 0
      vertex 37.5139 4.27409 0
      vertex 31.7564 0.481995 0
    endloop
  endfacet
  facet normal 0 0 -1
    outer loop
      vertex 31.7564 0.481995 0
      vertex 37.0942 0.745621 0
      vertex 36.578 0.184387 0
    endloop
  endfacet
  facet normal -0 0 -1
    outer loop
      vertex 37.5139 4.27409 0
      vertex 30.6765 2.04759 0
      vertex 37.2088 5.22192 0
    endloop
  endfacet
  facet normal 0 0 -1
    outer loop
      vertex 31.7564 0.481995 0
      vertex 36.578 0.184387 0
      vertex 35.9685 -0.27507 0
    endloop
  endfacet
  facet normal 0 0 -1
    outer loop
      vertex 29.5932 4.22319 0
      vertex 36.7816 6.3156 0
      vertex 30.6765 2.04759 0
    endloop
  endfacet
  facet normal -0 0 -1
    outer loop
      vertex 36.7816 6.3156 0
      vertex 29.5932 4.22319 0
      vertex 36.2475 7.59734 0
    endloop
  endfacet
  facet normal 0 0 -1
    outer loop
      vertex 28.8998 5.88359 0
      vertex 36.2475 7.59734 0
      vertex 29.5932 4.22319 0
    endloop
  endfacet
  facet normal 0 0 -1
    outer loop
      vertex 31.7564 0.481995 0
      vertex 35.9685 -0.27507 0
      vertex 35.32 -0.59549 0
    endloop
  endfacet
  facet normal 0 0 -1
    outer loop
      vertex 31.7564 0.481995 0
      vertex 35.32 -0.59549 0
      vertex 34.6325 -0.776871 0
    endloop
  endfacet
  facet normal -0 0 -1
    outer loop
      vertex 36.2475 7.59734 0
      vertex 28.8998 5.88359 0
      vertex 35.8389 8.6214 0
    endloop
  endfacet
  facet normal 0 0 -1
    outer loop
      vertex 32.8329 -0.473587 0
      vertex 34.6325 -0.776871 0
      vertex 33.906 -0.819199 0
    endloop
  endfacet
  facet normal -0 0 -1
    outer loop
      vertex 35.8389 8.6214 0
      vertex 28.8998 5.88359 0
      vertex 35.5557 9.38774 0
    endloop
  endfacet
  facet normal 0 0 -1
    outer loop
      vertex 34.6325 -0.776871 0
      vertex 32.8329 -0.473587 0
      vertex 31.7564 0.481995 0
    endloop
  endfacet
  facet normal -0 0 -1
    outer loop
      vertex 35.5557 9.38774 0
      vertex 28.2574 7.66599 0
      vertex 35.398 9.89639 0
    endloop
  endfacet
  facet normal -0 0 -1
    outer loop
      vertex 37.2088 5.22192 0
      vertex 30.6765 2.04759 0
      vertex 36.7816 6.3156 0
    endloop
  endfacet
  facet normal 0 0 -1
    outer loop
      vertex 27.6658 9.57039 0
      vertex 35.398 9.89639 0
      vertex 28.2574 7.66599 0
    endloop
  endfacet
  facet normal 0 0 -1
    outer loop
      vertex 27.1252 11.5968 0
      vertex 34.2503 14.7879 0
      vertex 27.6658 9.57039 0
    endloop
  endfacet
  facet normal 0 0 -1
    outer loop
      vertex 28.2574 7.66599 0
      vertex 35.5557 9.38774 0
      vertex 28.8998 5.88359 0
    endloop
  endfacet
  facet normal 0 0 -1
    outer loop
      vertex 25.5788 17.8432 0
      vertex 34.2503 14.7879 0
      vertex 27.1252 11.5968 0
    endloop
  endfacet
  facet normal 0 0 -1
    outer loop
      vertex 34.2503 14.7879 0
      vertex 25.5788 17.8432 0
      vertex 33.1942 19.3979 0
    endloop
  endfacet
  facet normal 0 0 -1
    outer loop
      vertex 25.2229 19.7389 0
      vertex 33.1942 19.3979 0
      vertex 25.5788 17.8432 0
    endloop
  endfacet
  facet normal -0 0 -1
    outer loop
      vertex 35.398 9.89639 0
      vertex 27.6658 9.57039 0
      vertex 34.2503 14.7879 0
    endloop
  endfacet
  facet normal 0 0 -1
    outer loop
      vertex 33.1942 19.3979 0
      vertex 25.2229 19.7389 0
      vertex 32.2295 23.7265 0
    endloop
  endfacet
  facet normal 0 0 -1
    outer loop
      vertex 24.8059 21.8991 0
      vertex 32.2295 23.7265 0
      vertex 25.2229 19.7389 0
    endloop
  endfacet
  facet normal 0 0 -1
    outer loop
      vertex 24.3279 24.3239 0
      vertex 32.2295 23.7265 0
      vertex 24.8059 21.8991 0
    endloop
  endfacet
  facet normal 0 0 -1
    outer loop
      vertex 32.2295 23.7265 0
      vertex 24.3279 24.3239 0
      vertex 31.3564 27.7736 0
    endloop
  endfacet
  facet normal 0 0 -1
    outer loop
      vertex 23.7888 27.0132 0
      vertex 31.3564 27.7736 0
      vertex 24.3279 24.3239 0
    endloop
  endfacet
  facet normal -0 0 -1
    outer loop
      vertex 31.3564 27.7736 0
      vertex 23.7888 27.0132 0
      vertex 30.8122 30.4948 0
    endloop
  endfacet
  facet normal -0 0 -1
    outer loop
      vertex 30.8122 30.4948 0
      vertex 23.7888 27.0132 0
      vertex 30.346 32.8532 0
    endloop
  endfacet
  facet normal 0 0 -1
    outer loop
      vertex 25.5788 17.8432 0
      vertex 27.1252 11.5968 0
      vertex 25.9622 11.4472 0
    endloop
  endfacet
  facet normal 0 0 -1
    outer loop
      vertex 20.3711 34.3048 0
      vertex 30.346 32.8532 0
      vertex 23.7888 27.0132 0
    endloop
  endfacet
  facet normal 0 0 -1
    outer loop
      vertex 30.346 32.8532 0
      vertex 20.3711 34.3048 0
      vertex 29.9578 34.8488 0
    endloop
  endfacet
  facet normal 0 0 -1
    outer loop
      vertex 25.9622 11.4472 0
      vertex 25.0449 17.783 0
      vertex 25.5788 17.8432 0
    endloop
  endfacet
  facet normal 0 0 -1
    outer loop
      vertex 24.4805 11.2976 0
      vertex 25.0449 17.783 0
      vertex 25.9622 11.4472 0
    endloop
  endfacet
  facet normal 0 0 -1
    outer loop
      vertex 24.4805 11.2976 0
      vertex 24.2295 17.7126 0
      vertex 25.0449 17.783 0
    endloop
  endfacet
  facet normal 0 0 -1
    outer loop
      vertex 24.4805 11.2976 0
      vertex 23.1327 17.6318 0
      vertex 24.2295 17.7126 0
    endloop
  endfacet
  facet normal 0 0 -1
    outer loop
      vertex 22.68 11.148 0
      vertex 23.1327 17.6318 0
      vertex 24.4805 11.2976 0
    endloop
  endfacet
  facet normal 0 0 -1
    outer loop
      vertex 22.68 11.148 0
      vertex 21.7544 17.5408 0
      vertex 23.1327 17.6318 0
    endloop
  endfacet
  facet normal 0 0 -1
    outer loop
      vertex 20.5608 10.9984 0
      vertex 21.7544 17.5408 0
      vertex 22.68 11.148 0
    endloop
  endfacet
  facet normal 0 0 -1
    outer loop
      vertex 20.5608 10.9984 0
      vertex 20.5506 17.4513 0
      vertex 21.7544 17.5408 0
    endloop
  endfacet
  facet normal 0 0 -1
    outer loop
      vertex 20.5608 10.9984 0
      vertex 19.5164 17.3482 0
      vertex 20.5506 17.4513 0
    endloop
  endfacet
  facet normal 0 0 -1
    outer loop
      vertex 20.5608 10.9984 0
      vertex 18.6518 17.2313 0
      vertex 19.5164 17.3482 0
    endloop
  endfacet
  facet normal 0 0 -1
    outer loop
      vertex 18.5434 10.842 0
      vertex 18.6518 17.2313 0
      vertex 20.5608 10.9984 0
    endloop
  endfacet
  facet normal 0 0 -1
    outer loop
      vertex 18.5434 10.842 0
      vertex 17.9568 17.1008 0
      vertex 18.6518 17.2313 0
    endloop
  endfacet
  facet normal 0 0 -1
    outer loop
      vertex 16.7769 10.672 0
      vertex 17.9568 17.1008 0
      vertex 18.5434 10.842 0
    endloop
  endfacet
  facet normal 0 0 -1
    outer loop
      vertex 15.2612 10.4884 0
      vertex 17.9568 17.1008 0
      vertex 16.7769 10.672 0
    endloop
  endfacet
  facet normal 0 0 -1
    outer loop
      vertex 13.9964 10.2912 0
      vertex 17.9568 17.1008 0
      vertex 15.2612 10.4884 0
    endloop
  endfacet
  facet normal 0 0 -1
    outer loop
      vertex 17.9568 17.1008 0
      vertex 15.0003 26.2543 0
      vertex 17.306 29.8056 0
    endloop
  endfacet
  facet normal 0 0 -1
    outer loop
      vertex 8.73439 15.9668 0
      vertex 17.9568 17.1008 0
      vertex 13.9964 10.2912 0
    endloop
  endfacet
  facet normal 0 0 -1
    outer loop
      vertex 6.42879 12.3576 0
      vertex 13.9964 10.2912 0
      vertex 13.2573 8.61119 0
    endloop
  endfacet
  facet normal 0 0 -1
    outer loop
      vertex 17.9568 17.1008 0
      vertex 12.8031 22.7641 0
      vertex 15.0003 26.2543 0
    endloop
  endfacet
  facet normal 0 0 -1
    outer loop
      vertex 6.42879 12.3576 0
      vertex 13.2573 8.61119 0
      vertex 12.2876 6.55479 0
    endloop
  endfacet
  facet normal 0 0 -1
    outer loop
      vertex 4.69612 8.769 0
      vertex 12.2876 6.55479 0
      vertex 11.0873 4.12199 0
    endloop
  endfacet
  facet normal 0 0 -1
    outer loop
      vertex 17.9568 17.1008 0
      vertex 10.7145 19.3349 0
      vertex 12.8031 22.7641 0
    endloop
  endfacet
  facet normal 0 0 -1
    outer loop
      vertex 3.4585 6.008 0
      vertex 11.0873 4.12199 0
      vertex 9.65639 1.31279 0
    endloop
  endfacet
  facet normal 0 0 -1
    outer loop
      vertex 2.71591 4.07458 0
      vertex 9.65639 1.31279 0
      vertex 9.00197 0.458435 0
    endloop
  endfacet
  facet normal -0 0 -1
    outer loop
      vertex 17.9568 17.1008 0
      vertex 8.73439 15.9668 0
      vertex 10.7145 19.3349 0
    endloop
  endfacet
  facet normal 0 0 -1
    outer loop
      vertex 6.3472 -0.639999 0
      vertex 9.00197 0.458435 0
      vertex 8.2323 -0.151794 0
    endloop
  endfacet
  facet normal 0 0 -1
    outer loop
      vertex 13.9964 10.2912 0
      vertex 6.42879 12.3576 0
      vertex 8.73439 15.9668 0
    endloop
  endfacet
  facet normal 0 0 -1
    outer loop
      vertex 6.3472 -0.639999 0
      vertex 8.2323 -0.151794 0
      vertex 7.34737 -0.517944 0
    endloop
  endfacet
  facet normal 0 0 -1
    outer loop
      vertex 8.73439 15.9668 0
      vertex 6.42879 12.3576 0
      vertex 7.62389 15.5648 0
    endloop
  endfacet
  facet normal 0 0 -1
    outer loop
      vertex 6.26595 12.7714 0
      vertex 7.62389 15.5648 0
      vertex 6.42879 12.3576 0
    endloop
  endfacet
  facet normal -0 0 -1
    outer loop
      vertex 9.00197 0.458435 0
      vertex 6.3472 -0.639999 0
      vertex 2.71591 4.07458 0
    endloop
  endfacet
  facet normal 0 0 -1
    outer loop
      vertex 2.71591 4.07458 0
      vertex 6.3472 -0.639999 0
      vertex 5.61984 -0.576385 0
    endloop
  endfacet
  facet normal 0 0 -1
    outer loop
      vertex 2.71591 4.07458 0
      vertex 5.61984 -0.576385 0
      vertex 4.92979 -0.38559 0
    endloop
  endfacet
  facet normal 0 0 -1
    outer loop
      vertex 12.2876 6.55479 0
      vertex 4.69612 8.769 0
      vertex 6.42879 12.3576 0
    endloop
  endfacet
  facet normal 0 0 -1
    outer loop
      vertex 2.71591 4.07458 0
      vertex 4.92979 -0.38559 0
      vertex 4.27704 -0.0675964 0
    endloop
  endfacet
  facet normal 0 0 -1
    outer loop
      vertex 2.71591 4.07458 0
      vertex 4.27704 -0.0675964 0
      vertex 3.66159 0.377594 0
    endloop
  endfacet
  facet normal 0 0 -1
    outer loop
      vertex 11.0873 4.12199 0
      vertex 3.4585 6.008 0
      vertex 4.69612 8.769 0
    endloop
  endfacet
  facet normal 0 0 -1
    outer loop
      vertex 2.71591 4.07458 0
      vertex 3.66159 0.377594 0
      vertex 3.13957 0.921143 0
    endloop
  endfacet
  facet normal 0 0 -1
    outer loop
      vertex 2.71591 4.07458 0
      vertex 3.13957 0.921143 0
      vertex 2.76669 1.53419 0
    endloop
  endfacet
  facet normal 0 0 -1
    outer loop
      vertex 9.65639 1.31279 0
      vertex 2.71591 4.07458 0
      vertex 3.4585 6.008 0
    endloop
  endfacet
  facet normal 0 0 -1
    outer loop
      vertex 2.54297 2.21674 0
      vertex 2.71591 4.07458 0
      vertex 2.76669 1.53419 0
    endloop
  endfacet
  facet normal 0 0 -1
    outer loop
      vertex 2.71591 4.07458 0
      vertex 2.54297 2.21674 0
      vertex 2.4684 2.9688 0
    endloop
  endfacet
  facet normal 0 -0 -1
    outer loop
      vertex 22.7852 37.5186 0
      vertex 29.9578 34.8488 0
      vertex 20.3711 34.3048 0
    endloop
  endfacet
  facet normal 0 0 -1
    outer loop
      vertex 29.6476 36.4816 0
      vertex 22.7852 37.5186 0
      vertex 29.022 38.0601 0
    endloop
  endfacet
  facet normal 0 -0 -1
    outer loop
      vertex 24.5483 39.4468 0
      vertex 29.022 38.0601 0
      vertex 22.7852 37.5186 0
    endloop
  endfacet
  facet normal 0 0 -1
    outer loop
      vertex 29.022 38.0601 0
      vertex 24.5483 39.4468 0
      vertex 28.149 39.1876 0
    endloop
  endfacet
  facet normal 0 0 -1
    outer loop
      vertex 28.149 39.1876 0
      vertex 24.5483 39.4468 0
      vertex 27.0284 39.8641 0
    endloop
  endfacet
  facet normal -0 0 -1
    outer loop
      vertex 27.0284 39.8641 0
      vertex 24.5483 39.4468 0
      vertex 25.6604 40.0896 0
    endloop
  endfacet
  facet normal 0 0 -1
    outer loop
      vertex 17.306 29.8056 0
      vertex 23.7888 27.0132 0
      vertex 22.6308 25.029 0
    endloop
  endfacet
  facet normal 0 0 -1
    outer loop
      vertex 17.306 29.8056 0
      vertex 22.6308 25.029 0
      vertex 21.2728 22.7155 0
    endloop
  endfacet
  facet normal 0 0 -1
    outer loop
      vertex 29.9578 34.8488 0
      vertex 22.7852 37.5186 0
      vertex 29.6476 36.4816 0
    endloop
  endfacet
  facet normal 0 0 -1
    outer loop
      vertex 17.306 29.8056 0
      vertex 21.2728 22.7155 0
      vertex 19.7148 20.0728 0
    endloop
  endfacet
  facet normal 0 0 -1
    outer loop
      vertex 17.306 29.8056 0
      vertex 19.7148 20.0728 0
      vertex 17.9568 17.1008 0
    endloop
  endfacet
  facet normal 0 0 -1
    outer loop
      vertex 23.7888 27.0132 0
      vertex 17.306 29.8056 0
      vertex 20.3711 34.3048 0
    endloop
  endfacet
  facet normal 0 0 -1
    outer loop
      vertex 7.62389 15.5648 0
      vertex 6.26595 12.7714 0
      vertex 6.81519 15.0916 0
    endloop
  endfacet
  facet normal 0 0 -1
    outer loop
      vertex 6.15739 13.1717 0
      vertex 6.81519 15.0916 0
      vertex 6.26595 12.7714 0
    endloop
  endfacet
  facet normal 0 0 -1
    outer loop
      vertex 6.10315 13.5584 0
      vertex 6.81519 15.0916 0
      vertex 6.15739 13.1717 0
    endloop
  endfacet
  facet normal 0 0 -1
    outer loop
      vertex 6.81519 15.0916 0
      vertex 6.10315 13.5584 0
      vertex 6.30829 14.5472 0
    endloop
  endfacet
  facet normal 0 0 -1
    outer loop
      vertex 6.30829 14.5472 0
      vertex 6.10315 13.5584 0
      vertex 6.1032 13.9316 0
    endloop
  endfacet
  facet normal 0 0 1
    outer loop
      vertex 6.10315 13.5584 5
      vertex 6.81519 15.0916 5
      vertex 6.30829 14.5472 5
    endloop
  endfacet
  facet normal 0 0 1
    outer loop
      vertex 6.81519 15.0916 5
      vertex 6.26595 12.7714 5
      vertex 6.42879 12.3576 5
    endloop
  endfacet
  facet normal 0 0 1
    outer loop
      vertex 6.81519 15.0916 5
      vertex 6.15739 13.1717 5
      vertex 6.26595 12.7714 5
    endloop
  endfacet
  facet normal 0 0 1
    outer loop
      vertex 6.10315 13.5584 5
      vertex 6.30829 14.5472 5
      vertex 6.1032 13.9316 5
    endloop
  endfacet
  facet normal 0 0 1
    outer loop
      vertex 6.81519 15.0916 5
      vertex 6.10315 13.5584 5
      vertex 6.15739 13.1717 5
    endloop
  endfacet
  facet normal 0 0 1
    outer loop
      vertex 20 16 5
      vertex 21.7544 17.5408 5
      vertex 20.5506 17.4513 5
    endloop
  endfacet
  facet normal 0 0 1
    outer loop
      vertex 21.7544 17.5408 5
      vertex 20 16 5
      vertex 21 15 5
    endloop
  endfacet
  facet normal -0 0 1
    outer loop
      vertex 19.5164 17.3482 5
      vertex 20 16 5
      vertex 20.5506 17.4513 5
    endloop
  endfacet
  facet normal -0 0 1
    outer loop
      vertex 18.6518 17.2313 5
      vertex 20 16 5
      vertex 19.5164 17.3482 5
    endloop
  endfacet
  facet normal 0 0 1
    outer loop
      vertex 20 16 5
      vertex 18.6518 17.2313 5
      vertex 19 15 5
    endloop
  endfacet
  facet normal 0 0 1
    outer loop
      vertex 33.1942 19.3979 5
      vertex 25.2229 19.7389 5
      vertex 25.5788 17.8432 5
    endloop
  endfacet
  facet normal 0 0 1
    outer loop
      vertex 30.346 32.8532 5
      vertex 24.8059 21.8991 5
      vertex 25.2229 19.7389 5
    endloop
  endfacet
  facet normal 0 0 1
    outer loop
      vertex 20.3711 34.3048 5
      vertex 29.9578 34.8488 5
      vertex 22.7852 37.5186 5
    endloop
  endfacet
  facet normal 0 0 1
    outer loop
      vertex 30.346 32.8532 5
      vertex 24.3279 24.3239 5
      vertex 24.8059 21.8991 5
    endloop
  endfacet
  facet normal 0 0 1
    outer loop
      vertex 30.346 32.8532 5
      vertex 23.7888 27.0132 5
      vertex 24.3279 24.3239 5
    endloop
  endfacet
  facet normal 0 0 1
    outer loop
      vertex 29.9578 34.8488 5
      vertex 20.3711 34.3048 5
      vertex 30.346 32.8532 5
    endloop
  endfacet
  facet normal 0 0 1
    outer loop
      vertex 30.346 32.8532 5
      vertex 20.3711 34.3048 5
      vertex 23.7888 27.0132 5
    endloop
  endfacet
  facet normal -0 0 1
    outer loop
      vertex 17.306 29.8056 5
      vertex 23.7888 27.0132 5
      vertex 20.3711 34.3048 5
    endloop
  endfacet
  facet normal 0 0 1
    outer loop
      vertex 23.7888 27.0132 5
      vertex 17.306 29.8056 5
      vertex 22.6308 25.029 5
    endloop
  endfacet
  facet normal -0 0 1
    outer loop
      vertex 15.0003 26.2543 5
      vertex 22.6308 25.029 5
      vertex 17.306 29.8056 5
    endloop
  endfacet
  facet normal 0 0 1
    outer loop
      vertex 22.6308 25.029 5
      vertex 15.0003 26.2543 5
      vertex 21.2728 22.7155 5
    endloop
  endfacet
  facet normal 0 0 1
    outer loop
      vertex 21.2728 22.7155 5
      vertex 15.0003 26.2543 5
      vertex 19.7148 20.0728 5
    endloop
  endfacet
  facet normal 0 0 1
    outer loop
      vertex 31.7564 0.481995 5
      vertex 37.758 2.81599 5
      vertex 37.697 3.47212 5
    endloop
  endfacet
  facet normal 0 0 1
    outer loop
      vertex 31.7564 0.481995 5
      vertex 37.697 3.47212 5
      vertex 37.5139 4.27409 5
    endloop
  endfacet
  facet normal 0 0 1
    outer loop
      vertex 37.758 2.81599 5
      vertex 31.7564 0.481995 5
      vertex 37.6842 2.06142 5
    endloop
  endfacet
  facet normal 0 0 1
    outer loop
      vertex 30.6765 2.04759 5
      vertex 37.5139 4.27409 5
      vertex 37.2088 5.22192 5
    endloop
  endfacet
  facet normal 0 -0 1
    outer loop
      vertex 37.0942 0.745621 5
      vertex 37.6842 2.06142 5
      vertex 31.7564 0.481995 5
    endloop
  endfacet
  facet normal 0 0 1
    outer loop
      vertex 30.6765 2.04759 5
      vertex 37.2088 5.22192 5
      vertex 36.7816 6.3156 5
    endloop
  endfacet
  facet normal 0 0 1
    outer loop
      vertex 37.6842 2.06142 5
      vertex 37.0942 0.745621 5
      vertex 37.463 1.37129 5
    endloop
  endfacet
  facet normal 0 0 1
    outer loop
      vertex 29.5932 4.22319 5
      vertex 36.7816 6.3156 5
      vertex 36.2475 7.59734 5
    endloop
  endfacet
  facet normal 0 0 1
    outer loop
      vertex 37.5139 4.27409 5
      vertex 30.6765 2.04759 5
      vertex 31.7564 0.481995 5
    endloop
  endfacet
  facet normal 0 0 1
    outer loop
      vertex 28.8998 5.88359 5
      vertex 36.2475 7.59734 5
      vertex 35.8389 8.6214 5
    endloop
  endfacet
  facet normal 0 0 1
    outer loop
      vertex 28.8998 5.88359 5
      vertex 35.8389 8.6214 5
      vertex 35.5557 9.38774 5
    endloop
  endfacet
  facet normal 0 0 1
    outer loop
      vertex 28.2574 7.66599 5
      vertex 35.5557 9.38774 5
      vertex 35.398 9.89639 5
    endloop
  endfacet
  facet normal 0 0 1
    outer loop
      vertex 37.0942 0.745621 5
      vertex 31.7564 0.481995 5
      vertex 36.578 0.184387 5
    endloop
  endfacet
  facet normal 0 0 1
    outer loop
      vertex 36.578 0.184387 5
      vertex 31.7564 0.481995 5
      vertex 35.9685 -0.27507 5
    endloop
  endfacet
  facet normal 0 0 1
    outer loop
      vertex 27.6658 9.57039 5
      vertex 35.398 9.89639 5
      vertex 34.2503 14.7879 5
    endloop
  endfacet
  facet normal 0 0 1
    outer loop
      vertex 36.7816 6.3156 5
      vertex 29.5932 4.22319 5
      vertex 30.6765 2.04759 5
    endloop
  endfacet
  facet normal -0 0 1
    outer loop
      vertex 25.5788 17.8432 5
      vertex 34.2503 14.7879 5
      vertex 33.1942 19.3979 5
    endloop
  endfacet
  facet normal 0 0 1
    outer loop
      vertex 35.9685 -0.27507 5
      vertex 31.7564 0.481995 5
      vertex 35.32 -0.59549 5
    endloop
  endfacet
  facet normal -0 0 1
    outer loop
      vertex 25.2229 19.7389 5
      vertex 33.1942 19.3979 5
      vertex 32.2295 23.7265 5
    endloop
  endfacet
  facet normal 0 0 1
    outer loop
      vertex 35.32 -0.59549 5
      vertex 31.7564 0.481995 5
      vertex 34.6325 -0.776871 5
    endloop
  endfacet
  facet normal 0 0 1
    outer loop
      vertex 25.2229 19.7389 5
      vertex 32.2295 23.7265 5
      vertex 31.3564 27.7736 5
    endloop
  endfacet
  facet normal 0 0 1
    outer loop
      vertex 25.2229 19.7389 5
      vertex 31.3564 27.7736 5
      vertex 30.8122 30.4948 5
    endloop
  endfacet
  facet normal 0 0 1
    outer loop
      vertex 36.2475 7.59734 5
      vertex 28.8998 5.88359 5
      vertex 29.5932 4.22319 5
    endloop
  endfacet
  facet normal 0 0 1
    outer loop
      vertex 25.2229 19.7389 5
      vertex 30.8122 30.4948 5
      vertex 30.346 32.8532 5
    endloop
  endfacet
  facet normal 0 0 1
    outer loop
      vertex 29.022 38.0601 5
      vertex 22.7852 37.5186 5
      vertex 29.6476 36.4816 5
    endloop
  endfacet
  facet normal 0 0 1
    outer loop
      vertex 22.7852 37.5186 5
      vertex 29.022 38.0601 5
      vertex 24.5483 39.4468 5
    endloop
  endfacet
  facet normal -0 -0 1
    outer loop
      vertex 32.8329 -0.473587 5
      vertex 34.6325 -0.776871 5
      vertex 31.7564 0.481995 5
    endloop
  endfacet
  facet normal 0 0 1
    outer loop
      vertex 28.149 39.1876 5
      vertex 24.5483 39.4468 5
      vertex 29.022 38.0601 5
    endloop
  endfacet
  facet normal 0 0 1
    outer loop
      vertex 34.6325 -0.776871 5
      vertex 32.8329 -0.473587 5
      vertex 33.906 -0.819199 5
    endloop
  endfacet
  facet normal 0 0 1
    outer loop
      vertex 35.5557 9.38774 5
      vertex 28.2574 7.66599 5
      vertex 28.8998 5.88359 5
    endloop
  endfacet
  facet normal 0 0 1
    outer loop
      vertex 27.0284 39.8641 5
      vertex 24.5483 39.4468 5
      vertex 28.149 39.1876 5
    endloop
  endfacet
  facet normal 0 0 1
    outer loop
      vertex 35.398 9.89639 5
      vertex 27.6658 9.57039 5
      vertex 28.2574 7.66599 5
    endloop
  endfacet
  facet normal 0 0 1
    outer loop
      vertex 34.2503 14.7879 5
      vertex 27.1252 11.5968 5
      vertex 27.6658 9.57039 5
    endloop
  endfacet
  facet normal 0 0 1
    outer loop
      vertex 24.5483 39.4468 5
      vertex 27.0284 39.8641 5
      vertex 25.6604 40.0896 5
    endloop
  endfacet
  facet normal 0 0 1
    outer loop
      vertex 34.2503 14.7879 5
      vertex 25.5788 17.8432 5
      vertex 27.1252 11.5968 5
    endloop
  endfacet
  facet normal 0 0 1
    outer loop
      vertex 29.6476 36.4816 5
      vertex 22.7852 37.5186 5
      vertex 29.9578 34.8488 5
    endloop
  endfacet
  facet normal 0 0 1
    outer loop
      vertex 27.1252 11.5968 5
      vertex 25.5788 17.8432 5
      vertex 25.9622 11.4472 5
    endloop
  endfacet
  facet normal -0 0 1
    outer loop
      vertex 25.0449 17.783 5
      vertex 25.9622 11.4472 5
      vertex 25.5788 17.8432 5
    endloop
  endfacet
  facet normal 0 0 1
    outer loop
      vertex 25.0449 17.783 5
      vertex 24.4805 11.2976 5
      vertex 25.9622 11.4472 5
    endloop
  endfacet
  facet normal -0 0 1
    outer loop
      vertex 24.2295 17.7126 5
      vertex 24.4805 11.2976 5
      vertex 25.0449 17.783 5
    endloop
  endfacet
  facet normal 0 0 1
    outer loop
      vertex 21 15 5
      vertex 24.2295 17.7126 5
      vertex 23.1327 17.6318 5
    endloop
  endfacet
  facet normal 0 0 1
    outer loop
      vertex 24.2295 17.7126 5
      vertex 21 15 5
      vertex 24.4805 11.2976 5
    endloop
  endfacet
  facet normal 0 0 1
    outer loop
      vertex 21 15 5
      vertex 23.1327 17.6318 5
      vertex 21.7544 17.5408 5
    endloop
  endfacet
  facet normal 0 0 1
    outer loop
      vertex 24.4805 11.2976 5
      vertex 21 15 5
      vertex 22.68 11.148 5
    endloop
  endfacet
  facet normal -0 0 1
    outer loop
      vertex 20 14 5
      vertex 22.68 11.148 5
      vertex 21 15 5
    endloop
  endfacet
  facet normal 0 0 1
    outer loop
      vertex 22.68 11.148 5
      vertex 20 14 5
      vertex 20.5608 10.9984 5
    endloop
  endfacet
  facet normal 0 0 1
    outer loop
      vertex 18.5434 10.842 5
      vertex 20 14 5
      vertex 19 15 5
    endloop
  endfacet
  facet normal 0 0 1
    outer loop
      vertex 20 14 5
      vertex 18.5434 10.842 5
      vertex 20.5608 10.9984 5
    endloop
  endfacet
  facet normal -0 0 1
    outer loop
      vertex 17.9568 17.1008 5
      vertex 19 15 5
      vertex 18.6518 17.2313 5
    endloop
  endfacet
  facet normal 0 0 1
    outer loop
      vertex 15.2612 10.4884 5
      vertex 19 15 5
      vertex 17.9568 17.1008 5
    endloop
  endfacet
  facet normal 0 0 1
    outer loop
      vertex 19 15 5
      vertex 16.7769 10.672 5
      vertex 18.5434 10.842 5
    endloop
  endfacet
  facet normal -0 0 1
    outer loop
      vertex 12.8031 22.7641 5
      vertex 19.7148 20.0728 5
      vertex 15.0003 26.2543 5
    endloop
  endfacet
  facet normal 0 0 1
    outer loop
      vertex 19.7148 20.0728 5
      vertex 12.8031 22.7641 5
      vertex 17.9568 17.1008 5
    endloop
  endfacet
  facet normal -0 0 1
    outer loop
      vertex 10.7145 19.3349 5
      vertex 17.9568 17.1008 5
      vertex 12.8031 22.7641 5
    endloop
  endfacet
  facet normal 0 0 1
    outer loop
      vertex 8.73439 15.9668 5
      vertex 17.9568 17.1008 5
      vertex 10.7145 19.3349 5
    endloop
  endfacet
  facet normal 0 0 1
    outer loop
      vertex 19 15 5
      vertex 15.2612 10.4884 5
      vertex 16.7769 10.672 5
    endloop
  endfacet
  facet normal 0 0 1
    outer loop
      vertex 17.9568 17.1008 5
      vertex 13.9964 10.2912 5
      vertex 15.2612 10.4884 5
    endloop
  endfacet
  facet normal 0 0 1
    outer loop
      vertex 17.9568 17.1008 5
      vertex 8.73439 15.9668 5
      vertex 13.9964 10.2912 5
    endloop
  endfacet
  facet normal -0 0 1
    outer loop
      vertex 6.42879 12.3576 5
      vertex 13.9964 10.2912 5
      vertex 8.73439 15.9668 5
    endloop
  endfacet
  facet normal 0 0 1
    outer loop
      vertex 13.9964 10.2912 5
      vertex 6.42879 12.3576 5
      vertex 13.2573 8.61119 5
    endloop
  endfacet
  facet normal 0 0 1
    outer loop
      vertex 13.2573 8.61119 5
      vertex 6.42879 12.3576 5
      vertex 12.2876 6.55479 5
    endloop
  endfacet
  facet normal -0 0 1
    outer loop
      vertex 4.69612 8.769 5
      vertex 12.2876 6.55479 5
      vertex 6.42879 12.3576 5
    endloop
  endfacet
  facet normal 0 0 1
    outer loop
      vertex 12.2876 6.55479 5
      vertex 4.69612 8.769 5
      vertex 11.0873 4.12199 5
    endloop
  endfacet
  facet normal -0 0 1
    outer loop
      vertex 3.4585 6.008 5
      vertex 11.0873 4.12199 5
      vertex 4.69612 8.769 5
    endloop
  endfacet
  facet normal 0 0 1
    outer loop
      vertex 6.42879 12.3576 5
      vertex 8.73439 15.9668 5
      vertex 7.62389 15.5648 5
    endloop
  endfacet
  facet normal 0 0 1
    outer loop
      vertex 11.0873 4.12199 5
      vertex 3.4585 6.008 5
      vertex 9.65639 1.31279 5
    endloop
  endfacet
  facet normal 0 0 1
    outer loop
      vertex 6.42879 12.3576 5
      vertex 7.62389 15.5648 5
      vertex 6.81519 15.0916 5
    endloop
  endfacet
  facet normal -0 0 1
    outer loop
      vertex 2.71591 4.07458 5
      vertex 9.65639 1.31279 5
      vertex 3.4585 6.008 5
    endloop
  endfacet
  facet normal 0 0 1
    outer loop
      vertex 9.65639 1.31279 5
      vertex 2.71591 4.07458 5
      vertex 9.00197 0.458435 5
    endloop
  endfacet
  facet normal 0 -0 1
    outer loop
      vertex 6.3472 -0.639999 5
      vertex 9.00197 0.458435 5
      vertex 2.71591 4.07458 5
    endloop
  endfacet
  facet normal 0 0 1
    outer loop
      vertex 9.00197 0.458435 5
      vertex 6.3472 -0.639999 5
      vertex 8.2323 -0.151794 5
    endloop
  endfacet
  facet normal 0 0 1
    outer loop
      vertex 8.2323 -0.151794 5
      vertex 6.3472 -0.639999 5
      vertex 7.34737 -0.517944 5
    endloop
  endfacet
  facet normal 0 0 1
    outer loop
      vertex 6.3472 -0.639999 5
      vertex 2.71591 4.07458 5
      vertex 5.61984 -0.576385 5
    endloop
  endfacet
  facet normal 0 0 1
    outer loop
      vertex 5.61984 -0.576385 5
      vertex 2.71591 4.07458 5
      vertex 4.92979 -0.38559 5
    endloop
  endfacet
  facet normal 0 0 1
    outer loop
      vertex 4.92979 -0.38559 5
      vertex 2.71591 4.07458 5
      vertex 4.27704 -0.0675964 5
    endloop
  endfacet
  facet normal 0 0 1
    outer loop
      vertex 4.27704 -0.0675964 5
      vertex 2.71591 4.07458 5
      vertex 3.66159 0.377594 5
    endloop
  endfacet
  facet normal 0 0 1
    outer loop
      vertex 3.66159 0.377594 5
      vertex 2.71591 4.07458 5
      vertex 3.13957 0.921143 5
    endloop
  endfacet
  facet normal 0 0 1
    outer loop
      vertex 3.13957 0.921143 5
      vertex 2.71591 4.07458 5
      vertex 2.76669 1.53419 5
    endloop
  endfacet
  facet normal 0 0 1
    outer loop
      vertex 2.71591 4.07458 5
      vertex 2.54297 2.21674 5
      vertex 2.76669 1.53419 5
    endloop
  endfacet
  facet normal 0 -0 1
    outer loop
      vertex 2.54297 2.21674 5
      vertex 2.71591 4.07458 5
      vertex 2.4684 2.9688 5
    endloop
  endfacet
  facet normal 0.255098 -0.966915 0
    outer loop
      vertex 34.6325 -0.776871 0
      vertex 35.32 -0.59549 5
      vertex 34.6325 -0.776871 5
    endloop
  endfacet
  facet normal 0.255098 -0.966915 0
    outer loop
      vertex 35.32 -0.59549 5
      vertex 34.6325 -0.776871 0
      vertex 35.32 -0.59549 0
    endloop
  endfacet
  facet normal 0.442973 -0.896535 0
    outer loop
      vertex 35.32 -0.59549 0
      vertex 35.9685 -0.27507 5
      vertex 35.32 -0.59549 5
    endloop
  endfacet
  facet normal 0.442973 -0.896535 0
    outer loop
      vertex 35.9685 -0.27507 5
      vertex 35.32 -0.59549 0
      vertex 35.9685 -0.27507 0
    endloop
  endfacet
  facet normal 0.601954 -0.798531 0
    outer loop
      vertex 35.9685 -0.27507 0
      vertex 36.578 0.184387 5
      vertex 35.9685 -0.27507 5
    endloop
  endfacet
  facet normal 0.601954 -0.798531 0
    outer loop
      vertex 36.578 0.184387 5
      vertex 35.9685 -0.27507 0
      vertex 36.578 0.184387 0
    endloop
  endfacet
  facet normal 0.736019 -0.67696 0
    outer loop
      vertex 36.578 0.184387 5
      vertex 37.0942 0.745621 0
      vertex 37.0942 0.745621 5
    endloop
  endfacet
  facet normal 0.736019 -0.67696 0
    outer loop
      vertex 37.0942 0.745621 0
      vertex 36.578 0.184387 5
      vertex 36.578 0.184387 0
    endloop
  endfacet
  facet normal 0.861477 -0.507797 0
    outer loop
      vertex 37.0942 0.745621 5
      vertex 37.463 1.37129 0
      vertex 37.463 1.37129 5
    endloop
  endfacet
  facet normal 0.861477 -0.507797 0
    outer loop
      vertex 37.463 1.37129 0
      vertex 37.0942 0.745621 5
      vertex 37.0942 0.745621 0
    endloop
  endfacet
  facet normal 0.95228 -0.305224 0
    outer loop
      vertex 37.463 1.37129 5
      vertex 37.6842 2.06142 0
      vertex 37.6842 2.06142 5
    endloop
  endfacet
  facet normal 0.95228 -0.305224 0
    outer loop
      vertex 37.6842 2.06142 0
      vertex 37.463 1.37129 5
      vertex 37.463 1.37129 0
    endloop
  endfacet
  facet normal 0.995251 -0.0973396 0
    outer loop
      vertex 37.6842 2.06142 5
      vertex 37.758 2.81599 0
      vertex 37.758 2.81599 5
    endloop
  endfacet
  facet normal 0.995251 -0.0973396 0
    outer loop
      vertex 37.758 2.81599 0
      vertex 37.6842 2.06142 5
      vertex 37.6842 2.06142 0
    endloop
  endfacet
  facet normal 0.995706 0.0925702 0
    outer loop
      vertex 37.758 2.81599 5
      vertex 37.697 3.47212 0
      vertex 37.697 3.47212 5
    endloop
  endfacet
  facet normal 0.995706 0.0925702 0
    outer loop
      vertex 37.697 3.47212 0
      vertex 37.758 2.81599 5
      vertex 37.758 2.81599 0
    endloop
  endfacet
  facet normal 0.974913 0.222585 0
    outer loop
      vertex 37.697 3.47212 5
      vertex 37.5139 4.27409 0
      vertex 37.5139 4.27409 5
    endloop
  endfacet
  facet normal 0.974913 0.222585 0
    outer loop
      vertex 37.5139 4.27409 0
      vertex 37.697 3.47212 5
      vertex 37.697 3.47212 0
    endloop
  endfacet
  facet normal 0.9519 0.30641 0
    outer loop
      vertex 37.5139 4.27409 5
      vertex 37.2088 5.22192 0
      vertex 37.2088 5.22192 5
    endloop
  endfacet
  facet normal 0.9519 0.30641 0
    outer loop
      vertex 37.2088 5.22192 0
      vertex 37.5139 4.27409 5
      vertex 37.5139 4.27409 0
    endloop
  endfacet
  facet normal 0.931463 0.363837 0
    outer loop
      vertex 37.2088 5.22192 5
      vertex 36.7816 6.3156 0
      vertex 36.7816 6.3156 5
    endloop
  endfacet
  facet normal 0.931463 0.363837 0
    outer loop
      vertex 36.7816 6.3156 0
      vertex 37.2088 5.22192 5
      vertex 37.2088 5.22192 0
    endloop
  endfacet
  facet normal 0.923066 0.384641 0
    outer loop
      vertex 36.7816 6.3156 5
      vertex 36.2475 7.59734 0
      vertex 36.2475 7.59734 5
    endloop
  endfacet
  facet normal 0.923066 0.384641 0
    outer loop
      vertex 36.2475 7.59734 0
      vertex 36.7816 6.3156 5
      vertex 36.7816 6.3156 0
    endloop
  endfacet
  facet normal 0.928797 0.37059 0
    outer loop
      vertex 36.2475 7.59734 5
      vertex 35.8389 8.6214 0
      vertex 35.8389 8.6214 5
    endloop
  endfacet
  facet normal 0.928797 0.37059 0
    outer loop
      vertex 35.8389 8.6214 0
      vertex 36.2475 7.59734 5
      vertex 36.2475 7.59734 0
    endloop
  endfacet
  facet normal 0.938 0.346637 0
    outer loop
      vertex 35.8389 8.6214 5
      vertex 35.5557 9.38774 0
      vertex 35.5557 9.38774 5
    endloop
  endfacet
  facet normal 0.938 0.346637 0
    outer loop
      vertex 35.5557 9.38774 0
      vertex 35.8389 8.6214 5
      vertex 35.8389 8.6214 0
    endloop
  endfacet
  facet normal 0.955148 0.29613 0
    outer loop
      vertex 35.5557 9.38774 5
      vertex 35.398 9.89639 0
      vertex 35.398 9.89639 5
    endloop
  endfacet
  facet normal 0.955148 0.29613 0
    outer loop
      vertex 35.398 9.89639 0
      vertex 35.5557 9.38774 5
      vertex 35.5557 9.38774 0
    endloop
  endfacet
  facet normal 0.973561 0.228428 0
    outer loop
      vertex 35.398 9.89639 5
      vertex 34.2503 14.7879 0
      vertex 34.2503 14.7879 5
    endloop
  endfacet
  facet normal 0.973561 0.228428 0
    outer loop
      vertex 34.2503 14.7879 0
      vertex 35.398 9.89639 5
      vertex 35.398 9.89639 0
    endloop
  endfacet
  facet normal 0.974749 0.223304 0
    outer loop
      vertex 34.2503 14.7879 5
      vertex 33.1942 19.3979 0
      vertex 33.1942 19.3979 5
    endloop
  endfacet
  facet normal 0.974749 0.223304 0
    outer loop
      vertex 33.1942 19.3979 0
      vertex 34.2503 14.7879 5
      vertex 34.2503 14.7879 0
    endloop
  endfacet
  facet normal 0.976054 0.21753 0
    outer loop
      vertex 33.1942 19.3979 5
      vertex 32.2295 23.7265 0
      vertex 32.2295 23.7265 5
    endloop
  endfacet
  facet normal 0.976054 0.21753 0
    outer loop
      vertex 32.2295 23.7265 0
      vertex 33.1942 19.3979 5
      vertex 33.1942 19.3979 0
    endloop
  endfacet
  facet normal 0.977511 0.210883 0
    outer loop
      vertex 32.2295 23.7265 5
      vertex 31.3564 27.7736 0
      vertex 31.3564 27.7736 5
    endloop
  endfacet
  facet normal 0.977511 0.210883 0
    outer loop
      vertex 31.3564 27.7736 0
      vertex 32.2295 23.7265 5
      vertex 32.2295 23.7265 0
    endloop
  endfacet
  facet normal 0.980583 0.196102 0
    outer loop
      vertex 31.3564 27.7736 5
      vertex 30.8122 30.4948 0
      vertex 30.8122 30.4948 5
    endloop
  endfacet
  facet normal 0.980583 0.196102 0
    outer loop
      vertex 30.8122 30.4948 0
      vertex 31.3564 27.7736 5
      vertex 31.3564 27.7736 0
    endloop
  endfacet
  facet normal 0.981017 0.193924 0
    outer loop
      vertex 30.8122 30.4948 5
      vertex 30.346 32.8532 0
      vertex 30.346 32.8532 5
    endloop
  endfacet
  facet normal 0.981017 0.193924 0
    outer loop
      vertex 30.346 32.8532 0
      vertex 30.8122 30.4948 5
      vertex 30.8122 30.4948 0
    endloop
  endfacet
  facet normal 0.9816 0.190949 0
    outer loop
      vertex 30.346 32.8532 5
      vertex 29.9578 34.8488 0
      vertex 29.9578 34.8488 5
    endloop
  endfacet
  facet normal 0.9816 0.190949 0
    outer loop
      vertex 29.9578 34.8488 0
      vertex 30.346 32.8532 5
      vertex 30.346 32.8532 0
    endloop
  endfacet
  facet normal 0.982428 0.186642 0
    outer loop
      vertex 29.9578 34.8488 5
      vertex 29.6476 36.4816 0
      vertex 29.6476 36.4816 5
    endloop
  endfacet
  facet normal 0.982428 0.186642 0
    outer loop
      vertex 29.6476 36.4816 0
      vertex 29.9578 34.8488 5
      vertex 29.9578 34.8488 0
    endloop
  endfacet
  facet normal 0.92965 0.368444 0
    outer loop
      vertex 29.6476 36.4816 5
      vertex 29.022 38.0601 0
      vertex 29.022 38.0601 5
    endloop
  endfacet
  facet normal 0.92965 0.368444 0
    outer loop
      vertex 29.022 38.0601 0
      vertex 29.6476 36.4816 5
      vertex 29.6476 36.4816 0
    endloop
  endfacet
  facet normal 0.790691 0.612216 0
    outer loop
      vertex 29.022 38.0601 5
      vertex 28.149 39.1876 0
      vertex 28.149 39.1876 5
    endloop
  endfacet
  facet normal 0.790691 0.612216 0
    outer loop
      vertex 28.149 39.1876 0
      vertex 29.022 38.0601 5
      vertex 29.022 38.0601 0
    endloop
  endfacet
  facet normal 0.516819 0.856094 -0
    outer loop
      vertex 28.149 39.1876 0
      vertex 27.0284 39.8641 5
      vertex 28.149 39.1876 5
    endloop
  endfacet
  facet normal 0.516819 0.856094 0
    outer loop
      vertex 27.0284 39.8641 5
      vertex 28.149 39.1876 0
      vertex 27.0284 39.8641 0
    endloop
  endfacet
  facet normal 0.162644 0.986685 -0
    outer loop
      vertex 27.0284 39.8641 0
      vertex 25.6604 40.0896 5
      vertex 27.0284 39.8641 5
    endloop
  endfacet
  facet normal 0.162644 0.986685 0
    outer loop
      vertex 25.6604 40.0896 5
      vertex 27.0284 39.8641 0
      vertex 25.6604 40.0896 0
    endloop
  endfacet
  facet normal -0.500425 0.86578 0
    outer loop
      vertex 25.6604 40.0896 0
      vertex 24.5483 39.4468 5
      vertex 25.6604 40.0896 5
    endloop
  endfacet
  facet normal -0.500425 0.86578 0
    outer loop
      vertex 24.5483 39.4468 5
      vertex 25.6604 40.0896 0
      vertex 24.5483 39.4468 0
    endloop
  endfacet
  facet normal -0.737996 0.674806 0
    outer loop
      vertex 22.7852 37.5186 0
      vertex 24.5483 39.4468 5
      vertex 24.5483 39.4468 0
    endloop
  endfacet
  facet normal -0.737996 0.674806 0
    outer loop
      vertex 24.5483 39.4468 5
      vertex 22.7852 37.5186 0
      vertex 22.7852 37.5186 5
    endloop
  endfacet
  facet normal -0.799552 0.600597 0
    outer loop
      vertex 20.3711 34.3048 0
      vertex 22.7852 37.5186 5
      vertex 22.7852 37.5186 0
    endloop
  endfacet
  facet normal -0.799552 0.600597 0
    outer loop
      vertex 22.7852 37.5186 5
      vertex 20.3711 34.3048 0
      vertex 20.3711 34.3048 5
    endloop
  endfacet
  facet normal -0.826444 0.563019 0
    outer loop
      vertex 17.306 29.8056 0
      vertex 20.3711 34.3048 5
      vertex 20.3711 34.3048 0
    endloop
  endfacet
  facet normal -0.826444 0.563019 0
    outer loop
      vertex 20.3711 34.3048 5
      vertex 17.306 29.8056 0
      vertex 17.306 29.8056 5
    endloop
  endfacet
  facet normal -0.838729 0.544549 0
    outer loop
      vertex 15.0003 26.2543 0
      vertex 17.306 29.8056 5
      vertex 17.306 29.8056 0
    endloop
  endfacet
  facet normal -0.838729 0.544549 0
    outer loop
      vertex 17.306 29.8056 5
      vertex 15.0003 26.2543 0
      vertex 15.0003 26.2543 5
    endloop
  endfacet
  facet normal -0.846269 0.532755 0
    outer loop
      vertex 12.8031 22.7641 0
      vertex 15.0003 26.2543 5
      vertex 15.0003 26.2543 0
    endloop
  endfacet
  facet normal -0.846269 0.532755 0
    outer loop
      vertex 15.0003 26.2543 5
      vertex 12.8031 22.7641 0
      vertex 12.8031 22.7641 5
    endloop
  endfacet
  facet normal -0.854059 0.520176 0
    outer loop
      vertex 10.7145 19.3349 0
      vertex 12.8031 22.7641 5
      vertex 12.8031 22.7641 0
    endloop
  endfacet
  facet normal -0.854059 0.520176 0
    outer loop
      vertex 12.8031 22.7641 5
      vertex 10.7145 19.3349 0
      vertex 10.7145 19.3349 5
    endloop
  endfacet
  facet normal -0.86206 0.506806 0
    outer loop
      vertex 8.73439 15.9668 0
      vertex 10.7145 19.3349 5
      vertex 10.7145 19.3349 0
    endloop
  endfacet
  facet normal -0.86206 0.506806 0
    outer loop
      vertex 10.7145 19.3349 5
      vertex 8.73439 15.9668 0
      vertex 8.73439 15.9668 5
    endloop
  endfacet
  facet normal -0.340383 0.940287 0
    outer loop
      vertex 8.73439 15.9668 0
      vertex 7.62389 15.5648 5
      vertex 8.73439 15.9668 5
    endloop
  endfacet
  facet normal -0.340383 0.940287 0
    outer loop
      vertex 7.62389 15.5648 5
      vertex 8.73439 15.9668 0
      vertex 7.62389 15.5648 0
    endloop
  endfacet
  facet normal -0.505032 0.863101 0
    outer loop
      vertex 7.62389 15.5648 0
      vertex 6.81519 15.0916 5
      vertex 7.62389 15.5648 5
    endloop
  endfacet
  facet normal -0.505032 0.863101 0
    outer loop
      vertex 6.81519 15.0916 5
      vertex 7.62389 15.5648 0
      vertex 6.81519 15.0916 0
    endloop
  endfacet
  facet normal -0.731864 0.681451 0
    outer loop
      vertex 6.30829 14.5472 0
      vertex 6.81519 15.0916 5
      vertex 6.81519 15.0916 0
    endloop
  endfacet
  facet normal -0.731864 0.681451 0
    outer loop
      vertex 6.81519 15.0916 5
      vertex 6.30829 14.5472 0
      vertex 6.30829 14.5472 5
    endloop
  endfacet
  facet normal -0.948734 0.316075 0
    outer loop
      vertex 6.1032 13.9316 0
      vertex 6.30829 14.5472 5
      vertex 6.30829 14.5472 0
    endloop
  endfacet
  facet normal -0.948734 0.316075 0
    outer loop
      vertex 6.30829 14.5472 5
      vertex 6.1032 13.9316 0
      vertex 6.1032 13.9316 5
    endloop
  endfacet
  facet normal -1 0.000133976 0
    outer loop
      vertex 6.10315 13.5584 0
      vertex 6.1032 13.9316 5
      vertex 6.1032 13.9316 0
    endloop
  endfacet
  facet normal -1 0.000133976 0
    outer loop
      vertex 6.1032 13.9316 5
      vertex 6.10315 13.5584 0
      vertex 6.10315 13.5584 5
    endloop
  endfacet
  facet normal -0.990306 -0.138904 0
    outer loop
      vertex 6.15739 13.1717 0
      vertex 6.10315 13.5584 5
      vertex 6.10315 13.5584 0
    endloop
  endfacet
  facet normal -0.990306 -0.138904 0
    outer loop
      vertex 6.10315 13.5584 5
      vertex 6.15739 13.1717 0
      vertex 6.15739 13.1717 5
    endloop
  endfacet
  facet normal -0.965138 -0.261742 0
    outer loop
      vertex 6.26595 12.7714 0
      vertex 6.15739 13.1717 5
      vertex 6.15739 13.1717 0
    endloop
  endfacet
  facet normal -0.965138 -0.261742 0
    outer loop
      vertex 6.15739 13.1717 5
      vertex 6.26595 12.7714 0
      vertex 6.26595 12.7714 5
    endloop
  endfacet
  facet normal -0.93054 -0.366189 0
    outer loop
      vertex 6.42879 12.3576 0
      vertex 6.26595 12.7714 5
      vertex 6.26595 12.7714 0
    endloop
  endfacet
  facet normal -0.93054 -0.366189 0
    outer loop
      vertex 6.26595 12.7714 5
      vertex 6.42879 12.3576 0
      vertex 6.42879 12.3576 5
    endloop
  endfacet
  facet normal -0.900528 0.434798 0
    outer loop
      vertex 4.69612 8.769 0
      vertex 6.42879 12.3576 5
      vertex 6.42879 12.3576 0
    endloop
  endfacet
  facet normal -0.900528 0.434798 0
    outer loop
      vertex 6.42879 12.3576 5
      vertex 4.69612 8.769 0
      vertex 4.69612 8.769 5
    endloop
  endfacet
  facet normal -0.912518 0.409037 0
    outer loop
      vertex 3.4585 6.008 0
      vertex 4.69612 8.769 5
      vertex 4.69612 8.769 0
    endloop
  endfacet
  facet normal -0.912518 0.409037 0
    outer loop
      vertex 4.69612 8.769 5
      vertex 3.4585 6.008 0
      vertex 3.4585 6.008 5
    endloop
  endfacet
  facet normal -0.933513 0.358545 0
    outer loop
      vertex 2.71591 4.07458 0
      vertex 3.4585 6.008 5
      vertex 3.4585 6.008 0
    endloop
  endfacet
  facet normal -0.933513 0.358545 0
    outer loop
      vertex 3.4585 6.008 5
      vertex 2.71591 4.07458 0
      vertex 2.71591 4.07458 5
    endloop
  endfacet
  facet normal -0.975853 0.218428 0
    outer loop
      vertex 2.4684 2.9688 0
      vertex 2.71591 4.07458 5
      vertex 2.71591 4.07458 0
    endloop
  endfacet
  facet normal -0.975853 0.218428 0
    outer loop
      vertex 2.71591 4.07458 5
      vertex 2.4684 2.9688 0
      vertex 2.4684 2.9688 5
    endloop
  endfacet
  facet normal -0.99512 -0.0986705 0
    outer loop
      vertex 2.54297 2.21674 0
      vertex 2.4684 2.9688 5
      vertex 2.4684 2.9688 0
    endloop
  endfacet
  facet normal -0.99512 -0.0986705 0
    outer loop
      vertex 2.4684 2.9688 5
      vertex 2.54297 2.21674 0
      vertex 2.54297 2.21674 5
    endloop
  endfacet
  facet normal -0.950257 -0.311467 0
    outer loop
      vertex 2.76669 1.53419 0
      vertex 2.54297 2.21674 5
      vertex 2.54297 2.21674 0
    endloop
  endfacet
  facet normal -0.950257 -0.311467 0
    outer loop
      vertex 2.54297 2.21674 5
      vertex 2.76669 1.53419 0
      vertex 2.76669 1.53419 5
    endloop
  endfacet
  facet normal -0.854371 -0.519663 0
    outer loop
      vertex 3.13957 0.921143 0
      vertex 2.76669 1.53419 5
      vertex 2.76669 1.53419 0
    endloop
  endfacet
  facet normal -0.854371 -0.519663 0
    outer loop
      vertex 2.76669 1.53419 5
      vertex 3.13957 0.921143 0
      vertex 3.13957 0.921143 5
    endloop
  endfacet
  facet normal -0.721246 -0.692679 0
    outer loop
      vertex 3.66159 0.377594 0
      vertex 3.13957 0.921143 5
      vertex 3.13957 0.921143 0
    endloop
  endfacet
  facet normal -0.721246 -0.692679 0
    outer loop
      vertex 3.13957 0.921143 5
      vertex 3.66159 0.377594 0
      vertex 3.66159 0.377594 5
    endloop
  endfacet
  facet normal -0.586095 -0.810242 0
    outer loop
      vertex 3.66159 0.377594 0
      vertex 4.27704 -0.0675964 5
      vertex 3.66159 0.377594 5
    endloop
  endfacet
  facet normal -0.586095 -0.810242 -0
    outer loop
      vertex 4.27704 -0.0675964 5
      vertex 3.66159 0.377594 0
      vertex 4.27704 -0.0675964 0
    endloop
  endfacet
  facet normal -0.437955 -0.898997 0
    outer loop
      vertex 4.27704 -0.0675964 0
      vertex 4.92979 -0.38559 5
      vertex 4.27704 -0.0675964 5
    endloop
  endfacet
  facet normal -0.437955 -0.898997 -0
    outer loop
      vertex 4.92979 -0.38559 5
      vertex 4.27704 -0.0675964 0
      vertex 4.92979 -0.38559 0
    endloop
  endfacet
  facet normal -0.266495 -0.963836 0
    outer loop
      vertex 4.92979 -0.38559 0
      vertex 5.61984 -0.576385 5
      vertex 4.92979 -0.38559 5
    endloop
  endfacet
  facet normal -0.266495 -0.963836 -0
    outer loop
      vertex 5.61984 -0.576385 5
      vertex 4.92979 -0.38559 0
      vertex 5.61984 -0.576385 0
    endloop
  endfacet
  facet normal -0.0871262 -0.996197 0
    outer loop
      vertex 5.61984 -0.576385 0
      vertex 6.3472 -0.639999 5
      vertex 5.61984 -0.576385 5
    endloop
  endfacet
  facet normal -0.0871262 -0.996197 -0
    outer loop
      vertex 6.3472 -0.639999 5
      vertex 5.61984 -0.576385 0
      vertex 6.3472 -0.639999 0
    endloop
  endfacet
  facet normal 0.121136 -0.992636 0
    outer loop
      vertex 6.3472 -0.639999 0
      vertex 7.34737 -0.517944 5
      vertex 6.3472 -0.639999 5
    endloop
  endfacet
  facet normal 0.121136 -0.992636 0
    outer loop
      vertex 7.34737 -0.517944 5
      vertex 6.3472 -0.639999 0
      vertex 7.34737 -0.517944 0
    endloop
  endfacet
  facet normal 0.382327 -0.924027 0
    outer loop
      vertex 7.34737 -0.517944 0
      vertex 8.2323 -0.151794 5
      vertex 7.34737 -0.517944 5
    endloop
  endfacet
  facet normal 0.382327 -0.924027 0
    outer loop
      vertex 8.2323 -0.151794 5
      vertex 7.34737 -0.517944 0
      vertex 8.2323 -0.151794 0
    endloop
  endfacet
  facet normal 0.62127 -0.783596 0
    outer loop
      vertex 8.2323 -0.151794 0
      vertex 9.00197 0.458435 5
      vertex 8.2323 -0.151794 5
    endloop
  endfacet
  facet normal 0.62127 -0.783596 0
    outer loop
      vertex 9.00197 0.458435 5
      vertex 8.2323 -0.151794 0
      vertex 9.00197 0.458435 0
    endloop
  endfacet
  facet normal 0.793869 -0.608089 0
    outer loop
      vertex 9.00197 0.458435 5
      vertex 9.65639 1.31279 0
      vertex 9.65639 1.31279 5
    endloop
  endfacet
  facet normal 0.793869 -0.608089 0
    outer loop
      vertex 9.65639 1.31279 0
      vertex 9.00197 0.458435 5
      vertex 9.00197 0.458435 0
    endloop
  endfacet
  facet normal 0.891064 -0.453877 0
    outer loop
      vertex 9.65639 1.31279 5
      vertex 11.0873 4.12199 0
      vertex 11.0873 4.12199 5
    endloop
  endfacet
  facet normal 0.891064 -0.453877 0
    outer loop
      vertex 11.0873 4.12199 0
      vertex 9.65639 1.31279 5
      vertex 9.65639 1.31279 0
    endloop
  endfacet
  facet normal 0.896789 -0.442459 0
    outer loop
      vertex 11.0873 4.12199 5
      vertex 12.2876 6.55479 0
      vertex 12.2876 6.55479 5
    endloop
  endfacet
  facet normal 0.896789 -0.442459 0
    outer loop
      vertex 12.2876 6.55479 0
      vertex 11.0873 4.12199 5
      vertex 11.0873 4.12199 0
    endloop
  endfacet
  facet normal 0.904482 -0.426511 0
    outer loop
      vertex 12.2876 6.55479 5
      vertex 13.2573 8.61119 0
      vertex 13.2573 8.61119 5
    endloop
  endfacet
  facet normal 0.904482 -0.426511 0
    outer loop
      vertex 13.2573 8.61119 0
      vertex 12.2876 6.55479 5
      vertex 12.2876 6.55479 0
    endloop
  endfacet
  facet normal 0.915336 -0.402691 0
    outer loop
      vertex 13.2573 8.61119 5
      vertex 13.9964 10.2912 0
      vertex 13.9964 10.2912 5
    endloop
  endfacet
  facet normal 0.915336 -0.402691 0
    outer loop
      vertex 13.9964 10.2912 0
      vertex 13.2573 8.61119 5
      vertex 13.2573 8.61119 0
    endloop
  endfacet
  facet normal 0.154053 -0.988063 0
    outer loop
      vertex 13.9964 10.2912 0
      vertex 15.2612 10.4884 5
      vertex 13.9964 10.2912 5
    endloop
  endfacet
  facet normal 0.154053 -0.988063 0
    outer loop
      vertex 15.2612 10.4884 5
      vertex 13.9964 10.2912 0
      vertex 15.2612 10.4884 0
    endloop
  endfacet
  facet normal 0.120253 -0.992743 0
    outer loop
      vertex 15.2612 10.4884 0
      vertex 16.7769 10.672 5
      vertex 15.2612 10.4884 5
    endloop
  endfacet
  facet normal 0.120253 -0.992743 0
    outer loop
      vertex 16.7769 10.672 5
      vertex 15.2612 10.4884 0
      vertex 16.7769 10.672 0
    endloop
  endfacet
  facet normal 0.0957929 -0.995401 0
    outer loop
      vertex 16.7769 10.672 0
      vertex 18.5434 10.842 5
      vertex 16.7769 10.672 5
    endloop
  endfacet
  facet normal 0.0957929 -0.995401 0
    outer loop
      vertex 18.5434 10.842 5
      vertex 16.7769 10.672 0
      vertex 18.5434 10.842 0
    endloop
  endfacet
  facet normal 0.0772936 -0.997008 0
    outer loop
      vertex 18.5434 10.842 0
      vertex 20.5608 10.9984 5
      vertex 18.5434 10.842 5
    endloop
  endfacet
  facet normal 0.0772936 -0.997008 0
    outer loop
      vertex 20.5608 10.9984 5
      vertex 18.5434 10.842 0
      vertex 20.5608 10.9984 0
    endloop
  endfacet
  facet normal 0.0704174 -0.997518 0
    outer loop
      vertex 20.5608 10.9984 0
      vertex 22.68 11.148 5
      vertex 20.5608 10.9984 5
    endloop
  endfacet
  facet normal 0.0704174 -0.997518 0
    outer loop
      vertex 22.68 11.148 5
      vertex 20.5608 10.9984 0
      vertex 22.68 11.148 0
    endloop
  endfacet
  facet normal 0.0828027 -0.996566 0
    outer loop
      vertex 22.68 11.148 0
      vertex 24.4805 11.2976 5
      vertex 22.68 11.148 5
    endloop
  endfacet
  facet normal 0.0828027 -0.996566 0
    outer loop
      vertex 24.4805 11.2976 5
      vertex 22.68 11.148 0
      vertex 24.4805 11.2976 0
    endloop
  endfacet
  facet normal 0.100454 -0.994942 0
    outer loop
      vertex 24.4805 11.2976 0
      vertex 25.9622 11.4472 5
      vertex 24.4805 11.2976 5
    endloop
  endfacet
  facet normal 0.100454 -0.994942 0
    outer loop
      vertex 25.9622 11.4472 5
      vertex 24.4805 11.2976 0
      vertex 25.9622 11.4472 0
    endloop
  endfacet
  facet normal 0.127582 -0.991828 0
    outer loop
      vertex 25.9622 11.4472 0
      vertex 27.1252 11.5968 5
      vertex 25.9622 11.4472 5
    endloop
  endfacet
  facet normal 0.127582 -0.991828 0
    outer loop
      vertex 27.1252 11.5968 5
      vertex 25.9622 11.4472 0
      vertex 27.1252 11.5968 0
    endloop
  endfacet
  facet normal -0.966208 -0.257762 0
    outer loop
      vertex 27.6658 9.57039 0
      vertex 27.1252 11.5968 5
      vertex 27.1252 11.5968 0
    endloop
  endfacet
  facet normal -0.966208 -0.257762 0
    outer loop
      vertex 27.1252 11.5968 5
      vertex 27.6658 9.57039 0
      vertex 27.6658 9.57039 5
    endloop
  endfacet
  facet normal -0.954982 -0.296664 0
    outer loop
      vertex 28.2574 7.66599 0
      vertex 27.6658 9.57039 5
      vertex 27.6658 9.57039 0
    endloop
  endfacet
  facet normal -0.954982 -0.296664 0
    outer loop
      vertex 27.6658 9.57039 5
      vertex 28.2574 7.66599 0
      vertex 28.2574 7.66599 5
    endloop
  endfacet
  facet normal -0.940764 -0.339063 0
    outer loop
      vertex 28.8998 5.88359 0
      vertex 28.2574 7.66599 5
      vertex 28.2574 7.66599 0
    endloop
  endfacet
  facet normal -0.940764 -0.339063 0
    outer loop
      vertex 28.2574 7.66599 5
      vertex 28.8998 5.88359 0
      vertex 28.8998 5.88359 5
    endloop
  endfacet
  facet normal -0.922768 -0.385357 0
    outer loop
      vertex 29.5932 4.22319 0
      vertex 28.8998 5.88359 5
      vertex 28.8998 5.88359 0
    endloop
  endfacet
  facet normal -0.922768 -0.385357 0
    outer loop
      vertex 28.8998 5.88359 5
      vertex 29.5932 4.22319 0
      vertex 29.5932 4.22319 5
    endloop
  endfacet
  facet normal -0.895167 -0.445732 0
    outer loop
      vertex 30.6765 2.04759 0
      vertex 29.5932 4.22319 5
      vertex 29.5932 4.22319 0
    endloop
  endfacet
  facet normal -0.895167 -0.445732 0
    outer loop
      vertex 29.5932 4.22319 5
      vertex 30.6765 2.04759 0
      vertex 30.6765 2.04759 5
    endloop
  endfacet
  facet normal -0.823169 -0.567797 0
    outer loop
      vertex 31.7564 0.481995 0
      vertex 30.6765 2.04759 5
      vertex 30.6765 2.04759 0
    endloop
  endfacet
  facet normal -0.823169 -0.567797 0
    outer loop
      vertex 30.6765 2.04759 5
      vertex 31.7564 0.481995 0
      vertex 31.7564 0.481995 5
    endloop
  endfacet
  facet normal -0.663857 -0.74786 0
    outer loop
      vertex 31.7564 0.481995 0
      vertex 32.8329 -0.473587 5
      vertex 31.7564 0.481995 5
    endloop
  endfacet
  facet normal -0.663857 -0.74786 -0
    outer loop
      vertex 32.8329 -0.473587 5
      vertex 31.7564 0.481995 0
      vertex 32.8329 -0.473587 0
    endloop
  endfacet
  facet normal -0.306561 -0.951851 0
    outer loop
      vertex 32.8329 -0.473587 0
      vertex 33.906 -0.819199 5
      vertex 32.8329 -0.473587 5
    endloop
  endfacet
  facet normal -0.306561 -0.951851 -0
    outer loop
      vertex 33.906 -0.819199 5
      vertex 32.8329 -0.473587 0
      vertex 33.906 -0.819199 0
    endloop
  endfacet
  facet normal 0.0581643 -0.998307 0
    outer loop
      vertex 33.906 -0.819199 0
      vertex 34.6325 -0.776871 5
      vertex 33.906 -0.819199 5
    endloop
  endfacet
  facet normal 0.0581643 -0.998307 0
    outer loop
      vertex 34.6325 -0.776871 5
      vertex 33.906 -0.819199 0
      vertex 34.6325 -0.776871 0
    endloop
  endfacet
  facet normal 0.861439 -0.50786 0
    outer loop
      vertex 19.7148 20.0728 5
      vertex 21.2728 22.7155 0
      vertex 21.2728 22.7155 5
    endloop
  endfacet
  facet normal 0.861439 -0.50786 0
    outer loop
      vertex 21.2728 22.7155 0
      vertex 19.7148 20.0728 5
      vertex 19.7148 20.0728 0
    endloop
  endfacet
  facet normal 0.862403 -0.506222 0
    outer loop
      vertex 21.2728 22.7155 5
      vertex 22.6308 25.029 0
      vertex 22.6308 25.029 5
    endloop
  endfacet
  facet normal 0.862403 -0.506222 0
    outer loop
      vertex 22.6308 25.029 0
      vertex 21.2728 22.7155 5
      vertex 21.2728 22.7155 0
    endloop
  endfacet
  facet normal 0.863675 -0.50405 0
    outer loop
      vertex 22.6308 25.029 5
      vertex 23.7888 27.0132 0
      vertex 23.7888 27.0132 5
    endloop
  endfacet
  facet normal 0.863675 -0.50405 0
    outer loop
      vertex 23.7888 27.0132 0
      vertex 22.6308 25.029 5
      vertex 22.6308 25.029 0
    endloop
  endfacet
  facet normal -0.980494 -0.196551 0
    outer loop
      vertex 24.3279 24.3239 0
      vertex 23.7888 27.0132 5
      vertex 23.7888 27.0132 0
    endloop
  endfacet
  facet normal -0.980494 -0.196551 0
    outer loop
      vertex 23.7888 27.0132 5
      vertex 24.3279 24.3239 0
      vertex 24.3279 24.3239 5
    endloop
  endfacet
  facet normal -0.981119 -0.193408 0
    outer loop
      vertex 24.8059 21.8991 0
      vertex 24.3279 24.3239 5
      vertex 24.3279 24.3239 0
    endloop
  endfacet
  facet normal -0.981119 -0.193408 0
    outer loop
      vertex 24.3279 24.3239 5
      vertex 24.8059 21.8991 0
      vertex 24.8059 21.8991 5
    endloop
  endfacet
  facet normal -0.981873 -0.189539 0
    outer loop
      vertex 25.2229 19.7389 0
      vertex 24.8059 21.8991 5
      vertex 24.8059 21.8991 0
    endloop
  endfacet
  facet normal -0.981873 -0.189539 0
    outer loop
      vertex 24.8059 21.8991 5
      vertex 25.2229 19.7389 0
      vertex 25.2229 19.7389 5
    endloop
  endfacet
  facet normal -0.982829 -0.184517 0
    outer loop
      vertex 25.5788 17.8432 0
      vertex 25.2229 19.7389 5
      vertex 25.2229 19.7389 0
    endloop
  endfacet
  facet normal -0.982829 -0.184517 0
    outer loop
      vertex 25.2229 19.7389 5
      vertex 25.5788 17.8432 0
      vertex 25.5788 17.8432 5
    endloop
  endfacet
  facet normal -0.112045 0.993703 0
    outer loop
      vertex 25.5788 17.8432 0
      vertex 25.0449 17.783 5
      vertex 25.5788 17.8432 5
    endloop
  endfacet
  facet normal -0.112045 0.993703 0
    outer loop
      vertex 25.0449 17.783 5
      vertex 25.5788 17.8432 0
      vertex 25.0449 17.783 0
    endloop
  endfacet
  facet normal -0.086018 0.996294 0
    outer loop
      vertex 25.0449 17.783 0
      vertex 24.2295 17.7126 5
      vertex 25.0449 17.783 5
    endloop
  endfacet
  facet normal -0.086018 0.996294 0
    outer loop
      vertex 24.2295 17.7126 5
      vertex 25.0449 17.783 0
      vertex 24.2295 17.7126 0
    endloop
  endfacet
  facet normal -0.0734698 0.997297 0
    outer loop
      vertex 24.2295 17.7126 0
      vertex 23.1327 17.6318 5
      vertex 24.2295 17.7126 5
    endloop
  endfacet
  facet normal -0.0734698 0.997297 0
    outer loop
      vertex 23.1327 17.6318 5
      vertex 24.2295 17.7126 0
      vertex 23.1327 17.6318 0
    endloop
  endfacet
  facet normal -0.0658799 0.997828 0
    outer loop
      vertex 23.1327 17.6318 0
      vertex 21.7544 17.5408 5
      vertex 23.1327 17.6318 5
    endloop
  endfacet
  facet normal -0.0658799 0.997828 0
    outer loop
      vertex 21.7544 17.5408 5
      vertex 23.1327 17.6318 0
      vertex 21.7544 17.5408 0
    endloop
  endfacet
  facet normal -0.0741433 0.997248 0
    outer loop
      vertex 21.7544 17.5408 0
      vertex 20.5506 17.4513 5
      vertex 21.7544 17.5408 5
    endloop
  endfacet
  facet normal -0.0741433 0.997248 0
    outer loop
      vertex 20.5506 17.4513 5
      vertex 21.7544 17.5408 0
      vertex 20.5506 17.4513 0
    endloop
  endfacet
  facet normal -0.0991989 0.995068 0
    outer loop
      vertex 20.5506 17.4513 0
      vertex 19.5164 17.3482 5
      vertex 20.5506 17.4513 5
    endloop
  endfacet
  facet normal -0.0991989 0.995068 0
    outer loop
      vertex 19.5164 17.3482 5
      vertex 20.5506 17.4513 0
      vertex 19.5164 17.3482 0
    endloop
  endfacet
  facet normal -0.133988 0.990983 0
    outer loop
      vertex 19.5164 17.3482 0
      vertex 18.6518 17.2313 5
      vertex 19.5164 17.3482 5
    endloop
  endfacet
  facet normal -0.133988 0.990983 0
    outer loop
      vertex 18.6518 17.2313 5
      vertex 19.5164 17.3482 0
      vertex 18.6518 17.2313 0
    endloop
  endfacet
  facet normal -0.184545 0.982824 0
    outer loop
      vertex 18.6518 17.2313 0
      vertex 17.9568 17.1008 5
      vertex 18.6518 17.2313 5
    endloop
  endfacet
  facet normal -0.184545 0.982824 0
    outer loop
      vertex 17.9568 17.1008 5
      vertex 18.6518 17.2313 0
      vertex 17.9568 17.1008 0
    endloop
  endfacet
  facet normal 0.860696 -0.50912 0
    outer loop
      vertex 17.9568 17.1008 5
      vertex 19.7148 20.0728 0
      vertex 19.7148 20.0728 5
    endloop
  endfacet
  facet normal 0.860696 -0.50912 0
    outer loop
      vertex 19.7148 20.0728 0
      vertex 17.9568 17.1008 5
      vertex 17.9568 17.1008 0
    endloop
  endfacet
  facet normal 0.707107 -0.707107 0
    outer loop
      vertex 19 15 5
      vertex 20 16 2
      vertex 20 16 5
    endloop
  endfacet
  facet normal 0.707107 -0.707107 0
    outer loop
      vertex 20 16 2
      vertex 19 15 5
      vertex 19 15 2
    endloop
  endfacet
  facet normal -0.707107 -0.707107 0
    outer loop
      vertex 21 15 2
      vertex 20 16 5
      vertex 20 16 2
    endloop
  endfacet
  facet normal -0.707107 -0.707107 0
    outer loop
      vertex 20 16 5
      vertex 21 15 2
      vertex 21 15 5
    endloop
  endfacet
  facet normal 0 0 1
    outer loop
      vertex 20 16 2
      vertex 20 14 2
      vertex 21 15 2
    endloop
  endfacet
  facet normal 0 -0 1
    outer loop
      vertex 20 14 2
      vertex 20 16 2
      vertex 19 15 2
    endloop
  endfacet
  facet normal -0.707107 0.707107 0
    outer loop
      vertex 20 14 2
      vertex 21 15 5
      vertex 21 15 2
    endloop
  endfacet
  facet normal -0.707107 0.707107 0
    outer loop
      vertex 21 15 5
      vertex 20 14 2
      vertex 20 14 5
    endloop
  endfacet
  facet normal 0.707107 0.707107 0
    outer loop
      vertex 20 14 5
      vertex 19 15 2
      vertex 19 15 5
    endloop
  endfacet
  facet normal 0.707107 0.707107 0
    outer loop
      vertex 19 15 2
      vertex 20 14 5
      vertex 20 14 2
    endloop
  endfacet
endsolid OpenSCAD_Model
