solid OpenSCAD_Model
  facet normal 0 0 -1
    outer loop
      vertex 29.8376 21.1304 0
      vertex 27.3182 26.8776 0
      vertex 27.6132 28.6168 0
    endloop
  endfacet
  facet normal 0 0 -1
    outer loop
      vertex 25.7008 16.7632 0
      vertex 29.8376 21.1304 0
      vertex 27.1487 16.024 0
    endloop
  endfacet
  facet normal 0 0 -1
    outer loop
      vertex 29.8376 21.1304 0
      vertex 26.4332 25.5112 0
      vertex 27.3182 26.8776 0
    endloop
  endfacet
  facet normal 0 0 -1
    outer loop
      vertex 25.0329 24.5652 0
      vertex 29.8376 21.1304 0
      vertex 25.7008 16.7632 0
    endloop
  endfacet
  facet normal 0 0 -1
    outer loop
      vertex 29.8376 21.1304 0
      vertex 25.0329 24.5652 0
      vertex 26.4332 25.5112 0
    endloop
  endfacet
  facet normal 0 0 -1
    outer loop
      vertex 25.7008 16.7632 0
      vertex 23.192 24.0872 0
      vertex 25.0329 24.5652 0
    endloop
  endfacet
  facet normal 0 0 -1
    outer loop
      vertex 23.1004 17.1904 0
      vertex 23.192 24.0872 0
      vertex 25.7008 16.7632 0
    endloop
  endfacet
  facet normal 0 0 -1
    outer loop
      vertex 18.904 20.651 0
      vertex 23.192 24.0872 0
      vertex 23.1004 17.1904 0
    endloop
  endfacet
  facet normal 0 0 -1
    outer loop
      vertex 23.192 24.0872 0
      vertex 18.904 20.651 0
      vertex 21.1644 23.9852 0
    endloop
  endfacet
  facet normal 0 0 -1
    outer loop
      vertex 23.1004 17.1904 0
      vertex 18.902 20.5882 0
      vertex 18.904 20.651 0
    endloop
  endfacet
  facet normal 0 0 -1
    outer loop
      vertex 23.1004 17.1904 0
      vertex 18.8961 20.5257 0
      vertex 18.902 20.5882 0
    endloop
  endfacet
  facet normal 0 0 -1
    outer loop
      vertex 23.1004 17.1904 0
      vertex 18.8863 20.4636 0
      vertex 18.8961 20.5257 0
    endloop
  endfacet
  facet normal 0 0 -1
    outer loop
      vertex 23.1004 17.1904 0
      vertex 18.8726 20.4023 0
      vertex 18.8863 20.4636 0
    endloop
  endfacet
  facet normal 0 0 -1
    outer loop
      vertex 23.1004 17.1904 0
      vertex 18.8551 20.342 0
      vertex 18.8726 20.4023 0
    endloop
  endfacet
  facet normal 0 0 -1
    outer loop
      vertex 23.1004 17.1904 0
      vertex 18.8338 20.2829 0
      vertex 18.8551 20.342 0
    endloop
  endfacet
  facet normal 0 0 -1
    outer loop
      vertex 23.1004 17.1904 0
      vertex 18.8088 20.2252 0
      vertex 18.8338 20.2829 0
    endloop
  endfacet
  facet normal 0 0 -1
    outer loop
      vertex 23.1004 17.1904 0
      vertex 18.7803 20.1692 0
      vertex 18.8088 20.2252 0
    endloop
  endfacet
  facet normal 0 0 -1
    outer loop
      vertex 23.1004 17.1904 0
      vertex 18.7483 20.1152 0
      vertex 18.7803 20.1692 0
    endloop
  endfacet
  facet normal 0 0 -1
    outer loop
      vertex 23.1004 17.1904 0
      vertex 18.713 20.0632 0
      vertex 18.7483 20.1152 0
    endloop
  endfacet
  facet normal 0 0 -1
    outer loop
      vertex 18.5808 17.3328 0
      vertex 18.713 20.0632 0
      vertex 23.1004 17.1904 0
    endloop
  endfacet
  facet normal 0 0 -1
    outer loop
      vertex 18.713 20.0632 0
      vertex 18.5808 17.3328 0
      vertex 18.6745 20.0136 0
    endloop
  endfacet
  facet normal 0 0 -1
    outer loop
      vertex 18.6745 20.0136 0
      vertex 18.5808 17.3328 0
      vertex 18.633 19.9665 0
    endloop
  endfacet
  facet normal 0 0 -1
    outer loop
      vertex 18.633 19.9665 0
      vertex 18.5808 17.3328 0
      vertex 18.5885 19.922 0
    endloop
  endfacet
  facet normal 0 0 -1
    outer loop
      vertex 18.5808 17.3328 0
      vertex 18.5414 19.8805 0
      vertex 18.5885 19.922 0
    endloop
  endfacet
  facet normal 0 0 -1
    outer loop
      vertex 18.5808 17.3328 0
      vertex 18.4918 19.842 0
      vertex 18.5414 19.8805 0
    endloop
  endfacet
  facet normal 0 0 -1
    outer loop
      vertex 18.5808 17.3328 0
      vertex 18.4398 19.8067 0
      vertex 18.4918 19.842 0
    endloop
  endfacet
  facet normal 0 0 -1
    outer loop
      vertex 18.5808 17.3328 0
      vertex 18.3858 19.7747 0
      vertex 18.4398 19.8067 0
    endloop
  endfacet
  facet normal 0 0 -1
    outer loop
      vertex 18.5808 17.3328 0
      vertex 18.3298 19.7462 0
      vertex 18.3858 19.7747 0
    endloop
  endfacet
  facet normal 0 0 -1
    outer loop
      vertex 18.5808 17.3328 0
      vertex 18.2721 19.7212 0
      vertex 18.3298 19.7462 0
    endloop
  endfacet
  facet normal 0 0 -1
    outer loop
      vertex 18.5808 17.3328 0
      vertex 18.213 19.6999 0
      vertex 18.2721 19.7212 0
    endloop
  endfacet
  facet normal 0 0 -1
    outer loop
      vertex 18.5808 17.3328 0
      vertex 18.1527 19.6824 0
      vertex 18.213 19.6999 0
    endloop
  endfacet
  facet normal 0 0 -1
    outer loop
      vertex 18.5808 17.3328 0
      vertex 18.0914 19.6687 0
      vertex 18.1527 19.6824 0
    endloop
  endfacet
  facet normal 0 0 -1
    outer loop
      vertex 18.5808 17.3328 0
      vertex 18.0293 19.6589 0
      vertex 18.0914 19.6687 0
    endloop
  endfacet
  facet normal 0 0 -1
    outer loop
      vertex 18.5808 17.3328 0
      vertex 17.9668 19.653 0
      vertex 18.0293 19.6589 0
    endloop
  endfacet
  facet normal 0 0 -1
    outer loop
      vertex 18.5808 17.3328 0
      vertex 17.904 19.651 0
      vertex 17.9668 19.653 0
    endloop
  endfacet
  facet normal 0 0 -1
    outer loop
      vertex 18.5808 17.3328 0
      vertex 17.8412 19.653 0
      vertex 17.904 19.651 0
    endloop
  endfacet
  facet normal 0 0 -1
    outer loop
      vertex 18.5808 17.3328 0
      vertex 17.7787 19.6589 0
      vertex 17.8412 19.653 0
    endloop
  endfacet
  facet normal 0 0 -1
    outer loop
      vertex 18.5808 17.3328 0
      vertex 17.7166 19.6687 0
      vertex 17.7787 19.6589 0
    endloop
  endfacet
  facet normal 0 0 -1
    outer loop
      vertex 18.5808 17.3328 0
      vertex 17.6553 19.6824 0
      vertex 17.7166 19.6687 0
    endloop
  endfacet
  facet normal 0 0 -1
    outer loop
      vertex 18.5808 17.3328 0
      vertex 17.595 19.6999 0
      vertex 17.6553 19.6824 0
    endloop
  endfacet
  facet normal 0 0 -1
    outer loop
      vertex 18.5808 17.3328 0
      vertex 17.5359 19.7212 0
      vertex 17.595 19.6999 0
    endloop
  endfacet
  facet normal 0 0 -1
    outer loop
      vertex 18.5808 17.3328 0
      vertex 17.4782 19.7462 0
      vertex 17.5359 19.7212 0
    endloop
  endfacet
  facet normal 0 0 -1
    outer loop
      vertex 18.5808 17.3328 0
      vertex 17.4222 19.7747 0
      vertex 17.4782 19.7462 0
    endloop
  endfacet
  facet normal 0 0 -1
    outer loop
      vertex 18.5808 17.3328 0
      vertex 17.3682 19.8067 0
      vertex 17.4222 19.7747 0
    endloop
  endfacet
  facet normal 0 0 -1
    outer loop
      vertex 18.5808 17.3328 0
      vertex 17.3162 19.842 0
      vertex 17.3682 19.8067 0
    endloop
  endfacet
  facet normal 0 0 -1
    outer loop
      vertex 12.0976 17.3328 0
      vertex 17.3162 19.842 0
      vertex 18.5808 17.3328 0
    endloop
  endfacet
  facet normal -0 0 -1
    outer loop
      vertex 17.3162 19.842 0
      vertex 12.0976 17.3328 0
      vertex 17.2666 19.8805 0
    endloop
  endfacet
  facet normal -0 0 -1
    outer loop
      vertex 17.2666 19.8805 0
      vertex 12.0976 17.3328 0
      vertex 17.2195 19.922 0
    endloop
  endfacet
  facet normal -0 0 -1
    outer loop
      vertex 17.2195 19.922 0
      vertex 12.0976 17.3328 0
      vertex 17.175 19.9665 0
    endloop
  endfacet
  facet normal -0 0 -1
    outer loop
      vertex 17.175 19.9665 0
      vertex 12.0976 17.3328 0
      vertex 17.1335 20.0136 0
    endloop
  endfacet
  facet normal -0 0 -1
    outer loop
      vertex 17.1335 20.0136 0
      vertex 12.0976 17.3328 0
      vertex 17.095 20.0632 0
    endloop
  endfacet
  facet normal -0 0 -1
    outer loop
      vertex 17.095 20.0632 0
      vertex 12.0976 17.3328 0
      vertex 17.0597 20.1152 0
    endloop
  endfacet
  facet normal -0 0 -1
    outer loop
      vertex 16.906 20.5882 0
      vertex 12.0976 17.3328 0
      vertex 16.904 20.651 0
    endloop
  endfacet
  facet normal -0 0 -1
    outer loop
      vertex 16.9119 20.5257 0
      vertex 12.0976 17.3328 0
      vertex 16.906 20.5882 0
    endloop
  endfacet
  facet normal -0 0 -1
    outer loop
      vertex 16.9217 20.4636 0
      vertex 12.0976 17.3328 0
      vertex 16.9119 20.5257 0
    endloop
  endfacet
  facet normal -0 0 -1
    outer loop
      vertex 16.9354 20.4023 0
      vertex 12.0976 17.3328 0
      vertex 16.9217 20.4636 0
    endloop
  endfacet
  facet normal -0 0 -1
    outer loop
      vertex 16.9529 20.342 0
      vertex 12.0976 17.3328 0
      vertex 16.9354 20.4023 0
    endloop
  endfacet
  facet normal -0 0 -1
    outer loop
      vertex 16.9742 20.2829 0
      vertex 12.0976 17.3328 0
      vertex 16.9529 20.342 0
    endloop
  endfacet
  facet normal -0 0 -1
    outer loop
      vertex 16.9992 20.2252 0
      vertex 12.0976 17.3328 0
      vertex 16.9742 20.2829 0
    endloop
  endfacet
  facet normal -0 0 -1
    outer loop
      vertex 17.0277 20.1692 0
      vertex 12.0976 17.3328 0
      vertex 16.9992 20.2252 0
    endloop
  endfacet
  facet normal -0 0 -1
    outer loop
      vertex 17.0597 20.1152 0
      vertex 12.0976 17.3328 0
      vertex 17.0277 20.1692 0
    endloop
  endfacet
  facet normal 0 0 -1
    outer loop
      vertex 29.078 11.908 0
      vertex 37.3784 11.528 0
      vertex 37.063 8.85289 0
    endloop
  endfacet
  facet normal 0 0 -1
    outer loop
      vertex 28.7966 10.0057 0
      vertex 37.063 8.85289 0
      vertex 36.1168 6.2524 0
    endloop
  endfacet
  facet normal 0 0 -1
    outer loop
      vertex 37.3784 11.528 0
      vertex 29.078 11.908 0
      vertex 36.8901 14.7493 0
    endloop
  endfacet
  facet normal 0 0 -1
    outer loop
      vertex 28.7966 10.0057 0
      vertex 36.1168 6.2524 0
      vertex 34.625 3.94679 0
    endloop
  endfacet
  facet normal 0 0 -1
    outer loop
      vertex 28.861 13.5624 0
      vertex 36.8901 14.7493 0
      vertex 29.078 11.908 0
    endloop
  endfacet
  facet normal 0 0 -1
    outer loop
      vertex 27.9524 8.53079 0
      vertex 34.625 3.94679 0
      vertex 32.672 2.15639 0
    endloop
  endfacet
  facet normal 0 0 -1
    outer loop
      vertex 27.9524 8.53079 0
      vertex 32.672 2.15639 0
      vertex 30.2341 0.9189 0
    endloop
  endfacet
  facet normal 0 0 -1
    outer loop
      vertex 37.063 8.85289 0
      vertex 28.7966 10.0057 0
      vertex 29.078 11.908 0
    endloop
  endfacet
  facet normal 0 0 -1
    outer loop
      vertex 28.21 14.9456 0
      vertex 35.4252 17.5228 0
      vertex 28.861 13.5624 0
    endloop
  endfacet
  facet normal -0 0 -1
    outer loop
      vertex 35.4252 17.5228 0
      vertex 28.21 14.9456 0
      vertex 33.0519 19.6995 0
    endloop
  endfacet
  facet normal -0 0 -1
    outer loop
      vertex 36.8901 14.7493 0
      vertex 28.861 13.5624 0
      vertex 35.4252 17.5228 0
    endloop
  endfacet
  facet normal 0 0 -1
    outer loop
      vertex 34.625 3.94679 0
      vertex 27.9524 8.53079 0
      vertex 28.7966 10.0057 0
    endloop
  endfacet
  facet normal 0 0 -1
    outer loop
      vertex 26.6606 7.50349 0
      vertex 30.2341 0.9189 0
      vertex 27.2876 0.271194 0
    endloop
  endfacet
  facet normal 0 0 -1
    outer loop
      vertex 30.2341 0.9189 0
      vertex 26.6606 7.50349 0
      vertex 27.9524 8.53079 0
    endloop
  endfacet
  facet normal 0 0 -1
    outer loop
      vertex 27.2876 0.271194 0
      vertex 25.0364 6.94398 0
      vertex 26.6606 7.50349 0
    endloop
  endfacet
  facet normal 0 0 -1
    outer loop
      vertex 23.8631 0.094986 0
      vertex 25.0364 6.94398 0
      vertex 27.2876 0.271194 0
    endloop
  endfacet
  facet normal 0 0 -1
    outer loop
      vertex 23.8631 0.094986 0
      vertex 23.0766 6.76099 0
      vertex 25.0364 6.94398 0
    endloop
  endfacet
  facet normal 0 0 -1
    outer loop
      vertex 23.8631 0.094986 0
      vertex 19.53 6.7 0
      vertex 23.0766 6.76099 0
    endloop
  endfacet
  facet normal 0 0 -1
    outer loop
      vertex 17.604 0 0
      vertex 19.53 6.7 0
      vertex 23.8631 0.094986 0
    endloop
  endfacet
  facet normal 0 0 -1
    outer loop
      vertex 17.604 0 0
      vertex 12.0976 6.7 0
      vertex 19.53 6.7 0
    endloop
  endfacet
  facet normal 0 0 -1
    outer loop
      vertex 4.06879 0 0
      vertex 12.0976 17.3328 0
      vertex 12.0976 6.7 0
    endloop
  endfacet
  facet normal 0 0 -1
    outer loop
      vertex 4.06879 39.7652 0
      vertex 12.0976 17.3328 0
      vertex 4.06879 0 0
    endloop
  endfacet
  facet normal 0 0 -1
    outer loop
      vertex 12.0976 17.3328 0
      vertex 4.06879 39.7652 0
      vertex 12.0976 23.9512 0
    endloop
  endfacet
  facet normal 0 0 -1
    outer loop
      vertex 4.06879 0 0
      vertex 12.0976 6.7 0
      vertex 17.604 0 0
    endloop
  endfacet
  facet normal 0 0 -1
    outer loop
      vertex 34.2044 34.408 0
      vertex 35.4252 29.756 0
      vertex 35.0488 27.0776 0
    endloop
  endfacet
  facet normal 0 0 -1
    outer loop
      vertex 35.4252 29.756 0
      vertex 34.2044 34.408 0
      vertex 35.12 32.2076 0
    endloop
  endfacet
  facet normal 0 0 -1
    outer loop
      vertex 33.9196 24.6296 0
      vertex 34.2044 34.408 0
      vertex 35.0488 27.0776 0
    endloop
  endfacet
  facet normal 0 0 -1
    outer loop
      vertex 33.9196 24.6296 0
      vertex 32.8313 36.2763 0
      vertex 34.2044 34.408 0
    endloop
  endfacet
  facet normal 0 0 -1
    outer loop
      vertex 32.1465 22.5884 0
      vertex 32.8313 36.2763 0
      vertex 33.9196 24.6296 0
    endloop
  endfacet
  facet normal 0 0 -1
    outer loop
      vertex 29.8376 21.1304 0
      vertex 32.8313 36.2763 0
      vertex 32.1465 22.5884 0
    endloop
  endfacet
  facet normal -0 0 -1
    outer loop
      vertex 32.8313 36.2763 0
      vertex 29.8376 21.1304 0
      vertex 31.1528 37.7308 0
    endloop
  endfacet
  facet normal -0 0 -1
    outer loop
      vertex 31.1528 37.7308 0
      vertex 29.8376 21.1304 0
      vertex 29.1999 38.7651 0
    endloop
  endfacet
  facet normal -0 0 -1
    outer loop
      vertex 33.0519 19.6995 0
      vertex 28.21 14.9456 0
      vertex 29.8376 21.1304 0
    endloop
  endfacet
  facet normal 0 0 -1
    outer loop
      vertex 27.1487 16.024 0
      vertex 29.8376 21.1304 0
      vertex 28.21 14.9456 0
    endloop
  endfacet
  facet normal 0 0 -1
    outer loop
      vertex 29.8376 21.1304 0
      vertex 27.6132 28.6168 0
      vertex 29.1999 38.7651 0
    endloop
  endfacet
  facet normal 0 0 -1
    outer loop
      vertex 27.3589 30.2883 0
      vertex 29.1999 38.7651 0
      vertex 27.6132 28.6168 0
    endloop
  endfacet
  facet normal 0 0 -1
    outer loop
      vertex 26.596 31.614 0
      vertex 29.1999 38.7651 0
      vertex 27.3589 30.2883 0
    endloop
  endfacet
  facet normal 0 0 -1
    outer loop
      vertex 25.3313 32.5399 0
      vertex 29.1999 38.7651 0
      vertex 26.596 31.614 0
    endloop
  endfacet
  facet normal -0 0 -1
    outer loop
      vertex 29.1999 38.7651 0
      vertex 25.3313 32.5399 0
      vertex 27.0028 39.372 0
    endloop
  endfacet
  facet normal 0 0 -1
    outer loop
      vertex 23.5716 33.0112 0
      vertex 27.0028 39.372 0
      vertex 25.3313 32.5399 0
    endloop
  endfacet
  facet normal -0 0 -1
    outer loop
      vertex 27.0028 39.372 0
      vertex 23.5716 33.0112 0
      vertex 24.0835 39.6669 0
    endloop
  endfacet
  facet normal 0 0 -1
    outer loop
      vertex 21.2592 33.1129 0
      vertex 24.0835 39.6669 0
      vertex 23.5716 33.0112 0
    endloop
  endfacet
  facet normal 0 0 -1
    outer loop
      vertex 21.2592 33.1129 0
      vertex 19.964 39.7652 0
      vertex 24.0835 39.6669 0
    endloop
  endfacet
  facet normal 0 0 -1
    outer loop
      vertex 16.7092 33.1468 0
      vertex 19.964 39.7652 0
      vertex 21.2592 33.1129 0
    endloop
  endfacet
  facet normal 0 0 -1
    outer loop
      vertex 12.0976 33.1468 0
      vertex 19.964 39.7652 0
      vertex 16.7092 33.1468 0
    endloop
  endfacet
  facet normal 0 0 -1
    outer loop
      vertex 12.0976 33.1468 0
      vertex 4.06879 39.7652 0
      vertex 19.964 39.7652 0
    endloop
  endfacet
  facet normal 0 0 -1
    outer loop
      vertex 12.0976 23.9512 0
      vertex 4.06879 39.7652 0
      vertex 12.0976 33.1468 0
    endloop
  endfacet
  facet normal 0 0 -1
    outer loop
      vertex 18.902 20.7138 0
      vertex 21.1644 23.9852 0
      vertex 18.904 20.651 0
    endloop
  endfacet
  facet normal 0 0 -1
    outer loop
      vertex 18.8961 20.7763 0
      vertex 21.1644 23.9852 0
      vertex 18.902 20.7138 0
    endloop
  endfacet
  facet normal 0 0 -1
    outer loop
      vertex 18.8863 20.8384 0
      vertex 21.1644 23.9852 0
      vertex 18.8961 20.7763 0
    endloop
  endfacet
  facet normal 0 0 -1
    outer loop
      vertex 18.8726 20.8997 0
      vertex 21.1644 23.9852 0
      vertex 18.8863 20.8384 0
    endloop
  endfacet
  facet normal 0 0 -1
    outer loop
      vertex 18.8551 20.96 0
      vertex 21.1644 23.9852 0
      vertex 18.8726 20.8997 0
    endloop
  endfacet
  facet normal 0 0 -1
    outer loop
      vertex 18.8338 21.0191 0
      vertex 21.1644 23.9852 0
      vertex 18.8551 20.96 0
    endloop
  endfacet
  facet normal 0 0 -1
    outer loop
      vertex 18.8088 21.0768 0
      vertex 21.1644 23.9852 0
      vertex 18.8338 21.0191 0
    endloop
  endfacet
  facet normal 0 0 -1
    outer loop
      vertex 18.7803 21.1328 0
      vertex 21.1644 23.9852 0
      vertex 18.8088 21.0768 0
    endloop
  endfacet
  facet normal 0 0 -1
    outer loop
      vertex 18.7483 21.1868 0
      vertex 21.1644 23.9852 0
      vertex 18.7803 21.1328 0
    endloop
  endfacet
  facet normal 0 0 -1
    outer loop
      vertex 18.713 21.2388 0
      vertex 21.1644 23.9852 0
      vertex 18.7483 21.1868 0
    endloop
  endfacet
  facet normal 0 0 -1
    outer loop
      vertex 18.6745 21.2884 0
      vertex 21.1644 23.9852 0
      vertex 18.713 21.2388 0
    endloop
  endfacet
  facet normal 0 0 -1
    outer loop
      vertex 18.633 21.3355 0
      vertex 21.1644 23.9852 0
      vertex 18.6745 21.2884 0
    endloop
  endfacet
  facet normal 0 0 -1
    outer loop
      vertex 18.5885 21.38 0
      vertex 21.1644 23.9852 0
      vertex 18.633 21.3355 0
    endloop
  endfacet
  facet normal 0 0 -1
    outer loop
      vertex 18.5414 21.4215 0
      vertex 21.1644 23.9852 0
      vertex 18.5885 21.38 0
    endloop
  endfacet
  facet normal 0 0 -1
    outer loop
      vertex 18.4918 21.46 0
      vertex 21.1644 23.9852 0
      vertex 18.5414 21.4215 0
    endloop
  endfacet
  facet normal 0 0 -1
    outer loop
      vertex 18.4398 21.4953 0
      vertex 21.1644 23.9852 0
      vertex 18.4918 21.46 0
    endloop
  endfacet
  facet normal 0 0 -1
    outer loop
      vertex 18.3858 21.5273 0
      vertex 21.1644 23.9852 0
      vertex 18.4398 21.4953 0
    endloop
  endfacet
  facet normal 0 0 -1
    outer loop
      vertex 18.3298 21.5558 0
      vertex 21.1644 23.9852 0
      vertex 18.3858 21.5273 0
    endloop
  endfacet
  facet normal 0 0 -1
    outer loop
      vertex 17.36 23.9512 0
      vertex 18.3298 21.5558 0
      vertex 18.2721 21.5808 0
    endloop
  endfacet
  facet normal 0 0 -1
    outer loop
      vertex 17.36 23.9512 0
      vertex 18.2721 21.5808 0
      vertex 18.213 21.6021 0
    endloop
  endfacet
  facet normal 0 0 -1
    outer loop
      vertex 17.36 23.9512 0
      vertex 18.213 21.6021 0
      vertex 18.1527 21.6196 0
    endloop
  endfacet
  facet normal 0 0 -1
    outer loop
      vertex 17.36 23.9512 0
      vertex 18.1527 21.6196 0
      vertex 18.0914 21.6333 0
    endloop
  endfacet
  facet normal 0 0 -1
    outer loop
      vertex 17.36 23.9512 0
      vertex 18.0914 21.6333 0
      vertex 18.0293 21.6431 0
    endloop
  endfacet
  facet normal 0 0 -1
    outer loop
      vertex 17.36 23.9512 0
      vertex 18.0293 21.6431 0
      vertex 17.9668 21.649 0
    endloop
  endfacet
  facet normal 0 0 -1
    outer loop
      vertex 17.36 23.9512 0
      vertex 17.9668 21.649 0
      vertex 17.904 21.651 0
    endloop
  endfacet
  facet normal 0 0 -1
    outer loop
      vertex 17.36 23.9512 0
      vertex 17.904 21.651 0
      vertex 17.8412 21.649 0
    endloop
  endfacet
  facet normal 0 0 -1
    outer loop
      vertex 17.36 23.9512 0
      vertex 17.8412 21.649 0
      vertex 17.7787 21.6431 0
    endloop
  endfacet
  facet normal 0 0 -1
    outer loop
      vertex 17.36 23.9512 0
      vertex 17.7787 21.6431 0
      vertex 17.7166 21.6333 0
    endloop
  endfacet
  facet normal 0 0 -1
    outer loop
      vertex 17.36 23.9512 0
      vertex 17.7166 21.6333 0
      vertex 17.6553 21.6196 0
    endloop
  endfacet
  facet normal 0 0 -1
    outer loop
      vertex 17.36 23.9512 0
      vertex 17.6553 21.6196 0
      vertex 17.595 21.6021 0
    endloop
  endfacet
  facet normal 0 0 -1
    outer loop
      vertex 17.36 23.9512 0
      vertex 17.595 21.6021 0
      vertex 17.5359 21.5808 0
    endloop
  endfacet
  facet normal 0 0 -1
    outer loop
      vertex 17.36 23.9512 0
      vertex 17.5359 21.5808 0
      vertex 17.4782 21.5558 0
    endloop
  endfacet
  facet normal 0 0 -1
    outer loop
      vertex 17.36 23.9512 0
      vertex 17.4782 21.5558 0
      vertex 17.4222 21.5273 0
    endloop
  endfacet
  facet normal 0 0 -1
    outer loop
      vertex 17.36 23.9512 0
      vertex 17.4222 21.5273 0
      vertex 17.3682 21.4953 0
    endloop
  endfacet
  facet normal 0 0 -1
    outer loop
      vertex 18.3298 21.5558 0
      vertex 17.36 23.9512 0
      vertex 21.1644 23.9852 0
    endloop
  endfacet
  facet normal 0 0 -1
    outer loop
      vertex 17.3162 21.46 0
      vertex 17.36 23.9512 0
      vertex 17.3682 21.4953 0
    endloop
  endfacet
  facet normal 0 0 -1
    outer loop
      vertex 17.2666 21.4215 0
      vertex 17.36 23.9512 0
      vertex 17.3162 21.46 0
    endloop
  endfacet
  facet normal 0 0 -1
    outer loop
      vertex 17.2195 21.38 0
      vertex 17.36 23.9512 0
      vertex 17.2666 21.4215 0
    endloop
  endfacet
  facet normal 0 0 -1
    outer loop
      vertex 17.175 21.3355 0
      vertex 17.36 23.9512 0
      vertex 17.2195 21.38 0
    endloop
  endfacet
  facet normal 0 0 -1
    outer loop
      vertex 17.1335 21.2884 0
      vertex 17.36 23.9512 0
      vertex 17.175 21.3355 0
    endloop
  endfacet
  facet normal 0 0 -1
    outer loop
      vertex 17.095 21.2388 0
      vertex 17.36 23.9512 0
      vertex 17.1335 21.2884 0
    endloop
  endfacet
  facet normal 0 0 -1
    outer loop
      vertex 17.0597 21.1868 0
      vertex 17.36 23.9512 0
      vertex 17.095 21.2388 0
    endloop
  endfacet
  facet normal 0 0 -1
    outer loop
      vertex 12.0976 23.9512 0
      vertex 17.0597 21.1868 0
      vertex 17.0277 21.1328 0
    endloop
  endfacet
  facet normal 0 0 -1
    outer loop
      vertex 12.0976 23.9512 0
      vertex 17.0277 21.1328 0
      vertex 16.9992 21.0768 0
    endloop
  endfacet
  facet normal 0 0 -1
    outer loop
      vertex 12.0976 23.9512 0
      vertex 16.9992 21.0768 0
      vertex 16.9742 21.0191 0
    endloop
  endfacet
  facet normal 0 0 -1
    outer loop
      vertex 12.0976 23.9512 0
      vertex 16.9742 21.0191 0
      vertex 16.9529 20.96 0
    endloop
  endfacet
  facet normal 0 0 -1
    outer loop
      vertex 12.0976 23.9512 0
      vertex 16.9529 20.96 0
      vertex 16.9354 20.8997 0
    endloop
  endfacet
  facet normal 0 0 -1
    outer loop
      vertex 12.0976 23.9512 0
      vertex 16.9354 20.8997 0
      vertex 16.9217 20.8384 0
    endloop
  endfacet
  facet normal 0 0 -1
    outer loop
      vertex 12.0976 23.9512 0
      vertex 16.9217 20.8384 0
      vertex 16.9119 20.7763 0
    endloop
  endfacet
  facet normal 0 0 -1
    outer loop
      vertex 12.0976 23.9512 0
      vertex 16.904 20.651 0
      vertex 12.0976 17.3328 0
    endloop
  endfacet
  facet normal 0 0 -1
    outer loop
      vertex 16.904 20.651 0
      vertex 12.0976 23.9512 0
      vertex 16.906 20.7138 0
    endloop
  endfacet
  facet normal 0 0 -1
    outer loop
      vertex 16.906 20.7138 0
      vertex 12.0976 23.9512 0
      vertex 16.9119 20.7763 0
    endloop
  endfacet
  facet normal 0 0 -1
    outer loop
      vertex 17.0597 21.1868 0
      vertex 12.0976 23.9512 0
      vertex 17.36 23.9512 0
    endloop
  endfacet
  facet normal -0 0 1
    outer loop
      vertex 27.3589 30.2883 5
      vertex 35.4252 29.756 5
      vertex 35.12 32.2076 5
    endloop
  endfacet
  facet normal 0 0 1
    outer loop
      vertex 27.3589 30.2883 5
      vertex 35.12 32.2076 5
      vertex 34.2044 34.408 5
    endloop
  endfacet
  facet normal 0 0 1
    outer loop
      vertex 35.4252 29.756 5
      vertex 27.3589 30.2883 5
      vertex 27.6132 28.6168 5
    endloop
  endfacet
  facet normal 0 0 1
    outer loop
      vertex 26.596 31.614 5
      vertex 34.2044 34.408 5
      vertex 32.8313 36.2763 5
    endloop
  endfacet
  facet normal 0 0 1
    outer loop
      vertex 35.4252 29.756 5
      vertex 27.6132 28.6168 5
      vertex 35.0488 27.0776 5
    endloop
  endfacet
  facet normal 0 0 1
    outer loop
      vertex 26.596 31.614 5
      vertex 32.8313 36.2763 5
      vertex 31.1528 37.7308 5
    endloop
  endfacet
  facet normal -0 0 1
    outer loop
      vertex 27.3182 26.8776 5
      vertex 33.9196 24.6296 5
      vertex 27.6132 28.6168 5
    endloop
  endfacet
  facet normal 0 0 1
    outer loop
      vertex 26.596 31.614 5
      vertex 31.1528 37.7308 5
      vertex 29.1999 38.7651 5
    endloop
  endfacet
  facet normal -0 0 1
    outer loop
      vertex 29.078 11.908 5
      vertex 37.3784 11.528 5
      vertex 36.8901 14.7493 5
    endloop
  endfacet
  facet normal 0 0 1
    outer loop
      vertex 37.3784 11.528 5
      vertex 29.078 11.908 5
      vertex 37.063 8.85289 5
    endloop
  endfacet
  facet normal 0 0 1
    outer loop
      vertex 28.861 13.5624 5
      vertex 36.8901 14.7493 5
      vertex 35.4252 17.5228 5
    endloop
  endfacet
  facet normal -0 0 1
    outer loop
      vertex 28.7966 10.0057 5
      vertex 37.063 8.85289 5
      vertex 29.078 11.908 5
    endloop
  endfacet
  facet normal 0 0 1
    outer loop
      vertex 28.21 14.9456 5
      vertex 35.4252 17.5228 5
      vertex 33.0519 19.6995 5
    endloop
  endfacet
  facet normal 0 0 1
    outer loop
      vertex 37.063 8.85289 5
      vertex 28.7966 10.0057 5
      vertex 36.1168 6.2524 5
    endloop
  endfacet
  facet normal 0 0 1
    outer loop
      vertex 36.1168 6.2524 5
      vertex 28.7966 10.0057 5
      vertex 34.625 3.94679 5
    endloop
  endfacet
  facet normal 0 0 1
    outer loop
      vertex 28.21 14.9456 5
      vertex 33.0519 19.6995 5
      vertex 29.8376 21.1304 5
    endloop
  endfacet
  facet normal 0 0 1
    outer loop
      vertex 33.9196 24.6296 5
      vertex 27.3182 26.8776 5
      vertex 32.1465 22.5884 5
    endloop
  endfacet
  facet normal -0 0 1
    outer loop
      vertex 27.9524 8.53079 5
      vertex 34.625 3.94679 5
      vertex 28.7966 10.0057 5
    endloop
  endfacet
  facet normal 0 0 1
    outer loop
      vertex 34.625 3.94679 5
      vertex 27.9524 8.53079 5
      vertex 32.672 2.15639 5
    endloop
  endfacet
  facet normal 0 0 1
    outer loop
      vertex 32.672 2.15639 5
      vertex 27.9524 8.53079 5
      vertex 30.2341 0.9189 5
    endloop
  endfacet
  facet normal -0 0 1
    outer loop
      vertex 26.6606 7.50349 5
      vertex 30.2341 0.9189 5
      vertex 27.9524 8.53079 5
    endloop
  endfacet
  facet normal 0 0 1
    outer loop
      vertex 30.2341 0.9189 5
      vertex 26.6606 7.50349 5
      vertex 27.2876 0.271194 5
    endloop
  endfacet
  facet normal -0 0 1
    outer loop
      vertex 25.0364 6.94398 5
      vertex 27.2876 0.271194 5
      vertex 26.6606 7.50349 5
    endloop
  endfacet
  facet normal 0 0 1
    outer loop
      vertex 25.0364 6.94398 5
      vertex 23.8631 0.094986 5
      vertex 27.2876 0.271194 5
    endloop
  endfacet
  facet normal -0 0 1
    outer loop
      vertex 23.0766 6.76099 5
      vertex 23.8631 0.094986 5
      vertex 25.0364 6.94398 5
    endloop
  endfacet
  facet normal -0 0 1
    outer loop
      vertex 19.53 6.7 5
      vertex 23.8631 0.094986 5
      vertex 23.0766 6.76099 5
    endloop
  endfacet
  facet normal 0 0 1
    outer loop
      vertex 19.53 6.7 5
      vertex 17.604 0 5
      vertex 23.8631 0.094986 5
    endloop
  endfacet
  facet normal -0 0 1
    outer loop
      vertex 12.0976 6.7 5
      vertex 17.604 0 5
      vertex 19.53 6.7 5
    endloop
  endfacet
  facet normal 0 0 1
    outer loop
      vertex 12.0976 6.7 5
      vertex 4.06879 0 5
      vertex 17.604 0 5
    endloop
  endfacet
  facet normal 0 0 1
    outer loop
      vertex 12.0976 17.3328 5
      vertex 4.06879 0 5
      vertex 12.0976 6.7 5
    endloop
  endfacet
  facet normal 0 0 1
    outer loop
      vertex 36.8901 14.7493 5
      vertex 28.861 13.5624 5
      vertex 29.078 11.908 5
    endloop
  endfacet
  facet normal -0 0 1
    outer loop
      vertex 26.4332 25.5112 5
      vertex 32.1465 22.5884 5
      vertex 27.3182 26.8776 5
    endloop
  endfacet
  facet normal 0 0 1
    outer loop
      vertex 32.1465 22.5884 5
      vertex 26.4332 25.5112 5
      vertex 29.8376 21.1304 5
    endloop
  endfacet
  facet normal 0 0 1
    outer loop
      vertex 35.0488 27.0776 5
      vertex 27.6132 28.6168 5
      vertex 33.9196 24.6296 5
    endloop
  endfacet
  facet normal 0 0 1
    outer loop
      vertex 25.3313 32.5399 5
      vertex 29.1999 38.7651 5
      vertex 27.0028 39.372 5
    endloop
  endfacet
  facet normal 0 0 1
    outer loop
      vertex 34.2044 34.408 5
      vertex 26.596 31.614 5
      vertex 27.3589 30.2883 5
    endloop
  endfacet
  facet normal 0 0 1
    outer loop
      vertex 29.1999 38.7651 5
      vertex 25.3313 32.5399 5
      vertex 26.596 31.614 5
    endloop
  endfacet
  facet normal 0 0 1
    outer loop
      vertex 23.5716 33.0112 5
      vertex 27.0028 39.372 5
      vertex 24.0835 39.6669 5
    endloop
  endfacet
  facet normal 0 0 1
    outer loop
      vertex 27.0028 39.372 5
      vertex 23.5716 33.0112 5
      vertex 25.3313 32.5399 5
    endloop
  endfacet
  facet normal 0 0 1
    outer loop
      vertex 24.0835 39.6669 5
      vertex 21.2592 33.1129 5
      vertex 23.5716 33.0112 5
    endloop
  endfacet
  facet normal 0 0 1
    outer loop
      vertex 19.964 39.7652 5
      vertex 21.2592 33.1129 5
      vertex 24.0835 39.6669 5
    endloop
  endfacet
  facet normal 0 0 1
    outer loop
      vertex 19.964 39.7652 5
      vertex 16.7092 33.1468 5
      vertex 21.2592 33.1129 5
    endloop
  endfacet
  facet normal 0 0 1
    outer loop
      vertex 19.964 39.7652 5
      vertex 12.0976 33.1468 5
      vertex 16.7092 33.1468 5
    endloop
  endfacet
  facet normal 0 0 1
    outer loop
      vertex 4.06879 39.7652 5
      vertex 12.0976 23.9512 5
      vertex 12.0976 33.1468 5
    endloop
  endfacet
  facet normal 0 0 1
    outer loop
      vertex 12.0976 23.9512 5
      vertex 4.06879 39.7652 5
      vertex 12.0976 17.3328 5
    endloop
  endfacet
  facet normal 0 0 1
    outer loop
      vertex 4.06879 0 5
      vertex 12.0976 17.3328 5
      vertex 4.06879 39.7652 5
    endloop
  endfacet
  facet normal -0 0 1
    outer loop
      vertex 4.06879 39.7652 5
      vertex 12.0976 33.1468 5
      vertex 19.964 39.7652 5
    endloop
  endfacet
  facet normal 0 0 1
    outer loop
      vertex 35.4252 17.5228 5
      vertex 28.21 14.9456 5
      vertex 28.861 13.5624 5
    endloop
  endfacet
  facet normal -0 0 1
    outer loop
      vertex 25.0329 24.5652 5
      vertex 29.8376 21.1304 5
      vertex 26.4332 25.5112 5
    endloop
  endfacet
  facet normal 0 0 1
    outer loop
      vertex 29.8376 21.1304 5
      vertex 27.1487 16.024 5
      vertex 28.21 14.9456 5
    endloop
  endfacet
  facet normal 0 0 1
    outer loop
      vertex 29.8376 21.1304 5
      vertex 25.7008 16.7632 5
      vertex 27.1487 16.024 5
    endloop
  endfacet
  facet normal 0 0 1
    outer loop
      vertex 29.8376 21.1304 5
      vertex 25.0329 24.5652 5
      vertex 25.7008 16.7632 5
    endloop
  endfacet
  facet normal -0 0 1
    outer loop
      vertex 23.192 24.0872 5
      vertex 25.7008 16.7632 5
      vertex 25.0329 24.5652 5
    endloop
  endfacet
  facet normal 0 0 1
    outer loop
      vertex 23.192 24.0872 5
      vertex 23.1004 17.1904 5
      vertex 25.7008 16.7632 5
    endloop
  endfacet
  facet normal -0 0 1
    outer loop
      vertex 21.1644 23.9852 5
      vertex 23.1004 17.1904 5
      vertex 23.192 24.0872 5
    endloop
  endfacet
  facet normal 0 0 1
    outer loop
      vertex 21.1644 23.9852 5
      vertex 18.5808 17.3328 5
      vertex 23.1004 17.1904 5
    endloop
  endfacet
  facet normal -0 0 1
    outer loop
      vertex 17.36 23.9512 5
      vertex 18.5808 17.3328 5
      vertex 21.1644 23.9852 5
    endloop
  endfacet
  facet normal 0 0 1
    outer loop
      vertex 12.0976 17.3328 5
      vertex 17.36 23.9512 5
      vertex 12.0976 23.9512 5
    endloop
  endfacet
  facet normal 0 0 1
    outer loop
      vertex 17.36 23.9512 5
      vertex 12.0976 17.3328 5
      vertex 18.5808 17.3328 5
    endloop
  endfacet
  facet normal 0.0513871 -0.998679 0
    outer loop
      vertex 23.8631 0.094986 0
      vertex 27.2876 0.271194 5
      vertex 23.8631 0.094986 5
    endloop
  endfacet
  facet normal 0.0513871 -0.998679 0
    outer loop
      vertex 27.2876 0.271194 5
      vertex 23.8631 0.094986 0
      vertex 27.2876 0.271194 0
    endloop
  endfacet
  facet normal 0.214696 -0.976681 0
    outer loop
      vertex 27.2876 0.271194 0
      vertex 30.2341 0.9189 5
      vertex 27.2876 0.271194 5
    endloop
  endfacet
  facet normal 0.214696 -0.976681 0
    outer loop
      vertex 30.2341 0.9189 5
      vertex 27.2876 0.271194 0
      vertex 30.2341 0.9189 0
    endloop
  endfacet
  facet normal 0.45263 -0.891698 0
    outer loop
      vertex 30.2341 0.9189 0
      vertex 32.672 2.15639 5
      vertex 30.2341 0.9189 5
    endloop
  endfacet
  facet normal 0.45263 -0.891698 0
    outer loop
      vertex 32.672 2.15639 5
      vertex 30.2341 0.9189 0
      vertex 32.672 2.15639 0
    endloop
  endfacet
  facet normal 0.675755 -0.737126 0
    outer loop
      vertex 32.672 2.15639 0
      vertex 34.625 3.94679 5
      vertex 32.672 2.15639 5
    endloop
  endfacet
  facet normal 0.675755 -0.737126 0
    outer loop
      vertex 34.625 3.94679 5
      vertex 32.672 2.15639 0
      vertex 34.625 3.94679 0
    endloop
  endfacet
  facet normal 0.839581 -0.543235 0
    outer loop
      vertex 34.625 3.94679 5
      vertex 36.1168 6.2524 0
      vertex 36.1168 6.2524 5
    endloop
  endfacet
  facet normal 0.839581 -0.543235 0
    outer loop
      vertex 36.1168 6.2524 0
      vertex 34.625 3.94679 5
      vertex 34.625 3.94679 0
    endloop
  endfacet
  facet normal 0.939728 -0.341924 0
    outer loop
      vertex 36.1168 6.2524 5
      vertex 37.063 8.85289 0
      vertex 37.063 8.85289 5
    endloop
  endfacet
  facet normal 0.939728 -0.341924 0
    outer loop
      vertex 37.063 8.85289 0
      vertex 36.1168 6.2524 5
      vertex 36.1168 6.2524 0
    endloop
  endfacet
  facet normal 0.993121 -0.117091 0
    outer loop
      vertex 37.063 8.85289 5
      vertex 37.3784 11.528 0
      vertex 37.3784 11.528 5
    endloop
  endfacet
  facet normal 0.993121 -0.117091 0
    outer loop
      vertex 37.3784 11.528 0
      vertex 37.063 8.85289 5
      vertex 37.063 8.85289 0
    endloop
  endfacet
  facet normal 0.988705 0.149873 0
    outer loop
      vertex 37.3784 11.528 5
      vertex 36.8901 14.7493 0
      vertex 36.8901 14.7493 5
    endloop
  endfacet
  facet normal 0.988705 0.149873 0
    outer loop
      vertex 36.8901 14.7493 0
      vertex 37.3784 11.528 5
      vertex 37.3784 11.528 0
    endloop
  endfacet
  facet normal 0.884239 0.467035 0
    outer loop
      vertex 36.8901 14.7493 5
      vertex 35.4252 17.5228 0
      vertex 35.4252 17.5228 5
    endloop
  endfacet
  facet normal 0.884239 0.467035 0
    outer loop
      vertex 35.4252 17.5228 0
      vertex 36.8901 14.7493 5
      vertex 36.8901 14.7493 0
    endloop
  endfacet
  facet normal 0.675923 0.736972 -0
    outer loop
      vertex 35.4252 17.5228 0
      vertex 33.0519 19.6995 5
      vertex 35.4252 17.5228 5
    endloop
  endfacet
  facet normal 0.675923 0.736972 0
    outer loop
      vertex 33.0519 19.6995 5
      vertex 35.4252 17.5228 0
      vertex 33.0519 19.6995 0
    endloop
  endfacet
  facet normal 0.40669 0.913566 -0
    outer loop
      vertex 33.0519 19.6995 0
      vertex 29.8376 21.1304 5
      vertex 33.0519 19.6995 5
    endloop
  endfacet
  facet normal 0.40669 0.913566 0
    outer loop
      vertex 29.8376 21.1304 5
      vertex 33.0519 19.6995 0
      vertex 29.8376 21.1304 0
    endloop
  endfacet
  facet normal 0.533927 -0.845531 0
    outer loop
      vertex 29.8376 21.1304 0
      vertex 32.1465 22.5884 5
      vertex 29.8376 21.1304 5
    endloop
  endfacet
  facet normal 0.533927 -0.845531 0
    outer loop
      vertex 32.1465 22.5884 5
      vertex 29.8376 21.1304 0
      vertex 32.1465 22.5884 0
    endloop
  endfacet
  facet normal 0.754945 -0.655788 0
    outer loop
      vertex 32.1465 22.5884 5
      vertex 33.9196 24.6296 0
      vertex 33.9196 24.6296 5
    endloop
  endfacet
  facet normal 0.754945 -0.655788 0
    outer loop
      vertex 33.9196 24.6296 0
      vertex 32.1465 22.5884 5
      vertex 32.1465 22.5884 0
    endloop
  endfacet
  facet normal 0.908051 -0.418861 0
    outer loop
      vertex 33.9196 24.6296 5
      vertex 35.0488 27.0776 0
      vertex 35.0488 27.0776 5
    endloop
  endfacet
  facet normal 0.908051 -0.418861 0
    outer loop
      vertex 35.0488 27.0776 0
      vertex 33.9196 24.6296 5
      vertex 33.9196 24.6296 0
    endloop
  endfacet
  facet normal 0.990269 -0.139164 0
    outer loop
      vertex 35.0488 27.0776 5
      vertex 35.4252 29.756 0
      vertex 35.4252 29.756 5
    endloop
  endfacet
  facet normal 0.990269 -0.139164 0
    outer loop
      vertex 35.4252 29.756 0
      vertex 35.0488 27.0776 5
      vertex 35.0488 27.0776 0
    endloop
  endfacet
  facet normal 0.99234 0.123537 0
    outer loop
      vertex 35.4252 29.756 5
      vertex 35.12 32.2076 0
      vertex 35.12 32.2076 5
    endloop
  endfacet
  facet normal 0.99234 0.123537 0
    outer loop
      vertex 35.12 32.2076 0
      vertex 35.4252 29.756 5
      vertex 35.4252 29.756 0
    endloop
  endfacet
  facet normal 0.923261 0.384174 0
    outer loop
      vertex 35.12 32.2076 5
      vertex 34.2044 34.408 0
      vertex 34.2044 34.408 5
    endloop
  endfacet
  facet normal 0.923261 0.384174 0
    outer loop
      vertex 34.2044 34.408 0
      vertex 35.12 32.2076 5
      vertex 35.12 32.2076 0
    endloop
  endfacet
  facet normal 0.805785 0.592208 0
    outer loop
      vertex 34.2044 34.408 5
      vertex 32.8313 36.2763 0
      vertex 32.8313 36.2763 5
    endloop
  endfacet
  facet normal 0.805785 0.592208 0
    outer loop
      vertex 32.8313 36.2763 0
      vertex 34.2044 34.408 5
      vertex 34.2044 34.408 0
    endloop
  endfacet
  facet normal 0.654879 0.755734 -0
    outer loop
      vertex 32.8313 36.2763 0
      vertex 31.1528 37.7308 5
      vertex 32.8313 36.2763 5
    endloop
  endfacet
  facet normal 0.654879 0.755734 0
    outer loop
      vertex 31.1528 37.7308 5
      vertex 32.8313 36.2763 0
      vertex 31.1528 37.7308 0
    endloop
  endfacet
  facet normal 0.468033 0.883711 -0
    outer loop
      vertex 31.1528 37.7308 0
      vertex 29.1999 38.7651 5
      vertex 31.1528 37.7308 5
    endloop
  endfacet
  facet normal 0.468033 0.883711 0
    outer loop
      vertex 29.1999 38.7651 5
      vertex 31.1528 37.7308 0
      vertex 29.1999 38.7651 0
    endloop
  endfacet
  facet normal 0.266257 0.963902 -0
    outer loop
      vertex 29.1999 38.7651 0
      vertex 27.0028 39.372 5
      vertex 29.1999 38.7651 5
    endloop
  endfacet
  facet normal 0.266257 0.963902 0
    outer loop
      vertex 27.0028 39.372 5
      vertex 29.1999 38.7651 0
      vertex 27.0028 39.372 0
    endloop
  endfacet
  facet normal 0.100506 0.994936 -0
    outer loop
      vertex 27.0028 39.372 0
      vertex 24.0835 39.6669 5
      vertex 27.0028 39.372 5
    endloop
  endfacet
  facet normal 0.100506 0.994936 0
    outer loop
      vertex 24.0835 39.6669 5
      vertex 27.0028 39.372 0
      vertex 24.0835 39.6669 0
    endloop
  endfacet
  facet normal 0.0238553 0.999715 -0
    outer loop
      vertex 24.0835 39.6669 0
      vertex 19.964 39.7652 5
      vertex 24.0835 39.6669 5
    endloop
  endfacet
  facet normal 0.0238553 0.999715 0
    outer loop
      vertex 19.964 39.7652 5
      vertex 24.0835 39.6669 0
      vertex 19.964 39.7652 0
    endloop
  endfacet
  facet normal 0 1 -0
    outer loop
      vertex 19.964 39.7652 0
      vertex 4.06879 39.7652 5
      vertex 19.964 39.7652 5
    endloop
  endfacet
  facet normal 0 1 0
    outer loop
      vertex 4.06879 39.7652 5
      vertex 19.964 39.7652 0
      vertex 4.06879 39.7652 0
    endloop
  endfacet
  facet normal -1 0 0
    outer loop
      vertex 4.06879 0 0
      vertex 4.06879 39.7652 5
      vertex 4.06879 39.7652 0
    endloop
  endfacet
  facet normal -1 -0 0
    outer loop
      vertex 4.06879 39.7652 5
      vertex 4.06879 0 0
      vertex 4.06879 0 5
    endloop
  endfacet
  facet normal 0 -1 0
    outer loop
      vertex 4.06879 0 0
      vertex 17.604 0 5
      vertex 4.06879 0 5
    endloop
  endfacet
  facet normal 0 -1 -0
    outer loop
      vertex 17.604 0 5
      vertex 4.06879 0 0
      vertex 17.604 0 0
    endloop
  endfacet
  facet normal 0.0151739 -0.999885 0
    outer loop
      vertex 17.604 0 0
      vertex 23.8631 0.094986 5
      vertex 17.604 0 5
    endloop
  endfacet
  facet normal 0.0151739 -0.999885 0
    outer loop
      vertex 23.8631 0.094986 5
      vertex 17.604 0 0
      vertex 23.8631 0.094986 0
    endloop
  endfacet
  facet normal 1 -0 0
    outer loop
      vertex 12.0976 23.9512 5
      vertex 12.0976 33.1468 0
      vertex 12.0976 33.1468 5
    endloop
  endfacet
  facet normal 1 0 0
    outer loop
      vertex 12.0976 33.1468 0
      vertex 12.0976 23.9512 5
      vertex 12.0976 23.9512 0
    endloop
  endfacet
  facet normal 0 -1 0
    outer loop
      vertex 12.0976 33.1468 0
      vertex 16.7092 33.1468 5
      vertex 12.0976 33.1468 5
    endloop
  endfacet
  facet normal 0 -1 -0
    outer loop
      vertex 16.7092 33.1468 5
      vertex 12.0976 33.1468 0
      vertex 16.7092 33.1468 0
    endloop
  endfacet
  facet normal -0.00745034 -0.999972 0
    outer loop
      vertex 16.7092 33.1468 0
      vertex 21.2592 33.1129 5
      vertex 16.7092 33.1468 5
    endloop
  endfacet
  facet normal -0.00745034 -0.999972 -0
    outer loop
      vertex 21.2592 33.1129 5
      vertex 16.7092 33.1468 0
      vertex 21.2592 33.1129 0
    endloop
  endfacet
  facet normal -0.0439378 -0.999034 0
    outer loop
      vertex 21.2592 33.1129 0
      vertex 23.5716 33.0112 5
      vertex 21.2592 33.1129 5
    endloop
  endfacet
  facet normal -0.0439378 -0.999034 -0
    outer loop
      vertex 23.5716 33.0112 5
      vertex 21.2592 33.1129 0
      vertex 23.5716 33.0112 0
    endloop
  endfacet
  facet normal -0.258711 -0.965955 0
    outer loop
      vertex 23.5716 33.0112 0
      vertex 25.3313 32.5399 5
      vertex 23.5716 33.0112 5
    endloop
  endfacet
  facet normal -0.258711 -0.965955 -0
    outer loop
      vertex 25.3313 32.5399 5
      vertex 23.5716 33.0112 0
      vertex 25.3313 32.5399 0
    endloop
  endfacet
  facet normal -0.590722 -0.806875 0
    outer loop
      vertex 25.3313 32.5399 0
      vertex 26.596 31.614 5
      vertex 25.3313 32.5399 5
    endloop
  endfacet
  facet normal -0.590722 -0.806875 -0
    outer loop
      vertex 26.596 31.614 5
      vertex 25.3313 32.5399 0
      vertex 26.596 31.614 0
    endloop
  endfacet
  facet normal -0.86673 -0.498777 0
    outer loop
      vertex 27.3589 30.2883 0
      vertex 26.596 31.614 5
      vertex 26.596 31.614 0
    endloop
  endfacet
  facet normal -0.86673 -0.498777 0
    outer loop
      vertex 26.596 31.614 5
      vertex 27.3589 30.2883 0
      vertex 27.3589 30.2883 5
    endloop
  endfacet
  facet normal -0.988624 -0.150408 0
    outer loop
      vertex 27.6132 28.6168 0
      vertex 27.3589 30.2883 5
      vertex 27.3589 30.2883 0
    endloop
  endfacet
  facet normal -0.988624 -0.150408 0
    outer loop
      vertex 27.3589 30.2883 5
      vertex 27.6132 28.6168 0
      vertex 27.6132 28.6168 5
    endloop
  endfacet
  facet normal -0.985918 0.16723 0
    outer loop
      vertex 27.3182 26.8776 0
      vertex 27.6132 28.6168 5
      vertex 27.6132 28.6168 0
    endloop
  endfacet
  facet normal -0.985918 0.16723 0
    outer loop
      vertex 27.6132 28.6168 5
      vertex 27.3182 26.8776 0
      vertex 27.3182 26.8776 5
    endloop
  endfacet
  facet normal -0.839329 0.543623 0
    outer loop
      vertex 26.4332 25.5112 0
      vertex 27.3182 26.8776 5
      vertex 27.3182 26.8776 0
    endloop
  endfacet
  facet normal -0.839329 0.543623 0
    outer loop
      vertex 27.3182 26.8776 5
      vertex 26.4332 25.5112 0
      vertex 26.4332 25.5112 5
    endloop
  endfacet
  facet normal -0.559797 0.82863 0
    outer loop
      vertex 26.4332 25.5112 0
      vertex 25.0329 24.5652 5
      vertex 26.4332 25.5112 5
    endloop
  endfacet
  facet normal -0.559797 0.82863 0
    outer loop
      vertex 25.0329 24.5652 5
      vertex 26.4332 25.5112 0
      vertex 25.0329 24.5652 0
    endloop
  endfacet
  facet normal -0.251322 0.967904 0
    outer loop
      vertex 25.0329 24.5652 0
      vertex 23.192 24.0872 5
      vertex 25.0329 24.5652 5
    endloop
  endfacet
  facet normal -0.251322 0.967904 0
    outer loop
      vertex 23.192 24.0872 5
      vertex 25.0329 24.5652 0
      vertex 23.192 24.0872 0
    endloop
  endfacet
  facet normal -0.0502422 0.998737 0
    outer loop
      vertex 23.192 24.0872 0
      vertex 21.1644 23.9852 5
      vertex 23.192 24.0872 5
    endloop
  endfacet
  facet normal -0.0502422 0.998737 0
    outer loop
      vertex 21.1644 23.9852 5
      vertex 23.192 24.0872 0
      vertex 21.1644 23.9852 0
    endloop
  endfacet
  facet normal -0.00893666 0.99996 0
    outer loop
      vertex 21.1644 23.9852 0
      vertex 17.36 23.9512 5
      vertex 21.1644 23.9852 5
    endloop
  endfacet
  facet normal -0.00893666 0.99996 0
    outer loop
      vertex 17.36 23.9512 5
      vertex 21.1644 23.9852 0
      vertex 17.36 23.9512 0
    endloop
  endfacet
  facet normal 0 1 -0
    outer loop
      vertex 17.36 23.9512 0
      vertex 12.0976 23.9512 5
      vertex 17.36 23.9512 5
    endloop
  endfacet
  facet normal 0 1 0
    outer loop
      vertex 12.0976 23.9512 5
      vertex 17.36 23.9512 0
      vertex 12.0976 23.9512 0
    endloop
  endfacet
  facet normal 1 -0 0
    outer loop
      vertex 12.0976 6.7 5
      vertex 12.0976 17.3328 0
      vertex 12.0976 17.3328 5
    endloop
  endfacet
  facet normal 1 0 0
    outer loop
      vertex 12.0976 17.3328 0
      vertex 12.0976 6.7 5
      vertex 12.0976 6.7 0
    endloop
  endfacet
  facet normal 0 -1 0
    outer loop
      vertex 12.0976 17.3328 0
      vertex 18.5808 17.3328 5
      vertex 12.0976 17.3328 5
    endloop
  endfacet
  facet normal 0 -1 -0
    outer loop
      vertex 18.5808 17.3328 5
      vertex 12.0976 17.3328 0
      vertex 18.5808 17.3328 0
    endloop
  endfacet
  facet normal -0.0314916 -0.999504 0
    outer loop
      vertex 18.5808 17.3328 0
      vertex 23.1004 17.1904 5
      vertex 18.5808 17.3328 5
    endloop
  endfacet
  facet normal -0.0314916 -0.999504 -0
    outer loop
      vertex 23.1004 17.1904 5
      vertex 18.5808 17.3328 0
      vertex 23.1004 17.1904 0
    endloop
  endfacet
  facet normal -0.162109 -0.986773 0
    outer loop
      vertex 23.1004 17.1904 0
      vertex 25.7008 16.7632 5
      vertex 23.1004 17.1904 5
    endloop
  endfacet
  facet normal -0.162109 -0.986773 -0
    outer loop
      vertex 25.7008 16.7632 5
      vertex 23.1004 17.1904 0
      vertex 25.7008 16.7632 0
    endloop
  endfacet
  facet normal -0.454702 -0.890643 0
    outer loop
      vertex 25.7008 16.7632 0
      vertex 27.1487 16.024 5
      vertex 25.7008 16.7632 5
    endloop
  endfacet
  facet normal -0.454702 -0.890643 -0
    outer loop
      vertex 27.1487 16.024 5
      vertex 25.7008 16.7632 0
      vertex 27.1487 16.024 0
    endloop
  endfacet
  facet normal -0.712735 -0.701433 0
    outer loop
      vertex 28.21 14.9456 0
      vertex 27.1487 16.024 5
      vertex 27.1487 16.024 0
    endloop
  endfacet
  facet normal -0.712735 -0.701433 0
    outer loop
      vertex 27.1487 16.024 5
      vertex 28.21 14.9456 0
      vertex 28.21 14.9456 5
    endloop
  endfacet
  facet normal -0.904798 -0.425841 0
    outer loop
      vertex 28.861 13.5624 0
      vertex 28.21 14.9456 5
      vertex 28.21 14.9456 0
    endloop
  endfacet
  facet normal -0.904798 -0.425841 0
    outer loop
      vertex 28.21 14.9456 5
      vertex 28.861 13.5624 0
      vertex 28.861 13.5624 5
    endloop
  endfacet
  facet normal -0.991507 -0.130051 0
    outer loop
      vertex 29.078 11.908 0
      vertex 28.861 13.5624 5
      vertex 28.861 13.5624 0
    endloop
  endfacet
  facet normal -0.991507 -0.130051 0
    outer loop
      vertex 28.861 13.5624 5
      vertex 29.078 11.908 0
      vertex 29.078 11.908 5
    endloop
  endfacet
  facet normal -0.989235 0.146334 0
    outer loop
      vertex 28.7966 10.0057 0
      vertex 29.078 11.908 5
      vertex 29.078 11.908 0
    endloop
  endfacet
  facet normal -0.989235 0.146334 0
    outer loop
      vertex 29.078 11.908 5
      vertex 28.7966 10.0057 0
      vertex 28.7966 10.0057 5
    endloop
  endfacet
  facet normal -0.867889 0.496757 0
    outer loop
      vertex 27.9524 8.53079 0
      vertex 28.7966 10.0057 5
      vertex 28.7966 10.0057 0
    endloop
  endfacet
  facet normal -0.867889 0.496757 0
    outer loop
      vertex 28.7966 10.0057 5
      vertex 27.9524 8.53079 0
      vertex 27.9524 8.53079 5
    endloop
  endfacet
  facet normal -0.622424 0.78268 0
    outer loop
      vertex 27.9524 8.53079 0
      vertex 26.6606 7.50349 5
      vertex 27.9524 8.53079 5
    endloop
  endfacet
  facet normal -0.622424 0.78268 0
    outer loop
      vertex 26.6606 7.50349 5
      vertex 27.9524 8.53079 0
      vertex 26.6606 7.50349 0
    endloop
  endfacet
  facet normal -0.3257 0.945473 0
    outer loop
      vertex 26.6606 7.50349 0
      vertex 25.0364 6.94398 5
      vertex 26.6606 7.50349 5
    endloop
  endfacet
  facet normal -0.3257 0.945473 0
    outer loop
      vertex 25.0364 6.94398 5
      vertex 26.6606 7.50349 0
      vertex 25.0364 6.94398 0
    endloop
  endfacet
  facet normal -0.0929674 0.995669 0
    outer loop
      vertex 25.0364 6.94398 0
      vertex 23.0766 6.76099 5
      vertex 25.0364 6.94398 5
    endloop
  endfacet
  facet normal -0.0929674 0.995669 0
    outer loop
      vertex 23.0766 6.76099 5
      vertex 25.0364 6.94398 0
      vertex 23.0766 6.76099 0
    endloop
  endfacet
  facet normal -0.0171942 0.999852 0
    outer loop
      vertex 23.0766 6.76099 0
      vertex 19.53 6.7 5
      vertex 23.0766 6.76099 5
    endloop
  endfacet
  facet normal -0.0171942 0.999852 0
    outer loop
      vertex 19.53 6.7 5
      vertex 23.0766 6.76099 0
      vertex 19.53 6.7 0
    endloop
  endfacet
  facet normal 0 1 -0
    outer loop
      vertex 19.53 6.7 0
      vertex 12.0976 6.7 5
      vertex 19.53 6.7 5
    endloop
  endfacet
  facet normal 0 1 0
    outer loop
      vertex 12.0976 6.7 5
      vertex 19.53 6.7 0
      vertex 12.0976 6.7 0
    endloop
  endfacet
  facet normal -0.613168 -0.789952 0
    outer loop
      vertex 18.4918 21.46 0
      vertex 18.5414 21.4215 2
      vertex 18.4918 21.46 2
    endloop
  endfacet
  facet normal -0.613168 -0.789952 -0
    outer loop
      vertex 18.5414 21.4215 2
      vertex 18.4918 21.46 0
      vertex 18.5414 21.4215 0
    endloop
  endfacet
  facet normal 0.339058 0.940766 -0
    outer loop
      vertex 17.595 19.6999 0
      vertex 17.5359 19.7212 2
      vertex 17.595 19.6999 2
    endloop
  endfacet
  facet normal 0.339058 0.940766 0
    outer loop
      vertex 17.5359 19.7212 2
      vertex 17.595 19.6999 0
      vertex 17.5359 19.7212 0
    endloop
  endfacet
  facet normal 0.917575 -0.397563 0
    outer loop
      vertex 16.9742 21.0191 2
      vertex 16.9992 21.0768 0
      vertex 16.9992 21.0768 2
    endloop
  endfacet
  facet normal 0.917575 -0.397563 0
    outer loop
      vertex 16.9992 21.0768 0
      vertex 16.9742 21.0191 2
      vertex 16.9742 21.0191 0
    endloop
  endfacet
  facet normal 0.917575 0.397563 0
    outer loop
      vertex 16.9992 20.2252 2
      vertex 16.9742 20.2829 0
      vertex 16.9742 20.2829 2
    endloop
  endfacet
  facet normal 0.917575 0.397563 0
    outer loop
      vertex 16.9742 20.2829 0
      vertex 16.9992 20.2252 2
      vertex 16.9992 20.2252 0
    endloop
  endfacet
  facet normal -0.987776 -0.155881 0
    outer loop
      vertex 18.8961 20.7763 0
      vertex 18.8863 20.8384 2
      vertex 18.8863 20.8384 0
    endloop
  endfacet
  facet normal -0.987776 -0.155881 0
    outer loop
      vertex 18.8863 20.8384 2
      vertex 18.8961 20.7763 0
      vertex 18.8961 20.7763 2
    endloop
  endfacet
  facet normal -0.750303 -0.661095 0
    outer loop
      vertex 18.6745 21.2884 0
      vertex 18.633 21.3355 2
      vertex 18.633 21.3355 0
    endloop
  endfacet
  facet normal -0.750303 -0.661095 0
    outer loop
      vertex 18.633 21.3355 2
      vertex 18.6745 21.2884 0
      vertex 18.6745 21.2884 2
    endloop
  endfacet
  facet normal -0.453568 -0.891222 0
    outer loop
      vertex 18.3298 21.5558 0
      vertex 18.3858 21.5273 2
      vertex 18.3298 21.5558 2
    endloop
  endfacet
  facet normal -0.453568 -0.891222 -0
    outer loop
      vertex 18.3858 21.5273 2
      vertex 18.3298 21.5558 0
      vertex 18.3858 21.5273 0
    endloop
  endfacet
  facet normal 0.613168 -0.789952 0
    outer loop
      vertex 17.2666 21.4215 0
      vertex 17.3162 21.46 2
      vertex 17.2666 21.4215 2
    endloop
  endfacet
  facet normal 0.613168 -0.789952 0
    outer loop
      vertex 17.3162 21.46 2
      vertex 17.2666 21.4215 0
      vertex 17.3162 21.46 0
    endloop
  endfacet
  facet normal -0.999493 0.031831 0
    outer loop
      vertex 18.902 20.5882 0
      vertex 18.904 20.651 2
      vertex 18.904 20.651 0
    endloop
  endfacet
  facet normal -0.999493 0.031831 0
    outer loop
      vertex 18.904 20.651 2
      vertex 18.902 20.5882 0
      vertex 18.902 20.5882 2
    endloop
  endfacet
  facet normal -0.917575 0.397563 0
    outer loop
      vertex 18.8088 20.2252 0
      vertex 18.8338 20.2829 2
      vertex 18.8338 20.2829 0
    endloop
  endfacet
  facet normal -0.917575 0.397563 0
    outer loop
      vertex 18.8338 20.2829 2
      vertex 18.8088 20.2252 0
      vertex 18.8088 20.2252 2
    endloop
  endfacet
  facet normal -0.21811 0.975924 0
    outer loop
      vertex 18.1527 19.6824 0
      vertex 18.0914 19.6687 2
      vertex 18.1527 19.6824 2
    endloop
  endfacet
  facet normal -0.21811 0.975924 0
    outer loop
      vertex 18.0914 19.6687 2
      vertex 18.1527 19.6824 0
      vertex 18.0914 19.6687 0
    endloop
  endfacet
  facet normal -0.707107 0.707107 0
    outer loop
      vertex 18.5885 19.922 0
      vertex 18.633 19.9665 2
      vertex 18.633 19.9665 0
    endloop
  endfacet
  facet normal -0.707107 0.707107 0
    outer loop
      vertex 18.633 19.9665 2
      vertex 18.5885 19.922 0
      vertex 18.5885 19.922 2
    endloop
  endfacet
  facet normal 0.975924 0.21811 0
    outer loop
      vertex 16.9354 20.4023 2
      vertex 16.9217 20.4636 0
      vertex 16.9217 20.4636 2
    endloop
  endfacet
  facet normal 0.975924 0.21811 0
    outer loop
      vertex 16.9217 20.4636 0
      vertex 16.9354 20.4023 2
      vertex 16.9354 20.4023 0
    endloop
  endfacet
  facet normal -0.995574 -0.0939822 0
    outer loop
      vertex 18.902 20.7138 0
      vertex 18.8961 20.7763 2
      vertex 18.8961 20.7763 0
    endloop
  endfacet
  facet normal -0.995574 -0.0939822 0
    outer loop
      vertex 18.8961 20.7763 2
      vertex 18.902 20.7138 0
      vertex 18.902 20.7138 2
    endloop
  endfacet
  facet normal -0.940766 -0.339058 0
    outer loop
      vertex 18.8551 20.96 0
      vertex 18.8338 21.0191 2
      vertex 18.8338 21.0191 0
    endloop
  endfacet
  facet normal -0.940766 -0.339058 0
    outer loop
      vertex 18.8338 21.0191 2
      vertex 18.8551 20.96 0
      vertex 18.8551 20.96 2
    endloop
  endfacet
  facet normal -0.860292 -0.509802 0
    outer loop
      vertex 18.7803 21.1328 0
      vertex 18.7483 21.1868 2
      vertex 18.7483 21.1868 0
    endloop
  endfacet
  facet normal -0.860292 -0.509802 0
    outer loop
      vertex 18.7483 21.1868 2
      vertex 18.7803 21.1328 0
      vertex 18.7803 21.1328 2
    endloop
  endfacet
  facet normal -0.82737 -0.561657 0
    outer loop
      vertex 18.7483 21.1868 0
      vertex 18.713 21.2388 2
      vertex 18.713 21.2388 0
    endloop
  endfacet
  facet normal -0.82737 -0.561657 0
    outer loop
      vertex 18.713 21.2388 2
      vertex 18.7483 21.1868 0
      vertex 18.7483 21.1868 2
    endloop
  endfacet
  facet normal -0.339058 -0.940766 0
    outer loop
      vertex 18.213 21.6021 0
      vertex 18.2721 21.5808 2
      vertex 18.213 21.6021 2
    endloop
  endfacet
  facet normal -0.339058 -0.940766 -0
    outer loop
      vertex 18.2721 21.5808 2
      vertex 18.213 21.6021 0
      vertex 18.2721 21.5808 0
    endloop
  endfacet
  facet normal -0.397563 -0.917575 0
    outer loop
      vertex 18.2721 21.5808 0
      vertex 18.3298 21.5558 2
      vertex 18.2721 21.5808 2
    endloop
  endfacet
  facet normal -0.397563 -0.917575 -0
    outer loop
      vertex 18.3298 21.5558 2
      vertex 18.2721 21.5808 0
      vertex 18.3298 21.5558 0
    endloop
  endfacet
  facet normal -0.21811 -0.975924 0
    outer loop
      vertex 18.0914 21.6333 0
      vertex 18.1527 21.6196 2
      vertex 18.0914 21.6333 2
    endloop
  endfacet
  facet normal -0.21811 -0.975924 -0
    outer loop
      vertex 18.1527 21.6196 2
      vertex 18.0914 21.6333 0
      vertex 18.1527 21.6196 0
    endloop
  endfacet
  facet normal -0.0939822 -0.995574 0
    outer loop
      vertex 17.9668 21.649 0
      vertex 18.0293 21.6431 2
      vertex 17.9668 21.649 2
    endloop
  endfacet
  facet normal -0.0939822 -0.995574 -0
    outer loop
      vertex 18.0293 21.6431 2
      vertex 17.9668 21.649 0
      vertex 18.0293 21.6431 0
    endloop
  endfacet
  facet normal 0.999493 -0.031831 0
    outer loop
      vertex 16.904 20.651 2
      vertex 16.906 20.7138 0
      vertex 16.906 20.7138 2
    endloop
  endfacet
  facet normal 0.999493 -0.031831 0
    outer loop
      vertex 16.906 20.7138 0
      vertex 16.904 20.651 2
      vertex 16.904 20.651 0
    endloop
  endfacet
  facet normal 0.960374 -0.278715 0
    outer loop
      vertex 16.9354 20.8997 2
      vertex 16.9529 20.96 0
      vertex 16.9529 20.96 2
    endloop
  endfacet
  facet normal 0.960374 -0.278715 0
    outer loop
      vertex 16.9529 20.96 0
      vertex 16.9354 20.8997 2
      vertex 16.9354 20.8997 0
    endloop
  endfacet
  facet normal 0.82737 -0.561657 0
    outer loop
      vertex 17.0597 21.1868 2
      vertex 17.095 21.2388 0
      vertex 17.095 21.2388 2
    endloop
  endfacet
  facet normal 0.82737 -0.561657 0
    outer loop
      vertex 17.095 21.2388 0
      vertex 17.0597 21.1868 2
      vertex 17.0597 21.1868 0
    endloop
  endfacet
  facet normal 0.0939822 -0.995574 0
    outer loop
      vertex 17.7787 21.6431 0
      vertex 17.8412 21.649 2
      vertex 17.7787 21.6431 2
    endloop
  endfacet
  facet normal 0.0939822 -0.995574 0
    outer loop
      vertex 17.8412 21.649 2
      vertex 17.7787 21.6431 0
      vertex 17.8412 21.649 0
    endloop
  endfacet
  facet normal 0.278715 -0.960374 0
    outer loop
      vertex 17.595 21.6021 0
      vertex 17.6553 21.6196 2
      vertex 17.595 21.6021 2
    endloop
  endfacet
  facet normal 0.278715 -0.960374 0
    outer loop
      vertex 17.6553 21.6196 2
      vertex 17.595 21.6021 0
      vertex 17.6553 21.6196 0
    endloop
  endfacet
  facet normal 0.155881 -0.987776 0
    outer loop
      vertex 17.7166 21.6333 0
      vertex 17.7787 21.6431 2
      vertex 17.7166 21.6333 2
    endloop
  endfacet
  facet normal 0.155881 -0.987776 0
    outer loop
      vertex 17.7787 21.6431 2
      vertex 17.7166 21.6333 0
      vertex 17.7787 21.6431 0
    endloop
  endfacet
  facet normal 0.453568 -0.891222 0
    outer loop
      vertex 17.4222 21.5273 0
      vertex 17.4782 21.5558 2
      vertex 17.4222 21.5273 2
    endloop
  endfacet
  facet normal 0.453568 -0.891222 0
    outer loop
      vertex 17.4782 21.5558 2
      vertex 17.4222 21.5273 0
      vertex 17.4782 21.5558 0
    endloop
  endfacet
  facet normal 0.509802 -0.860292 0
    outer loop
      vertex 17.3682 21.4953 0
      vertex 17.4222 21.5273 2
      vertex 17.3682 21.4953 2
    endloop
  endfacet
  facet normal 0.509802 -0.860292 0
    outer loop
      vertex 17.4222 21.5273 2
      vertex 17.3682 21.4953 0
      vertex 17.4222 21.5273 0
    endloop
  endfacet
  facet normal -0.155881 0.987776 0
    outer loop
      vertex 18.0914 19.6687 0
      vertex 18.0293 19.6589 2
      vertex 18.0914 19.6687 2
    endloop
  endfacet
  facet normal -0.155881 0.987776 0
    outer loop
      vertex 18.0293 19.6589 2
      vertex 18.0914 19.6687 0
      vertex 18.0293 19.6589 0
    endloop
  endfacet
  facet normal -0.975924 0.21811 0
    outer loop
      vertex 18.8726 20.4023 0
      vertex 18.8863 20.4636 2
      vertex 18.8863 20.4636 0
    endloop
  endfacet
  facet normal -0.975924 0.21811 0
    outer loop
      vertex 18.8863 20.4636 2
      vertex 18.8726 20.4023 0
      vertex 18.8726 20.4023 2
    endloop
  endfacet
  facet normal -0.995574 0.0939822 0
    outer loop
      vertex 18.8961 20.5257 0
      vertex 18.902 20.5882 2
      vertex 18.902 20.5882 0
    endloop
  endfacet
  facet normal -0.995574 0.0939822 0
    outer loop
      vertex 18.902 20.5882 2
      vertex 18.8961 20.5257 0
      vertex 18.8961 20.5257 2
    endloop
  endfacet
  facet normal -0.339058 0.940766 0
    outer loop
      vertex 18.2721 19.7212 0
      vertex 18.213 19.6999 2
      vertex 18.2721 19.7212 2
    endloop
  endfacet
  facet normal -0.339058 0.940766 0
    outer loop
      vertex 18.213 19.6999 2
      vertex 18.2721 19.7212 0
      vertex 18.213 19.6999 0
    endloop
  endfacet
  facet normal -0.750303 0.661095 0
    outer loop
      vertex 18.633 19.9665 0
      vertex 18.6745 20.0136 2
      vertex 18.6745 20.0136 0
    endloop
  endfacet
  facet normal -0.750303 0.661095 0
    outer loop
      vertex 18.6745 20.0136 2
      vertex 18.633 19.9665 0
      vertex 18.633 19.9665 2
    endloop
  endfacet
  facet normal -0.860292 0.509802 0
    outer loop
      vertex 18.7483 20.1152 0
      vertex 18.7803 20.1692 2
      vertex 18.7803 20.1692 0
    endloop
  endfacet
  facet normal -0.860292 0.509802 0
    outer loop
      vertex 18.7803 20.1692 2
      vertex 18.7483 20.1152 0
      vertex 18.7483 20.1152 2
    endloop
  endfacet
  facet normal -0.789952 0.613168 0
    outer loop
      vertex 18.6745 20.0136 0
      vertex 18.713 20.0632 2
      vertex 18.713 20.0632 0
    endloop
  endfacet
  facet normal -0.789952 0.613168 0
    outer loop
      vertex 18.713 20.0632 2
      vertex 18.6745 20.0136 0
      vertex 18.6745 20.0136 2
    endloop
  endfacet
  facet normal 0.155881 0.987776 -0
    outer loop
      vertex 17.7787 19.6589 0
      vertex 17.7166 19.6687 2
      vertex 17.7787 19.6589 2
    endloop
  endfacet
  facet normal 0.155881 0.987776 0
    outer loop
      vertex 17.7166 19.6687 2
      vertex 17.7787 19.6589 0
      vertex 17.7166 19.6687 0
    endloop
  endfacet
  facet normal 0.031831 0.999493 -0
    outer loop
      vertex 17.904 19.651 0
      vertex 17.8412 19.653 2
      vertex 17.904 19.651 2
    endloop
  endfacet
  facet normal 0.031831 0.999493 0
    outer loop
      vertex 17.8412 19.653 2
      vertex 17.904 19.651 0
      vertex 17.8412 19.653 0
    endloop
  endfacet
  facet normal 0.561657 0.82737 -0
    outer loop
      vertex 17.3682 19.8067 0
      vertex 17.3162 19.842 2
      vertex 17.3682 19.8067 2
    endloop
  endfacet
  facet normal 0.561657 0.82737 0
    outer loop
      vertex 17.3162 19.842 2
      vertex 17.3682 19.8067 0
      vertex 17.3162 19.842 0
    endloop
  endfacet
  facet normal 0.509802 0.860292 -0
    outer loop
      vertex 17.4222 19.7747 0
      vertex 17.3682 19.8067 2
      vertex 17.4222 19.7747 2
    endloop
  endfacet
  facet normal 0.509802 0.860292 0
    outer loop
      vertex 17.3682 19.8067 2
      vertex 17.4222 19.7747 0
      vertex 17.3682 19.8067 0
    endloop
  endfacet
  facet normal 0.999493 0.031831 0
    outer loop
      vertex 16.906 20.5882 2
      vertex 16.904 20.651 0
      vertex 16.904 20.651 2
    endloop
  endfacet
  facet normal 0.999493 0.031831 0
    outer loop
      vertex 16.904 20.651 0
      vertex 16.906 20.5882 2
      vertex 16.906 20.5882 0
    endloop
  endfacet
  facet normal 0.82737 0.561657 0
    outer loop
      vertex 17.095 20.0632 2
      vertex 17.0597 20.1152 0
      vertex 17.0597 20.1152 2
    endloop
  endfacet
  facet normal 0.82737 0.561657 0
    outer loop
      vertex 17.0597 20.1152 0
      vertex 17.095 20.0632 2
      vertex 17.095 20.0632 0
    endloop
  endfacet
  facet normal 0.789952 0.613168 0
    outer loop
      vertex 17.1335 20.0136 2
      vertex 17.095 20.0632 0
      vertex 17.095 20.0632 2
    endloop
  endfacet
  facet normal 0.789952 0.613168 0
    outer loop
      vertex 17.095 20.0632 0
      vertex 17.1335 20.0136 2
      vertex 17.1335 20.0136 0
    endloop
  endfacet
  facet normal 0.891222 0.453568 0
    outer loop
      vertex 17.0277 20.1692 2
      vertex 16.9992 20.2252 0
      vertex 16.9992 20.2252 2
    endloop
  endfacet
  facet normal 0.891222 0.453568 0
    outer loop
      vertex 16.9992 20.2252 0
      vertex 17.0277 20.1692 2
      vertex 17.0277 20.1692 0
    endloop
  endfacet
  facet normal -0.891222 -0.453568 0
    outer loop
      vertex 18.8088 21.0768 0
      vertex 18.7803 21.1328 2
      vertex 18.7803 21.1328 0
    endloop
  endfacet
  facet normal -0.891222 -0.453568 0
    outer loop
      vertex 18.7803 21.1328 2
      vertex 18.8088 21.0768 0
      vertex 18.8088 21.0768 2
    endloop
  endfacet
  facet normal -0.789952 -0.613168 0
    outer loop
      vertex 18.713 21.2388 0
      vertex 18.6745 21.2884 2
      vertex 18.6745 21.2884 0
    endloop
  endfacet
  facet normal -0.789952 -0.613168 0
    outer loop
      vertex 18.6745 21.2884 2
      vertex 18.713 21.2388 0
      vertex 18.713 21.2388 2
    endloop
  endfacet
  facet normal -0.661095 -0.750303 0
    outer loop
      vertex 18.5414 21.4215 0
      vertex 18.5885 21.38 2
      vertex 18.5414 21.4215 2
    endloop
  endfacet
  facet normal -0.661095 -0.750303 -0
    outer loop
      vertex 18.5885 21.38 2
      vertex 18.5414 21.4215 0
      vertex 18.5885 21.38 0
    endloop
  endfacet
  facet normal 0.031831 -0.999493 0
    outer loop
      vertex 17.8412 21.649 0
      vertex 17.904 21.651 2
      vertex 17.8412 21.649 2
    endloop
  endfacet
  facet normal 0.031831 -0.999493 0
    outer loop
      vertex 17.904 21.651 2
      vertex 17.8412 21.649 0
      vertex 17.904 21.651 0
    endloop
  endfacet
  facet normal -0.509802 -0.860292 0
    outer loop
      vertex 18.3858 21.5273 0
      vertex 18.4398 21.4953 2
      vertex 18.3858 21.5273 2
    endloop
  endfacet
  facet normal -0.509802 -0.860292 -0
    outer loop
      vertex 18.4398 21.4953 2
      vertex 18.3858 21.5273 0
      vertex 18.4398 21.4953 0
    endloop
  endfacet
  facet normal -0.278715 -0.960374 0
    outer loop
      vertex 18.1527 21.6196 0
      vertex 18.213 21.6021 2
      vertex 18.1527 21.6196 2
    endloop
  endfacet
  facet normal -0.278715 -0.960374 -0
    outer loop
      vertex 18.213 21.6021 2
      vertex 18.1527 21.6196 0
      vertex 18.213 21.6021 0
    endloop
  endfacet
  facet normal -0.155881 -0.987776 0
    outer loop
      vertex 18.0293 21.6431 0
      vertex 18.0914 21.6333 2
      vertex 18.0293 21.6431 2
    endloop
  endfacet
  facet normal -0.155881 -0.987776 -0
    outer loop
      vertex 18.0914 21.6333 2
      vertex 18.0293 21.6431 0
      vertex 18.0914 21.6333 0
    endloop
  endfacet
  facet normal 0 0 -1
    outer loop
      vertex 18.902 20.5882 2
      vertex 18.902 20.7138 2
      vertex 18.904 20.651 2
    endloop
  endfacet
  facet normal 0 0 -1
    outer loop
      vertex 18.8961 20.5257 2
      vertex 18.902 20.7138 2
      vertex 18.902 20.5882 2
    endloop
  endfacet
  facet normal 0 0 -1
    outer loop
      vertex 18.8961 20.5257 2
      vertex 18.8961 20.7763 2
      vertex 18.902 20.7138 2
    endloop
  endfacet
  facet normal 0 0 -1
    outer loop
      vertex 18.8863 20.4636 2
      vertex 18.8961 20.7763 2
      vertex 18.8961 20.5257 2
    endloop
  endfacet
  facet normal 0 0 -1
    outer loop
      vertex 18.8863 20.4636 2
      vertex 18.8863 20.8384 2
      vertex 18.8961 20.7763 2
    endloop
  endfacet
  facet normal 0 0 -1
    outer loop
      vertex 18.8726 20.4023 2
      vertex 18.8863 20.8384 2
      vertex 18.8863 20.4636 2
    endloop
  endfacet
  facet normal 0 0 -1
    outer loop
      vertex 18.8726 20.4023 2
      vertex 18.8726 20.8997 2
      vertex 18.8863 20.8384 2
    endloop
  endfacet
  facet normal 0 0 -1
    outer loop
      vertex 18.8551 20.342 2
      vertex 18.8726 20.8997 2
      vertex 18.8726 20.4023 2
    endloop
  endfacet
  facet normal 0 0 -1
    outer loop
      vertex 18.8551 20.342 2
      vertex 18.8551 20.96 2
      vertex 18.8726 20.8997 2
    endloop
  endfacet
  facet normal 0 0 -1
    outer loop
      vertex 18.8338 20.2829 2
      vertex 18.8551 20.96 2
      vertex 18.8551 20.342 2
    endloop
  endfacet
  facet normal 0 0 -1
    outer loop
      vertex 18.8338 20.2829 2
      vertex 18.8338 21.0191 2
      vertex 18.8551 20.96 2
    endloop
  endfacet
  facet normal 0 0 -1
    outer loop
      vertex 18.8088 20.2252 2
      vertex 18.8338 21.0191 2
      vertex 18.8338 20.2829 2
    endloop
  endfacet
  facet normal 0 0 -1
    outer loop
      vertex 18.8088 20.2252 2
      vertex 18.8088 21.0768 2
      vertex 18.8338 21.0191 2
    endloop
  endfacet
  facet normal 0 0 -1
    outer loop
      vertex 18.7803 20.1692 2
      vertex 18.8088 21.0768 2
      vertex 18.8088 20.2252 2
    endloop
  endfacet
  facet normal 0 0 -1
    outer loop
      vertex 18.7803 20.1692 2
      vertex 18.7803 21.1328 2
      vertex 18.8088 21.0768 2
    endloop
  endfacet
  facet normal 0 0 -1
    outer loop
      vertex 18.7483 20.1152 2
      vertex 18.7803 21.1328 2
      vertex 18.7803 20.1692 2
    endloop
  endfacet
  facet normal 0 0 -1
    outer loop
      vertex 18.7483 20.1152 2
      vertex 18.7483 21.1868 2
      vertex 18.7803 21.1328 2
    endloop
  endfacet
  facet normal 0 0 -1
    outer loop
      vertex 18.713 20.0632 2
      vertex 18.7483 21.1868 2
      vertex 18.7483 20.1152 2
    endloop
  endfacet
  facet normal 0 0 -1
    outer loop
      vertex 18.713 20.0632 2
      vertex 18.713 21.2388 2
      vertex 18.7483 21.1868 2
    endloop
  endfacet
  facet normal 0 0 -1
    outer loop
      vertex 18.6745 20.0136 2
      vertex 18.713 21.2388 2
      vertex 18.713 20.0632 2
    endloop
  endfacet
  facet normal 0 0 -1
    outer loop
      vertex 18.6745 20.0136 2
      vertex 18.6745 21.2884 2
      vertex 18.713 21.2388 2
    endloop
  endfacet
  facet normal 0 0 -1
    outer loop
      vertex 18.633 19.9665 2
      vertex 18.6745 21.2884 2
      vertex 18.6745 20.0136 2
    endloop
  endfacet
  facet normal 0 0 -1
    outer loop
      vertex 18.633 19.9665 2
      vertex 18.633 21.3355 2
      vertex 18.6745 21.2884 2
    endloop
  endfacet
  facet normal 0 0 -1
    outer loop
      vertex 18.5885 19.922 2
      vertex 18.633 21.3355 2
      vertex 18.633 19.9665 2
    endloop
  endfacet
  facet normal 0 0 -1
    outer loop
      vertex 18.5885 19.922 2
      vertex 18.5885 21.38 2
      vertex 18.633 21.3355 2
    endloop
  endfacet
  facet normal 0 0 -1
    outer loop
      vertex 18.5414 19.8805 2
      vertex 18.5885 21.38 2
      vertex 18.5885 19.922 2
    endloop
  endfacet
  facet normal 0 0 -1
    outer loop
      vertex 18.5414 19.8805 2
      vertex 18.5414 21.4215 2
      vertex 18.5885 21.38 2
    endloop
  endfacet
  facet normal 0 0 -1
    outer loop
      vertex 18.4918 19.842 2
      vertex 18.5414 21.4215 2
      vertex 18.5414 19.8805 2
    endloop
  endfacet
  facet normal 0 0 -1
    outer loop
      vertex 18.4918 19.842 2
      vertex 18.4918 21.46 2
      vertex 18.5414 21.4215 2
    endloop
  endfacet
  facet normal 0 0 -1
    outer loop
      vertex 18.4398 19.8067 2
      vertex 18.4918 21.46 2
      vertex 18.4918 19.842 2
    endloop
  endfacet
  facet normal 0 0 -1
    outer loop
      vertex 18.4398 19.8067 2
      vertex 18.4398 21.4953 2
      vertex 18.4918 21.46 2
    endloop
  endfacet
  facet normal 0 0 -1
    outer loop
      vertex 18.3858 19.7747 2
      vertex 18.4398 21.4953 2
      vertex 18.4398 19.8067 2
    endloop
  endfacet
  facet normal 0 0 -1
    outer loop
      vertex 18.3858 19.7747 2
      vertex 18.3858 21.5273 2
      vertex 18.4398 21.4953 2
    endloop
  endfacet
  facet normal 0 0 -1
    outer loop
      vertex 18.3298 19.7462 2
      vertex 18.3858 21.5273 2
      vertex 18.3858 19.7747 2
    endloop
  endfacet
  facet normal 0 0 -1
    outer loop
      vertex 18.3298 19.7462 2
      vertex 18.3298 21.5558 2
      vertex 18.3858 21.5273 2
    endloop
  endfacet
  facet normal 0 0 -1
    outer loop
      vertex 18.2721 19.7212 2
      vertex 18.3298 21.5558 2
      vertex 18.3298 19.7462 2
    endloop
  endfacet
  facet normal 0 0 -1
    outer loop
      vertex 18.2721 19.7212 2
      vertex 18.2721 21.5808 2
      vertex 18.3298 21.5558 2
    endloop
  endfacet
  facet normal 0 0 -1
    outer loop
      vertex 18.213 19.6999 2
      vertex 18.2721 21.5808 2
      vertex 18.2721 19.7212 2
    endloop
  endfacet
  facet normal 0 0 -1
    outer loop
      vertex 18.213 19.6999 2
      vertex 18.213 21.6021 2
      vertex 18.2721 21.5808 2
    endloop
  endfacet
  facet normal 0 0 -1
    outer loop
      vertex 18.1527 19.6824 2
      vertex 18.213 21.6021 2
      vertex 18.213 19.6999 2
    endloop
  endfacet
  facet normal 0 0 -1
    outer loop
      vertex 18.1527 19.6824 2
      vertex 18.1527 21.6196 2
      vertex 18.213 21.6021 2
    endloop
  endfacet
  facet normal 0 0 -1
    outer loop
      vertex 18.0914 19.6687 2
      vertex 18.1527 21.6196 2
      vertex 18.1527 19.6824 2
    endloop
  endfacet
  facet normal 0 0 -1
    outer loop
      vertex 18.0914 19.6687 2
      vertex 18.0914 21.6333 2
      vertex 18.1527 21.6196 2
    endloop
  endfacet
  facet normal 0 0 -1
    outer loop
      vertex 18.0293 19.6589 2
      vertex 18.0914 21.6333 2
      vertex 18.0914 19.6687 2
    endloop
  endfacet
  facet normal 0 0 -1
    outer loop
      vertex 18.0293 19.6589 2
      vertex 18.0293 21.6431 2
      vertex 18.0914 21.6333 2
    endloop
  endfacet
  facet normal 0 0 -1
    outer loop
      vertex 17.9668 19.653 2
      vertex 18.0293 21.6431 2
      vertex 18.0293 19.6589 2
    endloop
  endfacet
  facet normal 0 0 -1
    outer loop
      vertex 17.9668 19.653 2
      vertex 17.9668 21.649 2
      vertex 18.0293 21.6431 2
    endloop
  endfacet
  facet normal 0 0 -1
    outer loop
      vertex 17.904 19.651 2
      vertex 17.9668 21.649 2
      vertex 17.9668 19.653 2
    endloop
  endfacet
  facet normal 0 0 -1
    outer loop
      vertex 17.904 19.651 2
      vertex 17.904 21.651 2
      vertex 17.9668 21.649 2
    endloop
  endfacet
  facet normal 0 0 -1
    outer loop
      vertex 17.8412 19.653 2
      vertex 17.904 21.651 2
      vertex 17.904 19.651 2
    endloop
  endfacet
  facet normal 0 0 -1
    outer loop
      vertex 17.8412 19.653 2
      vertex 17.8412 21.649 2
      vertex 17.904 21.651 2
    endloop
  endfacet
  facet normal 0 0 -1
    outer loop
      vertex 17.7787 19.6589 2
      vertex 17.8412 21.649 2
      vertex 17.8412 19.653 2
    endloop
  endfacet
  facet normal 0 0 -1
    outer loop
      vertex 17.7787 19.6589 2
      vertex 17.7787 21.6431 2
      vertex 17.8412 21.649 2
    endloop
  endfacet
  facet normal 0 0 -1
    outer loop
      vertex 17.7166 19.6687 2
      vertex 17.7787 21.6431 2
      vertex 17.7787 19.6589 2
    endloop
  endfacet
  facet normal 0 0 -1
    outer loop
      vertex 17.7166 19.6687 2
      vertex 17.7166 21.6333 2
      vertex 17.7787 21.6431 2
    endloop
  endfacet
  facet normal 0 0 -1
    outer loop
      vertex 17.6553 19.6824 2
      vertex 17.7166 21.6333 2
      vertex 17.7166 19.6687 2
    endloop
  endfacet
  facet normal 0 0 -1
    outer loop
      vertex 17.6553 19.6824 2
      vertex 17.6553 21.6196 2
      vertex 17.7166 21.6333 2
    endloop
  endfacet
  facet normal 0 0 -1
    outer loop
      vertex 17.595 19.6999 2
      vertex 17.6553 21.6196 2
      vertex 17.6553 19.6824 2
    endloop
  endfacet
  facet normal 0 0 -1
    outer loop
      vertex 17.595 19.6999 2
      vertex 17.595 21.6021 2
      vertex 17.6553 21.6196 2
    endloop
  endfacet
  facet normal 0 0 -1
    outer loop
      vertex 17.5359 19.7212 2
      vertex 17.595 21.6021 2
      vertex 17.595 19.6999 2
    endloop
  endfacet
  facet normal 0 0 -1
    outer loop
      vertex 17.5359 19.7212 2
      vertex 17.5359 21.5808 2
      vertex 17.595 21.6021 2
    endloop
  endfacet
  facet normal 0 0 -1
    outer loop
      vertex 17.4782 19.7462 2
      vertex 17.5359 21.5808 2
      vertex 17.5359 19.7212 2
    endloop
  endfacet
  facet normal 0 0 -1
    outer loop
      vertex 17.4782 19.7462 2
      vertex 17.4782 21.5558 2
      vertex 17.5359 21.5808 2
    endloop
  endfacet
  facet normal 0 0 -1
    outer loop
      vertex 17.4222 19.7747 2
      vertex 17.4782 21.5558 2
      vertex 17.4782 19.7462 2
    endloop
  endfacet
  facet normal 0 0 -1
    outer loop
      vertex 17.4222 19.7747 2
      vertex 17.4222 21.5273 2
      vertex 17.4782 21.5558 2
    endloop
  endfacet
  facet normal 0 0 -1
    outer loop
      vertex 17.3682 19.8067 2
      vertex 17.4222 21.5273 2
      vertex 17.4222 19.7747 2
    endloop
  endfacet
  facet normal 0 0 -1
    outer loop
      vertex 17.3682 19.8067 2
      vertex 17.3682 21.4953 2
      vertex 17.4222 21.5273 2
    endloop
  endfacet
  facet normal 0 0 -1
    outer loop
      vertex 17.3162 19.842 2
      vertex 17.3682 21.4953 2
      vertex 17.3682 19.8067 2
    endloop
  endfacet
  facet normal 0 0 -1
    outer loop
      vertex 17.3162 19.842 2
      vertex 17.3162 21.46 2
      vertex 17.3682 21.4953 2
    endloop
  endfacet
  facet normal 0 0 -1
    outer loop
      vertex 17.2666 19.8805 2
      vertex 17.3162 21.46 2
      vertex 17.3162 19.842 2
    endloop
  endfacet
  facet normal 0 0 -1
    outer loop
      vertex 17.2666 19.8805 2
      vertex 17.2666 21.4215 2
      vertex 17.3162 21.46 2
    endloop
  endfacet
  facet normal 0 0 -1
    outer loop
      vertex 17.2195 19.922 2
      vertex 17.2666 21.4215 2
      vertex 17.2666 19.8805 2
    endloop
  endfacet
  facet normal 0 0 -1
    outer loop
      vertex 17.2195 19.922 2
      vertex 17.2195 21.38 2
      vertex 17.2666 21.4215 2
    endloop
  endfacet
  facet normal 0 0 -1
    outer loop
      vertex 17.175 19.9665 2
      vertex 17.2195 21.38 2
      vertex 17.2195 19.922 2
    endloop
  endfacet
  facet normal 0 0 -1
    outer loop
      vertex 17.175 19.9665 2
      vertex 17.175 21.3355 2
      vertex 17.2195 21.38 2
    endloop
  endfacet
  facet normal 0 0 -1
    outer loop
      vertex 17.1335 20.0136 2
      vertex 17.175 21.3355 2
      vertex 17.175 19.9665 2
    endloop
  endfacet
  facet normal 0 0 -1
    outer loop
      vertex 17.1335 20.0136 2
      vertex 17.1335 21.2884 2
      vertex 17.175 21.3355 2
    endloop
  endfacet
  facet normal 0 0 -1
    outer loop
      vertex 17.095 20.0632 2
      vertex 17.1335 21.2884 2
      vertex 17.1335 20.0136 2
    endloop
  endfacet
  facet normal 0 0 -1
    outer loop
      vertex 17.095 20.0632 2
      vertex 17.095 21.2388 2
      vertex 17.1335 21.2884 2
    endloop
  endfacet
  facet normal 0 0 -1
    outer loop
      vertex 17.0597 20.1152 2
      vertex 17.095 21.2388 2
      vertex 17.095 20.0632 2
    endloop
  endfacet
  facet normal 0 0 -1
    outer loop
      vertex 17.0597 20.1152 2
      vertex 17.0597 21.1868 2
      vertex 17.095 21.2388 2
    endloop
  endfacet
  facet normal 0 0 -1
    outer loop
      vertex 17.0277 20.1692 2
      vertex 17.0597 21.1868 2
      vertex 17.0597 20.1152 2
    endloop
  endfacet
  facet normal 0 0 -1
    outer loop
      vertex 17.0277 20.1692 2
      vertex 17.0277 21.1328 2
      vertex 17.0597 21.1868 2
    endloop
  endfacet
  facet normal 0 0 -1
    outer loop
      vertex 16.9992 20.2252 2
      vertex 17.0277 21.1328 2
      vertex 17.0277 20.1692 2
    endloop
  endfacet
  facet normal 0 0 -1
    outer loop
      vertex 16.9992 20.2252 2
      vertex 16.9992 21.0768 2
      vertex 17.0277 21.1328 2
    endloop
  endfacet
  facet normal 0 0 -1
    outer loop
      vertex 16.9742 20.2829 2
      vertex 16.9992 21.0768 2
      vertex 16.9992 20.2252 2
    endloop
  endfacet
  facet normal 0 0 -1
    outer loop
      vertex 16.9742 20.2829 2
      vertex 16.9742 21.0191 2
      vertex 16.9992 21.0768 2
    endloop
  endfacet
  facet normal 0 0 -1
    outer loop
      vertex 16.9529 20.342 2
      vertex 16.9742 21.0191 2
      vertex 16.9742 20.2829 2
    endloop
  endfacet
  facet normal 0 0 -1
    outer loop
      vertex 16.9529 20.342 2
      vertex 16.9529 20.96 2
      vertex 16.9742 21.0191 2
    endloop
  endfacet
  facet normal 0 0 -1
    outer loop
      vertex 16.9354 20.4023 2
      vertex 16.9529 20.96 2
      vertex 16.9529 20.342 2
    endloop
  endfacet
  facet normal 0 0 -1
    outer loop
      vertex 16.9354 20.4023 2
      vertex 16.9354 20.8997 2
      vertex 16.9529 20.96 2
    endloop
  endfacet
  facet normal 0 0 -1
    outer loop
      vertex 16.9217 20.4636 2
      vertex 16.9354 20.8997 2
      vertex 16.9354 20.4023 2
    endloop
  endfacet
  facet normal 0 0 -1
    outer loop
      vertex 16.9217 20.4636 2
      vertex 16.9217 20.8384 2
      vertex 16.9354 20.8997 2
    endloop
  endfacet
  facet normal 0 0 -1
    outer loop
      vertex 16.9119 20.5257 2
      vertex 16.9217 20.8384 2
      vertex 16.9217 20.4636 2
    endloop
  endfacet
  facet normal 0 0 -1
    outer loop
      vertex 16.9119 20.5257 2
      vertex 16.9119 20.7763 2
      vertex 16.9217 20.8384 2
    endloop
  endfacet
  facet normal 0 0 -1
    outer loop
      vertex 16.906 20.5882 2
      vertex 16.9119 20.7763 2
      vertex 16.9119 20.5257 2
    endloop
  endfacet
  facet normal 0 0 -1
    outer loop
      vertex 16.906 20.5882 2
      vertex 16.906 20.7138 2
      vertex 16.9119 20.7763 2
    endloop
  endfacet
  facet normal 0 -0 -1
    outer loop
      vertex 16.906 20.7138 2
      vertex 16.906 20.5882 2
      vertex 16.904 20.651 2
    endloop
  endfacet
  facet normal 0.987776 -0.155881 0
    outer loop
      vertex 16.9119 20.7763 2
      vertex 16.9217 20.8384 0
      vertex 16.9217 20.8384 2
    endloop
  endfacet
  facet normal 0.987776 -0.155881 0
    outer loop
      vertex 16.9217 20.8384 0
      vertex 16.9119 20.7763 2
      vertex 16.9119 20.7763 0
    endloop
  endfacet
  facet normal 0.940766 -0.339058 0
    outer loop
      vertex 16.9529 20.96 2
      vertex 16.9742 21.0191 0
      vertex 16.9742 21.0191 2
    endloop
  endfacet
  facet normal 0.940766 -0.339058 0
    outer loop
      vertex 16.9742 21.0191 0
      vertex 16.9529 20.96 2
      vertex 16.9529 20.96 0
    endloop
  endfacet
  facet normal 0.975924 -0.21811 0
    outer loop
      vertex 16.9217 20.8384 2
      vertex 16.9354 20.8997 0
      vertex 16.9354 20.8997 2
    endloop
  endfacet
  facet normal 0.975924 -0.21811 0
    outer loop
      vertex 16.9354 20.8997 0
      vertex 16.9217 20.8384 2
      vertex 16.9217 20.8384 0
    endloop
  endfacet
  facet normal 0.995574 -0.0939822 0
    outer loop
      vertex 16.906 20.7138 2
      vertex 16.9119 20.7763 0
      vertex 16.9119 20.7763 2
    endloop
  endfacet
  facet normal 0.995574 -0.0939822 0
    outer loop
      vertex 16.9119 20.7763 0
      vertex 16.906 20.7138 2
      vertex 16.906 20.7138 0
    endloop
  endfacet
  facet normal 0.860292 -0.509802 0
    outer loop
      vertex 17.0277 21.1328 2
      vertex 17.0597 21.1868 0
      vertex 17.0597 21.1868 2
    endloop
  endfacet
  facet normal 0.860292 -0.509802 0
    outer loop
      vertex 17.0597 21.1868 0
      vertex 17.0277 21.1328 2
      vertex 17.0277 21.1328 0
    endloop
  endfacet
  facet normal 0.891222 -0.453568 0
    outer loop
      vertex 16.9992 21.0768 2
      vertex 17.0277 21.1328 0
      vertex 17.0277 21.1328 2
    endloop
  endfacet
  facet normal 0.891222 -0.453568 0
    outer loop
      vertex 17.0277 21.1328 0
      vertex 16.9992 21.0768 2
      vertex 16.9992 21.0768 0
    endloop
  endfacet
  facet normal 0.750303 -0.661095 0
    outer loop
      vertex 17.1335 21.2884 2
      vertex 17.175 21.3355 0
      vertex 17.175 21.3355 2
    endloop
  endfacet
  facet normal 0.750303 -0.661095 0
    outer loop
      vertex 17.175 21.3355 0
      vertex 17.1335 21.2884 2
      vertex 17.1335 21.2884 0
    endloop
  endfacet
  facet normal 0.789952 -0.613168 0
    outer loop
      vertex 17.095 21.2388 2
      vertex 17.1335 21.2884 0
      vertex 17.1335 21.2884 2
    endloop
  endfacet
  facet normal 0.789952 -0.613168 0
    outer loop
      vertex 17.1335 21.2884 0
      vertex 17.095 21.2388 2
      vertex 17.095 21.2388 0
    endloop
  endfacet
  facet normal 0.397563 -0.917575 0
    outer loop
      vertex 17.4782 21.5558 0
      vertex 17.5359 21.5808 2
      vertex 17.4782 21.5558 2
    endloop
  endfacet
  facet normal 0.397563 -0.917575 0
    outer loop
      vertex 17.5359 21.5808 2
      vertex 17.4782 21.5558 0
      vertex 17.5359 21.5808 0
    endloop
  endfacet
  facet normal 0.21811 -0.975924 0
    outer loop
      vertex 17.6553 21.6196 0
      vertex 17.7166 21.6333 2
      vertex 17.6553 21.6196 2
    endloop
  endfacet
  facet normal 0.21811 -0.975924 0
    outer loop
      vertex 17.7166 21.6333 2
      vertex 17.6553 21.6196 0
      vertex 17.7166 21.6333 0
    endloop
  endfacet
  facet normal 0.561657 -0.82737 0
    outer loop
      vertex 17.3162 21.46 0
      vertex 17.3682 21.4953 2
      vertex 17.3162 21.46 2
    endloop
  endfacet
  facet normal 0.561657 -0.82737 0
    outer loop
      vertex 17.3682 21.4953 2
      vertex 17.3162 21.46 0
      vertex 17.3682 21.4953 0
    endloop
  endfacet
  facet normal 0.707107 -0.707107 0
    outer loop
      vertex 17.175 21.3355 0
      vertex 17.2195 21.38 2
      vertex 17.175 21.3355 2
    endloop
  endfacet
  facet normal 0.707107 -0.707107 0
    outer loop
      vertex 17.2195 21.38 2
      vertex 17.175 21.3355 0
      vertex 17.2195 21.38 0
    endloop
  endfacet
  facet normal -0.999493 -0.031831 0
    outer loop
      vertex 18.904 20.651 0
      vertex 18.902 20.7138 2
      vertex 18.902 20.7138 0
    endloop
  endfacet
  facet normal -0.999493 -0.031831 0
    outer loop
      vertex 18.902 20.7138 2
      vertex 18.904 20.651 0
      vertex 18.904 20.651 2
    endloop
  endfacet
  facet normal -0.031831 0.999493 0
    outer loop
      vertex 17.9668 19.653 0
      vertex 17.904 19.651 2
      vertex 17.9668 19.653 2
    endloop
  endfacet
  facet normal -0.031831 0.999493 0
    outer loop
      vertex 17.904 19.651 2
      vertex 17.9668 19.653 0
      vertex 17.904 19.651 0
    endloop
  endfacet
  facet normal -0.940766 0.339058 0
    outer loop
      vertex 18.8338 20.2829 0
      vertex 18.8551 20.342 2
      vertex 18.8551 20.342 0
    endloop
  endfacet
  facet normal -0.940766 0.339058 0
    outer loop
      vertex 18.8551 20.342 2
      vertex 18.8338 20.2829 0
      vertex 18.8338 20.2829 2
    endloop
  endfacet
  facet normal -0.960374 0.278715 0
    outer loop
      vertex 18.8551 20.342 0
      vertex 18.8726 20.4023 2
      vertex 18.8726 20.4023 0
    endloop
  endfacet
  facet normal -0.960374 0.278715 0
    outer loop
      vertex 18.8726 20.4023 2
      vertex 18.8551 20.342 0
      vertex 18.8551 20.342 2
    endloop
  endfacet
  facet normal -0.0939822 0.995574 0
    outer loop
      vertex 18.0293 19.6589 0
      vertex 17.9668 19.653 2
      vertex 18.0293 19.6589 2
    endloop
  endfacet
  facet normal -0.0939822 0.995574 0
    outer loop
      vertex 17.9668 19.653 2
      vertex 18.0293 19.6589 0
      vertex 17.9668 19.653 0
    endloop
  endfacet
  facet normal -0.278715 0.960374 0
    outer loop
      vertex 18.213 19.6999 0
      vertex 18.1527 19.6824 2
      vertex 18.213 19.6999 2
    endloop
  endfacet
  facet normal -0.278715 0.960374 0
    outer loop
      vertex 18.1527 19.6824 2
      vertex 18.213 19.6999 0
      vertex 18.1527 19.6824 0
    endloop
  endfacet
  facet normal -0.561657 0.82737 0
    outer loop
      vertex 18.4918 19.842 0
      vertex 18.4398 19.8067 2
      vertex 18.4918 19.842 2
    endloop
  endfacet
  facet normal -0.561657 0.82737 0
    outer loop
      vertex 18.4398 19.8067 2
      vertex 18.4918 19.842 0
      vertex 18.4398 19.8067 0
    endloop
  endfacet
  facet normal -0.661095 0.750303 0
    outer loop
      vertex 18.5885 19.922 0
      vertex 18.5414 19.8805 2
      vertex 18.5885 19.922 2
    endloop
  endfacet
  facet normal -0.661095 0.750303 0
    outer loop
      vertex 18.5414 19.8805 2
      vertex 18.5885 19.922 0
      vertex 18.5414 19.8805 0
    endloop
  endfacet
  facet normal -0.613168 0.789952 0
    outer loop
      vertex 18.5414 19.8805 0
      vertex 18.4918 19.842 2
      vertex 18.5414 19.8805 2
    endloop
  endfacet
  facet normal -0.613168 0.789952 0
    outer loop
      vertex 18.4918 19.842 2
      vertex 18.5414 19.8805 0
      vertex 18.4918 19.842 0
    endloop
  endfacet
  facet normal -0.397563 0.917575 0
    outer loop
      vertex 18.3298 19.7462 0
      vertex 18.2721 19.7212 2
      vertex 18.3298 19.7462 2
    endloop
  endfacet
  facet normal -0.397563 0.917575 0
    outer loop
      vertex 18.2721 19.7212 2
      vertex 18.3298 19.7462 0
      vertex 18.2721 19.7212 0
    endloop
  endfacet
  facet normal -0.509802 0.860292 0
    outer loop
      vertex 18.4398 19.8067 0
      vertex 18.3858 19.7747 2
      vertex 18.4398 19.8067 2
    endloop
  endfacet
  facet normal -0.509802 0.860292 0
    outer loop
      vertex 18.3858 19.7747 2
      vertex 18.4398 19.8067 0
      vertex 18.3858 19.7747 0
    endloop
  endfacet
  facet normal -0.453568 0.891222 0
    outer loop
      vertex 18.3858 19.7747 0
      vertex 18.3298 19.7462 2
      vertex 18.3858 19.7747 2
    endloop
  endfacet
  facet normal -0.453568 0.891222 0
    outer loop
      vertex 18.3298 19.7462 2
      vertex 18.3858 19.7747 0
      vertex 18.3298 19.7462 0
    endloop
  endfacet
  facet normal -0.891222 0.453568 0
    outer loop
      vertex 18.7803 20.1692 0
      vertex 18.8088 20.2252 2
      vertex 18.8088 20.2252 0
    endloop
  endfacet
  facet normal -0.891222 0.453568 0
    outer loop
      vertex 18.8088 20.2252 2
      vertex 18.7803 20.1692 0
      vertex 18.7803 20.1692 2
    endloop
  endfacet
  facet normal 0.21811 0.975924 -0
    outer loop
      vertex 17.7166 19.6687 0
      vertex 17.6553 19.6824 2
      vertex 17.7166 19.6687 2
    endloop
  endfacet
  facet normal 0.21811 0.975924 0
    outer loop
      vertex 17.6553 19.6824 2
      vertex 17.7166 19.6687 0
      vertex 17.6553 19.6824 0
    endloop
  endfacet
  facet normal 0.278715 0.960374 -0
    outer loop
      vertex 17.6553 19.6824 0
      vertex 17.595 19.6999 2
      vertex 17.6553 19.6824 2
    endloop
  endfacet
  facet normal 0.278715 0.960374 0
    outer loop
      vertex 17.595 19.6999 2
      vertex 17.6553 19.6824 0
      vertex 17.595 19.6999 0
    endloop
  endfacet
  facet normal 0.0939822 0.995574 -0
    outer loop
      vertex 17.8412 19.653 0
      vertex 17.7787 19.6589 2
      vertex 17.8412 19.653 2
    endloop
  endfacet
  facet normal 0.0939822 0.995574 0
    outer loop
      vertex 17.7787 19.6589 2
      vertex 17.8412 19.653 0
      vertex 17.7787 19.6589 0
    endloop
  endfacet
  facet normal 0.707107 0.707107 0
    outer loop
      vertex 17.2195 19.922 2
      vertex 17.175 19.9665 0
      vertex 17.175 19.9665 2
    endloop
  endfacet
  facet normal 0.707107 0.707107 0
    outer loop
      vertex 17.175 19.9665 0
      vertex 17.2195 19.922 2
      vertex 17.2195 19.922 0
    endloop
  endfacet
  facet normal 0.613168 0.789952 -0
    outer loop
      vertex 17.3162 19.842 0
      vertex 17.2666 19.8805 2
      vertex 17.3162 19.842 2
    endloop
  endfacet
  facet normal 0.613168 0.789952 0
    outer loop
      vertex 17.2666 19.8805 2
      vertex 17.3162 19.842 0
      vertex 17.2666 19.8805 0
    endloop
  endfacet
  facet normal 0.661095 0.750303 -0
    outer loop
      vertex 17.2666 19.8805 0
      vertex 17.2195 19.922 2
      vertex 17.2666 19.8805 2
    endloop
  endfacet
  facet normal 0.661095 0.750303 0
    outer loop
      vertex 17.2195 19.922 2
      vertex 17.2666 19.8805 0
      vertex 17.2195 19.922 0
    endloop
  endfacet
  facet normal 0.453568 0.891222 -0
    outer loop
      vertex 17.4782 19.7462 0
      vertex 17.4222 19.7747 2
      vertex 17.4782 19.7462 2
    endloop
  endfacet
  facet normal 0.453568 0.891222 0
    outer loop
      vertex 17.4222 19.7747 2
      vertex 17.4782 19.7462 0
      vertex 17.4222 19.7747 0
    endloop
  endfacet
  facet normal 0.995574 0.0939822 0
    outer loop
      vertex 16.9119 20.5257 2
      vertex 16.906 20.5882 0
      vertex 16.906 20.5882 2
    endloop
  endfacet
  facet normal 0.995574 0.0939822 0
    outer loop
      vertex 16.906 20.5882 0
      vertex 16.9119 20.5257 2
      vertex 16.9119 20.5257 0
    endloop
  endfacet
  facet normal 0.940766 0.339058 0
    outer loop
      vertex 16.9742 20.2829 2
      vertex 16.9529 20.342 0
      vertex 16.9529 20.342 2
    endloop
  endfacet
  facet normal 0.940766 0.339058 0
    outer loop
      vertex 16.9529 20.342 0
      vertex 16.9742 20.2829 2
      vertex 16.9742 20.2829 0
    endloop
  endfacet
  facet normal 0.750303 0.661095 0
    outer loop
      vertex 17.175 19.9665 2
      vertex 17.1335 20.0136 0
      vertex 17.1335 20.0136 2
    endloop
  endfacet
  facet normal 0.750303 0.661095 0
    outer loop
      vertex 17.1335 20.0136 0
      vertex 17.175 19.9665 2
      vertex 17.175 19.9665 0
    endloop
  endfacet
  facet normal 0.860292 0.509802 0
    outer loop
      vertex 17.0597 20.1152 2
      vertex 17.0277 20.1692 0
      vertex 17.0277 20.1692 2
    endloop
  endfacet
  facet normal 0.860292 0.509802 0
    outer loop
      vertex 17.0277 20.1692 0
      vertex 17.0597 20.1152 2
      vertex 17.0597 20.1152 0
    endloop
  endfacet
  facet normal -0.975924 -0.21811 0
    outer loop
      vertex 18.8863 20.8384 0
      vertex 18.8726 20.8997 2
      vertex 18.8726 20.8997 0
    endloop
  endfacet
  facet normal -0.975924 -0.21811 0
    outer loop
      vertex 18.8726 20.8997 2
      vertex 18.8863 20.8384 0
      vertex 18.8863 20.8384 2
    endloop
  endfacet
  facet normal -0.917575 -0.397563 0
    outer loop
      vertex 18.8338 21.0191 0
      vertex 18.8088 21.0768 2
      vertex 18.8088 21.0768 0
    endloop
  endfacet
  facet normal -0.917575 -0.397563 0
    outer loop
      vertex 18.8088 21.0768 2
      vertex 18.8338 21.0191 0
      vertex 18.8338 21.0191 2
    endloop
  endfacet
  facet normal -0.960374 -0.278715 0
    outer loop
      vertex 18.8726 20.8997 0
      vertex 18.8551 20.96 2
      vertex 18.8551 20.96 0
    endloop
  endfacet
  facet normal -0.960374 -0.278715 0
    outer loop
      vertex 18.8551 20.96 2
      vertex 18.8726 20.8997 0
      vertex 18.8726 20.8997 2
    endloop
  endfacet
  facet normal -0.707107 -0.707107 0
    outer loop
      vertex 18.5885 21.38 0
      vertex 18.633 21.3355 2
      vertex 18.5885 21.38 2
    endloop
  endfacet
  facet normal -0.707107 -0.707107 -0
    outer loop
      vertex 18.633 21.3355 2
      vertex 18.5885 21.38 0
      vertex 18.633 21.3355 0
    endloop
  endfacet
  facet normal -0.561657 -0.82737 0
    outer loop
      vertex 18.4398 21.4953 0
      vertex 18.4918 21.46 2
      vertex 18.4398 21.4953 2
    endloop
  endfacet
  facet normal -0.561657 -0.82737 -0
    outer loop
      vertex 18.4918 21.46 2
      vertex 18.4398 21.4953 0
      vertex 18.4918 21.46 0
    endloop
  endfacet
  facet normal -0.031831 -0.999493 0
    outer loop
      vertex 17.904 21.651 0
      vertex 17.9668 21.649 2
      vertex 17.904 21.651 2
    endloop
  endfacet
  facet normal -0.031831 -0.999493 -0
    outer loop
      vertex 17.9668 21.649 2
      vertex 17.904 21.651 0
      vertex 17.9668 21.649 0
    endloop
  endfacet
  facet normal 0.339058 -0.940766 0
    outer loop
      vertex 17.5359 21.5808 0
      vertex 17.595 21.6021 2
      vertex 17.5359 21.5808 2
    endloop
  endfacet
  facet normal 0.339058 -0.940766 0
    outer loop
      vertex 17.595 21.6021 2
      vertex 17.5359 21.5808 0
      vertex 17.595 21.6021 0
    endloop
  endfacet
  facet normal 0.661095 -0.750303 0
    outer loop
      vertex 17.2195 21.38 0
      vertex 17.2666 21.4215 2
      vertex 17.2195 21.38 2
    endloop
  endfacet
  facet normal 0.661095 -0.750303 0
    outer loop
      vertex 17.2666 21.4215 2
      vertex 17.2195 21.38 0
      vertex 17.2666 21.4215 0
    endloop
  endfacet
  facet normal -0.987776 0.155881 0
    outer loop
      vertex 18.8863 20.4636 0
      vertex 18.8961 20.5257 2
      vertex 18.8961 20.5257 0
    endloop
  endfacet
  facet normal -0.987776 0.155881 0
    outer loop
      vertex 18.8961 20.5257 2
      vertex 18.8863 20.4636 0
      vertex 18.8863 20.4636 2
    endloop
  endfacet
  facet normal -0.82737 0.561657 0
    outer loop
      vertex 18.713 20.0632 0
      vertex 18.7483 20.1152 2
      vertex 18.7483 20.1152 0
    endloop
  endfacet
  facet normal -0.82737 0.561657 0
    outer loop
      vertex 18.7483 20.1152 2
      vertex 18.713 20.0632 0
      vertex 18.713 20.0632 2
    endloop
  endfacet
  facet normal 0.397563 0.917575 -0
    outer loop
      vertex 17.5359 19.7212 0
      vertex 17.4782 19.7462 2
      vertex 17.5359 19.7212 2
    endloop
  endfacet
  facet normal 0.397563 0.917575 0
    outer loop
      vertex 17.4782 19.7462 2
      vertex 17.5359 19.7212 0
      vertex 17.4782 19.7462 0
    endloop
  endfacet
  facet normal 0.987776 0.155881 0
    outer loop
      vertex 16.9217 20.4636 2
      vertex 16.9119 20.5257 0
      vertex 16.9119 20.5257 2
    endloop
  endfacet
  facet normal 0.987776 0.155881 0
    outer loop
      vertex 16.9119 20.5257 0
      vertex 16.9217 20.4636 2
      vertex 16.9217 20.4636 0
    endloop
  endfacet
  facet normal 0.960374 0.278715 0
    outer loop
      vertex 16.9529 20.342 2
      vertex 16.9354 20.4023 0
      vertex 16.9354 20.4023 2
    endloop
  endfacet
  facet normal 0.960374 0.278715 0
    outer loop
      vertex 16.9354 20.4023 0
      vertex 16.9529 20.342 2
      vertex 16.9529 20.342 0
    endloop
  endfacet
endsolid OpenSCAD_Model
