solid OpenSCAD_Model
  facet normal 0 0 -1
    outer loop
      vertex 27.2876 0 0
      vertex 23.3816 20.4524 0
      vertex 36.9712 0 0
    endloop
  endfacet
  facet normal 0 0 -1
    outer loop
      vertex 18.472 13.7524 0
      vertex 23.3816 20.4524 0
      vertex 27.2876 0 0
    endloop
  endfacet
  facet normal 0 0 -1
    outer loop
      vertex 23.3816 20.4524 0
      vertex 19.625 20.3712 0
      vertex 19.627 20.434 0
    endloop
  endfacet
  facet normal 0 0 -1
    outer loop
      vertex 23.3816 20.4524 0
      vertex 19.6191 20.3087 0
      vertex 19.625 20.3712 0
    endloop
  endfacet
  facet normal 0 0 -1
    outer loop
      vertex 23.3816 20.4524 0
      vertex 19.6093 20.2466 0
      vertex 19.6191 20.3087 0
    endloop
  endfacet
  facet normal 0 0 -1
    outer loop
      vertex 23.3816 20.4524 0
      vertex 19.5956 20.1853 0
      vertex 19.6093 20.2466 0
    endloop
  endfacet
  facet normal 0 0 -1
    outer loop
      vertex 23.3816 20.4524 0
      vertex 19.5781 20.125 0
      vertex 19.5956 20.1853 0
    endloop
  endfacet
  facet normal 0 0 -1
    outer loop
      vertex 23.3816 20.4524 0
      vertex 19.5568 20.0659 0
      vertex 19.5781 20.125 0
    endloop
  endfacet
  facet normal 0 -0 -1
    outer loop
      vertex 19.2644 19.6635 0
      vertex 23.3816 20.4524 0
      vertex 18.472 13.7524 0
    endloop
  endfacet
  facet normal 0 0 -1
    outer loop
      vertex 23.3816 20.4524 0
      vertex 19.5318 20.0082 0
      vertex 19.5568 20.0659 0
    endloop
  endfacet
  facet normal 0 0 -1
    outer loop
      vertex 23.3816 20.4524 0
      vertex 19.5033 19.9522 0
      vertex 19.5318 20.0082 0
    endloop
  endfacet
  facet normal 0 0 -1
    outer loop
      vertex 23.3816 20.4524 0
      vertex 19.4713 19.8982 0
      vertex 19.5033 19.9522 0
    endloop
  endfacet
  facet normal 0 0 -1
    outer loop
      vertex 23.3816 20.4524 0
      vertex 19.436 19.8462 0
      vertex 19.4713 19.8982 0
    endloop
  endfacet
  facet normal 0 0 -1
    outer loop
      vertex 23.3816 20.4524 0
      vertex 19.3975 19.7966 0
      vertex 19.436 19.8462 0
    endloop
  endfacet
  facet normal 0 0 -1
    outer loop
      vertex 23.3816 20.4524 0
      vertex 19.356 19.7495 0
      vertex 19.3975 19.7966 0
    endloop
  endfacet
  facet normal 0 0 -1
    outer loop
      vertex 23.3816 20.4524 0
      vertex 19.3115 19.705 0
      vertex 19.356 19.7495 0
    endloop
  endfacet
  facet normal 0 0 -1
    outer loop
      vertex 23.3816 20.4524 0
      vertex 19.2644 19.6635 0
      vertex 19.3115 19.705 0
    endloop
  endfacet
  facet normal 0 0 -1
    outer loop
      vertex 19.2644 19.6635 0
      vertex 18.472 13.7524 0
      vertex 19.2148 19.625 0
    endloop
  endfacet
  facet normal 0 0 -1
    outer loop
      vertex 19.2148 19.625 0
      vertex 18.472 13.7524 0
      vertex 19.1628 19.5897 0
    endloop
  endfacet
  facet normal 0 0 -1
    outer loop
      vertex 19.1628 19.5897 0
      vertex 18.472 13.7524 0
      vertex 19.1088 19.5577 0
    endloop
  endfacet
  facet normal 0 0 -1
    outer loop
      vertex 19.1088 19.5577 0
      vertex 18.472 13.7524 0
      vertex 19.0528 19.5292 0
    endloop
  endfacet
  facet normal 0 0 -1
    outer loop
      vertex 19.0528 19.5292 0
      vertex 18.472 13.7524 0
      vertex 18.9951 19.5042 0
    endloop
  endfacet
  facet normal 0 0 -1
    outer loop
      vertex 18.9951 19.5042 0
      vertex 18.472 13.7524 0
      vertex 18.936 19.4829 0
    endloop
  endfacet
  facet normal 0 0 -1
    outer loop
      vertex 18.936 19.4829 0
      vertex 18.472 13.7524 0
      vertex 18.8757 19.4654 0
    endloop
  endfacet
  facet normal 0 0 -1
    outer loop
      vertex 18.8757 19.4654 0
      vertex 18.472 13.7524 0
      vertex 18.8144 19.4517 0
    endloop
  endfacet
  facet normal 0 0 -1
    outer loop
      vertex 18.8144 19.4517 0
      vertex 18.472 13.7524 0
      vertex 18.7523 19.4419 0
    endloop
  endfacet
  facet normal 0 0 -1
    outer loop
      vertex 18.7523 19.4419 0
      vertex 18.472 13.7524 0
      vertex 18.6898 19.436 0
    endloop
  endfacet
  facet normal 0 0 -1
    outer loop
      vertex 18.6898 19.436 0
      vertex 18.472 13.7524 0
      vertex 18.627 19.434 0
    endloop
  endfacet
  facet normal -0 0 -1
    outer loop
      vertex 18.627 19.434 0
      vertex 18.472 13.7524 0
      vertex 18.5642 19.436 0
    endloop
  endfacet
  facet normal -0 0 -1
    outer loop
      vertex 18.5642 19.436 0
      vertex 18.472 13.7524 0
      vertex 18.5017 19.4419 0
    endloop
  endfacet
  facet normal 0 0 -1
    outer loop
      vertex 18.472 13.7524 0
      vertex 18.4396 19.4517 0
      vertex 18.5017 19.4419 0
    endloop
  endfacet
  facet normal 0 0 -1
    outer loop
      vertex 18.472 13.7524 0
      vertex 18.3783 19.4654 0
      vertex 18.4396 19.4517 0
    endloop
  endfacet
  facet normal 0 0 -1
    outer loop
      vertex 18.472 13.7524 0
      vertex 18.318 19.4829 0
      vertex 18.3783 19.4654 0
    endloop
  endfacet
  facet normal 0 0 -1
    outer loop
      vertex 18.472 13.7524 0
      vertex 18.2589 19.5042 0
      vertex 18.318 19.4829 0
    endloop
  endfacet
  facet normal 0 0 -1
    outer loop
      vertex 18.472 13.7524 0
      vertex 18.2012 19.5292 0
      vertex 18.2589 19.5042 0
    endloop
  endfacet
  facet normal 0 0 -1
    outer loop
      vertex 18.472 13.7524 0
      vertex 18.1452 19.5577 0
      vertex 18.2012 19.5292 0
    endloop
  endfacet
  facet normal 0 0 -1
    outer loop
      vertex 18.472 13.7524 0
      vertex 18.0912 19.5897 0
      vertex 18.1452 19.5577 0
    endloop
  endfacet
  facet normal 0 0 -1
    outer loop
      vertex 18.472 13.7524 0
      vertex 18.0392 19.625 0
      vertex 18.0912 19.5897 0
    endloop
  endfacet
  facet normal 0 0 -1
    outer loop
      vertex 18.472 13.7524 0
      vertex 17.9896 19.6635 0
      vertex 18.0392 19.625 0
    endloop
  endfacet
  facet normal 0 0 -1
    outer loop
      vertex 18.472 13.7524 0
      vertex 17.9425 19.705 0
      vertex 17.9896 19.6635 0
    endloop
  endfacet
  facet normal 0 0 -1
    outer loop
      vertex 13.5896 20.7508 0
      vertex 17.9425 19.705 0
      vertex 18.472 13.7524 0
    endloop
  endfacet
  facet normal 0 0 -1
    outer loop
      vertex 17.9425 19.705 0
      vertex 13.5896 20.7508 0
      vertex 17.898 19.7495 0
    endloop
  endfacet
  facet normal 0 0 -1
    outer loop
      vertex 17.898 19.7495 0
      vertex 13.5896 20.7508 0
      vertex 17.8565 19.7966 0
    endloop
  endfacet
  facet normal 0 0 -1
    outer loop
      vertex 17.8565 19.7966 0
      vertex 13.5896 20.7508 0
      vertex 17.818 19.8462 0
    endloop
  endfacet
  facet normal 0 0 -1
    outer loop
      vertex 17.818 19.8462 0
      vertex 13.5896 20.7508 0
      vertex 17.7827 19.8982 0
    endloop
  endfacet
  facet normal 0 0 -1
    outer loop
      vertex 17.7827 19.8982 0
      vertex 13.5896 20.7508 0
      vertex 17.7507 19.9522 0
    endloop
  endfacet
  facet normal 0 0 -1
    outer loop
      vertex 17.7507 19.9522 0
      vertex 13.5896 20.7508 0
      vertex 17.7222 20.0082 0
    endloop
  endfacet
  facet normal 0 0 -1
    outer loop
      vertex 17.7222 20.0082 0
      vertex 13.5896 20.7508 0
      vertex 17.6972 20.0659 0
    endloop
  endfacet
  facet normal 0 0 -1
    outer loop
      vertex 17.6972 20.0659 0
      vertex 13.5896 20.7508 0
      vertex 17.6759 20.125 0
    endloop
  endfacet
  facet normal 0 0 -1
    outer loop
      vertex 17.6759 20.125 0
      vertex 13.5896 20.7508 0
      vertex 17.6584 20.1853 0
    endloop
  endfacet
  facet normal 0 0 -1
    outer loop
      vertex 17.6584 20.1853 0
      vertex 13.5896 20.7508 0
      vertex 17.6447 20.2466 0
    endloop
  endfacet
  facet normal 0 0 -1
    outer loop
      vertex 17.629 20.3712 0
      vertex 13.5896 20.7508 0
      vertex 17.627 20.434 0
    endloop
  endfacet
  facet normal 0 0 -1
    outer loop
      vertex 17.6349 20.3087 0
      vertex 13.5896 20.7508 0
      vertex 17.629 20.3712 0
    endloop
  endfacet
  facet normal 0 0 -1
    outer loop
      vertex 17.6447 20.2466 0
      vertex 13.5896 20.7508 0
      vertex 17.6349 20.3087 0
    endloop
  endfacet
  facet normal 0 0 -1
    outer loop
      vertex 9.6292 0 0
      vertex 13.5896 20.7508 0
      vertex 18.472 13.7524 0
    endloop
  endfacet
  facet normal 0 0 -1
    outer loop
      vertex 13.5896 20.7508 0
      vertex 9.6292 0 0
      vertex 0 0 0
    endloop
  endfacet
  facet normal 0 0 -1
    outer loop
      vertex 23.3816 20.4524 0
      vertex 26.4468 39.7652 0
      vertex 35.7508 39.7652 0
    endloop
  endfacet
  facet normal 0 0 -1
    outer loop
      vertex 19.625 20.4968 0
      vertex 23.3816 20.4524 0
      vertex 19.627 20.434 0
    endloop
  endfacet
  facet normal 0 0 -1
    outer loop
      vertex 19.6191 20.5593 0
      vertex 23.3816 20.4524 0
      vertex 19.625 20.4968 0
    endloop
  endfacet
  facet normal 0 0 -1
    outer loop
      vertex 19.6093 20.6214 0
      vertex 23.3816 20.4524 0
      vertex 19.6191 20.5593 0
    endloop
  endfacet
  facet normal 0 0 -1
    outer loop
      vertex 19.5956 20.6827 0
      vertex 23.3816 20.4524 0
      vertex 19.6093 20.6214 0
    endloop
  endfacet
  facet normal 0 0 -1
    outer loop
      vertex 19.5781 20.743 0
      vertex 23.3816 20.4524 0
      vertex 19.5956 20.6827 0
    endloop
  endfacet
  facet normal 0 0 -1
    outer loop
      vertex 19.5568 20.8021 0
      vertex 23.3816 20.4524 0
      vertex 19.5781 20.743 0
    endloop
  endfacet
  facet normal 0 0 -1
    outer loop
      vertex 19.5318 20.8598 0
      vertex 23.3816 20.4524 0
      vertex 19.5568 20.8021 0
    endloop
  endfacet
  facet normal 0 0 -1
    outer loop
      vertex 19.5033 20.9158 0
      vertex 23.3816 20.4524 0
      vertex 19.5318 20.8598 0
    endloop
  endfacet
  facet normal 0 0 -1
    outer loop
      vertex 19.4713 20.9698 0
      vertex 23.3816 20.4524 0
      vertex 19.5033 20.9158 0
    endloop
  endfacet
  facet normal 0 0 -1
    outer loop
      vertex 19.436 21.0218 0
      vertex 23.3816 20.4524 0
      vertex 19.4713 20.9698 0
    endloop
  endfacet
  facet normal 0 0 -1
    outer loop
      vertex 19.3975 21.0714 0
      vertex 23.3816 20.4524 0
      vertex 19.436 21.0218 0
    endloop
  endfacet
  facet normal 0 0 -1
    outer loop
      vertex 19.356 21.1185 0
      vertex 23.3816 20.4524 0
      vertex 19.3975 21.0714 0
    endloop
  endfacet
  facet normal 0 0 -1
    outer loop
      vertex 19.3115 21.163 0
      vertex 23.3816 20.4524 0
      vertex 19.356 21.1185 0
    endloop
  endfacet
  facet normal 0 0 -1
    outer loop
      vertex 19.2644 21.2045 0
      vertex 23.3816 20.4524 0
      vertex 19.3115 21.163 0
    endloop
  endfacet
  facet normal 0 0 -1
    outer loop
      vertex 23.3816 20.4524 0
      vertex 19.2644 21.2045 0
      vertex 18.6348 26.9892 0
    endloop
  endfacet
  facet normal 0 0 -1
    outer loop
      vertex 18.6348 26.9892 0
      vertex 19.2644 21.2045 0
      vertex 19.2148 21.243 0
    endloop
  endfacet
  facet normal 0 0 -1
    outer loop
      vertex 18.6348 26.9892 0
      vertex 19.2148 21.243 0
      vertex 19.1628 21.2783 0
    endloop
  endfacet
  facet normal 0 0 -1
    outer loop
      vertex 18.6348 26.9892 0
      vertex 19.1628 21.2783 0
      vertex 19.1088 21.3103 0
    endloop
  endfacet
  facet normal 0 0 -1
    outer loop
      vertex 18.6348 26.9892 0
      vertex 19.1088 21.3103 0
      vertex 19.0528 21.3388 0
    endloop
  endfacet
  facet normal 0 0 -1
    outer loop
      vertex 18.6348 26.9892 0
      vertex 19.0528 21.3388 0
      vertex 18.9951 21.3638 0
    endloop
  endfacet
  facet normal 0 0 -1
    outer loop
      vertex 18.6348 26.9892 0
      vertex 18.9951 21.3638 0
      vertex 18.936 21.3851 0
    endloop
  endfacet
  facet normal 0 0 -1
    outer loop
      vertex 18.6348 26.9892 0
      vertex 18.936 21.3851 0
      vertex 18.8757 21.4026 0
    endloop
  endfacet
  facet normal 0 0 -1
    outer loop
      vertex 18.6348 26.9892 0
      vertex 18.8757 21.4026 0
      vertex 18.8144 21.4163 0
    endloop
  endfacet
  facet normal 0 0 -1
    outer loop
      vertex 18.6348 26.9892 0
      vertex 18.8144 21.4163 0
      vertex 18.7523 21.4261 0
    endloop
  endfacet
  facet normal 0 0 -1
    outer loop
      vertex 18.6348 26.9892 0
      vertex 18.7523 21.4261 0
      vertex 18.6898 21.432 0
    endloop
  endfacet
  facet normal 0 0 -1
    outer loop
      vertex 23.3816 20.4524 0
      vertex 18.6348 26.9892 0
      vertex 26.4468 39.7652 0
    endloop
  endfacet
  facet normal 0 0 -1
    outer loop
      vertex 18.627 21.434 0
      vertex 18.6348 26.9892 0
      vertex 18.6898 21.432 0
    endloop
  endfacet
  facet normal 0 0 -1
    outer loop
      vertex 18.5642 21.432 0
      vertex 18.6348 26.9892 0
      vertex 18.627 21.434 0
    endloop
  endfacet
  facet normal 0 0 -1
    outer loop
      vertex 18.5017 21.4261 0
      vertex 18.6348 26.9892 0
      vertex 18.5642 21.432 0
    endloop
  endfacet
  facet normal 0 0 -1
    outer loop
      vertex 18.4396 21.4163 0
      vertex 18.6348 26.9892 0
      vertex 18.5017 21.4261 0
    endloop
  endfacet
  facet normal 0 0 -1
    outer loop
      vertex 18.3783 21.4026 0
      vertex 18.6348 26.9892 0
      vertex 18.4396 21.4163 0
    endloop
  endfacet
  facet normal 0 0 -1
    outer loop
      vertex 18.318 21.3851 0
      vertex 18.6348 26.9892 0
      vertex 18.3783 21.4026 0
    endloop
  endfacet
  facet normal 0 0 -1
    outer loop
      vertex 18.2589 21.3638 0
      vertex 18.6348 26.9892 0
      vertex 18.318 21.3851 0
    endloop
  endfacet
  facet normal 0 0 -1
    outer loop
      vertex 18.2012 21.3388 0
      vertex 18.6348 26.9892 0
      vertex 18.2589 21.3638 0
    endloop
  endfacet
  facet normal 0 0 -1
    outer loop
      vertex 18.1452 21.3103 0
      vertex 18.6348 26.9892 0
      vertex 18.2012 21.3388 0
    endloop
  endfacet
  facet normal 0 0 -1
    outer loop
      vertex 18.0912 21.2783 0
      vertex 18.6348 26.9892 0
      vertex 18.1452 21.3103 0
    endloop
  endfacet
  facet normal 0 0 -1
    outer loop
      vertex 18.0392 21.243 0
      vertex 18.6348 26.9892 0
      vertex 18.0912 21.2783 0
    endloop
  endfacet
  facet normal 0 0 -1
    outer loop
      vertex 17.9896 21.2045 0
      vertex 18.6348 26.9892 0
      vertex 18.0392 21.243 0
    endloop
  endfacet
  facet normal 0 0 -1
    outer loop
      vertex 13.5896 20.7508 0
      vertex 17.9896 21.2045 0
      vertex 17.9425 21.163 0
    endloop
  endfacet
  facet normal 0 0 -1
    outer loop
      vertex 13.5896 20.7508 0
      vertex 17.9425 21.163 0
      vertex 17.898 21.1185 0
    endloop
  endfacet
  facet normal 0 0 -1
    outer loop
      vertex 13.5896 20.7508 0
      vertex 17.898 21.1185 0
      vertex 17.8565 21.0714 0
    endloop
  endfacet
  facet normal 0 0 -1
    outer loop
      vertex 13.5896 20.7508 0
      vertex 17.8565 21.0714 0
      vertex 17.818 21.0218 0
    endloop
  endfacet
  facet normal 0 0 -1
    outer loop
      vertex 13.5896 20.7508 0
      vertex 17.818 21.0218 0
      vertex 17.7827 20.9698 0
    endloop
  endfacet
  facet normal 0 0 -1
    outer loop
      vertex 13.5896 20.7508 0
      vertex 17.7827 20.9698 0
      vertex 17.7507 20.9158 0
    endloop
  endfacet
  facet normal 0 0 -1
    outer loop
      vertex 13.5896 20.7508 0
      vertex 17.7507 20.9158 0
      vertex 17.7222 20.8598 0
    endloop
  endfacet
  facet normal 0 0 -1
    outer loop
      vertex 13.5896 20.7508 0
      vertex 17.7222 20.8598 0
      vertex 17.6972 20.8021 0
    endloop
  endfacet
  facet normal 0 0 -1
    outer loop
      vertex 13.5896 20.7508 0
      vertex 17.6972 20.8021 0
      vertex 17.6759 20.743 0
    endloop
  endfacet
  facet normal 0 0 -1
    outer loop
      vertex 13.5896 20.7508 0
      vertex 17.6759 20.743 0
      vertex 17.6584 20.6827 0
    endloop
  endfacet
  facet normal 0 0 -1
    outer loop
      vertex 13.5896 20.7508 0
      vertex 17.6584 20.6827 0
      vertex 17.6447 20.6214 0
    endloop
  endfacet
  facet normal 0 0 -1
    outer loop
      vertex 13.5896 20.7508 0
      vertex 17.6447 20.6214 0
      vertex 17.6349 20.5593 0
    endloop
  endfacet
  facet normal 0 0 -1
    outer loop
      vertex 13.5896 20.7508 0
      vertex 17.629 20.4968 0
      vertex 17.627 20.434 0
    endloop
  endfacet
  facet normal 0 0 -1
    outer loop
      vertex 13.5896 20.7508 0
      vertex 17.6349 20.5593 0
      vertex 17.629 20.4968 0
    endloop
  endfacet
  facet normal -0 0 -1
    outer loop
      vertex 17.9896 21.2045 0
      vertex 13.5896 20.7508 0
      vertex 18.6348 26.9892 0
    endloop
  endfacet
  facet normal 0 0 -1
    outer loop
      vertex 13.5896 20.7508 0
      vertex 10.66 39.7652 0
      vertex 18.6348 26.9892 0
    endloop
  endfacet
  facet normal -0 -0 -1
    outer loop
      vertex 10.66 39.7652 0
      vertex 13.5896 20.7508 0
      vertex 1.2748 39.7652 0
    endloop
  endfacet
  facet normal -0 0 1
    outer loop
      vertex 26.4468 39.7652 5
      vertex 23.3816 20.4524 5
      vertex 35.7508 39.7652 5
    endloop
  endfacet
  facet normal 0 -0 1
    outer loop
      vertex 23.3816 20.4524 5
      vertex 26.4468 39.7652 5
      vertex 18.6348 26.9892 5
    endloop
  endfacet
  facet normal 0 0 1
    outer loop
      vertex 23.3816 20.4524 5
      vertex 27.2876 0 5
      vertex 36.9712 0 5
    endloop
  endfacet
  facet normal -0 0 1
    outer loop
      vertex 13.5896 20.7508 5
      vertex 23.3816 20.4524 5
      vertex 18.6348 26.9892 5
    endloop
  endfacet
  facet normal 0 0 1
    outer loop
      vertex 23.3816 20.4524 5
      vertex 18.472 13.7524 5
      vertex 27.2876 0 5
    endloop
  endfacet
  facet normal 0 0 1
    outer loop
      vertex 23.3816 20.4524 5
      vertex 13.5896 20.7508 5
      vertex 18.472 13.7524 5
    endloop
  endfacet
  facet normal 0 0 1
    outer loop
      vertex 10.66 39.7652 5
      vertex 13.5896 20.7508 5
      vertex 18.6348 26.9892 5
    endloop
  endfacet
  facet normal 0 0 1
    outer loop
      vertex 13.5896 20.7508 5
      vertex 10.66 39.7652 5
      vertex 1.2748 39.7652 5
    endloop
  endfacet
  facet normal 0 0 1
    outer loop
      vertex 13.5896 20.7508 5
      vertex 9.6292 0 5
      vertex 18.472 13.7524 5
    endloop
  endfacet
  facet normal 0 -0 1
    outer loop
      vertex 9.6292 0 5
      vertex 13.5896 20.7508 5
      vertex 0 0 5
    endloop
  endfacet
  facet normal -0.84188 -0.539664 0
    outer loop
      vertex 27.2876 0 0
      vertex 18.472 13.7524 5
      vertex 18.472 13.7524 0
    endloop
  endfacet
  facet normal -0.84188 -0.539664 0
    outer loop
      vertex 18.472 13.7524 5
      vertex 27.2876 0 0
      vertex 27.2876 0 5
    endloop
  endfacet
  facet normal 0 -1 0
    outer loop
      vertex 27.2876 0 0
      vertex 36.9712 0 5
      vertex 27.2876 0 5
    endloop
  endfacet
  facet normal 0 -1 -0
    outer loop
      vertex 36.9712 0 5
      vertex 27.2876 0 0
      vertex 36.9712 0 0
    endloop
  endfacet
  facet normal 0.832901 0.553421 0
    outer loop
      vertex 36.9712 0 5
      vertex 23.3816 20.4524 0
      vertex 23.3816 20.4524 5
    endloop
  endfacet
  facet normal 0.832901 0.553421 0
    outer loop
      vertex 23.3816 20.4524 0
      vertex 36.9712 0 5
      vertex 36.9712 0 0
    endloop
  endfacet
  facet normal 0.842093 -0.539332 0
    outer loop
      vertex 23.3816 20.4524 5
      vertex 35.7508 39.7652 0
      vertex 35.7508 39.7652 5
    endloop
  endfacet
  facet normal 0.842093 -0.539332 0
    outer loop
      vertex 35.7508 39.7652 0
      vertex 23.3816 20.4524 5
      vertex 23.3816 20.4524 0
    endloop
  endfacet
  facet normal 0 1 -0
    outer loop
      vertex 35.7508 39.7652 0
      vertex 26.4468 39.7652 5
      vertex 35.7508 39.7652 5
    endloop
  endfacet
  facet normal 0 1 0
    outer loop
      vertex 26.4468 39.7652 5
      vertex 35.7508 39.7652 0
      vertex 26.4468 39.7652 0
    endloop
  endfacet
  facet normal -0.85315 0.521666 0
    outer loop
      vertex 18.6348 26.9892 0
      vertex 26.4468 39.7652 5
      vertex 26.4468 39.7652 0
    endloop
  endfacet
  facet normal -0.85315 0.521666 0
    outer loop
      vertex 26.4468 39.7652 5
      vertex 18.6348 26.9892 0
      vertex 18.6348 26.9892 5
    endloop
  endfacet
  facet normal 0.848303 0.529512 0
    outer loop
      vertex 18.6348 26.9892 5
      vertex 10.66 39.7652 0
      vertex 10.66 39.7652 5
    endloop
  endfacet
  facet normal 0.848303 0.529512 0
    outer loop
      vertex 10.66 39.7652 0
      vertex 18.6348 26.9892 5
      vertex 18.6348 26.9892 0
    endloop
  endfacet
  facet normal 0 1 -0
    outer loop
      vertex 10.66 39.7652 0
      vertex 1.2748 39.7652 5
      vertex 10.66 39.7652 5
    endloop
  endfacet
  facet normal 0 1 0
    outer loop
      vertex 1.2748 39.7652 5
      vertex 10.66 39.7652 0
      vertex 1.2748 39.7652 0
    endloop
  endfacet
  facet normal -0.839341 -0.543605 0
    outer loop
      vertex 13.5896 20.7508 0
      vertex 1.2748 39.7652 5
      vertex 1.2748 39.7652 0
    endloop
  endfacet
  facet normal -0.839341 -0.543605 0
    outer loop
      vertex 1.2748 39.7652 5
      vertex 13.5896 20.7508 0
      vertex 13.5896 20.7508 5
    endloop
  endfacet
  facet normal -0.836567 0.547864 0
    outer loop
      vertex 0 0 0
      vertex 13.5896 20.7508 5
      vertex 13.5896 20.7508 0
    endloop
  endfacet
  facet normal -0.836567 0.547864 0
    outer loop
      vertex 13.5896 20.7508 5
      vertex 0 0 0
      vertex 0 0 5
    endloop
  endfacet
  facet normal 0 -1 0
    outer loop
      vertex 0 0 0
      vertex 9.6292 0 5
      vertex 0 0 5
    endloop
  endfacet
  facet normal 0 -1 -0
    outer loop
      vertex 9.6292 0 5
      vertex 0 0 0
      vertex 9.6292 0 0
    endloop
  endfacet
  facet normal 0.841124 -0.540843 0
    outer loop
      vertex 9.6292 0 5
      vertex 18.472 13.7524 0
      vertex 18.472 13.7524 5
    endloop
  endfacet
  facet normal 0.841124 -0.540843 0
    outer loop
      vertex 18.472 13.7524 0
      vertex 9.6292 0 5
      vertex 9.6292 0 0
    endloop
  endfacet
  facet normal -0.999493 -0.031831 0
    outer loop
      vertex 19.627 20.434 0
      vertex 19.625 20.4968 2
      vertex 19.625 20.4968 0
    endloop
  endfacet
  facet normal -0.999493 -0.031831 0
    outer loop
      vertex 19.625 20.4968 2
      vertex 19.627 20.434 0
      vertex 19.627 20.434 2
    endloop
  endfacet
  facet normal 0.999493 -0.031831 0
    outer loop
      vertex 17.627 20.434 2
      vertex 17.629 20.4968 0
      vertex 17.629 20.4968 2
    endloop
  endfacet
  facet normal 0.999493 -0.031831 0
    outer loop
      vertex 17.629 20.4968 0
      vertex 17.627 20.434 2
      vertex 17.627 20.434 0
    endloop
  endfacet
  facet normal 0.031831 -0.999493 0
    outer loop
      vertex 18.5642 21.432 0
      vertex 18.627 21.434 2
      vertex 18.5642 21.432 2
    endloop
  endfacet
  facet normal 0.031831 -0.999493 0
    outer loop
      vertex 18.627 21.434 2
      vertex 18.5642 21.432 0
      vertex 18.627 21.434 0
    endloop
  endfacet
  facet normal -0.661095 -0.750303 0
    outer loop
      vertex 19.2644 21.2045 0
      vertex 19.3115 21.163 2
      vertex 19.2644 21.2045 2
    endloop
  endfacet
  facet normal -0.661095 -0.750303 -0
    outer loop
      vertex 19.3115 21.163 2
      vertex 19.2644 21.2045 0
      vertex 19.3115 21.163 0
    endloop
  endfacet
  facet normal 0.707107 -0.707107 0
    outer loop
      vertex 17.898 21.1185 2
      vertex 17.9425 21.163 0
      vertex 17.9425 21.163 2
    endloop
  endfacet
  facet normal 0.707107 -0.707107 0
    outer loop
      vertex 17.9425 21.163 0
      vertex 17.898 21.1185 2
      vertex 17.898 21.1185 0
    endloop
  endfacet
  facet normal 0.397563 -0.917575 0
    outer loop
      vertex 18.2012 21.3388 0
      vertex 18.2589 21.3638 2
      vertex 18.2012 21.3388 2
    endloop
  endfacet
  facet normal 0.397563 -0.917575 0
    outer loop
      vertex 18.2589 21.3638 2
      vertex 18.2012 21.3388 0
      vertex 18.2589 21.3638 0
    endloop
  endfacet
  facet normal 0.975924 0.21811 0
    outer loop
      vertex 17.6584 20.1853 2
      vertex 17.6447 20.2466 0
      vertex 17.6447 20.2466 2
    endloop
  endfacet
  facet normal 0.975924 0.21811 0
    outer loop
      vertex 17.6447 20.2466 0
      vertex 17.6584 20.1853 2
      vertex 17.6584 20.1853 0
    endloop
  endfacet
  facet normal -0.891222 -0.453568 0
    outer loop
      vertex 19.5318 20.8598 0
      vertex 19.5033 20.9158 2
      vertex 19.5033 20.9158 0
    endloop
  endfacet
  facet normal -0.891222 -0.453568 0
    outer loop
      vertex 19.5033 20.9158 2
      vertex 19.5318 20.8598 0
      vertex 19.5318 20.8598 2
    endloop
  endfacet
  facet normal -0.707107 -0.707107 0
    outer loop
      vertex 19.356 21.1185 0
      vertex 19.3115 21.163 2
      vertex 19.3115 21.163 0
    endloop
  endfacet
  facet normal -0.707107 -0.707107 0
    outer loop
      vertex 19.3115 21.163 2
      vertex 19.356 21.1185 0
      vertex 19.356 21.1185 2
    endloop
  endfacet
  facet normal -0.339058 -0.940766 0
    outer loop
      vertex 18.936 21.3851 0
      vertex 18.9951 21.3638 2
      vertex 18.936 21.3851 2
    endloop
  endfacet
  facet normal -0.339058 -0.940766 -0
    outer loop
      vertex 18.9951 21.3638 2
      vertex 18.936 21.3851 0
      vertex 18.9951 21.3638 0
    endloop
  endfacet
  facet normal 0.860292 -0.509802 0
    outer loop
      vertex 17.7507 20.9158 2
      vertex 17.7827 20.9698 0
      vertex 17.7827 20.9698 2
    endloop
  endfacet
  facet normal 0.860292 -0.509802 0
    outer loop
      vertex 17.7827 20.9698 0
      vertex 17.7507 20.9158 2
      vertex 17.7507 20.9158 0
    endloop
  endfacet
  facet normal 0.661095 -0.750303 0
    outer loop
      vertex 17.9425 21.163 0
      vertex 17.9896 21.2045 2
      vertex 17.9425 21.163 2
    endloop
  endfacet
  facet normal 0.661095 -0.750303 0
    outer loop
      vertex 17.9896 21.2045 2
      vertex 17.9425 21.163 0
      vertex 17.9896 21.2045 0
    endloop
  endfacet
  facet normal 0.155881 -0.987776 0
    outer loop
      vertex 18.4396 21.4163 0
      vertex 18.5017 21.4261 2
      vertex 18.4396 21.4163 2
    endloop
  endfacet
  facet normal 0.155881 -0.987776 0
    outer loop
      vertex 18.5017 21.4261 2
      vertex 18.4396 21.4163 0
      vertex 18.5017 21.4261 0
    endloop
  endfacet
  facet normal -0.860292 0.509802 0
    outer loop
      vertex 19.4713 19.8982 0
      vertex 19.5033 19.9522 2
      vertex 19.5033 19.9522 0
    endloop
  endfacet
  facet normal -0.860292 0.509802 0
    outer loop
      vertex 19.5033 19.9522 2
      vertex 19.4713 19.8982 0
      vertex 19.4713 19.8982 2
    endloop
  endfacet
  facet normal -0.21811 0.975924 0
    outer loop
      vertex 18.8757 19.4654 0
      vertex 18.8144 19.4517 2
      vertex 18.8757 19.4654 2
    endloop
  endfacet
  facet normal -0.21811 0.975924 0
    outer loop
      vertex 18.8144 19.4517 2
      vertex 18.8757 19.4654 0
      vertex 18.8144 19.4517 0
    endloop
  endfacet
  facet normal -0.661095 0.750303 0
    outer loop
      vertex 19.3115 19.705 0
      vertex 19.2644 19.6635 2
      vertex 19.3115 19.705 2
    endloop
  endfacet
  facet normal -0.661095 0.750303 0
    outer loop
      vertex 19.2644 19.6635 2
      vertex 19.3115 19.705 0
      vertex 19.2644 19.6635 0
    endloop
  endfacet
  facet normal 0.339058 0.940766 -0
    outer loop
      vertex 18.318 19.4829 0
      vertex 18.2589 19.5042 2
      vertex 18.318 19.4829 2
    endloop
  endfacet
  facet normal 0.339058 0.940766 0
    outer loop
      vertex 18.2589 19.5042 2
      vertex 18.318 19.4829 0
      vertex 18.2589 19.5042 0
    endloop
  endfacet
  facet normal -0.995574 -0.0939822 0
    outer loop
      vertex 19.625 20.4968 0
      vertex 19.6191 20.5593 2
      vertex 19.6191 20.5593 0
    endloop
  endfacet
  facet normal -0.995574 -0.0939822 0
    outer loop
      vertex 19.6191 20.5593 2
      vertex 19.625 20.4968 0
      vertex 19.625 20.4968 2
    endloop
  endfacet
  facet normal -0.960374 -0.278715 0
    outer loop
      vertex 19.5956 20.6827 0
      vertex 19.5781 20.743 2
      vertex 19.5781 20.743 0
    endloop
  endfacet
  facet normal -0.960374 -0.278715 0
    outer loop
      vertex 19.5781 20.743 2
      vertex 19.5956 20.6827 0
      vertex 19.5956 20.6827 2
    endloop
  endfacet
  facet normal -0.860292 -0.509802 0
    outer loop
      vertex 19.5033 20.9158 0
      vertex 19.4713 20.9698 2
      vertex 19.4713 20.9698 0
    endloop
  endfacet
  facet normal -0.860292 -0.509802 0
    outer loop
      vertex 19.4713 20.9698 2
      vertex 19.5033 20.9158 0
      vertex 19.5033 20.9158 2
    endloop
  endfacet
  facet normal -0.155881 -0.987776 0
    outer loop
      vertex 18.7523 21.4261 0
      vertex 18.8144 21.4163 2
      vertex 18.7523 21.4261 2
    endloop
  endfacet
  facet normal -0.155881 -0.987776 -0
    outer loop
      vertex 18.8144 21.4163 2
      vertex 18.7523 21.4261 0
      vertex 18.8144 21.4163 0
    endloop
  endfacet
  facet normal -0.278715 -0.960374 0
    outer loop
      vertex 18.8757 21.4026 0
      vertex 18.936 21.3851 2
      vertex 18.8757 21.4026 2
    endloop
  endfacet
  facet normal -0.278715 -0.960374 -0
    outer loop
      vertex 18.936 21.3851 2
      vertex 18.8757 21.4026 0
      vertex 18.936 21.3851 0
    endloop
  endfacet
  facet normal -0.0939822 -0.995574 0
    outer loop
      vertex 18.6898 21.432 0
      vertex 18.7523 21.4261 2
      vertex 18.6898 21.432 2
    endloop
  endfacet
  facet normal -0.0939822 -0.995574 -0
    outer loop
      vertex 18.7523 21.4261 2
      vertex 18.6898 21.432 0
      vertex 18.7523 21.4261 0
    endloop
  endfacet
  facet normal -0.397563 -0.917575 0
    outer loop
      vertex 18.9951 21.3638 0
      vertex 19.0528 21.3388 2
      vertex 18.9951 21.3638 2
    endloop
  endfacet
  facet normal -0.397563 -0.917575 -0
    outer loop
      vertex 19.0528 21.3388 2
      vertex 18.9951 21.3638 0
      vertex 19.0528 21.3388 0
    endloop
  endfacet
  facet normal -0.613168 -0.789952 0
    outer loop
      vertex 19.2148 21.243 0
      vertex 19.2644 21.2045 2
      vertex 19.2148 21.243 2
    endloop
  endfacet
  facet normal -0.613168 -0.789952 -0
    outer loop
      vertex 19.2644 21.2045 2
      vertex 19.2148 21.243 0
      vertex 19.2644 21.2045 0
    endloop
  endfacet
  facet normal 0.975924 -0.21811 0
    outer loop
      vertex 17.6447 20.6214 2
      vertex 17.6584 20.6827 0
      vertex 17.6584 20.6827 2
    endloop
  endfacet
  facet normal 0.975924 -0.21811 0
    outer loop
      vertex 17.6584 20.6827 0
      vertex 17.6447 20.6214 2
      vertex 17.6447 20.6214 0
    endloop
  endfacet
  facet normal 0.987776 -0.155881 0
    outer loop
      vertex 17.6349 20.5593 2
      vertex 17.6447 20.6214 0
      vertex 17.6447 20.6214 2
    endloop
  endfacet
  facet normal 0.987776 -0.155881 0
    outer loop
      vertex 17.6447 20.6214 0
      vertex 17.6349 20.5593 2
      vertex 17.6349 20.5593 0
    endloop
  endfacet
  facet normal 0.561657 -0.82737 0
    outer loop
      vertex 18.0392 21.243 0
      vertex 18.0912 21.2783 2
      vertex 18.0392 21.243 2
    endloop
  endfacet
  facet normal 0.561657 -0.82737 0
    outer loop
      vertex 18.0912 21.2783 2
      vertex 18.0392 21.243 0
      vertex 18.0912 21.2783 0
    endloop
  endfacet
  facet normal 0.453568 -0.891222 0
    outer loop
      vertex 18.1452 21.3103 0
      vertex 18.2012 21.3388 2
      vertex 18.1452 21.3103 2
    endloop
  endfacet
  facet normal 0.453568 -0.891222 0
    outer loop
      vertex 18.2012 21.3388 2
      vertex 18.1452 21.3103 0
      vertex 18.2012 21.3388 0
    endloop
  endfacet
  facet normal 0.0939822 -0.995574 0
    outer loop
      vertex 18.5017 21.4261 0
      vertex 18.5642 21.432 2
      vertex 18.5017 21.4261 2
    endloop
  endfacet
  facet normal 0.0939822 -0.995574 0
    outer loop
      vertex 18.5642 21.432 2
      vertex 18.5017 21.4261 0
      vertex 18.5642 21.432 0
    endloop
  endfacet
  facet normal -0.750303 0.661095 0
    outer loop
      vertex 19.356 19.7495 0
      vertex 19.3975 19.7966 2
      vertex 19.3975 19.7966 0
    endloop
  endfacet
  facet normal -0.750303 0.661095 0
    outer loop
      vertex 19.3975 19.7966 2
      vertex 19.356 19.7495 0
      vertex 19.356 19.7495 2
    endloop
  endfacet
  facet normal -0.960374 0.278715 0
    outer loop
      vertex 19.5781 20.125 0
      vertex 19.5956 20.1853 2
      vertex 19.5956 20.1853 0
    endloop
  endfacet
  facet normal -0.960374 0.278715 0
    outer loop
      vertex 19.5956 20.1853 2
      vertex 19.5781 20.125 0
      vertex 19.5781 20.125 2
    endloop
  endfacet
  facet normal -0.995574 0.0939822 0
    outer loop
      vertex 19.6191 20.3087 0
      vertex 19.625 20.3712 2
      vertex 19.625 20.3712 0
    endloop
  endfacet
  facet normal -0.995574 0.0939822 0
    outer loop
      vertex 19.625 20.3712 2
      vertex 19.6191 20.3087 0
      vertex 19.6191 20.3087 2
    endloop
  endfacet
  facet normal 0.661095 0.750303 -0
    outer loop
      vertex 17.9896 19.6635 0
      vertex 17.9425 19.705 2
      vertex 17.9896 19.6635 2
    endloop
  endfacet
  facet normal 0.661095 0.750303 0
    outer loop
      vertex 17.9425 19.705 2
      vertex 17.9896 19.6635 0
      vertex 17.9425 19.705 0
    endloop
  endfacet
  facet normal 0.509802 0.860292 -0
    outer loop
      vertex 18.1452 19.5577 0
      vertex 18.0912 19.5897 2
      vertex 18.1452 19.5577 2
    endloop
  endfacet
  facet normal 0.509802 0.860292 0
    outer loop
      vertex 18.0912 19.5897 2
      vertex 18.1452 19.5577 0
      vertex 18.0912 19.5897 0
    endloop
  endfacet
  facet normal 0.155881 0.987776 -0
    outer loop
      vertex 18.5017 19.4419 0
      vertex 18.4396 19.4517 2
      vertex 18.5017 19.4419 2
    endloop
  endfacet
  facet normal 0.155881 0.987776 0
    outer loop
      vertex 18.4396 19.4517 2
      vertex 18.5017 19.4419 0
      vertex 18.4396 19.4517 0
    endloop
  endfacet
  facet normal 0.917575 0.397563 0
    outer loop
      vertex 17.7222 20.0082 2
      vertex 17.6972 20.0659 0
      vertex 17.6972 20.0659 2
    endloop
  endfacet
  facet normal 0.917575 0.397563 0
    outer loop
      vertex 17.6972 20.0659 0
      vertex 17.7222 20.0082 2
      vertex 17.7222 20.0082 0
    endloop
  endfacet
  facet normal -0.975924 -0.21811 0
    outer loop
      vertex 19.6093 20.6214 0
      vertex 19.5956 20.6827 2
      vertex 19.5956 20.6827 0
    endloop
  endfacet
  facet normal -0.975924 -0.21811 0
    outer loop
      vertex 19.5956 20.6827 2
      vertex 19.6093 20.6214 0
      vertex 19.6093 20.6214 2
    endloop
  endfacet
  facet normal -0.987776 -0.155881 0
    outer loop
      vertex 19.6191 20.5593 0
      vertex 19.6093 20.6214 2
      vertex 19.6093 20.6214 0
    endloop
  endfacet
  facet normal -0.987776 -0.155881 0
    outer loop
      vertex 19.6093 20.6214 2
      vertex 19.6191 20.5593 0
      vertex 19.6191 20.5593 2
    endloop
  endfacet
  facet normal -0.917575 -0.397563 0
    outer loop
      vertex 19.5568 20.8021 0
      vertex 19.5318 20.8598 2
      vertex 19.5318 20.8598 0
    endloop
  endfacet
  facet normal -0.917575 -0.397563 0
    outer loop
      vertex 19.5318 20.8598 2
      vertex 19.5568 20.8021 0
      vertex 19.5568 20.8021 2
    endloop
  endfacet
  facet normal -0.940766 -0.339058 0
    outer loop
      vertex 19.5781 20.743 0
      vertex 19.5568 20.8021 2
      vertex 19.5568 20.8021 0
    endloop
  endfacet
  facet normal -0.940766 -0.339058 0
    outer loop
      vertex 19.5568 20.8021 2
      vertex 19.5781 20.743 0
      vertex 19.5781 20.743 2
    endloop
  endfacet
  facet normal -0.750303 -0.661095 0
    outer loop
      vertex 19.3975 21.0714 0
      vertex 19.356 21.1185 2
      vertex 19.356 21.1185 0
    endloop
  endfacet
  facet normal -0.750303 -0.661095 0
    outer loop
      vertex 19.356 21.1185 2
      vertex 19.3975 21.0714 0
      vertex 19.3975 21.0714 2
    endloop
  endfacet
  facet normal -0.789952 -0.613168 0
    outer loop
      vertex 19.436 21.0218 0
      vertex 19.3975 21.0714 2
      vertex 19.3975 21.0714 0
    endloop
  endfacet
  facet normal -0.789952 -0.613168 0
    outer loop
      vertex 19.3975 21.0714 2
      vertex 19.436 21.0218 0
      vertex 19.436 21.0218 2
    endloop
  endfacet
  facet normal -0.82737 -0.561657 0
    outer loop
      vertex 19.4713 20.9698 0
      vertex 19.436 21.0218 2
      vertex 19.436 21.0218 0
    endloop
  endfacet
  facet normal -0.82737 -0.561657 0
    outer loop
      vertex 19.436 21.0218 2
      vertex 19.4713 20.9698 0
      vertex 19.4713 20.9698 2
    endloop
  endfacet
  facet normal -0.21811 -0.975924 0
    outer loop
      vertex 18.8144 21.4163 0
      vertex 18.8757 21.4026 2
      vertex 18.8144 21.4163 2
    endloop
  endfacet
  facet normal -0.21811 -0.975924 -0
    outer loop
      vertex 18.8757 21.4026 2
      vertex 18.8144 21.4163 0
      vertex 18.8757 21.4026 0
    endloop
  endfacet
  facet normal -0.031831 -0.999493 0
    outer loop
      vertex 18.627 21.434 0
      vertex 18.6898 21.432 2
      vertex 18.627 21.434 2
    endloop
  endfacet
  facet normal -0.031831 -0.999493 -0
    outer loop
      vertex 18.6898 21.432 2
      vertex 18.627 21.434 0
      vertex 18.6898 21.432 0
    endloop
  endfacet
  facet normal -0.453568 -0.891222 0
    outer loop
      vertex 19.0528 21.3388 0
      vertex 19.1088 21.3103 2
      vertex 19.0528 21.3388 2
    endloop
  endfacet
  facet normal -0.453568 -0.891222 -0
    outer loop
      vertex 19.1088 21.3103 2
      vertex 19.0528 21.3388 0
      vertex 19.1088 21.3103 0
    endloop
  endfacet
  facet normal -0.509802 -0.860292 0
    outer loop
      vertex 19.1088 21.3103 0
      vertex 19.1628 21.2783 2
      vertex 19.1088 21.3103 2
    endloop
  endfacet
  facet normal -0.509802 -0.860292 -0
    outer loop
      vertex 19.1628 21.2783 2
      vertex 19.1088 21.3103 0
      vertex 19.1628 21.2783 0
    endloop
  endfacet
  facet normal -0.561657 -0.82737 0
    outer loop
      vertex 19.1628 21.2783 0
      vertex 19.2148 21.243 2
      vertex 19.1628 21.2783 2
    endloop
  endfacet
  facet normal -0.561657 -0.82737 -0
    outer loop
      vertex 19.2148 21.243 2
      vertex 19.1628 21.2783 0
      vertex 19.2148 21.243 0
    endloop
  endfacet
  facet normal 0.917575 -0.397563 0
    outer loop
      vertex 17.6972 20.8021 2
      vertex 17.7222 20.8598 0
      vertex 17.7222 20.8598 2
    endloop
  endfacet
  facet normal 0.917575 -0.397563 0
    outer loop
      vertex 17.7222 20.8598 0
      vertex 17.6972 20.8021 2
      vertex 17.6972 20.8021 0
    endloop
  endfacet
  facet normal 0.891222 -0.453568 0
    outer loop
      vertex 17.7222 20.8598 2
      vertex 17.7507 20.9158 0
      vertex 17.7507 20.9158 2
    endloop
  endfacet
  facet normal 0.891222 -0.453568 0
    outer loop
      vertex 17.7507 20.9158 0
      vertex 17.7222 20.8598 2
      vertex 17.7222 20.8598 0
    endloop
  endfacet
  facet normal 0.940766 -0.339058 0
    outer loop
      vertex 17.6759 20.743 2
      vertex 17.6972 20.8021 0
      vertex 17.6972 20.8021 2
    endloop
  endfacet
  facet normal 0.940766 -0.339058 0
    outer loop
      vertex 17.6972 20.8021 0
      vertex 17.6759 20.743 2
      vertex 17.6759 20.743 0
    endloop
  endfacet
  facet normal 0.960374 -0.278715 0
    outer loop
      vertex 17.6584 20.6827 2
      vertex 17.6759 20.743 0
      vertex 17.6759 20.743 2
    endloop
  endfacet
  facet normal 0.960374 -0.278715 0
    outer loop
      vertex 17.6759 20.743 0
      vertex 17.6584 20.6827 2
      vertex 17.6584 20.6827 0
    endloop
  endfacet
  facet normal 0.995574 -0.0939822 0
    outer loop
      vertex 17.629 20.4968 2
      vertex 17.6349 20.5593 0
      vertex 17.6349 20.5593 2
    endloop
  endfacet
  facet normal 0.995574 -0.0939822 0
    outer loop
      vertex 17.6349 20.5593 0
      vertex 17.629 20.4968 2
      vertex 17.629 20.4968 0
    endloop
  endfacet
  facet normal 0 0 -1
    outer loop
      vertex 19.625 20.3712 2
      vertex 19.625 20.4968 2
      vertex 19.627 20.434 2
    endloop
  endfacet
  facet normal 0 0 -1
    outer loop
      vertex 19.6191 20.3087 2
      vertex 19.625 20.4968 2
      vertex 19.625 20.3712 2
    endloop
  endfacet
  facet normal 0 0 -1
    outer loop
      vertex 19.6191 20.3087 2
      vertex 19.6191 20.5593 2
      vertex 19.625 20.4968 2
    endloop
  endfacet
  facet normal 0 0 -1
    outer loop
      vertex 19.6093 20.2466 2
      vertex 19.6191 20.5593 2
      vertex 19.6191 20.3087 2
    endloop
  endfacet
  facet normal 0 0 -1
    outer loop
      vertex 19.6093 20.2466 2
      vertex 19.6093 20.6214 2
      vertex 19.6191 20.5593 2
    endloop
  endfacet
  facet normal 0 0 -1
    outer loop
      vertex 19.5956 20.1853 2
      vertex 19.6093 20.6214 2
      vertex 19.6093 20.2466 2
    endloop
  endfacet
  facet normal 0 0 -1
    outer loop
      vertex 19.5956 20.1853 2
      vertex 19.5956 20.6827 2
      vertex 19.6093 20.6214 2
    endloop
  endfacet
  facet normal 0 0 -1
    outer loop
      vertex 19.5781 20.125 2
      vertex 19.5956 20.6827 2
      vertex 19.5956 20.1853 2
    endloop
  endfacet
  facet normal 0 0 -1
    outer loop
      vertex 19.5781 20.125 2
      vertex 19.5781 20.743 2
      vertex 19.5956 20.6827 2
    endloop
  endfacet
  facet normal 0 0 -1
    outer loop
      vertex 19.5568 20.0659 2
      vertex 19.5781 20.743 2
      vertex 19.5781 20.125 2
    endloop
  endfacet
  facet normal 0 0 -1
    outer loop
      vertex 19.5568 20.0659 2
      vertex 19.5568 20.8021 2
      vertex 19.5781 20.743 2
    endloop
  endfacet
  facet normal 0 0 -1
    outer loop
      vertex 19.5318 20.0082 2
      vertex 19.5568 20.8021 2
      vertex 19.5568 20.0659 2
    endloop
  endfacet
  facet normal 0 0 -1
    outer loop
      vertex 19.5318 20.0082 2
      vertex 19.5318 20.8598 2
      vertex 19.5568 20.8021 2
    endloop
  endfacet
  facet normal 0 0 -1
    outer loop
      vertex 19.5033 19.9522 2
      vertex 19.5318 20.8598 2
      vertex 19.5318 20.0082 2
    endloop
  endfacet
  facet normal 0 0 -1
    outer loop
      vertex 19.5033 19.9522 2
      vertex 19.5033 20.9158 2
      vertex 19.5318 20.8598 2
    endloop
  endfacet
  facet normal 0 0 -1
    outer loop
      vertex 19.4713 19.8982 2
      vertex 19.5033 20.9158 2
      vertex 19.5033 19.9522 2
    endloop
  endfacet
  facet normal 0 0 -1
    outer loop
      vertex 19.4713 19.8982 2
      vertex 19.4713 20.9698 2
      vertex 19.5033 20.9158 2
    endloop
  endfacet
  facet normal 0 0 -1
    outer loop
      vertex 19.436 19.8462 2
      vertex 19.4713 20.9698 2
      vertex 19.4713 19.8982 2
    endloop
  endfacet
  facet normal 0 0 -1
    outer loop
      vertex 19.436 19.8462 2
      vertex 19.436 21.0218 2
      vertex 19.4713 20.9698 2
    endloop
  endfacet
  facet normal 0 0 -1
    outer loop
      vertex 19.3975 19.7966 2
      vertex 19.436 21.0218 2
      vertex 19.436 19.8462 2
    endloop
  endfacet
  facet normal 0 0 -1
    outer loop
      vertex 19.3975 19.7966 2
      vertex 19.3975 21.0714 2
      vertex 19.436 21.0218 2
    endloop
  endfacet
  facet normal 0 0 -1
    outer loop
      vertex 19.356 19.7495 2
      vertex 19.3975 21.0714 2
      vertex 19.3975 19.7966 2
    endloop
  endfacet
  facet normal 0 0 -1
    outer loop
      vertex 19.356 19.7495 2
      vertex 19.356 21.1185 2
      vertex 19.3975 21.0714 2
    endloop
  endfacet
  facet normal 0 0 -1
    outer loop
      vertex 19.3115 19.705 2
      vertex 19.356 21.1185 2
      vertex 19.356 19.7495 2
    endloop
  endfacet
  facet normal 0 0 -1
    outer loop
      vertex 19.3115 19.705 2
      vertex 19.3115 21.163 2
      vertex 19.356 21.1185 2
    endloop
  endfacet
  facet normal 0 0 -1
    outer loop
      vertex 19.2644 19.6635 2
      vertex 19.3115 21.163 2
      vertex 19.3115 19.705 2
    endloop
  endfacet
  facet normal 0 0 -1
    outer loop
      vertex 19.2644 19.6635 2
      vertex 19.2644 21.2045 2
      vertex 19.3115 21.163 2
    endloop
  endfacet
  facet normal 0 0 -1
    outer loop
      vertex 19.2148 19.625 2
      vertex 19.2644 21.2045 2
      vertex 19.2644 19.6635 2
    endloop
  endfacet
  facet normal 0 0 -1
    outer loop
      vertex 19.2148 19.625 2
      vertex 19.2148 21.243 2
      vertex 19.2644 21.2045 2
    endloop
  endfacet
  facet normal 0 0 -1
    outer loop
      vertex 19.1628 19.5897 2
      vertex 19.2148 21.243 2
      vertex 19.2148 19.625 2
    endloop
  endfacet
  facet normal 0 0 -1
    outer loop
      vertex 19.1628 19.5897 2
      vertex 19.1628 21.2783 2
      vertex 19.2148 21.243 2
    endloop
  endfacet
  facet normal 0 0 -1
    outer loop
      vertex 19.1088 19.5577 2
      vertex 19.1628 21.2783 2
      vertex 19.1628 19.5897 2
    endloop
  endfacet
  facet normal 0 0 -1
    outer loop
      vertex 19.1088 19.5577 2
      vertex 19.1088 21.3103 2
      vertex 19.1628 21.2783 2
    endloop
  endfacet
  facet normal 0 0 -1
    outer loop
      vertex 19.0528 19.5292 2
      vertex 19.1088 21.3103 2
      vertex 19.1088 19.5577 2
    endloop
  endfacet
  facet normal 0 0 -1
    outer loop
      vertex 19.0528 19.5292 2
      vertex 19.0528 21.3388 2
      vertex 19.1088 21.3103 2
    endloop
  endfacet
  facet normal 0 0 -1
    outer loop
      vertex 18.9951 19.5042 2
      vertex 19.0528 21.3388 2
      vertex 19.0528 19.5292 2
    endloop
  endfacet
  facet normal 0 0 -1
    outer loop
      vertex 18.9951 19.5042 2
      vertex 18.9951 21.3638 2
      vertex 19.0528 21.3388 2
    endloop
  endfacet
  facet normal 0 0 -1
    outer loop
      vertex 18.936 19.4829 2
      vertex 18.9951 21.3638 2
      vertex 18.9951 19.5042 2
    endloop
  endfacet
  facet normal 0 0 -1
    outer loop
      vertex 18.936 19.4829 2
      vertex 18.936 21.3851 2
      vertex 18.9951 21.3638 2
    endloop
  endfacet
  facet normal 0 0 -1
    outer loop
      vertex 18.8757 19.4654 2
      vertex 18.936 21.3851 2
      vertex 18.936 19.4829 2
    endloop
  endfacet
  facet normal 0 0 -1
    outer loop
      vertex 18.8757 19.4654 2
      vertex 18.8757 21.4026 2
      vertex 18.936 21.3851 2
    endloop
  endfacet
  facet normal 0 0 -1
    outer loop
      vertex 18.8144 19.4517 2
      vertex 18.8757 21.4026 2
      vertex 18.8757 19.4654 2
    endloop
  endfacet
  facet normal 0 0 -1
    outer loop
      vertex 18.8144 19.4517 2
      vertex 18.8144 21.4163 2
      vertex 18.8757 21.4026 2
    endloop
  endfacet
  facet normal 0 0 -1
    outer loop
      vertex 18.7523 19.4419 2
      vertex 18.8144 21.4163 2
      vertex 18.8144 19.4517 2
    endloop
  endfacet
  facet normal 0 0 -1
    outer loop
      vertex 18.7523 19.4419 2
      vertex 18.7523 21.4261 2
      vertex 18.8144 21.4163 2
    endloop
  endfacet
  facet normal 0 0 -1
    outer loop
      vertex 18.6898 19.436 2
      vertex 18.7523 21.4261 2
      vertex 18.7523 19.4419 2
    endloop
  endfacet
  facet normal 0 0 -1
    outer loop
      vertex 18.6898 19.436 2
      vertex 18.6898 21.432 2
      vertex 18.7523 21.4261 2
    endloop
  endfacet
  facet normal 0 0 -1
    outer loop
      vertex 18.627 19.434 2
      vertex 18.6898 21.432 2
      vertex 18.6898 19.436 2
    endloop
  endfacet
  facet normal 0 0 -1
    outer loop
      vertex 18.627 19.434 2
      vertex 18.627 21.434 2
      vertex 18.6898 21.432 2
    endloop
  endfacet
  facet normal 0 0 -1
    outer loop
      vertex 18.5642 19.436 2
      vertex 18.627 21.434 2
      vertex 18.627 19.434 2
    endloop
  endfacet
  facet normal 0 0 -1
    outer loop
      vertex 18.5642 19.436 2
      vertex 18.5642 21.432 2
      vertex 18.627 21.434 2
    endloop
  endfacet
  facet normal 0 0 -1
    outer loop
      vertex 18.5017 19.4419 2
      vertex 18.5642 21.432 2
      vertex 18.5642 19.436 2
    endloop
  endfacet
  facet normal 0 0 -1
    outer loop
      vertex 18.5017 19.4419 2
      vertex 18.5017 21.4261 2
      vertex 18.5642 21.432 2
    endloop
  endfacet
  facet normal 0 0 -1
    outer loop
      vertex 18.4396 19.4517 2
      vertex 18.5017 21.4261 2
      vertex 18.5017 19.4419 2
    endloop
  endfacet
  facet normal 0 0 -1
    outer loop
      vertex 18.4396 19.4517 2
      vertex 18.4396 21.4163 2
      vertex 18.5017 21.4261 2
    endloop
  endfacet
  facet normal 0 0 -1
    outer loop
      vertex 18.3783 19.4654 2
      vertex 18.4396 21.4163 2
      vertex 18.4396 19.4517 2
    endloop
  endfacet
  facet normal 0 0 -1
    outer loop
      vertex 18.3783 19.4654 2
      vertex 18.3783 21.4026 2
      vertex 18.4396 21.4163 2
    endloop
  endfacet
  facet normal 0 0 -1
    outer loop
      vertex 18.318 19.4829 2
      vertex 18.3783 21.4026 2
      vertex 18.3783 19.4654 2
    endloop
  endfacet
  facet normal 0 0 -1
    outer loop
      vertex 18.318 19.4829 2
      vertex 18.318 21.3851 2
      vertex 18.3783 21.4026 2
    endloop
  endfacet
  facet normal 0 0 -1
    outer loop
      vertex 18.2589 19.5042 2
      vertex 18.318 21.3851 2
      vertex 18.318 19.4829 2
    endloop
  endfacet
  facet normal 0 0 -1
    outer loop
      vertex 18.2589 19.5042 2
      vertex 18.2589 21.3638 2
      vertex 18.318 21.3851 2
    endloop
  endfacet
  facet normal 0 0 -1
    outer loop
      vertex 18.2012 19.5292 2
      vertex 18.2589 21.3638 2
      vertex 18.2589 19.5042 2
    endloop
  endfacet
  facet normal 0 0 -1
    outer loop
      vertex 18.2012 19.5292 2
      vertex 18.2012 21.3388 2
      vertex 18.2589 21.3638 2
    endloop
  endfacet
  facet normal 0 0 -1
    outer loop
      vertex 18.1452 19.5577 2
      vertex 18.2012 21.3388 2
      vertex 18.2012 19.5292 2
    endloop
  endfacet
  facet normal 0 0 -1
    outer loop
      vertex 18.1452 19.5577 2
      vertex 18.1452 21.3103 2
      vertex 18.2012 21.3388 2
    endloop
  endfacet
  facet normal 0 0 -1
    outer loop
      vertex 18.0912 19.5897 2
      vertex 18.1452 21.3103 2
      vertex 18.1452 19.5577 2
    endloop
  endfacet
  facet normal 0 0 -1
    outer loop
      vertex 18.0912 19.5897 2
      vertex 18.0912 21.2783 2
      vertex 18.1452 21.3103 2
    endloop
  endfacet
  facet normal 0 0 -1
    outer loop
      vertex 18.0392 19.625 2
      vertex 18.0912 21.2783 2
      vertex 18.0912 19.5897 2
    endloop
  endfacet
  facet normal 0 0 -1
    outer loop
      vertex 18.0392 19.625 2
      vertex 18.0392 21.243 2
      vertex 18.0912 21.2783 2
    endloop
  endfacet
  facet normal 0 0 -1
    outer loop
      vertex 17.9896 19.6635 2
      vertex 18.0392 21.243 2
      vertex 18.0392 19.625 2
    endloop
  endfacet
  facet normal 0 0 -1
    outer loop
      vertex 17.9896 19.6635 2
      vertex 17.9896 21.2045 2
      vertex 18.0392 21.243 2
    endloop
  endfacet
  facet normal 0 0 -1
    outer loop
      vertex 17.9425 19.705 2
      vertex 17.9896 21.2045 2
      vertex 17.9896 19.6635 2
    endloop
  endfacet
  facet normal 0 0 -1
    outer loop
      vertex 17.9425 19.705 2
      vertex 17.9425 21.163 2
      vertex 17.9896 21.2045 2
    endloop
  endfacet
  facet normal 0 0 -1
    outer loop
      vertex 17.898 19.7495 2
      vertex 17.9425 21.163 2
      vertex 17.9425 19.705 2
    endloop
  endfacet
  facet normal 0 0 -1
    outer loop
      vertex 17.898 19.7495 2
      vertex 17.898 21.1185 2
      vertex 17.9425 21.163 2
    endloop
  endfacet
  facet normal 0 0 -1
    outer loop
      vertex 17.8565 19.7966 2
      vertex 17.898 21.1185 2
      vertex 17.898 19.7495 2
    endloop
  endfacet
  facet normal 0 0 -1
    outer loop
      vertex 17.8565 19.7966 2
      vertex 17.8565 21.0714 2
      vertex 17.898 21.1185 2
    endloop
  endfacet
  facet normal 0 0 -1
    outer loop
      vertex 17.818 19.8462 2
      vertex 17.8565 21.0714 2
      vertex 17.8565 19.7966 2
    endloop
  endfacet
  facet normal 0 0 -1
    outer loop
      vertex 17.818 19.8462 2
      vertex 17.818 21.0218 2
      vertex 17.8565 21.0714 2
    endloop
  endfacet
  facet normal 0 0 -1
    outer loop
      vertex 17.7827 19.8982 2
      vertex 17.818 21.0218 2
      vertex 17.818 19.8462 2
    endloop
  endfacet
  facet normal 0 0 -1
    outer loop
      vertex 17.7827 19.8982 2
      vertex 17.7827 20.9698 2
      vertex 17.818 21.0218 2
    endloop
  endfacet
  facet normal 0 0 -1
    outer loop
      vertex 17.7507 19.9522 2
      vertex 17.7827 20.9698 2
      vertex 17.7827 19.8982 2
    endloop
  endfacet
  facet normal 0 0 -1
    outer loop
      vertex 17.7507 19.9522 2
      vertex 17.7507 20.9158 2
      vertex 17.7827 20.9698 2
    endloop
  endfacet
  facet normal 0 0 -1
    outer loop
      vertex 17.7222 20.0082 2
      vertex 17.7507 20.9158 2
      vertex 17.7507 19.9522 2
    endloop
  endfacet
  facet normal 0 0 -1
    outer loop
      vertex 17.7222 20.0082 2
      vertex 17.7222 20.8598 2
      vertex 17.7507 20.9158 2
    endloop
  endfacet
  facet normal 0 0 -1
    outer loop
      vertex 17.6972 20.0659 2
      vertex 17.7222 20.8598 2
      vertex 17.7222 20.0082 2
    endloop
  endfacet
  facet normal 0 0 -1
    outer loop
      vertex 17.6972 20.0659 2
      vertex 17.6972 20.8021 2
      vertex 17.7222 20.8598 2
    endloop
  endfacet
  facet normal 0 0 -1
    outer loop
      vertex 17.6759 20.125 2
      vertex 17.6972 20.8021 2
      vertex 17.6972 20.0659 2
    endloop
  endfacet
  facet normal 0 0 -1
    outer loop
      vertex 17.6759 20.125 2
      vertex 17.6759 20.743 2
      vertex 17.6972 20.8021 2
    endloop
  endfacet
  facet normal 0 0 -1
    outer loop
      vertex 17.6584 20.1853 2
      vertex 17.6759 20.743 2
      vertex 17.6759 20.125 2
    endloop
  endfacet
  facet normal 0 0 -1
    outer loop
      vertex 17.6584 20.1853 2
      vertex 17.6584 20.6827 2
      vertex 17.6759 20.743 2
    endloop
  endfacet
  facet normal 0 0 -1
    outer loop
      vertex 17.6447 20.2466 2
      vertex 17.6584 20.6827 2
      vertex 17.6584 20.1853 2
    endloop
  endfacet
  facet normal 0 0 -1
    outer loop
      vertex 17.6447 20.2466 2
      vertex 17.6447 20.6214 2
      vertex 17.6584 20.6827 2
    endloop
  endfacet
  facet normal 0 0 -1
    outer loop
      vertex 17.6349 20.3087 2
      vertex 17.6447 20.6214 2
      vertex 17.6447 20.2466 2
    endloop
  endfacet
  facet normal 0 0 -1
    outer loop
      vertex 17.6349 20.3087 2
      vertex 17.6349 20.5593 2
      vertex 17.6447 20.6214 2
    endloop
  endfacet
  facet normal 0 0 -1
    outer loop
      vertex 17.629 20.3712 2
      vertex 17.6349 20.5593 2
      vertex 17.6349 20.3087 2
    endloop
  endfacet
  facet normal 0 0 -1
    outer loop
      vertex 17.629 20.3712 2
      vertex 17.629 20.4968 2
      vertex 17.6349 20.5593 2
    endloop
  endfacet
  facet normal 0 -0 -1
    outer loop
      vertex 17.629 20.4968 2
      vertex 17.629 20.3712 2
      vertex 17.627 20.434 2
    endloop
  endfacet
  facet normal 0.613168 -0.789952 0
    outer loop
      vertex 17.9896 21.2045 0
      vertex 18.0392 21.243 2
      vertex 17.9896 21.2045 2
    endloop
  endfacet
  facet normal 0.613168 -0.789952 0
    outer loop
      vertex 18.0392 21.243 2
      vertex 17.9896 21.2045 0
      vertex 18.0392 21.243 0
    endloop
  endfacet
  facet normal 0.509802 -0.860292 0
    outer loop
      vertex 18.0912 21.2783 0
      vertex 18.1452 21.3103 2
      vertex 18.0912 21.2783 2
    endloop
  endfacet
  facet normal 0.509802 -0.860292 0
    outer loop
      vertex 18.1452 21.3103 2
      vertex 18.0912 21.2783 0
      vertex 18.1452 21.3103 0
    endloop
  endfacet
  facet normal 0.278715 -0.960374 0
    outer loop
      vertex 18.318 21.3851 0
      vertex 18.3783 21.4026 2
      vertex 18.318 21.3851 2
    endloop
  endfacet
  facet normal 0.278715 -0.960374 0
    outer loop
      vertex 18.3783 21.4026 2
      vertex 18.318 21.3851 0
      vertex 18.3783 21.4026 0
    endloop
  endfacet
  facet normal 0.339058 -0.940766 0
    outer loop
      vertex 18.2589 21.3638 0
      vertex 18.318 21.3851 2
      vertex 18.2589 21.3638 2
    endloop
  endfacet
  facet normal 0.339058 -0.940766 0
    outer loop
      vertex 18.318 21.3851 2
      vertex 18.2589 21.3638 0
      vertex 18.318 21.3851 0
    endloop
  endfacet
  facet normal 0.21811 -0.975924 0
    outer loop
      vertex 18.3783 21.4026 0
      vertex 18.4396 21.4163 2
      vertex 18.3783 21.4026 2
    endloop
  endfacet
  facet normal 0.21811 -0.975924 0
    outer loop
      vertex 18.4396 21.4163 2
      vertex 18.3783 21.4026 0
      vertex 18.4396 21.4163 0
    endloop
  endfacet
  facet normal -0.999493 0.031831 0
    outer loop
      vertex 19.625 20.3712 0
      vertex 19.627 20.434 2
      vertex 19.627 20.434 0
    endloop
  endfacet
  facet normal -0.999493 0.031831 0
    outer loop
      vertex 19.627 20.434 2
      vertex 19.625 20.3712 0
      vertex 19.625 20.3712 2
    endloop
  endfacet
  facet normal -0.031831 0.999493 0
    outer loop
      vertex 18.6898 19.436 0
      vertex 18.627 19.434 2
      vertex 18.6898 19.436 2
    endloop
  endfacet
  facet normal -0.031831 0.999493 0
    outer loop
      vertex 18.627 19.434 2
      vertex 18.6898 19.436 0
      vertex 18.627 19.434 0
    endloop
  endfacet
  facet normal -0.155881 0.987776 0
    outer loop
      vertex 18.8144 19.4517 0
      vertex 18.7523 19.4419 2
      vertex 18.8144 19.4517 2
    endloop
  endfacet
  facet normal -0.155881 0.987776 0
    outer loop
      vertex 18.7523 19.4419 2
      vertex 18.8144 19.4517 0
      vertex 18.7523 19.4419 0
    endloop
  endfacet
  facet normal -0.278715 0.960374 0
    outer loop
      vertex 18.936 19.4829 0
      vertex 18.8757 19.4654 2
      vertex 18.936 19.4829 2
    endloop
  endfacet
  facet normal -0.278715 0.960374 0
    outer loop
      vertex 18.8757 19.4654 2
      vertex 18.936 19.4829 0
      vertex 18.8757 19.4654 0
    endloop
  endfacet
  facet normal -0.561657 0.82737 0
    outer loop
      vertex 19.2148 19.625 0
      vertex 19.1628 19.5897 2
      vertex 19.2148 19.625 2
    endloop
  endfacet
  facet normal -0.561657 0.82737 0
    outer loop
      vertex 19.1628 19.5897 2
      vertex 19.2148 19.625 0
      vertex 19.1628 19.5897 0
    endloop
  endfacet
  facet normal -0.509802 0.860292 0
    outer loop
      vertex 19.1628 19.5897 0
      vertex 19.1088 19.5577 2
      vertex 19.1628 19.5897 2
    endloop
  endfacet
  facet normal -0.509802 0.860292 0
    outer loop
      vertex 19.1088 19.5577 2
      vertex 19.1628 19.5897 0
      vertex 19.1088 19.5577 0
    endloop
  endfacet
  facet normal -0.397563 0.917575 0
    outer loop
      vertex 19.0528 19.5292 0
      vertex 18.9951 19.5042 2
      vertex 19.0528 19.5292 2
    endloop
  endfacet
  facet normal -0.397563 0.917575 0
    outer loop
      vertex 18.9951 19.5042 2
      vertex 19.0528 19.5292 0
      vertex 18.9951 19.5042 0
    endloop
  endfacet
  facet normal -0.789952 0.613168 0
    outer loop
      vertex 19.3975 19.7966 0
      vertex 19.436 19.8462 2
      vertex 19.436 19.8462 0
    endloop
  endfacet
  facet normal -0.789952 0.613168 0
    outer loop
      vertex 19.436 19.8462 2
      vertex 19.3975 19.7966 0
      vertex 19.3975 19.7966 2
    endloop
  endfacet
  facet normal -0.940766 0.339058 0
    outer loop
      vertex 19.5568 20.0659 0
      vertex 19.5781 20.125 2
      vertex 19.5781 20.125 0
    endloop
  endfacet
  facet normal -0.940766 0.339058 0
    outer loop
      vertex 19.5781 20.125 2
      vertex 19.5568 20.0659 0
      vertex 19.5568 20.0659 2
    endloop
  endfacet
  facet normal -0.917575 0.397563 0
    outer loop
      vertex 19.5318 20.0082 0
      vertex 19.5568 20.0659 2
      vertex 19.5568 20.0659 0
    endloop
  endfacet
  facet normal -0.917575 0.397563 0
    outer loop
      vertex 19.5568 20.0659 2
      vertex 19.5318 20.0082 0
      vertex 19.5318 20.0082 2
    endloop
  endfacet
  facet normal -0.975924 0.21811 0
    outer loop
      vertex 19.5956 20.1853 0
      vertex 19.6093 20.2466 2
      vertex 19.6093 20.2466 0
    endloop
  endfacet
  facet normal -0.975924 0.21811 0
    outer loop
      vertex 19.6093 20.2466 2
      vertex 19.5956 20.1853 0
      vertex 19.5956 20.1853 2
    endloop
  endfacet
  facet normal 0.613168 0.789952 -0
    outer loop
      vertex 18.0392 19.625 0
      vertex 17.9896 19.6635 2
      vertex 18.0392 19.625 2
    endloop
  endfacet
  facet normal 0.613168 0.789952 0
    outer loop
      vertex 17.9896 19.6635 2
      vertex 18.0392 19.625 0
      vertex 17.9896 19.6635 0
    endloop
  endfacet
  facet normal 0.453568 0.891222 -0
    outer loop
      vertex 18.2012 19.5292 0
      vertex 18.1452 19.5577 2
      vertex 18.2012 19.5292 2
    endloop
  endfacet
  facet normal 0.453568 0.891222 0
    outer loop
      vertex 18.1452 19.5577 2
      vertex 18.2012 19.5292 0
      vertex 18.1452 19.5577 0
    endloop
  endfacet
  facet normal 0.21811 0.975924 -0
    outer loop
      vertex 18.4396 19.4517 0
      vertex 18.3783 19.4654 2
      vertex 18.4396 19.4517 2
    endloop
  endfacet
  facet normal 0.21811 0.975924 0
    outer loop
      vertex 18.3783 19.4654 2
      vertex 18.4396 19.4517 0
      vertex 18.3783 19.4654 0
    endloop
  endfacet
  facet normal 0.0939822 0.995574 -0
    outer loop
      vertex 18.5642 19.436 0
      vertex 18.5017 19.4419 2
      vertex 18.5642 19.436 2
    endloop
  endfacet
  facet normal 0.0939822 0.995574 0
    outer loop
      vertex 18.5017 19.4419 2
      vertex 18.5642 19.436 0
      vertex 18.5017 19.4419 0
    endloop
  endfacet
  facet normal 0.82737 0.561657 0
    outer loop
      vertex 17.818 19.8462 2
      vertex 17.7827 19.8982 0
      vertex 17.7827 19.8982 2
    endloop
  endfacet
  facet normal 0.82737 0.561657 0
    outer loop
      vertex 17.7827 19.8982 0
      vertex 17.818 19.8462 2
      vertex 17.818 19.8462 0
    endloop
  endfacet
  facet normal 0.750303 0.661095 0
    outer loop
      vertex 17.898 19.7495 2
      vertex 17.8565 19.7966 0
      vertex 17.8565 19.7966 2
    endloop
  endfacet
  facet normal 0.750303 0.661095 0
    outer loop
      vertex 17.8565 19.7966 0
      vertex 17.898 19.7495 2
      vertex 17.898 19.7495 0
    endloop
  endfacet
  facet normal 0.860292 0.509802 0
    outer loop
      vertex 17.7827 19.8982 2
      vertex 17.7507 19.9522 0
      vertex 17.7507 19.9522 2
    endloop
  endfacet
  facet normal 0.860292 0.509802 0
    outer loop
      vertex 17.7507 19.9522 0
      vertex 17.7827 19.8982 2
      vertex 17.7827 19.8982 0
    endloop
  endfacet
  facet normal 0.940766 0.339058 0
    outer loop
      vertex 17.6972 20.0659 2
      vertex 17.6759 20.125 0
      vertex 17.6759 20.125 2
    endloop
  endfacet
  facet normal 0.940766 0.339058 0
    outer loop
      vertex 17.6759 20.125 0
      vertex 17.6972 20.0659 2
      vertex 17.6972 20.0659 0
    endloop
  endfacet
  facet normal 0.960374 0.278715 0
    outer loop
      vertex 17.6759 20.125 2
      vertex 17.6584 20.1853 0
      vertex 17.6584 20.1853 2
    endloop
  endfacet
  facet normal 0.960374 0.278715 0
    outer loop
      vertex 17.6584 20.1853 0
      vertex 17.6759 20.125 2
      vertex 17.6759 20.125 0
    endloop
  endfacet
  facet normal 0.987776 0.155881 0
    outer loop
      vertex 17.6447 20.2466 2
      vertex 17.6349 20.3087 0
      vertex 17.6349 20.3087 2
    endloop
  endfacet
  facet normal 0.987776 0.155881 0
    outer loop
      vertex 17.6349 20.3087 0
      vertex 17.6447 20.2466 2
      vertex 17.6447 20.2466 0
    endloop
  endfacet
  facet normal 0.999493 0.031831 0
    outer loop
      vertex 17.629 20.3712 2
      vertex 17.627 20.434 0
      vertex 17.627 20.434 2
    endloop
  endfacet
  facet normal 0.999493 0.031831 0
    outer loop
      vertex 17.627 20.434 0
      vertex 17.629 20.3712 2
      vertex 17.629 20.3712 0
    endloop
  endfacet
  facet normal 0.82737 -0.561657 0
    outer loop
      vertex 17.7827 20.9698 2
      vertex 17.818 21.0218 0
      vertex 17.818 21.0218 2
    endloop
  endfacet
  facet normal 0.82737 -0.561657 0
    outer loop
      vertex 17.818 21.0218 0
      vertex 17.7827 20.9698 2
      vertex 17.7827 20.9698 0
    endloop
  endfacet
  facet normal 0.789952 -0.613168 0
    outer loop
      vertex 17.818 21.0218 2
      vertex 17.8565 21.0714 0
      vertex 17.8565 21.0714 2
    endloop
  endfacet
  facet normal 0.789952 -0.613168 0
    outer loop
      vertex 17.8565 21.0714 0
      vertex 17.818 21.0218 2
      vertex 17.818 21.0218 0
    endloop
  endfacet
  facet normal 0.750303 -0.661095 0
    outer loop
      vertex 17.8565 21.0714 2
      vertex 17.898 21.1185 0
      vertex 17.898 21.1185 2
    endloop
  endfacet
  facet normal 0.750303 -0.661095 0
    outer loop
      vertex 17.898 21.1185 0
      vertex 17.8565 21.0714 2
      vertex 17.8565 21.0714 0
    endloop
  endfacet
  facet normal -0.0939822 0.995574 0
    outer loop
      vertex 18.7523 19.4419 0
      vertex 18.6898 19.436 2
      vertex 18.7523 19.4419 2
    endloop
  endfacet
  facet normal -0.0939822 0.995574 0
    outer loop
      vertex 18.6898 19.436 2
      vertex 18.7523 19.4419 0
      vertex 18.6898 19.436 0
    endloop
  endfacet
  facet normal -0.339058 0.940766 0
    outer loop
      vertex 18.9951 19.5042 0
      vertex 18.936 19.4829 2
      vertex 18.9951 19.5042 2
    endloop
  endfacet
  facet normal -0.339058 0.940766 0
    outer loop
      vertex 18.936 19.4829 2
      vertex 18.9951 19.5042 0
      vertex 18.936 19.4829 0
    endloop
  endfacet
  facet normal -0.707107 0.707107 0
    outer loop
      vertex 19.3115 19.705 0
      vertex 19.356 19.7495 2
      vertex 19.356 19.7495 0
    endloop
  endfacet
  facet normal -0.707107 0.707107 0
    outer loop
      vertex 19.356 19.7495 2
      vertex 19.3115 19.705 0
      vertex 19.3115 19.705 2
    endloop
  endfacet
  facet normal -0.613168 0.789952 0
    outer loop
      vertex 19.2644 19.6635 0
      vertex 19.2148 19.625 2
      vertex 19.2644 19.6635 2
    endloop
  endfacet
  facet normal -0.613168 0.789952 0
    outer loop
      vertex 19.2148 19.625 2
      vertex 19.2644 19.6635 0
      vertex 19.2148 19.625 0
    endloop
  endfacet
  facet normal -0.453568 0.891222 0
    outer loop
      vertex 19.1088 19.5577 0
      vertex 19.0528 19.5292 2
      vertex 19.1088 19.5577 2
    endloop
  endfacet
  facet normal -0.453568 0.891222 0
    outer loop
      vertex 19.0528 19.5292 2
      vertex 19.1088 19.5577 0
      vertex 19.0528 19.5292 0
    endloop
  endfacet
  facet normal -0.82737 0.561657 0
    outer loop
      vertex 19.436 19.8462 0
      vertex 19.4713 19.8982 2
      vertex 19.4713 19.8982 0
    endloop
  endfacet
  facet normal -0.82737 0.561657 0
    outer loop
      vertex 19.4713 19.8982 2
      vertex 19.436 19.8462 0
      vertex 19.436 19.8462 2
    endloop
  endfacet
  facet normal -0.891222 0.453568 0
    outer loop
      vertex 19.5033 19.9522 0
      vertex 19.5318 20.0082 2
      vertex 19.5318 20.0082 0
    endloop
  endfacet
  facet normal -0.891222 0.453568 0
    outer loop
      vertex 19.5318 20.0082 2
      vertex 19.5033 19.9522 0
      vertex 19.5033 19.9522 2
    endloop
  endfacet
  facet normal -0.987776 0.155881 0
    outer loop
      vertex 19.6093 20.2466 0
      vertex 19.6191 20.3087 2
      vertex 19.6191 20.3087 0
    endloop
  endfacet
  facet normal -0.987776 0.155881 0
    outer loop
      vertex 19.6191 20.3087 2
      vertex 19.6093 20.2466 0
      vertex 19.6093 20.2466 2
    endloop
  endfacet
  facet normal 0.561657 0.82737 -0
    outer loop
      vertex 18.0912 19.5897 0
      vertex 18.0392 19.625 2
      vertex 18.0912 19.5897 2
    endloop
  endfacet
  facet normal 0.561657 0.82737 0
    outer loop
      vertex 18.0392 19.625 2
      vertex 18.0912 19.5897 0
      vertex 18.0392 19.625 0
    endloop
  endfacet
  facet normal 0.397563 0.917575 -0
    outer loop
      vertex 18.2589 19.5042 0
      vertex 18.2012 19.5292 2
      vertex 18.2589 19.5042 2
    endloop
  endfacet
  facet normal 0.397563 0.917575 0
    outer loop
      vertex 18.2012 19.5292 2
      vertex 18.2589 19.5042 0
      vertex 18.2012 19.5292 0
    endloop
  endfacet
  facet normal 0.278715 0.960374 -0
    outer loop
      vertex 18.3783 19.4654 0
      vertex 18.318 19.4829 2
      vertex 18.3783 19.4654 2
    endloop
  endfacet
  facet normal 0.278715 0.960374 0
    outer loop
      vertex 18.318 19.4829 2
      vertex 18.3783 19.4654 0
      vertex 18.318 19.4829 0
    endloop
  endfacet
  facet normal 0.031831 0.999493 -0
    outer loop
      vertex 18.627 19.434 0
      vertex 18.5642 19.436 2
      vertex 18.627 19.434 2
    endloop
  endfacet
  facet normal 0.031831 0.999493 0
    outer loop
      vertex 18.5642 19.436 2
      vertex 18.627 19.434 0
      vertex 18.5642 19.436 0
    endloop
  endfacet
  facet normal 0.789952 0.613168 0
    outer loop
      vertex 17.8565 19.7966 2
      vertex 17.818 19.8462 0
      vertex 17.818 19.8462 2
    endloop
  endfacet
  facet normal 0.789952 0.613168 0
    outer loop
      vertex 17.818 19.8462 0
      vertex 17.8565 19.7966 2
      vertex 17.8565 19.7966 0
    endloop
  endfacet
  facet normal 0.707107 0.707107 0
    outer loop
      vertex 17.9425 19.705 2
      vertex 17.898 19.7495 0
      vertex 17.898 19.7495 2
    endloop
  endfacet
  facet normal 0.707107 0.707107 0
    outer loop
      vertex 17.898 19.7495 0
      vertex 17.9425 19.705 2
      vertex 17.9425 19.705 0
    endloop
  endfacet
  facet normal 0.891222 0.453568 0
    outer loop
      vertex 17.7507 19.9522 2
      vertex 17.7222 20.0082 0
      vertex 17.7222 20.0082 2
    endloop
  endfacet
  facet normal 0.891222 0.453568 0
    outer loop
      vertex 17.7222 20.0082 0
      vertex 17.7507 19.9522 2
      vertex 17.7507 19.9522 0
    endloop
  endfacet
  facet normal 0.995574 0.0939822 0
    outer loop
      vertex 17.6349 20.3087 2
      vertex 17.629 20.3712 0
      vertex 17.629 20.3712 2
    endloop
  endfacet
  facet normal 0.995574 0.0939822 0
    outer loop
      vertex 17.629 20.3712 0
      vertex 17.6349 20.3087 2
      vertex 17.6349 20.3087 0
    endloop
  endfacet
endsolid OpenSCAD_Model
