solid OpenSCAD_Model
  facet normal 0 0 -1
    outer loop
      vertex 29.9408 9.83954 0
      vertex 37.3418 7.79916 0
      vertex 35.822 5.56389 0
    endloop
  endfacet
  facet normal 0 0 -1
    outer loop
      vertex 29.9408 9.83954 0
      vertex 35.822 5.56389 0
      vertex 34.0394 3.68297 0
    endloop
  endfacet
  facet normal 0 0 -1
    outer loop
      vertex 27.7014 7.56779 0
      vertex 34.0394 3.68297 0
      vertex 31.994 2.15639 0
    endloop
  endfacet
  facet normal 0 0 -1
    outer loop
      vertex 37.3418 7.79916 0
      vertex 29.9408 9.83954 0
      vertex 31.6276 13.02 0
    endloop
  endfacet
  facet normal 0 0 -1
    outer loop
      vertex 37.3418 7.79916 0
      vertex 31.6276 13.02 0
      vertex 38.5988 10.3888 0
    endloop
  endfacet
  facet normal 0 0 -1
    outer loop
      vertex 27.7014 7.56779 0
      vertex 31.994 2.15639 0
      vertex 29.7095 0.975662 0
    endloop
  endfacet
  facet normal 0 0 -1
    outer loop
      vertex 34.0394 3.68297 0
      vertex 27.7014 7.56779 0
      vertex 29.9408 9.83954 0
    endloop
  endfacet
  facet normal 0 0 -1
    outer loop
      vertex 24.9092 6.20474 0
      vertex 29.7095 0.975662 0
      vertex 27.2098 0.132294 0
    endloop
  endfacet
  facet normal 0 0 -1
    outer loop
      vertex 29.7095 0.975662 0
      vertex 24.9092 6.20474 0
      vertex 27.7014 7.56779 0
    endloop
  endfacet
  facet normal 0 0 -1
    outer loop
      vertex 24.4947 -0.373718 0
      vertex 24.9092 6.20474 0
      vertex 27.2098 0.132294 0
    endloop
  endfacet
  facet normal 0 0 -1
    outer loop
      vertex 21.5644 5.7504 0
      vertex 24.4947 -0.373718 0
      vertex 21.5644 -0.542389 0
    endloop
  endfacet
  facet normal 0 0 -1
    outer loop
      vertex 24.4947 -0.373718 0
      vertex 21.5644 5.7504 0
      vertex 24.9092 6.20474 0
    endloop
  endfacet
  facet normal 0 0 -1
    outer loop
      vertex 21.5644 -0.542389 0
      vertex 18.9986 5.96739 0
      vertex 21.5644 5.7504 0
    endloop
  endfacet
  facet normal 0 0 -1
    outer loop
      vertex 17.2151 -0.216049 0
      vertex 18.9986 5.96739 0
      vertex 21.5644 -0.542389 0
    endloop
  endfacet
  facet normal 0 0 -1
    outer loop
      vertex 17.2151 -0.216049 0
      vertex 16.7532 6.61839 0
      vertex 18.9986 5.96739 0
    endloop
  endfacet
  facet normal 0 0 -1
    outer loop
      vertex 13.3896 0.762985 0
      vertex 16.7532 6.61839 0
      vertex 17.2151 -0.216049 0
    endloop
  endfacet
  facet normal -0 0 -1
    outer loop
      vertex 16.7532 6.61839 0
      vertex 13.3896 0.762985 0
      vertex 14.8282 7.7034 0
    endloop
  endfacet
  facet normal 0 0 -1
    outer loop
      vertex 10.0879 2.39474 0
      vertex 14.8282 7.7034 0
      vertex 13.3896 0.762985 0
    endloop
  endfacet
  facet normal -0 0 -1
    outer loop
      vertex 14.8282 7.7034 0
      vertex 10.0879 2.39474 0
      vertex 13.2236 9.2224 0
    endloop
  endfacet
  facet normal 0 0 -1
    outer loop
      vertex 7.31 4.6792 0
      vertex 13.2236 9.2224 0
      vertex 10.0879 2.39474 0
    endloop
  endfacet
  facet normal -0 0 -1
    outer loop
      vertex 13.2236 9.2224 0
      vertex 7.31 4.6792 0
      vertex 11.9597 11.1534 0
    endloop
  endfacet
  facet normal -0 0 -1
    outer loop
      vertex 11.9597 11.1534 0
      vertex 5.10867 7.55022 0
      vertex 11.057 13.4743 0
    endloop
  endfacet
  facet normal 0 0 -1
    outer loop
      vertex 5.10867 7.55022 0
      vertex 11.9597 11.1534 0
      vertex 7.31 4.6792 0
    endloop
  endfacet
  facet normal -0 0 -1
    outer loop
      vertex 32.17 36.0896 0
      vertex 27.5456 30.8004 0
      vertex 27.5837 36.3732 0
    endloop
  endfacet
  facet normal 0 0 -1
    outer loop
      vertex 27.5456 30.8004 0
      vertex 26.5837 35.3732 0
      vertex 27.5837 36.3732 0
    endloop
  endfacet
  facet normal 0 0 -1
    outer loop
      vertex 26.1783 31.542 0
      vertex 26.5837 35.3732 0
      vertex 27.5456 30.8004 0
    endloop
  endfacet
  facet normal 0 0 -1
    outer loop
      vertex 24.694 32.0718 0
      vertex 26.5837 35.3732 0
      vertex 26.1783 31.542 0
    endloop
  endfacet
  facet normal -0 0 -1
    outer loop
      vertex 26.5837 35.3732 0
      vertex 24.694 32.0718 0
      vertex 25.5837 36.3732 0
    endloop
  endfacet
  facet normal 0 0 -1
    outer loop
      vertex 31.058 26.23 0
      vertex 37.0985 30.6147 0
      vertex 38.1108 28.1556 0
    endloop
  endfacet
  facet normal -0 0 -1
    outer loop
      vertex 37.0985 30.6147 0
      vertex 30.5029 27.5938 0
      vertex 35.771 32.7567 0
    endloop
  endfacet
  facet normal 0 0 -1
    outer loop
      vertex 29.7325 28.8102 0
      vertex 35.771 32.7567 0
      vertex 30.5029 27.5938 0
    endloop
  endfacet
  facet normal 0 0 -1
    outer loop
      vertex 37.0985 30.6147 0
      vertex 31.058 26.23 0
      vertex 30.5029 27.5938 0
    endloop
  endfacet
  facet normal -0 0 -1
    outer loop
      vertex 35.771 32.7567 0
      vertex 29.7325 28.8102 0
      vertex 34.1281 34.5817 0
    endloop
  endfacet
  facet normal 0 0 -1
    outer loop
      vertex 28.7467 29.879 0
      vertex 34.1281 34.5817 0
      vertex 29.7325 28.8102 0
    endloop
  endfacet
  facet normal -0 0 -1
    outer loop
      vertex 34.1281 34.5817 0
      vertex 28.7467 29.879 0
      vertex 32.17 36.0896 0
    endloop
  endfacet
  facet normal 0 0 -1
    outer loop
      vertex 27.5456 30.8004 0
      vertex 32.17 36.0896 0
      vertex 28.7467 29.879 0
    endloop
  endfacet
  facet normal 0 0 -1
    outer loop
      vertex 32.17 36.0896 0
      vertex 27.5837 36.3732 0
      vertex 29.8984 37.2705 0
    endloop
  endfacet
  facet normal 0 0 -1
    outer loop
      vertex 27.5837 36.3732 0
      vertex 27.3148 38.114 0
      vertex 29.8984 37.2705 0
    endloop
  endfacet
  facet normal 0 0 -1
    outer loop
      vertex 26.5837 37.3732 0
      vertex 27.3148 38.114 0
      vertex 27.5837 36.3732 0
    endloop
  endfacet
  facet normal 0 0 -1
    outer loop
      vertex 24.4192 38.6201 0
      vertex 26.5837 37.3732 0
      vertex 25.5837 36.3732 0
    endloop
  endfacet
  facet normal 0 0 -1
    outer loop
      vertex 26.5837 37.3732 0
      vertex 24.4192 38.6201 0
      vertex 27.3148 38.114 0
    endloop
  endfacet
  facet normal 0 0 -1
    outer loop
      vertex 23.0927 32.3896 0
      vertex 25.5837 36.3732 0
      vertex 24.694 32.0718 0
    endloop
  endfacet
  facet normal 0 0 -1
    outer loop
      vertex 21.3744 32.4956 0
      vertex 25.5837 36.3732 0
      vertex 23.0927 32.3896 0
    endloop
  endfacet
  facet normal -0 0 -1
    outer loop
      vertex 25.5837 36.3732 0
      vertex 21.3744 32.4956 0
      vertex 21.2116 38.7888 0
    endloop
  endfacet
  facet normal 0 0 -1
    outer loop
      vertex 25.5837 36.3732 0
      vertex 21.2116 38.7888 0
      vertex 24.4192 38.6201 0
    endloop
  endfacet
  facet normal 0 0 -1
    outer loop
      vertex 18.8256 32.2854 0
      vertex 21.2116 38.7888 0
      vertex 21.3744 32.4956 0
    endloop
  endfacet
  facet normal 0 0 -1
    outer loop
      vertex 18.8256 32.2854 0
      vertex 16.8733 38.4735 0
      vertex 21.2116 38.7888 0
    endloop
  endfacet
  facet normal 0 0 -1
    outer loop
      vertex 16.6039 31.6547 0
      vertex 16.8733 38.4735 0
      vertex 18.8256 32.2854 0
    endloop
  endfacet
  facet normal 0 0 -1
    outer loop
      vertex 13.0809 37.5275 0
      vertex 16.6039 31.6547 0
      vertex 14.7094 30.6036 0
    endloop
  endfacet
  facet normal 0 0 -1
    outer loop
      vertex 9.83432 35.9509 0
      vertex 14.7094 30.6036 0
      vertex 13.142 29.132 0
    endloop
  endfacet
  facet normal 0 0 -1
    outer loop
      vertex 16.6039 31.6547 0
      vertex 13.0809 37.5275 0
      vertex 16.8733 38.4735 0
    endloop
  endfacet
  facet normal 0 0 -1
    outer loop
      vertex 7.13359 33.7436 0
      vertex 13.142 29.132 0
      vertex 11.9138 27.2554 0
    endloop
  endfacet
  facet normal 0 0 -1
    outer loop
      vertex 3.49219 27.6066 0
      vertex 11.9138 27.2554 0
      vertex 11.0366 24.9889 0
    endloop
  endfacet
  facet normal 0 0 -1
    outer loop
      vertex 2.58185 23.7192 0
      vertex 11.0366 24.9889 0
      vertex 10.5102 22.3324 0
    endloop
  endfacet
  facet normal 0 0 -1
    outer loop
      vertex 14.7094 30.6036 0
      vertex 9.83432 35.9509 0
      vertex 13.0809 37.5275 0
    endloop
  endfacet
  facet normal 0 0 -1
    outer loop
      vertex 2.2784 19.286 0
      vertex 10.5102 22.3324 0
      vertex 10.3348 19.286 0
    endloop
  endfacet
  facet normal 0 0 -1
    outer loop
      vertex 3.53629 10.9417 0
      vertex 11.057 13.4743 0
      vertex 5.10867 7.55022 0
    endloop
  endfacet
  facet normal 0 0 -1
    outer loop
      vertex 2.59286 14.8536 0
      vertex 11.057 13.4743 0
      vertex 3.53629 10.9417 0
    endloop
  endfacet
  facet normal -0 0 -1
    outer loop
      vertex 10.5102 22.3324 0
      vertex 2.2784 19.286 0
      vertex 2.58185 23.7192 0
    endloop
  endfacet
  facet normal 0 0 -1
    outer loop
      vertex 11.057 13.4743 0
      vertex 2.59286 14.8536 0
      vertex 10.5153 16.1852 0
    endloop
  endfacet
  facet normal -0 0 -1
    outer loop
      vertex 11.0366 24.9889 0
      vertex 2.58185 23.7192 0
      vertex 3.49219 27.6066 0
    endloop
  endfacet
  facet normal 0 0 -1
    outer loop
      vertex 2.2784 19.286 0
      vertex 10.5153 16.1852 0
      vertex 2.59286 14.8536 0
    endloop
  endfacet
  facet normal 0 0 -1
    outer loop
      vertex 11.9138 27.2554 0
      vertex 3.49219 27.6066 0
      vertex 5.00945 30.948 0
    endloop
  endfacet
  facet normal 0 0 -1
    outer loop
      vertex 10.5153 16.1852 0
      vertex 2.2784 19.286 0
      vertex 10.3348 19.286 0
    endloop
  endfacet
  facet normal 0 0 -1
    outer loop
      vertex 11.9138 27.2554 0
      vertex 5.00945 30.948 0
      vertex 7.13359 33.7436 0
    endloop
  endfacet
  facet normal 0 0 -1
    outer loop
      vertex 13.142 29.132 0
      vertex 7.13359 33.7436 0
      vertex 9.83432 35.9509 0
    endloop
  endfacet
  facet normal 0 0 1
    outer loop
      vertex 30.5029 27.5938 5
      vertex 37.0985 30.6147 5
      vertex 35.771 32.7567 5
    endloop
  endfacet
  facet normal 0 0 1
    outer loop
      vertex 29.7325 28.8102 5
      vertex 35.771 32.7567 5
      vertex 34.1281 34.5817 5
    endloop
  endfacet
  facet normal 0 0 1
    outer loop
      vertex 28.7467 29.879 5
      vertex 34.1281 34.5817 5
      vertex 32.17 36.0896 5
    endloop
  endfacet
  facet normal 0 0 1
    outer loop
      vertex 35.771 32.7567 5
      vertex 29.7325 28.8102 5
      vertex 30.5029 27.5938 5
    endloop
  endfacet
  facet normal 0 0 1
    outer loop
      vertex 37.0985 30.6147 5
      vertex 31.058 26.23 5
      vertex 38.1108 28.1556 5
    endloop
  endfacet
  facet normal 0 0 1
    outer loop
      vertex 27.5456 30.8004 5
      vertex 32.17 36.0896 5
      vertex 29.8984 37.2705 5
    endloop
  endfacet
  facet normal 0 -0 1
    outer loop
      vertex 31.058 26.23 5
      vertex 37.0985 30.6147 5
      vertex 30.5029 27.5938 5
    endloop
  endfacet
  facet normal 0 0 1
    outer loop
      vertex 34.1281 34.5817 5
      vertex 28.7467 29.879 5
      vertex 29.7325 28.8102 5
    endloop
  endfacet
  facet normal 0 0 1
    outer loop
      vertex 32.17 36.0896 5
      vertex 27.5456 30.8004 5
      vertex 28.7467 29.879 5
    endloop
  endfacet
  facet normal 0 0 1
    outer loop
      vertex 26.1783 31.542 5
      vertex 29.8984 37.2705 5
      vertex 27.3148 38.114 5
    endloop
  endfacet
  facet normal 0 0 1
    outer loop
      vertex 29.8984 37.2705 5
      vertex 26.1783 31.542 5
      vertex 27.5456 30.8004 5
    endloop
  endfacet
  facet normal 0 0 1
    outer loop
      vertex 27.3148 38.114 5
      vertex 24.694 32.0718 5
      vertex 26.1783 31.542 5
    endloop
  endfacet
  facet normal 0 0 1
    outer loop
      vertex 24.4192 38.6201 5
      vertex 24.694 32.0718 5
      vertex 27.3148 38.114 5
    endloop
  endfacet
  facet normal 0 0 1
    outer loop
      vertex 24.4192 38.6201 5
      vertex 23.0927 32.3896 5
      vertex 24.694 32.0718 5
    endloop
  endfacet
  facet normal 0 0 1
    outer loop
      vertex 21.2116 38.7888 5
      vertex 23.0927 32.3896 5
      vertex 24.4192 38.6201 5
    endloop
  endfacet
  facet normal 0 0 1
    outer loop
      vertex 23.0927 32.3896 5
      vertex 21.2116 38.7888 5
      vertex 21.3744 32.4956 5
    endloop
  endfacet
  facet normal 0 0 1
    outer loop
      vertex 21.2116 38.7888 5
      vertex 18.8256 32.2854 5
      vertex 21.3744 32.4956 5
    endloop
  endfacet
  facet normal -0 0 1
    outer loop
      vertex 16.8733 38.4735 5
      vertex 18.8256 32.2854 5
      vertex 21.2116 38.7888 5
    endloop
  endfacet
  facet normal 0 0 1
    outer loop
      vertex 16.8733 38.4735 5
      vertex 16.6039 31.6547 5
      vertex 18.8256 32.2854 5
    endloop
  endfacet
  facet normal -0 0 1
    outer loop
      vertex 13.0809 37.5275 5
      vertex 16.6039 31.6547 5
      vertex 16.8733 38.4735 5
    endloop
  endfacet
  facet normal 0 0 1
    outer loop
      vertex 16.6039 31.6547 5
      vertex 13.0809 37.5275 5
      vertex 14.7094 30.6036 5
    endloop
  endfacet
  facet normal -0 0 1
    outer loop
      vertex 9.83432 35.9509 5
      vertex 14.7094 30.6036 5
      vertex 13.0809 37.5275 5
    endloop
  endfacet
  facet normal 0 0 1
    outer loop
      vertex 14.7094 30.6036 5
      vertex 9.83432 35.9509 5
      vertex 13.142 29.132 5
    endloop
  endfacet
  facet normal -0 0 1
    outer loop
      vertex 7.13359 33.7436 5
      vertex 13.142 29.132 5
      vertex 9.83432 35.9509 5
    endloop
  endfacet
  facet normal 0 0 1
    outer loop
      vertex 13.142 29.132 5
      vertex 7.13359 33.7436 5
      vertex 11.9138 27.2554 5
    endloop
  endfacet
  facet normal -0 0 1
    outer loop
      vertex 5.00945 30.948 5
      vertex 11.9138 27.2554 5
      vertex 7.13359 33.7436 5
    endloop
  endfacet
  facet normal -0 0 1
    outer loop
      vertex 3.49219 27.6066 5
      vertex 11.9138 27.2554 5
      vertex 5.00945 30.948 5
    endloop
  endfacet
  facet normal 0 0 1
    outer loop
      vertex 11.9138 27.2554 5
      vertex 3.49219 27.6066 5
      vertex 11.0366 24.9889 5
    endloop
  endfacet
  facet normal 0 -0 1
    outer loop
      vertex 2.59286 14.8536 5
      vertex 10.3348 19.286 5
      vertex 2.2784 19.286 5
    endloop
  endfacet
  facet normal 0 0 1
    outer loop
      vertex 2.58185 23.7192 5
      vertex 11.0366 24.9889 5
      vertex 3.49219 27.6066 5
    endloop
  endfacet
  facet normal 0 -0 1
    outer loop
      vertex 3.53629 10.9417 5
      vertex 10.3348 19.286 5
      vertex 2.59286 14.8536 5
    endloop
  endfacet
  facet normal 0 0 1
    outer loop
      vertex 11.0366 24.9889 5
      vertex 2.58185 23.7192 5
      vertex 10.5102 22.3324 5
    endloop
  endfacet
  facet normal 0 -0 1
    outer loop
      vertex 5.10867 7.55022 5
      vertex 10.3348 19.286 5
      vertex 3.53629 10.9417 5
    endloop
  endfacet
  facet normal 0 0 1
    outer loop
      vertex 2.2784 19.286 5
      vertex 10.5102 22.3324 5
      vertex 2.58185 23.7192 5
    endloop
  endfacet
  facet normal 0 0 1
    outer loop
      vertex 10.3348 19.286 5
      vertex 7.31 4.6792 5
      vertex 10.0879 2.39474 5
    endloop
  endfacet
  facet normal 0 0 1
    outer loop
      vertex 10.5102 22.3324 5
      vertex 2.2784 19.286 5
      vertex 10.3348 19.286 5
    endloop
  endfacet
  facet normal 0 0 1
    outer loop
      vertex 10.3348 19.286 5
      vertex 5.10867 7.55022 5
      vertex 7.31 4.6792 5
    endloop
  endfacet
  facet normal 0 0 1
    outer loop
      vertex 31.6276 13.02 5
      vertex 37.3418 7.79916 5
      vertex 38.5988 10.3888 5
    endloop
  endfacet
  facet normal -0 0 1
    outer loop
      vertex 29.9408 9.83954 5
      vertex 37.3418 7.79916 5
      vertex 31.6276 13.02 5
    endloop
  endfacet
  facet normal 0 0 1
    outer loop
      vertex 35.822 5.56389 5
      vertex 29.9408 9.83954 5
      vertex 34.0394 3.68297 5
    endloop
  endfacet
  facet normal 0 0 1
    outer loop
      vertex 37.3418 7.79916 5
      vertex 29.9408 9.83954 5
      vertex 35.822 5.56389 5
    endloop
  endfacet
  facet normal -0 0 1
    outer loop
      vertex 27.7014 7.56779 5
      vertex 34.0394 3.68297 5
      vertex 29.9408 9.83954 5
    endloop
  endfacet
  facet normal 0 0 1
    outer loop
      vertex 34.0394 3.68297 5
      vertex 27.7014 7.56779 5
      vertex 31.994 2.15639 5
    endloop
  endfacet
  facet normal 0 0 1
    outer loop
      vertex 31.994 2.15639 5
      vertex 27.7014 7.56779 5
      vertex 29.7095 0.975662 5
    endloop
  endfacet
  facet normal -0 0 1
    outer loop
      vertex 24.9092 6.20474 5
      vertex 29.7095 0.975662 5
      vertex 27.7014 7.56779 5
    endloop
  endfacet
  facet normal 0 0 1
    outer loop
      vertex 29.7095 0.975662 5
      vertex 24.9092 6.20474 5
      vertex 27.2098 0.132294 5
    endloop
  endfacet
  facet normal 0 0 1
    outer loop
      vertex 24.9092 6.20474 5
      vertex 24.4947 -0.373718 5
      vertex 27.2098 0.132294 5
    endloop
  endfacet
  facet normal -0 0 1
    outer loop
      vertex 21.5644 5.7504 5
      vertex 24.4947 -0.373718 5
      vertex 24.9092 6.20474 5
    endloop
  endfacet
  facet normal 0 0 1
    outer loop
      vertex 21.5644 5.7504 5
      vertex 21.5644 -0.542389 5
      vertex 24.4947 -0.373718 5
    endloop
  endfacet
  facet normal 0 0 1
    outer loop
      vertex 18.9986 5.96739 5
      vertex 21.5644 -0.542389 5
      vertex 21.5644 5.7504 5
    endloop
  endfacet
  facet normal 0 0 1
    outer loop
      vertex 18.9986 5.96739 5
      vertex 17.2151 -0.216049 5
      vertex 21.5644 -0.542389 5
    endloop
  endfacet
  facet normal 0 0 1
    outer loop
      vertex 16.7532 6.61839 5
      vertex 17.2151 -0.216049 5
      vertex 18.9986 5.96739 5
    endloop
  endfacet
  facet normal 0 0 1
    outer loop
      vertex 13.3896 0.762985 5
      vertex 16.7532 6.61839 5
      vertex 14.8282 7.7034 5
    endloop
  endfacet
  facet normal 0 0 1
    outer loop
      vertex 16.7532 6.61839 5
      vertex 13.3896 0.762985 5
      vertex 17.2151 -0.216049 5
    endloop
  endfacet
  facet normal 0 0 1
    outer loop
      vertex 10.0879 2.39474 5
      vertex 14.8282 7.7034 5
      vertex 13.2236 9.2224 5
    endloop
  endfacet
  facet normal 0 0 1
    outer loop
      vertex 10.0879 2.39474 5
      vertex 13.2236 9.2224 5
      vertex 11.9597 11.1534 5
    endloop
  endfacet
  facet normal 0 0 1
    outer loop
      vertex 10.0879 2.39474 5
      vertex 11.9597 11.1534 5
      vertex 11.057 13.4743 5
    endloop
  endfacet
  facet normal 0 0 1
    outer loop
      vertex 10.0879 2.39474 5
      vertex 11.057 13.4743 5
      vertex 10.5153 16.1852 5
    endloop
  endfacet
  facet normal 0 0 1
    outer loop
      vertex 14.8282 7.7034 5
      vertex 10.0879 2.39474 5
      vertex 13.3896 0.762985 5
    endloop
  endfacet
  facet normal 0 0 1
    outer loop
      vertex 10.0879 2.39474 5
      vertex 10.5153 16.1852 5
      vertex 10.3348 19.286 5
    endloop
  endfacet
  facet normal 0.183215 -0.983073 0
    outer loop
      vertex 24.4947 -0.373718 0
      vertex 27.2098 0.132294 5
      vertex 24.4947 -0.373718 5
    endloop
  endfacet
  facet normal 0.183215 -0.983073 0
    outer loop
      vertex 27.2098 0.132294 5
      vertex 24.4947 -0.373718 0
      vertex 27.2098 0.132294 0
    endloop
  endfacet
  facet normal 0.319683 -0.947525 0
    outer loop
      vertex 27.2098 0.132294 0
      vertex 29.7095 0.975662 5
      vertex 27.2098 0.132294 5
    endloop
  endfacet
  facet normal 0.319683 -0.947525 0
    outer loop
      vertex 29.7095 0.975662 5
      vertex 27.2098 0.132294 0
      vertex 29.7095 0.975662 0
    endloop
  endfacet
  facet normal 0.459144 -0.888362 0
    outer loop
      vertex 29.7095 0.975662 0
      vertex 31.994 2.15639 5
      vertex 29.7095 0.975662 5
    endloop
  endfacet
  facet normal 0.459144 -0.888362 0
    outer loop
      vertex 31.994 2.15639 5
      vertex 29.7095 0.975662 0
      vertex 31.994 2.15639 0
    endloop
  endfacet
  facet normal 0.598125 -0.801403 0
    outer loop
      vertex 31.994 2.15639 0
      vertex 34.0394 3.68297 5
      vertex 31.994 2.15639 5
    endloop
  endfacet
  facet normal 0.598125 -0.801403 0
    outer loop
      vertex 34.0394 3.68297 5
      vertex 31.994 2.15639 0
      vertex 34.0394 3.68297 0
    endloop
  endfacet
  facet normal 0.725822 -0.687882 0
    outer loop
      vertex 34.0394 3.68297 5
      vertex 35.822 5.56389 0
      vertex 35.822 5.56389 5
    endloop
  endfacet
  facet normal 0.725822 -0.687882 0
    outer loop
      vertex 35.822 5.56389 0
      vertex 34.0394 3.68297 5
      vertex 34.0394 3.68297 0
    endloop
  endfacet
  facet normal 0.826958 -0.562264 0
    outer loop
      vertex 35.822 5.56389 5
      vertex 37.3418 7.79916 0
      vertex 37.3418 7.79916 5
    endloop
  endfacet
  facet normal 0.826958 -0.562264 0
    outer loop
      vertex 37.3418 7.79916 0
      vertex 35.822 5.56389 5
      vertex 35.822 5.56389 0
    endloop
  endfacet
  facet normal 0.899621 -0.436672 0
    outer loop
      vertex 37.3418 7.79916 5
      vertex 38.5988 10.3888 0
      vertex 38.5988 10.3888 5
    endloop
  endfacet
  facet normal 0.899621 -0.436672 0
    outer loop
      vertex 38.5988 10.3888 0
      vertex 37.3418 7.79916 5
      vertex 37.3418 7.79916 0
    endloop
  endfacet
  facet normal 0.353123 0.935577 -0
    outer loop
      vertex 38.5988 10.3888 0
      vertex 31.6276 13.02 5
      vertex 38.5988 10.3888 5
    endloop
  endfacet
  facet normal 0.353123 0.935577 0
    outer loop
      vertex 31.6276 13.02 5
      vertex 38.5988 10.3888 0
      vertex 31.6276 13.02 0
    endloop
  endfacet
  facet normal -0.88344 0.468544 0
    outer loop
      vertex 29.9408 9.83954 0
      vertex 31.6276 13.02 5
      vertex 31.6276 13.02 0
    endloop
  endfacet
  facet normal -0.88344 0.468544 0
    outer loop
      vertex 31.6276 13.02 5
      vertex 29.9408 9.83954 0
      vertex 29.9408 9.83954 5
    endloop
  endfacet
  facet normal -0.712159 0.702018 0
    outer loop
      vertex 27.7014 7.56779 0
      vertex 29.9408 9.83954 5
      vertex 29.9408 9.83954 0
    endloop
  endfacet
  facet normal -0.712159 0.702018 0
    outer loop
      vertex 29.9408 9.83954 5
      vertex 27.7014 7.56779 0
      vertex 27.7014 7.56779 5
    endloop
  endfacet
  facet normal -0.438684 0.898641 0
    outer loop
      vertex 27.7014 7.56779 0
      vertex 24.9092 6.20474 5
      vertex 27.7014 7.56779 5
    endloop
  endfacet
  facet normal -0.438684 0.898641 0
    outer loop
      vertex 24.9092 6.20474 5
      vertex 27.7014 7.56779 0
      vertex 24.9092 6.20474 0
    endloop
  endfacet
  facet normal -0.134599 0.9909 0
    outer loop
      vertex 24.9092 6.20474 0
      vertex 21.5644 5.7504 5
      vertex 24.9092 6.20474 5
    endloop
  endfacet
  facet normal -0.134599 0.9909 0
    outer loop
      vertex 21.5644 5.7504 5
      vertex 24.9092 6.20474 0
      vertex 21.5644 5.7504 0
    endloop
  endfacet
  facet normal 0.0842693 0.996443 -0
    outer loop
      vertex 21.5644 5.7504 0
      vertex 18.9986 5.96739 5
      vertex 21.5644 5.7504 5
    endloop
  endfacet
  facet normal 0.0842693 0.996443 0
    outer loop
      vertex 18.9986 5.96739 5
      vertex 21.5644 5.7504 0
      vertex 18.9986 5.96739 0
    endloop
  endfacet
  facet normal 0.278459 0.960448 -0
    outer loop
      vertex 18.9986 5.96739 0
      vertex 16.7532 6.61839 5
      vertex 18.9986 5.96739 5
    endloop
  endfacet
  facet normal 0.278459 0.960448 0
    outer loop
      vertex 16.7532 6.61839 5
      vertex 18.9986 5.96739 0
      vertex 16.7532 6.61839 0
    endloop
  endfacet
  facet normal 0.491016 0.87115 -0
    outer loop
      vertex 16.7532 6.61839 0
      vertex 14.8282 7.7034 5
      vertex 16.7532 6.61839 5
    endloop
  endfacet
  facet normal 0.491016 0.87115 0
    outer loop
      vertex 14.8282 7.7034 5
      vertex 16.7532 6.61839 0
      vertex 14.8282 7.7034 0
    endloop
  endfacet
  facet normal 0.687471 0.726212 -0
    outer loop
      vertex 14.8282 7.7034 0
      vertex 13.2236 9.2224 5
      vertex 14.8282 7.7034 5
    endloop
  endfacet
  facet normal 0.687471 0.726212 0
    outer loop
      vertex 13.2236 9.2224 5
      vertex 14.8282 7.7034 0
      vertex 13.2236 9.2224 0
    endloop
  endfacet
  facet normal 0.836707 0.547651 0
    outer loop
      vertex 13.2236 9.2224 5
      vertex 11.9597 11.1534 0
      vertex 11.9597 11.1534 5
    endloop
  endfacet
  facet normal 0.836707 0.547651 0
    outer loop
      vertex 11.9597 11.1534 0
      vertex 13.2236 9.2224 5
      vertex 13.2236 9.2224 0
    endloop
  endfacet
  facet normal 0.931987 0.362491 0
    outer loop
      vertex 11.9597 11.1534 5
      vertex 11.057 13.4743 0
      vertex 11.057 13.4743 5
    endloop
  endfacet
  facet normal 0.931987 0.362491 0
    outer loop
      vertex 11.057 13.4743 0
      vertex 11.9597 11.1534 5
      vertex 11.9597 11.1534 0
    endloop
  endfacet
  facet normal 0.980614 0.195949 0
    outer loop
      vertex 11.057 13.4743 5
      vertex 10.5153 16.1852 0
      vertex 10.5153 16.1852 5
    endloop
  endfacet
  facet normal 0.980614 0.195949 0
    outer loop
      vertex 10.5153 16.1852 0
      vertex 11.057 13.4743 5
      vertex 11.057 13.4743 0
    endloop
  endfacet
  facet normal 0.99831 0.0581124 0
    outer loop
      vertex 10.5153 16.1852 5
      vertex 10.3348 19.286 0
      vertex 10.3348 19.286 5
    endloop
  endfacet
  facet normal 0.99831 0.0581124 0
    outer loop
      vertex 10.3348 19.286 0
      vertex 10.5153 16.1852 5
      vertex 10.5153 16.1852 0
    endloop
  endfacet
  facet normal 0.998347 -0.057481 0
    outer loop
      vertex 10.3348 19.286 5
      vertex 10.5102 22.3324 0
      vertex 10.5102 22.3324 5
    endloop
  endfacet
  facet normal 0.998347 -0.057481 0
    outer loop
      vertex 10.5102 22.3324 0
      vertex 10.3348 19.286 5
      vertex 10.3348 19.286 0
    endloop
  endfacet
  facet normal 0.980927 -0.194376 0
    outer loop
      vertex 10.5102 22.3324 5
      vertex 11.0366 24.9889 0
      vertex 11.0366 24.9889 5
    endloop
  endfacet
  facet normal 0.980927 -0.194376 0
    outer loop
      vertex 11.0366 24.9889 0
      vertex 10.5102 22.3324 5
      vertex 10.5102 22.3324 0
    endloop
  endfacet
  facet normal 0.93259 -0.360939 0
    outer loop
      vertex 11.0366 24.9889 5
      vertex 11.9138 27.2554 0
      vertex 11.9138 27.2554 5
    endloop
  endfacet
  facet normal 0.93259 -0.360939 0
    outer loop
      vertex 11.9138 27.2554 0
      vertex 11.0366 24.9889 5
      vertex 11.0366 24.9889 0
    endloop
  endfacet
  facet normal 0.836726 -0.547622 0
    outer loop
      vertex 11.9138 27.2554 5
      vertex 13.142 29.132 0
      vertex 13.142 29.132 5
    endloop
  endfacet
  facet normal 0.836726 -0.547622 0
    outer loop
      vertex 13.142 29.132 0
      vertex 11.9138 27.2554 5
      vertex 11.9138 27.2554 0
    endloop
  endfacet
  facet normal 0.684476 -0.729035 0
    outer loop
      vertex 13.142 29.132 0
      vertex 14.7094 30.6036 5
      vertex 13.142 29.132 5
    endloop
  endfacet
  facet normal 0.684476 -0.729035 0
    outer loop
      vertex 14.7094 30.6036 5
      vertex 13.142 29.132 0
      vertex 14.7094 30.6036 0
    endloop
  endfacet
  facet normal 0.485149 -0.874431 0
    outer loop
      vertex 14.7094 30.6036 0
      vertex 16.6039 31.6547 5
      vertex 14.7094 30.6036 5
    endloop
  endfacet
  facet normal 0.485149 -0.874431 0
    outer loop
      vertex 16.6039 31.6547 5
      vertex 14.7094 30.6036 0
      vertex 16.6039 31.6547 0
    endloop
  endfacet
  facet normal 0.273091 -0.961988 0
    outer loop
      vertex 16.6039 31.6547 0
      vertex 18.8256 32.2854 5
      vertex 16.6039 31.6547 5
    endloop
  endfacet
  facet normal 0.273091 -0.961988 0
    outer loop
      vertex 18.8256 32.2854 5
      vertex 16.6039 31.6547 0
      vertex 18.8256 32.2854 0
    endloop
  endfacet
  facet normal 0.0821912 -0.996617 0
    outer loop
      vertex 18.8256 32.2854 0
      vertex 21.3744 32.4956 5
      vertex 18.8256 32.2854 5
    endloop
  endfacet
  facet normal 0.0821912 -0.996617 0
    outer loop
      vertex 21.3744 32.4956 5
      vertex 18.8256 32.2854 0
      vertex 21.3744 32.4956 0
    endloop
  endfacet
  facet normal -0.0615718 -0.998103 0
    outer loop
      vertex 21.3744 32.4956 0
      vertex 23.0927 32.3896 5
      vertex 21.3744 32.4956 5
    endloop
  endfacet
  facet normal -0.0615718 -0.998103 -0
    outer loop
      vertex 23.0927 32.3896 5
      vertex 21.3744 32.4956 0
      vertex 23.0927 32.3896 0
    endloop
  endfacet
  facet normal -0.194667 -0.980869 0
    outer loop
      vertex 23.0927 32.3896 0
      vertex 24.694 32.0718 5
      vertex 23.0927 32.3896 5
    endloop
  endfacet
  facet normal -0.194667 -0.980869 -0
    outer loop
      vertex 24.694 32.0718 5
      vertex 23.0927 32.3896 0
      vertex 24.694 32.0718 0
    endloop
  endfacet
  facet normal -0.336164 -0.941804 0
    outer loop
      vertex 24.694 32.0718 0
      vertex 26.1783 31.542 5
      vertex 24.694 32.0718 5
    endloop
  endfacet
  facet normal -0.336164 -0.941804 -0
    outer loop
      vertex 26.1783 31.542 5
      vertex 24.694 32.0718 0
      vertex 26.1783 31.542 0
    endloop
  endfacet
  facet normal -0.47677 -0.879028 0
    outer loop
      vertex 26.1783 31.542 0
      vertex 27.5456 30.8004 5
      vertex 26.1783 31.542 5
    endloop
  endfacet
  facet normal -0.47677 -0.879028 -0
    outer loop
      vertex 27.5456 30.8004 5
      vertex 26.1783 31.542 0
      vertex 27.5456 30.8004 0
    endloop
  endfacet
  facet normal -0.608663 -0.793429 0
    outer loop
      vertex 27.5456 30.8004 0
      vertex 28.7467 29.879 5
      vertex 27.5456 30.8004 5
    endloop
  endfacet
  facet normal -0.608663 -0.793429 -0
    outer loop
      vertex 28.7467 29.879 5
      vertex 27.5456 30.8004 0
      vertex 28.7467 29.879 0
    endloop
  endfacet
  facet normal -0.735072 -0.677989 0
    outer loop
      vertex 29.7325 28.8102 0
      vertex 28.7467 29.879 5
      vertex 28.7467 29.879 0
    endloop
  endfacet
  facet normal -0.735072 -0.677989 0
    outer loop
      vertex 28.7467 29.879 5
      vertex 29.7325 28.8102 0
      vertex 29.7325 28.8102 5
    endloop
  endfacet
  facet normal -0.844815 -0.535059 0
    outer loop
      vertex 30.5029 27.5938 0
      vertex 29.7325 28.8102 5
      vertex 29.7325 28.8102 0
    endloop
  endfacet
  facet normal -0.844815 -0.535059 0
    outer loop
      vertex 29.7325 28.8102 5
      vertex 30.5029 27.5938 0
      vertex 30.5029 27.5938 5
    endloop
  endfacet
  facet normal -0.926216 -0.376993 0
    outer loop
      vertex 31.058 26.23 0
      vertex 30.5029 27.5938 5
      vertex 30.5029 27.5938 0
    endloop
  endfacet
  facet normal -0.926216 -0.376993 0
    outer loop
      vertex 30.5029 27.5938 5
      vertex 31.058 26.23 0
      vertex 31.058 26.23 5
    endloop
  endfacet
  facet normal 0.263386 -0.964691 0
    outer loop
      vertex 31.058 26.23 0
      vertex 38.1108 28.1556 5
      vertex 31.058 26.23 5
    endloop
  endfacet
  facet normal 0.263386 -0.964691 0
    outer loop
      vertex 38.1108 28.1556 5
      vertex 31.058 26.23 0
      vertex 38.1108 28.1556 0
    endloop
  endfacet
  facet normal 0.924714 0.380663 0
    outer loop
      vertex 38.1108 28.1556 5
      vertex 37.0985 30.6147 0
      vertex 37.0985 30.6147 5
    endloop
  endfacet
  facet normal 0.924714 0.380663 0
    outer loop
      vertex 37.0985 30.6147 0
      vertex 38.1108 28.1556 5
      vertex 38.1108 28.1556 0
    endloop
  endfacet
  facet normal 0.849999 0.526785 0
    outer loop
      vertex 37.0985 30.6147 5
      vertex 35.771 32.7567 0
      vertex 35.771 32.7567 5
    endloop
  endfacet
  facet normal 0.849999 0.526785 0
    outer loop
      vertex 35.771 32.7567 0
      vertex 37.0985 30.6147 5
      vertex 37.0985 30.6147 0
    endloop
  endfacet
  facet normal 0.743213 0.669055 0
    outer loop
      vertex 35.771 32.7567 5
      vertex 34.1281 34.5817 0
      vertex 34.1281 34.5817 5
    endloop
  endfacet
  facet normal 0.743213 0.669055 0
    outer loop
      vertex 34.1281 34.5817 0
      vertex 35.771 32.7567 5
      vertex 35.771 32.7567 0
    endloop
  endfacet
  facet normal 0.610135 0.792297 -0
    outer loop
      vertex 34.1281 34.5817 0
      vertex 32.17 36.0896 5
      vertex 34.1281 34.5817 5
    endloop
  endfacet
  facet normal 0.610135 0.792297 0
    outer loop
      vertex 32.17 36.0896 5
      vertex 34.1281 34.5817 0
      vertex 32.17 36.0896 0
    endloop
  endfacet
  facet normal 0.461251 0.88727 -0
    outer loop
      vertex 32.17 36.0896 0
      vertex 29.8984 37.2705 5
      vertex 32.17 36.0896 5
    endloop
  endfacet
  facet normal 0.461251 0.88727 0
    outer loop
      vertex 29.8984 37.2705 5
      vertex 32.17 36.0896 0
      vertex 29.8984 37.2705 0
    endloop
  endfacet
  facet normal 0.31036 0.950619 -0
    outer loop
      vertex 29.8984 37.2705 0
      vertex 27.3148 38.114 5
      vertex 29.8984 37.2705 5
    endloop
  endfacet
  facet normal 0.31036 0.950619 0
    outer loop
      vertex 27.3148 38.114 5
      vertex 29.8984 37.2705 0
      vertex 27.3148 38.114 0
    endloop
  endfacet
  facet normal 0.172172 0.985067 -0
    outer loop
      vertex 27.3148 38.114 0
      vertex 24.4192 38.6201 5
      vertex 27.3148 38.114 5
    endloop
  endfacet
  facet normal 0.172172 0.985067 0
    outer loop
      vertex 24.4192 38.6201 5
      vertex 27.3148 38.114 0
      vertex 24.4192 38.6201 0
    endloop
  endfacet
  facet normal 0.0525212 0.99862 -0
    outer loop
      vertex 24.4192 38.6201 0
      vertex 21.2116 38.7888 5
      vertex 24.4192 38.6201 5
    endloop
  endfacet
  facet normal 0.0525212 0.99862 0
    outer loop
      vertex 21.2116 38.7888 5
      vertex 24.4192 38.6201 0
      vertex 21.2116 38.7888 0
    endloop
  endfacet
  facet normal -0.072487 0.997369 0
    outer loop
      vertex 21.2116 38.7888 0
      vertex 16.8733 38.4735 5
      vertex 21.2116 38.7888 5
    endloop
  endfacet
  facet normal -0.072487 0.997369 0
    outer loop
      vertex 16.8733 38.4735 5
      vertex 21.2116 38.7888 0
      vertex 16.8733 38.4735 0
    endloop
  endfacet
  facet normal -0.24203 0.970269 0
    outer loop
      vertex 16.8733 38.4735 0
      vertex 13.0809 37.5275 5
      vertex 16.8733 38.4735 5
    endloop
  endfacet
  facet normal -0.24203 0.970269 0
    outer loop
      vertex 13.0809 37.5275 5
      vertex 16.8733 38.4735 0
      vertex 13.0809 37.5275 0
    endloop
  endfacet
  facet normal -0.436834 0.899542 0
    outer loop
      vertex 13.0809 37.5275 0
      vertex 9.83432 35.9509 5
      vertex 13.0809 37.5275 5
    endloop
  endfacet
  facet normal -0.436834 0.899542 0
    outer loop
      vertex 9.83432 35.9509 5
      vertex 13.0809 37.5275 0
      vertex 9.83432 35.9509 0
    endloop
  endfacet
  facet normal -0.632828 0.774293 0
    outer loop
      vertex 9.83432 35.9509 0
      vertex 7.13359 33.7436 5
      vertex 9.83432 35.9509 5
    endloop
  endfacet
  facet normal -0.632828 0.774293 0
    outer loop
      vertex 7.13359 33.7436 5
      vertex 9.83432 35.9509 0
      vertex 7.13359 33.7436 0
    endloop
  endfacet
  facet normal -0.796233 0.60499 0
    outer loop
      vertex 5.00945 30.948 0
      vertex 7.13359 33.7436 5
      vertex 7.13359 33.7436 0
    endloop
  endfacet
  facet normal -0.796233 0.60499 0
    outer loop
      vertex 7.13359 33.7436 5
      vertex 5.00945 30.948 0
      vertex 5.00945 30.948 5
    endloop
  endfacet
  facet normal -0.910526 0.413451 0
    outer loop
      vertex 3.49219 27.6066 0
      vertex 5.00945 30.948 5
      vertex 5.00945 30.948 0
    endloop
  endfacet
  facet normal -0.910526 0.413451 0
    outer loop
      vertex 5.00945 30.948 5
      vertex 3.49219 27.6066 0
      vertex 3.49219 27.6066 5
    endloop
  endfacet
  facet normal -0.973659 0.228009 0
    outer loop
      vertex 2.58185 23.7192 0
      vertex 3.49219 27.6066 5
      vertex 3.49219 27.6066 0
    endloop
  endfacet
  facet normal -0.973659 0.228009 0
    outer loop
      vertex 3.49219 27.6066 5
      vertex 2.58185 23.7192 0
      vertex 2.58185 23.7192 5
    endloop
  endfacet
  facet normal -0.997666 0.0682896 0
    outer loop
      vertex 2.2784 19.286 0
      vertex 2.58185 23.7192 5
      vertex 2.58185 23.7192 0
    endloop
  endfacet
  facet normal -0.997666 0.0682896 0
    outer loop
      vertex 2.58185 23.7192 5
      vertex 2.2784 19.286 0
      vertex 2.2784 19.286 5
    endloop
  endfacet
  facet normal -0.997493 -0.0707679 0
    outer loop
      vertex 2.59286 14.8536 0
      vertex 2.2784 19.286 5
      vertex 2.2784 19.286 0
    endloop
  endfacet
  facet normal -0.997493 -0.0707679 0
    outer loop
      vertex 2.2784 19.286 5
      vertex 2.59286 14.8536 0
      vertex 2.59286 14.8536 5
    endloop
  endfacet
  facet normal -0.972129 -0.234448 0
    outer loop
      vertex 3.53629 10.9417 0
      vertex 2.59286 14.8536 5
      vertex 2.59286 14.8536 0
    endloop
  endfacet
  facet normal -0.972129 -0.234448 0
    outer loop
      vertex 2.59286 14.8536 5
      vertex 3.53629 10.9417 0
      vertex 3.53629 10.9417 5
    endloop
  endfacet
  facet normal -0.907237 -0.420619 0
    outer loop
      vertex 5.10867 7.55022 0
      vertex 3.53629 10.9417 5
      vertex 3.53629 10.9417 0
    endloop
  endfacet
  facet normal -0.907237 -0.420619 0
    outer loop
      vertex 3.53629 10.9417 5
      vertex 5.10867 7.55022 0
      vertex 5.10867 7.55022 5
    endloop
  endfacet
  facet normal -0.793578 -0.608469 0
    outer loop
      vertex 7.31 4.6792 0
      vertex 5.10867 7.55022 5
      vertex 5.10867 7.55022 0
    endloop
  endfacet
  facet normal -0.793578 -0.608469 0
    outer loop
      vertex 5.10867 7.55022 5
      vertex 7.31 4.6792 0
      vertex 7.31 4.6792 5
    endloop
  endfacet
  facet normal -0.635173 -0.77237 0
    outer loop
      vertex 7.31 4.6792 0
      vertex 10.0879 2.39474 5
      vertex 7.31 4.6792 5
    endloop
  endfacet
  facet normal -0.635173 -0.77237 -0
    outer loop
      vertex 10.0879 2.39474 5
      vertex 7.31 4.6792 0
      vertex 10.0879 2.39474 0
    endloop
  endfacet
  facet normal -0.443061 -0.896491 0
    outer loop
      vertex 10.0879 2.39474 0
      vertex 13.3896 0.762985 5
      vertex 10.0879 2.39474 5
    endloop
  endfacet
  facet normal -0.443061 -0.896491 -0
    outer loop
      vertex 13.3896 0.762985 5
      vertex 10.0879 2.39474 0
      vertex 13.3896 0.762985 0
    endloop
  endfacet
  facet normal -0.247933 -0.968777 0
    outer loop
      vertex 13.3896 0.762985 0
      vertex 17.2151 -0.216049 5
      vertex 13.3896 0.762985 5
    endloop
  endfacet
  facet normal -0.247933 -0.968777 -0
    outer loop
      vertex 17.2151 -0.216049 5
      vertex 13.3896 0.762985 0
      vertex 17.2151 -0.216049 0
    endloop
  endfacet
  facet normal -0.0748224 -0.997197 0
    outer loop
      vertex 17.2151 -0.216049 0
      vertex 21.5644 -0.542389 5
      vertex 17.2151 -0.216049 5
    endloop
  endfacet
  facet normal -0.0748224 -0.997197 -0
    outer loop
      vertex 21.5644 -0.542389 5
      vertex 17.2151 -0.216049 0
      vertex 21.5644 -0.542389 0
    endloop
  endfacet
  facet normal 0.0574659 -0.998347 0
    outer loop
      vertex 21.5644 -0.542389 0
      vertex 24.4947 -0.373718 5
      vertex 21.5644 -0.542389 5
    endloop
  endfacet
  facet normal 0.0574659 -0.998347 0
    outer loop
      vertex 24.4947 -0.373718 5
      vertex 21.5644 -0.542389 0
      vertex 24.4947 -0.373718 0
    endloop
  endfacet
  facet normal 0.707107 -0.707107 0
    outer loop
      vertex 25.5837 36.3732 2
      vertex 26.5837 37.3732 0
      vertex 26.5837 37.3732 2
    endloop
  endfacet
  facet normal 0.707107 -0.707107 0
    outer loop
      vertex 26.5837 37.3732 0
      vertex 25.5837 36.3732 2
      vertex 25.5837 36.3732 0
    endloop
  endfacet
  facet normal -0.707107 -0.707107 0
    outer loop
      vertex 27.5837 36.3732 0
      vertex 26.5837 37.3732 2
      vertex 26.5837 37.3732 0
    endloop
  endfacet
  facet normal -0.707107 -0.707107 0
    outer loop
      vertex 26.5837 37.3732 2
      vertex 27.5837 36.3732 0
      vertex 27.5837 36.3732 2
    endloop
  endfacet
  facet normal 0 0 -1
    outer loop
      vertex 26.5837 35.3732 2
      vertex 26.5837 37.3732 2
      vertex 27.5837 36.3732 2
    endloop
  endfacet
  facet normal 0 -0 -1
    outer loop
      vertex 26.5837 37.3732 2
      vertex 26.5837 35.3732 2
      vertex 25.5837 36.3732 2
    endloop
  endfacet
  facet normal 0.707107 0.707107 0
    outer loop
      vertex 26.5837 35.3732 2
      vertex 25.5837 36.3732 0
      vertex 25.5837 36.3732 2
    endloop
  endfacet
  facet normal 0.707107 0.707107 0
    outer loop
      vertex 25.5837 36.3732 0
      vertex 26.5837 35.3732 2
      vertex 26.5837 35.3732 0
    endloop
  endfacet
  facet normal -0.707107 0.707107 0
    outer loop
      vertex 26.5837 35.3732 0
      vertex 27.5837 36.3732 2
      vertex 27.5837 36.3732 0
    endloop
  endfacet
  facet normal -0.707107 0.707107 0
    outer loop
      vertex 27.5837 36.3732 2
      vertex 26.5837 35.3732 0
      vertex 26.5837 35.3732 2
    endloop
  endfacet
endsolid OpenSCAD_Model
