solid OpenSCAD_Model
  facet normal 0 0 -1
    outer loop
      vertex 25.172 28.0472 0
      vertex 32.1127 33.3299 0
      vertex 33.2012 28.4 0
    endloop
  endfacet
  facet normal 0 0 -1
    outer loop
      vertex 32.1127 33.3299 0
      vertex 25.172 28.0472 0
      vertex 24.3617 30.6817 0
    endloop
  endfacet
  facet normal -0 0 -1
    outer loop
      vertex 32.1127 33.3299 0
      vertex 24.3617 30.6817 0
      vertex 29.2272 37.1612 0
    endloop
  endfacet
  facet normal 0 0 -1
    outer loop
      vertex 22.9612 32.4548 0
      vertex 29.2272 37.1612 0
      vertex 24.3617 30.6817 0
    endloop
  endfacet
  facet normal -0 0 -1
    outer loop
      vertex 29.2272 37.1612 0
      vertex 22.9612 32.4548 0
      vertex 24.5176 39.6227 0
    endloop
  endfacet
  facet normal 0 0 -1
    outer loop
      vertex 20.8421 33.4619 0
      vertex 24.5176 39.6227 0
      vertex 22.9612 32.4548 0
    endloop
  endfacet
  facet normal 0 0 -1
    outer loop
      vertex 20.8421 33.4619 0
      vertex 17.9568 40.4432 0
      vertex 24.5176 39.6227 0
    endloop
  endfacet
  facet normal 0 0 -1
    outer loop
      vertex 17.8752 33.7976 0
      vertex 17.9568 40.4432 0
      vertex 20.8421 33.4619 0
    endloop
  endfacet
  facet normal 0 0 -1
    outer loop
      vertex 13.7084 40.0974 0
      vertex 17.8752 33.7976 0
      vertex 14.756 33.4382 0
    endloop
  endfacet
  facet normal 0 0 -1
    outer loop
      vertex 17.8752 33.7976 0
      vertex 13.7084 40.0974 0
      vertex 17.9568 40.4432 0
    endloop
  endfacet
  facet normal 0 0 -1
    outer loop
      vertex 10.1312 39.06 0
      vertex 14.756 33.4382 0
      vertex 12.396 32.36 0
    endloop
  endfacet
  facet normal 0 0 -1
    outer loop
      vertex 7.26939 37.3614 0
      vertex 12.396 32.36 0
      vertex 11.4399 31.2819 0
    endloop
  endfacet
  facet normal 0 0 -1
    outer loop
      vertex 14.756 33.4382 0
      vertex 10.1312 39.06 0
      vertex 13.7084 40.0974 0
    endloop
  endfacet
  facet normal 0 0 -1
    outer loop
      vertex 3.8754 32.2889 0
      vertex 11.4399 31.2819 0
      vertex 11.1212 29.8916 0
    endloop
  endfacet
  facet normal -0 0 -1
    outer loop
      vertex 12.3148 27.4776 0
      vertex 4.36029 24.9889 0
      vertex 11.4196 28.5829 0
    endloop
  endfacet
  facet normal 0 0 -1
    outer loop
      vertex 3.44479 29.3492 0
      vertex 11.4196 28.5829 0
      vertex 4.36029 24.9889 0
    endloop
  endfacet
  facet normal 0 0 -1
    outer loop
      vertex 12.396 32.36 0
      vertex 7.26939 37.3614 0
      vertex 10.1312 39.06 0
    endloop
  endfacet
  facet normal 0 0 -1
    outer loop
      vertex 11.4399 31.2819 0
      vertex 5.16719 35.032 0
      vertex 7.26939 37.3614 0
    endloop
  endfacet
  facet normal 0 0 -1
    outer loop
      vertex 11.4196 28.5829 0
      vertex 3.44479 29.3492 0
      vertex 11.1212 29.8916 0
    endloop
  endfacet
  facet normal 0 0 -1
    outer loop
      vertex 11.4399 31.2819 0
      vertex 3.8754 32.2889 0
      vertex 5.16719 35.032 0
    endloop
  endfacet
  facet normal -0 0 -1
    outer loop
      vertex 11.1212 29.8916 0
      vertex 3.44479 29.3492 0
      vertex 3.8754 32.2889 0
    endloop
  endfacet
  facet normal 0 0 -1
    outer loop
      vertex 20.2828 16.3564 0
      vertex 18.916 19.651 0
      vertex 19.916 20.651 0
    endloop
  endfacet
  facet normal 0 0 -1
    outer loop
      vertex 16.1664 17.4144 0
      vertex 18.916 19.651 0
      vertex 20.2828 16.3564 0
    endloop
  endfacet
  facet normal -0 0 -1
    outer loop
      vertex 18.916 19.651 0
      vertex 16.1664 17.4144 0
      vertex 17.916 20.651 0
    endloop
  endfacet
  facet normal 0 0 -1
    outer loop
      vertex 33.8657 8.27319 0
      vertex 25.8195 9.49699 0
      vertex 26.3112 11.5552 0
    endloop
  endfacet
  facet normal 0 0 -1
    outer loop
      vertex 30.1495 2.58029 0
      vertex 24.3444 7.7168 0
      vertex 25.8195 9.49699 0
    endloop
  endfacet
  facet normal 0 0 -1
    outer loop
      vertex 21.8999 6.48619 0
      vertex 27.0708 0.745987 0
      vertex 23.1716 -0.342392 0
    endloop
  endfacet
  facet normal 0 0 -1
    outer loop
      vertex 27.0708 0.745987 0
      vertex 21.8999 6.48619 0
      vertex 24.3444 7.7168 0
    endloop
  endfacet
  facet normal 0 0 -1
    outer loop
      vertex 23.1716 -0.342392 0
      vertex 18.4992 6.07599 0
      vertex 21.8999 6.48619 0
    endloop
  endfacet
  facet normal 0 0 -1
    outer loop
      vertex 18.418 -0.705185 0
      vertex 18.4992 6.07599 0
      vertex 23.1716 -0.342392 0
    endloop
  endfacet
  facet normal 0 0 -1
    outer loop
      vertex 18.418 -0.705185 0
      vertex 15.2136 6.53709 0
      vertex 18.4992 6.07599 0
    endloop
  endfacet
  facet normal 0 0 -1
    outer loop
      vertex 11.752 0.166199 0
      vertex 15.2136 6.53709 0
      vertex 18.418 -0.705185 0
    endloop
  endfacet
  facet normal -0 0 -1
    outer loop
      vertex 15.2136 6.53709 0
      vertex 11.752 0.166199 0
      vertex 12.6808 7.92039 0
    endloop
  endfacet
  facet normal 0 0 -1
    outer loop
      vertex 6.83559 2.7804 0
      vertex 12.6808 7.92039 0
      vertex 11.752 0.166199 0
    endloop
  endfacet
  facet normal -0 0 -1
    outer loop
      vertex 12.6808 7.92039 0
      vertex 6.83559 2.7804 0
      vertex 10.8872 10.2872 0
    endloop
  endfacet
  facet normal 0 0 -1
    outer loop
      vertex 3.6077 7.06279 0
      vertex 10.8872 10.2872 0
      vertex 6.83559 2.7804 0
    endloop
  endfacet
  facet normal -0 0 -1
    outer loop
      vertex 10.8872 10.2872 0
      vertex 3.6077 7.06279 0
      vertex 9.8192 13.698 0
    endloop
  endfacet
  facet normal 0 0 -1
    outer loop
      vertex 9.8192 13.698 0
      vertex 3.6077 7.06279 0
      vertex 2.00719 12.9388 0
    endloop
  endfacet
  facet normal 0 0 -1
    outer loop
      vertex 26.3112 11.5552 0
      vertex 34.3404 11.5824 0
      vertex 33.8657 8.27319 0
    endloop
  endfacet
  facet normal -0 0 -1
    outer loop
      vertex 34.3404 11.5824 0
      vertex 26.3112 11.5552 0
      vertex 33.9437 15.051 0
    endloop
  endfacet
  facet normal 0 0 -1
    outer loop
      vertex 25.8195 9.49699 0
      vertex 33.8657 8.27319 0
      vertex 32.4416 5.18079 0
    endloop
  endfacet
  facet normal 0 0 -1
    outer loop
      vertex 26.1044 12.8605 0
      vertex 33.9437 15.051 0
      vertex 26.3112 11.5552 0
    endloop
  endfacet
  facet normal 0 0 -1
    outer loop
      vertex 25.8195 9.49699 0
      vertex 32.4416 5.18079 0
      vertex 30.1495 2.58029 0
    endloop
  endfacet
  facet normal -0 0 -1
    outer loop
      vertex 33.9437 15.051 0
      vertex 26.1044 12.8605 0
      vertex 32.7536 17.916 0
    endloop
  endfacet
  facet normal 0 0 -1
    outer loop
      vertex 24.3444 7.7168 0
      vertex 30.1495 2.58029 0
      vertex 27.0708 0.745987 0
    endloop
  endfacet
  facet normal 0 0 -1
    outer loop
      vertex 25.484 13.9556 0
      vertex 32.7536 17.916 0
      vertex 26.1044 12.8605 0
    endloop
  endfacet
  facet normal -0 0 -1
    outer loop
      vertex 32.7536 17.916 0
      vertex 25.484 13.9556 0
      vertex 30.8616 20.208 0
    endloop
  endfacet
  facet normal 0 0 -1
    outer loop
      vertex 24.3482 14.8815 0
      vertex 30.8616 20.208 0
      vertex 25.484 13.9556 0
    endloop
  endfacet
  facet normal -0 0 -1
    outer loop
      vertex 30.8616 20.208 0
      vertex 24.3482 14.8815 0
      vertex 28.3592 21.9576 0
    endloop
  endfacet
  facet normal 0 0 -1
    outer loop
      vertex 22.5952 15.6784 0
      vertex 28.3592 21.9576 0
      vertex 24.3482 14.8815 0
    endloop
  endfacet
  facet normal -0 0 -1
    outer loop
      vertex 28.3592 21.9576 0
      vertex 22.5952 15.6784 0
      vertex 24.7887 23.4122 0
    endloop
  endfacet
  facet normal 0 0 -1
    outer loop
      vertex 19.916 20.651 0
      vertex 22.5952 15.6784 0
      vertex 20.2828 16.3564 0
    endloop
  endfacet
  facet normal 0 0 -1
    outer loop
      vertex 22.5952 15.6784 0
      vertex 19.916 20.651 0
      vertex 24.7887 23.4122 0
    endloop
  endfacet
  facet normal 0 0 -1
    outer loop
      vertex 19.916 20.651 0
      vertex 19.6924 24.8192 0
      vertex 24.7887 23.4122 0
    endloop
  endfacet
  facet normal 0 0 -1
    outer loop
      vertex 18.916 21.651 0
      vertex 19.6924 24.8192 0
      vertex 19.916 20.651 0
    endloop
  endfacet
  facet normal 0 0 -1
    outer loop
      vertex 14.9186 26.1756 0
      vertex 18.916 21.651 0
      vertex 17.916 20.651 0
    endloop
  endfacet
  facet normal 0 0 -1
    outer loop
      vertex 10.6737 19.1978 0
      vertex 17.916 20.651 0
      vertex 16.1664 17.4144 0
    endloop
  endfacet
  facet normal 0 0 -1
    outer loop
      vertex 18.916 21.651 0
      vertex 14.9186 26.1756 0
      vertex 19.6924 24.8192 0
    endloop
  endfacet
  facet normal -0 0 -1
    outer loop
      vertex 17.916 20.651 0
      vertex 10.6737 19.1978 0
      vertex 14.9186 26.1756 0
    endloop
  endfacet
  facet normal -0 0 -1
    outer loop
      vertex 14.9186 26.1756 0
      vertex 10.6737 19.1978 0
      vertex 12.3148 27.4776 0
    endloop
  endfacet
  facet normal 0 0 -1
    outer loop
      vertex 4.36029 24.9889 0
      vertex 12.3148 27.4776 0
      vertex 7.1068 21.3472 0
    endloop
  endfacet
  facet normal 0 0 -1
    outer loop
      vertex 7.1068 21.3472 0
      vertex 12.3148 27.4776 0
      vertex 10.6737 19.1978 0
    endloop
  endfacet
  facet normal 0 0 1
    outer loop
      vertex 24.3617 30.6817 5
      vertex 32.1127 33.3299 5
      vertex 29.2272 37.1612 5
    endloop
  endfacet
  facet normal 0 -0 1
    outer loop
      vertex 25.172 28.0472 5
      vertex 32.1127 33.3299 5
      vertex 24.3617 30.6817 5
    endloop
  endfacet
  facet normal 0 0 1
    outer loop
      vertex 22.9612 32.4548 5
      vertex 29.2272 37.1612 5
      vertex 24.5176 39.6227 5
    endloop
  endfacet
  facet normal 0 0 1
    outer loop
      vertex 32.1127 33.3299 5
      vertex 25.172 28.0472 5
      vertex 33.2012 28.4 5
    endloop
  endfacet
  facet normal 0 0 1
    outer loop
      vertex 29.2272 37.1612 5
      vertex 22.9612 32.4548 5
      vertex 24.3617 30.6817 5
    endloop
  endfacet
  facet normal 0 0 1
    outer loop
      vertex 24.5176 39.6227 5
      vertex 20.8421 33.4619 5
      vertex 22.9612 32.4548 5
    endloop
  endfacet
  facet normal 0 0 1
    outer loop
      vertex 17.9568 40.4432 5
      vertex 20.8421 33.4619 5
      vertex 24.5176 39.6227 5
    endloop
  endfacet
  facet normal 0 0 1
    outer loop
      vertex 17.9568 40.4432 5
      vertex 17.8752 33.7976 5
      vertex 20.8421 33.4619 5
    endloop
  endfacet
  facet normal -0 0 1
    outer loop
      vertex 13.7084 40.0974 5
      vertex 17.8752 33.7976 5
      vertex 17.9568 40.4432 5
    endloop
  endfacet
  facet normal 0 0 1
    outer loop
      vertex 17.8752 33.7976 5
      vertex 13.7084 40.0974 5
      vertex 14.756 33.4382 5
    endloop
  endfacet
  facet normal -0 0 1
    outer loop
      vertex 10.1312 39.06 5
      vertex 14.756 33.4382 5
      vertex 13.7084 40.0974 5
    endloop
  endfacet
  facet normal 0 0 1
    outer loop
      vertex 14.756 33.4382 5
      vertex 10.1312 39.06 5
      vertex 12.396 32.36 5
    endloop
  endfacet
  facet normal -0 0 1
    outer loop
      vertex 7.26939 37.3614 5
      vertex 12.396 32.36 5
      vertex 10.1312 39.06 5
    endloop
  endfacet
  facet normal 0 0 1
    outer loop
      vertex 12.396 32.36 5
      vertex 7.26939 37.3614 5
      vertex 11.4399 31.2819 5
    endloop
  endfacet
  facet normal -0 0 1
    outer loop
      vertex 5.16719 35.032 5
      vertex 11.4399 31.2819 5
      vertex 7.26939 37.3614 5
    endloop
  endfacet
  facet normal -0 0 1
    outer loop
      vertex 3.8754 32.2889 5
      vertex 11.4399 31.2819 5
      vertex 5.16719 35.032 5
    endloop
  endfacet
  facet normal 0 0 1
    outer loop
      vertex 11.1212 29.8916 5
      vertex 7.1068 21.3472 5
      vertex 10.6737 19.1978 5
    endloop
  endfacet
  facet normal 0 0 1
    outer loop
      vertex 11.4399 31.2819 5
      vertex 3.8754 32.2889 5
      vertex 11.1212 29.8916 5
    endloop
  endfacet
  facet normal 0 0 1
    outer loop
      vertex 11.1212 29.8916 5
      vertex 4.36029 24.9889 5
      vertex 7.1068 21.3472 5
    endloop
  endfacet
  facet normal 0 0 1
    outer loop
      vertex 3.44479 29.3492 5
      vertex 11.1212 29.8916 5
      vertex 3.8754 32.2889 5
    endloop
  endfacet
  facet normal 0 0 1
    outer loop
      vertex 11.1212 29.8916 5
      vertex 3.44479 29.3492 5
      vertex 4.36029 24.9889 5
    endloop
  endfacet
  facet normal 0 0 1
    outer loop
      vertex 26.3112 11.5552 5
      vertex 34.3404 11.5824 5
      vertex 33.9437 15.051 5
    endloop
  endfacet
  facet normal 0 0 1
    outer loop
      vertex 26.1044 12.8605 5
      vertex 33.9437 15.051 5
      vertex 32.7536 17.916 5
    endloop
  endfacet
  facet normal 0 0 1
    outer loop
      vertex 34.3404 11.5824 5
      vertex 26.3112 11.5552 5
      vertex 33.8657 8.27319 5
    endloop
  endfacet
  facet normal 0 0 1
    outer loop
      vertex 25.484 13.9556 5
      vertex 32.7536 17.916 5
      vertex 30.8616 20.208 5
    endloop
  endfacet
  facet normal -0 0 1
    outer loop
      vertex 25.8195 9.49699 5
      vertex 33.8657 8.27319 5
      vertex 26.3112 11.5552 5
    endloop
  endfacet
  facet normal 0 0 1
    outer loop
      vertex 24.3482 14.8815 5
      vertex 30.8616 20.208 5
      vertex 28.3592 21.9576 5
    endloop
  endfacet
  facet normal 0 0 1
    outer loop
      vertex 33.8657 8.27319 5
      vertex 25.8195 9.49699 5
      vertex 32.4416 5.18079 5
    endloop
  endfacet
  facet normal 0 0 1
    outer loop
      vertex 32.4416 5.18079 5
      vertex 25.8195 9.49699 5
      vertex 30.1495 2.58029 5
    endloop
  endfacet
  facet normal 0 0 1
    outer loop
      vertex 33.9437 15.051 5
      vertex 26.1044 12.8605 5
      vertex 26.3112 11.5552 5
    endloop
  endfacet
  facet normal 0 0 1
    outer loop
      vertex 32.7536 17.916 5
      vertex 25.484 13.9556 5
      vertex 26.1044 12.8605 5
    endloop
  endfacet
  facet normal 0 0 1
    outer loop
      vertex 22.5952 15.6784 5
      vertex 28.3592 21.9576 5
      vertex 24.7887 23.4122 5
    endloop
  endfacet
  facet normal 0 0 1
    outer loop
      vertex 30.8616 20.208 5
      vertex 24.3482 14.8815 5
      vertex 25.484 13.9556 5
    endloop
  endfacet
  facet normal 0 0 1
    outer loop
      vertex 28.3592 21.9576 5
      vertex 22.5952 15.6784 5
      vertex 24.3482 14.8815 5
    endloop
  endfacet
  facet normal 0 0 1
    outer loop
      vertex 24.7887 23.4122 5
      vertex 20.2828 16.3564 5
      vertex 22.5952 15.6784 5
    endloop
  endfacet
  facet normal 0 0 1
    outer loop
      vertex 19.6924 24.8192 5
      vertex 20.2828 16.3564 5
      vertex 24.7887 23.4122 5
    endloop
  endfacet
  facet normal 0 0 1
    outer loop
      vertex 19.6924 24.8192 5
      vertex 16.1664 17.4144 5
      vertex 20.2828 16.3564 5
    endloop
  endfacet
  facet normal 0 0 1
    outer loop
      vertex 14.9186 26.1756 5
      vertex 16.1664 17.4144 5
      vertex 19.6924 24.8192 5
    endloop
  endfacet
  facet normal 0 0 1
    outer loop
      vertex 10.6737 19.1978 5
      vertex 14.9186 26.1756 5
      vertex 12.3148 27.4776 5
    endloop
  endfacet
  facet normal 0 0 1
    outer loop
      vertex 10.6737 19.1978 5
      vertex 12.3148 27.4776 5
      vertex 11.4196 28.5829 5
    endloop
  endfacet
  facet normal 0 0 1
    outer loop
      vertex 14.9186 26.1756 5
      vertex 10.6737 19.1978 5
      vertex 16.1664 17.4144 5
    endloop
  endfacet
  facet normal 0 0 1
    outer loop
      vertex 10.6737 19.1978 5
      vertex 11.4196 28.5829 5
      vertex 11.1212 29.8916 5
    endloop
  endfacet
  facet normal -0 0 1
    outer loop
      vertex 24.3444 7.7168 5
      vertex 30.1495 2.58029 5
      vertex 25.8195 9.49699 5
    endloop
  endfacet
  facet normal 0 0 1
    outer loop
      vertex 30.1495 2.58029 5
      vertex 24.3444 7.7168 5
      vertex 27.0708 0.745987 5
    endloop
  endfacet
  facet normal -0 0 1
    outer loop
      vertex 21.8999 6.48619 5
      vertex 27.0708 0.745987 5
      vertex 24.3444 7.7168 5
    endloop
  endfacet
  facet normal 0 0 1
    outer loop
      vertex 27.0708 0.745987 5
      vertex 21.8999 6.48619 5
      vertex 23.1716 -0.342392 5
    endloop
  endfacet
  facet normal -0 0 1
    outer loop
      vertex 18.4992 6.07599 5
      vertex 23.1716 -0.342392 5
      vertex 21.8999 6.48619 5
    endloop
  endfacet
  facet normal 0 0 1
    outer loop
      vertex 18.4992 6.07599 5
      vertex 18.418 -0.705185 5
      vertex 23.1716 -0.342392 5
    endloop
  endfacet
  facet normal 0 0 1
    outer loop
      vertex 15.2136 6.53709 5
      vertex 18.418 -0.705185 5
      vertex 18.4992 6.07599 5
    endloop
  endfacet
  facet normal 0 0 1
    outer loop
      vertex 11.752 0.166199 5
      vertex 15.2136 6.53709 5
      vertex 12.6808 7.92039 5
    endloop
  endfacet
  facet normal 0 0 1
    outer loop
      vertex 15.2136 6.53709 5
      vertex 11.752 0.166199 5
      vertex 18.418 -0.705185 5
    endloop
  endfacet
  facet normal 0 0 1
    outer loop
      vertex 6.83559 2.7804 5
      vertex 12.6808 7.92039 5
      vertex 10.8872 10.2872 5
    endloop
  endfacet
  facet normal 0 0 1
    outer loop
      vertex 3.6077 7.06279 5
      vertex 10.8872 10.2872 5
      vertex 9.8192 13.698 5
    endloop
  endfacet
  facet normal 0 0 1
    outer loop
      vertex 12.6808 7.92039 5
      vertex 6.83559 2.7804 5
      vertex 11.752 0.166199 5
    endloop
  endfacet
  facet normal 0 0 1
    outer loop
      vertex 10.8872 10.2872 5
      vertex 3.6077 7.06279 5
      vertex 6.83559 2.7804 5
    endloop
  endfacet
  facet normal 0 -0 1
    outer loop
      vertex 3.6077 7.06279 5
      vertex 9.8192 13.698 5
      vertex 2.00719 12.9388 5
    endloop
  endfacet
  facet normal 0.268852 -0.963182 0
    outer loop
      vertex 23.1716 -0.342392 0
      vertex 27.0708 0.745987 5
      vertex 23.1716 -0.342392 5
    endloop
  endfacet
  facet normal 0.268852 -0.963182 0
    outer loop
      vertex 27.0708 0.745987 5
      vertex 23.1716 -0.342392 0
      vertex 27.0708 0.745987 0
    endloop
  endfacet
  facet normal 0.511843 -0.859079 0
    outer loop
      vertex 27.0708 0.745987 0
      vertex 30.1495 2.58029 5
      vertex 27.0708 0.745987 5
    endloop
  endfacet
  facet normal 0.511843 -0.859079 0
    outer loop
      vertex 30.1495 2.58029 5
      vertex 27.0708 0.745987 0
      vertex 30.1495 2.58029 0
    endloop
  endfacet
  facet normal 0.75019 -0.661223 0
    outer loop
      vertex 30.1495 2.58029 5
      vertex 32.4416 5.18079 0
      vertex 32.4416 5.18079 5
    endloop
  endfacet
  facet normal 0.75019 -0.661223 0
    outer loop
      vertex 32.4416 5.18079 0
      vertex 30.1495 2.58029 5
      vertex 30.1495 2.58029 0
    endloop
  endfacet
  facet normal 0.908312 -0.418292 0
    outer loop
      vertex 32.4416 5.18079 5
      vertex 33.8657 8.27319 0
      vertex 33.8657 8.27319 5
    endloop
  endfacet
  facet normal 0.908312 -0.418292 0
    outer loop
      vertex 33.8657 8.27319 0
      vertex 32.4416 5.18079 5
      vertex 32.4416 5.18079 0
    endloop
  endfacet
  facet normal 0.989867 -0.141995 0
    outer loop
      vertex 33.8657 8.27319 5
      vertex 34.3404 11.5824 0
      vertex 34.3404 11.5824 5
    endloop
  endfacet
  facet normal 0.989867 -0.141995 0
    outer loop
      vertex 34.3404 11.5824 0
      vertex 33.8657 8.27319 5
      vertex 33.8657 8.27319 0
    endloop
  endfacet
  facet normal 0.993523 0.113628 0
    outer loop
      vertex 34.3404 11.5824 5
      vertex 33.9437 15.051 0
      vertex 33.9437 15.051 5
    endloop
  endfacet
  facet normal 0.993523 0.113628 0
    outer loop
      vertex 33.9437 15.051 0
      vertex 34.3404 11.5824 5
      vertex 34.3404 11.5824 0
    endloop
  endfacet
  facet normal 0.923494 0.383613 0
    outer loop
      vertex 33.9437 15.051 5
      vertex 32.7536 17.916 0
      vertex 32.7536 17.916 5
    endloop
  endfacet
  facet normal 0.923494 0.383613 0
    outer loop
      vertex 32.7536 17.916 0
      vertex 33.9437 15.051 5
      vertex 33.9437 15.051 0
    endloop
  endfacet
  facet normal 0.771192 0.636603 0
    outer loop
      vertex 32.7536 17.916 5
      vertex 30.8616 20.208 0
      vertex 30.8616 20.208 5
    endloop
  endfacet
  facet normal 0.771192 0.636603 0
    outer loop
      vertex 30.8616 20.208 0
      vertex 32.7536 17.916 5
      vertex 32.7536 17.916 0
    endloop
  endfacet
  facet normal 0.573005 0.819552 -0
    outer loop
      vertex 30.8616 20.208 0
      vertex 28.3592 21.9576 5
      vertex 30.8616 20.208 5
    endloop
  endfacet
  facet normal 0.573005 0.819552 0
    outer loop
      vertex 28.3592 21.9576 5
      vertex 30.8616 20.208 0
      vertex 28.3592 21.9576 0
    endloop
  endfacet
  facet normal 0.377286 0.926097 -0
    outer loop
      vertex 28.3592 21.9576 0
      vertex 24.7887 23.4122 5
      vertex 28.3592 21.9576 5
    endloop
  endfacet
  facet normal 0.377286 0.926097 0
    outer loop
      vertex 24.7887 23.4122 5
      vertex 28.3592 21.9576 0
      vertex 24.7887 23.4122 0
    endloop
  endfacet
  facet normal 0.266127 0.963938 -0
    outer loop
      vertex 24.7887 23.4122 0
      vertex 19.6924 24.8192 5
      vertex 24.7887 23.4122 5
    endloop
  endfacet
  facet normal 0.266127 0.963938 0
    outer loop
      vertex 19.6924 24.8192 5
      vertex 24.7887 23.4122 0
      vertex 19.6924 24.8192 0
    endloop
  endfacet
  facet normal 0.273316 0.961924 -0
    outer loop
      vertex 19.6924 24.8192 0
      vertex 14.9186 26.1756 5
      vertex 19.6924 24.8192 5
    endloop
  endfacet
  facet normal 0.273316 0.961924 0
    outer loop
      vertex 14.9186 26.1756 5
      vertex 19.6924 24.8192 0
      vertex 14.9186 26.1756 0
    endloop
  endfacet
  facet normal 0.447241 0.894413 -0
    outer loop
      vertex 14.9186 26.1756 0
      vertex 12.3148 27.4776 5
      vertex 14.9186 26.1756 5
    endloop
  endfacet
  facet normal 0.447241 0.894413 0
    outer loop
      vertex 12.3148 27.4776 5
      vertex 14.9186 26.1756 0
      vertex 12.3148 27.4776 0
    endloop
  endfacet
  facet normal 0.777096 0.629382 0
    outer loop
      vertex 12.3148 27.4776 5
      vertex 11.4196 28.5829 0
      vertex 11.4196 28.5829 5
    endloop
  endfacet
  facet normal 0.777096 0.629382 0
    outer loop
      vertex 11.4196 28.5829 0
      vertex 12.3148 27.4776 5
      vertex 12.3148 27.4776 0
    endloop
  endfacet
  facet normal 0.974977 0.222307 0
    outer loop
      vertex 11.4196 28.5829 5
      vertex 11.1212 29.8916 0
      vertex 11.1212 29.8916 5
    endloop
  endfacet
  facet normal 0.974977 0.222307 0
    outer loop
      vertex 11.1212 29.8916 0
      vertex 11.4196 28.5829 5
      vertex 11.4196 28.5829 0
    endloop
  endfacet
  facet normal 0.974719 -0.223436 0
    outer loop
      vertex 11.1212 29.8916 5
      vertex 11.4399 31.2819 0
      vertex 11.4399 31.2819 5
    endloop
  endfacet
  facet normal 0.974719 -0.223436 0
    outer loop
      vertex 11.4399 31.2819 0
      vertex 11.1212 29.8916 5
      vertex 11.1212 29.8916 0
    endloop
  endfacet
  facet normal 0.748171 -0.663506 0
    outer loop
      vertex 11.4399 31.2819 5
      vertex 12.396 32.36 0
      vertex 12.396 32.36 5
    endloop
  endfacet
  facet normal 0.748171 -0.663506 0
    outer loop
      vertex 12.396 32.36 0
      vertex 11.4399 31.2819 5
      vertex 11.4399 31.2819 0
    endloop
  endfacet
  facet normal 0.41555 -0.90957 0
    outer loop
      vertex 12.396 32.36 0
      vertex 14.756 33.4382 5
      vertex 12.396 32.36 5
    endloop
  endfacet
  facet normal 0.41555 -0.90957 0
    outer loop
      vertex 14.756 33.4382 5
      vertex 12.396 32.36 0
      vertex 14.756 33.4382 0
    endloop
  endfacet
  facet normal 0.114465 -0.993427 0
    outer loop
      vertex 14.756 33.4382 0
      vertex 17.8752 33.7976 5
      vertex 14.756 33.4382 5
    endloop
  endfacet
  facet normal 0.114465 -0.993427 0
    outer loop
      vertex 17.8752 33.7976 5
      vertex 14.756 33.4382 0
      vertex 17.8752 33.7976 0
    endloop
  endfacet
  facet normal -0.112431 -0.99366 0
    outer loop
      vertex 17.8752 33.7976 0
      vertex 20.8421 33.4619 5
      vertex 17.8752 33.7976 5
    endloop
  endfacet
  facet normal -0.112431 -0.99366 -0
    outer loop
      vertex 20.8421 33.4619 5
      vertex 17.8752 33.7976 0
      vertex 20.8421 33.4619 0
    endloop
  endfacet
  facet normal -0.42924 -0.90319 0
    outer loop
      vertex 20.8421 33.4619 0
      vertex 22.9612 32.4548 5
      vertex 20.8421 33.4619 5
    endloop
  endfacet
  facet normal -0.42924 -0.90319 -0
    outer loop
      vertex 22.9612 32.4548 5
      vertex 20.8421 33.4619 0
      vertex 22.9612 32.4548 0
    endloop
  endfacet
  facet normal -0.784735 -0.619831 0
    outer loop
      vertex 24.3617 30.6817 0
      vertex 22.9612 32.4548 5
      vertex 22.9612 32.4548 0
    endloop
  endfacet
  facet normal -0.784735 -0.619831 0
    outer loop
      vertex 22.9612 32.4548 5
      vertex 24.3617 30.6817 0
      vertex 24.3617 30.6817 5
    endloop
  endfacet
  facet normal -0.955811 -0.293981 0
    outer loop
      vertex 25.172 28.0472 0
      vertex 24.3617 30.6817 5
      vertex 24.3617 30.6817 0
    endloop
  endfacet
  facet normal -0.955811 -0.293981 0
    outer loop
      vertex 24.3617 30.6817 5
      vertex 25.172 28.0472 0
      vertex 25.172 28.0472 5
    endloop
  endfacet
  facet normal 0.0438973 -0.999036 0
    outer loop
      vertex 25.172 28.0472 0
      vertex 33.2012 28.4 5
      vertex 25.172 28.0472 5
    endloop
  endfacet
  facet normal 0.0438973 -0.999036 0
    outer loop
      vertex 33.2012 28.4 5
      vertex 25.172 28.0472 0
      vertex 33.2012 28.4 0
    endloop
  endfacet
  facet normal 0.976481 0.215603 0
    outer loop
      vertex 33.2012 28.4 5
      vertex 32.1127 33.3299 0
      vertex 32.1127 33.3299 5
    endloop
  endfacet
  facet normal 0.976481 0.215603 0
    outer loop
      vertex 32.1127 33.3299 0
      vertex 33.2012 28.4 5
      vertex 33.2012 28.4 0
    endloop
  endfacet
  facet normal 0.798795 0.601603 0
    outer loop
      vertex 32.1127 33.3299 5
      vertex 29.2272 37.1612 0
      vertex 29.2272 37.1612 5
    endloop
  endfacet
  facet normal 0.798795 0.601603 0
    outer loop
      vertex 29.2272 37.1612 0
      vertex 32.1127 33.3299 5
      vertex 32.1127 33.3299 0
    endloop
  endfacet
  facet normal 0.463204 0.886251 -0
    outer loop
      vertex 29.2272 37.1612 0
      vertex 24.5176 39.6227 5
      vertex 29.2272 37.1612 5
    endloop
  endfacet
  facet normal 0.463204 0.886251 0
    outer loop
      vertex 24.5176 39.6227 5
      vertex 29.2272 37.1612 0
      vertex 24.5176 39.6227 0
    endloop
  endfacet
  facet normal 0.124094 0.99227 -0
    outer loop
      vertex 24.5176 39.6227 0
      vertex 17.9568 40.4432 5
      vertex 24.5176 39.6227 5
    endloop
  endfacet
  facet normal 0.124094 0.99227 0
    outer loop
      vertex 17.9568 40.4432 5
      vertex 24.5176 39.6227 0
      vertex 17.9568 40.4432 0
    endloop
  endfacet
  facet normal -0.0811271 0.996704 0
    outer loop
      vertex 17.9568 40.4432 0
      vertex 13.7084 40.0974 5
      vertex 17.9568 40.4432 5
    endloop
  endfacet
  facet normal -0.0811271 0.996704 0
    outer loop
      vertex 13.7084 40.0974 5
      vertex 17.9568 40.4432 0
      vertex 13.7084 40.0974 0
    endloop
  endfacet
  facet normal -0.278527 0.960428 0
    outer loop
      vertex 13.7084 40.0974 0
      vertex 10.1312 39.06 5
      vertex 13.7084 40.0974 5
    endloop
  endfacet
  facet normal -0.278527 0.960428 0
    outer loop
      vertex 10.1312 39.06 5
      vertex 13.7084 40.0974 0
      vertex 10.1312 39.06 0
    endloop
  endfacet
  facet normal -0.510406 0.859934 0
    outer loop
      vertex 10.1312 39.06 0
      vertex 7.26939 37.3614 5
      vertex 10.1312 39.06 5
    endloop
  endfacet
  facet normal -0.510406 0.859934 0
    outer loop
      vertex 7.26939 37.3614 5
      vertex 10.1312 39.06 0
      vertex 7.26939 37.3614 0
    endloop
  endfacet
  facet normal -0.742384 0.669975 0
    outer loop
      vertex 5.16719 35.032 0
      vertex 7.26939 37.3614 5
      vertex 7.26939 37.3614 0
    endloop
  endfacet
  facet normal -0.742384 0.669975 0
    outer loop
      vertex 7.26939 37.3614 5
      vertex 5.16719 35.032 0
      vertex 5.16719 35.032 5
    endloop
  endfacet
  facet normal -0.904702 0.426045 0
    outer loop
      vertex 3.8754 32.2889 0
      vertex 5.16719 35.032 5
      vertex 5.16719 35.032 0
    endloop
  endfacet
  facet normal -0.904702 0.426045 0
    outer loop
      vertex 5.16719 35.032 5
      vertex 3.8754 32.2889 0
      vertex 3.8754 32.2889 5
    endloop
  endfacet
  facet normal -0.989441 0.144934 0
    outer loop
      vertex 3.44479 29.3492 0
      vertex 3.8754 32.2889 5
      vertex 3.8754 32.2889 0
    endloop
  endfacet
  facet normal -0.989441 0.144934 0
    outer loop
      vertex 3.8754 32.2889 5
      vertex 3.44479 29.3492 0
      vertex 3.44479 29.3492 5
    endloop
  endfacet
  facet normal -0.978661 -0.205482 0
    outer loop
      vertex 4.36029 24.9889 0
      vertex 3.44479 29.3492 5
      vertex 3.44479 29.3492 0
    endloop
  endfacet
  facet normal -0.978661 -0.205482 0
    outer loop
      vertex 3.44479 29.3492 5
      vertex 4.36029 24.9889 0
      vertex 4.36029 24.9889 5
    endloop
  endfacet
  facet normal -0.798394 -0.602136 0
    outer loop
      vertex 7.1068 21.3472 0
      vertex 4.36029 24.9889 5
      vertex 4.36029 24.9889 0
    endloop
  endfacet
  facet normal -0.798394 -0.602136 0
    outer loop
      vertex 4.36029 24.9889 5
      vertex 7.1068 21.3472 0
      vertex 7.1068 21.3472 5
    endloop
  endfacet
  facet normal -0.51613 -0.85651 0
    outer loop
      vertex 7.1068 21.3472 0
      vertex 10.6737 19.1978 5
      vertex 7.1068 21.3472 5
    endloop
  endfacet
  facet normal -0.51613 -0.85651 -0
    outer loop
      vertex 10.6737 19.1978 5
      vertex 7.1068 21.3472 0
      vertex 10.6737 19.1978 0
    endloop
  endfacet
  facet normal -0.308816 -0.951122 0
    outer loop
      vertex 10.6737 19.1978 0
      vertex 16.1664 17.4144 5
      vertex 10.6737 19.1978 5
    endloop
  endfacet
  facet normal -0.308816 -0.951122 -0
    outer loop
      vertex 16.1664 17.4144 5
      vertex 10.6737 19.1978 0
      vertex 16.1664 17.4144 0
    endloop
  endfacet
  facet normal -0.24893 -0.968521 0
    outer loop
      vertex 16.1664 17.4144 0
      vertex 20.2828 16.3564 5
      vertex 16.1664 17.4144 5
    endloop
  endfacet
  facet normal -0.24893 -0.968521 -0
    outer loop
      vertex 20.2828 16.3564 5
      vertex 16.1664 17.4144 0
      vertex 20.2828 16.3564 0
    endloop
  endfacet
  facet normal -0.281357 -0.959603 0
    outer loop
      vertex 20.2828 16.3564 0
      vertex 22.5952 15.6784 5
      vertex 20.2828 16.3564 5
    endloop
  endfacet
  facet normal -0.281357 -0.959603 -0
    outer loop
      vertex 22.5952 15.6784 5
      vertex 20.2828 16.3564 0
      vertex 22.5952 15.6784 0
    endloop
  endfacet
  facet normal -0.413838 -0.91035 0
    outer loop
      vertex 22.5952 15.6784 0
      vertex 24.3482 14.8815 5
      vertex 22.5952 15.6784 5
    endloop
  endfacet
  facet normal -0.413838 -0.91035 -0
    outer loop
      vertex 24.3482 14.8815 5
      vertex 22.5952 15.6784 0
      vertex 24.3482 14.8815 0
    endloop
  endfacet
  facet normal -0.631851 -0.77509 0
    outer loop
      vertex 24.3482 14.8815 0
      vertex 25.484 13.9556 5
      vertex 24.3482 14.8815 5
    endloop
  endfacet
  facet normal -0.631851 -0.77509 -0
    outer loop
      vertex 25.484 13.9556 5
      vertex 24.3482 14.8815 0
      vertex 25.484 13.9556 0
    endloop
  endfacet
  facet normal -0.870076 -0.492918 0
    outer loop
      vertex 26.1044 12.8605 0
      vertex 25.484 13.9556 5
      vertex 25.484 13.9556 0
    endloop
  endfacet
  facet normal -0.870076 -0.492918 0
    outer loop
      vertex 25.484 13.9556 5
      vertex 26.1044 12.8605 0
      vertex 26.1044 12.8605 5
    endloop
  endfacet
  facet normal -0.987681 -0.156479 0
    outer loop
      vertex 26.3112 11.5552 0
      vertex 26.1044 12.8605 5
      vertex 26.1044 12.8605 0
    endloop
  endfacet
  facet normal -0.987681 -0.156479 0
    outer loop
      vertex 26.1044 12.8605 5
      vertex 26.3112 11.5552 0
      vertex 26.3112 11.5552 5
    endloop
  endfacet
  facet normal -0.97263 0.232358 0
    outer loop
      vertex 25.8195 9.49699 0
      vertex 26.3112 11.5552 5
      vertex 26.3112 11.5552 0
    endloop
  endfacet
  facet normal -0.97263 0.232358 0
    outer loop
      vertex 26.3112 11.5552 5
      vertex 25.8195 9.49699 0
      vertex 25.8195 9.49699 5
    endloop
  endfacet
  facet normal -0.770003 0.63804 0
    outer loop
      vertex 24.3444 7.7168 0
      vertex 25.8195 9.49699 5
      vertex 25.8195 9.49699 0
    endloop
  endfacet
  facet normal -0.770003 0.63804 0
    outer loop
      vertex 25.8195 9.49699 5
      vertex 24.3444 7.7168 0
      vertex 24.3444 7.7168 5
    endloop
  endfacet
  facet normal -0.449656 0.893202 0
    outer loop
      vertex 24.3444 7.7168 0
      vertex 21.8999 6.48619 5
      vertex 24.3444 7.7168 5
    endloop
  endfacet
  facet normal -0.449656 0.893202 0
    outer loop
      vertex 21.8999 6.48619 5
      vertex 24.3444 7.7168 0
      vertex 21.8999 6.48619 0
    endloop
  endfacet
  facet normal -0.119754 0.992804 0
    outer loop
      vertex 21.8999 6.48619 0
      vertex 18.4992 6.07599 5
      vertex 21.8999 6.48619 5
    endloop
  endfacet
  facet normal -0.119754 0.992804 0
    outer loop
      vertex 18.4992 6.07599 5
      vertex 21.8999 6.48619 0
      vertex 18.4992 6.07599 0
    endloop
  endfacet
  facet normal 0.138978 0.990296 -0
    outer loop
      vertex 18.4992 6.07599 0
      vertex 15.2136 6.53709 5
      vertex 18.4992 6.07599 5
    endloop
  endfacet
  facet normal 0.138978 0.990296 0
    outer loop
      vertex 15.2136 6.53709 5
      vertex 18.4992 6.07599 0
      vertex 15.2136 6.53709 0
    endloop
  endfacet
  facet normal 0.479325 0.877637 -0
    outer loop
      vertex 15.2136 6.53709 0
      vertex 12.6808 7.92039 5
      vertex 15.2136 6.53709 5
    endloop
  endfacet
  facet normal 0.479325 0.877637 0
    outer loop
      vertex 12.6808 7.92039 5
      vertex 15.2136 6.53709 0
      vertex 12.6808 7.92039 0
    endloop
  endfacet
  facet normal 0.797001 0.603978 0
    outer loop
      vertex 12.6808 7.92039 5
      vertex 10.8872 10.2872 0
      vertex 10.8872 10.2872 5
    endloop
  endfacet
  facet normal 0.797001 0.603978 0
    outer loop
      vertex 10.8872 10.2872 0
      vertex 12.6808 7.92039 5
      vertex 12.6808 7.92039 0
    endloop
  endfacet
  facet normal 0.954311 0.298817 0
    outer loop
      vertex 10.8872 10.2872 5
      vertex 9.8192 13.698 0
      vertex 9.8192 13.698 5
    endloop
  endfacet
  facet normal 0.954311 0.298817 0
    outer loop
      vertex 9.8192 13.698 0
      vertex 10.8872 10.2872 5
      vertex 10.8872 10.2872 0
    endloop
  endfacet
  facet normal -0.096728 0.995311 0
    outer loop
      vertex 9.8192 13.698 0
      vertex 2.00719 12.9388 5
      vertex 9.8192 13.698 5
    endloop
  endfacet
  facet normal -0.096728 0.995311 0
    outer loop
      vertex 2.00719 12.9388 5
      vertex 9.8192 13.698 0
      vertex 2.00719 12.9388 0
    endloop
  endfacet
  facet normal -0.964849 -0.262806 0
    outer loop
      vertex 3.6077 7.06279 0
      vertex 2.00719 12.9388 5
      vertex 2.00719 12.9388 0
    endloop
  endfacet
  facet normal -0.964849 -0.262806 0
    outer loop
      vertex 2.00719 12.9388 5
      vertex 3.6077 7.06279 0
      vertex 3.6077 7.06279 5
    endloop
  endfacet
  facet normal -0.798557 -0.601919 0
    outer loop
      vertex 6.83559 2.7804 0
      vertex 3.6077 7.06279 5
      vertex 3.6077 7.06279 0
    endloop
  endfacet
  facet normal -0.798557 -0.601919 0
    outer loop
      vertex 3.6077 7.06279 5
      vertex 6.83559 2.7804 0
      vertex 6.83559 2.7804 5
    endloop
  endfacet
  facet normal -0.469485 -0.88294 0
    outer loop
      vertex 6.83559 2.7804 0
      vertex 11.752 0.166199 5
      vertex 6.83559 2.7804 5
    endloop
  endfacet
  facet normal -0.469485 -0.88294 -0
    outer loop
      vertex 11.752 0.166199 5
      vertex 6.83559 2.7804 0
      vertex 11.752 0.166199 0
    endloop
  endfacet
  facet normal -0.129618 -0.991564 0
    outer loop
      vertex 11.752 0.166199 0
      vertex 18.418 -0.705185 5
      vertex 11.752 0.166199 5
    endloop
  endfacet
  facet normal -0.129618 -0.991564 -0
    outer loop
      vertex 18.418 -0.705185 5
      vertex 11.752 0.166199 0
      vertex 18.418 -0.705185 0
    endloop
  endfacet
  facet normal 0.0760983 -0.9971 0
    outer loop
      vertex 18.418 -0.705185 0
      vertex 23.1716 -0.342392 5
      vertex 18.418 -0.705185 5
    endloop
  endfacet
  facet normal 0.0760983 -0.9971 0
    outer loop
      vertex 23.1716 -0.342392 5
      vertex 18.418 -0.705185 0
      vertex 23.1716 -0.342392 0
    endloop
  endfacet
  facet normal 0.707107 -0.707107 0
    outer loop
      vertex 17.916 20.651 2
      vertex 18.916 21.651 0
      vertex 18.916 21.651 2
    endloop
  endfacet
  facet normal 0.707107 -0.707107 0
    outer loop
      vertex 18.916 21.651 0
      vertex 17.916 20.651 2
      vertex 17.916 20.651 0
    endloop
  endfacet
  facet normal -0.707107 -0.707107 0
    outer loop
      vertex 19.916 20.651 0
      vertex 18.916 21.651 2
      vertex 18.916 21.651 0
    endloop
  endfacet
  facet normal -0.707107 -0.707107 0
    outer loop
      vertex 18.916 21.651 2
      vertex 19.916 20.651 0
      vertex 19.916 20.651 2
    endloop
  endfacet
  facet normal 0 0 -1
    outer loop
      vertex 18.916 19.651 2
      vertex 18.916 21.651 2
      vertex 19.916 20.651 2
    endloop
  endfacet
  facet normal 0 -0 -1
    outer loop
      vertex 18.916 21.651 2
      vertex 18.916 19.651 2
      vertex 17.916 20.651 2
    endloop
  endfacet
  facet normal -0.707107 0.707107 0
    outer loop
      vertex 18.916 19.651 0
      vertex 19.916 20.651 2
      vertex 19.916 20.651 0
    endloop
  endfacet
  facet normal -0.707107 0.707107 0
    outer loop
      vertex 19.916 20.651 2
      vertex 18.916 19.651 0
      vertex 18.916 19.651 2
    endloop
  endfacet
  facet normal 0.707107 0.707107 0
    outer loop
      vertex 18.916 19.651 2
      vertex 17.916 20.651 0
      vertex 17.916 20.651 2
    endloop
  endfacet
  facet normal 0.707107 0.707107 0
    outer loop
      vertex 17.916 20.651 0
      vertex 18.916 19.651 2
      vertex 18.916 19.651 0
    endloop
  endfacet
endsolid OpenSCAD_Model
