solid OpenSCAD_Model
  facet normal 0 0 -1
    outer loop
      vertex 38.192 11.9892 0
      vertex 52.3784 39.7652 0
      vertex 42.722 0 0
    endloop
  endfacet
  facet normal -0 0 -1
    outer loop
      vertex 52.3784 39.7652 0
      vertex 38.192 11.9892 0
      vertex 44.2952 39.7652 0
    endloop
  endfacet
  facet normal 0 0 -1
    outer loop
      vertex 34.2048 0 0
      vertex 38.192 11.9892 0
      vertex 42.722 0 0
    endloop
  endfacet
  facet normal 0 0 -1
    outer loop
      vertex 26.284 29.7292 0
      vertex 38.192 11.9892 0
      vertex 34.2048 0 0
    endloop
  endfacet
  facet normal 0 0 -1
    outer loop
      vertex 38.192 11.9892 0
      vertex 26.284 29.7292 0
      vertex 31.2208 39.7652 0
    endloop
  endfacet
  facet normal 0 0 -1
    outer loop
      vertex 31.2208 39.7652 0
      vertex 27.359 35.4072 0
      vertex 27.361 35.47 0
    endloop
  endfacet
  facet normal 0 0 -1
    outer loop
      vertex 31.2208 39.7652 0
      vertex 27.3531 35.3447 0
      vertex 27.359 35.4072 0
    endloop
  endfacet
  facet normal 0 0 -1
    outer loop
      vertex 31.2208 39.7652 0
      vertex 27.3433 35.2826 0
      vertex 27.3531 35.3447 0
    endloop
  endfacet
  facet normal 0 0 -1
    outer loop
      vertex 31.2208 39.7652 0
      vertex 27.3296 35.2213 0
      vertex 27.3433 35.2826 0
    endloop
  endfacet
  facet normal 0 -0 -1
    outer loop
      vertex 27.2658 35.0442 0
      vertex 31.2208 39.7652 0
      vertex 26.284 29.7292 0
    endloop
  endfacet
  facet normal 0 0 -1
    outer loop
      vertex 31.2208 39.7652 0
      vertex 27.3121 35.161 0
      vertex 27.3296 35.2213 0
    endloop
  endfacet
  facet normal 0 0 -1
    outer loop
      vertex 31.2208 39.7652 0
      vertex 27.2908 35.1019 0
      vertex 27.3121 35.161 0
    endloop
  endfacet
  facet normal 0 0 -1
    outer loop
      vertex 31.2208 39.7652 0
      vertex 27.2658 35.0442 0
      vertex 27.2908 35.1019 0
    endloop
  endfacet
  facet normal 0 0 -1
    outer loop
      vertex 27.2658 35.0442 0
      vertex 26.284 29.7292 0
      vertex 27.2373 34.9882 0
    endloop
  endfacet
  facet normal 0 0 -1
    outer loop
      vertex 27.2373 34.9882 0
      vertex 26.284 29.7292 0
      vertex 27.2053 34.9342 0
    endloop
  endfacet
  facet normal 0 0 -1
    outer loop
      vertex 27.2053 34.9342 0
      vertex 26.284 29.7292 0
      vertex 27.17 34.8822 0
    endloop
  endfacet
  facet normal 0 0 -1
    outer loop
      vertex 27.17 34.8822 0
      vertex 26.284 29.7292 0
      vertex 27.1315 34.8326 0
    endloop
  endfacet
  facet normal 0 0 -1
    outer loop
      vertex 27.1315 34.8326 0
      vertex 26.284 29.7292 0
      vertex 27.09 34.7855 0
    endloop
  endfacet
  facet normal 0 0 -1
    outer loop
      vertex 27.09 34.7855 0
      vertex 26.284 29.7292 0
      vertex 27.0455 34.741 0
    endloop
  endfacet
  facet normal 0 0 -1
    outer loop
      vertex 27.0455 34.741 0
      vertex 26.284 29.7292 0
      vertex 26.9984 34.6995 0
    endloop
  endfacet
  facet normal 0 0 -1
    outer loop
      vertex 26.9984 34.6995 0
      vertex 26.284 29.7292 0
      vertex 26.9488 34.661 0
    endloop
  endfacet
  facet normal 0 0 -1
    outer loop
      vertex 26.9488 34.661 0
      vertex 26.284 29.7292 0
      vertex 26.8968 34.6257 0
    endloop
  endfacet
  facet normal 0 0 -1
    outer loop
      vertex 26.8968 34.6257 0
      vertex 26.284 29.7292 0
      vertex 26.8428 34.5937 0
    endloop
  endfacet
  facet normal 0 0 -1
    outer loop
      vertex 26.8428 34.5937 0
      vertex 26.284 29.7292 0
      vertex 26.7868 34.5652 0
    endloop
  endfacet
  facet normal 0 0 -1
    outer loop
      vertex 26.7868 34.5652 0
      vertex 26.284 29.7292 0
      vertex 26.7291 34.5402 0
    endloop
  endfacet
  facet normal 0 0 -1
    outer loop
      vertex 26.7291 34.5402 0
      vertex 26.284 29.7292 0
      vertex 26.67 34.5189 0
    endloop
  endfacet
  facet normal 0 0 -1
    outer loop
      vertex 26.67 34.5189 0
      vertex 26.284 29.7292 0
      vertex 26.6097 34.5014 0
    endloop
  endfacet
  facet normal 0 0 -1
    outer loop
      vertex 26.6097 34.5014 0
      vertex 26.284 29.7292 0
      vertex 26.5484 34.4877 0
    endloop
  endfacet
  facet normal 0 0 -1
    outer loop
      vertex 26.5484 34.4877 0
      vertex 26.284 29.7292 0
      vertex 26.4863 34.4779 0
    endloop
  endfacet
  facet normal 0 0 -1
    outer loop
      vertex 26.4863 34.4779 0
      vertex 26.284 29.7292 0
      vertex 26.4238 34.472 0
    endloop
  endfacet
  facet normal 0 0 -1
    outer loop
      vertex 26.4238 34.472 0
      vertex 26.284 29.7292 0
      vertex 26.361 34.47 0
    endloop
  endfacet
  facet normal -0 0 -1
    outer loop
      vertex 26.361 34.47 0
      vertex 26.284 29.7292 0
      vertex 26.2982 34.472 0
    endloop
  endfacet
  facet normal 0 0 -1
    outer loop
      vertex 26.284 29.7292 0
      vertex 26.2357 34.4779 0
      vertex 26.2982 34.472 0
    endloop
  endfacet
  facet normal 0 0 -1
    outer loop
      vertex 26.284 29.7292 0
      vertex 26.1736 34.4877 0
      vertex 26.2357 34.4779 0
    endloop
  endfacet
  facet normal 0 0 -1
    outer loop
      vertex 26.284 29.7292 0
      vertex 26.1123 34.5014 0
      vertex 26.1736 34.4877 0
    endloop
  endfacet
  facet normal 0 0 -1
    outer loop
      vertex 26.284 29.7292 0
      vertex 26.052 34.5189 0
      vertex 26.1123 34.5014 0
    endloop
  endfacet
  facet normal 0 0 -1
    outer loop
      vertex 26.284 29.7292 0
      vertex 25.9929 34.5402 0
      vertex 26.052 34.5189 0
    endloop
  endfacet
  facet normal 0 0 -1
    outer loop
      vertex 26.284 29.7292 0
      vertex 25.9352 34.5652 0
      vertex 25.9929 34.5402 0
    endloop
  endfacet
  facet normal 0 0 -1
    outer loop
      vertex 26.284 29.7292 0
      vertex 25.8792 34.5937 0
      vertex 25.9352 34.5652 0
    endloop
  endfacet
  facet normal 0 0 -1
    outer loop
      vertex 26.284 29.7292 0
      vertex 25.8252 34.6257 0
      vertex 25.8792 34.5937 0
    endloop
  endfacet
  facet normal 0 0 -1
    outer loop
      vertex 26.284 29.7292 0
      vertex 25.7732 34.661 0
      vertex 25.8252 34.6257 0
    endloop
  endfacet
  facet normal 0 0 -1
    outer loop
      vertex 26.284 29.7292 0
      vertex 25.7236 34.6995 0
      vertex 25.7732 34.661 0
    endloop
  endfacet
  facet normal 0 0 -1
    outer loop
      vertex 26.284 29.7292 0
      vertex 25.6765 34.741 0
      vertex 25.7236 34.6995 0
    endloop
  endfacet
  facet normal 0 0 -1
    outer loop
      vertex 26.284 29.7292 0
      vertex 25.632 34.7855 0
      vertex 25.6765 34.741 0
    endloop
  endfacet
  facet normal 0 0 -1
    outer loop
      vertex 26.284 29.7292 0
      vertex 25.5905 34.8326 0
      vertex 25.632 34.7855 0
    endloop
  endfacet
  facet normal 0 0 -1
    outer loop
      vertex 26.284 29.7292 0
      vertex 25.552 34.8822 0
      vertex 25.5905 34.8326 0
    endloop
  endfacet
  facet normal 0 0 -1
    outer loop
      vertex 26.284 29.7292 0
      vertex 25.5167 34.9342 0
      vertex 25.552 34.8822 0
    endloop
  endfacet
  facet normal 0 0 -1
    outer loop
      vertex 26.284 29.7292 0
      vertex 25.4847 34.9882 0
      vertex 25.5167 34.9342 0
    endloop
  endfacet
  facet normal 0 0 -1
    outer loop
      vertex 26.284 29.7292 0
      vertex 25.4562 35.0442 0
      vertex 25.4847 34.9882 0
    endloop
  endfacet
  facet normal 0 0 -1
    outer loop
      vertex 26.284 29.7292 0
      vertex 25.4312 35.1019 0
      vertex 25.4562 35.0442 0
    endloop
  endfacet
  facet normal 0 0 -1
    outer loop
      vertex 21.6728 39.7652 0
      vertex 25.4312 35.1019 0
      vertex 26.284 29.7292 0
    endloop
  endfacet
  facet normal 0 0 -1
    outer loop
      vertex 25.4312 35.1019 0
      vertex 21.6728 39.7652 0
      vertex 25.4099 35.161 0
    endloop
  endfacet
  facet normal 0 0 -1
    outer loop
      vertex 25.4099 35.161 0
      vertex 21.6728 39.7652 0
      vertex 25.3924 35.2213 0
    endloop
  endfacet
  facet normal 0 0 -1
    outer loop
      vertex 25.363 35.4072 0
      vertex 21.6728 39.7652 0
      vertex 25.361 35.47 0
    endloop
  endfacet
  facet normal 0 0 -1
    outer loop
      vertex 25.3689 35.3447 0
      vertex 21.6728 39.7652 0
      vertex 25.363 35.4072 0
    endloop
  endfacet
  facet normal 0 0 -1
    outer loop
      vertex 25.3787 35.2826 0
      vertex 21.6728 39.7652 0
      vertex 25.3689 35.3447 0
    endloop
  endfacet
  facet normal 0 0 -1
    outer loop
      vertex 25.3924 35.2213 0
      vertex 21.6728 39.7652 0
      vertex 25.3787 35.2826 0
    endloop
  endfacet
  facet normal 0 0 -1
    outer loop
      vertex 14.4032 12.4504 0
      vertex 26.284 29.7292 0
      vertex 18.3908 0 0
    endloop
  endfacet
  facet normal -0 0 -1
    outer loop
      vertex 26.284 29.7292 0
      vertex 14.4032 12.4504 0
      vertex 21.6728 39.7652 0
    endloop
  endfacet
  facet normal 0 0 -1
    outer loop
      vertex 9.68359 0 0
      vertex 14.4032 12.4504 0
      vertex 18.3908 0 0
    endloop
  endfacet
  facet normal 0 0 -1
    outer loop
      vertex 0.189987 39.7652 0
      vertex 14.4032 12.4504 0
      vertex 9.68359 0 0
    endloop
  endfacet
  facet normal 0 0 -1
    outer loop
      vertex 14.4032 12.4504 0
      vertex 0.189987 39.7652 0
      vertex 8.4088 39.7652 0
    endloop
  endfacet
  facet normal 0 0 -1
    outer loop
      vertex 27.359 35.5328 0
      vertex 31.2208 39.7652 0
      vertex 27.361 35.47 0
    endloop
  endfacet
  facet normal 0 0 -1
    outer loop
      vertex 27.3531 35.5953 0
      vertex 31.2208 39.7652 0
      vertex 27.359 35.5328 0
    endloop
  endfacet
  facet normal 0 0 -1
    outer loop
      vertex 27.3433 35.6574 0
      vertex 31.2208 39.7652 0
      vertex 27.3531 35.5953 0
    endloop
  endfacet
  facet normal 0 0 -1
    outer loop
      vertex 27.3296 35.7187 0
      vertex 31.2208 39.7652 0
      vertex 27.3433 35.6574 0
    endloop
  endfacet
  facet normal 0 0 -1
    outer loop
      vertex 27.3121 35.779 0
      vertex 31.2208 39.7652 0
      vertex 27.3296 35.7187 0
    endloop
  endfacet
  facet normal 0 0 -1
    outer loop
      vertex 27.2908 35.8381 0
      vertex 31.2208 39.7652 0
      vertex 27.3121 35.779 0
    endloop
  endfacet
  facet normal 0 0 -1
    outer loop
      vertex 27.2658 35.8958 0
      vertex 31.2208 39.7652 0
      vertex 27.2908 35.8381 0
    endloop
  endfacet
  facet normal 0 0 -1
    outer loop
      vertex 27.2373 35.9518 0
      vertex 31.2208 39.7652 0
      vertex 27.2658 35.8958 0
    endloop
  endfacet
  facet normal 0 0 -1
    outer loop
      vertex 27.2053 36.0058 0
      vertex 31.2208 39.7652 0
      vertex 27.2373 35.9518 0
    endloop
  endfacet
  facet normal 0 0 -1
    outer loop
      vertex 27.17 36.0578 0
      vertex 31.2208 39.7652 0
      vertex 27.2053 36.0058 0
    endloop
  endfacet
  facet normal 0 0 -1
    outer loop
      vertex 27.1315 36.1074 0
      vertex 31.2208 39.7652 0
      vertex 27.17 36.0578 0
    endloop
  endfacet
  facet normal 0 0 -1
    outer loop
      vertex 27.09 36.1545 0
      vertex 31.2208 39.7652 0
      vertex 27.1315 36.1074 0
    endloop
  endfacet
  facet normal 0 0 -1
    outer loop
      vertex 27.0455 36.199 0
      vertex 31.2208 39.7652 0
      vertex 27.09 36.1545 0
    endloop
  endfacet
  facet normal 0 0 -1
    outer loop
      vertex 26.9984 36.2405 0
      vertex 31.2208 39.7652 0
      vertex 27.0455 36.199 0
    endloop
  endfacet
  facet normal 0 0 -1
    outer loop
      vertex 26.9488 36.279 0
      vertex 31.2208 39.7652 0
      vertex 26.9984 36.2405 0
    endloop
  endfacet
  facet normal 0 0 -1
    outer loop
      vertex 26.8968 36.3143 0
      vertex 31.2208 39.7652 0
      vertex 26.9488 36.279 0
    endloop
  endfacet
  facet normal 0 0 -1
    outer loop
      vertex 26.8428 36.3463 0
      vertex 31.2208 39.7652 0
      vertex 26.8968 36.3143 0
    endloop
  endfacet
  facet normal 0 0 -1
    outer loop
      vertex 26.7868 36.3748 0
      vertex 31.2208 39.7652 0
      vertex 26.8428 36.3463 0
    endloop
  endfacet
  facet normal 0 0 -1
    outer loop
      vertex 26.7291 36.3998 0
      vertex 31.2208 39.7652 0
      vertex 26.7868 36.3748 0
    endloop
  endfacet
  facet normal 0 0 -1
    outer loop
      vertex 26.67 36.4211 0
      vertex 31.2208 39.7652 0
      vertex 26.7291 36.3998 0
    endloop
  endfacet
  facet normal 0 0 -1
    outer loop
      vertex 26.6097 36.4386 0
      vertex 31.2208 39.7652 0
      vertex 26.67 36.4211 0
    endloop
  endfacet
  facet normal 0 0 -1
    outer loop
      vertex 26.5484 36.4523 0
      vertex 31.2208 39.7652 0
      vertex 26.6097 36.4386 0
    endloop
  endfacet
  facet normal 0 0 -1
    outer loop
      vertex 26.4863 36.4621 0
      vertex 31.2208 39.7652 0
      vertex 26.5484 36.4523 0
    endloop
  endfacet
  facet normal 0 0 -1
    outer loop
      vertex 26.4238 36.468 0
      vertex 31.2208 39.7652 0
      vertex 26.4863 36.4621 0
    endloop
  endfacet
  facet normal 0 0 -1
    outer loop
      vertex 26.361 36.47 0
      vertex 31.2208 39.7652 0
      vertex 26.4238 36.468 0
    endloop
  endfacet
  facet normal 0 0 -1
    outer loop
      vertex 21.6728 39.7652 0
      vertex 26.361 36.47 0
      vertex 26.2982 36.468 0
    endloop
  endfacet
  facet normal 0 0 -1
    outer loop
      vertex 21.6728 39.7652 0
      vertex 26.2982 36.468 0
      vertex 26.2357 36.4621 0
    endloop
  endfacet
  facet normal 0 0 -1
    outer loop
      vertex 21.6728 39.7652 0
      vertex 26.2357 36.4621 0
      vertex 26.1736 36.4523 0
    endloop
  endfacet
  facet normal 0 0 -1
    outer loop
      vertex 21.6728 39.7652 0
      vertex 26.1736 36.4523 0
      vertex 26.1123 36.4386 0
    endloop
  endfacet
  facet normal 0 0 -1
    outer loop
      vertex 21.6728 39.7652 0
      vertex 26.1123 36.4386 0
      vertex 26.052 36.4211 0
    endloop
  endfacet
  facet normal 0 0 -1
    outer loop
      vertex 21.6728 39.7652 0
      vertex 26.052 36.4211 0
      vertex 25.9929 36.3998 0
    endloop
  endfacet
  facet normal 0 0 -1
    outer loop
      vertex 21.6728 39.7652 0
      vertex 25.9929 36.3998 0
      vertex 25.9352 36.3748 0
    endloop
  endfacet
  facet normal 0 0 -1
    outer loop
      vertex 21.6728 39.7652 0
      vertex 25.9352 36.3748 0
      vertex 25.8792 36.3463 0
    endloop
  endfacet
  facet normal 0 0 -1
    outer loop
      vertex 21.6728 39.7652 0
      vertex 25.8792 36.3463 0
      vertex 25.8252 36.3143 0
    endloop
  endfacet
  facet normal 0 0 -1
    outer loop
      vertex 26.361 36.47 0
      vertex 21.6728 39.7652 0
      vertex 31.2208 39.7652 0
    endloop
  endfacet
  facet normal 0 0 -1
    outer loop
      vertex 25.7732 36.279 0
      vertex 21.6728 39.7652 0
      vertex 25.8252 36.3143 0
    endloop
  endfacet
  facet normal 0 0 -1
    outer loop
      vertex 25.7236 36.2405 0
      vertex 21.6728 39.7652 0
      vertex 25.7732 36.279 0
    endloop
  endfacet
  facet normal 0 0 -1
    outer loop
      vertex 25.6765 36.199 0
      vertex 21.6728 39.7652 0
      vertex 25.7236 36.2405 0
    endloop
  endfacet
  facet normal 0 0 -1
    outer loop
      vertex 25.632 36.1545 0
      vertex 21.6728 39.7652 0
      vertex 25.6765 36.199 0
    endloop
  endfacet
  facet normal 0 0 -1
    outer loop
      vertex 25.5905 36.1074 0
      vertex 21.6728 39.7652 0
      vertex 25.632 36.1545 0
    endloop
  endfacet
  facet normal 0 0 -1
    outer loop
      vertex 25.552 36.0578 0
      vertex 21.6728 39.7652 0
      vertex 25.5905 36.1074 0
    endloop
  endfacet
  facet normal 0 0 -1
    outer loop
      vertex 25.5167 36.0058 0
      vertex 21.6728 39.7652 0
      vertex 25.552 36.0578 0
    endloop
  endfacet
  facet normal 0 0 -1
    outer loop
      vertex 25.4847 35.9518 0
      vertex 21.6728 39.7652 0
      vertex 25.5167 36.0058 0
    endloop
  endfacet
  facet normal 0 0 -1
    outer loop
      vertex 25.4562 35.8958 0
      vertex 21.6728 39.7652 0
      vertex 25.4847 35.9518 0
    endloop
  endfacet
  facet normal 0 0 -1
    outer loop
      vertex 25.4312 35.8381 0
      vertex 21.6728 39.7652 0
      vertex 25.4562 35.8958 0
    endloop
  endfacet
  facet normal 0 0 -1
    outer loop
      vertex 25.4099 35.779 0
      vertex 21.6728 39.7652 0
      vertex 25.4312 35.8381 0
    endloop
  endfacet
  facet normal 0 0 -1
    outer loop
      vertex 25.3924 35.7187 0
      vertex 21.6728 39.7652 0
      vertex 25.4099 35.779 0
    endloop
  endfacet
  facet normal 0 0 -1
    outer loop
      vertex 25.3787 35.6574 0
      vertex 21.6728 39.7652 0
      vertex 25.3924 35.7187 0
    endloop
  endfacet
  facet normal 0 0 -1
    outer loop
      vertex 25.3689 35.5953 0
      vertex 21.6728 39.7652 0
      vertex 25.3787 35.6574 0
    endloop
  endfacet
  facet normal 0 0 -1
    outer loop
      vertex 25.363 35.5328 0
      vertex 21.6728 39.7652 0
      vertex 25.3689 35.5953 0
    endloop
  endfacet
  facet normal 0 0 -1
    outer loop
      vertex 21.6728 39.7652 0
      vertex 25.363 35.5328 0
      vertex 25.361 35.47 0
    endloop
  endfacet
  facet normal 0 0 1
    outer loop
      vertex 38.192 11.9892 5
      vertex 52.3784 39.7652 5
      vertex 44.2952 39.7652 5
    endloop
  endfacet
  facet normal 0 0 1
    outer loop
      vertex 52.3784 39.7652 5
      vertex 38.192 11.9892 5
      vertex 42.722 0 5
    endloop
  endfacet
  facet normal 0 0 1
    outer loop
      vertex 38.192 11.9892 5
      vertex 34.2048 0 5
      vertex 42.722 0 5
    endloop
  endfacet
  facet normal -0 0 1
    outer loop
      vertex 26.284 29.7292 5
      vertex 38.192 11.9892 5
      vertex 31.2208 39.7652 5
    endloop
  endfacet
  facet normal 0 0 1
    outer loop
      vertex 38.192 11.9892 5
      vertex 26.284 29.7292 5
      vertex 34.2048 0 5
    endloop
  endfacet
  facet normal -0 0 1
    outer loop
      vertex 21.6728 39.7652 5
      vertex 26.284 29.7292 5
      vertex 31.2208 39.7652 5
    endloop
  endfacet
  facet normal 0 0 1
    outer loop
      vertex 14.4032 12.4504 5
      vertex 26.284 29.7292 5
      vertex 21.6728 39.7652 5
    endloop
  endfacet
  facet normal 0 0 1
    outer loop
      vertex 26.284 29.7292 5
      vertex 14.4032 12.4504 5
      vertex 18.3908 0 5
    endloop
  endfacet
  facet normal 0 0 1
    outer loop
      vertex 14.4032 12.4504 5
      vertex 9.68359 0 5
      vertex 18.3908 0 5
    endloop
  endfacet
  facet normal -0 0 1
    outer loop
      vertex 0.189987 39.7652 5
      vertex 14.4032 12.4504 5
      vertex 8.4088 39.7652 5
    endloop
  endfacet
  facet normal 0 0 1
    outer loop
      vertex 14.4032 12.4504 5
      vertex 0.189987 39.7652 5
      vertex 9.68359 0 5
    endloop
  endfacet
  facet normal -0.966291 -0.257451 0
    outer loop
      vertex 34.2048 0 0
      vertex 26.284 29.7292 5
      vertex 26.284 29.7292 0
    endloop
  endfacet
  facet normal -0.966291 -0.257451 0
    outer loop
      vertex 26.284 29.7292 5
      vertex 34.2048 0 0
      vertex 34.2048 0 5
    endloop
  endfacet
  facet normal 0 -1 0
    outer loop
      vertex 34.2048 0 0
      vertex 42.722 0 5
      vertex 34.2048 0 5
    endloop
  endfacet
  facet normal 0 -1 -0
    outer loop
      vertex 42.722 0 5
      vertex 34.2048 0 0
      vertex 42.722 0 0
    endloop
  endfacet
  facet normal 0.971759 -0.235977 0
    outer loop
      vertex 42.722 0 5
      vertex 52.3784 39.7652 0
      vertex 52.3784 39.7652 5
    endloop
  endfacet
  facet normal 0.971759 -0.235977 0
    outer loop
      vertex 52.3784 39.7652 0
      vertex 42.722 0 5
      vertex 42.722 0 0
    endloop
  endfacet
  facet normal 0 1 -0
    outer loop
      vertex 52.3784 39.7652 0
      vertex 44.2952 39.7652 5
      vertex 52.3784 39.7652 5
    endloop
  endfacet
  facet normal 0 1 0
    outer loop
      vertex 44.2952 39.7652 5
      vertex 52.3784 39.7652 0
      vertex 44.2952 39.7652 0
    endloop
  endfacet
  facet normal -0.9767 0.21461 0
    outer loop
      vertex 38.192 11.9892 0
      vertex 44.2952 39.7652 5
      vertex 44.2952 39.7652 0
    endloop
  endfacet
  facet normal -0.9767 0.21461 0
    outer loop
      vertex 44.2952 39.7652 5
      vertex 38.192 11.9892 0
      vertex 38.192 11.9892 5
    endloop
  endfacet
  facet normal 0.969919 0.243429 0
    outer loop
      vertex 38.192 11.9892 5
      vertex 31.2208 39.7652 0
      vertex 31.2208 39.7652 5
    endloop
  endfacet
  facet normal 0.969919 0.243429 0
    outer loop
      vertex 31.2208 39.7652 0
      vertex 38.192 11.9892 5
      vertex 38.192 11.9892 0
    endloop
  endfacet
  facet normal 0 1 -0
    outer loop
      vertex 31.2208 39.7652 0
      vertex 21.6728 39.7652 5
      vertex 31.2208 39.7652 5
    endloop
  endfacet
  facet normal 0 1 0
    outer loop
      vertex 21.6728 39.7652 5
      vertex 31.2208 39.7652 0
      vertex 21.6728 39.7652 0
    endloop
  endfacet
  facet normal -0.966361 0.257189 0
    outer loop
      vertex 14.4032 12.4504 0
      vertex 21.6728 39.7652 5
      vertex 21.6728 39.7652 0
    endloop
  endfacet
  facet normal -0.966361 0.257189 0
    outer loop
      vertex 21.6728 39.7652 5
      vertex 14.4032 12.4504 0
      vertex 14.4032 12.4504 5
    endloop
  endfacet
  facet normal 0.976756 0.214355 0
    outer loop
      vertex 14.4032 12.4504 5
      vertex 8.4088 39.7652 0
      vertex 8.4088 39.7652 5
    endloop
  endfacet
  facet normal 0.976756 0.214355 0
    outer loop
      vertex 8.4088 39.7652 0
      vertex 14.4032 12.4504 5
      vertex 14.4032 12.4504 0
    endloop
  endfacet
  facet normal 0 1 -0
    outer loop
      vertex 8.4088 39.7652 0
      vertex 0.189987 39.7652 5
      vertex 8.4088 39.7652 5
    endloop
  endfacet
  facet normal 0 1 0
    outer loop
      vertex 0.189987 39.7652 5
      vertex 8.4088 39.7652 0
      vertex 0.189987 39.7652 0
    endloop
  endfacet
  facet normal -0.972664 -0.232215 0
    outer loop
      vertex 9.68359 0 0
      vertex 0.189987 39.7652 5
      vertex 0.189987 39.7652 0
    endloop
  endfacet
  facet normal -0.972664 -0.232215 0
    outer loop
      vertex 0.189987 39.7652 5
      vertex 9.68359 0 0
      vertex 9.68359 0 5
    endloop
  endfacet
  facet normal 0 -1 0
    outer loop
      vertex 9.68359 0 0
      vertex 18.3908 0 5
      vertex 9.68359 0 5
    endloop
  endfacet
  facet normal 0 -1 -0
    outer loop
      vertex 18.3908 0 5
      vertex 9.68359 0 0
      vertex 18.3908 0 0
    endloop
  endfacet
  facet normal 0.966514 -0.256613 0
    outer loop
      vertex 18.3908 0 5
      vertex 26.284 29.7292 0
      vertex 26.284 29.7292 5
    endloop
  endfacet
  facet normal 0.966514 -0.256613 0
    outer loop
      vertex 26.284 29.7292 0
      vertex 18.3908 0 5
      vertex 18.3908 0 0
    endloop
  endfacet
  facet normal -0.860292 -0.509802 0
    outer loop
      vertex 27.2373 35.9518 0
      vertex 27.2053 36.0058 2
      vertex 27.2053 36.0058 0
    endloop
  endfacet
  facet normal -0.860292 -0.509802 0
    outer loop
      vertex 27.2053 36.0058 2
      vertex 27.2373 35.9518 0
      vertex 27.2373 35.9518 2
    endloop
  endfacet
  facet normal -0.339058 -0.940766 0
    outer loop
      vertex 26.67 36.4211 0
      vertex 26.7291 36.3998 2
      vertex 26.67 36.4211 2
    endloop
  endfacet
  facet normal -0.339058 -0.940766 -0
    outer loop
      vertex 26.7291 36.3998 2
      vertex 26.67 36.4211 0
      vertex 26.7291 36.3998 0
    endloop
  endfacet
  facet normal 0.397563 -0.917575 0
    outer loop
      vertex 25.9352 36.3748 0
      vertex 25.9929 36.3998 2
      vertex 25.9352 36.3748 2
    endloop
  endfacet
  facet normal 0.397563 -0.917575 0
    outer loop
      vertex 25.9929 36.3998 2
      vertex 25.9352 36.3748 0
      vertex 25.9929 36.3998 0
    endloop
  endfacet
  facet normal 0.917575 -0.397563 0
    outer loop
      vertex 25.4312 35.8381 2
      vertex 25.4562 35.8958 0
      vertex 25.4562 35.8958 2
    endloop
  endfacet
  facet normal 0.917575 -0.397563 0
    outer loop
      vertex 25.4562 35.8958 0
      vertex 25.4312 35.8381 2
      vertex 25.4312 35.8381 0
    endloop
  endfacet
  facet normal -0.509802 -0.860292 0
    outer loop
      vertex 26.8428 36.3463 0
      vertex 26.8968 36.3143 2
      vertex 26.8428 36.3463 2
    endloop
  endfacet
  facet normal -0.509802 -0.860292 -0
    outer loop
      vertex 26.8968 36.3143 2
      vertex 26.8428 36.3463 0
      vertex 26.8968 36.3143 0
    endloop
  endfacet
  facet normal 0.750303 -0.661095 0
    outer loop
      vertex 25.5905 36.1074 2
      vertex 25.632 36.1545 0
      vertex 25.632 36.1545 2
    endloop
  endfacet
  facet normal 0.750303 -0.661095 0
    outer loop
      vertex 25.632 36.1545 0
      vertex 25.5905 36.1074 2
      vertex 25.5905 36.1074 0
    endloop
  endfacet
  facet normal 0.21811 -0.975924 0
    outer loop
      vertex 26.1123 36.4386 0
      vertex 26.1736 36.4523 2
      vertex 26.1123 36.4386 2
    endloop
  endfacet
  facet normal 0.21811 -0.975924 0
    outer loop
      vertex 26.1736 36.4523 2
      vertex 26.1123 36.4386 0
      vertex 26.1736 36.4523 0
    endloop
  endfacet
  facet normal -0.509802 0.860292 0
    outer loop
      vertex 26.8968 34.6257 0
      vertex 26.8428 34.5937 2
      vertex 26.8968 34.6257 2
    endloop
  endfacet
  facet normal -0.509802 0.860292 0
    outer loop
      vertex 26.8428 34.5937 2
      vertex 26.8968 34.6257 0
      vertex 26.8428 34.5937 0
    endloop
  endfacet
  facet normal -0.789952 -0.613168 0
    outer loop
      vertex 27.17 36.0578 0
      vertex 27.1315 36.1074 2
      vertex 27.1315 36.1074 0
    endloop
  endfacet
  facet normal -0.789952 -0.613168 0
    outer loop
      vertex 27.1315 36.1074 2
      vertex 27.17 36.0578 0
      vertex 27.17 36.0578 2
    endloop
  endfacet
  facet normal -0.155881 -0.987776 0
    outer loop
      vertex 26.4863 36.4621 0
      vertex 26.5484 36.4523 2
      vertex 26.4863 36.4621 2
    endloop
  endfacet
  facet normal -0.155881 -0.987776 -0
    outer loop
      vertex 26.5484 36.4523 2
      vertex 26.4863 36.4621 0
      vertex 26.5484 36.4523 0
    endloop
  endfacet
  facet normal -0.561657 -0.82737 0
    outer loop
      vertex 26.8968 36.3143 0
      vertex 26.9488 36.279 2
      vertex 26.8968 36.3143 2
    endloop
  endfacet
  facet normal -0.561657 -0.82737 -0
    outer loop
      vertex 26.9488 36.279 2
      vertex 26.8968 36.3143 0
      vertex 26.9488 36.279 0
    endloop
  endfacet
  facet normal 0.975924 -0.21811 0
    outer loop
      vertex 25.3787 35.6574 2
      vertex 25.3924 35.7187 0
      vertex 25.3924 35.7187 2
    endloop
  endfacet
  facet normal 0.975924 -0.21811 0
    outer loop
      vertex 25.3924 35.7187 0
      vertex 25.3787 35.6574 2
      vertex 25.3787 35.6574 0
    endloop
  endfacet
  facet normal 0.860292 -0.509802 0
    outer loop
      vertex 25.4847 35.9518 2
      vertex 25.5167 36.0058 0
      vertex 25.5167 36.0058 2
    endloop
  endfacet
  facet normal 0.860292 -0.509802 0
    outer loop
      vertex 25.5167 36.0058 0
      vertex 25.4847 35.9518 2
      vertex 25.4847 35.9518 0
    endloop
  endfacet
  facet normal 0.82737 -0.561657 0
    outer loop
      vertex 25.5167 36.0058 2
      vertex 25.552 36.0578 0
      vertex 25.552 36.0578 2
    endloop
  endfacet
  facet normal 0.82737 -0.561657 0
    outer loop
      vertex 25.552 36.0578 0
      vertex 25.5167 36.0058 2
      vertex 25.5167 36.0058 0
    endloop
  endfacet
  facet normal 0.0939822 -0.995574 0
    outer loop
      vertex 26.2357 36.4621 0
      vertex 26.2982 36.468 2
      vertex 26.2357 36.4621 2
    endloop
  endfacet
  facet normal 0.0939822 -0.995574 0
    outer loop
      vertex 26.2982 36.468 2
      vertex 26.2357 36.4621 0
      vertex 26.2982 36.468 0
    endloop
  endfacet
  facet normal 0.561657 -0.82737 0
    outer loop
      vertex 25.7732 36.279 0
      vertex 25.8252 36.3143 2
      vertex 25.7732 36.279 2
    endloop
  endfacet
  facet normal 0.561657 -0.82737 0
    outer loop
      vertex 25.8252 36.3143 2
      vertex 25.7732 36.279 0
      vertex 25.8252 36.3143 0
    endloop
  endfacet
  facet normal 0.613168 -0.789952 0
    outer loop
      vertex 25.7236 36.2405 0
      vertex 25.7732 36.279 2
      vertex 25.7236 36.2405 2
    endloop
  endfacet
  facet normal 0.613168 -0.789952 0
    outer loop
      vertex 25.7732 36.279 2
      vertex 25.7236 36.2405 0
      vertex 25.7732 36.279 0
    endloop
  endfacet
  facet normal 0.509802 -0.860292 0
    outer loop
      vertex 25.8252 36.3143 0
      vertex 25.8792 36.3463 2
      vertex 25.8252 36.3143 2
    endloop
  endfacet
  facet normal 0.509802 -0.860292 0
    outer loop
      vertex 25.8792 36.3463 2
      vertex 25.8252 36.3143 0
      vertex 25.8792 36.3463 0
    endloop
  endfacet
  facet normal 0.917575 0.397563 0
    outer loop
      vertex 25.4562 35.0442 2
      vertex 25.4312 35.1019 0
      vertex 25.4312 35.1019 2
    endloop
  endfacet
  facet normal 0.917575 0.397563 0
    outer loop
      vertex 25.4312 35.1019 0
      vertex 25.4562 35.0442 2
      vertex 25.4562 35.0442 0
    endloop
  endfacet
  facet normal -0.940766 -0.339058 0
    outer loop
      vertex 27.3121 35.779 0
      vertex 27.2908 35.8381 2
      vertex 27.2908 35.8381 0
    endloop
  endfacet
  facet normal -0.940766 -0.339058 0
    outer loop
      vertex 27.2908 35.8381 2
      vertex 27.3121 35.779 0
      vertex 27.3121 35.779 2
    endloop
  endfacet
  facet normal -0.987776 -0.155881 0
    outer loop
      vertex 27.3531 35.5953 0
      vertex 27.3433 35.6574 2
      vertex 27.3433 35.6574 0
    endloop
  endfacet
  facet normal -0.987776 -0.155881 0
    outer loop
      vertex 27.3433 35.6574 2
      vertex 27.3531 35.5953 0
      vertex 27.3531 35.5953 2
    endloop
  endfacet
  facet normal -0.82737 -0.561657 0
    outer loop
      vertex 27.2053 36.0058 0
      vertex 27.17 36.0578 2
      vertex 27.17 36.0578 0
    endloop
  endfacet
  facet normal -0.82737 -0.561657 0
    outer loop
      vertex 27.17 36.0578 2
      vertex 27.2053 36.0058 0
      vertex 27.2053 36.0058 2
    endloop
  endfacet
  facet normal -0.661095 -0.750303 0
    outer loop
      vertex 26.9984 36.2405 0
      vertex 27.0455 36.199 2
      vertex 26.9984 36.2405 2
    endloop
  endfacet
  facet normal -0.661095 -0.750303 -0
    outer loop
      vertex 27.0455 36.199 2
      vertex 26.9984 36.2405 0
      vertex 27.0455 36.199 0
    endloop
  endfacet
  facet normal -0.750303 -0.661095 0
    outer loop
      vertex 27.1315 36.1074 0
      vertex 27.09 36.1545 2
      vertex 27.09 36.1545 0
    endloop
  endfacet
  facet normal -0.750303 -0.661095 0
    outer loop
      vertex 27.09 36.1545 2
      vertex 27.1315 36.1074 0
      vertex 27.1315 36.1074 2
    endloop
  endfacet
  facet normal 0.031831 -0.999493 0
    outer loop
      vertex 26.2982 36.468 0
      vertex 26.361 36.47 2
      vertex 26.2982 36.468 2
    endloop
  endfacet
  facet normal 0.031831 -0.999493 0
    outer loop
      vertex 26.361 36.47 2
      vertex 26.2982 36.468 0
      vertex 26.361 36.47 0
    endloop
  endfacet
  facet normal -0.21811 -0.975924 0
    outer loop
      vertex 26.5484 36.4523 0
      vertex 26.6097 36.4386 2
      vertex 26.5484 36.4523 2
    endloop
  endfacet
  facet normal -0.21811 -0.975924 -0
    outer loop
      vertex 26.6097 36.4386 2
      vertex 26.5484 36.4523 0
      vertex 26.6097 36.4386 0
    endloop
  endfacet
  facet normal -0.278715 -0.960374 0
    outer loop
      vertex 26.6097 36.4386 0
      vertex 26.67 36.4211 2
      vertex 26.6097 36.4386 2
    endloop
  endfacet
  facet normal -0.278715 -0.960374 -0
    outer loop
      vertex 26.67 36.4211 2
      vertex 26.6097 36.4386 0
      vertex 26.67 36.4211 0
    endloop
  endfacet
  facet normal -0.0939822 -0.995574 0
    outer loop
      vertex 26.4238 36.468 0
      vertex 26.4863 36.4621 2
      vertex 26.4238 36.468 2
    endloop
  endfacet
  facet normal -0.0939822 -0.995574 -0
    outer loop
      vertex 26.4863 36.4621 2
      vertex 26.4238 36.468 0
      vertex 26.4863 36.4621 0
    endloop
  endfacet
  facet normal -0.453568 -0.891222 0
    outer loop
      vertex 26.7868 36.3748 0
      vertex 26.8428 36.3463 2
      vertex 26.7868 36.3748 2
    endloop
  endfacet
  facet normal -0.453568 -0.891222 -0
    outer loop
      vertex 26.8428 36.3463 2
      vertex 26.7868 36.3748 0
      vertex 26.8428 36.3463 0
    endloop
  endfacet
  facet normal -0.397563 -0.917575 0
    outer loop
      vertex 26.7291 36.3998 0
      vertex 26.7868 36.3748 2
      vertex 26.7291 36.3998 2
    endloop
  endfacet
  facet normal -0.397563 -0.917575 -0
    outer loop
      vertex 26.7868 36.3748 2
      vertex 26.7291 36.3998 0
      vertex 26.7868 36.3748 0
    endloop
  endfacet
  facet normal -0.613168 -0.789952 0
    outer loop
      vertex 26.9488 36.279 0
      vertex 26.9984 36.2405 2
      vertex 26.9488 36.279 2
    endloop
  endfacet
  facet normal -0.613168 -0.789952 -0
    outer loop
      vertex 26.9984 36.2405 2
      vertex 26.9488 36.279 0
      vertex 26.9984 36.2405 0
    endloop
  endfacet
  facet normal 0.999493 -0.031831 0
    outer loop
      vertex 25.361 35.47 2
      vertex 25.363 35.5328 0
      vertex 25.363 35.5328 2
    endloop
  endfacet
  facet normal 0.999493 -0.031831 0
    outer loop
      vertex 25.363 35.5328 0
      vertex 25.361 35.47 2
      vertex 25.361 35.47 0
    endloop
  endfacet
  facet normal 0.960374 -0.278715 0
    outer loop
      vertex 25.3924 35.7187 2
      vertex 25.4099 35.779 0
      vertex 25.4099 35.779 2
    endloop
  endfacet
  facet normal 0.960374 -0.278715 0
    outer loop
      vertex 25.4099 35.779 0
      vertex 25.3924 35.7187 2
      vertex 25.3924 35.7187 0
    endloop
  endfacet
  facet normal 0.940766 -0.339058 0
    outer loop
      vertex 25.4099 35.779 2
      vertex 25.4312 35.8381 0
      vertex 25.4312 35.8381 2
    endloop
  endfacet
  facet normal 0.940766 -0.339058 0
    outer loop
      vertex 25.4312 35.8381 0
      vertex 25.4099 35.779 2
      vertex 25.4099 35.779 0
    endloop
  endfacet
  facet normal 0.987776 -0.155881 0
    outer loop
      vertex 25.3689 35.5953 2
      vertex 25.3787 35.6574 0
      vertex 25.3787 35.6574 2
    endloop
  endfacet
  facet normal 0.987776 -0.155881 0
    outer loop
      vertex 25.3787 35.6574 0
      vertex 25.3689 35.5953 2
      vertex 25.3689 35.5953 0
    endloop
  endfacet
  facet normal 0.891222 -0.453568 0
    outer loop
      vertex 25.4562 35.8958 2
      vertex 25.4847 35.9518 0
      vertex 25.4847 35.9518 2
    endloop
  endfacet
  facet normal 0.891222 -0.453568 0
    outer loop
      vertex 25.4847 35.9518 0
      vertex 25.4562 35.8958 2
      vertex 25.4562 35.8958 0
    endloop
  endfacet
  facet normal 0.789952 -0.613168 0
    outer loop
      vertex 25.552 36.0578 2
      vertex 25.5905 36.1074 0
      vertex 25.5905 36.1074 2
    endloop
  endfacet
  facet normal 0.789952 -0.613168 0
    outer loop
      vertex 25.5905 36.1074 0
      vertex 25.552 36.0578 2
      vertex 25.552 36.0578 0
    endloop
  endfacet
  facet normal 0.278715 -0.960374 0
    outer loop
      vertex 26.052 36.4211 0
      vertex 26.1123 36.4386 2
      vertex 26.052 36.4211 2
    endloop
  endfacet
  facet normal 0.278715 -0.960374 0
    outer loop
      vertex 26.1123 36.4386 2
      vertex 26.052 36.4211 0
      vertex 26.1123 36.4386 0
    endloop
  endfacet
  facet normal 0.339058 -0.940766 0
    outer loop
      vertex 25.9929 36.3998 0
      vertex 26.052 36.4211 2
      vertex 25.9929 36.3998 2
    endloop
  endfacet
  facet normal 0.339058 -0.940766 0
    outer loop
      vertex 26.052 36.4211 2
      vertex 25.9929 36.3998 0
      vertex 26.052 36.4211 0
    endloop
  endfacet
  facet normal 0.155881 -0.987776 0
    outer loop
      vertex 26.1736 36.4523 0
      vertex 26.2357 36.4621 2
      vertex 26.1736 36.4523 2
    endloop
  endfacet
  facet normal 0.155881 -0.987776 0
    outer loop
      vertex 26.2357 36.4621 2
      vertex 26.1736 36.4523 0
      vertex 26.2357 36.4621 0
    endloop
  endfacet
  facet normal 0.453568 -0.891222 0
    outer loop
      vertex 25.8792 36.3463 0
      vertex 25.9352 36.3748 2
      vertex 25.8792 36.3463 2
    endloop
  endfacet
  facet normal 0.453568 -0.891222 0
    outer loop
      vertex 25.9352 36.3748 2
      vertex 25.8792 36.3463 0
      vertex 25.9352 36.3748 0
    endloop
  endfacet
  facet normal 0.661095 -0.750303 0
    outer loop
      vertex 25.6765 36.199 0
      vertex 25.7236 36.2405 2
      vertex 25.6765 36.199 2
    endloop
  endfacet
  facet normal 0.661095 -0.750303 0
    outer loop
      vertex 25.7236 36.2405 2
      vertex 25.6765 36.199 0
      vertex 25.7236 36.2405 0
    endloop
  endfacet
  facet normal 0.707107 -0.707107 0
    outer loop
      vertex 25.632 36.1545 0
      vertex 25.6765 36.199 2
      vertex 25.632 36.1545 2
    endloop
  endfacet
  facet normal 0.707107 -0.707107 0
    outer loop
      vertex 25.6765 36.199 2
      vertex 25.632 36.1545 0
      vertex 25.6765 36.199 0
    endloop
  endfacet
  facet normal -0.999493 -0.031831 0
    outer loop
      vertex 27.361 35.47 0
      vertex 27.359 35.5328 2
      vertex 27.359 35.5328 0
    endloop
  endfacet
  facet normal -0.999493 -0.031831 0
    outer loop
      vertex 27.359 35.5328 2
      vertex 27.361 35.47 0
      vertex 27.361 35.47 2
    endloop
  endfacet
  facet normal -0.999493 0.031831 0
    outer loop
      vertex 27.359 35.4072 0
      vertex 27.361 35.47 2
      vertex 27.361 35.47 0
    endloop
  endfacet
  facet normal -0.999493 0.031831 0
    outer loop
      vertex 27.361 35.47 2
      vertex 27.359 35.4072 0
      vertex 27.359 35.4072 2
    endloop
  endfacet
  facet normal -0.995574 0.0939822 0
    outer loop
      vertex 27.3531 35.3447 0
      vertex 27.359 35.4072 2
      vertex 27.359 35.4072 0
    endloop
  endfacet
  facet normal -0.995574 0.0939822 0
    outer loop
      vertex 27.359 35.4072 2
      vertex 27.3531 35.3447 0
      vertex 27.3531 35.3447 2
    endloop
  endfacet
  facet normal -0.987776 0.155881 0
    outer loop
      vertex 27.3433 35.2826 0
      vertex 27.3531 35.3447 2
      vertex 27.3531 35.3447 0
    endloop
  endfacet
  facet normal -0.987776 0.155881 0
    outer loop
      vertex 27.3531 35.3447 2
      vertex 27.3433 35.2826 0
      vertex 27.3433 35.2826 2
    endloop
  endfacet
  facet normal -0.891222 0.453568 0
    outer loop
      vertex 27.2373 34.9882 0
      vertex 27.2658 35.0442 2
      vertex 27.2658 35.0442 0
    endloop
  endfacet
  facet normal -0.891222 0.453568 0
    outer loop
      vertex 27.2658 35.0442 2
      vertex 27.2373 34.9882 0
      vertex 27.2373 34.9882 2
    endloop
  endfacet
  facet normal -0.940766 0.339058 0
    outer loop
      vertex 27.2908 35.1019 0
      vertex 27.3121 35.161 2
      vertex 27.3121 35.161 0
    endloop
  endfacet
  facet normal -0.940766 0.339058 0
    outer loop
      vertex 27.3121 35.161 2
      vertex 27.2908 35.1019 0
      vertex 27.2908 35.1019 2
    endloop
  endfacet
  facet normal -0.661095 0.750303 0
    outer loop
      vertex 27.0455 34.741 0
      vertex 26.9984 34.6995 2
      vertex 27.0455 34.741 2
    endloop
  endfacet
  facet normal -0.661095 0.750303 0
    outer loop
      vertex 26.9984 34.6995 2
      vertex 27.0455 34.741 0
      vertex 26.9984 34.6995 0
    endloop
  endfacet
  facet normal -0.789952 0.613168 0
    outer loop
      vertex 27.1315 34.8326 0
      vertex 27.17 34.8822 2
      vertex 27.17 34.8822 0
    endloop
  endfacet
  facet normal -0.789952 0.613168 0
    outer loop
      vertex 27.17 34.8822 2
      vertex 27.1315 34.8326 0
      vertex 27.1315 34.8326 2
    endloop
  endfacet
  facet normal -0.031831 0.999493 0
    outer loop
      vertex 26.4238 34.472 0
      vertex 26.361 34.47 2
      vertex 26.4238 34.472 2
    endloop
  endfacet
  facet normal -0.031831 0.999493 0
    outer loop
      vertex 26.361 34.47 2
      vertex 26.4238 34.472 0
      vertex 26.361 34.47 0
    endloop
  endfacet
  facet normal 0.987776 0.155881 0
    outer loop
      vertex 25.3787 35.2826 2
      vertex 25.3689 35.3447 0
      vertex 25.3689 35.3447 2
    endloop
  endfacet
  facet normal 0.987776 0.155881 0
    outer loop
      vertex 25.3689 35.3447 0
      vertex 25.3787 35.2826 2
      vertex 25.3787 35.2826 0
    endloop
  endfacet
  facet normal 0.940766 0.339058 0
    outer loop
      vertex 25.4312 35.1019 2
      vertex 25.4099 35.161 0
      vertex 25.4099 35.161 2
    endloop
  endfacet
  facet normal 0.940766 0.339058 0
    outer loop
      vertex 25.4099 35.161 0
      vertex 25.4312 35.1019 2
      vertex 25.4312 35.1019 0
    endloop
  endfacet
  facet normal 0.975924 0.21811 0
    outer loop
      vertex 25.3924 35.2213 2
      vertex 25.3787 35.2826 0
      vertex 25.3787 35.2826 2
    endloop
  endfacet
  facet normal 0.975924 0.21811 0
    outer loop
      vertex 25.3787 35.2826 0
      vertex 25.3924 35.2213 2
      vertex 25.3924 35.2213 0
    endloop
  endfacet
  facet normal -0.0939822 0.995574 0
    outer loop
      vertex 26.4863 34.4779 0
      vertex 26.4238 34.472 2
      vertex 26.4863 34.4779 2
    endloop
  endfacet
  facet normal -0.0939822 0.995574 0
    outer loop
      vertex 26.4238 34.472 2
      vertex 26.4863 34.4779 0
      vertex 26.4238 34.472 0
    endloop
  endfacet
  facet normal -0.397563 0.917575 0
    outer loop
      vertex 26.7868 34.5652 0
      vertex 26.7291 34.5402 2
      vertex 26.7868 34.5652 2
    endloop
  endfacet
  facet normal -0.397563 0.917575 0
    outer loop
      vertex 26.7291 34.5402 2
      vertex 26.7868 34.5652 0
      vertex 26.7291 34.5402 0
    endloop
  endfacet
  facet normal -0.453568 0.891222 0
    outer loop
      vertex 26.8428 34.5937 0
      vertex 26.7868 34.5652 2
      vertex 26.8428 34.5937 2
    endloop
  endfacet
  facet normal -0.453568 0.891222 0
    outer loop
      vertex 26.7868 34.5652 2
      vertex 26.8428 34.5937 0
      vertex 26.7868 34.5652 0
    endloop
  endfacet
  facet normal -0.891222 -0.453568 0
    outer loop
      vertex 27.2658 35.8958 0
      vertex 27.2373 35.9518 2
      vertex 27.2373 35.9518 0
    endloop
  endfacet
  facet normal -0.891222 -0.453568 0
    outer loop
      vertex 27.2373 35.9518 2
      vertex 27.2658 35.8958 0
      vertex 27.2658 35.8958 2
    endloop
  endfacet
  facet normal -0.917575 -0.397563 0
    outer loop
      vertex 27.2908 35.8381 0
      vertex 27.2658 35.8958 2
      vertex 27.2658 35.8958 0
    endloop
  endfacet
  facet normal -0.917575 -0.397563 0
    outer loop
      vertex 27.2658 35.8958 2
      vertex 27.2908 35.8381 0
      vertex 27.2908 35.8381 2
    endloop
  endfacet
  facet normal -0.960374 -0.278715 0
    outer loop
      vertex 27.3296 35.7187 0
      vertex 27.3121 35.779 2
      vertex 27.3121 35.779 0
    endloop
  endfacet
  facet normal -0.960374 -0.278715 0
    outer loop
      vertex 27.3121 35.779 2
      vertex 27.3296 35.7187 0
      vertex 27.3296 35.7187 2
    endloop
  endfacet
  facet normal -0.995574 -0.0939822 0
    outer loop
      vertex 27.359 35.5328 0
      vertex 27.3531 35.5953 2
      vertex 27.3531 35.5953 0
    endloop
  endfacet
  facet normal -0.995574 -0.0939822 0
    outer loop
      vertex 27.3531 35.5953 2
      vertex 27.359 35.5328 0
      vertex 27.359 35.5328 2
    endloop
  endfacet
  facet normal -0.707107 -0.707107 0
    outer loop
      vertex 27.0455 36.199 0
      vertex 27.09 36.1545 2
      vertex 27.0455 36.199 2
    endloop
  endfacet
  facet normal -0.707107 -0.707107 -0
    outer loop
      vertex 27.09 36.1545 2
      vertex 27.0455 36.199 0
      vertex 27.09 36.1545 0
    endloop
  endfacet
  facet normal -0.031831 -0.999493 0
    outer loop
      vertex 26.361 36.47 0
      vertex 26.4238 36.468 2
      vertex 26.361 36.47 2
    endloop
  endfacet
  facet normal -0.031831 -0.999493 -0
    outer loop
      vertex 26.4238 36.468 2
      vertex 26.361 36.47 0
      vertex 26.4238 36.468 0
    endloop
  endfacet
  facet normal 0 0 -1
    outer loop
      vertex 27.359 35.4072 2
      vertex 27.359 35.5328 2
      vertex 27.361 35.47 2
    endloop
  endfacet
  facet normal 0 0 -1
    outer loop
      vertex 27.3531 35.3447 2
      vertex 27.359 35.5328 2
      vertex 27.359 35.4072 2
    endloop
  endfacet
  facet normal 0 0 -1
    outer loop
      vertex 27.3531 35.3447 2
      vertex 27.3531 35.5953 2
      vertex 27.359 35.5328 2
    endloop
  endfacet
  facet normal 0 0 -1
    outer loop
      vertex 27.3433 35.2826 2
      vertex 27.3531 35.5953 2
      vertex 27.3531 35.3447 2
    endloop
  endfacet
  facet normal 0 0 -1
    outer loop
      vertex 27.3433 35.2826 2
      vertex 27.3433 35.6574 2
      vertex 27.3531 35.5953 2
    endloop
  endfacet
  facet normal 0 0 -1
    outer loop
      vertex 27.3296 35.2213 2
      vertex 27.3433 35.6574 2
      vertex 27.3433 35.2826 2
    endloop
  endfacet
  facet normal 0 0 -1
    outer loop
      vertex 27.3296 35.2213 2
      vertex 27.3296 35.7187 2
      vertex 27.3433 35.6574 2
    endloop
  endfacet
  facet normal 0 0 -1
    outer loop
      vertex 27.3121 35.161 2
      vertex 27.3296 35.7187 2
      vertex 27.3296 35.2213 2
    endloop
  endfacet
  facet normal 0 0 -1
    outer loop
      vertex 27.3121 35.161 2
      vertex 27.3121 35.779 2
      vertex 27.3296 35.7187 2
    endloop
  endfacet
  facet normal 0 0 -1
    outer loop
      vertex 27.2908 35.1019 2
      vertex 27.3121 35.779 2
      vertex 27.3121 35.161 2
    endloop
  endfacet
  facet normal 0 0 -1
    outer loop
      vertex 27.2908 35.1019 2
      vertex 27.2908 35.8381 2
      vertex 27.3121 35.779 2
    endloop
  endfacet
  facet normal 0 0 -1
    outer loop
      vertex 27.2658 35.0442 2
      vertex 27.2908 35.8381 2
      vertex 27.2908 35.1019 2
    endloop
  endfacet
  facet normal 0 0 -1
    outer loop
      vertex 27.2658 35.0442 2
      vertex 27.2658 35.8958 2
      vertex 27.2908 35.8381 2
    endloop
  endfacet
  facet normal 0 0 -1
    outer loop
      vertex 27.2373 34.9882 2
      vertex 27.2658 35.8958 2
      vertex 27.2658 35.0442 2
    endloop
  endfacet
  facet normal 0 0 -1
    outer loop
      vertex 27.2373 34.9882 2
      vertex 27.2373 35.9518 2
      vertex 27.2658 35.8958 2
    endloop
  endfacet
  facet normal 0 0 -1
    outer loop
      vertex 27.2053 34.9342 2
      vertex 27.2373 35.9518 2
      vertex 27.2373 34.9882 2
    endloop
  endfacet
  facet normal 0 0 -1
    outer loop
      vertex 27.2053 34.9342 2
      vertex 27.2053 36.0058 2
      vertex 27.2373 35.9518 2
    endloop
  endfacet
  facet normal 0 0 -1
    outer loop
      vertex 27.17 34.8822 2
      vertex 27.2053 36.0058 2
      vertex 27.2053 34.9342 2
    endloop
  endfacet
  facet normal 0 0 -1
    outer loop
      vertex 27.17 34.8822 2
      vertex 27.17 36.0578 2
      vertex 27.2053 36.0058 2
    endloop
  endfacet
  facet normal 0 0 -1
    outer loop
      vertex 27.1315 34.8326 2
      vertex 27.17 36.0578 2
      vertex 27.17 34.8822 2
    endloop
  endfacet
  facet normal 0 0 -1
    outer loop
      vertex 27.1315 34.8326 2
      vertex 27.1315 36.1074 2
      vertex 27.17 36.0578 2
    endloop
  endfacet
  facet normal 0 0 -1
    outer loop
      vertex 27.09 34.7855 2
      vertex 27.1315 36.1074 2
      vertex 27.1315 34.8326 2
    endloop
  endfacet
  facet normal 0 0 -1
    outer loop
      vertex 27.09 34.7855 2
      vertex 27.09 36.1545 2
      vertex 27.1315 36.1074 2
    endloop
  endfacet
  facet normal 0 0 -1
    outer loop
      vertex 27.0455 34.741 2
      vertex 27.09 36.1545 2
      vertex 27.09 34.7855 2
    endloop
  endfacet
  facet normal 0 0 -1
    outer loop
      vertex 27.0455 34.741 2
      vertex 27.0455 36.199 2
      vertex 27.09 36.1545 2
    endloop
  endfacet
  facet normal 0 0 -1
    outer loop
      vertex 26.9984 34.6995 2
      vertex 27.0455 36.199 2
      vertex 27.0455 34.741 2
    endloop
  endfacet
  facet normal 0 0 -1
    outer loop
      vertex 26.9984 34.6995 2
      vertex 26.9984 36.2405 2
      vertex 27.0455 36.199 2
    endloop
  endfacet
  facet normal 0 0 -1
    outer loop
      vertex 26.9488 34.661 2
      vertex 26.9984 36.2405 2
      vertex 26.9984 34.6995 2
    endloop
  endfacet
  facet normal 0 0 -1
    outer loop
      vertex 26.9488 34.661 2
      vertex 26.9488 36.279 2
      vertex 26.9984 36.2405 2
    endloop
  endfacet
  facet normal 0 0 -1
    outer loop
      vertex 26.8968 34.6257 2
      vertex 26.9488 36.279 2
      vertex 26.9488 34.661 2
    endloop
  endfacet
  facet normal 0 0 -1
    outer loop
      vertex 26.8968 34.6257 2
      vertex 26.8968 36.3143 2
      vertex 26.9488 36.279 2
    endloop
  endfacet
  facet normal 0 0 -1
    outer loop
      vertex 26.8428 34.5937 2
      vertex 26.8968 36.3143 2
      vertex 26.8968 34.6257 2
    endloop
  endfacet
  facet normal 0 0 -1
    outer loop
      vertex 26.8428 34.5937 2
      vertex 26.8428 36.3463 2
      vertex 26.8968 36.3143 2
    endloop
  endfacet
  facet normal 0 0 -1
    outer loop
      vertex 26.7868 34.5652 2
      vertex 26.8428 36.3463 2
      vertex 26.8428 34.5937 2
    endloop
  endfacet
  facet normal 0 0 -1
    outer loop
      vertex 26.7868 34.5652 2
      vertex 26.7868 36.3748 2
      vertex 26.8428 36.3463 2
    endloop
  endfacet
  facet normal 0 0 -1
    outer loop
      vertex 26.7291 34.5402 2
      vertex 26.7868 36.3748 2
      vertex 26.7868 34.5652 2
    endloop
  endfacet
  facet normal 0 0 -1
    outer loop
      vertex 26.7291 34.5402 2
      vertex 26.7291 36.3998 2
      vertex 26.7868 36.3748 2
    endloop
  endfacet
  facet normal 0 0 -1
    outer loop
      vertex 26.67 34.5189 2
      vertex 26.7291 36.3998 2
      vertex 26.7291 34.5402 2
    endloop
  endfacet
  facet normal 0 0 -1
    outer loop
      vertex 26.67 34.5189 2
      vertex 26.67 36.4211 2
      vertex 26.7291 36.3998 2
    endloop
  endfacet
  facet normal 0 0 -1
    outer loop
      vertex 26.6097 34.5014 2
      vertex 26.67 36.4211 2
      vertex 26.67 34.5189 2
    endloop
  endfacet
  facet normal 0 0 -1
    outer loop
      vertex 26.6097 34.5014 2
      vertex 26.6097 36.4386 2
      vertex 26.67 36.4211 2
    endloop
  endfacet
  facet normal 0 0 -1
    outer loop
      vertex 26.5484 34.4877 2
      vertex 26.6097 36.4386 2
      vertex 26.6097 34.5014 2
    endloop
  endfacet
  facet normal 0 0 -1
    outer loop
      vertex 26.5484 34.4877 2
      vertex 26.5484 36.4523 2
      vertex 26.6097 36.4386 2
    endloop
  endfacet
  facet normal 0 0 -1
    outer loop
      vertex 26.4863 34.4779 2
      vertex 26.5484 36.4523 2
      vertex 26.5484 34.4877 2
    endloop
  endfacet
  facet normal 0 0 -1
    outer loop
      vertex 26.4863 34.4779 2
      vertex 26.4863 36.4621 2
      vertex 26.5484 36.4523 2
    endloop
  endfacet
  facet normal 0 0 -1
    outer loop
      vertex 26.4238 34.472 2
      vertex 26.4863 36.4621 2
      vertex 26.4863 34.4779 2
    endloop
  endfacet
  facet normal 0 0 -1
    outer loop
      vertex 26.4238 34.472 2
      vertex 26.4238 36.468 2
      vertex 26.4863 36.4621 2
    endloop
  endfacet
  facet normal 0 0 -1
    outer loop
      vertex 26.361 34.47 2
      vertex 26.4238 36.468 2
      vertex 26.4238 34.472 2
    endloop
  endfacet
  facet normal 0 0 -1
    outer loop
      vertex 26.361 34.47 2
      vertex 26.361 36.47 2
      vertex 26.4238 36.468 2
    endloop
  endfacet
  facet normal 0 0 -1
    outer loop
      vertex 26.2982 34.472 2
      vertex 26.361 36.47 2
      vertex 26.361 34.47 2
    endloop
  endfacet
  facet normal 0 0 -1
    outer loop
      vertex 26.2982 34.472 2
      vertex 26.2982 36.468 2
      vertex 26.361 36.47 2
    endloop
  endfacet
  facet normal 0 0 -1
    outer loop
      vertex 26.2357 34.4779 2
      vertex 26.2982 36.468 2
      vertex 26.2982 34.472 2
    endloop
  endfacet
  facet normal 0 0 -1
    outer loop
      vertex 26.2357 34.4779 2
      vertex 26.2357 36.4621 2
      vertex 26.2982 36.468 2
    endloop
  endfacet
  facet normal 0 0 -1
    outer loop
      vertex 26.1736 34.4877 2
      vertex 26.2357 36.4621 2
      vertex 26.2357 34.4779 2
    endloop
  endfacet
  facet normal 0 0 -1
    outer loop
      vertex 26.1736 34.4877 2
      vertex 26.1736 36.4523 2
      vertex 26.2357 36.4621 2
    endloop
  endfacet
  facet normal 0 0 -1
    outer loop
      vertex 26.1123 34.5014 2
      vertex 26.1736 36.4523 2
      vertex 26.1736 34.4877 2
    endloop
  endfacet
  facet normal 0 0 -1
    outer loop
      vertex 26.1123 34.5014 2
      vertex 26.1123 36.4386 2
      vertex 26.1736 36.4523 2
    endloop
  endfacet
  facet normal 0 0 -1
    outer loop
      vertex 26.052 34.5189 2
      vertex 26.1123 36.4386 2
      vertex 26.1123 34.5014 2
    endloop
  endfacet
  facet normal 0 0 -1
    outer loop
      vertex 26.052 34.5189 2
      vertex 26.052 36.4211 2
      vertex 26.1123 36.4386 2
    endloop
  endfacet
  facet normal 0 0 -1
    outer loop
      vertex 25.9929 34.5402 2
      vertex 26.052 36.4211 2
      vertex 26.052 34.5189 2
    endloop
  endfacet
  facet normal 0 0 -1
    outer loop
      vertex 25.9929 34.5402 2
      vertex 25.9929 36.3998 2
      vertex 26.052 36.4211 2
    endloop
  endfacet
  facet normal 0 0 -1
    outer loop
      vertex 25.9352 34.5652 2
      vertex 25.9929 36.3998 2
      vertex 25.9929 34.5402 2
    endloop
  endfacet
  facet normal 0 0 -1
    outer loop
      vertex 25.9352 34.5652 2
      vertex 25.9352 36.3748 2
      vertex 25.9929 36.3998 2
    endloop
  endfacet
  facet normal 0 0 -1
    outer loop
      vertex 25.8792 34.5937 2
      vertex 25.9352 36.3748 2
      vertex 25.9352 34.5652 2
    endloop
  endfacet
  facet normal 0 0 -1
    outer loop
      vertex 25.8792 34.5937 2
      vertex 25.8792 36.3463 2
      vertex 25.9352 36.3748 2
    endloop
  endfacet
  facet normal 0 0 -1
    outer loop
      vertex 25.8252 34.6257 2
      vertex 25.8792 36.3463 2
      vertex 25.8792 34.5937 2
    endloop
  endfacet
  facet normal 0 0 -1
    outer loop
      vertex 25.8252 34.6257 2
      vertex 25.8252 36.3143 2
      vertex 25.8792 36.3463 2
    endloop
  endfacet
  facet normal 0 0 -1
    outer loop
      vertex 25.7732 34.661 2
      vertex 25.8252 36.3143 2
      vertex 25.8252 34.6257 2
    endloop
  endfacet
  facet normal 0 0 -1
    outer loop
      vertex 25.7732 34.661 2
      vertex 25.7732 36.279 2
      vertex 25.8252 36.3143 2
    endloop
  endfacet
  facet normal 0 0 -1
    outer loop
      vertex 25.7236 34.6995 2
      vertex 25.7732 36.279 2
      vertex 25.7732 34.661 2
    endloop
  endfacet
  facet normal 0 0 -1
    outer loop
      vertex 25.7236 34.6995 2
      vertex 25.7236 36.2405 2
      vertex 25.7732 36.279 2
    endloop
  endfacet
  facet normal 0 0 -1
    outer loop
      vertex 25.6765 34.741 2
      vertex 25.7236 36.2405 2
      vertex 25.7236 34.6995 2
    endloop
  endfacet
  facet normal 0 0 -1
    outer loop
      vertex 25.6765 34.741 2
      vertex 25.6765 36.199 2
      vertex 25.7236 36.2405 2
    endloop
  endfacet
  facet normal 0 0 -1
    outer loop
      vertex 25.632 34.7855 2
      vertex 25.6765 36.199 2
      vertex 25.6765 34.741 2
    endloop
  endfacet
  facet normal 0 0 -1
    outer loop
      vertex 25.632 34.7855 2
      vertex 25.632 36.1545 2
      vertex 25.6765 36.199 2
    endloop
  endfacet
  facet normal 0 0 -1
    outer loop
      vertex 25.5905 34.8326 2
      vertex 25.632 36.1545 2
      vertex 25.632 34.7855 2
    endloop
  endfacet
  facet normal 0 0 -1
    outer loop
      vertex 25.5905 34.8326 2
      vertex 25.5905 36.1074 2
      vertex 25.632 36.1545 2
    endloop
  endfacet
  facet normal 0 0 -1
    outer loop
      vertex 25.552 34.8822 2
      vertex 25.5905 36.1074 2
      vertex 25.5905 34.8326 2
    endloop
  endfacet
  facet normal 0 0 -1
    outer loop
      vertex 25.552 34.8822 2
      vertex 25.552 36.0578 2
      vertex 25.5905 36.1074 2
    endloop
  endfacet
  facet normal 0 0 -1
    outer loop
      vertex 25.5167 34.9342 2
      vertex 25.552 36.0578 2
      vertex 25.552 34.8822 2
    endloop
  endfacet
  facet normal 0 0 -1
    outer loop
      vertex 25.5167 34.9342 2
      vertex 25.5167 36.0058 2
      vertex 25.552 36.0578 2
    endloop
  endfacet
  facet normal 0 0 -1
    outer loop
      vertex 25.4847 34.9882 2
      vertex 25.5167 36.0058 2
      vertex 25.5167 34.9342 2
    endloop
  endfacet
  facet normal 0 0 -1
    outer loop
      vertex 25.4847 34.9882 2
      vertex 25.4847 35.9518 2
      vertex 25.5167 36.0058 2
    endloop
  endfacet
  facet normal 0 0 -1
    outer loop
      vertex 25.4562 35.0442 2
      vertex 25.4847 35.9518 2
      vertex 25.4847 34.9882 2
    endloop
  endfacet
  facet normal 0 0 -1
    outer loop
      vertex 25.4562 35.0442 2
      vertex 25.4562 35.8958 2
      vertex 25.4847 35.9518 2
    endloop
  endfacet
  facet normal 0 0 -1
    outer loop
      vertex 25.4312 35.1019 2
      vertex 25.4562 35.8958 2
      vertex 25.4562 35.0442 2
    endloop
  endfacet
  facet normal 0 0 -1
    outer loop
      vertex 25.4312 35.1019 2
      vertex 25.4312 35.8381 2
      vertex 25.4562 35.8958 2
    endloop
  endfacet
  facet normal 0 0 -1
    outer loop
      vertex 25.4099 35.161 2
      vertex 25.4312 35.8381 2
      vertex 25.4312 35.1019 2
    endloop
  endfacet
  facet normal 0 0 -1
    outer loop
      vertex 25.4099 35.161 2
      vertex 25.4099 35.779 2
      vertex 25.4312 35.8381 2
    endloop
  endfacet
  facet normal 0 0 -1
    outer loop
      vertex 25.3924 35.2213 2
      vertex 25.4099 35.779 2
      vertex 25.4099 35.161 2
    endloop
  endfacet
  facet normal 0 0 -1
    outer loop
      vertex 25.3924 35.2213 2
      vertex 25.3924 35.7187 2
      vertex 25.4099 35.779 2
    endloop
  endfacet
  facet normal 0 0 -1
    outer loop
      vertex 25.3787 35.2826 2
      vertex 25.3924 35.7187 2
      vertex 25.3924 35.2213 2
    endloop
  endfacet
  facet normal 0 0 -1
    outer loop
      vertex 25.3787 35.2826 2
      vertex 25.3787 35.6574 2
      vertex 25.3924 35.7187 2
    endloop
  endfacet
  facet normal 0 0 -1
    outer loop
      vertex 25.3689 35.3447 2
      vertex 25.3787 35.6574 2
      vertex 25.3787 35.2826 2
    endloop
  endfacet
  facet normal 0 0 -1
    outer loop
      vertex 25.3689 35.3447 2
      vertex 25.3689 35.5953 2
      vertex 25.3787 35.6574 2
    endloop
  endfacet
  facet normal 0 0 -1
    outer loop
      vertex 25.363 35.4072 2
      vertex 25.3689 35.5953 2
      vertex 25.3689 35.3447 2
    endloop
  endfacet
  facet normal 0 0 -1
    outer loop
      vertex 25.363 35.4072 2
      vertex 25.363 35.5328 2
      vertex 25.3689 35.5953 2
    endloop
  endfacet
  facet normal 0 -0 -1
    outer loop
      vertex 25.363 35.5328 2
      vertex 25.363 35.4072 2
      vertex 25.361 35.47 2
    endloop
  endfacet
  facet normal 0.995574 -0.0939822 0
    outer loop
      vertex 25.363 35.5328 2
      vertex 25.3689 35.5953 0
      vertex 25.3689 35.5953 2
    endloop
  endfacet
  facet normal 0.995574 -0.0939822 0
    outer loop
      vertex 25.3689 35.5953 0
      vertex 25.363 35.5328 2
      vertex 25.363 35.5328 0
    endloop
  endfacet
  facet normal -0.975924 0.21811 0
    outer loop
      vertex 27.3296 35.2213 0
      vertex 27.3433 35.2826 2
      vertex 27.3433 35.2826 0
    endloop
  endfacet
  facet normal -0.975924 0.21811 0
    outer loop
      vertex 27.3433 35.2826 2
      vertex 27.3296 35.2213 0
      vertex 27.3296 35.2213 2
    endloop
  endfacet
  facet normal -0.82737 0.561657 0
    outer loop
      vertex 27.17 34.8822 0
      vertex 27.2053 34.9342 2
      vertex 27.2053 34.9342 0
    endloop
  endfacet
  facet normal -0.82737 0.561657 0
    outer loop
      vertex 27.2053 34.9342 2
      vertex 27.17 34.8822 0
      vertex 27.17 34.8822 2
    endloop
  endfacet
  facet normal -0.860292 0.509802 0
    outer loop
      vertex 27.2053 34.9342 0
      vertex 27.2373 34.9882 2
      vertex 27.2373 34.9882 0
    endloop
  endfacet
  facet normal -0.860292 0.509802 0
    outer loop
      vertex 27.2373 34.9882 2
      vertex 27.2053 34.9342 0
      vertex 27.2053 34.9342 2
    endloop
  endfacet
  facet normal 0.278715 0.960374 -0
    outer loop
      vertex 26.1123 34.5014 0
      vertex 26.052 34.5189 2
      vertex 26.1123 34.5014 2
    endloop
  endfacet
  facet normal 0.278715 0.960374 0
    outer loop
      vertex 26.052 34.5189 2
      vertex 26.1123 34.5014 0
      vertex 26.052 34.5189 0
    endloop
  endfacet
  facet normal 0.999493 0.031831 0
    outer loop
      vertex 25.363 35.4072 2
      vertex 25.361 35.47 0
      vertex 25.361 35.47 2
    endloop
  endfacet
  facet normal 0.999493 0.031831 0
    outer loop
      vertex 25.361 35.47 0
      vertex 25.363 35.4072 2
      vertex 25.363 35.4072 0
    endloop
  endfacet
  facet normal 0.789952 0.613168 0
    outer loop
      vertex 25.5905 34.8326 2
      vertex 25.552 34.8822 0
      vertex 25.552 34.8822 2
    endloop
  endfacet
  facet normal 0.789952 0.613168 0
    outer loop
      vertex 25.552 34.8822 0
      vertex 25.5905 34.8326 2
      vertex 25.5905 34.8326 0
    endloop
  endfacet
  facet normal 0.960374 0.278715 0
    outer loop
      vertex 25.4099 35.161 2
      vertex 25.3924 35.2213 0
      vertex 25.3924 35.2213 2
    endloop
  endfacet
  facet normal 0.960374 0.278715 0
    outer loop
      vertex 25.3924 35.2213 0
      vertex 25.4099 35.161 2
      vertex 25.4099 35.161 0
    endloop
  endfacet
  facet normal -0.21811 0.975924 0
    outer loop
      vertex 26.6097 34.5014 0
      vertex 26.5484 34.4877 2
      vertex 26.6097 34.5014 2
    endloop
  endfacet
  facet normal -0.21811 0.975924 0
    outer loop
      vertex 26.5484 34.4877 2
      vertex 26.6097 34.5014 0
      vertex 26.5484 34.4877 0
    endloop
  endfacet
  facet normal -0.155881 0.987776 0
    outer loop
      vertex 26.5484 34.4877 0
      vertex 26.4863 34.4779 2
      vertex 26.5484 34.4877 2
    endloop
  endfacet
  facet normal -0.155881 0.987776 0
    outer loop
      vertex 26.4863 34.4779 2
      vertex 26.5484 34.4877 0
      vertex 26.4863 34.4779 0
    endloop
  endfacet
  facet normal -0.975924 -0.21811 0
    outer loop
      vertex 27.3433 35.6574 0
      vertex 27.3296 35.7187 2
      vertex 27.3296 35.7187 0
    endloop
  endfacet
  facet normal -0.975924 -0.21811 0
    outer loop
      vertex 27.3296 35.7187 2
      vertex 27.3433 35.6574 0
      vertex 27.3433 35.6574 2
    endloop
  endfacet
  facet normal -0.960374 0.278715 0
    outer loop
      vertex 27.3121 35.161 0
      vertex 27.3296 35.2213 2
      vertex 27.3296 35.2213 0
    endloop
  endfacet
  facet normal -0.960374 0.278715 0
    outer loop
      vertex 27.3296 35.2213 2
      vertex 27.3121 35.161 0
      vertex 27.3121 35.161 2
    endloop
  endfacet
  facet normal -0.917575 0.397563 0
    outer loop
      vertex 27.2658 35.0442 0
      vertex 27.2908 35.1019 2
      vertex 27.2908 35.1019 0
    endloop
  endfacet
  facet normal -0.917575 0.397563 0
    outer loop
      vertex 27.2908 35.1019 2
      vertex 27.2658 35.0442 0
      vertex 27.2658 35.0442 2
    endloop
  endfacet
  facet normal -0.750303 0.661095 0
    outer loop
      vertex 27.09 34.7855 0
      vertex 27.1315 34.8326 2
      vertex 27.1315 34.8326 0
    endloop
  endfacet
  facet normal -0.750303 0.661095 0
    outer loop
      vertex 27.1315 34.8326 2
      vertex 27.09 34.7855 0
      vertex 27.09 34.7855 2
    endloop
  endfacet
  facet normal -0.707107 0.707107 0
    outer loop
      vertex 27.0455 34.741 0
      vertex 27.09 34.7855 2
      vertex 27.09 34.7855 0
    endloop
  endfacet
  facet normal -0.707107 0.707107 0
    outer loop
      vertex 27.09 34.7855 2
      vertex 27.0455 34.741 0
      vertex 27.0455 34.741 2
    endloop
  endfacet
  facet normal 0.561657 0.82737 -0
    outer loop
      vertex 25.8252 34.6257 0
      vertex 25.7732 34.661 2
      vertex 25.8252 34.6257 2
    endloop
  endfacet
  facet normal 0.561657 0.82737 0
    outer loop
      vertex 25.7732 34.661 2
      vertex 25.8252 34.6257 0
      vertex 25.7732 34.661 0
    endloop
  endfacet
  facet normal 0.155881 0.987776 -0
    outer loop
      vertex 26.2357 34.4779 0
      vertex 26.1736 34.4877 2
      vertex 26.2357 34.4779 2
    endloop
  endfacet
  facet normal 0.155881 0.987776 0
    outer loop
      vertex 26.1736 34.4877 2
      vertex 26.2357 34.4779 0
      vertex 26.1736 34.4877 0
    endloop
  endfacet
  facet normal 0.0939822 0.995574 -0
    outer loop
      vertex 26.2982 34.472 0
      vertex 26.2357 34.4779 2
      vertex 26.2982 34.472 2
    endloop
  endfacet
  facet normal 0.0939822 0.995574 0
    outer loop
      vertex 26.2357 34.4779 2
      vertex 26.2982 34.472 0
      vertex 26.2357 34.4779 0
    endloop
  endfacet
  facet normal 0.031831 0.999493 -0
    outer loop
      vertex 26.361 34.47 0
      vertex 26.2982 34.472 2
      vertex 26.361 34.47 2
    endloop
  endfacet
  facet normal 0.031831 0.999493 0
    outer loop
      vertex 26.2982 34.472 2
      vertex 26.361 34.47 0
      vertex 26.2982 34.472 0
    endloop
  endfacet
  facet normal 0.860292 0.509802 0
    outer loop
      vertex 25.5167 34.9342 2
      vertex 25.4847 34.9882 0
      vertex 25.4847 34.9882 2
    endloop
  endfacet
  facet normal 0.860292 0.509802 0
    outer loop
      vertex 25.4847 34.9882 0
      vertex 25.5167 34.9342 2
      vertex 25.5167 34.9342 0
    endloop
  endfacet
  facet normal 0.750303 0.661095 0
    outer loop
      vertex 25.632 34.7855 2
      vertex 25.5905 34.8326 0
      vertex 25.5905 34.8326 2
    endloop
  endfacet
  facet normal 0.750303 0.661095 0
    outer loop
      vertex 25.5905 34.8326 0
      vertex 25.632 34.7855 2
      vertex 25.632 34.7855 0
    endloop
  endfacet
  facet normal 0.82737 0.561657 0
    outer loop
      vertex 25.552 34.8822 2
      vertex 25.5167 34.9342 0
      vertex 25.5167 34.9342 2
    endloop
  endfacet
  facet normal 0.82737 0.561657 0
    outer loop
      vertex 25.5167 34.9342 0
      vertex 25.552 34.8822 2
      vertex 25.552 34.8822 0
    endloop
  endfacet
  facet normal 0.707107 0.707107 0
    outer loop
      vertex 25.6765 34.741 2
      vertex 25.632 34.7855 0
      vertex 25.632 34.7855 2
    endloop
  endfacet
  facet normal 0.707107 0.707107 0
    outer loop
      vertex 25.632 34.7855 0
      vertex 25.6765 34.741 2
      vertex 25.6765 34.741 0
    endloop
  endfacet
  facet normal 0.995574 0.0939822 0
    outer loop
      vertex 25.3689 35.3447 2
      vertex 25.363 35.4072 0
      vertex 25.363 35.4072 2
    endloop
  endfacet
  facet normal 0.995574 0.0939822 0
    outer loop
      vertex 25.363 35.4072 0
      vertex 25.3689 35.3447 2
      vertex 25.3689 35.3447 0
    endloop
  endfacet
  facet normal -0.278715 0.960374 0
    outer loop
      vertex 26.67 34.5189 0
      vertex 26.6097 34.5014 2
      vertex 26.67 34.5189 2
    endloop
  endfacet
  facet normal -0.278715 0.960374 0
    outer loop
      vertex 26.6097 34.5014 2
      vertex 26.67 34.5189 0
      vertex 26.6097 34.5014 0
    endloop
  endfacet
  facet normal -0.339058 0.940766 0
    outer loop
      vertex 26.7291 34.5402 0
      vertex 26.67 34.5189 2
      vertex 26.7291 34.5402 2
    endloop
  endfacet
  facet normal -0.339058 0.940766 0
    outer loop
      vertex 26.67 34.5189 2
      vertex 26.7291 34.5402 0
      vertex 26.67 34.5189 0
    endloop
  endfacet
  facet normal -0.613168 0.789952 0
    outer loop
      vertex 26.9984 34.6995 0
      vertex 26.9488 34.661 2
      vertex 26.9984 34.6995 2
    endloop
  endfacet
  facet normal -0.613168 0.789952 0
    outer loop
      vertex 26.9488 34.661 2
      vertex 26.9984 34.6995 0
      vertex 26.9488 34.661 0
    endloop
  endfacet
  facet normal -0.561657 0.82737 0
    outer loop
      vertex 26.9488 34.661 0
      vertex 26.8968 34.6257 2
      vertex 26.9488 34.661 2
    endloop
  endfacet
  facet normal -0.561657 0.82737 0
    outer loop
      vertex 26.8968 34.6257 2
      vertex 26.9488 34.661 0
      vertex 26.8968 34.6257 0
    endloop
  endfacet
  facet normal 0.397563 0.917575 -0
    outer loop
      vertex 25.9929 34.5402 0
      vertex 25.9352 34.5652 2
      vertex 25.9929 34.5402 2
    endloop
  endfacet
  facet normal 0.397563 0.917575 0
    outer loop
      vertex 25.9352 34.5652 2
      vertex 25.9929 34.5402 0
      vertex 25.9352 34.5652 0
    endloop
  endfacet
  facet normal 0.339058 0.940766 -0
    outer loop
      vertex 26.052 34.5189 0
      vertex 25.9929 34.5402 2
      vertex 26.052 34.5189 2
    endloop
  endfacet
  facet normal 0.339058 0.940766 0
    outer loop
      vertex 25.9929 34.5402 2
      vertex 26.052 34.5189 0
      vertex 25.9929 34.5402 0
    endloop
  endfacet
  facet normal 0.509802 0.860292 -0
    outer loop
      vertex 25.8792 34.5937 0
      vertex 25.8252 34.6257 2
      vertex 25.8792 34.5937 2
    endloop
  endfacet
  facet normal 0.509802 0.860292 0
    outer loop
      vertex 25.8252 34.6257 2
      vertex 25.8792 34.5937 0
      vertex 25.8252 34.6257 0
    endloop
  endfacet
  facet normal 0.613168 0.789952 -0
    outer loop
      vertex 25.7732 34.661 0
      vertex 25.7236 34.6995 2
      vertex 25.7732 34.661 2
    endloop
  endfacet
  facet normal 0.613168 0.789952 0
    outer loop
      vertex 25.7236 34.6995 2
      vertex 25.7732 34.661 0
      vertex 25.7236 34.6995 0
    endloop
  endfacet
  facet normal 0.661095 0.750303 -0
    outer loop
      vertex 25.7236 34.6995 0
      vertex 25.6765 34.741 2
      vertex 25.7236 34.6995 2
    endloop
  endfacet
  facet normal 0.661095 0.750303 0
    outer loop
      vertex 25.6765 34.741 2
      vertex 25.7236 34.6995 0
      vertex 25.6765 34.741 0
    endloop
  endfacet
  facet normal 0.21811 0.975924 -0
    outer loop
      vertex 26.1736 34.4877 0
      vertex 26.1123 34.5014 2
      vertex 26.1736 34.4877 2
    endloop
  endfacet
  facet normal 0.21811 0.975924 0
    outer loop
      vertex 26.1123 34.5014 2
      vertex 26.1736 34.4877 0
      vertex 26.1123 34.5014 0
    endloop
  endfacet
  facet normal 0.891222 0.453568 0
    outer loop
      vertex 25.4847 34.9882 2
      vertex 25.4562 35.0442 0
      vertex 25.4562 35.0442 2
    endloop
  endfacet
  facet normal 0.891222 0.453568 0
    outer loop
      vertex 25.4562 35.0442 0
      vertex 25.4847 34.9882 2
      vertex 25.4847 34.9882 0
    endloop
  endfacet
  facet normal 0.453568 0.891222 -0
    outer loop
      vertex 25.9352 34.5652 0
      vertex 25.8792 34.5937 2
      vertex 25.9352 34.5652 2
    endloop
  endfacet
  facet normal 0.453568 0.891222 0
    outer loop
      vertex 25.8792 34.5937 2
      vertex 25.9352 34.5652 0
      vertex 25.8792 34.5937 0
    endloop
  endfacet
endsolid OpenSCAD_Model
