solid OpenSCAD_Model
  facet normal 0 0 -1
    outer loop
      vertex 21.0641 12.2117 0
      vertex 25.1176 15.7324 0
      vertex 27.6948 9.03279 0
    endloop
  endfacet
  facet normal 0 0 -1
    outer loop
      vertex 25.1176 15.7324 0
      vertex 21.07 12.2742 0
      vertex 21.072 12.337 0
    endloop
  endfacet
  facet normal 0 0 -1
    outer loop
      vertex 25.1176 15.7324 0
      vertex 21.0641 12.2117 0
      vertex 21.07 12.2742 0
    endloop
  endfacet
  facet normal 0 0 -1
    outer loop
      vertex 27.6948 9.03279 0
      vertex 21.0543 12.1496 0
      vertex 21.0641 12.2117 0
    endloop
  endfacet
  facet normal 0 0 -1
    outer loop
      vertex 27.6948 9.03279 0
      vertex 21.0406 12.0883 0
      vertex 21.0543 12.1496 0
    endloop
  endfacet
  facet normal 0 0 -1
    outer loop
      vertex 27.6948 9.03279 0
      vertex 21.0231 12.028 0
      vertex 21.0406 12.0883 0
    endloop
  endfacet
  facet normal 0 0 -1
    outer loop
      vertex 27.6948 9.03279 0
      vertex 21.0018 11.9689 0
      vertex 21.0231 12.028 0
    endloop
  endfacet
  facet normal 0 0 -1
    outer loop
      vertex 27.6948 9.03279 0
      vertex 20.9768 11.9112 0
      vertex 21.0018 11.9689 0
    endloop
  endfacet
  facet normal 0 0 -1
    outer loop
      vertex 27.6948 9.03279 0
      vertex 20.9483 11.8552 0
      vertex 20.9768 11.9112 0
    endloop
  endfacet
  facet normal 0 0 -1
    outer loop
      vertex 27.6948 9.03279 0
      vertex 20.9163 11.8012 0
      vertex 20.9483 11.8552 0
    endloop
  endfacet
  facet normal 0 0 -1
    outer loop
      vertex 27.6948 9.03279 0
      vertex 20.881 11.7492 0
      vertex 20.9163 11.8012 0
    endloop
  endfacet
  facet normal 0 0 -1
    outer loop
      vertex 27.6948 9.03279 0
      vertex 20.8425 11.6996 0
      vertex 20.881 11.7492 0
    endloop
  endfacet
  facet normal 0 0 -1
    outer loop
      vertex 27.6948 9.03279 0
      vertex 20.801 11.6525 0
      vertex 20.8425 11.6996 0
    endloop
  endfacet
  facet normal 0 0 -1
    outer loop
      vertex 27.6948 9.03279 0
      vertex 20.7565 11.608 0
      vertex 20.801 11.6525 0
    endloop
  endfacet
  facet normal 0 0 -1
    outer loop
      vertex 27.6948 9.03279 0
      vertex 20.7094 11.5665 0
      vertex 20.7565 11.608 0
    endloop
  endfacet
  facet normal 0 0 -1
    outer loop
      vertex 27.6948 9.03279 0
      vertex 20.6598 11.528 0
      vertex 20.7094 11.5665 0
    endloop
  endfacet
  facet normal 0 0 -1
    outer loop
      vertex 27.6948 9.03279 0
      vertex 20.6078 11.4927 0
      vertex 20.6598 11.528 0
    endloop
  endfacet
  facet normal 0 0 -1
    outer loop
      vertex 27.6948 9.03279 0
      vertex 20.5538 11.4607 0
      vertex 20.6078 11.4927 0
    endloop
  endfacet
  facet normal 0 0 -1
    outer loop
      vertex 27.6948 9.03279 0
      vertex 20.4978 11.4322 0
      vertex 20.5538 11.4607 0
    endloop
  endfacet
  facet normal 0 0 -1
    outer loop
      vertex 27.6948 9.03279 0
      vertex 20.4401 11.4072 0
      vertex 20.4978 11.4322 0
    endloop
  endfacet
  facet normal 0 0 -1
    outer loop
      vertex 27.6948 9.03279 0
      vertex 20.381 11.3859 0
      vertex 20.4401 11.4072 0
    endloop
  endfacet
  facet normal 0 0 -1
    outer loop
      vertex 27.6948 9.03279 0
      vertex 20.3207 11.3684 0
      vertex 20.381 11.3859 0
    endloop
  endfacet
  facet normal 0 0 -1
    outer loop
      vertex 27.6948 9.03279 0
      vertex 20.2594 11.3547 0
      vertex 20.3207 11.3684 0
    endloop
  endfacet
  facet normal 0 0 -1
    outer loop
      vertex 27.6948 9.03279 0
      vertex 20.1973 11.3449 0
      vertex 20.2594 11.3547 0
    endloop
  endfacet
  facet normal 0 0 -1
    outer loop
      vertex 27.6948 9.03279 0
      vertex 20.1348 11.339 0
      vertex 20.1973 11.3449 0
    endloop
  endfacet
  facet normal 0 0 -1
    outer loop
      vertex 27.6948 9.03279 0
      vertex 20.072 11.337 0
      vertex 20.1348 11.339 0
    endloop
  endfacet
  facet normal 0 0 -1
    outer loop
      vertex 11.7992 9.03279 0
      vertex 20.072 11.337 0
      vertex 27.6948 9.03279 0
    endloop
  endfacet
  facet normal -0 0 -1
    outer loop
      vertex 20.072 11.337 0
      vertex 11.7992 9.03279 0
      vertex 20.0092 11.339 0
    endloop
  endfacet
  facet normal -0 0 -1
    outer loop
      vertex 20.0092 11.339 0
      vertex 11.7992 9.03279 0
      vertex 19.9467 11.3449 0
    endloop
  endfacet
  facet normal -0 0 -1
    outer loop
      vertex 19.9467 11.3449 0
      vertex 11.7992 9.03279 0
      vertex 19.8846 11.3547 0
    endloop
  endfacet
  facet normal -0 0 -1
    outer loop
      vertex 19.8846 11.3547 0
      vertex 11.7992 9.03279 0
      vertex 19.8233 11.3684 0
    endloop
  endfacet
  facet normal 0 0 -1
    outer loop
      vertex 19.074 12.2742 0
      vertex 14.2676 15.7324 0
      vertex 19.072 12.337 0
    endloop
  endfacet
  facet normal 0 0 -1
    outer loop
      vertex 19.0799 12.2117 0
      vertex 14.2676 15.7324 0
      vertex 19.074 12.2742 0
    endloop
  endfacet
  facet normal 0 0 -1
    outer loop
      vertex 11.7992 9.03279 0
      vertex 19.0799 12.2117 0
      vertex 19.0897 12.1496 0
    endloop
  endfacet
  facet normal 0 0 -1
    outer loop
      vertex 11.7992 9.03279 0
      vertex 19.0897 12.1496 0
      vertex 19.1034 12.0883 0
    endloop
  endfacet
  facet normal 0 0 -1
    outer loop
      vertex 11.7992 9.03279 0
      vertex 19.1034 12.0883 0
      vertex 19.1209 12.028 0
    endloop
  endfacet
  facet normal 0 0 -1
    outer loop
      vertex 11.7992 9.03279 0
      vertex 19.1209 12.028 0
      vertex 19.1422 11.9689 0
    endloop
  endfacet
  facet normal 0 0 -1
    outer loop
      vertex 11.7992 9.03279 0
      vertex 19.1422 11.9689 0
      vertex 19.1672 11.9112 0
    endloop
  endfacet
  facet normal 0 0 -1
    outer loop
      vertex 11.7992 9.03279 0
      vertex 19.1672 11.9112 0
      vertex 19.1957 11.8552 0
    endloop
  endfacet
  facet normal 0 0 -1
    outer loop
      vertex 11.7992 9.03279 0
      vertex 19.1957 11.8552 0
      vertex 19.2277 11.8012 0
    endloop
  endfacet
  facet normal 0 0 -1
    outer loop
      vertex 11.7992 9.03279 0
      vertex 19.2277 11.8012 0
      vertex 19.263 11.7492 0
    endloop
  endfacet
  facet normal 0 0 -1
    outer loop
      vertex 11.7992 9.03279 0
      vertex 19.263 11.7492 0
      vertex 19.3015 11.6996 0
    endloop
  endfacet
  facet normal 0 0 -1
    outer loop
      vertex 11.7992 9.03279 0
      vertex 19.3015 11.6996 0
      vertex 19.343 11.6525 0
    endloop
  endfacet
  facet normal 0 0 -1
    outer loop
      vertex 11.7992 9.03279 0
      vertex 19.343 11.6525 0
      vertex 19.3875 11.608 0
    endloop
  endfacet
  facet normal 0 0 -1
    outer loop
      vertex 11.7992 9.03279 0
      vertex 19.3875 11.608 0
      vertex 19.4346 11.5665 0
    endloop
  endfacet
  facet normal -0 0 -1
    outer loop
      vertex 19.0799 12.2117 0
      vertex 11.7992 9.03279 0
      vertex 14.2676 15.7324 0
    endloop
  endfacet
  facet normal -0 0 -1
    outer loop
      vertex 19.4842 11.528 0
      vertex 11.7992 9.03279 0
      vertex 19.4346 11.5665 0
    endloop
  endfacet
  facet normal -0 0 -1
    outer loop
      vertex 19.5362 11.4927 0
      vertex 11.7992 9.03279 0
      vertex 19.4842 11.528 0
    endloop
  endfacet
  facet normal -0 0 -1
    outer loop
      vertex 19.5902 11.4607 0
      vertex 11.7992 9.03279 0
      vertex 19.5362 11.4927 0
    endloop
  endfacet
  facet normal -0 0 -1
    outer loop
      vertex 19.6462 11.4322 0
      vertex 11.7992 9.03279 0
      vertex 19.5902 11.4607 0
    endloop
  endfacet
  facet normal -0 0 -1
    outer loop
      vertex 19.7039 11.4072 0
      vertex 11.7992 9.03279 0
      vertex 19.6462 11.4322 0
    endloop
  endfacet
  facet normal -0 0 -1
    outer loop
      vertex 19.763 11.3859 0
      vertex 11.7992 9.03279 0
      vertex 19.7039 11.4072 0
    endloop
  endfacet
  facet normal -0 0 -1
    outer loop
      vertex 19.8233 11.3684 0
      vertex 11.7992 9.03279 0
      vertex 19.763 11.3859 0
    endloop
  endfacet
  facet normal 0 0 -1
    outer loop
      vertex 27.6948 9.03279 0
      vertex 39.9008 0 0
      vertex 31.1668 0 0
    endloop
  endfacet
  facet normal 0 0 -1
    outer loop
      vertex 25.1176 15.7324 0
      vertex 39.9008 0 0
      vertex 27.6948 9.03279 0
    endloop
  endfacet
  facet normal 0 0 -1
    outer loop
      vertex 25.1176 15.7324 0
      vertex 23.9784 39.7652 0
      vertex 39.9008 0 0
    endloop
  endfacet
  facet normal 0 0 -1
    outer loop
      vertex 19.6384 30.4884 0
      vertex 23.9784 39.7652 0
      vertex 25.1176 15.7324 0
    endloop
  endfacet
  facet normal 0 0 -1
    outer loop
      vertex 19.6384 30.4884 0
      vertex 15.4884 39.7652 0
      vertex 23.9784 39.7652 0
    endloop
  endfacet
  facet normal 0 0 -1
    outer loop
      vertex 14.2676 15.7324 0
      vertex 15.4884 39.7652 0
      vertex 19.6384 30.4884 0
    endloop
  endfacet
  facet normal 0 0 -1
    outer loop
      vertex 0 0 0
      vertex 14.2676 15.7324 0
      vertex 11.7992 9.03279 0
    endloop
  endfacet
  facet normal 0 0 -1
    outer loop
      vertex 0 0 0
      vertex 11.7992 9.03279 0
      vertex 8.5172 0 0
    endloop
  endfacet
  facet normal -0 0 -1
    outer loop
      vertex 14.2676 15.7324 0
      vertex 0 0 0
      vertex 15.4884 39.7652 0
    endloop
  endfacet
  facet normal 0 0 -1
    outer loop
      vertex 21.07 12.3998 0
      vertex 25.1176 15.7324 0
      vertex 21.072 12.337 0
    endloop
  endfacet
  facet normal 0 0 -1
    outer loop
      vertex 21.0641 12.4623 0
      vertex 25.1176 15.7324 0
      vertex 21.07 12.3998 0
    endloop
  endfacet
  facet normal 0 0 -1
    outer loop
      vertex 21.0543 12.5244 0
      vertex 25.1176 15.7324 0
      vertex 21.0641 12.4623 0
    endloop
  endfacet
  facet normal 0 0 -1
    outer loop
      vertex 21.0406 12.5857 0
      vertex 25.1176 15.7324 0
      vertex 21.0543 12.5244 0
    endloop
  endfacet
  facet normal 0 0 -1
    outer loop
      vertex 21.0231 12.646 0
      vertex 25.1176 15.7324 0
      vertex 21.0406 12.5857 0
    endloop
  endfacet
  facet normal 0 0 -1
    outer loop
      vertex 21.0018 12.7051 0
      vertex 25.1176 15.7324 0
      vertex 21.0231 12.646 0
    endloop
  endfacet
  facet normal 0 0 -1
    outer loop
      vertex 20.9768 12.7628 0
      vertex 25.1176 15.7324 0
      vertex 21.0018 12.7051 0
    endloop
  endfacet
  facet normal 0 0 -1
    outer loop
      vertex 20.9483 12.8188 0
      vertex 25.1176 15.7324 0
      vertex 20.9768 12.7628 0
    endloop
  endfacet
  facet normal 0 0 -1
    outer loop
      vertex 20.9163 12.8728 0
      vertex 25.1176 15.7324 0
      vertex 20.9483 12.8188 0
    endloop
  endfacet
  facet normal 0 0 -1
    outer loop
      vertex 20.881 12.9248 0
      vertex 25.1176 15.7324 0
      vertex 20.9163 12.8728 0
    endloop
  endfacet
  facet normal 0 0 -1
    outer loop
      vertex 20.8425 12.9744 0
      vertex 25.1176 15.7324 0
      vertex 20.881 12.9248 0
    endloop
  endfacet
  facet normal 0 0 -1
    outer loop
      vertex 20.801 13.0215 0
      vertex 25.1176 15.7324 0
      vertex 20.8425 12.9744 0
    endloop
  endfacet
  facet normal 0 0 -1
    outer loop
      vertex 20.7565 13.066 0
      vertex 25.1176 15.7324 0
      vertex 20.801 13.0215 0
    endloop
  endfacet
  facet normal 0 0 -1
    outer loop
      vertex 20.7094 13.1075 0
      vertex 25.1176 15.7324 0
      vertex 20.7565 13.066 0
    endloop
  endfacet
  facet normal 0 0 -1
    outer loop
      vertex 20.6598 13.146 0
      vertex 25.1176 15.7324 0
      vertex 20.7094 13.1075 0
    endloop
  endfacet
  facet normal 0 0 -1
    outer loop
      vertex 20.6078 13.1813 0
      vertex 25.1176 15.7324 0
      vertex 20.6598 13.146 0
    endloop
  endfacet
  facet normal 0 0 -1
    outer loop
      vertex 20.5538 13.2133 0
      vertex 25.1176 15.7324 0
      vertex 20.6078 13.1813 0
    endloop
  endfacet
  facet normal 0 0 -1
    outer loop
      vertex 20.4978 13.2418 0
      vertex 25.1176 15.7324 0
      vertex 20.5538 13.2133 0
    endloop
  endfacet
  facet normal 0 0 -1
    outer loop
      vertex 20.4401 13.2668 0
      vertex 25.1176 15.7324 0
      vertex 20.4978 13.2418 0
    endloop
  endfacet
  facet normal 0 0 -1
    outer loop
      vertex 20.381 13.2881 0
      vertex 25.1176 15.7324 0
      vertex 20.4401 13.2668 0
    endloop
  endfacet
  facet normal 0 0 -1
    outer loop
      vertex 20.3207 13.3056 0
      vertex 25.1176 15.7324 0
      vertex 20.381 13.2881 0
    endloop
  endfacet
  facet normal 0 0 -1
    outer loop
      vertex 20.2594 13.3193 0
      vertex 25.1176 15.7324 0
      vertex 20.3207 13.3056 0
    endloop
  endfacet
  facet normal 0 0 -1
    outer loop
      vertex 20.1973 13.3291 0
      vertex 25.1176 15.7324 0
      vertex 20.2594 13.3193 0
    endloop
  endfacet
  facet normal 0 0 -1
    outer loop
      vertex 20.1348 13.335 0
      vertex 25.1176 15.7324 0
      vertex 20.1973 13.3291 0
    endloop
  endfacet
  facet normal 0 0 -1
    outer loop
      vertex 20.072 13.337 0
      vertex 25.1176 15.7324 0
      vertex 20.1348 13.335 0
    endloop
  endfacet
  facet normal 0 0 -1
    outer loop
      vertex 20.0092 13.335 0
      vertex 25.1176 15.7324 0
      vertex 20.072 13.337 0
    endloop
  endfacet
  facet normal 0 0 -1
    outer loop
      vertex 14.2676 15.7324 0
      vertex 20.0092 13.335 0
      vertex 19.9467 13.3291 0
    endloop
  endfacet
  facet normal 0 0 -1
    outer loop
      vertex 14.2676 15.7324 0
      vertex 19.9467 13.3291 0
      vertex 19.8846 13.3193 0
    endloop
  endfacet
  facet normal 0 0 -1
    outer loop
      vertex 14.2676 15.7324 0
      vertex 19.8846 13.3193 0
      vertex 19.8233 13.3056 0
    endloop
  endfacet
  facet normal 0 0 -1
    outer loop
      vertex 14.2676 15.7324 0
      vertex 19.8233 13.3056 0
      vertex 19.763 13.2881 0
    endloop
  endfacet
  facet normal 0 0 -1
    outer loop
      vertex 14.2676 15.7324 0
      vertex 19.763 13.2881 0
      vertex 19.7039 13.2668 0
    endloop
  endfacet
  facet normal 0 0 -1
    outer loop
      vertex 14.2676 15.7324 0
      vertex 19.7039 13.2668 0
      vertex 19.6462 13.2418 0
    endloop
  endfacet
  facet normal 0 0 -1
    outer loop
      vertex 20.0092 13.335 0
      vertex 14.2676 15.7324 0
      vertex 25.1176 15.7324 0
    endloop
  endfacet
  facet normal 0 0 -1
    outer loop
      vertex 19.5902 13.2133 0
      vertex 14.2676 15.7324 0
      vertex 19.6462 13.2418 0
    endloop
  endfacet
  facet normal 0 0 -1
    outer loop
      vertex 19.5362 13.1813 0
      vertex 14.2676 15.7324 0
      vertex 19.5902 13.2133 0
    endloop
  endfacet
  facet normal 0 0 -1
    outer loop
      vertex 19.4842 13.146 0
      vertex 14.2676 15.7324 0
      vertex 19.5362 13.1813 0
    endloop
  endfacet
  facet normal 0 0 -1
    outer loop
      vertex 19.4346 13.1075 0
      vertex 14.2676 15.7324 0
      vertex 19.4842 13.146 0
    endloop
  endfacet
  facet normal 0 0 -1
    outer loop
      vertex 19.3875 13.066 0
      vertex 14.2676 15.7324 0
      vertex 19.4346 13.1075 0
    endloop
  endfacet
  facet normal 0 0 -1
    outer loop
      vertex 19.343 13.0215 0
      vertex 14.2676 15.7324 0
      vertex 19.3875 13.066 0
    endloop
  endfacet
  facet normal 0 0 -1
    outer loop
      vertex 19.3015 12.9744 0
      vertex 14.2676 15.7324 0
      vertex 19.343 13.0215 0
    endloop
  endfacet
  facet normal 0 0 -1
    outer loop
      vertex 19.263 12.9248 0
      vertex 14.2676 15.7324 0
      vertex 19.3015 12.9744 0
    endloop
  endfacet
  facet normal 0 0 -1
    outer loop
      vertex 19.2277 12.8728 0
      vertex 14.2676 15.7324 0
      vertex 19.263 12.9248 0
    endloop
  endfacet
  facet normal 0 0 -1
    outer loop
      vertex 19.1957 12.8188 0
      vertex 14.2676 15.7324 0
      vertex 19.2277 12.8728 0
    endloop
  endfacet
  facet normal 0 0 -1
    outer loop
      vertex 19.1672 12.7628 0
      vertex 14.2676 15.7324 0
      vertex 19.1957 12.8188 0
    endloop
  endfacet
  facet normal 0 0 -1
    outer loop
      vertex 19.1422 12.7051 0
      vertex 14.2676 15.7324 0
      vertex 19.1672 12.7628 0
    endloop
  endfacet
  facet normal 0 0 -1
    outer loop
      vertex 19.1209 12.646 0
      vertex 14.2676 15.7324 0
      vertex 19.1422 12.7051 0
    endloop
  endfacet
  facet normal 0 0 -1
    outer loop
      vertex 19.1034 12.5857 0
      vertex 14.2676 15.7324 0
      vertex 19.1209 12.646 0
    endloop
  endfacet
  facet normal 0 0 -1
    outer loop
      vertex 19.0897 12.5244 0
      vertex 14.2676 15.7324 0
      vertex 19.1034 12.5857 0
    endloop
  endfacet
  facet normal 0 0 -1
    outer loop
      vertex 19.0799 12.4623 0
      vertex 14.2676 15.7324 0
      vertex 19.0897 12.5244 0
    endloop
  endfacet
  facet normal 0 0 -1
    outer loop
      vertex 19.074 12.3998 0
      vertex 14.2676 15.7324 0
      vertex 19.0799 12.4623 0
    endloop
  endfacet
  facet normal 0 0 -1
    outer loop
      vertex 14.2676 15.7324 0
      vertex 19.074 12.3998 0
      vertex 19.072 12.337 0
    endloop
  endfacet
  facet normal 0 0 1
    outer loop
      vertex 39.9008 0 5
      vertex 27.6948 9.03279 5
      vertex 31.1668 0 5
    endloop
  endfacet
  facet normal 0 0 1
    outer loop
      vertex 39.9008 0 5
      vertex 25.1176 15.7324 5
      vertex 27.6948 9.03279 5
    endloop
  endfacet
  facet normal 0 0 1
    outer loop
      vertex 23.9784 39.7652 5
      vertex 25.1176 15.7324 5
      vertex 39.9008 0 5
    endloop
  endfacet
  facet normal 0 0 1
    outer loop
      vertex 23.9784 39.7652 5
      vertex 19.6384 30.4884 5
      vertex 25.1176 15.7324 5
    endloop
  endfacet
  facet normal -0 0 1
    outer loop
      vertex 15.4884 39.7652 5
      vertex 19.6384 30.4884 5
      vertex 23.9784 39.7652 5
    endloop
  endfacet
  facet normal 0 0 1
    outer loop
      vertex 15.4884 39.7652 5
      vertex 14.2676 15.7324 5
      vertex 19.6384 30.4884 5
    endloop
  endfacet
  facet normal 0 0 1
    outer loop
      vertex 0 0 5
      vertex 14.2676 15.7324 5
      vertex 15.4884 39.7652 5
    endloop
  endfacet
  facet normal 0 0 1
    outer loop
      vertex 14.2676 15.7324 5
      vertex 0 0 5
      vertex 11.7992 9.03279 5
    endloop
  endfacet
  facet normal 0 0 1
    outer loop
      vertex 11.7992 9.03279 5
      vertex 0 0 5
      vertex 8.5172 0 5
    endloop
  endfacet
  facet normal 0 0 1
    outer loop
      vertex 11.7992 9.03279 5
      vertex 25.1176 15.7324 5
      vertex 14.2676 15.7324 5
    endloop
  endfacet
  facet normal 0 0 1
    outer loop
      vertex 25.1176 15.7324 5
      vertex 11.7992 9.03279 5
      vertex 27.6948 9.03279 5
    endloop
  endfacet
  facet normal 0 -1 0
    outer loop
      vertex 11.7992 9.03279 0
      vertex 27.6948 9.03279 5
      vertex 11.7992 9.03279 5
    endloop
  endfacet
  facet normal 0 -1 -0
    outer loop
      vertex 27.6948 9.03279 5
      vertex 11.7992 9.03279 0
      vertex 27.6948 9.03279 0
    endloop
  endfacet
  facet normal -0.93342 -0.358786 0
    outer loop
      vertex 31.1668 0 0
      vertex 27.6948 9.03279 5
      vertex 27.6948 9.03279 0
    endloop
  endfacet
  facet normal -0.93342 -0.358786 0
    outer loop
      vertex 27.6948 9.03279 5
      vertex 31.1668 0 0
      vertex 31.1668 0 5
    endloop
  endfacet
  facet normal 0 -1 0
    outer loop
      vertex 31.1668 0 0
      vertex 39.9008 0 5
      vertex 31.1668 0 5
    endloop
  endfacet
  facet normal 0 -1 -0
    outer loop
      vertex 39.9008 0 5
      vertex 31.1668 0 0
      vertex 39.9008 0 0
    endloop
  endfacet
  facet normal 0.928345 0.371719 0
    outer loop
      vertex 39.9008 0 5
      vertex 23.9784 39.7652 0
      vertex 23.9784 39.7652 5
    endloop
  endfacet
  facet normal 0.928345 0.371719 0
    outer loop
      vertex 23.9784 39.7652 0
      vertex 39.9008 0 5
      vertex 39.9008 0 0
    endloop
  endfacet
  facet normal 0 1 -0
    outer loop
      vertex 23.9784 39.7652 0
      vertex 15.4884 39.7652 5
      vertex 23.9784 39.7652 5
    endloop
  endfacet
  facet normal 0 1 0
    outer loop
      vertex 15.4884 39.7652 5
      vertex 23.9784 39.7652 0
      vertex 15.4884 39.7652 0
    endloop
  endfacet
  facet normal -0.931813 0.362938 0
    outer loop
      vertex 0 0 0
      vertex 15.4884 39.7652 5
      vertex 15.4884 39.7652 0
    endloop
  endfacet
  facet normal -0.931813 0.362938 0
    outer loop
      vertex 15.4884 39.7652 5
      vertex 0 0 0
      vertex 0 0 5
    endloop
  endfacet
  facet normal 0 -1 0
    outer loop
      vertex 0 0 0
      vertex 8.5172 0 5
      vertex 0 0 5
    endloop
  endfacet
  facet normal 0 -1 -0
    outer loop
      vertex 8.5172 0 5
      vertex 0 0 0
      vertex 8.5172 0 0
    endloop
  endfacet
  facet normal 0.939882 -0.341499 0
    outer loop
      vertex 8.5172 0 5
      vertex 11.7992 9.03279 0
      vertex 11.7992 9.03279 5
    endloop
  endfacet
  facet normal 0.939882 -0.341499 0
    outer loop
      vertex 11.7992 9.03279 0
      vertex 8.5172 0 5
      vertex 8.5172 0 0
    endloop
  endfacet
  facet normal 0.939691 -0.342023 0
    outer loop
      vertex 14.2676 15.7324 5
      vertex 19.6384 30.4884 0
      vertex 19.6384 30.4884 5
    endloop
  endfacet
  facet normal 0.939691 -0.342023 0
    outer loop
      vertex 19.6384 30.4884 0
      vertex 14.2676 15.7324 5
      vertex 14.2676 15.7324 0
    endloop
  endfacet
  facet normal -0.937458 -0.348097 0
    outer loop
      vertex 25.1176 15.7324 0
      vertex 19.6384 30.4884 5
      vertex 19.6384 30.4884 0
    endloop
  endfacet
  facet normal -0.937458 -0.348097 0
    outer loop
      vertex 19.6384 30.4884 5
      vertex 25.1176 15.7324 0
      vertex 25.1176 15.7324 5
    endloop
  endfacet
  facet normal 0 1 -0
    outer loop
      vertex 25.1176 15.7324 0
      vertex 14.2676 15.7324 5
      vertex 25.1176 15.7324 5
    endloop
  endfacet
  facet normal 0 1 0
    outer loop
      vertex 14.2676 15.7324 5
      vertex 25.1176 15.7324 0
      vertex 14.2676 15.7324 0
    endloop
  endfacet
  facet normal -0.999493 -0.031831 0
    outer loop
      vertex 21.072 12.337 0
      vertex 21.07 12.3998 2
      vertex 21.07 12.3998 0
    endloop
  endfacet
  facet normal -0.999493 -0.031831 0
    outer loop
      vertex 21.07 12.3998 2
      vertex 21.072 12.337 0
      vertex 21.072 12.337 2
    endloop
  endfacet
  facet normal 0.031831 -0.999493 0
    outer loop
      vertex 20.0092 13.335 0
      vertex 20.072 13.337 2
      vertex 20.0092 13.335 2
    endloop
  endfacet
  facet normal 0.031831 -0.999493 0
    outer loop
      vertex 20.072 13.337 2
      vertex 20.0092 13.335 0
      vertex 20.072 13.337 0
    endloop
  endfacet
  facet normal -0.707107 -0.707107 0
    outer loop
      vertex 20.801 13.0215 0
      vertex 20.7565 13.066 2
      vertex 20.7565 13.066 0
    endloop
  endfacet
  facet normal -0.707107 -0.707107 0
    outer loop
      vertex 20.7565 13.066 2
      vertex 20.801 13.0215 0
      vertex 20.801 13.0215 2
    endloop
  endfacet
  facet normal 0.750303 -0.661095 0
    outer loop
      vertex 19.3015 12.9744 2
      vertex 19.343 13.0215 0
      vertex 19.343 13.0215 2
    endloop
  endfacet
  facet normal 0.750303 -0.661095 0
    outer loop
      vertex 19.343 13.0215 0
      vertex 19.3015 12.9744 2
      vertex 19.3015 12.9744 0
    endloop
  endfacet
  facet normal 0.397563 -0.917575 0
    outer loop
      vertex 19.6462 13.2418 0
      vertex 19.7039 13.2668 2
      vertex 19.6462 13.2418 2
    endloop
  endfacet
  facet normal 0.397563 -0.917575 0
    outer loop
      vertex 19.7039 13.2668 2
      vertex 19.6462 13.2418 0
      vertex 19.7039 13.2668 0
    endloop
  endfacet
  facet normal -0.917575 -0.397563 0
    outer loop
      vertex 21.0018 12.7051 0
      vertex 20.9768 12.7628 2
      vertex 20.9768 12.7628 0
    endloop
  endfacet
  facet normal -0.917575 -0.397563 0
    outer loop
      vertex 20.9768 12.7628 2
      vertex 21.0018 12.7051 0
      vertex 21.0018 12.7051 2
    endloop
  endfacet
  facet normal -0.339058 -0.940766 0
    outer loop
      vertex 20.381 13.2881 0
      vertex 20.4401 13.2668 2
      vertex 20.381 13.2881 2
    endloop
  endfacet
  facet normal -0.339058 -0.940766 -0
    outer loop
      vertex 20.4401 13.2668 2
      vertex 20.381 13.2881 0
      vertex 20.4401 13.2668 0
    endloop
  endfacet
  facet normal -0.561657 -0.82737 0
    outer loop
      vertex 20.6078 13.1813 0
      vertex 20.6598 13.146 2
      vertex 20.6078 13.1813 2
    endloop
  endfacet
  facet normal -0.561657 -0.82737 -0
    outer loop
      vertex 20.6598 13.146 2
      vertex 20.6078 13.1813 0
      vertex 20.6598 13.146 0
    endloop
  endfacet
  facet normal 0.940766 -0.339058 0
    outer loop
      vertex 19.1209 12.646 2
      vertex 19.1422 12.7051 0
      vertex 19.1422 12.7051 2
    endloop
  endfacet
  facet normal 0.940766 -0.339058 0
    outer loop
      vertex 19.1422 12.7051 0
      vertex 19.1209 12.646 2
      vertex 19.1209 12.646 0
    endloop
  endfacet
  facet normal 0.82737 -0.561657 0
    outer loop
      vertex 19.2277 12.8728 2
      vertex 19.263 12.9248 0
      vertex 19.263 12.9248 2
    endloop
  endfacet
  facet normal 0.82737 -0.561657 0
    outer loop
      vertex 19.263 12.9248 0
      vertex 19.2277 12.8728 2
      vertex 19.2277 12.8728 0
    endloop
  endfacet
  facet normal 0.21811 -0.975924 0
    outer loop
      vertex 19.8233 13.3056 0
      vertex 19.8846 13.3193 2
      vertex 19.8233 13.3056 2
    endloop
  endfacet
  facet normal 0.21811 -0.975924 0
    outer loop
      vertex 19.8846 13.3193 2
      vertex 19.8233 13.3056 0
      vertex 19.8846 13.3193 0
    endloop
  endfacet
  facet normal 0.707107 0.707107 0
    outer loop
      vertex 19.3875 11.608 2
      vertex 19.343 11.6525 0
      vertex 19.343 11.6525 2
    endloop
  endfacet
  facet normal 0.707107 0.707107 0
    outer loop
      vertex 19.343 11.6525 0
      vertex 19.3875 11.608 2
      vertex 19.3875 11.608 0
    endloop
  endfacet
  facet normal 0.987776 0.155881 0
    outer loop
      vertex 19.0897 12.1496 2
      vertex 19.0799 12.2117 0
      vertex 19.0799 12.2117 2
    endloop
  endfacet
  facet normal 0.987776 0.155881 0
    outer loop
      vertex 19.0799 12.2117 0
      vertex 19.0897 12.1496 2
      vertex 19.0897 12.1496 0
    endloop
  endfacet
  facet normal -0.987776 -0.155881 0
    outer loop
      vertex 21.0641 12.4623 0
      vertex 21.0543 12.5244 2
      vertex 21.0543 12.5244 0
    endloop
  endfacet
  facet normal -0.987776 -0.155881 0
    outer loop
      vertex 21.0543 12.5244 2
      vertex 21.0641 12.4623 0
      vertex 21.0641 12.4623 2
    endloop
  endfacet
  facet normal -0.995574 -0.0939822 0
    outer loop
      vertex 21.07 12.3998 0
      vertex 21.0641 12.4623 2
      vertex 21.0641 12.4623 0
    endloop
  endfacet
  facet normal -0.995574 -0.0939822 0
    outer loop
      vertex 21.0641 12.4623 2
      vertex 21.07 12.3998 0
      vertex 21.07 12.3998 2
    endloop
  endfacet
  facet normal -0.960374 -0.278715 0
    outer loop
      vertex 21.0406 12.5857 0
      vertex 21.0231 12.646 2
      vertex 21.0231 12.646 0
    endloop
  endfacet
  facet normal -0.960374 -0.278715 0
    outer loop
      vertex 21.0231 12.646 2
      vertex 21.0406 12.5857 0
      vertex 21.0406 12.5857 2
    endloop
  endfacet
  facet normal -0.82737 -0.561657 0
    outer loop
      vertex 20.9163 12.8728 0
      vertex 20.881 12.9248 2
      vertex 20.881 12.9248 0
    endloop
  endfacet
  facet normal -0.82737 -0.561657 0
    outer loop
      vertex 20.881 12.9248 2
      vertex 20.9163 12.8728 0
      vertex 20.9163 12.8728 2
    endloop
  endfacet
  facet normal -0.789952 -0.613168 0
    outer loop
      vertex 20.881 12.9248 0
      vertex 20.8425 12.9744 2
      vertex 20.8425 12.9744 0
    endloop
  endfacet
  facet normal -0.789952 -0.613168 0
    outer loop
      vertex 20.8425 12.9744 2
      vertex 20.881 12.9248 0
      vertex 20.881 12.9248 2
    endloop
  endfacet
  facet normal -0.860292 -0.509802 0
    outer loop
      vertex 20.9483 12.8188 0
      vertex 20.9163 12.8728 2
      vertex 20.9163 12.8728 0
    endloop
  endfacet
  facet normal -0.860292 -0.509802 0
    outer loop
      vertex 20.9163 12.8728 2
      vertex 20.9483 12.8188 0
      vertex 20.9483 12.8188 2
    endloop
  endfacet
  facet normal -0.21811 -0.975924 0
    outer loop
      vertex 20.2594 13.3193 0
      vertex 20.3207 13.3056 2
      vertex 20.2594 13.3193 2
    endloop
  endfacet
  facet normal -0.21811 -0.975924 -0
    outer loop
      vertex 20.3207 13.3056 2
      vertex 20.2594 13.3193 0
      vertex 20.3207 13.3056 0
    endloop
  endfacet
  facet normal -0.278715 -0.960374 0
    outer loop
      vertex 20.3207 13.3056 0
      vertex 20.381 13.2881 2
      vertex 20.3207 13.3056 2
    endloop
  endfacet
  facet normal -0.278715 -0.960374 -0
    outer loop
      vertex 20.381 13.2881 2
      vertex 20.3207 13.3056 0
      vertex 20.381 13.2881 0
    endloop
  endfacet
  facet normal -0.661095 -0.750303 0
    outer loop
      vertex 20.7094 13.1075 0
      vertex 20.7565 13.066 2
      vertex 20.7094 13.1075 2
    endloop
  endfacet
  facet normal -0.661095 -0.750303 -0
    outer loop
      vertex 20.7565 13.066 2
      vertex 20.7094 13.1075 0
      vertex 20.7565 13.066 0
    endloop
  endfacet
  facet normal 0.987776 -0.155881 0
    outer loop
      vertex 19.0799 12.4623 2
      vertex 19.0897 12.5244 0
      vertex 19.0897 12.5244 2
    endloop
  endfacet
  facet normal 0.987776 -0.155881 0
    outer loop
      vertex 19.0897 12.5244 0
      vertex 19.0799 12.4623 2
      vertex 19.0799 12.4623 0
    endloop
  endfacet
  facet normal 0.860292 -0.509802 0
    outer loop
      vertex 19.1957 12.8188 2
      vertex 19.2277 12.8728 0
      vertex 19.2277 12.8728 2
    endloop
  endfacet
  facet normal 0.860292 -0.509802 0
    outer loop
      vertex 19.2277 12.8728 0
      vertex 19.1957 12.8188 2
      vertex 19.1957 12.8188 0
    endloop
  endfacet
  facet normal 0.891222 -0.453568 0
    outer loop
      vertex 19.1672 12.7628 2
      vertex 19.1957 12.8188 0
      vertex 19.1957 12.8188 2
    endloop
  endfacet
  facet normal 0.891222 -0.453568 0
    outer loop
      vertex 19.1957 12.8188 0
      vertex 19.1672 12.7628 2
      vertex 19.1672 12.7628 0
    endloop
  endfacet
  facet normal 0.975924 -0.21811 0
    outer loop
      vertex 19.0897 12.5244 2
      vertex 19.1034 12.5857 0
      vertex 19.1034 12.5857 2
    endloop
  endfacet
  facet normal 0.975924 -0.21811 0
    outer loop
      vertex 19.1034 12.5857 0
      vertex 19.0897 12.5244 2
      vertex 19.0897 12.5244 0
    endloop
  endfacet
  facet normal 0.995574 -0.0939822 0
    outer loop
      vertex 19.074 12.3998 2
      vertex 19.0799 12.4623 0
      vertex 19.0799 12.4623 2
    endloop
  endfacet
  facet normal 0.995574 -0.0939822 0
    outer loop
      vertex 19.0799 12.4623 0
      vertex 19.074 12.3998 2
      vertex 19.074 12.3998 0
    endloop
  endfacet
  facet normal 0.561657 -0.82737 0
    outer loop
      vertex 19.4842 13.146 0
      vertex 19.5362 13.1813 2
      vertex 19.4842 13.146 2
    endloop
  endfacet
  facet normal 0.561657 -0.82737 0
    outer loop
      vertex 19.5362 13.1813 2
      vertex 19.4842 13.146 0
      vertex 19.5362 13.1813 0
    endloop
  endfacet
  facet normal 0.509802 -0.860292 0
    outer loop
      vertex 19.5362 13.1813 0
      vertex 19.5902 13.2133 2
      vertex 19.5362 13.1813 2
    endloop
  endfacet
  facet normal 0.509802 -0.860292 0
    outer loop
      vertex 19.5902 13.2133 2
      vertex 19.5362 13.1813 0
      vertex 19.5902 13.2133 0
    endloop
  endfacet
  facet normal 0.661095 -0.750303 0
    outer loop
      vertex 19.3875 13.066 0
      vertex 19.4346 13.1075 2
      vertex 19.3875 13.066 2
    endloop
  endfacet
  facet normal 0.661095 -0.750303 0
    outer loop
      vertex 19.4346 13.1075 2
      vertex 19.3875 13.066 0
      vertex 19.4346 13.1075 0
    endloop
  endfacet
  facet normal 0.278715 -0.960374 0
    outer loop
      vertex 19.763 13.2881 0
      vertex 19.8233 13.3056 2
      vertex 19.763 13.2881 2
    endloop
  endfacet
  facet normal 0.278715 -0.960374 0
    outer loop
      vertex 19.8233 13.3056 2
      vertex 19.763 13.2881 0
      vertex 19.8233 13.3056 0
    endloop
  endfacet
  facet normal 0.0939822 -0.995574 0
    outer loop
      vertex 19.9467 13.3291 0
      vertex 20.0092 13.335 2
      vertex 19.9467 13.3291 2
    endloop
  endfacet
  facet normal 0.0939822 -0.995574 0
    outer loop
      vertex 20.0092 13.335 2
      vertex 19.9467 13.3291 0
      vertex 20.0092 13.335 0
    endloop
  endfacet
  facet normal -0.21811 0.975924 0
    outer loop
      vertex 20.3207 11.3684 0
      vertex 20.2594 11.3547 2
      vertex 20.3207 11.3684 2
    endloop
  endfacet
  facet normal -0.21811 0.975924 0
    outer loop
      vertex 20.2594 11.3547 2
      vertex 20.3207 11.3684 0
      vertex 20.2594 11.3547 0
    endloop
  endfacet
  facet normal -0.453568 0.891222 0
    outer loop
      vertex 20.5538 11.4607 0
      vertex 20.4978 11.4322 2
      vertex 20.5538 11.4607 2
    endloop
  endfacet
  facet normal -0.453568 0.891222 0
    outer loop
      vertex 20.4978 11.4322 2
      vertex 20.5538 11.4607 0
      vertex 20.4978 11.4322 0
    endloop
  endfacet
  facet normal -0.339058 0.940766 0
    outer loop
      vertex 20.4401 11.4072 0
      vertex 20.381 11.3859 2
      vertex 20.4401 11.4072 2
    endloop
  endfacet
  facet normal -0.339058 0.940766 0
    outer loop
      vertex 20.381 11.3859 2
      vertex 20.4401 11.4072 0
      vertex 20.381 11.3859 0
    endloop
  endfacet
  facet normal -0.661095 0.750303 0
    outer loop
      vertex 20.7565 11.608 0
      vertex 20.7094 11.5665 2
      vertex 20.7565 11.608 2
    endloop
  endfacet
  facet normal -0.661095 0.750303 0
    outer loop
      vertex 20.7094 11.5665 2
      vertex 20.7565 11.608 0
      vertex 20.7094 11.5665 0
    endloop
  endfacet
  facet normal -0.750303 0.661095 0
    outer loop
      vertex 20.801 11.6525 0
      vertex 20.8425 11.6996 2
      vertex 20.8425 11.6996 0
    endloop
  endfacet
  facet normal -0.750303 0.661095 0
    outer loop
      vertex 20.8425 11.6996 2
      vertex 20.801 11.6525 0
      vertex 20.801 11.6525 2
    endloop
  endfacet
  facet normal -0.509802 0.860292 0
    outer loop
      vertex 20.6078 11.4927 0
      vertex 20.5538 11.4607 2
      vertex 20.6078 11.4927 2
    endloop
  endfacet
  facet normal -0.509802 0.860292 0
    outer loop
      vertex 20.5538 11.4607 2
      vertex 20.6078 11.4927 0
      vertex 20.5538 11.4607 0
    endloop
  endfacet
  facet normal -0.940766 0.339058 0
    outer loop
      vertex 21.0018 11.9689 0
      vertex 21.0231 12.028 2
      vertex 21.0231 12.028 0
    endloop
  endfacet
  facet normal -0.940766 0.339058 0
    outer loop
      vertex 21.0231 12.028 2
      vertex 21.0018 11.9689 0
      vertex 21.0018 11.9689 2
    endloop
  endfacet
  facet normal -0.891222 0.453568 0
    outer loop
      vertex 20.9483 11.8552 0
      vertex 20.9768 11.9112 2
      vertex 20.9768 11.9112 0
    endloop
  endfacet
  facet normal -0.891222 0.453568 0
    outer loop
      vertex 20.9768 11.9112 2
      vertex 20.9483 11.8552 0
      vertex 20.9483 11.8552 2
    endloop
  endfacet
  facet normal -0.995574 0.0939822 0
    outer loop
      vertex 21.0641 12.2117 0
      vertex 21.07 12.2742 2
      vertex 21.07 12.2742 0
    endloop
  endfacet
  facet normal -0.995574 0.0939822 0
    outer loop
      vertex 21.07 12.2742 2
      vertex 21.0641 12.2117 0
      vertex 21.0641 12.2117 2
    endloop
  endfacet
  facet normal 0.561657 0.82737 -0
    outer loop
      vertex 19.5362 11.4927 0
      vertex 19.4842 11.528 2
      vertex 19.5362 11.4927 2
    endloop
  endfacet
  facet normal 0.561657 0.82737 0
    outer loop
      vertex 19.4842 11.528 2
      vertex 19.5362 11.4927 0
      vertex 19.4842 11.528 0
    endloop
  endfacet
  facet normal 0.613168 0.789952 -0
    outer loop
      vertex 19.4842 11.528 0
      vertex 19.4346 11.5665 2
      vertex 19.4842 11.528 2
    endloop
  endfacet
  facet normal 0.613168 0.789952 0
    outer loop
      vertex 19.4346 11.5665 2
      vertex 19.4842 11.528 0
      vertex 19.4346 11.5665 0
    endloop
  endfacet
  facet normal 0.0939822 0.995574 -0
    outer loop
      vertex 20.0092 11.339 0
      vertex 19.9467 11.3449 2
      vertex 20.0092 11.339 2
    endloop
  endfacet
  facet normal 0.0939822 0.995574 0
    outer loop
      vertex 19.9467 11.3449 2
      vertex 20.0092 11.339 0
      vertex 19.9467 11.3449 0
    endloop
  endfacet
  facet normal 0.789952 0.613168 0
    outer loop
      vertex 19.3015 11.6996 2
      vertex 19.263 11.7492 0
      vertex 19.263 11.7492 2
    endloop
  endfacet
  facet normal 0.789952 0.613168 0
    outer loop
      vertex 19.263 11.7492 0
      vertex 19.3015 11.6996 2
      vertex 19.3015 11.6996 0
    endloop
  endfacet
  facet normal 0.860292 0.509802 0
    outer loop
      vertex 19.2277 11.8012 2
      vertex 19.1957 11.8552 0
      vertex 19.1957 11.8552 2
    endloop
  endfacet
  facet normal 0.860292 0.509802 0
    outer loop
      vertex 19.1957 11.8552 0
      vertex 19.2277 11.8012 2
      vertex 19.2277 11.8012 0
    endloop
  endfacet
  facet normal 0.750303 0.661095 0
    outer loop
      vertex 19.343 11.6525 2
      vertex 19.3015 11.6996 0
      vertex 19.3015 11.6996 2
    endloop
  endfacet
  facet normal 0.750303 0.661095 0
    outer loop
      vertex 19.3015 11.6996 0
      vertex 19.343 11.6525 2
      vertex 19.343 11.6525 0
    endloop
  endfacet
  facet normal 0.891222 0.453568 0
    outer loop
      vertex 19.1957 11.8552 2
      vertex 19.1672 11.9112 0
      vertex 19.1672 11.9112 2
    endloop
  endfacet
  facet normal 0.891222 0.453568 0
    outer loop
      vertex 19.1672 11.9112 0
      vertex 19.1957 11.8552 2
      vertex 19.1957 11.8552 0
    endloop
  endfacet
  facet normal 0.917575 0.397563 0
    outer loop
      vertex 19.1672 11.9112 2
      vertex 19.1422 11.9689 0
      vertex 19.1422 11.9689 2
    endloop
  endfacet
  facet normal 0.917575 0.397563 0
    outer loop
      vertex 19.1422 11.9689 0
      vertex 19.1672 11.9112 2
      vertex 19.1672 11.9112 0
    endloop
  endfacet
  facet normal 0.995574 0.0939822 0
    outer loop
      vertex 19.0799 12.2117 2
      vertex 19.074 12.2742 0
      vertex 19.074 12.2742 2
    endloop
  endfacet
  facet normal 0.995574 0.0939822 0
    outer loop
      vertex 19.074 12.2742 0
      vertex 19.0799 12.2117 2
      vertex 19.0799 12.2117 0
    endloop
  endfacet
  facet normal -0.975924 -0.21811 0
    outer loop
      vertex 21.0543 12.5244 0
      vertex 21.0406 12.5857 2
      vertex 21.0406 12.5857 0
    endloop
  endfacet
  facet normal -0.975924 -0.21811 0
    outer loop
      vertex 21.0406 12.5857 2
      vertex 21.0543 12.5244 0
      vertex 21.0543 12.5244 2
    endloop
  endfacet
  facet normal -0.891222 -0.453568 0
    outer loop
      vertex 20.9768 12.7628 0
      vertex 20.9483 12.8188 2
      vertex 20.9483 12.8188 0
    endloop
  endfacet
  facet normal -0.891222 -0.453568 0
    outer loop
      vertex 20.9483 12.8188 2
      vertex 20.9768 12.7628 0
      vertex 20.9768 12.7628 2
    endloop
  endfacet
  facet normal -0.155881 -0.987776 0
    outer loop
      vertex 20.1973 13.3291 0
      vertex 20.2594 13.3193 2
      vertex 20.1973 13.3291 2
    endloop
  endfacet
  facet normal -0.155881 -0.987776 -0
    outer loop
      vertex 20.2594 13.3193 2
      vertex 20.1973 13.3291 0
      vertex 20.2594 13.3193 0
    endloop
  endfacet
  facet normal -0.0939822 -0.995574 0
    outer loop
      vertex 20.1348 13.335 0
      vertex 20.1973 13.3291 2
      vertex 20.1348 13.335 2
    endloop
  endfacet
  facet normal -0.0939822 -0.995574 -0
    outer loop
      vertex 20.1973 13.3291 2
      vertex 20.1348 13.335 0
      vertex 20.1973 13.3291 0
    endloop
  endfacet
  facet normal -0.031831 -0.999493 0
    outer loop
      vertex 20.072 13.337 0
      vertex 20.1348 13.335 2
      vertex 20.072 13.337 2
    endloop
  endfacet
  facet normal -0.031831 -0.999493 -0
    outer loop
      vertex 20.1348 13.335 2
      vertex 20.072 13.337 0
      vertex 20.1348 13.335 0
    endloop
  endfacet
  facet normal -0.509802 -0.860292 0
    outer loop
      vertex 20.5538 13.2133 0
      vertex 20.6078 13.1813 2
      vertex 20.5538 13.2133 2
    endloop
  endfacet
  facet normal -0.509802 -0.860292 -0
    outer loop
      vertex 20.6078 13.1813 2
      vertex 20.5538 13.2133 0
      vertex 20.6078 13.1813 0
    endloop
  endfacet
  facet normal -0.453568 -0.891222 0
    outer loop
      vertex 20.4978 13.2418 0
      vertex 20.5538 13.2133 2
      vertex 20.4978 13.2418 2
    endloop
  endfacet
  facet normal -0.453568 -0.891222 -0
    outer loop
      vertex 20.5538 13.2133 2
      vertex 20.4978 13.2418 0
      vertex 20.5538 13.2133 0
    endloop
  endfacet
  facet normal 0.960374 -0.278715 0
    outer loop
      vertex 19.1034 12.5857 2
      vertex 19.1209 12.646 0
      vertex 19.1209 12.646 2
    endloop
  endfacet
  facet normal 0.960374 -0.278715 0
    outer loop
      vertex 19.1209 12.646 0
      vertex 19.1034 12.5857 2
      vertex 19.1034 12.5857 0
    endloop
  endfacet
  facet normal 0.999493 -0.031831 0
    outer loop
      vertex 19.072 12.337 2
      vertex 19.074 12.3998 0
      vertex 19.074 12.3998 2
    endloop
  endfacet
  facet normal 0.999493 -0.031831 0
    outer loop
      vertex 19.074 12.3998 0
      vertex 19.072 12.337 2
      vertex 19.072 12.337 0
    endloop
  endfacet
  facet normal 0 0 -1
    outer loop
      vertex 21.07 12.2742 2
      vertex 21.07 12.3998 2
      vertex 21.072 12.337 2
    endloop
  endfacet
  facet normal 0 0 -1
    outer loop
      vertex 21.0641 12.2117 2
      vertex 21.07 12.3998 2
      vertex 21.07 12.2742 2
    endloop
  endfacet
  facet normal 0 0 -1
    outer loop
      vertex 21.0641 12.2117 2
      vertex 21.0641 12.4623 2
      vertex 21.07 12.3998 2
    endloop
  endfacet
  facet normal 0 0 -1
    outer loop
      vertex 21.0543 12.1496 2
      vertex 21.0641 12.4623 2
      vertex 21.0641 12.2117 2
    endloop
  endfacet
  facet normal 0 0 -1
    outer loop
      vertex 21.0543 12.1496 2
      vertex 21.0543 12.5244 2
      vertex 21.0641 12.4623 2
    endloop
  endfacet
  facet normal 0 0 -1
    outer loop
      vertex 21.0406 12.0883 2
      vertex 21.0543 12.5244 2
      vertex 21.0543 12.1496 2
    endloop
  endfacet
  facet normal 0 0 -1
    outer loop
      vertex 21.0406 12.0883 2
      vertex 21.0406 12.5857 2
      vertex 21.0543 12.5244 2
    endloop
  endfacet
  facet normal 0 0 -1
    outer loop
      vertex 21.0231 12.028 2
      vertex 21.0406 12.5857 2
      vertex 21.0406 12.0883 2
    endloop
  endfacet
  facet normal 0 0 -1
    outer loop
      vertex 21.0231 12.028 2
      vertex 21.0231 12.646 2
      vertex 21.0406 12.5857 2
    endloop
  endfacet
  facet normal 0 0 -1
    outer loop
      vertex 21.0018 11.9689 2
      vertex 21.0231 12.646 2
      vertex 21.0231 12.028 2
    endloop
  endfacet
  facet normal 0 0 -1
    outer loop
      vertex 21.0018 11.9689 2
      vertex 21.0018 12.7051 2
      vertex 21.0231 12.646 2
    endloop
  endfacet
  facet normal 0 0 -1
    outer loop
      vertex 20.9768 11.9112 2
      vertex 21.0018 12.7051 2
      vertex 21.0018 11.9689 2
    endloop
  endfacet
  facet normal 0 0 -1
    outer loop
      vertex 20.9768 11.9112 2
      vertex 20.9768 12.7628 2
      vertex 21.0018 12.7051 2
    endloop
  endfacet
  facet normal 0 0 -1
    outer loop
      vertex 20.9483 11.8552 2
      vertex 20.9768 12.7628 2
      vertex 20.9768 11.9112 2
    endloop
  endfacet
  facet normal 0 0 -1
    outer loop
      vertex 20.9483 11.8552 2
      vertex 20.9483 12.8188 2
      vertex 20.9768 12.7628 2
    endloop
  endfacet
  facet normal 0 0 -1
    outer loop
      vertex 20.9163 11.8012 2
      vertex 20.9483 12.8188 2
      vertex 20.9483 11.8552 2
    endloop
  endfacet
  facet normal 0 0 -1
    outer loop
      vertex 20.9163 11.8012 2
      vertex 20.9163 12.8728 2
      vertex 20.9483 12.8188 2
    endloop
  endfacet
  facet normal 0 0 -1
    outer loop
      vertex 20.881 11.7492 2
      vertex 20.9163 12.8728 2
      vertex 20.9163 11.8012 2
    endloop
  endfacet
  facet normal 0 0 -1
    outer loop
      vertex 20.881 11.7492 2
      vertex 20.881 12.9248 2
      vertex 20.9163 12.8728 2
    endloop
  endfacet
  facet normal 0 0 -1
    outer loop
      vertex 20.8425 11.6996 2
      vertex 20.881 12.9248 2
      vertex 20.881 11.7492 2
    endloop
  endfacet
  facet normal 0 0 -1
    outer loop
      vertex 20.8425 11.6996 2
      vertex 20.8425 12.9744 2
      vertex 20.881 12.9248 2
    endloop
  endfacet
  facet normal 0 0 -1
    outer loop
      vertex 20.801 11.6525 2
      vertex 20.8425 12.9744 2
      vertex 20.8425 11.6996 2
    endloop
  endfacet
  facet normal 0 0 -1
    outer loop
      vertex 20.801 11.6525 2
      vertex 20.801 13.0215 2
      vertex 20.8425 12.9744 2
    endloop
  endfacet
  facet normal 0 0 -1
    outer loop
      vertex 20.7565 11.608 2
      vertex 20.801 13.0215 2
      vertex 20.801 11.6525 2
    endloop
  endfacet
  facet normal 0 0 -1
    outer loop
      vertex 20.7565 11.608 2
      vertex 20.7565 13.066 2
      vertex 20.801 13.0215 2
    endloop
  endfacet
  facet normal 0 0 -1
    outer loop
      vertex 20.7094 11.5665 2
      vertex 20.7565 13.066 2
      vertex 20.7565 11.608 2
    endloop
  endfacet
  facet normal 0 0 -1
    outer loop
      vertex 20.7094 11.5665 2
      vertex 20.7094 13.1075 2
      vertex 20.7565 13.066 2
    endloop
  endfacet
  facet normal 0 0 -1
    outer loop
      vertex 20.6598 11.528 2
      vertex 20.7094 13.1075 2
      vertex 20.7094 11.5665 2
    endloop
  endfacet
  facet normal 0 0 -1
    outer loop
      vertex 20.6598 11.528 2
      vertex 20.6598 13.146 2
      vertex 20.7094 13.1075 2
    endloop
  endfacet
  facet normal 0 0 -1
    outer loop
      vertex 20.6078 11.4927 2
      vertex 20.6598 13.146 2
      vertex 20.6598 11.528 2
    endloop
  endfacet
  facet normal 0 0 -1
    outer loop
      vertex 20.6078 11.4927 2
      vertex 20.6078 13.1813 2
      vertex 20.6598 13.146 2
    endloop
  endfacet
  facet normal 0 0 -1
    outer loop
      vertex 20.5538 11.4607 2
      vertex 20.6078 13.1813 2
      vertex 20.6078 11.4927 2
    endloop
  endfacet
  facet normal 0 0 -1
    outer loop
      vertex 20.5538 11.4607 2
      vertex 20.5538 13.2133 2
      vertex 20.6078 13.1813 2
    endloop
  endfacet
  facet normal 0 0 -1
    outer loop
      vertex 20.4978 11.4322 2
      vertex 20.5538 13.2133 2
      vertex 20.5538 11.4607 2
    endloop
  endfacet
  facet normal 0 0 -1
    outer loop
      vertex 20.4978 11.4322 2
      vertex 20.4978 13.2418 2
      vertex 20.5538 13.2133 2
    endloop
  endfacet
  facet normal 0 0 -1
    outer loop
      vertex 20.4401 11.4072 2
      vertex 20.4978 13.2418 2
      vertex 20.4978 11.4322 2
    endloop
  endfacet
  facet normal 0 0 -1
    outer loop
      vertex 20.4401 11.4072 2
      vertex 20.4401 13.2668 2
      vertex 20.4978 13.2418 2
    endloop
  endfacet
  facet normal 0 0 -1
    outer loop
      vertex 20.381 11.3859 2
      vertex 20.4401 13.2668 2
      vertex 20.4401 11.4072 2
    endloop
  endfacet
  facet normal 0 0 -1
    outer loop
      vertex 20.381 11.3859 2
      vertex 20.381 13.2881 2
      vertex 20.4401 13.2668 2
    endloop
  endfacet
  facet normal 0 0 -1
    outer loop
      vertex 20.3207 11.3684 2
      vertex 20.381 13.2881 2
      vertex 20.381 11.3859 2
    endloop
  endfacet
  facet normal 0 0 -1
    outer loop
      vertex 20.3207 11.3684 2
      vertex 20.3207 13.3056 2
      vertex 20.381 13.2881 2
    endloop
  endfacet
  facet normal 0 0 -1
    outer loop
      vertex 20.2594 11.3547 2
      vertex 20.3207 13.3056 2
      vertex 20.3207 11.3684 2
    endloop
  endfacet
  facet normal 0 0 -1
    outer loop
      vertex 20.2594 11.3547 2
      vertex 20.2594 13.3193 2
      vertex 20.3207 13.3056 2
    endloop
  endfacet
  facet normal 0 0 -1
    outer loop
      vertex 20.1973 11.3449 2
      vertex 20.2594 13.3193 2
      vertex 20.2594 11.3547 2
    endloop
  endfacet
  facet normal 0 0 -1
    outer loop
      vertex 20.1973 11.3449 2
      vertex 20.1973 13.3291 2
      vertex 20.2594 13.3193 2
    endloop
  endfacet
  facet normal 0 0 -1
    outer loop
      vertex 20.1348 11.339 2
      vertex 20.1973 13.3291 2
      vertex 20.1973 11.3449 2
    endloop
  endfacet
  facet normal 0 0 -1
    outer loop
      vertex 20.1348 11.339 2
      vertex 20.1348 13.335 2
      vertex 20.1973 13.3291 2
    endloop
  endfacet
  facet normal 0 0 -1
    outer loop
      vertex 20.072 11.337 2
      vertex 20.1348 13.335 2
      vertex 20.1348 11.339 2
    endloop
  endfacet
  facet normal 0 0 -1
    outer loop
      vertex 20.072 11.337 2
      vertex 20.072 13.337 2
      vertex 20.1348 13.335 2
    endloop
  endfacet
  facet normal 0 0 -1
    outer loop
      vertex 20.0092 11.339 2
      vertex 20.072 13.337 2
      vertex 20.072 11.337 2
    endloop
  endfacet
  facet normal 0 0 -1
    outer loop
      vertex 20.0092 11.339 2
      vertex 20.0092 13.335 2
      vertex 20.072 13.337 2
    endloop
  endfacet
  facet normal 0 0 -1
    outer loop
      vertex 19.9467 11.3449 2
      vertex 20.0092 13.335 2
      vertex 20.0092 11.339 2
    endloop
  endfacet
  facet normal 0 0 -1
    outer loop
      vertex 19.9467 11.3449 2
      vertex 19.9467 13.3291 2
      vertex 20.0092 13.335 2
    endloop
  endfacet
  facet normal 0 0 -1
    outer loop
      vertex 19.8846 11.3547 2
      vertex 19.9467 13.3291 2
      vertex 19.9467 11.3449 2
    endloop
  endfacet
  facet normal 0 0 -1
    outer loop
      vertex 19.8846 11.3547 2
      vertex 19.8846 13.3193 2
      vertex 19.9467 13.3291 2
    endloop
  endfacet
  facet normal 0 0 -1
    outer loop
      vertex 19.8233 11.3684 2
      vertex 19.8846 13.3193 2
      vertex 19.8846 11.3547 2
    endloop
  endfacet
  facet normal 0 0 -1
    outer loop
      vertex 19.8233 11.3684 2
      vertex 19.8233 13.3056 2
      vertex 19.8846 13.3193 2
    endloop
  endfacet
  facet normal 0 0 -1
    outer loop
      vertex 19.763 11.3859 2
      vertex 19.8233 13.3056 2
      vertex 19.8233 11.3684 2
    endloop
  endfacet
  facet normal 0 0 -1
    outer loop
      vertex 19.763 11.3859 2
      vertex 19.763 13.2881 2
      vertex 19.8233 13.3056 2
    endloop
  endfacet
  facet normal 0 0 -1
    outer loop
      vertex 19.7039 11.4072 2
      vertex 19.763 13.2881 2
      vertex 19.763 11.3859 2
    endloop
  endfacet
  facet normal 0 0 -1
    outer loop
      vertex 19.7039 11.4072 2
      vertex 19.7039 13.2668 2
      vertex 19.763 13.2881 2
    endloop
  endfacet
  facet normal 0 0 -1
    outer loop
      vertex 19.6462 11.4322 2
      vertex 19.7039 13.2668 2
      vertex 19.7039 11.4072 2
    endloop
  endfacet
  facet normal 0 0 -1
    outer loop
      vertex 19.6462 11.4322 2
      vertex 19.6462 13.2418 2
      vertex 19.7039 13.2668 2
    endloop
  endfacet
  facet normal 0 0 -1
    outer loop
      vertex 19.5902 11.4607 2
      vertex 19.6462 13.2418 2
      vertex 19.6462 11.4322 2
    endloop
  endfacet
  facet normal 0 0 -1
    outer loop
      vertex 19.5902 11.4607 2
      vertex 19.5902 13.2133 2
      vertex 19.6462 13.2418 2
    endloop
  endfacet
  facet normal 0 0 -1
    outer loop
      vertex 19.5362 11.4927 2
      vertex 19.5902 13.2133 2
      vertex 19.5902 11.4607 2
    endloop
  endfacet
  facet normal 0 0 -1
    outer loop
      vertex 19.5362 11.4927 2
      vertex 19.5362 13.1813 2
      vertex 19.5902 13.2133 2
    endloop
  endfacet
  facet normal 0 0 -1
    outer loop
      vertex 19.4842 11.528 2
      vertex 19.5362 13.1813 2
      vertex 19.5362 11.4927 2
    endloop
  endfacet
  facet normal 0 0 -1
    outer loop
      vertex 19.4842 11.528 2
      vertex 19.4842 13.146 2
      vertex 19.5362 13.1813 2
    endloop
  endfacet
  facet normal 0 0 -1
    outer loop
      vertex 19.4346 11.5665 2
      vertex 19.4842 13.146 2
      vertex 19.4842 11.528 2
    endloop
  endfacet
  facet normal 0 0 -1
    outer loop
      vertex 19.4346 11.5665 2
      vertex 19.4346 13.1075 2
      vertex 19.4842 13.146 2
    endloop
  endfacet
  facet normal 0 0 -1
    outer loop
      vertex 19.3875 11.608 2
      vertex 19.4346 13.1075 2
      vertex 19.4346 11.5665 2
    endloop
  endfacet
  facet normal 0 0 -1
    outer loop
      vertex 19.3875 11.608 2
      vertex 19.3875 13.066 2
      vertex 19.4346 13.1075 2
    endloop
  endfacet
  facet normal 0 0 -1
    outer loop
      vertex 19.343 11.6525 2
      vertex 19.3875 13.066 2
      vertex 19.3875 11.608 2
    endloop
  endfacet
  facet normal 0 0 -1
    outer loop
      vertex 19.343 11.6525 2
      vertex 19.343 13.0215 2
      vertex 19.3875 13.066 2
    endloop
  endfacet
  facet normal 0 0 -1
    outer loop
      vertex 19.3015 11.6996 2
      vertex 19.343 13.0215 2
      vertex 19.343 11.6525 2
    endloop
  endfacet
  facet normal 0 0 -1
    outer loop
      vertex 19.3015 11.6996 2
      vertex 19.3015 12.9744 2
      vertex 19.343 13.0215 2
    endloop
  endfacet
  facet normal 0 0 -1
    outer loop
      vertex 19.263 11.7492 2
      vertex 19.3015 12.9744 2
      vertex 19.3015 11.6996 2
    endloop
  endfacet
  facet normal 0 0 -1
    outer loop
      vertex 19.263 11.7492 2
      vertex 19.263 12.9248 2
      vertex 19.3015 12.9744 2
    endloop
  endfacet
  facet normal 0 0 -1
    outer loop
      vertex 19.2277 11.8012 2
      vertex 19.263 12.9248 2
      vertex 19.263 11.7492 2
    endloop
  endfacet
  facet normal 0 0 -1
    outer loop
      vertex 19.2277 11.8012 2
      vertex 19.2277 12.8728 2
      vertex 19.263 12.9248 2
    endloop
  endfacet
  facet normal 0 0 -1
    outer loop
      vertex 19.1957 11.8552 2
      vertex 19.2277 12.8728 2
      vertex 19.2277 11.8012 2
    endloop
  endfacet
  facet normal 0 0 -1
    outer loop
      vertex 19.1957 11.8552 2
      vertex 19.1957 12.8188 2
      vertex 19.2277 12.8728 2
    endloop
  endfacet
  facet normal 0 0 -1
    outer loop
      vertex 19.1672 11.9112 2
      vertex 19.1957 12.8188 2
      vertex 19.1957 11.8552 2
    endloop
  endfacet
  facet normal 0 0 -1
    outer loop
      vertex 19.1672 11.9112 2
      vertex 19.1672 12.7628 2
      vertex 19.1957 12.8188 2
    endloop
  endfacet
  facet normal 0 0 -1
    outer loop
      vertex 19.1422 11.9689 2
      vertex 19.1672 12.7628 2
      vertex 19.1672 11.9112 2
    endloop
  endfacet
  facet normal 0 0 -1
    outer loop
      vertex 19.1422 11.9689 2
      vertex 19.1422 12.7051 2
      vertex 19.1672 12.7628 2
    endloop
  endfacet
  facet normal 0 0 -1
    outer loop
      vertex 19.1209 12.028 2
      vertex 19.1422 12.7051 2
      vertex 19.1422 11.9689 2
    endloop
  endfacet
  facet normal 0 0 -1
    outer loop
      vertex 19.1209 12.028 2
      vertex 19.1209 12.646 2
      vertex 19.1422 12.7051 2
    endloop
  endfacet
  facet normal 0 0 -1
    outer loop
      vertex 19.1034 12.0883 2
      vertex 19.1209 12.646 2
      vertex 19.1209 12.028 2
    endloop
  endfacet
  facet normal 0 0 -1
    outer loop
      vertex 19.1034 12.0883 2
      vertex 19.1034 12.5857 2
      vertex 19.1209 12.646 2
    endloop
  endfacet
  facet normal 0 0 -1
    outer loop
      vertex 19.0897 12.1496 2
      vertex 19.1034 12.5857 2
      vertex 19.1034 12.0883 2
    endloop
  endfacet
  facet normal 0 0 -1
    outer loop
      vertex 19.0897 12.1496 2
      vertex 19.0897 12.5244 2
      vertex 19.1034 12.5857 2
    endloop
  endfacet
  facet normal 0 0 -1
    outer loop
      vertex 19.0799 12.2117 2
      vertex 19.0897 12.5244 2
      vertex 19.0897 12.1496 2
    endloop
  endfacet
  facet normal 0 0 -1
    outer loop
      vertex 19.0799 12.2117 2
      vertex 19.0799 12.4623 2
      vertex 19.0897 12.5244 2
    endloop
  endfacet
  facet normal 0 0 -1
    outer loop
      vertex 19.074 12.2742 2
      vertex 19.0799 12.4623 2
      vertex 19.0799 12.2117 2
    endloop
  endfacet
  facet normal 0 0 -1
    outer loop
      vertex 19.074 12.2742 2
      vertex 19.074 12.3998 2
      vertex 19.0799 12.4623 2
    endloop
  endfacet
  facet normal 0 -0 -1
    outer loop
      vertex 19.074 12.3998 2
      vertex 19.074 12.2742 2
      vertex 19.072 12.337 2
    endloop
  endfacet
  facet normal 0.613168 -0.789952 0
    outer loop
      vertex 19.4346 13.1075 0
      vertex 19.4842 13.146 2
      vertex 19.4346 13.1075 2
    endloop
  endfacet
  facet normal 0.613168 -0.789952 0
    outer loop
      vertex 19.4842 13.146 2
      vertex 19.4346 13.1075 0
      vertex 19.4842 13.146 0
    endloop
  endfacet
  facet normal 0.155881 -0.987776 0
    outer loop
      vertex 19.8846 13.3193 0
      vertex 19.9467 13.3291 2
      vertex 19.8846 13.3193 2
    endloop
  endfacet
  facet normal 0.155881 -0.987776 0
    outer loop
      vertex 19.9467 13.3291 2
      vertex 19.8846 13.3193 0
      vertex 19.9467 13.3291 0
    endloop
  endfacet
  facet normal -0.999493 0.031831 0
    outer loop
      vertex 21.07 12.2742 0
      vertex 21.072 12.337 2
      vertex 21.072 12.337 0
    endloop
  endfacet
  facet normal -0.999493 0.031831 0
    outer loop
      vertex 21.072 12.337 2
      vertex 21.07 12.2742 0
      vertex 21.07 12.2742 2
    endloop
  endfacet
  facet normal -0.0939822 0.995574 0
    outer loop
      vertex 20.1973 11.3449 0
      vertex 20.1348 11.339 2
      vertex 20.1973 11.3449 2
    endloop
  endfacet
  facet normal -0.0939822 0.995574 0
    outer loop
      vertex 20.1348 11.339 2
      vertex 20.1973 11.3449 0
      vertex 20.1348 11.339 0
    endloop
  endfacet
  facet normal -0.397563 0.917575 0
    outer loop
      vertex 20.4978 11.4322 0
      vertex 20.4401 11.4072 2
      vertex 20.4978 11.4322 2
    endloop
  endfacet
  facet normal -0.397563 0.917575 0
    outer loop
      vertex 20.4401 11.4072 2
      vertex 20.4978 11.4322 0
      vertex 20.4401 11.4072 0
    endloop
  endfacet
  facet normal -0.707107 0.707107 0
    outer loop
      vertex 20.801 11.6525 0
      vertex 20.7565 11.608 2
      vertex 20.801 11.6525 2
    endloop
  endfacet
  facet normal -0.707107 0.707107 0
    outer loop
      vertex 20.7565 11.608 2
      vertex 20.801 11.6525 0
      vertex 20.7565 11.608 0
    endloop
  endfacet
  facet normal -0.613168 0.789952 0
    outer loop
      vertex 20.7094 11.5665 0
      vertex 20.6598 11.528 2
      vertex 20.7094 11.5665 2
    endloop
  endfacet
  facet normal -0.613168 0.789952 0
    outer loop
      vertex 20.6598 11.528 2
      vertex 20.7094 11.5665 0
      vertex 20.6598 11.528 0
    endloop
  endfacet
  facet normal -0.561657 0.82737 0
    outer loop
      vertex 20.6598 11.528 0
      vertex 20.6078 11.4927 2
      vertex 20.6598 11.528 2
    endloop
  endfacet
  facet normal -0.561657 0.82737 0
    outer loop
      vertex 20.6078 11.4927 2
      vertex 20.6598 11.528 0
      vertex 20.6078 11.4927 0
    endloop
  endfacet
  facet normal -0.860292 0.509802 0
    outer loop
      vertex 20.9163 11.8012 0
      vertex 20.9483 11.8552 2
      vertex 20.9483 11.8552 0
    endloop
  endfacet
  facet normal -0.860292 0.509802 0
    outer loop
      vertex 20.9483 11.8552 2
      vertex 20.9163 11.8012 0
      vertex 20.9163 11.8012 2
    endloop
  endfacet
  facet normal -0.789952 0.613168 0
    outer loop
      vertex 20.8425 11.6996 0
      vertex 20.881 11.7492 2
      vertex 20.881 11.7492 0
    endloop
  endfacet
  facet normal -0.789952 0.613168 0
    outer loop
      vertex 20.881 11.7492 2
      vertex 20.8425 11.6996 0
      vertex 20.8425 11.6996 2
    endloop
  endfacet
  facet normal -0.82737 0.561657 0
    outer loop
      vertex 20.881 11.7492 0
      vertex 20.9163 11.8012 2
      vertex 20.9163 11.8012 0
    endloop
  endfacet
  facet normal -0.82737 0.561657 0
    outer loop
      vertex 20.9163 11.8012 2
      vertex 20.881 11.7492 0
      vertex 20.881 11.7492 2
    endloop
  endfacet
  facet normal -0.917575 0.397563 0
    outer loop
      vertex 20.9768 11.9112 0
      vertex 21.0018 11.9689 2
      vertex 21.0018 11.9689 0
    endloop
  endfacet
  facet normal -0.917575 0.397563 0
    outer loop
      vertex 21.0018 11.9689 2
      vertex 20.9768 11.9112 0
      vertex 20.9768 11.9112 2
    endloop
  endfacet
  facet normal -0.987776 0.155881 0
    outer loop
      vertex 21.0543 12.1496 0
      vertex 21.0641 12.2117 2
      vertex 21.0641 12.2117 0
    endloop
  endfacet
  facet normal -0.987776 0.155881 0
    outer loop
      vertex 21.0641 12.2117 2
      vertex 21.0543 12.1496 0
      vertex 21.0543 12.1496 2
    endloop
  endfacet
  facet normal -0.960374 0.278715 0
    outer loop
      vertex 21.0231 12.028 0
      vertex 21.0406 12.0883 2
      vertex 21.0406 12.0883 0
    endloop
  endfacet
  facet normal -0.960374 0.278715 0
    outer loop
      vertex 21.0406 12.0883 2
      vertex 21.0231 12.028 0
      vertex 21.0231 12.028 2
    endloop
  endfacet
  facet normal -0.975924 0.21811 0
    outer loop
      vertex 21.0406 12.0883 0
      vertex 21.0543 12.1496 2
      vertex 21.0543 12.1496 0
    endloop
  endfacet
  facet normal -0.975924 0.21811 0
    outer loop
      vertex 21.0543 12.1496 2
      vertex 21.0406 12.0883 0
      vertex 21.0406 12.0883 2
    endloop
  endfacet
  facet normal 0.453568 0.891222 -0
    outer loop
      vertex 19.6462 11.4322 0
      vertex 19.5902 11.4607 2
      vertex 19.6462 11.4322 2
    endloop
  endfacet
  facet normal 0.453568 0.891222 0
    outer loop
      vertex 19.5902 11.4607 2
      vertex 19.6462 11.4322 0
      vertex 19.5902 11.4607 0
    endloop
  endfacet
  facet normal 0.339058 0.940766 -0
    outer loop
      vertex 19.763 11.3859 0
      vertex 19.7039 11.4072 2
      vertex 19.763 11.3859 2
    endloop
  endfacet
  facet normal 0.339058 0.940766 0
    outer loop
      vertex 19.7039 11.4072 2
      vertex 19.763 11.3859 0
      vertex 19.7039 11.4072 0
    endloop
  endfacet
  facet normal 0.21811 0.975924 -0
    outer loop
      vertex 19.8846 11.3547 0
      vertex 19.8233 11.3684 2
      vertex 19.8846 11.3547 2
    endloop
  endfacet
  facet normal 0.21811 0.975924 0
    outer loop
      vertex 19.8233 11.3684 2
      vertex 19.8846 11.3547 0
      vertex 19.8233 11.3684 0
    endloop
  endfacet
  facet normal 0.278715 0.960374 -0
    outer loop
      vertex 19.8233 11.3684 0
      vertex 19.763 11.3859 2
      vertex 19.8233 11.3684 2
    endloop
  endfacet
  facet normal 0.278715 0.960374 0
    outer loop
      vertex 19.763 11.3859 2
      vertex 19.8233 11.3684 0
      vertex 19.763 11.3859 0
    endloop
  endfacet
  facet normal 0.155881 0.987776 -0
    outer loop
      vertex 19.9467 11.3449 0
      vertex 19.8846 11.3547 2
      vertex 19.9467 11.3449 2
    endloop
  endfacet
  facet normal 0.155881 0.987776 0
    outer loop
      vertex 19.8846 11.3547 2
      vertex 19.9467 11.3449 0
      vertex 19.8846 11.3547 0
    endloop
  endfacet
  facet normal 0.031831 0.999493 -0
    outer loop
      vertex 20.072 11.337 0
      vertex 20.0092 11.339 2
      vertex 20.072 11.337 2
    endloop
  endfacet
  facet normal 0.031831 0.999493 0
    outer loop
      vertex 20.0092 11.339 2
      vertex 20.072 11.337 0
      vertex 20.0092 11.339 0
    endloop
  endfacet
  facet normal 0.661095 0.750303 -0
    outer loop
      vertex 19.4346 11.5665 0
      vertex 19.3875 11.608 2
      vertex 19.4346 11.5665 2
    endloop
  endfacet
  facet normal 0.661095 0.750303 0
    outer loop
      vertex 19.3875 11.608 2
      vertex 19.4346 11.5665 0
      vertex 19.3875 11.608 0
    endloop
  endfacet
  facet normal 0.82737 0.561657 0
    outer loop
      vertex 19.263 11.7492 2
      vertex 19.2277 11.8012 0
      vertex 19.2277 11.8012 2
    endloop
  endfacet
  facet normal 0.82737 0.561657 0
    outer loop
      vertex 19.2277 11.8012 0
      vertex 19.263 11.7492 2
      vertex 19.263 11.7492 0
    endloop
  endfacet
  facet normal 0.960374 0.278715 0
    outer loop
      vertex 19.1209 12.028 2
      vertex 19.1034 12.0883 0
      vertex 19.1034 12.0883 2
    endloop
  endfacet
  facet normal 0.960374 0.278715 0
    outer loop
      vertex 19.1034 12.0883 0
      vertex 19.1209 12.028 2
      vertex 19.1209 12.028 0
    endloop
  endfacet
  facet normal -0.940766 -0.339058 0
    outer loop
      vertex 21.0231 12.646 0
      vertex 21.0018 12.7051 2
      vertex 21.0018 12.7051 0
    endloop
  endfacet
  facet normal -0.940766 -0.339058 0
    outer loop
      vertex 21.0018 12.7051 2
      vertex 21.0231 12.646 0
      vertex 21.0231 12.646 2
    endloop
  endfacet
  facet normal -0.750303 -0.661095 0
    outer loop
      vertex 20.8425 12.9744 0
      vertex 20.801 13.0215 2
      vertex 20.801 13.0215 0
    endloop
  endfacet
  facet normal -0.750303 -0.661095 0
    outer loop
      vertex 20.801 13.0215 2
      vertex 20.8425 12.9744 0
      vertex 20.8425 12.9744 2
    endloop
  endfacet
  facet normal -0.397563 -0.917575 0
    outer loop
      vertex 20.4401 13.2668 0
      vertex 20.4978 13.2418 2
      vertex 20.4401 13.2668 2
    endloop
  endfacet
  facet normal -0.397563 -0.917575 -0
    outer loop
      vertex 20.4978 13.2418 2
      vertex 20.4401 13.2668 0
      vertex 20.4978 13.2418 0
    endloop
  endfacet
  facet normal -0.613168 -0.789952 0
    outer loop
      vertex 20.6598 13.146 0
      vertex 20.7094 13.1075 2
      vertex 20.6598 13.146 2
    endloop
  endfacet
  facet normal -0.613168 -0.789952 -0
    outer loop
      vertex 20.7094 13.1075 2
      vertex 20.6598 13.146 0
      vertex 20.7094 13.1075 0
    endloop
  endfacet
  facet normal 0.789952 -0.613168 0
    outer loop
      vertex 19.263 12.9248 2
      vertex 19.3015 12.9744 0
      vertex 19.3015 12.9744 2
    endloop
  endfacet
  facet normal 0.789952 -0.613168 0
    outer loop
      vertex 19.3015 12.9744 0
      vertex 19.263 12.9248 2
      vertex 19.263 12.9248 0
    endloop
  endfacet
  facet normal 0.917575 -0.397563 0
    outer loop
      vertex 19.1422 12.7051 2
      vertex 19.1672 12.7628 0
      vertex 19.1672 12.7628 2
    endloop
  endfacet
  facet normal 0.917575 -0.397563 0
    outer loop
      vertex 19.1672 12.7628 0
      vertex 19.1422 12.7051 2
      vertex 19.1422 12.7051 0
    endloop
  endfacet
  facet normal 0.999493 0.031831 0
    outer loop
      vertex 19.074 12.2742 2
      vertex 19.072 12.337 0
      vertex 19.072 12.337 2
    endloop
  endfacet
  facet normal 0.999493 0.031831 0
    outer loop
      vertex 19.072 12.337 0
      vertex 19.074 12.2742 2
      vertex 19.074 12.2742 0
    endloop
  endfacet
  facet normal 0.453568 -0.891222 0
    outer loop
      vertex 19.5902 13.2133 0
      vertex 19.6462 13.2418 2
      vertex 19.5902 13.2133 2
    endloop
  endfacet
  facet normal 0.453568 -0.891222 0
    outer loop
      vertex 19.6462 13.2418 2
      vertex 19.5902 13.2133 0
      vertex 19.6462 13.2418 0
    endloop
  endfacet
  facet normal 0.707107 -0.707107 0
    outer loop
      vertex 19.343 13.0215 2
      vertex 19.3875 13.066 0
      vertex 19.3875 13.066 2
    endloop
  endfacet
  facet normal 0.707107 -0.707107 0
    outer loop
      vertex 19.3875 13.066 0
      vertex 19.343 13.0215 2
      vertex 19.343 13.0215 0
    endloop
  endfacet
  facet normal 0.339058 -0.940766 0
    outer loop
      vertex 19.7039 13.2668 0
      vertex 19.763 13.2881 2
      vertex 19.7039 13.2668 2
    endloop
  endfacet
  facet normal 0.339058 -0.940766 0
    outer loop
      vertex 19.763 13.2881 2
      vertex 19.7039 13.2668 0
      vertex 19.763 13.2881 0
    endloop
  endfacet
  facet normal -0.155881 0.987776 0
    outer loop
      vertex 20.2594 11.3547 0
      vertex 20.1973 11.3449 2
      vertex 20.2594 11.3547 2
    endloop
  endfacet
  facet normal -0.155881 0.987776 0
    outer loop
      vertex 20.1973 11.3449 2
      vertex 20.2594 11.3547 0
      vertex 20.1973 11.3449 0
    endloop
  endfacet
  facet normal -0.278715 0.960374 0
    outer loop
      vertex 20.381 11.3859 0
      vertex 20.3207 11.3684 2
      vertex 20.381 11.3859 2
    endloop
  endfacet
  facet normal -0.278715 0.960374 0
    outer loop
      vertex 20.3207 11.3684 2
      vertex 20.381 11.3859 0
      vertex 20.3207 11.3684 0
    endloop
  endfacet
  facet normal 0.509802 0.860292 -0
    outer loop
      vertex 19.5902 11.4607 0
      vertex 19.5362 11.4927 2
      vertex 19.5902 11.4607 2
    endloop
  endfacet
  facet normal 0.509802 0.860292 0
    outer loop
      vertex 19.5362 11.4927 2
      vertex 19.5902 11.4607 0
      vertex 19.5362 11.4927 0
    endloop
  endfacet
  facet normal 0.397563 0.917575 -0
    outer loop
      vertex 19.7039 11.4072 0
      vertex 19.6462 11.4322 2
      vertex 19.7039 11.4072 2
    endloop
  endfacet
  facet normal 0.397563 0.917575 0
    outer loop
      vertex 19.6462 11.4322 2
      vertex 19.7039 11.4072 0
      vertex 19.6462 11.4322 0
    endloop
  endfacet
  facet normal -0.031831 0.999493 0
    outer loop
      vertex 20.1348 11.339 0
      vertex 20.072 11.337 2
      vertex 20.1348 11.339 2
    endloop
  endfacet
  facet normal -0.031831 0.999493 0
    outer loop
      vertex 20.072 11.337 2
      vertex 20.1348 11.339 0
      vertex 20.072 11.337 0
    endloop
  endfacet
  facet normal 0.940766 0.339058 0
    outer loop
      vertex 19.1422 11.9689 2
      vertex 19.1209 12.028 0
      vertex 19.1209 12.028 2
    endloop
  endfacet
  facet normal 0.940766 0.339058 0
    outer loop
      vertex 19.1209 12.028 0
      vertex 19.1422 11.9689 2
      vertex 19.1422 11.9689 0
    endloop
  endfacet
  facet normal 0.975924 0.21811 0
    outer loop
      vertex 19.1034 12.0883 2
      vertex 19.0897 12.1496 0
      vertex 19.0897 12.1496 2
    endloop
  endfacet
  facet normal 0.975924 0.21811 0
    outer loop
      vertex 19.0897 12.1496 0
      vertex 19.1034 12.0883 2
      vertex 19.1034 12.0883 0
    endloop
  endfacet
endsolid OpenSCAD_Model
