solid OpenSCAD_Model
  facet normal 0 0 -1
    outer loop
      vertex 4.0416 0 0
      vertex 12.0708 15 0
      vertex 12.0708 0 0
    endloop
  endfacet
  facet normal 0 -0 -1
    outer loop
      vertex 11.5854 18.1613 0
      vertex 12.0708 15 0
      vertex 4.0416 0 0
    endloop
  endfacet
  facet normal 0 0 -1
    outer loop
      vertex 12.0708 15 0
      vertex 11.9662 17.601 0
      vertex 12.0182 17.5657 0
    endloop
  endfacet
  facet normal 0 0 -1
    outer loop
      vertex 12.0708 15 0
      vertex 11.9166 17.6395 0
      vertex 11.9662 17.601 0
    endloop
  endfacet
  facet normal 0 0 -1
    outer loop
      vertex 12.0708 15 0
      vertex 11.8695 17.681 0
      vertex 11.9166 17.6395 0
    endloop
  endfacet
  facet normal 0 0 -1
    outer loop
      vertex 12.0708 15 0
      vertex 11.825 17.7255 0
      vertex 11.8695 17.681 0
    endloop
  endfacet
  facet normal 0 0 -1
    outer loop
      vertex 12.0708 15 0
      vertex 11.7835 17.7726 0
      vertex 11.825 17.7255 0
    endloop
  endfacet
  facet normal 0 0 -1
    outer loop
      vertex 12.0708 15 0
      vertex 11.745 17.8222 0
      vertex 11.7835 17.7726 0
    endloop
  endfacet
  facet normal 0 0 -1
    outer loop
      vertex 12.0708 15 0
      vertex 11.7097 17.8742 0
      vertex 11.745 17.8222 0
    endloop
  endfacet
  facet normal 0 0 -1
    outer loop
      vertex 12.0708 15 0
      vertex 11.6777 17.9282 0
      vertex 11.7097 17.8742 0
    endloop
  endfacet
  facet normal 0 0 -1
    outer loop
      vertex 12.0708 15 0
      vertex 11.6492 17.9842 0
      vertex 11.6777 17.9282 0
    endloop
  endfacet
  facet normal 0 0 -1
    outer loop
      vertex 12.0708 15 0
      vertex 11.6242 18.0419 0
      vertex 11.6492 17.9842 0
    endloop
  endfacet
  facet normal 0 0 -1
    outer loop
      vertex 12.0708 15 0
      vertex 11.6029 18.101 0
      vertex 11.6242 18.0419 0
    endloop
  endfacet
  facet normal 0 0 -1
    outer loop
      vertex 12.0708 15 0
      vertex 11.5854 18.1613 0
      vertex 11.6029 18.101 0
    endloop
  endfacet
  facet normal -0 0 -1
    outer loop
      vertex 11.5854 18.1613 0
      vertex 4.0416 0 0
      vertex 11.5717 18.2226 0
    endloop
  endfacet
  facet normal -0 0 -1
    outer loop
      vertex 11.5717 18.2226 0
      vertex 4.0416 0 0
      vertex 11.5619 18.2847 0
    endloop
  endfacet
  facet normal -0 0 -1
    outer loop
      vertex 11.5619 18.2847 0
      vertex 4.0416 0 0
      vertex 11.556 18.3472 0
    endloop
  endfacet
  facet normal -0 0 -1
    outer loop
      vertex 11.556 18.3472 0
      vertex 4.0416 0 0
      vertex 11.554 18.41 0
    endloop
  endfacet
  facet normal 0 0 -1
    outer loop
      vertex 26.23 27.4232 0
      vertex 34.5032 27.532 0
      vertex 34.3555 25.2203 0
    endloop
  endfacet
  facet normal 0 0 -1
    outer loop
      vertex 26.129 26.2962 0
      vertex 34.3555 25.2203 0
      vertex 33.9124 23.1677 0
    endloop
  endfacet
  facet normal 0 0 -1
    outer loop
      vertex 26.0883 28.7855 0
      vertex 34.5032 27.532 0
      vertex 26.23 27.4232 0
    endloop
  endfacet
  facet normal 0 0 -1
    outer loop
      vertex 25.8261 25.2655 0
      vertex 33.9124 23.1677 0
      vertex 33.174 21.3744 0
    endloop
  endfacet
  facet normal 0 0 -1
    outer loop
      vertex 25.3212 24.3312 0
      vertex 33.174 21.3744 0
      vertex 32.208 19.8299 0
    endloop
  endfacet
  facet normal 0 0 -1
    outer loop
      vertex 34.5032 27.532 0
      vertex 26.0883 28.7855 0
      vertex 34.247 30.5021 0
    endloop
  endfacet
  facet normal 0 0 -1
    outer loop
      vertex 25.3212 24.3312 0
      vertex 32.208 19.8299 0
      vertex 31.0823 18.5234 0
    endloop
  endfacet
  facet normal -0 0 -1
    outer loop
      vertex 34.247 30.5021 0
      vertex 26.0883 28.7855 0
      vertex 33.4783 33.0835 0
    endloop
  endfacet
  facet normal 0 0 -1
    outer loop
      vertex 24.6385 23.5234 0
      vertex 31.0823 18.5234 0
      vertex 29.7968 17.4548 0
    endloop
  endfacet
  facet normal 0 0 -1
    outer loop
      vertex 25.6632 29.9789 0
      vertex 33.4783 33.0835 0
      vertex 26.0883 28.7855 0
    endloop
  endfacet
  facet normal 0 0 -1
    outer loop
      vertex 24.6385 23.5234 0
      vertex 29.7968 17.4548 0
      vertex 28.424 16.6124 0
    endloop
  endfacet
  facet normal 0 0 -1
    outer loop
      vertex 23.8021 22.8723 0
      vertex 28.424 16.6124 0
      vertex 27.0361 15.984 0
    endloop
  endfacet
  facet normal -0 0 -1
    outer loop
      vertex 33.4783 33.0835 0
      vertex 25.6632 29.9789 0
      vertex 32.1972 35.276 0
    endloop
  endfacet
  facet normal 0 0 -1
    outer loop
      vertex 24.9548 31.0036 0
      vertex 32.1972 35.276 0
      vertex 25.6632 29.9789 0
    endloop
  endfacet
  facet normal 0 0 -1
    outer loop
      vertex 34.3555 25.2203 0
      vertex 26.129 26.2962 0
      vertex 26.23 27.4232 0
    endloop
  endfacet
  facet normal 0 0 -1
    outer loop
      vertex 33.9124 23.1677 0
      vertex 25.8261 25.2655 0
      vertex 26.129 26.2962 0
    endloop
  endfacet
  facet normal 0 0 -1
    outer loop
      vertex 23.8021 22.8723 0
      vertex 27.0361 15.984 0
      vertex 25.6332 15.5696 0
    endloop
  endfacet
  facet normal 0 0 -1
    outer loop
      vertex 33.174 21.3744 0
      vertex 25.3212 24.3312 0
      vertex 25.8261 25.2655 0
    endloop
  endfacet
  facet normal 0 0 -1
    outer loop
      vertex 31.0823 18.5234 0
      vertex 24.6385 23.5234 0
      vertex 25.3212 24.3312 0
    endloop
  endfacet
  facet normal 0 0 -1
    outer loop
      vertex 28.424 16.6124 0
      vertex 23.8021 22.8723 0
      vertex 24.6385 23.5234 0
    endloop
  endfacet
  facet normal 0 0 -1
    outer loop
      vertex 22.812 22.378 0
      vertex 25.6332 15.5696 0
      vertex 23.43 15.2531 0
    endloop
  endfacet
  facet normal 0 0 -1
    outer loop
      vertex 25.6332 15.5696 0
      vertex 22.812 22.378 0
      vertex 23.8021 22.8723 0
    endloop
  endfacet
  facet normal 0 0 -1
    outer loop
      vertex 23.43 15.2531 0
      vertex 21.3955 22.0316 0
      vertex 22.812 22.378 0
    endloop
  endfacet
  facet normal 0 0 -1
    outer loop
      vertex 20.6542 15.0633 0
      vertex 21.3955 22.0316 0
      vertex 23.43 15.2531 0
    endloop
  endfacet
  facet normal 0 0 -1
    outer loop
      vertex 20.6542 15.0633 0
      vertex 19.2797 21.8237 0
      vertex 21.3955 22.0316 0
    endloop
  endfacet
  facet normal 0 0 -1
    outer loop
      vertex 17.3056 15 0
      vertex 19.2797 21.8237 0
      vertex 20.6542 15.0633 0
    endloop
  endfacet
  facet normal 0 0 -1
    outer loop
      vertex 17.3056 15 0
      vertex 16.4648 21.7544 0
      vertex 19.2797 21.8237 0
    endloop
  endfacet
  facet normal 0 0 -1
    outer loop
      vertex 17.3056 15 0
      vertex 13.554 18.41 0
      vertex 16.4648 21.7544 0
    endloop
  endfacet
  facet normal 0 0 -1
    outer loop
      vertex 17.3056 15 0
      vertex 13.552 18.3472 0
      vertex 13.554 18.41 0
    endloop
  endfacet
  facet normal 0 0 -1
    outer loop
      vertex 17.3056 15 0
      vertex 13.5461 18.2847 0
      vertex 13.552 18.3472 0
    endloop
  endfacet
  facet normal 0 0 -1
    outer loop
      vertex 17.3056 15 0
      vertex 13.5363 18.2226 0
      vertex 13.5461 18.2847 0
    endloop
  endfacet
  facet normal 0 0 -1
    outer loop
      vertex 17.3056 15 0
      vertex 13.5226 18.1613 0
      vertex 13.5363 18.2226 0
    endloop
  endfacet
  facet normal 0 0 -1
    outer loop
      vertex 17.3056 15 0
      vertex 13.5051 18.101 0
      vertex 13.5226 18.1613 0
    endloop
  endfacet
  facet normal 0 0 -1
    outer loop
      vertex 17.3056 15 0
      vertex 13.4838 18.0419 0
      vertex 13.5051 18.101 0
    endloop
  endfacet
  facet normal 0 0 -1
    outer loop
      vertex 17.3056 15 0
      vertex 13.4588 17.9842 0
      vertex 13.4838 18.0419 0
    endloop
  endfacet
  facet normal 0 0 -1
    outer loop
      vertex 17.3056 15 0
      vertex 13.4303 17.9282 0
      vertex 13.4588 17.9842 0
    endloop
  endfacet
  facet normal 0 0 -1
    outer loop
      vertex 17.3056 15 0
      vertex 13.3983 17.8742 0
      vertex 13.4303 17.9282 0
    endloop
  endfacet
  facet normal 0 0 -1
    outer loop
      vertex 17.3056 15 0
      vertex 13.363 17.8222 0
      vertex 13.3983 17.8742 0
    endloop
  endfacet
  facet normal 0 0 -1
    outer loop
      vertex 17.3056 15 0
      vertex 13.3245 17.7726 0
      vertex 13.363 17.8222 0
    endloop
  endfacet
  facet normal 0 0 -1
    outer loop
      vertex 17.3056 15 0
      vertex 13.283 17.7255 0
      vertex 13.3245 17.7726 0
    endloop
  endfacet
  facet normal 0 0 -1
    outer loop
      vertex 17.3056 15 0
      vertex 13.2385 17.681 0
      vertex 13.283 17.7255 0
    endloop
  endfacet
  facet normal 0 0 -1
    outer loop
      vertex 17.3056 15 0
      vertex 13.1914 17.6395 0
      vertex 13.2385 17.681 0
    endloop
  endfacet
  facet normal 0 0 -1
    outer loop
      vertex 17.3056 15 0
      vertex 13.1418 17.601 0
      vertex 13.1914 17.6395 0
    endloop
  endfacet
  facet normal 0 0 -1
    outer loop
      vertex 12.0708 15 0
      vertex 13.1418 17.601 0
      vertex 17.3056 15 0
    endloop
  endfacet
  facet normal 0 0 -1
    outer loop
      vertex 13.1418 17.601 0
      vertex 12.0708 15 0
      vertex 13.0898 17.5657 0
    endloop
  endfacet
  facet normal 0 0 -1
    outer loop
      vertex 13.0898 17.5657 0
      vertex 12.0708 15 0
      vertex 13.0358 17.5337 0
    endloop
  endfacet
  facet normal 0 0 -1
    outer loop
      vertex 13.0358 17.5337 0
      vertex 12.0708 15 0
      vertex 12.9798 17.5052 0
    endloop
  endfacet
  facet normal 0 0 -1
    outer loop
      vertex 12.9798 17.5052 0
      vertex 12.0708 15 0
      vertex 12.9221 17.4802 0
    endloop
  endfacet
  facet normal 0 0 -1
    outer loop
      vertex 12.9221 17.4802 0
      vertex 12.0708 15 0
      vertex 12.863 17.4589 0
    endloop
  endfacet
  facet normal 0 0 -1
    outer loop
      vertex 12.863 17.4589 0
      vertex 12.0708 15 0
      vertex 12.8027 17.4414 0
    endloop
  endfacet
  facet normal 0 0 -1
    outer loop
      vertex 12.8027 17.4414 0
      vertex 12.0708 15 0
      vertex 12.7414 17.4277 0
    endloop
  endfacet
  facet normal 0 0 -1
    outer loop
      vertex 12.7414 17.4277 0
      vertex 12.0708 15 0
      vertex 12.6793 17.4179 0
    endloop
  endfacet
  facet normal 0 0 -1
    outer loop
      vertex 12.6793 17.4179 0
      vertex 12.0708 15 0
      vertex 12.6168 17.412 0
    endloop
  endfacet
  facet normal 0 0 -1
    outer loop
      vertex 12.6168 17.412 0
      vertex 12.0708 15 0
      vertex 12.554 17.41 0
    endloop
  endfacet
  facet normal -0 0 -1
    outer loop
      vertex 12.554 17.41 0
      vertex 12.0708 15 0
      vertex 12.4912 17.412 0
    endloop
  endfacet
  facet normal -0 0 -1
    outer loop
      vertex 12.4912 17.412 0
      vertex 12.0708 15 0
      vertex 12.4287 17.4179 0
    endloop
  endfacet
  facet normal -0 0 -1
    outer loop
      vertex 12.4287 17.4179 0
      vertex 12.0708 15 0
      vertex 12.3666 17.4277 0
    endloop
  endfacet
  facet normal -0 0 -1
    outer loop
      vertex 12.3666 17.4277 0
      vertex 12.0708 15 0
      vertex 12.3053 17.4414 0
    endloop
  endfacet
  facet normal -0 0 -1
    outer loop
      vertex 12.3053 17.4414 0
      vertex 12.0708 15 0
      vertex 12.245 17.4589 0
    endloop
  endfacet
  facet normal -0 0 -1
    outer loop
      vertex 12.245 17.4589 0
      vertex 12.0708 15 0
      vertex 12.1859 17.4802 0
    endloop
  endfacet
  facet normal -0 0 -1
    outer loop
      vertex 12.1859 17.4802 0
      vertex 12.0708 15 0
      vertex 12.1282 17.5052 0
    endloop
  endfacet
  facet normal 0 0 -1
    outer loop
      vertex 12.0708 15 0
      vertex 12.0722 17.5337 0
      vertex 12.1282 17.5052 0
    endloop
  endfacet
  facet normal -0 0 -1
    outer loop
      vertex 12.0722 17.5337 0
      vertex 12.0708 15 0
      vertex 12.0182 17.5657 0
    endloop
  endfacet
  facet normal -0 0 -1
    outer loop
      vertex 32.1972 35.276 0
      vertex 24.9548 31.0036 0
      vertex 30.5366 37.0406 0
    endloop
  endfacet
  facet normal -0 0 -1
    outer loop
      vertex 30.5366 37.0406 0
      vertex 24.9548 31.0036 0
      vertex 28.6288 38.338 0
    endloop
  endfacet
  facet normal 0 0 -1
    outer loop
      vertex 24.0296 31.8266 0
      vertex 28.6288 38.338 0
      vertex 24.9548 31.0036 0
    endloop
  endfacet
  facet normal -0 0 -1
    outer loop
      vertex 28.6288 38.338 0
      vertex 24.0296 31.8266 0
      vertex 26.474 39.1684 0
    endloop
  endfacet
  facet normal 0 0 -1
    outer loop
      vertex 22.9537 32.4144 0
      vertex 26.474 39.1684 0
      vertex 24.0296 31.8266 0
    endloop
  endfacet
  facet normal -0 0 -1
    outer loop
      vertex 26.474 39.1684 0
      vertex 22.9537 32.4144 0
      vertex 24.4245 39.5 0
    endloop
  endfacet
  facet normal 0 0 -1
    outer loop
      vertex 21.7272 32.7672 0
      vertex 24.4245 39.5 0
      vertex 22.9537 32.4144 0
    endloop
  endfacet
  facet normal 0 0 -1
    outer loop
      vertex 21.7272 32.7672 0
      vertex 21.2418 39.6989 0
      vertex 24.4245 39.5 0
    endloop
  endfacet
  facet normal 0 0 -1
    outer loop
      vertex 20.4463 32.9179 0
      vertex 21.2418 39.6989 0
      vertex 21.7272 32.7672 0
    endloop
  endfacet
  facet normal 0 0 -1
    outer loop
      vertex 18.5204 33.0083 0
      vertex 21.2418 39.6989 0
      vertex 20.4463 32.9179 0
    endloop
  endfacet
  facet normal 0 0 -1
    outer loop
      vertex 18.5204 33.0083 0
      vertex 16.926 39.7652 0
      vertex 21.2418 39.6989 0
    endloop
  endfacet
  facet normal 0 0 -1
    outer loop
      vertex 15.9496 33.0384 0
      vertex 16.926 39.7652 0
      vertex 18.5204 33.0083 0
    endloop
  endfacet
  facet normal 0 0 -1
    outer loop
      vertex 12.0708 33.0384 0
      vertex 16.926 39.7652 0
      vertex 15.9496 33.0384 0
    endloop
  endfacet
  facet normal 0 0 -1
    outer loop
      vertex 11.9166 19.1805 0
      vertex 12.0708 21.7544 0
      vertex 11.9662 19.219 0
    endloop
  endfacet
  facet normal 0 0 -1
    outer loop
      vertex 11.8695 19.139 0
      vertex 12.0708 21.7544 0
      vertex 11.9166 19.1805 0
    endloop
  endfacet
  facet normal 0 0 -1
    outer loop
      vertex 11.825 19.0945 0
      vertex 12.0708 21.7544 0
      vertex 11.8695 19.139 0
    endloop
  endfacet
  facet normal 0 0 -1
    outer loop
      vertex 11.7835 19.0474 0
      vertex 12.0708 21.7544 0
      vertex 11.825 19.0945 0
    endloop
  endfacet
  facet normal 0 0 -1
    outer loop
      vertex 11.745 18.9978 0
      vertex 12.0708 21.7544 0
      vertex 11.7835 19.0474 0
    endloop
  endfacet
  facet normal 0 0 -1
    outer loop
      vertex 11.7097 18.9458 0
      vertex 12.0708 21.7544 0
      vertex 11.745 18.9978 0
    endloop
  endfacet
  facet normal 0 0 -1
    outer loop
      vertex 11.6777 18.8918 0
      vertex 12.0708 21.7544 0
      vertex 11.7097 18.9458 0
    endloop
  endfacet
  facet normal 0 0 -1
    outer loop
      vertex 11.6492 18.8358 0
      vertex 12.0708 21.7544 0
      vertex 11.6777 18.8918 0
    endloop
  endfacet
  facet normal 0 0 -1
    outer loop
      vertex 11.6242 18.7781 0
      vertex 12.0708 21.7544 0
      vertex 11.6492 18.8358 0
    endloop
  endfacet
  facet normal 0 0 -1
    outer loop
      vertex 11.6029 18.719 0
      vertex 12.0708 21.7544 0
      vertex 11.6242 18.7781 0
    endloop
  endfacet
  facet normal 0 0 -1
    outer loop
      vertex 11.5854 18.6587 0
      vertex 12.0708 21.7544 0
      vertex 11.6029 18.719 0
    endloop
  endfacet
  facet normal -0 0 -1
    outer loop
      vertex 12.0708 21.7544 0
      vertex 11.5854 18.6587 0
      vertex 4.0416 39.7652 0
    endloop
  endfacet
  facet normal 0 0 -1
    outer loop
      vertex 4.0416 39.7652 0
      vertex 11.5854 18.6587 0
      vertex 11.5717 18.5974 0
    endloop
  endfacet
  facet normal 0 0 -1
    outer loop
      vertex 4.0416 39.7652 0
      vertex 11.5717 18.5974 0
      vertex 11.5619 18.5353 0
    endloop
  endfacet
  facet normal 0 0 -1
    outer loop
      vertex 4.0416 39.7652 0
      vertex 11.5619 18.5353 0
      vertex 11.556 18.4728 0
    endloop
  endfacet
  facet normal 0 0 -1
    outer loop
      vertex 4.0416 0 0
      vertex 11.556 18.4728 0
      vertex 11.554 18.41 0
    endloop
  endfacet
  facet normal 0 0 -1
    outer loop
      vertex 4.0416 39.7652 0
      vertex 11.556 18.4728 0
      vertex 4.0416 0 0
    endloop
  endfacet
  facet normal 0 0 -1
    outer loop
      vertex 12.0708 33.0384 0
      vertex 4.0416 39.7652 0
      vertex 16.926 39.7652 0
    endloop
  endfacet
  facet normal 0 0 -1
    outer loop
      vertex 12.0708 21.7544 0
      vertex 4.0416 39.7652 0
      vertex 12.0708 33.0384 0
    endloop
  endfacet
  facet normal 0 0 -1
    outer loop
      vertex 13.552 18.4728 0
      vertex 16.4648 21.7544 0
      vertex 13.554 18.41 0
    endloop
  endfacet
  facet normal 0 0 -1
    outer loop
      vertex 13.5461 18.5353 0
      vertex 16.4648 21.7544 0
      vertex 13.552 18.4728 0
    endloop
  endfacet
  facet normal 0 0 -1
    outer loop
      vertex 13.5363 18.5974 0
      vertex 16.4648 21.7544 0
      vertex 13.5461 18.5353 0
    endloop
  endfacet
  facet normal 0 0 -1
    outer loop
      vertex 13.5226 18.6587 0
      vertex 16.4648 21.7544 0
      vertex 13.5363 18.5974 0
    endloop
  endfacet
  facet normal 0 0 -1
    outer loop
      vertex 13.5051 18.719 0
      vertex 16.4648 21.7544 0
      vertex 13.5226 18.6587 0
    endloop
  endfacet
  facet normal 0 0 -1
    outer loop
      vertex 13.4838 18.7781 0
      vertex 16.4648 21.7544 0
      vertex 13.5051 18.719 0
    endloop
  endfacet
  facet normal 0 0 -1
    outer loop
      vertex 13.4588 18.8358 0
      vertex 16.4648 21.7544 0
      vertex 13.4838 18.7781 0
    endloop
  endfacet
  facet normal 0 0 -1
    outer loop
      vertex 13.4303 18.8918 0
      vertex 16.4648 21.7544 0
      vertex 13.4588 18.8358 0
    endloop
  endfacet
  facet normal 0 0 -1
    outer loop
      vertex 13.3983 18.9458 0
      vertex 16.4648 21.7544 0
      vertex 13.4303 18.8918 0
    endloop
  endfacet
  facet normal 0 0 -1
    outer loop
      vertex 13.363 18.9978 0
      vertex 16.4648 21.7544 0
      vertex 13.3983 18.9458 0
    endloop
  endfacet
  facet normal 0 0 -1
    outer loop
      vertex 13.3245 19.0474 0
      vertex 16.4648 21.7544 0
      vertex 13.363 18.9978 0
    endloop
  endfacet
  facet normal 0 0 -1
    outer loop
      vertex 13.283 19.0945 0
      vertex 16.4648 21.7544 0
      vertex 13.3245 19.0474 0
    endloop
  endfacet
  facet normal 0 0 -1
    outer loop
      vertex 13.2385 19.139 0
      vertex 16.4648 21.7544 0
      vertex 13.283 19.0945 0
    endloop
  endfacet
  facet normal 0 0 -1
    outer loop
      vertex 13.1914 19.1805 0
      vertex 16.4648 21.7544 0
      vertex 13.2385 19.139 0
    endloop
  endfacet
  facet normal 0 0 -1
    outer loop
      vertex 13.1418 19.219 0
      vertex 16.4648 21.7544 0
      vertex 13.1914 19.1805 0
    endloop
  endfacet
  facet normal 0 0 -1
    outer loop
      vertex 13.0898 19.2543 0
      vertex 16.4648 21.7544 0
      vertex 13.1418 19.219 0
    endloop
  endfacet
  facet normal 0 0 -1
    outer loop
      vertex 12.0708 21.7544 0
      vertex 13.0898 19.2543 0
      vertex 13.0358 19.2863 0
    endloop
  endfacet
  facet normal 0 0 -1
    outer loop
      vertex 12.0708 21.7544 0
      vertex 13.0358 19.2863 0
      vertex 12.9798 19.3148 0
    endloop
  endfacet
  facet normal 0 0 -1
    outer loop
      vertex 12.0708 21.7544 0
      vertex 12.9798 19.3148 0
      vertex 12.9221 19.3398 0
    endloop
  endfacet
  facet normal 0 0 -1
    outer loop
      vertex 12.0708 21.7544 0
      vertex 12.9221 19.3398 0
      vertex 12.863 19.3611 0
    endloop
  endfacet
  facet normal 0 0 -1
    outer loop
      vertex 12.0708 21.7544 0
      vertex 12.863 19.3611 0
      vertex 12.8027 19.3786 0
    endloop
  endfacet
  facet normal 0 0 -1
    outer loop
      vertex 12.0708 21.7544 0
      vertex 12.8027 19.3786 0
      vertex 12.7414 19.3923 0
    endloop
  endfacet
  facet normal 0 0 -1
    outer loop
      vertex 12.0708 21.7544 0
      vertex 12.7414 19.3923 0
      vertex 12.6793 19.4021 0
    endloop
  endfacet
  facet normal 0 0 -1
    outer loop
      vertex 12.0708 21.7544 0
      vertex 12.6793 19.4021 0
      vertex 12.6168 19.408 0
    endloop
  endfacet
  facet normal 0 0 -1
    outer loop
      vertex 12.0708 21.7544 0
      vertex 12.6168 19.408 0
      vertex 12.554 19.41 0
    endloop
  endfacet
  facet normal 0 0 -1
    outer loop
      vertex 12.0708 21.7544 0
      vertex 12.554 19.41 0
      vertex 12.4912 19.408 0
    endloop
  endfacet
  facet normal 0 0 -1
    outer loop
      vertex 12.0708 21.7544 0
      vertex 12.4912 19.408 0
      vertex 12.4287 19.4021 0
    endloop
  endfacet
  facet normal 0 0 -1
    outer loop
      vertex 12.0708 21.7544 0
      vertex 12.4287 19.4021 0
      vertex 12.3666 19.3923 0
    endloop
  endfacet
  facet normal 0 0 -1
    outer loop
      vertex 12.0708 21.7544 0
      vertex 12.3666 19.3923 0
      vertex 12.3053 19.3786 0
    endloop
  endfacet
  facet normal 0 0 -1
    outer loop
      vertex 12.0708 21.7544 0
      vertex 12.3053 19.3786 0
      vertex 12.245 19.3611 0
    endloop
  endfacet
  facet normal 0 0 -1
    outer loop
      vertex 12.0708 21.7544 0
      vertex 12.245 19.3611 0
      vertex 12.1859 19.3398 0
    endloop
  endfacet
  facet normal 0 0 -1
    outer loop
      vertex 12.0708 21.7544 0
      vertex 12.1859 19.3398 0
      vertex 12.1282 19.3148 0
    endloop
  endfacet
  facet normal 0 0 -1
    outer loop
      vertex 12.0708 21.7544 0
      vertex 12.1282 19.3148 0
      vertex 12.0722 19.2863 0
    endloop
  endfacet
  facet normal 0 0 -1
    outer loop
      vertex 13.0898 19.2543 0
      vertex 12.0708 21.7544 0
      vertex 16.4648 21.7544 0
    endloop
  endfacet
  facet normal 0 0 -1
    outer loop
      vertex 11.9662 19.219 0
      vertex 12.0708 21.7544 0
      vertex 12.0182 19.2543 0
    endloop
  endfacet
  facet normal 0 0 -1
    outer loop
      vertex 12.0182 19.2543 0
      vertex 12.0708 21.7544 0
      vertex 12.0722 19.2863 0
    endloop
  endfacet
  facet normal 0 0 1
    outer loop
      vertex 34.5032 27.532 5
      vertex 26.0883 28.7855 5
      vertex 26.23 27.4232 5
    endloop
  endfacet
  facet normal 0 0 1
    outer loop
      vertex 28.6288 38.338 5
      vertex 25.6632 29.9789 5
      vertex 26.0883 28.7855 5
    endloop
  endfacet
  facet normal 0 0 1
    outer loop
      vertex 28.6288 38.338 5
      vertex 24.9548 31.0036 5
      vertex 25.6632 29.9789 5
    endloop
  endfacet
  facet normal 0 0 1
    outer loop
      vertex 22.9537 32.4144 5
      vertex 26.474 39.1684 5
      vertex 24.4245 39.5 5
    endloop
  endfacet
  facet normal 0 0 1
    outer loop
      vertex 28.6288 38.338 5
      vertex 24.0296 31.8266 5
      vertex 24.9548 31.0036 5
    endloop
  endfacet
  facet normal 0 0 1
    outer loop
      vertex 26.474 39.1684 5
      vertex 22.9537 32.4144 5
      vertex 24.0296 31.8266 5
    endloop
  endfacet
  facet normal 0 0 1
    outer loop
      vertex 24.4245 39.5 5
      vertex 21.7272 32.7672 5
      vertex 22.9537 32.4144 5
    endloop
  endfacet
  facet normal 0 0 1
    outer loop
      vertex 21.2418 39.6989 5
      vertex 21.7272 32.7672 5
      vertex 24.4245 39.5 5
    endloop
  endfacet
  facet normal 0 0 1
    outer loop
      vertex 21.2418 39.6989 5
      vertex 20.4463 32.9179 5
      vertex 21.7272 32.7672 5
    endloop
  endfacet
  facet normal 0 0 1
    outer loop
      vertex 21.2418 39.6989 5
      vertex 18.5204 33.0083 5
      vertex 20.4463 32.9179 5
    endloop
  endfacet
  facet normal 0 0 1
    outer loop
      vertex 16.926 39.7652 5
      vertex 18.5204 33.0083 5
      vertex 21.2418 39.6989 5
    endloop
  endfacet
  facet normal 0 0 1
    outer loop
      vertex 16.926 39.7652 5
      vertex 15.9496 33.0384 5
      vertex 18.5204 33.0083 5
    endloop
  endfacet
  facet normal 0 0 1
    outer loop
      vertex 16.926 39.7652 5
      vertex 12.0708 33.0384 5
      vertex 15.9496 33.0384 5
    endloop
  endfacet
  facet normal 0 0 1
    outer loop
      vertex 4.0416 39.7652 5
      vertex 12.0708 21.7544 5
      vertex 12.0708 33.0384 5
    endloop
  endfacet
  facet normal 0 0 1
    outer loop
      vertex 4.0416 0 5
      vertex 12.0708 21.7544 5
      vertex 4.0416 39.7652 5
    endloop
  endfacet
  facet normal -0 0 1
    outer loop
      vertex 4.0416 39.7652 5
      vertex 12.0708 33.0384 5
      vertex 16.926 39.7652 5
    endloop
  endfacet
  facet normal 0 0 1
    outer loop
      vertex 12.0708 21.7544 5
      vertex 4.0416 0 5
      vertex 12.0708 15 5
    endloop
  endfacet
  facet normal 0 0 1
    outer loop
      vertex 12.0708 15 5
      vertex 4.0416 0 5
      vertex 12.0708 0 5
    endloop
  endfacet
  facet normal -0 0 1
    outer loop
      vertex 26.0883 28.7855 5
      vertex 34.5032 27.532 5
      vertex 34.247 30.5021 5
    endloop
  endfacet
  facet normal 0 0 1
    outer loop
      vertex 34.5032 27.532 5
      vertex 26.23 27.4232 5
      vertex 34.3555 25.2203 5
    endloop
  endfacet
  facet normal 0 0 1
    outer loop
      vertex 26.0883 28.7855 5
      vertex 34.247 30.5021 5
      vertex 33.4783 33.0835 5
    endloop
  endfacet
  facet normal -0 0 1
    outer loop
      vertex 26.129 26.2962 5
      vertex 34.3555 25.2203 5
      vertex 26.23 27.4232 5
    endloop
  endfacet
  facet normal 0 0 1
    outer loop
      vertex 34.3555 25.2203 5
      vertex 26.129 26.2962 5
      vertex 33.9124 23.1677 5
    endloop
  endfacet
  facet normal 0 0 1
    outer loop
      vertex 26.0883 28.7855 5
      vertex 33.4783 33.0835 5
      vertex 32.1972 35.276 5
    endloop
  endfacet
  facet normal -0 0 1
    outer loop
      vertex 25.8261 25.2655 5
      vertex 33.9124 23.1677 5
      vertex 26.129 26.2962 5
    endloop
  endfacet
  facet normal 0 0 1
    outer loop
      vertex 26.0883 28.7855 5
      vertex 32.1972 35.276 5
      vertex 30.5366 37.0406 5
    endloop
  endfacet
  facet normal 0 0 1
    outer loop
      vertex 33.9124 23.1677 5
      vertex 25.8261 25.2655 5
      vertex 33.174 21.3744 5
    endloop
  endfacet
  facet normal 0 0 1
    outer loop
      vertex 26.0883 28.7855 5
      vertex 30.5366 37.0406 5
      vertex 28.6288 38.338 5
    endloop
  endfacet
  facet normal -0 0 1
    outer loop
      vertex 25.3212 24.3312 5
      vertex 33.174 21.3744 5
      vertex 25.8261 25.2655 5
    endloop
  endfacet
  facet normal 0 0 1
    outer loop
      vertex 33.174 21.3744 5
      vertex 25.3212 24.3312 5
      vertex 32.208 19.8299 5
    endloop
  endfacet
  facet normal 0 0 1
    outer loop
      vertex 24.0296 31.8266 5
      vertex 28.6288 38.338 5
      vertex 26.474 39.1684 5
    endloop
  endfacet
  facet normal 0 0 1
    outer loop
      vertex 32.208 19.8299 5
      vertex 25.3212 24.3312 5
      vertex 31.0823 18.5234 5
    endloop
  endfacet
  facet normal -0 0 1
    outer loop
      vertex 24.6385 23.5234 5
      vertex 31.0823 18.5234 5
      vertex 25.3212 24.3312 5
    endloop
  endfacet
  facet normal 0 0 1
    outer loop
      vertex 31.0823 18.5234 5
      vertex 24.6385 23.5234 5
      vertex 29.7968 17.4548 5
    endloop
  endfacet
  facet normal 0 0 1
    outer loop
      vertex 29.7968 17.4548 5
      vertex 24.6385 23.5234 5
      vertex 28.424 16.6124 5
    endloop
  endfacet
  facet normal -0 0 1
    outer loop
      vertex 23.8021 22.8723 5
      vertex 28.424 16.6124 5
      vertex 24.6385 23.5234 5
    endloop
  endfacet
  facet normal 0 0 1
    outer loop
      vertex 28.424 16.6124 5
      vertex 23.8021 22.8723 5
      vertex 27.0361 15.984 5
    endloop
  endfacet
  facet normal 0 0 1
    outer loop
      vertex 27.0361 15.984 5
      vertex 23.8021 22.8723 5
      vertex 25.6332 15.5696 5
    endloop
  endfacet
  facet normal -0 0 1
    outer loop
      vertex 22.812 22.378 5
      vertex 25.6332 15.5696 5
      vertex 23.8021 22.8723 5
    endloop
  endfacet
  facet normal 0 0 1
    outer loop
      vertex 25.6332 15.5696 5
      vertex 22.812 22.378 5
      vertex 23.43 15.2531 5
    endloop
  endfacet
  facet normal -0 0 1
    outer loop
      vertex 21.3955 22.0316 5
      vertex 23.43 15.2531 5
      vertex 22.812 22.378 5
    endloop
  endfacet
  facet normal 0 0 1
    outer loop
      vertex 21.3955 22.0316 5
      vertex 20.6542 15.0633 5
      vertex 23.43 15.2531 5
    endloop
  endfacet
  facet normal -0 0 1
    outer loop
      vertex 19.2797 21.8237 5
      vertex 20.6542 15.0633 5
      vertex 21.3955 22.0316 5
    endloop
  endfacet
  facet normal 0 0 1
    outer loop
      vertex 19.2797 21.8237 5
      vertex 17.3056 15 5
      vertex 20.6542 15.0633 5
    endloop
  endfacet
  facet normal -0 0 1
    outer loop
      vertex 16.4648 21.7544 5
      vertex 17.3056 15 5
      vertex 19.2797 21.8237 5
    endloop
  endfacet
  facet normal 0 0 1
    outer loop
      vertex 12.0708 15 5
      vertex 16.4648 21.7544 5
      vertex 12.0708 21.7544 5
    endloop
  endfacet
  facet normal 0 0 1
    outer loop
      vertex 16.4648 21.7544 5
      vertex 12.0708 15 5
      vertex 17.3056 15 5
    endloop
  endfacet
  facet normal 0 -1 0
    outer loop
      vertex 12.0708 15 0
      vertex 17.3056 15 5
      vertex 12.0708 15 5
    endloop
  endfacet
  facet normal 0 -1 -0
    outer loop
      vertex 17.3056 15 5
      vertex 12.0708 15 0
      vertex 17.3056 15 0
    endloop
  endfacet
  facet normal 0.0189 -0.999821 0
    outer loop
      vertex 17.3056 15 0
      vertex 20.6542 15.0633 5
      vertex 17.3056 15 5
    endloop
  endfacet
  facet normal 0.0189 -0.999821 0
    outer loop
      vertex 20.6542 15.0633 5
      vertex 17.3056 15 0
      vertex 20.6542 15.0633 0
    endloop
  endfacet
  facet normal 0.0682174 -0.99767 0
    outer loop
      vertex 20.6542 15.0633 0
      vertex 23.43 15.2531 5
      vertex 20.6542 15.0633 5
    endloop
  endfacet
  facet normal 0.0682174 -0.99767 0
    outer loop
      vertex 23.43 15.2531 5
      vertex 20.6542 15.0633 0
      vertex 23.43 15.2531 0
    endloop
  endfacet
  facet normal 0.142195 -0.989839 0
    outer loop
      vertex 23.43 15.2531 0
      vertex 25.6332 15.5696 5
      vertex 23.43 15.2531 5
    endloop
  endfacet
  facet normal 0.142195 -0.989839 0
    outer loop
      vertex 25.6332 15.5696 5
      vertex 23.43 15.2531 0
      vertex 25.6332 15.5696 0
    endloop
  endfacet
  facet normal 0.283288 -0.959035 0
    outer loop
      vertex 25.6332 15.5696 0
      vertex 27.0361 15.984 5
      vertex 25.6332 15.5696 5
    endloop
  endfacet
  facet normal 0.283288 -0.959035 0
    outer loop
      vertex 27.0361 15.984 5
      vertex 25.6332 15.5696 0
      vertex 27.0361 15.984 0
    endloop
  endfacet
  facet normal 0.412462 -0.910975 0
    outer loop
      vertex 27.0361 15.984 0
      vertex 28.424 16.6124 5
      vertex 27.0361 15.984 5
    endloop
  endfacet
  facet normal 0.412462 -0.910975 0
    outer loop
      vertex 28.424 16.6124 5
      vertex 27.0361 15.984 0
      vertex 28.424 16.6124 0
    endloop
  endfacet
  facet normal 0.523016 -0.852323 0
    outer loop
      vertex 28.424 16.6124 0
      vertex 29.7968 17.4548 5
      vertex 28.424 16.6124 5
    endloop
  endfacet
  facet normal 0.523016 -0.852323 0
    outer loop
      vertex 29.7968 17.4548 5
      vertex 28.424 16.6124 0
      vertex 29.7968 17.4548 0
    endloop
  endfacet
  facet normal 0.639248 -0.769 0
    outer loop
      vertex 29.7968 17.4548 0
      vertex 31.0823 18.5234 5
      vertex 29.7968 17.4548 5
    endloop
  endfacet
  facet normal 0.639248 -0.769 0
    outer loop
      vertex 31.0823 18.5234 5
      vertex 29.7968 17.4548 0
      vertex 31.0823 18.5234 0
    endloop
  endfacet
  facet normal 0.75758 -0.652742 0
    outer loop
      vertex 31.0823 18.5234 5
      vertex 32.208 19.8299 0
      vertex 32.208 19.8299 5
    endloop
  endfacet
  facet normal 0.75758 -0.652742 0
    outer loop
      vertex 32.208 19.8299 0
      vertex 31.0823 18.5234 5
      vertex 31.0823 18.5234 0
    endloop
  endfacet
  facet normal 0.847829 -0.53027 0
    outer loop
      vertex 32.208 19.8299 5
      vertex 33.174 21.3744 0
      vertex 33.174 21.3744 5
    endloop
  endfacet
  facet normal 0.847829 -0.53027 0
    outer loop
      vertex 33.174 21.3744 0
      vertex 32.208 19.8299 5
      vertex 32.208 19.8299 0
    endloop
  endfacet
  facet normal 0.924681 -0.380742 0
    outer loop
      vertex 33.174 21.3744 5
      vertex 33.9124 23.1677 0
      vertex 33.9124 23.1677 5
    endloop
  endfacet
  facet normal 0.924681 -0.380742 0
    outer loop
      vertex 33.9124 23.1677 0
      vertex 33.174 21.3744 5
      vertex 33.174 21.3744 0
    endloop
  endfacet
  facet normal 0.977484 -0.211012 0
    outer loop
      vertex 33.9124 23.1677 5
      vertex 34.3555 25.2203 0
      vertex 34.3555 25.2203 5
    endloop
  endfacet
  facet normal 0.977484 -0.211012 0
    outer loop
      vertex 34.3555 25.2203 0
      vertex 33.9124 23.1677 5
      vertex 33.9124 23.1677 0
    endloop
  endfacet
  facet normal 0.997965 -0.0637624 0
    outer loop
      vertex 34.3555 25.2203 5
      vertex 34.5032 27.532 0
      vertex 34.5032 27.532 5
    endloop
  endfacet
  facet normal 0.997965 -0.0637624 0
    outer loop
      vertex 34.5032 27.532 0
      vertex 34.3555 25.2203 5
      vertex 34.3555 25.2203 0
    endloop
  endfacet
  facet normal 0.9963 0.0859406 0
    outer loop
      vertex 34.5032 27.532 5
      vertex 34.247 30.5021 0
      vertex 34.247 30.5021 5
    endloop
  endfacet
  facet normal 0.9963 0.0859406 0
    outer loop
      vertex 34.247 30.5021 0
      vertex 34.5032 27.532 5
      vertex 34.5032 27.532 0
    endloop
  endfacet
  facet normal 0.958409 0.285399 0
    outer loop
      vertex 34.247 30.5021 5
      vertex 33.4783 33.0835 0
      vertex 33.4783 33.0835 5
    endloop
  endfacet
  facet normal 0.958409 0.285399 0
    outer loop
      vertex 33.4783 33.0835 0
      vertex 34.247 30.5021 5
      vertex 34.247 30.5021 0
    endloop
  endfacet
  facet normal 0.863412 0.5045 0
    outer loop
      vertex 33.4783 33.0835 5
      vertex 32.1972 35.276 0
      vertex 32.1972 35.276 5
    endloop
  endfacet
  facet normal 0.863412 0.5045 0
    outer loop
      vertex 32.1972 35.276 0
      vertex 33.4783 33.0835 5
      vertex 33.4783 33.0835 0
    endloop
  endfacet
  facet normal 0.728241 0.685321 0
    outer loop
      vertex 32.1972 35.276 5
      vertex 30.5366 37.0406 0
      vertex 30.5366 37.0406 5
    endloop
  endfacet
  facet normal 0.728241 0.685321 0
    outer loop
      vertex 30.5366 37.0406 0
      vertex 32.1972 35.276 5
      vertex 32.1972 35.276 0
    endloop
  endfacet
  facet normal 0.562338 0.826907 -0
    outer loop
      vertex 30.5366 37.0406 0
      vertex 28.6288 38.338 5
      vertex 30.5366 37.0406 5
    endloop
  endfacet
  facet normal 0.562338 0.826907 0
    outer loop
      vertex 28.6288 38.338 5
      vertex 30.5366 37.0406 0
      vertex 28.6288 38.338 0
    endloop
  endfacet
  facet normal 0.359594 0.933109 -0
    outer loop
      vertex 28.6288 38.338 0
      vertex 26.474 39.1684 5
      vertex 28.6288 38.338 5
    endloop
  endfacet
  facet normal 0.359594 0.933109 0
    outer loop
      vertex 26.474 39.1684 5
      vertex 28.6288 38.338 0
      vertex 26.474 39.1684 0
    endloop
  endfacet
  facet normal 0.159719 0.987163 -0
    outer loop
      vertex 26.474 39.1684 0
      vertex 24.4245 39.5 5
      vertex 26.474 39.1684 5
    endloop
  endfacet
  facet normal 0.159719 0.987163 0
    outer loop
      vertex 24.4245 39.5 5
      vertex 26.474 39.1684 0
      vertex 24.4245 39.5 0
    endloop
  endfacet
  facet normal 0.0623724 0.998053 -0
    outer loop
      vertex 24.4245 39.5 0
      vertex 21.2418 39.6989 5
      vertex 24.4245 39.5 5
    endloop
  endfacet
  facet normal 0.0623724 0.998053 0
    outer loop
      vertex 21.2418 39.6989 5
      vertex 24.4245 39.5 0
      vertex 21.2418 39.6989 0
    endloop
  endfacet
  facet normal 0.0153603 0.999882 -0
    outer loop
      vertex 21.2418 39.6989 0
      vertex 16.926 39.7652 5
      vertex 21.2418 39.6989 5
    endloop
  endfacet
  facet normal 0.0153603 0.999882 0
    outer loop
      vertex 16.926 39.7652 5
      vertex 21.2418 39.6989 0
      vertex 16.926 39.7652 0
    endloop
  endfacet
  facet normal 0 1 -0
    outer loop
      vertex 16.926 39.7652 0
      vertex 4.0416 39.7652 5
      vertex 16.926 39.7652 5
    endloop
  endfacet
  facet normal 0 1 0
    outer loop
      vertex 4.0416 39.7652 5
      vertex 16.926 39.7652 0
      vertex 4.0416 39.7652 0
    endloop
  endfacet
  facet normal -1 0 0
    outer loop
      vertex 4.0416 0 0
      vertex 4.0416 39.7652 5
      vertex 4.0416 39.7652 0
    endloop
  endfacet
  facet normal -1 -0 0
    outer loop
      vertex 4.0416 39.7652 5
      vertex 4.0416 0 0
      vertex 4.0416 0 5
    endloop
  endfacet
  facet normal 0 -1 0
    outer loop
      vertex 4.0416 0 0
      vertex 12.0708 0 5
      vertex 4.0416 0 5
    endloop
  endfacet
  facet normal 0 -1 -0
    outer loop
      vertex 12.0708 0 5
      vertex 4.0416 0 0
      vertex 12.0708 0 0
    endloop
  endfacet
  facet normal 1 -0 0
    outer loop
      vertex 12.0708 0 5
      vertex 12.0708 15 0
      vertex 12.0708 15 5
    endloop
  endfacet
  facet normal 1 0 0
    outer loop
      vertex 12.0708 15 0
      vertex 12.0708 0 5
      vertex 12.0708 0 0
    endloop
  endfacet
  facet normal 1 -0 0
    outer loop
      vertex 12.0708 21.7544 5
      vertex 12.0708 33.0384 0
      vertex 12.0708 33.0384 5
    endloop
  endfacet
  facet normal 1 0 0
    outer loop
      vertex 12.0708 33.0384 0
      vertex 12.0708 21.7544 5
      vertex 12.0708 21.7544 0
    endloop
  endfacet
  facet normal 0 -1 0
    outer loop
      vertex 12.0708 33.0384 0
      vertex 15.9496 33.0384 5
      vertex 12.0708 33.0384 5
    endloop
  endfacet
  facet normal 0 -1 -0
    outer loop
      vertex 15.9496 33.0384 5
      vertex 12.0708 33.0384 0
      vertex 15.9496 33.0384 0
    endloop
  endfacet
  facet normal -0.0117076 -0.999931 0
    outer loop
      vertex 15.9496 33.0384 0
      vertex 18.5204 33.0083 5
      vertex 15.9496 33.0384 5
    endloop
  endfacet
  facet normal -0.0117076 -0.999931 -0
    outer loop
      vertex 18.5204 33.0083 5
      vertex 15.9496 33.0384 0
      vertex 18.5204 33.0083 0
    endloop
  endfacet
  facet normal -0.0468875 -0.9989 0
    outer loop
      vertex 18.5204 33.0083 0
      vertex 20.4463 32.9179 5
      vertex 18.5204 33.0083 5
    endloop
  endfacet
  facet normal -0.0468875 -0.9989 -0
    outer loop
      vertex 20.4463 32.9179 5
      vertex 18.5204 33.0083 0
      vertex 20.4463 32.9179 0
    endloop
  endfacet
  facet normal -0.116846 -0.99315 0
    outer loop
      vertex 20.4463 32.9179 0
      vertex 21.7272 32.7672 5
      vertex 20.4463 32.9179 5
    endloop
  endfacet
  facet normal -0.116846 -0.99315 -0
    outer loop
      vertex 21.7272 32.7672 5
      vertex 20.4463 32.9179 0
      vertex 21.7272 32.7672 0
    endloop
  endfacet
  facet normal -0.276439 -0.961032 0
    outer loop
      vertex 21.7272 32.7672 0
      vertex 22.9537 32.4144 5
      vertex 21.7272 32.7672 5
    endloop
  endfacet
  facet normal -0.276439 -0.961032 -0
    outer loop
      vertex 22.9537 32.4144 5
      vertex 21.7272 32.7672 0
      vertex 22.9537 32.4144 0
    endloop
  endfacet
  facet normal -0.479446 -0.877571 0
    outer loop
      vertex 22.9537 32.4144 0
      vertex 24.0296 31.8266 5
      vertex 22.9537 32.4144 5
    endloop
  endfacet
  facet normal -0.479446 -0.877571 -0
    outer loop
      vertex 24.0296 31.8266 5
      vertex 22.9537 32.4144 0
      vertex 24.0296 31.8266 0
    endloop
  endfacet
  facet normal -0.664634 -0.747169 0
    outer loop
      vertex 24.0296 31.8266 0
      vertex 24.9548 31.0036 5
      vertex 24.0296 31.8266 5
    endloop
  endfacet
  facet normal -0.664634 -0.747169 -0
    outer loop
      vertex 24.9548 31.0036 5
      vertex 24.0296 31.8266 0
      vertex 24.9548 31.0036 0
    endloop
  endfacet
  facet normal -0.822571 -0.568663 0
    outer loop
      vertex 25.6632 29.9789 0
      vertex 24.9548 31.0036 5
      vertex 24.9548 31.0036 0
    endloop
  endfacet
  facet normal -0.822571 -0.568663 0
    outer loop
      vertex 24.9548 31.0036 5
      vertex 25.6632 29.9789 0
      vertex 25.6632 29.9789 5
    endloop
  endfacet
  facet normal -0.94202 -0.335556 0
    outer loop
      vertex 26.0883 28.7855 0
      vertex 25.6632 29.9789 5
      vertex 25.6632 29.9789 0
    endloop
  endfacet
  facet normal -0.94202 -0.335556 0
    outer loop
      vertex 25.6632 29.9789 5
      vertex 26.0883 28.7855 0
      vertex 26.0883 28.7855 5
    endloop
  endfacet
  facet normal -0.994634 -0.103457 0
    outer loop
      vertex 26.23 27.4232 0
      vertex 26.0883 28.7855 5
      vertex 26.0883 28.7855 0
    endloop
  endfacet
  facet normal -0.994634 -0.103457 0
    outer loop
      vertex 26.0883 28.7855 5
      vertex 26.23 27.4232 0
      vertex 26.23 27.4232 5
    endloop
  endfacet
  facet normal -0.996008 0.0892607 0
    outer loop
      vertex 26.129 26.2962 0
      vertex 26.23 27.4232 5
      vertex 26.23 27.4232 0
    endloop
  endfacet
  facet normal -0.996008 0.0892607 0
    outer loop
      vertex 26.23 27.4232 5
      vertex 26.129 26.2962 0
      vertex 26.129 26.2962 5
    endloop
  endfacet
  facet normal -0.959428 0.281955 0
    outer loop
      vertex 25.8261 25.2655 0
      vertex 26.129 26.2962 5
      vertex 26.129 26.2962 0
    endloop
  endfacet
  facet normal -0.959428 0.281955 0
    outer loop
      vertex 26.129 26.2962 5
      vertex 25.8261 25.2655 0
      vertex 25.8261 25.2655 5
    endloop
  endfacet
  facet normal -0.879757 0.475424 0
    outer loop
      vertex 25.3212 24.3312 0
      vertex 25.8261 25.2655 5
      vertex 25.8261 25.2655 0
    endloop
  endfacet
  facet normal -0.879757 0.475424 0
    outer loop
      vertex 25.8261 25.2655 5
      vertex 25.3212 24.3312 0
      vertex 25.3212 24.3312 5
    endloop
  endfacet
  facet normal -0.76377 0.645489 0
    outer loop
      vertex 24.6385 23.5234 0
      vertex 25.3212 24.3312 5
      vertex 25.3212 24.3312 0
    endloop
  endfacet
  facet normal -0.76377 0.645489 0
    outer loop
      vertex 25.3212 24.3312 5
      vertex 24.6385 23.5234 0
      vertex 24.6385 23.5234 5
    endloop
  endfacet
  facet normal -0.614274 0.789093 0
    outer loop
      vertex 24.6385 23.5234 0
      vertex 23.8021 22.8723 5
      vertex 24.6385 23.5234 5
    endloop
  endfacet
  facet normal -0.614274 0.789093 0
    outer loop
      vertex 23.8021 22.8723 5
      vertex 24.6385 23.5234 0
      vertex 23.8021 22.8723 0
    endloop
  endfacet
  facet normal -0.446671 0.894698 0
    outer loop
      vertex 23.8021 22.8723 0
      vertex 22.812 22.378 5
      vertex 23.8021 22.8723 5
    endloop
  endfacet
  facet normal -0.446671 0.894698 0
    outer loop
      vertex 22.812 22.378 5
      vertex 23.8021 22.8723 0
      vertex 22.812 22.378 0
    endloop
  endfacet
  facet normal -0.237547 0.971376 0
    outer loop
      vertex 22.812 22.378 0
      vertex 21.3955 22.0316 5
      vertex 22.812 22.378 5
    endloop
  endfacet
  facet normal -0.237547 0.971376 0
    outer loop
      vertex 21.3955 22.0316 5
      vertex 22.812 22.378 0
      vertex 21.3955 22.0316 0
    endloop
  endfacet
  facet normal -0.0977898 0.995207 0
    outer loop
      vertex 21.3955 22.0316 0
      vertex 19.2797 21.8237 5
      vertex 21.3955 22.0316 5
    endloop
  endfacet
  facet normal -0.0977898 0.995207 0
    outer loop
      vertex 19.2797 21.8237 5
      vertex 21.3955 22.0316 0
      vertex 19.2797 21.8237 0
    endloop
  endfacet
  facet normal -0.0246115 0.999697 0
    outer loop
      vertex 19.2797 21.8237 0
      vertex 16.4648 21.7544 5
      vertex 19.2797 21.8237 5
    endloop
  endfacet
  facet normal -0.0246115 0.999697 0
    outer loop
      vertex 16.4648 21.7544 5
      vertex 19.2797 21.8237 0
      vertex 16.4648 21.7544 0
    endloop
  endfacet
  facet normal 0 1 -0
    outer loop
      vertex 16.4648 21.7544 0
      vertex 12.0708 21.7544 5
      vertex 16.4648 21.7544 5
    endloop
  endfacet
  facet normal 0 1 0
    outer loop
      vertex 12.0708 21.7544 5
      vertex 16.4648 21.7544 0
      vertex 12.0708 21.7544 0
    endloop
  endfacet
  facet normal -0.999493 -0.031831 0
    outer loop
      vertex 13.554 18.41 0
      vertex 13.552 18.4728 2
      vertex 13.552 18.4728 0
    endloop
  endfacet
  facet normal -0.999493 -0.031831 0
    outer loop
      vertex 13.552 18.4728 2
      vertex 13.554 18.41 0
      vertex 13.554 18.41 2
    endloop
  endfacet
  facet normal -0.707107 -0.707107 0
    outer loop
      vertex 13.283 19.0945 0
      vertex 13.2385 19.139 2
      vertex 13.2385 19.139 0
    endloop
  endfacet
  facet normal -0.707107 -0.707107 0
    outer loop
      vertex 13.2385 19.139 2
      vertex 13.283 19.0945 0
      vertex 13.283 19.0945 2
    endloop
  endfacet
  facet normal 0.750303 0.661095 0
    outer loop
      vertex 11.825 17.7255 2
      vertex 11.7835 17.7726 0
      vertex 11.7835 17.7726 2
    endloop
  endfacet
  facet normal 0.750303 0.661095 0
    outer loop
      vertex 11.7835 17.7726 0
      vertex 11.825 17.7255 2
      vertex 11.825 17.7255 0
    endloop
  endfacet
  facet normal -0.960374 -0.278715 0
    outer loop
      vertex 13.5226 18.6587 0
      vertex 13.5051 18.719 2
      vertex 13.5051 18.719 0
    endloop
  endfacet
  facet normal -0.960374 -0.278715 0
    outer loop
      vertex 13.5051 18.719 2
      vertex 13.5226 18.6587 0
      vertex 13.5226 18.6587 2
    endloop
  endfacet
  facet normal -0.031831 -0.999493 0
    outer loop
      vertex 12.554 19.41 0
      vertex 12.6168 19.408 2
      vertex 12.554 19.41 2
    endloop
  endfacet
  facet normal -0.031831 -0.999493 -0
    outer loop
      vertex 12.6168 19.408 2
      vertex 12.554 19.41 0
      vertex 12.6168 19.408 0
    endloop
  endfacet
  facet normal 0.891222 -0.453568 0
    outer loop
      vertex 11.6492 18.8358 2
      vertex 11.6777 18.8918 0
      vertex 11.6777 18.8918 2
    endloop
  endfacet
  facet normal 0.891222 -0.453568 0
    outer loop
      vertex 11.6777 18.8918 0
      vertex 11.6492 18.8358 2
      vertex 11.6492 18.8358 0
    endloop
  endfacet
  facet normal 0.999493 -0.031831 0
    outer loop
      vertex 11.554 18.41 2
      vertex 11.556 18.4728 0
      vertex 11.556 18.4728 2
    endloop
  endfacet
  facet normal 0.999493 -0.031831 0
    outer loop
      vertex 11.556 18.4728 0
      vertex 11.554 18.41 2
      vertex 11.554 18.41 0
    endloop
  endfacet
  facet normal 0.707107 -0.707107 0
    outer loop
      vertex 11.825 19.0945 2
      vertex 11.8695 19.139 0
      vertex 11.8695 19.139 2
    endloop
  endfacet
  facet normal 0.707107 -0.707107 0
    outer loop
      vertex 11.8695 19.139 0
      vertex 11.825 19.0945 2
      vertex 11.825 19.0945 0
    endloop
  endfacet
  facet normal -0.891222 0.453568 0
    outer loop
      vertex 13.4303 17.9282 0
      vertex 13.4588 17.9842 2
      vertex 13.4588 17.9842 0
    endloop
  endfacet
  facet normal -0.891222 0.453568 0
    outer loop
      vertex 13.4588 17.9842 2
      vertex 13.4303 17.9282 0
      vertex 13.4303 17.9282 2
    endloop
  endfacet
  facet normal -0.278715 0.960374 0
    outer loop
      vertex 12.863 17.4589 0
      vertex 12.8027 17.4414 2
      vertex 12.863 17.4589 2
    endloop
  endfacet
  facet normal -0.278715 0.960374 0
    outer loop
      vertex 12.8027 17.4414 2
      vertex 12.863 17.4589 0
      vertex 12.8027 17.4414 0
    endloop
  endfacet
  facet normal -0.661095 0.750303 0
    outer loop
      vertex 13.2385 17.681 0
      vertex 13.1914 17.6395 2
      vertex 13.2385 17.681 2
    endloop
  endfacet
  facet normal -0.661095 0.750303 0
    outer loop
      vertex 13.1914 17.6395 2
      vertex 13.2385 17.681 0
      vertex 13.1914 17.6395 0
    endloop
  endfacet
  facet normal -0.960374 0.278715 0
    outer loop
      vertex 13.5051 18.101 0
      vertex 13.5226 18.1613 2
      vertex 13.5226 18.1613 0
    endloop
  endfacet
  facet normal -0.960374 0.278715 0
    outer loop
      vertex 13.5226 18.1613 2
      vertex 13.5051 18.101 0
      vertex 13.5051 18.101 2
    endloop
  endfacet
  facet normal 0.278715 0.960374 -0
    outer loop
      vertex 12.3053 17.4414 0
      vertex 12.245 17.4589 2
      vertex 12.3053 17.4414 2
    endloop
  endfacet
  facet normal 0.278715 0.960374 0
    outer loop
      vertex 12.245 17.4589 2
      vertex 12.3053 17.4414 0
      vertex 12.245 17.4589 0
    endloop
  endfacet
  facet normal -0.995574 -0.0939822 0
    outer loop
      vertex 13.552 18.4728 0
      vertex 13.5461 18.5353 2
      vertex 13.5461 18.5353 0
    endloop
  endfacet
  facet normal -0.995574 -0.0939822 0
    outer loop
      vertex 13.5461 18.5353 2
      vertex 13.552 18.4728 0
      vertex 13.552 18.4728 2
    endloop
  endfacet
  facet normal -0.860292 -0.509802 0
    outer loop
      vertex 13.4303 18.8918 0
      vertex 13.3983 18.9458 2
      vertex 13.3983 18.9458 0
    endloop
  endfacet
  facet normal -0.860292 -0.509802 0
    outer loop
      vertex 13.3983 18.9458 2
      vertex 13.4303 18.8918 0
      vertex 13.4303 18.8918 2
    endloop
  endfacet
  facet normal -0.750303 -0.661095 0
    outer loop
      vertex 13.3245 19.0474 0
      vertex 13.283 19.0945 2
      vertex 13.283 19.0945 0
    endloop
  endfacet
  facet normal -0.750303 -0.661095 0
    outer loop
      vertex 13.283 19.0945 2
      vertex 13.3245 19.0474 0
      vertex 13.3245 19.0474 2
    endloop
  endfacet
  facet normal -0.82737 -0.561657 0
    outer loop
      vertex 13.3983 18.9458 0
      vertex 13.363 18.9978 2
      vertex 13.363 18.9978 0
    endloop
  endfacet
  facet normal -0.82737 -0.561657 0
    outer loop
      vertex 13.363 18.9978 2
      vertex 13.3983 18.9458 0
      vertex 13.3983 18.9458 2
    endloop
  endfacet
  facet normal -0.155881 -0.987776 0
    outer loop
      vertex 12.6793 19.4021 0
      vertex 12.7414 19.3923 2
      vertex 12.6793 19.4021 2
    endloop
  endfacet
  facet normal -0.155881 -0.987776 -0
    outer loop
      vertex 12.7414 19.3923 2
      vertex 12.6793 19.4021 0
      vertex 12.7414 19.3923 0
    endloop
  endfacet
  facet normal -0.278715 -0.960374 0
    outer loop
      vertex 12.8027 19.3786 0
      vertex 12.863 19.3611 2
      vertex 12.8027 19.3786 2
    endloop
  endfacet
  facet normal -0.278715 -0.960374 -0
    outer loop
      vertex 12.863 19.3611 2
      vertex 12.8027 19.3786 0
      vertex 12.863 19.3611 0
    endloop
  endfacet
  facet normal -0.661095 -0.750303 0
    outer loop
      vertex 13.1914 19.1805 0
      vertex 13.2385 19.139 2
      vertex 13.1914 19.1805 2
    endloop
  endfacet
  facet normal -0.661095 -0.750303 -0
    outer loop
      vertex 13.2385 19.139 2
      vertex 13.1914 19.1805 0
      vertex 13.2385 19.139 0
    endloop
  endfacet
  facet normal -0.453568 -0.891222 0
    outer loop
      vertex 12.9798 19.3148 0
      vertex 13.0358 19.2863 2
      vertex 12.9798 19.3148 2
    endloop
  endfacet
  facet normal -0.453568 -0.891222 -0
    outer loop
      vertex 13.0358 19.2863 2
      vertex 12.9798 19.3148 0
      vertex 13.0358 19.2863 0
    endloop
  endfacet
  facet normal 0.789952 -0.613168 0
    outer loop
      vertex 11.745 18.9978 2
      vertex 11.7835 19.0474 0
      vertex 11.7835 19.0474 2
    endloop
  endfacet
  facet normal 0.789952 -0.613168 0
    outer loop
      vertex 11.7835 19.0474 0
      vertex 11.745 18.9978 2
      vertex 11.745 18.9978 0
    endloop
  endfacet
  facet normal 0.940766 -0.339058 0
    outer loop
      vertex 11.6029 18.719 2
      vertex 11.6242 18.7781 0
      vertex 11.6242 18.7781 2
    endloop
  endfacet
  facet normal 0.940766 -0.339058 0
    outer loop
      vertex 11.6242 18.7781 0
      vertex 11.6029 18.719 2
      vertex 11.6029 18.719 0
    endloop
  endfacet
  facet normal 0.987776 -0.155881 0
    outer loop
      vertex 11.5619 18.5353 2
      vertex 11.5717 18.5974 0
      vertex 11.5717 18.5974 2
    endloop
  endfacet
  facet normal 0.987776 -0.155881 0
    outer loop
      vertex 11.5717 18.5974 0
      vertex 11.5619 18.5353 2
      vertex 11.5619 18.5353 0
    endloop
  endfacet
  facet normal 0.613168 -0.789952 0
    outer loop
      vertex 11.9166 19.1805 0
      vertex 11.9662 19.219 2
      vertex 11.9166 19.1805 2
    endloop
  endfacet
  facet normal 0.613168 -0.789952 0
    outer loop
      vertex 11.9662 19.219 2
      vertex 11.9166 19.1805 0
      vertex 11.9662 19.219 0
    endloop
  endfacet
  facet normal 0.509802 -0.860292 0
    outer loop
      vertex 12.0182 19.2543 0
      vertex 12.0722 19.2863 2
      vertex 12.0182 19.2543 2
    endloop
  endfacet
  facet normal 0.509802 -0.860292 0
    outer loop
      vertex 12.0722 19.2863 2
      vertex 12.0182 19.2543 0
      vertex 12.0722 19.2863 0
    endloop
  endfacet
  facet normal 0.0939822 -0.995574 0
    outer loop
      vertex 12.4287 19.4021 0
      vertex 12.4912 19.408 2
      vertex 12.4287 19.4021 2
    endloop
  endfacet
  facet normal 0.0939822 -0.995574 0
    outer loop
      vertex 12.4912 19.408 2
      vertex 12.4287 19.4021 0
      vertex 12.4912 19.408 0
    endloop
  endfacet
  facet normal 0.339058 -0.940766 0
    outer loop
      vertex 12.1859 19.3398 0
      vertex 12.245 19.3611 2
      vertex 12.1859 19.3398 2
    endloop
  endfacet
  facet normal 0.339058 -0.940766 0
    outer loop
      vertex 12.245 19.3611 2
      vertex 12.1859 19.3398 0
      vertex 12.245 19.3611 0
    endloop
  endfacet
  facet normal -0.0939822 0.995574 0
    outer loop
      vertex 12.6793 17.4179 0
      vertex 12.6168 17.412 2
      vertex 12.6793 17.4179 2
    endloop
  endfacet
  facet normal -0.0939822 0.995574 0
    outer loop
      vertex 12.6168 17.412 2
      vertex 12.6793 17.4179 0
      vertex 12.6168 17.412 0
    endloop
  endfacet
  facet normal -0.509802 0.860292 0
    outer loop
      vertex 13.0898 17.5657 0
      vertex 13.0358 17.5337 2
      vertex 13.0898 17.5657 2
    endloop
  endfacet
  facet normal -0.509802 0.860292 0
    outer loop
      vertex 13.0358 17.5337 2
      vertex 13.0898 17.5657 0
      vertex 13.0358 17.5337 0
    endloop
  endfacet
  facet normal -0.613168 0.789952 0
    outer loop
      vertex 13.1914 17.6395 0
      vertex 13.1418 17.601 2
      vertex 13.1914 17.6395 2
    endloop
  endfacet
  facet normal -0.613168 0.789952 0
    outer loop
      vertex 13.1418 17.601 2
      vertex 13.1914 17.6395 0
      vertex 13.1418 17.601 0
    endloop
  endfacet
  facet normal -0.561657 0.82737 0
    outer loop
      vertex 13.1418 17.601 0
      vertex 13.0898 17.5657 2
      vertex 13.1418 17.601 2
    endloop
  endfacet
  facet normal -0.561657 0.82737 0
    outer loop
      vertex 13.0898 17.5657 2
      vertex 13.1418 17.601 0
      vertex 13.0898 17.5657 0
    endloop
  endfacet
  facet normal 0.0939822 0.995574 -0
    outer loop
      vertex 12.4912 17.412 0
      vertex 12.4287 17.4179 2
      vertex 12.4912 17.412 2
    endloop
  endfacet
  facet normal 0.0939822 0.995574 0
    outer loop
      vertex 12.4287 17.4179 2
      vertex 12.4912 17.412 0
      vertex 12.4287 17.4179 0
    endloop
  endfacet
  facet normal 0.031831 0.999493 -0
    outer loop
      vertex 12.554 17.41 0
      vertex 12.4912 17.412 2
      vertex 12.554 17.41 2
    endloop
  endfacet
  facet normal 0.031831 0.999493 0
    outer loop
      vertex 12.4912 17.412 2
      vertex 12.554 17.41 0
      vertex 12.4912 17.412 0
    endloop
  endfacet
  facet normal 0.509802 0.860292 -0
    outer loop
      vertex 12.0722 17.5337 0
      vertex 12.0182 17.5657 2
      vertex 12.0722 17.5337 2
    endloop
  endfacet
  facet normal 0.509802 0.860292 0
    outer loop
      vertex 12.0182 17.5657 2
      vertex 12.0722 17.5337 0
      vertex 12.0182 17.5657 0
    endloop
  endfacet
  facet normal 0.707107 0.707107 0
    outer loop
      vertex 11.8695 17.681 2
      vertex 11.825 17.7255 0
      vertex 11.825 17.7255 2
    endloop
  endfacet
  facet normal 0.707107 0.707107 0
    outer loop
      vertex 11.825 17.7255 0
      vertex 11.8695 17.681 2
      vertex 11.8695 17.681 0
    endloop
  endfacet
  facet normal 0.860292 0.509802 0
    outer loop
      vertex 11.7097 17.8742 2
      vertex 11.6777 17.9282 0
      vertex 11.6777 17.9282 2
    endloop
  endfacet
  facet normal 0.860292 0.509802 0
    outer loop
      vertex 11.6777 17.9282 0
      vertex 11.7097 17.8742 2
      vertex 11.7097 17.8742 0
    endloop
  endfacet
  facet normal 0.995574 0.0939822 0
    outer loop
      vertex 11.5619 18.2847 2
      vertex 11.556 18.3472 0
      vertex 11.556 18.3472 2
    endloop
  endfacet
  facet normal 0.995574 0.0939822 0
    outer loop
      vertex 11.556 18.3472 0
      vertex 11.5619 18.2847 2
      vertex 11.5619 18.2847 0
    endloop
  endfacet
  facet normal -0.917575 -0.397563 0
    outer loop
      vertex 13.4838 18.7781 0
      vertex 13.4588 18.8358 2
      vertex 13.4588 18.8358 0
    endloop
  endfacet
  facet normal -0.917575 -0.397563 0
    outer loop
      vertex 13.4588 18.8358 2
      vertex 13.4838 18.7781 0
      vertex 13.4838 18.7781 2
    endloop
  endfacet
  facet normal -0.789952 -0.613168 0
    outer loop
      vertex 13.363 18.9978 0
      vertex 13.3245 19.0474 2
      vertex 13.3245 19.0474 0
    endloop
  endfacet
  facet normal -0.789952 -0.613168 0
    outer loop
      vertex 13.3245 19.0474 2
      vertex 13.363 18.9978 0
      vertex 13.363 18.9978 2
    endloop
  endfacet
  facet normal -0.891222 -0.453568 0
    outer loop
      vertex 13.4588 18.8358 0
      vertex 13.4303 18.8918 2
      vertex 13.4303 18.8918 0
    endloop
  endfacet
  facet normal -0.891222 -0.453568 0
    outer loop
      vertex 13.4303 18.8918 2
      vertex 13.4588 18.8358 0
      vertex 13.4588 18.8358 2
    endloop
  endfacet
  facet normal 0.031831 -0.999493 0
    outer loop
      vertex 12.4912 19.408 0
      vertex 12.554 19.41 2
      vertex 12.4912 19.408 2
    endloop
  endfacet
  facet normal 0.031831 -0.999493 0
    outer loop
      vertex 12.554 19.41 2
      vertex 12.4912 19.408 0
      vertex 12.554 19.41 0
    endloop
  endfacet
  facet normal -0.0939822 -0.995574 0
    outer loop
      vertex 12.6168 19.408 0
      vertex 12.6793 19.4021 2
      vertex 12.6168 19.408 2
    endloop
  endfacet
  facet normal -0.0939822 -0.995574 -0
    outer loop
      vertex 12.6793 19.4021 2
      vertex 12.6168 19.408 0
      vertex 12.6793 19.4021 0
    endloop
  endfacet
  facet normal -0.21811 -0.975924 0
    outer loop
      vertex 12.7414 19.3923 0
      vertex 12.8027 19.3786 2
      vertex 12.7414 19.3923 2
    endloop
  endfacet
  facet normal -0.21811 -0.975924 -0
    outer loop
      vertex 12.8027 19.3786 2
      vertex 12.7414 19.3923 0
      vertex 12.8027 19.3786 0
    endloop
  endfacet
  facet normal -0.339058 -0.940766 0
    outer loop
      vertex 12.863 19.3611 0
      vertex 12.9221 19.3398 2
      vertex 12.863 19.3611 2
    endloop
  endfacet
  facet normal -0.339058 -0.940766 -0
    outer loop
      vertex 12.9221 19.3398 2
      vertex 12.863 19.3611 0
      vertex 12.9221 19.3398 0
    endloop
  endfacet
  facet normal -0.509802 -0.860292 0
    outer loop
      vertex 13.0358 19.2863 0
      vertex 13.0898 19.2543 2
      vertex 13.0358 19.2863 2
    endloop
  endfacet
  facet normal -0.509802 -0.860292 -0
    outer loop
      vertex 13.0898 19.2543 2
      vertex 13.0358 19.2863 0
      vertex 13.0898 19.2543 0
    endloop
  endfacet
  facet normal -0.613168 -0.789952 0
    outer loop
      vertex 13.1418 19.219 0
      vertex 13.1914 19.1805 2
      vertex 13.1418 19.219 2
    endloop
  endfacet
  facet normal -0.613168 -0.789952 -0
    outer loop
      vertex 13.1914 19.1805 2
      vertex 13.1418 19.219 0
      vertex 13.1914 19.1805 0
    endloop
  endfacet
  facet normal -0.561657 -0.82737 0
    outer loop
      vertex 13.0898 19.2543 0
      vertex 13.1418 19.219 2
      vertex 13.0898 19.2543 2
    endloop
  endfacet
  facet normal -0.561657 -0.82737 -0
    outer loop
      vertex 13.1418 19.219 2
      vertex 13.0898 19.2543 0
      vertex 13.1418 19.219 0
    endloop
  endfacet
  facet normal 0.999493 0.031831 0
    outer loop
      vertex 11.556 18.3472 2
      vertex 11.554 18.41 0
      vertex 11.554 18.41 2
    endloop
  endfacet
  facet normal 0.999493 0.031831 0
    outer loop
      vertex 11.554 18.41 0
      vertex 11.556 18.3472 2
      vertex 11.556 18.3472 0
    endloop
  endfacet
  facet normal 0.917575 -0.397563 0
    outer loop
      vertex 11.6242 18.7781 2
      vertex 11.6492 18.8358 0
      vertex 11.6492 18.8358 2
    endloop
  endfacet
  facet normal 0.917575 -0.397563 0
    outer loop
      vertex 11.6492 18.8358 0
      vertex 11.6242 18.7781 2
      vertex 11.6242 18.7781 0
    endloop
  endfacet
  facet normal 0.995574 -0.0939822 0
    outer loop
      vertex 11.556 18.4728 2
      vertex 11.5619 18.5353 0
      vertex 11.5619 18.5353 2
    endloop
  endfacet
  facet normal 0.995574 -0.0939822 0
    outer loop
      vertex 11.5619 18.5353 0
      vertex 11.556 18.4728 2
      vertex 11.556 18.4728 0
    endloop
  endfacet
  facet normal 0.975924 -0.21811 0
    outer loop
      vertex 11.5717 18.5974 2
      vertex 11.5854 18.6587 0
      vertex 11.5854 18.6587 2
    endloop
  endfacet
  facet normal 0.975924 -0.21811 0
    outer loop
      vertex 11.5854 18.6587 0
      vertex 11.5717 18.5974 2
      vertex 11.5717 18.5974 0
    endloop
  endfacet
  facet normal 0.750303 -0.661095 0
    outer loop
      vertex 11.7835 19.0474 2
      vertex 11.825 19.0945 0
      vertex 11.825 19.0945 2
    endloop
  endfacet
  facet normal 0.750303 -0.661095 0
    outer loop
      vertex 11.825 19.0945 0
      vertex 11.7835 19.0474 2
      vertex 11.7835 19.0474 0
    endloop
  endfacet
  facet normal 0.661095 -0.750303 0
    outer loop
      vertex 11.8695 19.139 0
      vertex 11.9166 19.1805 2
      vertex 11.8695 19.139 2
    endloop
  endfacet
  facet normal 0.661095 -0.750303 0
    outer loop
      vertex 11.9166 19.1805 2
      vertex 11.8695 19.139 0
      vertex 11.9166 19.1805 0
    endloop
  endfacet
  facet normal 0.561657 -0.82737 0
    outer loop
      vertex 11.9662 19.219 0
      vertex 12.0182 19.2543 2
      vertex 11.9662 19.219 2
    endloop
  endfacet
  facet normal 0.561657 -0.82737 0
    outer loop
      vertex 12.0182 19.2543 2
      vertex 11.9662 19.219 0
      vertex 12.0182 19.2543 0
    endloop
  endfacet
  facet normal 0.453568 -0.891222 0
    outer loop
      vertex 12.0722 19.2863 0
      vertex 12.1282 19.3148 2
      vertex 12.0722 19.2863 2
    endloop
  endfacet
  facet normal 0.453568 -0.891222 0
    outer loop
      vertex 12.1282 19.3148 2
      vertex 12.0722 19.2863 0
      vertex 12.1282 19.3148 0
    endloop
  endfacet
  facet normal 0.278715 -0.960374 0
    outer loop
      vertex 12.245 19.3611 0
      vertex 12.3053 19.3786 2
      vertex 12.245 19.3611 2
    endloop
  endfacet
  facet normal 0.278715 -0.960374 0
    outer loop
      vertex 12.3053 19.3786 2
      vertex 12.245 19.3611 0
      vertex 12.3053 19.3786 0
    endloop
  endfacet
  facet normal 0.155881 -0.987776 0
    outer loop
      vertex 12.3666 19.3923 0
      vertex 12.4287 19.4021 2
      vertex 12.3666 19.3923 2
    endloop
  endfacet
  facet normal 0.155881 -0.987776 0
    outer loop
      vertex 12.4287 19.4021 2
      vertex 12.3666 19.3923 0
      vertex 12.4287 19.4021 0
    endloop
  endfacet
  facet normal 0.21811 -0.975924 0
    outer loop
      vertex 12.3053 19.3786 0
      vertex 12.3666 19.3923 2
      vertex 12.3053 19.3786 2
    endloop
  endfacet
  facet normal 0.21811 -0.975924 0
    outer loop
      vertex 12.3666 19.3923 2
      vertex 12.3053 19.3786 0
      vertex 12.3666 19.3923 0
    endloop
  endfacet
  facet normal -0.995574 0.0939822 0
    outer loop
      vertex 13.5461 18.2847 0
      vertex 13.552 18.3472 2
      vertex 13.552 18.3472 0
    endloop
  endfacet
  facet normal -0.995574 0.0939822 0
    outer loop
      vertex 13.552 18.3472 2
      vertex 13.5461 18.2847 0
      vertex 13.5461 18.2847 2
    endloop
  endfacet
  facet normal -0.155881 0.987776 0
    outer loop
      vertex 12.7414 17.4277 0
      vertex 12.6793 17.4179 2
      vertex 12.7414 17.4277 2
    endloop
  endfacet
  facet normal -0.155881 0.987776 0
    outer loop
      vertex 12.6793 17.4179 2
      vertex 12.7414 17.4277 0
      vertex 12.6793 17.4179 0
    endloop
  endfacet
  facet normal -0.397563 0.917575 0
    outer loop
      vertex 12.9798 17.5052 0
      vertex 12.9221 17.4802 2
      vertex 12.9798 17.5052 2
    endloop
  endfacet
  facet normal -0.397563 0.917575 0
    outer loop
      vertex 12.9221 17.4802 2
      vertex 12.9798 17.5052 0
      vertex 12.9221 17.4802 0
    endloop
  endfacet
  facet normal -0.707107 0.707107 0
    outer loop
      vertex 13.2385 17.681 0
      vertex 13.283 17.7255 2
      vertex 13.283 17.7255 0
    endloop
  endfacet
  facet normal -0.707107 0.707107 0
    outer loop
      vertex 13.283 17.7255 2
      vertex 13.2385 17.681 0
      vertex 13.2385 17.681 2
    endloop
  endfacet
  facet normal -0.453568 0.891222 0
    outer loop
      vertex 13.0358 17.5337 0
      vertex 12.9798 17.5052 2
      vertex 13.0358 17.5337 2
    endloop
  endfacet
  facet normal -0.453568 0.891222 0
    outer loop
      vertex 12.9798 17.5052 2
      vertex 13.0358 17.5337 0
      vertex 12.9798 17.5052 0
    endloop
  endfacet
  facet normal -0.750303 0.661095 0
    outer loop
      vertex 13.283 17.7255 0
      vertex 13.3245 17.7726 2
      vertex 13.3245 17.7726 0
    endloop
  endfacet
  facet normal -0.750303 0.661095 0
    outer loop
      vertex 13.3245 17.7726 2
      vertex 13.283 17.7255 0
      vertex 13.283 17.7255 2
    endloop
  endfacet
  facet normal -0.82737 0.561657 0
    outer loop
      vertex 13.363 17.8222 0
      vertex 13.3983 17.8742 2
      vertex 13.3983 17.8742 0
    endloop
  endfacet
  facet normal -0.82737 0.561657 0
    outer loop
      vertex 13.3983 17.8742 2
      vertex 13.363 17.8222 0
      vertex 13.363 17.8222 2
    endloop
  endfacet
  facet normal -0.917575 0.397563 0
    outer loop
      vertex 13.4588 17.9842 0
      vertex 13.4838 18.0419 2
      vertex 13.4838 18.0419 0
    endloop
  endfacet
  facet normal -0.917575 0.397563 0
    outer loop
      vertex 13.4838 18.0419 2
      vertex 13.4588 17.9842 0
      vertex 13.4588 17.9842 2
    endloop
  endfacet
  facet normal -0.940766 0.339058 0
    outer loop
      vertex 13.4838 18.0419 0
      vertex 13.5051 18.101 2
      vertex 13.5051 18.101 0
    endloop
  endfacet
  facet normal -0.940766 0.339058 0
    outer loop
      vertex 13.5051 18.101 2
      vertex 13.4838 18.0419 0
      vertex 13.4838 18.0419 2
    endloop
  endfacet
  facet normal -0.975924 0.21811 0
    outer loop
      vertex 13.5226 18.1613 0
      vertex 13.5363 18.2226 2
      vertex 13.5363 18.2226 0
    endloop
  endfacet
  facet normal -0.975924 0.21811 0
    outer loop
      vertex 13.5363 18.2226 2
      vertex 13.5226 18.1613 0
      vertex 13.5226 18.1613 2
    endloop
  endfacet
  facet normal -0.999493 0.031831 0
    outer loop
      vertex 13.552 18.3472 0
      vertex 13.554 18.41 2
      vertex 13.554 18.41 0
    endloop
  endfacet
  facet normal -0.999493 0.031831 0
    outer loop
      vertex 13.554 18.41 2
      vertex 13.552 18.3472 0
      vertex 13.552 18.3472 2
    endloop
  endfacet
  facet normal -0.031831 0.999493 0
    outer loop
      vertex 12.6168 17.412 0
      vertex 12.554 17.41 2
      vertex 12.6168 17.412 2
    endloop
  endfacet
  facet normal -0.031831 0.999493 0
    outer loop
      vertex 12.554 17.41 2
      vertex 12.6168 17.412 0
      vertex 12.554 17.41 0
    endloop
  endfacet
  facet normal 0.613168 0.789952 -0
    outer loop
      vertex 11.9662 17.601 0
      vertex 11.9166 17.6395 2
      vertex 11.9662 17.601 2
    endloop
  endfacet
  facet normal 0.613168 0.789952 0
    outer loop
      vertex 11.9166 17.6395 2
      vertex 11.9662 17.601 0
      vertex 11.9166 17.6395 0
    endloop
  endfacet
  facet normal 0.155881 0.987776 -0
    outer loop
      vertex 12.4287 17.4179 0
      vertex 12.3666 17.4277 2
      vertex 12.4287 17.4179 2
    endloop
  endfacet
  facet normal 0.155881 0.987776 0
    outer loop
      vertex 12.3666 17.4277 2
      vertex 12.4287 17.4179 0
      vertex 12.3666 17.4277 0
    endloop
  endfacet
  facet normal 0.453568 0.891222 -0
    outer loop
      vertex 12.1282 17.5052 0
      vertex 12.0722 17.5337 2
      vertex 12.1282 17.5052 2
    endloop
  endfacet
  facet normal 0.453568 0.891222 0
    outer loop
      vertex 12.0722 17.5337 2
      vertex 12.1282 17.5052 0
      vertex 12.0722 17.5337 0
    endloop
  endfacet
  facet normal 0.339058 0.940766 -0
    outer loop
      vertex 12.245 17.4589 0
      vertex 12.1859 17.4802 2
      vertex 12.245 17.4589 2
    endloop
  endfacet
  facet normal 0.339058 0.940766 0
    outer loop
      vertex 12.1859 17.4802 2
      vertex 12.245 17.4589 0
      vertex 12.1859 17.4802 0
    endloop
  endfacet
  facet normal 0.561657 0.82737 -0
    outer loop
      vertex 12.0182 17.5657 0
      vertex 11.9662 17.601 2
      vertex 12.0182 17.5657 2
    endloop
  endfacet
  facet normal 0.561657 0.82737 0
    outer loop
      vertex 11.9662 17.601 2
      vertex 12.0182 17.5657 0
      vertex 11.9662 17.601 0
    endloop
  endfacet
  facet normal 0.661095 0.750303 -0
    outer loop
      vertex 11.9166 17.6395 0
      vertex 11.8695 17.681 2
      vertex 11.9166 17.6395 2
    endloop
  endfacet
  facet normal 0.661095 0.750303 0
    outer loop
      vertex 11.8695 17.681 2
      vertex 11.9166 17.6395 0
      vertex 11.8695 17.681 0
    endloop
  endfacet
  facet normal 0.789952 0.613168 0
    outer loop
      vertex 11.7835 17.7726 2
      vertex 11.745 17.8222 0
      vertex 11.745 17.8222 2
    endloop
  endfacet
  facet normal 0.789952 0.613168 0
    outer loop
      vertex 11.745 17.8222 0
      vertex 11.7835 17.7726 2
      vertex 11.7835 17.7726 0
    endloop
  endfacet
  facet normal 0.987776 0.155881 0
    outer loop
      vertex 11.5717 18.2226 2
      vertex 11.5619 18.2847 0
      vertex 11.5619 18.2847 2
    endloop
  endfacet
  facet normal 0.987776 0.155881 0
    outer loop
      vertex 11.5619 18.2847 0
      vertex 11.5717 18.2226 2
      vertex 11.5717 18.2226 0
    endloop
  endfacet
  facet normal 0.917575 0.397563 0
    outer loop
      vertex 11.6492 17.9842 2
      vertex 11.6242 18.0419 0
      vertex 11.6242 18.0419 2
    endloop
  endfacet
  facet normal 0.917575 0.397563 0
    outer loop
      vertex 11.6242 18.0419 0
      vertex 11.6492 17.9842 2
      vertex 11.6492 17.9842 0
    endloop
  endfacet
  facet normal 0.960374 0.278715 0
    outer loop
      vertex 11.6029 18.101 2
      vertex 11.5854 18.1613 0
      vertex 11.5854 18.1613 2
    endloop
  endfacet
  facet normal 0.960374 0.278715 0
    outer loop
      vertex 11.5854 18.1613 0
      vertex 11.6029 18.101 2
      vertex 11.6029 18.101 0
    endloop
  endfacet
  facet normal 0.891222 0.453568 0
    outer loop
      vertex 11.6777 17.9282 2
      vertex 11.6492 17.9842 0
      vertex 11.6492 17.9842 2
    endloop
  endfacet
  facet normal 0.891222 0.453568 0
    outer loop
      vertex 11.6492 17.9842 0
      vertex 11.6777 17.9282 2
      vertex 11.6777 17.9282 0
    endloop
  endfacet
  facet normal -0.975924 -0.21811 0
    outer loop
      vertex 13.5363 18.5974 0
      vertex 13.5226 18.6587 2
      vertex 13.5226 18.6587 0
    endloop
  endfacet
  facet normal -0.975924 -0.21811 0
    outer loop
      vertex 13.5226 18.6587 2
      vertex 13.5363 18.5974 0
      vertex 13.5363 18.5974 2
    endloop
  endfacet
  facet normal -0.987776 -0.155881 0
    outer loop
      vertex 13.5461 18.5353 0
      vertex 13.5363 18.5974 2
      vertex 13.5363 18.5974 0
    endloop
  endfacet
  facet normal -0.987776 -0.155881 0
    outer loop
      vertex 13.5363 18.5974 2
      vertex 13.5461 18.5353 0
      vertex 13.5461 18.5353 2
    endloop
  endfacet
  facet normal -0.940766 -0.339058 0
    outer loop
      vertex 13.5051 18.719 0
      vertex 13.4838 18.7781 2
      vertex 13.4838 18.7781 0
    endloop
  endfacet
  facet normal -0.940766 -0.339058 0
    outer loop
      vertex 13.4838 18.7781 2
      vertex 13.5051 18.719 0
      vertex 13.5051 18.719 2
    endloop
  endfacet
  facet normal -0.397563 -0.917575 0
    outer loop
      vertex 12.9221 19.3398 0
      vertex 12.9798 19.3148 2
      vertex 12.9221 19.3398 2
    endloop
  endfacet
  facet normal -0.397563 -0.917575 -0
    outer loop
      vertex 12.9798 19.3148 2
      vertex 12.9221 19.3398 0
      vertex 12.9798 19.3148 0
    endloop
  endfacet
  facet normal 0.860292 -0.509802 0
    outer loop
      vertex 11.6777 18.8918 2
      vertex 11.7097 18.9458 0
      vertex 11.7097 18.9458 2
    endloop
  endfacet
  facet normal 0.860292 -0.509802 0
    outer loop
      vertex 11.7097 18.9458 0
      vertex 11.6777 18.8918 2
      vertex 11.6777 18.8918 0
    endloop
  endfacet
  facet normal 0.82737 -0.561657 0
    outer loop
      vertex 11.7097 18.9458 2
      vertex 11.745 18.9978 0
      vertex 11.745 18.9978 2
    endloop
  endfacet
  facet normal 0.82737 -0.561657 0
    outer loop
      vertex 11.745 18.9978 0
      vertex 11.7097 18.9458 2
      vertex 11.7097 18.9458 0
    endloop
  endfacet
  facet normal 0 0 -1
    outer loop
      vertex 13.552 18.3472 2
      vertex 13.552 18.4728 2
      vertex 13.554 18.41 2
    endloop
  endfacet
  facet normal 0 0 -1
    outer loop
      vertex 13.5461 18.2847 2
      vertex 13.552 18.4728 2
      vertex 13.552 18.3472 2
    endloop
  endfacet
  facet normal 0 0 -1
    outer loop
      vertex 13.5461 18.2847 2
      vertex 13.5461 18.5353 2
      vertex 13.552 18.4728 2
    endloop
  endfacet
  facet normal 0 0 -1
    outer loop
      vertex 13.5363 18.2226 2
      vertex 13.5461 18.5353 2
      vertex 13.5461 18.2847 2
    endloop
  endfacet
  facet normal 0 0 -1
    outer loop
      vertex 13.5363 18.2226 2
      vertex 13.5363 18.5974 2
      vertex 13.5461 18.5353 2
    endloop
  endfacet
  facet normal 0 0 -1
    outer loop
      vertex 13.5226 18.1613 2
      vertex 13.5363 18.5974 2
      vertex 13.5363 18.2226 2
    endloop
  endfacet
  facet normal 0 0 -1
    outer loop
      vertex 13.5226 18.1613 2
      vertex 13.5226 18.6587 2
      vertex 13.5363 18.5974 2
    endloop
  endfacet
  facet normal 0 0 -1
    outer loop
      vertex 13.5051 18.101 2
      vertex 13.5226 18.6587 2
      vertex 13.5226 18.1613 2
    endloop
  endfacet
  facet normal 0 0 -1
    outer loop
      vertex 13.5051 18.101 2
      vertex 13.5051 18.719 2
      vertex 13.5226 18.6587 2
    endloop
  endfacet
  facet normal 0 0 -1
    outer loop
      vertex 13.4838 18.0419 2
      vertex 13.5051 18.719 2
      vertex 13.5051 18.101 2
    endloop
  endfacet
  facet normal 0 0 -1
    outer loop
      vertex 13.4838 18.0419 2
      vertex 13.4838 18.7781 2
      vertex 13.5051 18.719 2
    endloop
  endfacet
  facet normal 0 0 -1
    outer loop
      vertex 13.4588 17.9842 2
      vertex 13.4838 18.7781 2
      vertex 13.4838 18.0419 2
    endloop
  endfacet
  facet normal 0 0 -1
    outer loop
      vertex 13.4588 17.9842 2
      vertex 13.4588 18.8358 2
      vertex 13.4838 18.7781 2
    endloop
  endfacet
  facet normal 0 0 -1
    outer loop
      vertex 13.4303 17.9282 2
      vertex 13.4588 18.8358 2
      vertex 13.4588 17.9842 2
    endloop
  endfacet
  facet normal 0 0 -1
    outer loop
      vertex 13.4303 17.9282 2
      vertex 13.4303 18.8918 2
      vertex 13.4588 18.8358 2
    endloop
  endfacet
  facet normal 0 0 -1
    outer loop
      vertex 13.3983 17.8742 2
      vertex 13.4303 18.8918 2
      vertex 13.4303 17.9282 2
    endloop
  endfacet
  facet normal 0 0 -1
    outer loop
      vertex 13.3983 17.8742 2
      vertex 13.3983 18.9458 2
      vertex 13.4303 18.8918 2
    endloop
  endfacet
  facet normal 0 0 -1
    outer loop
      vertex 13.363 17.8222 2
      vertex 13.3983 18.9458 2
      vertex 13.3983 17.8742 2
    endloop
  endfacet
  facet normal 0 0 -1
    outer loop
      vertex 13.363 17.8222 2
      vertex 13.363 18.9978 2
      vertex 13.3983 18.9458 2
    endloop
  endfacet
  facet normal 0 0 -1
    outer loop
      vertex 13.3245 17.7726 2
      vertex 13.363 18.9978 2
      vertex 13.363 17.8222 2
    endloop
  endfacet
  facet normal 0 0 -1
    outer loop
      vertex 13.3245 17.7726 2
      vertex 13.3245 19.0474 2
      vertex 13.363 18.9978 2
    endloop
  endfacet
  facet normal 0 0 -1
    outer loop
      vertex 13.283 17.7255 2
      vertex 13.3245 19.0474 2
      vertex 13.3245 17.7726 2
    endloop
  endfacet
  facet normal 0 0 -1
    outer loop
      vertex 13.283 17.7255 2
      vertex 13.283 19.0945 2
      vertex 13.3245 19.0474 2
    endloop
  endfacet
  facet normal 0 0 -1
    outer loop
      vertex 13.2385 17.681 2
      vertex 13.283 19.0945 2
      vertex 13.283 17.7255 2
    endloop
  endfacet
  facet normal 0 0 -1
    outer loop
      vertex 13.2385 17.681 2
      vertex 13.2385 19.139 2
      vertex 13.283 19.0945 2
    endloop
  endfacet
  facet normal 0 0 -1
    outer loop
      vertex 13.1914 17.6395 2
      vertex 13.2385 19.139 2
      vertex 13.2385 17.681 2
    endloop
  endfacet
  facet normal 0 0 -1
    outer loop
      vertex 13.1914 17.6395 2
      vertex 13.1914 19.1805 2
      vertex 13.2385 19.139 2
    endloop
  endfacet
  facet normal 0 0 -1
    outer loop
      vertex 13.1418 17.601 2
      vertex 13.1914 19.1805 2
      vertex 13.1914 17.6395 2
    endloop
  endfacet
  facet normal 0 0 -1
    outer loop
      vertex 13.1418 17.601 2
      vertex 13.1418 19.219 2
      vertex 13.1914 19.1805 2
    endloop
  endfacet
  facet normal 0 0 -1
    outer loop
      vertex 13.0898 17.5657 2
      vertex 13.1418 19.219 2
      vertex 13.1418 17.601 2
    endloop
  endfacet
  facet normal 0 0 -1
    outer loop
      vertex 13.0898 17.5657 2
      vertex 13.0898 19.2543 2
      vertex 13.1418 19.219 2
    endloop
  endfacet
  facet normal 0 0 -1
    outer loop
      vertex 13.0358 17.5337 2
      vertex 13.0898 19.2543 2
      vertex 13.0898 17.5657 2
    endloop
  endfacet
  facet normal 0 0 -1
    outer loop
      vertex 13.0358 17.5337 2
      vertex 13.0358 19.2863 2
      vertex 13.0898 19.2543 2
    endloop
  endfacet
  facet normal 0 0 -1
    outer loop
      vertex 12.9798 17.5052 2
      vertex 13.0358 19.2863 2
      vertex 13.0358 17.5337 2
    endloop
  endfacet
  facet normal 0 0 -1
    outer loop
      vertex 12.9798 17.5052 2
      vertex 12.9798 19.3148 2
      vertex 13.0358 19.2863 2
    endloop
  endfacet
  facet normal 0 0 -1
    outer loop
      vertex 12.9221 17.4802 2
      vertex 12.9798 19.3148 2
      vertex 12.9798 17.5052 2
    endloop
  endfacet
  facet normal 0 0 -1
    outer loop
      vertex 12.9221 17.4802 2
      vertex 12.9221 19.3398 2
      vertex 12.9798 19.3148 2
    endloop
  endfacet
  facet normal 0 0 -1
    outer loop
      vertex 12.863 17.4589 2
      vertex 12.9221 19.3398 2
      vertex 12.9221 17.4802 2
    endloop
  endfacet
  facet normal 0 0 -1
    outer loop
      vertex 12.863 17.4589 2
      vertex 12.863 19.3611 2
      vertex 12.9221 19.3398 2
    endloop
  endfacet
  facet normal 0 0 -1
    outer loop
      vertex 12.8027 17.4414 2
      vertex 12.863 19.3611 2
      vertex 12.863 17.4589 2
    endloop
  endfacet
  facet normal 0 0 -1
    outer loop
      vertex 12.8027 17.4414 2
      vertex 12.8027 19.3786 2
      vertex 12.863 19.3611 2
    endloop
  endfacet
  facet normal 0 0 -1
    outer loop
      vertex 12.7414 17.4277 2
      vertex 12.8027 19.3786 2
      vertex 12.8027 17.4414 2
    endloop
  endfacet
  facet normal 0 0 -1
    outer loop
      vertex 12.7414 17.4277 2
      vertex 12.7414 19.3923 2
      vertex 12.8027 19.3786 2
    endloop
  endfacet
  facet normal 0 0 -1
    outer loop
      vertex 12.6793 17.4179 2
      vertex 12.7414 19.3923 2
      vertex 12.7414 17.4277 2
    endloop
  endfacet
  facet normal 0 0 -1
    outer loop
      vertex 12.6793 17.4179 2
      vertex 12.6793 19.4021 2
      vertex 12.7414 19.3923 2
    endloop
  endfacet
  facet normal 0 0 -1
    outer loop
      vertex 12.6168 17.412 2
      vertex 12.6793 19.4021 2
      vertex 12.6793 17.4179 2
    endloop
  endfacet
  facet normal 0 0 -1
    outer loop
      vertex 12.6168 17.412 2
      vertex 12.6168 19.408 2
      vertex 12.6793 19.4021 2
    endloop
  endfacet
  facet normal 0 0 -1
    outer loop
      vertex 12.554 17.41 2
      vertex 12.6168 19.408 2
      vertex 12.6168 17.412 2
    endloop
  endfacet
  facet normal 0 0 -1
    outer loop
      vertex 12.554 17.41 2
      vertex 12.554 19.41 2
      vertex 12.6168 19.408 2
    endloop
  endfacet
  facet normal 0 0 -1
    outer loop
      vertex 12.4912 17.412 2
      vertex 12.554 19.41 2
      vertex 12.554 17.41 2
    endloop
  endfacet
  facet normal 0 0 -1
    outer loop
      vertex 12.4912 17.412 2
      vertex 12.4912 19.408 2
      vertex 12.554 19.41 2
    endloop
  endfacet
  facet normal 0 0 -1
    outer loop
      vertex 12.4287 17.4179 2
      vertex 12.4912 19.408 2
      vertex 12.4912 17.412 2
    endloop
  endfacet
  facet normal 0 0 -1
    outer loop
      vertex 12.4287 17.4179 2
      vertex 12.4287 19.4021 2
      vertex 12.4912 19.408 2
    endloop
  endfacet
  facet normal 0 0 -1
    outer loop
      vertex 12.3666 17.4277 2
      vertex 12.4287 19.4021 2
      vertex 12.4287 17.4179 2
    endloop
  endfacet
  facet normal 0 0 -1
    outer loop
      vertex 12.3666 17.4277 2
      vertex 12.3666 19.3923 2
      vertex 12.4287 19.4021 2
    endloop
  endfacet
  facet normal 0 0 -1
    outer loop
      vertex 12.3053 17.4414 2
      vertex 12.3666 19.3923 2
      vertex 12.3666 17.4277 2
    endloop
  endfacet
  facet normal 0 0 -1
    outer loop
      vertex 12.3053 17.4414 2
      vertex 12.3053 19.3786 2
      vertex 12.3666 19.3923 2
    endloop
  endfacet
  facet normal 0 0 -1
    outer loop
      vertex 12.245 17.4589 2
      vertex 12.3053 19.3786 2
      vertex 12.3053 17.4414 2
    endloop
  endfacet
  facet normal 0 0 -1
    outer loop
      vertex 12.245 17.4589 2
      vertex 12.245 19.3611 2
      vertex 12.3053 19.3786 2
    endloop
  endfacet
  facet normal 0 0 -1
    outer loop
      vertex 12.1859 17.4802 2
      vertex 12.245 19.3611 2
      vertex 12.245 17.4589 2
    endloop
  endfacet
  facet normal 0 0 -1
    outer loop
      vertex 12.1859 17.4802 2
      vertex 12.1859 19.3398 2
      vertex 12.245 19.3611 2
    endloop
  endfacet
  facet normal 0 0 -1
    outer loop
      vertex 12.1282 17.5052 2
      vertex 12.1859 19.3398 2
      vertex 12.1859 17.4802 2
    endloop
  endfacet
  facet normal 0 0 -1
    outer loop
      vertex 12.1282 17.5052 2
      vertex 12.1282 19.3148 2
      vertex 12.1859 19.3398 2
    endloop
  endfacet
  facet normal 0 0 -1
    outer loop
      vertex 12.0722 17.5337 2
      vertex 12.1282 19.3148 2
      vertex 12.1282 17.5052 2
    endloop
  endfacet
  facet normal 0 0 -1
    outer loop
      vertex 12.0722 17.5337 2
      vertex 12.0722 19.2863 2
      vertex 12.1282 19.3148 2
    endloop
  endfacet
  facet normal 0 0 -1
    outer loop
      vertex 12.0182 17.5657 2
      vertex 12.0722 19.2863 2
      vertex 12.0722 17.5337 2
    endloop
  endfacet
  facet normal 0 0 -1
    outer loop
      vertex 12.0182 17.5657 2
      vertex 12.0182 19.2543 2
      vertex 12.0722 19.2863 2
    endloop
  endfacet
  facet normal 0 0 -1
    outer loop
      vertex 11.9662 17.601 2
      vertex 12.0182 19.2543 2
      vertex 12.0182 17.5657 2
    endloop
  endfacet
  facet normal 0 0 -1
    outer loop
      vertex 11.9662 17.601 2
      vertex 11.9662 19.219 2
      vertex 12.0182 19.2543 2
    endloop
  endfacet
  facet normal 0 0 -1
    outer loop
      vertex 11.9166 17.6395 2
      vertex 11.9662 19.219 2
      vertex 11.9662 17.601 2
    endloop
  endfacet
  facet normal 0 0 -1
    outer loop
      vertex 11.9166 17.6395 2
      vertex 11.9166 19.1805 2
      vertex 11.9662 19.219 2
    endloop
  endfacet
  facet normal 0 0 -1
    outer loop
      vertex 11.8695 17.681 2
      vertex 11.9166 19.1805 2
      vertex 11.9166 17.6395 2
    endloop
  endfacet
  facet normal 0 0 -1
    outer loop
      vertex 11.8695 17.681 2
      vertex 11.8695 19.139 2
      vertex 11.9166 19.1805 2
    endloop
  endfacet
  facet normal 0 0 -1
    outer loop
      vertex 11.825 17.7255 2
      vertex 11.8695 19.139 2
      vertex 11.8695 17.681 2
    endloop
  endfacet
  facet normal 0 0 -1
    outer loop
      vertex 11.825 17.7255 2
      vertex 11.825 19.0945 2
      vertex 11.8695 19.139 2
    endloop
  endfacet
  facet normal 0 0 -1
    outer loop
      vertex 11.7835 17.7726 2
      vertex 11.825 19.0945 2
      vertex 11.825 17.7255 2
    endloop
  endfacet
  facet normal 0 0 -1
    outer loop
      vertex 11.7835 17.7726 2
      vertex 11.7835 19.0474 2
      vertex 11.825 19.0945 2
    endloop
  endfacet
  facet normal 0 0 -1
    outer loop
      vertex 11.745 17.8222 2
      vertex 11.7835 19.0474 2
      vertex 11.7835 17.7726 2
    endloop
  endfacet
  facet normal 0 0 -1
    outer loop
      vertex 11.745 17.8222 2
      vertex 11.745 18.9978 2
      vertex 11.7835 19.0474 2
    endloop
  endfacet
  facet normal 0 0 -1
    outer loop
      vertex 11.7097 17.8742 2
      vertex 11.745 18.9978 2
      vertex 11.745 17.8222 2
    endloop
  endfacet
  facet normal 0 0 -1
    outer loop
      vertex 11.7097 17.8742 2
      vertex 11.7097 18.9458 2
      vertex 11.745 18.9978 2
    endloop
  endfacet
  facet normal 0 0 -1
    outer loop
      vertex 11.6777 17.9282 2
      vertex 11.7097 18.9458 2
      vertex 11.7097 17.8742 2
    endloop
  endfacet
  facet normal 0 0 -1
    outer loop
      vertex 11.6777 17.9282 2
      vertex 11.6777 18.8918 2
      vertex 11.7097 18.9458 2
    endloop
  endfacet
  facet normal 0 0 -1
    outer loop
      vertex 11.6492 17.9842 2
      vertex 11.6777 18.8918 2
      vertex 11.6777 17.9282 2
    endloop
  endfacet
  facet normal 0 0 -1
    outer loop
      vertex 11.6492 17.9842 2
      vertex 11.6492 18.8358 2
      vertex 11.6777 18.8918 2
    endloop
  endfacet
  facet normal 0 0 -1
    outer loop
      vertex 11.6242 18.0419 2
      vertex 11.6492 18.8358 2
      vertex 11.6492 17.9842 2
    endloop
  endfacet
  facet normal 0 0 -1
    outer loop
      vertex 11.6242 18.0419 2
      vertex 11.6242 18.7781 2
      vertex 11.6492 18.8358 2
    endloop
  endfacet
  facet normal 0 0 -1
    outer loop
      vertex 11.6029 18.101 2
      vertex 11.6242 18.7781 2
      vertex 11.6242 18.0419 2
    endloop
  endfacet
  facet normal 0 0 -1
    outer loop
      vertex 11.6029 18.101 2
      vertex 11.6029 18.719 2
      vertex 11.6242 18.7781 2
    endloop
  endfacet
  facet normal 0 0 -1
    outer loop
      vertex 11.5854 18.1613 2
      vertex 11.6029 18.719 2
      vertex 11.6029 18.101 2
    endloop
  endfacet
  facet normal 0 0 -1
    outer loop
      vertex 11.5854 18.1613 2
      vertex 11.5854 18.6587 2
      vertex 11.6029 18.719 2
    endloop
  endfacet
  facet normal 0 0 -1
    outer loop
      vertex 11.5717 18.2226 2
      vertex 11.5854 18.6587 2
      vertex 11.5854 18.1613 2
    endloop
  endfacet
  facet normal 0 0 -1
    outer loop
      vertex 11.5717 18.2226 2
      vertex 11.5717 18.5974 2
      vertex 11.5854 18.6587 2
    endloop
  endfacet
  facet normal 0 0 -1
    outer loop
      vertex 11.5619 18.2847 2
      vertex 11.5717 18.5974 2
      vertex 11.5717 18.2226 2
    endloop
  endfacet
  facet normal 0 0 -1
    outer loop
      vertex 11.5619 18.2847 2
      vertex 11.5619 18.5353 2
      vertex 11.5717 18.5974 2
    endloop
  endfacet
  facet normal 0 0 -1
    outer loop
      vertex 11.556 18.3472 2
      vertex 11.5619 18.5353 2
      vertex 11.5619 18.2847 2
    endloop
  endfacet
  facet normal 0 0 -1
    outer loop
      vertex 11.556 18.3472 2
      vertex 11.556 18.4728 2
      vertex 11.5619 18.5353 2
    endloop
  endfacet
  facet normal 0 -0 -1
    outer loop
      vertex 11.556 18.4728 2
      vertex 11.556 18.3472 2
      vertex 11.554 18.41 2
    endloop
  endfacet
  facet normal 0.960374 -0.278715 0
    outer loop
      vertex 11.5854 18.6587 2
      vertex 11.6029 18.719 0
      vertex 11.6029 18.719 2
    endloop
  endfacet
  facet normal 0.960374 -0.278715 0
    outer loop
      vertex 11.6029 18.719 0
      vertex 11.5854 18.6587 2
      vertex 11.5854 18.6587 0
    endloop
  endfacet
  facet normal 0.397563 -0.917575 0
    outer loop
      vertex 12.1282 19.3148 0
      vertex 12.1859 19.3398 2
      vertex 12.1282 19.3148 2
    endloop
  endfacet
  facet normal 0.397563 -0.917575 0
    outer loop
      vertex 12.1859 19.3398 2
      vertex 12.1282 19.3148 0
      vertex 12.1859 19.3398 0
    endloop
  endfacet
  facet normal -0.21811 0.975924 0
    outer loop
      vertex 12.8027 17.4414 0
      vertex 12.7414 17.4277 2
      vertex 12.8027 17.4414 2
    endloop
  endfacet
  facet normal -0.21811 0.975924 0
    outer loop
      vertex 12.7414 17.4277 2
      vertex 12.8027 17.4414 0
      vertex 12.7414 17.4277 0
    endloop
  endfacet
  facet normal -0.339058 0.940766 0
    outer loop
      vertex 12.9221 17.4802 0
      vertex 12.863 17.4589 2
      vertex 12.9221 17.4802 2
    endloop
  endfacet
  facet normal -0.339058 0.940766 0
    outer loop
      vertex 12.863 17.4589 2
      vertex 12.9221 17.4802 0
      vertex 12.863 17.4589 0
    endloop
  endfacet
  facet normal -0.860292 0.509802 0
    outer loop
      vertex 13.3983 17.8742 0
      vertex 13.4303 17.9282 2
      vertex 13.4303 17.9282 0
    endloop
  endfacet
  facet normal -0.860292 0.509802 0
    outer loop
      vertex 13.4303 17.9282 2
      vertex 13.3983 17.8742 0
      vertex 13.3983 17.8742 2
    endloop
  endfacet
  facet normal -0.789952 0.613168 0
    outer loop
      vertex 13.3245 17.7726 0
      vertex 13.363 17.8222 2
      vertex 13.363 17.8222 0
    endloop
  endfacet
  facet normal -0.789952 0.613168 0
    outer loop
      vertex 13.363 17.8222 2
      vertex 13.3245 17.7726 0
      vertex 13.3245 17.7726 2
    endloop
  endfacet
  facet normal 0.21811 0.975924 -0
    outer loop
      vertex 12.3666 17.4277 0
      vertex 12.3053 17.4414 2
      vertex 12.3666 17.4277 2
    endloop
  endfacet
  facet normal 0.21811 0.975924 0
    outer loop
      vertex 12.3053 17.4414 2
      vertex 12.3666 17.4277 0
      vertex 12.3053 17.4414 0
    endloop
  endfacet
  facet normal 0.397563 0.917575 -0
    outer loop
      vertex 12.1859 17.4802 0
      vertex 12.1282 17.5052 2
      vertex 12.1859 17.4802 2
    endloop
  endfacet
  facet normal 0.397563 0.917575 0
    outer loop
      vertex 12.1282 17.5052 2
      vertex 12.1859 17.4802 0
      vertex 12.1282 17.5052 0
    endloop
  endfacet
  facet normal 0.82737 0.561657 0
    outer loop
      vertex 11.745 17.8222 2
      vertex 11.7097 17.8742 0
      vertex 11.7097 17.8742 2
    endloop
  endfacet
  facet normal 0.82737 0.561657 0
    outer loop
      vertex 11.7097 17.8742 0
      vertex 11.745 17.8222 2
      vertex 11.745 17.8222 0
    endloop
  endfacet
  facet normal 0.975924 0.21811 0
    outer loop
      vertex 11.5854 18.1613 2
      vertex 11.5717 18.2226 0
      vertex 11.5717 18.2226 2
    endloop
  endfacet
  facet normal 0.975924 0.21811 0
    outer loop
      vertex 11.5717 18.2226 0
      vertex 11.5854 18.1613 2
      vertex 11.5854 18.1613 0
    endloop
  endfacet
  facet normal 0.940766 0.339058 0
    outer loop
      vertex 11.6242 18.0419 2
      vertex 11.6029 18.101 0
      vertex 11.6029 18.101 2
    endloop
  endfacet
  facet normal 0.940766 0.339058 0
    outer loop
      vertex 11.6029 18.101 0
      vertex 11.6242 18.0419 2
      vertex 11.6242 18.0419 0
    endloop
  endfacet
  facet normal -0.987776 0.155881 0
    outer loop
      vertex 13.5363 18.2226 0
      vertex 13.5461 18.2847 2
      vertex 13.5461 18.2847 0
    endloop
  endfacet
  facet normal -0.987776 0.155881 0
    outer loop
      vertex 13.5461 18.2847 2
      vertex 13.5363 18.2226 0
      vertex 13.5363 18.2226 2
    endloop
  endfacet
endsolid OpenSCAD_Model
