solid OpenSCAD_Model
  facet normal 0 0 -1
    outer loop
      vertex 24.259 39.4276 0
      vertex 19.335 36.4912 0
      vertex 19.337 36.554 0
    endloop
  endfacet
  facet normal 0 0 -1
    outer loop
      vertex 22.2424 32.6584 0
      vertex 19.3291 36.4287 0
      vertex 19.335 36.4912 0
    endloop
  endfacet
  facet normal 0 0 -1
    outer loop
      vertex 22.2424 32.6584 0
      vertex 19.3193 36.3666 0
      vertex 19.3291 36.4287 0
    endloop
  endfacet
  facet normal 0 0 -1
    outer loop
      vertex 22.2424 32.6584 0
      vertex 19.3056 36.3053 0
      vertex 19.3193 36.3666 0
    endloop
  endfacet
  facet normal 0 0 -1
    outer loop
      vertex 22.2424 32.6584 0
      vertex 19.2881 36.245 0
      vertex 19.3056 36.3053 0
    endloop
  endfacet
  facet normal 0 0 -1
    outer loop
      vertex 20.7627 32.8695 0
      vertex 19.2668 36.1859 0
      vertex 19.2881 36.245 0
    endloop
  endfacet
  facet normal 0 0 -1
    outer loop
      vertex 20.7627 32.8695 0
      vertex 19.2418 36.1282 0
      vertex 19.2668 36.1859 0
    endloop
  endfacet
  facet normal 0 0 -1
    outer loop
      vertex 20.7627 32.8695 0
      vertex 19.2133 36.0722 0
      vertex 19.2418 36.1282 0
    endloop
  endfacet
  facet normal 0 0 -1
    outer loop
      vertex 20.7627 32.8695 0
      vertex 19.1813 36.0182 0
      vertex 19.2133 36.0722 0
    endloop
  endfacet
  facet normal 0 0 -1
    outer loop
      vertex 20.7627 32.8695 0
      vertex 19.146 35.9662 0
      vertex 19.1813 36.0182 0
    endloop
  endfacet
  facet normal 0 0 -1
    outer loop
      vertex 20.7627 32.8695 0
      vertex 19.1075 35.9166 0
      vertex 19.146 35.9662 0
    endloop
  endfacet
  facet normal 0 0 -1
    outer loop
      vertex 20.7627 32.8695 0
      vertex 19.066 35.8695 0
      vertex 19.1075 35.9166 0
    endloop
  endfacet
  facet normal 0 0 -1
    outer loop
      vertex 20.7627 32.8695 0
      vertex 19.0215 35.825 0
      vertex 19.066 35.8695 0
    endloop
  endfacet
  facet normal 0 0 -1
    outer loop
      vertex 20.7627 32.8695 0
      vertex 18.9744 35.7835 0
      vertex 19.0215 35.825 0
    endloop
  endfacet
  facet normal 0 0 -1
    outer loop
      vertex 20.7627 32.8695 0
      vertex 18.9248 35.745 0
      vertex 18.9744 35.7835 0
    endloop
  endfacet
  facet normal 0 0 -1
    outer loop
      vertex 20.7627 32.8695 0
      vertex 18.8728 35.7097 0
      vertex 18.9248 35.745 0
    endloop
  endfacet
  facet normal 0 0 -1
    outer loop
      vertex 18.5656 32.9962 0
      vertex 18.8728 35.7097 0
      vertex 20.7627 32.8695 0
    endloop
  endfacet
  facet normal 0 0 -1
    outer loop
      vertex 18.8728 35.7097 0
      vertex 18.5656 32.9962 0
      vertex 18.8188 35.6777 0
    endloop
  endfacet
  facet normal 0 0 -1
    outer loop
      vertex 18.8188 35.6777 0
      vertex 18.5656 32.9962 0
      vertex 18.7628 35.6492 0
    endloop
  endfacet
  facet normal 0 0 -1
    outer loop
      vertex 18.7628 35.6492 0
      vertex 18.5656 32.9962 0
      vertex 18.7051 35.6242 0
    endloop
  endfacet
  facet normal 0 0 -1
    outer loop
      vertex 18.7051 35.6242 0
      vertex 18.5656 32.9962 0
      vertex 18.646 35.6029 0
    endloop
  endfacet
  facet normal 0 0 -1
    outer loop
      vertex 18.646 35.6029 0
      vertex 18.5656 32.9962 0
      vertex 18.5857 35.5854 0
    endloop
  endfacet
  facet normal 0 0 -1
    outer loop
      vertex 18.5656 32.9962 0
      vertex 18.5244 35.5717 0
      vertex 18.5857 35.5854 0
    endloop
  endfacet
  facet normal 0 0 -1
    outer loop
      vertex 18.5656 32.9962 0
      vertex 18.4623 35.5619 0
      vertex 18.5244 35.5717 0
    endloop
  endfacet
  facet normal 0 0 -1
    outer loop
      vertex 18.5656 32.9962 0
      vertex 18.3998 35.556 0
      vertex 18.4623 35.5619 0
    endloop
  endfacet
  facet normal 0 0 -1
    outer loop
      vertex 18.5656 32.9962 0
      vertex 18.337 35.554 0
      vertex 18.3998 35.556 0
    endloop
  endfacet
  facet normal 0 0 -1
    outer loop
      vertex 18.5656 32.9962 0
      vertex 18.2742 35.556 0
      vertex 18.337 35.554 0
    endloop
  endfacet
  facet normal 0 0 -1
    outer loop
      vertex 18.5656 32.9962 0
      vertex 18.2117 35.5619 0
      vertex 18.2742 35.556 0
    endloop
  endfacet
  facet normal 0 0 -1
    outer loop
      vertex 18.5656 32.9962 0
      vertex 18.1496 35.5717 0
      vertex 18.2117 35.5619 0
    endloop
  endfacet
  facet normal 0 0 -1
    outer loop
      vertex 18.5656 32.9962 0
      vertex 18.0883 35.5854 0
      vertex 18.1496 35.5717 0
    endloop
  endfacet
  facet normal 0 0 -1
    outer loop
      vertex 18.5656 32.9962 0
      vertex 18.028 35.6029 0
      vertex 18.0883 35.5854 0
    endloop
  endfacet
  facet normal 0 0 -1
    outer loop
      vertex 18.5656 32.9962 0
      vertex 17.9689 35.6242 0
      vertex 18.028 35.6029 0
    endloop
  endfacet
  facet normal 0 0 -1
    outer loop
      vertex 18.5656 32.9962 0
      vertex 17.9112 35.6492 0
      vertex 17.9689 35.6242 0
    endloop
  endfacet
  facet normal 0 0 -1
    outer loop
      vertex 15.6512 33.0384 0
      vertex 17.9112 35.6492 0
      vertex 18.5656 32.9962 0
    endloop
  endfacet
  facet normal -0 0 -1
    outer loop
      vertex 17.9112 35.6492 0
      vertex 15.6512 33.0384 0
      vertex 17.8552 35.6777 0
    endloop
  endfacet
  facet normal -0 0 -1
    outer loop
      vertex 17.8552 35.6777 0
      vertex 15.6512 33.0384 0
      vertex 17.8012 35.7097 0
    endloop
  endfacet
  facet normal -0 0 -1
    outer loop
      vertex 17.8012 35.7097 0
      vertex 15.6512 33.0384 0
      vertex 17.7492 35.745 0
    endloop
  endfacet
  facet normal -0 0 -1
    outer loop
      vertex 17.7492 35.745 0
      vertex 15.6512 33.0384 0
      vertex 17.6996 35.7835 0
    endloop
  endfacet
  facet normal -0 0 -1
    outer loop
      vertex 17.6996 35.7835 0
      vertex 15.6512 33.0384 0
      vertex 17.6525 35.825 0
    endloop
  endfacet
  facet normal -0 0 -1
    outer loop
      vertex 17.6525 35.825 0
      vertex 15.6512 33.0384 0
      vertex 17.608 35.8695 0
    endloop
  endfacet
  facet normal -0 0 -1
    outer loop
      vertex 17.608 35.8695 0
      vertex 15.6512 33.0384 0
      vertex 17.5665 35.9166 0
    endloop
  endfacet
  facet normal -0 0 -1
    outer loop
      vertex 17.5665 35.9166 0
      vertex 15.6512 33.0384 0
      vertex 17.528 35.9662 0
    endloop
  endfacet
  facet normal -0 0 -1
    outer loop
      vertex 17.528 35.9662 0
      vertex 15.6512 33.0384 0
      vertex 17.4927 36.0182 0
    endloop
  endfacet
  facet normal -0 0 -1
    outer loop
      vertex 17.4927 36.0182 0
      vertex 15.6512 33.0384 0
      vertex 17.4607 36.0722 0
    endloop
  endfacet
  facet normal -0 0 -1
    outer loop
      vertex 17.4607 36.0722 0
      vertex 15.6512 33.0384 0
      vertex 17.4322 36.1282 0
    endloop
  endfacet
  facet normal -0 0 -1
    outer loop
      vertex 17.3449 36.4287 0
      vertex 12.0436 33.0384 0
      vertex 17.339 36.4912 0
    endloop
  endfacet
  facet normal 0 0 -1
    outer loop
      vertex 12.0436 33.0384 0
      vertex 17.3449 36.4287 0
      vertex 15.6512 33.0384 0
    endloop
  endfacet
  facet normal -0 0 -1
    outer loop
      vertex 17.3547 36.3666 0
      vertex 15.6512 33.0384 0
      vertex 17.3449 36.4287 0
    endloop
  endfacet
  facet normal -0 0 -1
    outer loop
      vertex 17.3684 36.3053 0
      vertex 15.6512 33.0384 0
      vertex 17.3547 36.3666 0
    endloop
  endfacet
  facet normal -0 0 -1
    outer loop
      vertex 17.3859 36.245 0
      vertex 15.6512 33.0384 0
      vertex 17.3684 36.3053 0
    endloop
  endfacet
  facet normal -0 0 -1
    outer loop
      vertex 17.4072 36.1859 0
      vertex 15.6512 33.0384 0
      vertex 17.3859 36.245 0
    endloop
  endfacet
  facet normal -0 0 -1
    outer loop
      vertex 17.4322 36.1282 0
      vertex 15.6512 33.0384 0
      vertex 17.4072 36.1859 0
    endloop
  endfacet
  facet normal -0 0 -1
    outer loop
      vertex 37.3512 19.5028 0
      vertex 28.9603 16.9969 0
      vertex 29.0508 19.8556 0
    endloop
  endfacet
  facet normal 0 0 -1
    outer loop
      vertex 31.872 4.01439 0
      vertex 28.689 14.5692 0
      vertex 28.9603 16.9969 0
    endloop
  endfacet
  facet normal 0 0 -1
    outer loop
      vertex 25.202 8.03212 0
      vertex 30.3167 2.7576 0
      vertex 28.4361 1.69972 0
    endloop
  endfacet
  facet normal 0 0 -1
    outer loop
      vertex 31.872 4.01439 0
      vertex 28.2368 12.5724 0
      vertex 28.689 14.5692 0
    endloop
  endfacet
  facet normal 0 0 -1
    outer loop
      vertex 31.872 4.01439 0
      vertex 27.6416 10.9586 0
      vertex 28.2368 12.5724 0
    endloop
  endfacet
  facet normal 0 0 -1
    outer loop
      vertex 31.872 4.01439 0
      vertex 26.941 9.67923 0
      vertex 27.6416 10.9586 0
    endloop
  endfacet
  facet normal 0 0 -1
    outer loop
      vertex 24.1216 7.48053 0
      vertex 28.4361 1.69972 0
      vertex 26.23 0.84079 0
    endloop
  endfacet
  facet normal 0 0 -1
    outer loop
      vertex 31.872 4.01439 0
      vertex 26.1348 8.73439 0
      vertex 26.941 9.67923 0
    endloop
  endfacet
  facet normal 0 0 -1
    outer loop
      vertex 30.3167 2.7576 0
      vertex 25.202 8.03212 0
      vertex 26.1348 8.73439 0
    endloop
  endfacet
  facet normal 0 0 -1
    outer loop
      vertex 22.8936 7.07959 0
      vertex 26.23 0.84079 0
      vertex 24.2588 0.373688 0
    endloop
  endfacet
  facet normal 0 0 -1
    outer loop
      vertex 28.4361 1.69972 0
      vertex 24.1216 7.48053 0
      vertex 25.202 8.03212 0
    endloop
  endfacet
  facet normal 0 0 -1
    outer loop
      vertex 26.23 0.84079 0
      vertex 22.8936 7.07959 0
      vertex 24.1216 7.48053 0
    endloop
  endfacet
  facet normal 0 0 -1
    outer loop
      vertex 21.691 6.8687 0
      vertex 24.2588 0.373688 0
      vertex 21.8899 0.0934143 0
    endloop
  endfacet
  facet normal 0 0 -1
    outer loop
      vertex 24.2588 0.373688 0
      vertex 21.691 6.8687 0
      vertex 22.8936 7.07959 0
    endloop
  endfacet
  facet normal 0 0 -1
    outer loop
      vertex 21.8899 0.0934143 0
      vertex 20.0724 6.74217 0
      vertex 21.691 6.8687 0
    endloop
  endfacet
  facet normal 0 0 -1
    outer loop
      vertex 19.1232 0 0
      vertex 20.0724 6.74217 0
      vertex 21.8899 0.0934143 0
    endloop
  endfacet
  facet normal 0 0 -1
    outer loop
      vertex 19.1232 0 0
      vertex 18.038 6.7 0
      vertex 20.0724 6.74217 0
    endloop
  endfacet
  facet normal 0 0 -1
    outer loop
      vertex 19.1232 0 0
      vertex 12.0436 6.7 0
      vertex 18.038 6.7 0
    endloop
  endfacet
  facet normal -0 0 -1
    outer loop
      vertex 12.0436 6.7 0
      vertex 4.01439 0 0
      vertex 12.0436 33.0384 0
    endloop
  endfacet
  facet normal 0 0 -1
    outer loop
      vertex 4.01439 0 0
      vertex 12.0436 6.7 0
      vertex 19.1232 0 0
    endloop
  endfacet
  facet normal 0 0 -1
    outer loop
      vertex 28.9603 16.9969 0
      vertex 37.3512 19.5028 0
      vertex 37.2155 16.3804 0
    endloop
  endfacet
  facet normal 0 0 -1
    outer loop
      vertex 28.9603 16.9969 0
      vertex 37.2155 16.3804 0
      vertex 36.8086 13.5595 0
    endloop
  endfacet
  facet normal 0 0 -1
    outer loop
      vertex 37.3512 19.5028 0
      vertex 29.0508 19.8556 0
      vertex 37.2065 23.0307 0
    endloop
  endfacet
  facet normal 0 0 -1
    outer loop
      vertex 28.9603 16.9969 0
      vertex 36.8086 13.5595 0
      vertex 36.1304 11.04 0
    endloop
  endfacet
  facet normal 0 0 -1
    outer loop
      vertex 28.9603 22.6916 0
      vertex 37.2065 23.0307 0
      vertex 29.0508 19.8556 0
    endloop
  endfacet
  facet normal -0 0 -1
    outer loop
      vertex 37.2065 23.0307 0
      vertex 28.9603 22.6916 0
      vertex 36.7725 26.1636 0
    endloop
  endfacet
  facet normal 0 0 -1
    outer loop
      vertex 28.9603 16.9969 0
      vertex 36.1304 11.04 0
      vertex 34.9943 8.33047 0
    endloop
  endfacet
  facet normal 0 0 -1
    outer loop
      vertex 28.689 25.0515 0
      vertex 36.7725 26.1636 0
      vertex 28.9603 22.6916 0
    endloop
  endfacet
  facet normal 0 0 -1
    outer loop
      vertex 28.9603 16.9969 0
      vertex 34.9943 8.33047 0
      vertex 33.5748 5.98862 0
    endloop
  endfacet
  facet normal -0 0 -1
    outer loop
      vertex 36.7725 26.1636 0
      vertex 28.689 25.0515 0
      vertex 36.0492 28.9016 0
    endloop
  endfacet
  facet normal 0 0 -1
    outer loop
      vertex 28.9603 16.9969 0
      vertex 33.5748 5.98862 0
      vertex 31.872 4.01439 0
    endloop
  endfacet
  facet normal 0 0 -1
    outer loop
      vertex 28.2368 26.9352 0
      vertex 36.0492 28.9016 0
      vertex 28.689 25.0515 0
    endloop
  endfacet
  facet normal 0 0 -1
    outer loop
      vertex 26.1348 8.73439 0
      vertex 31.872 4.01439 0
      vertex 30.3167 2.7576 0
    endloop
  endfacet
  facet normal -0 0 -1
    outer loop
      vertex 36.0492 28.9016 0
      vertex 28.2368 26.9352 0
      vertex 35.0486 31.3113 0
    endloop
  endfacet
  facet normal 0 0 -1
    outer loop
      vertex 27.622 28.4602 0
      vertex 35.0486 31.3113 0
      vertex 28.2368 26.9352 0
    endloop
  endfacet
  facet normal -0 0 -1
    outer loop
      vertex 35.0486 31.3113 0
      vertex 27.622 28.4602 0
      vertex 33.7827 33.4588 0
    endloop
  endfacet
  facet normal 0 0 -1
    outer loop
      vertex 26.8626 29.7441 0
      vertex 33.7827 33.4588 0
      vertex 27.622 28.4602 0
    endloop
  endfacet
  facet normal -0 0 -1
    outer loop
      vertex 33.7827 33.4588 0
      vertex 26.8626 29.7441 0
      vertex 32.2516 35.344 0
    endloop
  endfacet
  facet normal 0 0 -1
    outer loop
      vertex 25.9584 30.7868 0
      vertex 32.2516 35.344 0
      vertex 26.8626 29.7441 0
    endloop
  endfacet
  facet normal -0 0 -1
    outer loop
      vertex 32.2516 35.344 0
      vertex 25.9584 30.7868 0
      vertex 30.4764 36.9203 0
    endloop
  endfacet
  facet normal 0 0 -1
    outer loop
      vertex 24.8947 31.6097 0
      vertex 30.4764 36.9203 0
      vertex 25.9584 30.7868 0
    endloop
  endfacet
  facet normal -0 0 -1
    outer loop
      vertex 30.4764 36.9203 0
      vertex 24.8947 31.6097 0
      vertex 28.4783 38.1408 0
    endloop
  endfacet
  facet normal -0 0 -1
    outer loop
      vertex 28.4783 38.1408 0
      vertex 24.8947 31.6097 0
      vertex 26.2572 39.0056 0
    endloop
  endfacet
  facet normal 0 0 -1
    outer loop
      vertex 23.656 32.2336 0
      vertex 26.2572 39.0056 0
      vertex 24.8947 31.6097 0
    endloop
  endfacet
  facet normal -0 0 -1
    outer loop
      vertex 26.2572 39.0056 0
      vertex 23.656 32.2336 0
      vertex 24.259 39.4276 0
    endloop
  endfacet
  facet normal 0 0 -1
    outer loop
      vertex 22.2424 32.6584 0
      vertex 24.259 39.4276 0
      vertex 23.656 32.2336 0
    endloop
  endfacet
  facet normal 0 0 -1
    outer loop
      vertex 19.335 36.4912 0
      vertex 24.259 39.4276 0
      vertex 22.2424 32.6584 0
    endloop
  endfacet
  facet normal 0 0 -1
    outer loop
      vertex 19.2881 36.245 0
      vertex 22.2424 32.6584 0
      vertex 20.7627 32.8695 0
    endloop
  endfacet
  facet normal -0 0 -1
    outer loop
      vertex 24.259 39.4276 0
      vertex 19.337 36.554 0
      vertex 21.7363 39.6808 0
    endloop
  endfacet
  facet normal 0 0 -1
    outer loop
      vertex 19.335 36.6168 0
      vertex 21.7363 39.6808 0
      vertex 19.337 36.554 0
    endloop
  endfacet
  facet normal 0 0 -1
    outer loop
      vertex 19.3291 36.6793 0
      vertex 21.7363 39.6808 0
      vertex 19.335 36.6168 0
    endloop
  endfacet
  facet normal 0 0 -1
    outer loop
      vertex 19.3193 36.7414 0
      vertex 21.7363 39.6808 0
      vertex 19.3291 36.6793 0
    endloop
  endfacet
  facet normal 0 0 -1
    outer loop
      vertex 19.3056 36.8027 0
      vertex 21.7363 39.6808 0
      vertex 19.3193 36.7414 0
    endloop
  endfacet
  facet normal 0 0 -1
    outer loop
      vertex 19.2881 36.863 0
      vertex 21.7363 39.6808 0
      vertex 19.3056 36.8027 0
    endloop
  endfacet
  facet normal 0 0 -1
    outer loop
      vertex 19.2668 36.9221 0
      vertex 21.7363 39.6808 0
      vertex 19.2881 36.863 0
    endloop
  endfacet
  facet normal 0 0 -1
    outer loop
      vertex 19.2418 36.9798 0
      vertex 21.7363 39.6808 0
      vertex 19.2668 36.9221 0
    endloop
  endfacet
  facet normal 0 0 -1
    outer loop
      vertex 19.2133 37.0358 0
      vertex 21.7363 39.6808 0
      vertex 19.2418 36.9798 0
    endloop
  endfacet
  facet normal 0 0 -1
    outer loop
      vertex 19.1813 37.0898 0
      vertex 21.7363 39.6808 0
      vertex 19.2133 37.0358 0
    endloop
  endfacet
  facet normal 0 0 -1
    outer loop
      vertex 19.146 37.1418 0
      vertex 21.7363 39.6808 0
      vertex 19.1813 37.0898 0
    endloop
  endfacet
  facet normal 0 0 -1
    outer loop
      vertex 19.1075 37.1914 0
      vertex 21.7363 39.6808 0
      vertex 19.146 37.1418 0
    endloop
  endfacet
  facet normal 0 0 -1
    outer loop
      vertex 19.066 37.2385 0
      vertex 21.7363 39.6808 0
      vertex 19.1075 37.1914 0
    endloop
  endfacet
  facet normal 0 0 -1
    outer loop
      vertex 19.0215 37.283 0
      vertex 21.7363 39.6808 0
      vertex 19.066 37.2385 0
    endloop
  endfacet
  facet normal 0 0 -1
    outer loop
      vertex 18.9744 37.3245 0
      vertex 21.7363 39.6808 0
      vertex 19.0215 37.283 0
    endloop
  endfacet
  facet normal 0 0 -1
    outer loop
      vertex 18.6892 39.7652 0
      vertex 18.9744 37.3245 0
      vertex 18.9248 37.363 0
    endloop
  endfacet
  facet normal 0 0 -1
    outer loop
      vertex 18.6892 39.7652 0
      vertex 18.9248 37.363 0
      vertex 18.8728 37.3983 0
    endloop
  endfacet
  facet normal 0 0 -1
    outer loop
      vertex 18.6892 39.7652 0
      vertex 18.8728 37.3983 0
      vertex 18.8188 37.4303 0
    endloop
  endfacet
  facet normal 0 0 -1
    outer loop
      vertex 18.6892 39.7652 0
      vertex 18.8188 37.4303 0
      vertex 18.7628 37.4588 0
    endloop
  endfacet
  facet normal 0 0 -1
    outer loop
      vertex 18.6892 39.7652 0
      vertex 18.7628 37.4588 0
      vertex 18.7051 37.4838 0
    endloop
  endfacet
  facet normal 0 0 -1
    outer loop
      vertex 18.9744 37.3245 0
      vertex 18.6892 39.7652 0
      vertex 21.7363 39.6808 0
    endloop
  endfacet
  facet normal 0 0 -1
    outer loop
      vertex 18.646 37.5051 0
      vertex 18.6892 39.7652 0
      vertex 18.7051 37.4838 0
    endloop
  endfacet
  facet normal 0 0 -1
    outer loop
      vertex 18.5857 37.5226 0
      vertex 18.6892 39.7652 0
      vertex 18.646 37.5051 0
    endloop
  endfacet
  facet normal 0 0 -1
    outer loop
      vertex 18.5244 37.5363 0
      vertex 18.6892 39.7652 0
      vertex 18.5857 37.5226 0
    endloop
  endfacet
  facet normal 0 0 -1
    outer loop
      vertex 18.4623 37.5461 0
      vertex 18.6892 39.7652 0
      vertex 18.5244 37.5363 0
    endloop
  endfacet
  facet normal 0 0 -1
    outer loop
      vertex 18.3998 37.552 0
      vertex 18.6892 39.7652 0
      vertex 18.4623 37.5461 0
    endloop
  endfacet
  facet normal 0 0 -1
    outer loop
      vertex 18.337 37.554 0
      vertex 18.6892 39.7652 0
      vertex 18.3998 37.552 0
    endloop
  endfacet
  facet normal 0 0 -1
    outer loop
      vertex 18.2742 37.552 0
      vertex 18.6892 39.7652 0
      vertex 18.337 37.554 0
    endloop
  endfacet
  facet normal 0 0 -1
    outer loop
      vertex 18.2117 37.5461 0
      vertex 18.6892 39.7652 0
      vertex 18.2742 37.552 0
    endloop
  endfacet
  facet normal 0 0 -1
    outer loop
      vertex 18.1496 37.5363 0
      vertex 18.6892 39.7652 0
      vertex 18.2117 37.5461 0
    endloop
  endfacet
  facet normal 0 0 -1
    outer loop
      vertex 18.0883 37.5226 0
      vertex 18.6892 39.7652 0
      vertex 18.1496 37.5363 0
    endloop
  endfacet
  facet normal 0 0 -1
    outer loop
      vertex 18.028 37.5051 0
      vertex 18.6892 39.7652 0
      vertex 18.0883 37.5226 0
    endloop
  endfacet
  facet normal 0 0 -1
    outer loop
      vertex 17.9689 37.4838 0
      vertex 18.6892 39.7652 0
      vertex 18.028 37.5051 0
    endloop
  endfacet
  facet normal 0 0 -1
    outer loop
      vertex 17.9112 37.4588 0
      vertex 18.6892 39.7652 0
      vertex 17.9689 37.4838 0
    endloop
  endfacet
  facet normal 0 0 -1
    outer loop
      vertex 17.8552 37.4303 0
      vertex 18.6892 39.7652 0
      vertex 17.9112 37.4588 0
    endloop
  endfacet
  facet normal 0 0 -1
    outer loop
      vertex 17.8012 37.3983 0
      vertex 18.6892 39.7652 0
      vertex 17.8552 37.4303 0
    endloop
  endfacet
  facet normal 0 0 -1
    outer loop
      vertex 17.7492 37.363 0
      vertex 18.6892 39.7652 0
      vertex 17.8012 37.3983 0
    endloop
  endfacet
  facet normal 0 0 -1
    outer loop
      vertex 17.6996 37.3245 0
      vertex 18.6892 39.7652 0
      vertex 17.7492 37.363 0
    endloop
  endfacet
  facet normal 0 0 -1
    outer loop
      vertex 17.6525 37.283 0
      vertex 18.6892 39.7652 0
      vertex 17.6996 37.3245 0
    endloop
  endfacet
  facet normal 0 0 -1
    outer loop
      vertex 17.608 37.2385 0
      vertex 18.6892 39.7652 0
      vertex 17.6525 37.283 0
    endloop
  endfacet
  facet normal 0 0 -1
    outer loop
      vertex 17.5665 37.1914 0
      vertex 18.6892 39.7652 0
      vertex 17.608 37.2385 0
    endloop
  endfacet
  facet normal 0 0 -1
    outer loop
      vertex 17.528 37.1418 0
      vertex 18.6892 39.7652 0
      vertex 17.5665 37.1914 0
    endloop
  endfacet
  facet normal 0 0 -1
    outer loop
      vertex 4.01439 39.7652 0
      vertex 17.528 37.1418 0
      vertex 17.4927 37.0898 0
    endloop
  endfacet
  facet normal 0 0 -1
    outer loop
      vertex 4.01439 39.7652 0
      vertex 17.4927 37.0898 0
      vertex 17.4607 37.0358 0
    endloop
  endfacet
  facet normal 0 0 -1
    outer loop
      vertex 4.01439 39.7652 0
      vertex 17.4607 37.0358 0
      vertex 17.4322 36.9798 0
    endloop
  endfacet
  facet normal -0 0 -1
    outer loop
      vertex 17.339 36.4912 0
      vertex 12.0436 33.0384 0
      vertex 17.337 36.554 0
    endloop
  endfacet
  facet normal -0 0 -1
    outer loop
      vertex 17.337 36.554 0
      vertex 12.0436 33.0384 0
      vertex 17.339 36.6168 0
    endloop
  endfacet
  facet normal -0 0 -1
    outer loop
      vertex 17.339 36.6168 0
      vertex 12.0436 33.0384 0
      vertex 17.3449 36.6793 0
    endloop
  endfacet
  facet normal -0 0 -1
    outer loop
      vertex 17.3449 36.6793 0
      vertex 12.0436 33.0384 0
      vertex 17.3547 36.7414 0
    endloop
  endfacet
  facet normal -0 0 -1
    outer loop
      vertex 17.3547 36.7414 0
      vertex 12.0436 33.0384 0
      vertex 17.3684 36.8027 0
    endloop
  endfacet
  facet normal -0 0 -1
    outer loop
      vertex 17.3684 36.8027 0
      vertex 12.0436 33.0384 0
      vertex 17.3859 36.863 0
    endloop
  endfacet
  facet normal -0 0 -1
    outer loop
      vertex 17.3859 36.863 0
      vertex 12.0436 33.0384 0
      vertex 17.4072 36.9221 0
    endloop
  endfacet
  facet normal -0 0 -1
    outer loop
      vertex 17.4072 36.9221 0
      vertex 12.0436 33.0384 0
      vertex 17.4322 36.9798 0
    endloop
  endfacet
  facet normal 0 0 -1
    outer loop
      vertex 4.01439 39.7652 0
      vertex 17.4322 36.9798 0
      vertex 12.0436 33.0384 0
    endloop
  endfacet
  facet normal 0 0 -1
    outer loop
      vertex 17.528 37.1418 0
      vertex 4.01439 39.7652 0
      vertex 18.6892 39.7652 0
    endloop
  endfacet
  facet normal 0 0 -1
    outer loop
      vertex 4.01439 39.7652 0
      vertex 12.0436 33.0384 0
      vertex 4.01439 0 0
    endloop
  endfacet
  facet normal -0 0 1
    outer loop
      vertex 29.0508 19.8556 5
      vertex 37.3512 19.5028 5
      vertex 37.2065 23.0307 5
    endloop
  endfacet
  facet normal 0 0 1
    outer loop
      vertex 28.9603 16.9969 5
      vertex 37.3512 19.5028 5
      vertex 29.0508 19.8556 5
    endloop
  endfacet
  facet normal 0 0 1
    outer loop
      vertex 28.9603 22.6916 5
      vertex 37.2065 23.0307 5
      vertex 36.7725 26.1636 5
    endloop
  endfacet
  facet normal 0 0 1
    outer loop
      vertex 37.3512 19.5028 5
      vertex 28.9603 16.9969 5
      vertex 37.2155 16.3804 5
    endloop
  endfacet
  facet normal 0 0 1
    outer loop
      vertex 28.689 25.0515 5
      vertex 36.7725 26.1636 5
      vertex 36.0492 28.9016 5
    endloop
  endfacet
  facet normal 0 0 1
    outer loop
      vertex 28.2368 26.9352 5
      vertex 36.0492 28.9016 5
      vertex 35.0486 31.3113 5
    endloop
  endfacet
  facet normal 0 0 1
    outer loop
      vertex 37.2155 16.3804 5
      vertex 28.9603 16.9969 5
      vertex 36.8086 13.5595 5
    endloop
  endfacet
  facet normal 0 0 1
    outer loop
      vertex 27.622 28.4602 5
      vertex 35.0486 31.3113 5
      vertex 33.7827 33.4588 5
    endloop
  endfacet
  facet normal -0 0 1
    outer loop
      vertex 28.689 14.5692 5
      vertex 36.8086 13.5595 5
      vertex 28.9603 16.9969 5
    endloop
  endfacet
  facet normal 0 0 1
    outer loop
      vertex 26.8626 29.7441 5
      vertex 33.7827 33.4588 5
      vertex 32.2516 35.344 5
    endloop
  endfacet
  facet normal 0 0 1
    outer loop
      vertex 36.8086 13.5595 5
      vertex 28.689 14.5692 5
      vertex 36.1304 11.04 5
    endloop
  endfacet
  facet normal 0 0 1
    outer loop
      vertex 25.9584 30.7868 5
      vertex 32.2516 35.344 5
      vertex 30.4764 36.9203 5
    endloop
  endfacet
  facet normal -0 0 1
    outer loop
      vertex 28.2368 12.5724 5
      vertex 36.1304 11.04 5
      vertex 28.689 14.5692 5
    endloop
  endfacet
  facet normal 0 0 1
    outer loop
      vertex 36.1304 11.04 5
      vertex 28.2368 12.5724 5
      vertex 34.9943 8.33047 5
    endloop
  endfacet
  facet normal 0 0 1
    outer loop
      vertex 37.2065 23.0307 5
      vertex 28.9603 22.6916 5
      vertex 29.0508 19.8556 5
    endloop
  endfacet
  facet normal 0 0 1
    outer loop
      vertex 36.7725 26.1636 5
      vertex 28.689 25.0515 5
      vertex 28.9603 22.6916 5
    endloop
  endfacet
  facet normal 0 0 1
    outer loop
      vertex 24.8947 31.6097 5
      vertex 30.4764 36.9203 5
      vertex 28.4783 38.1408 5
    endloop
  endfacet
  facet normal 0 0 1
    outer loop
      vertex 36.0492 28.9016 5
      vertex 28.2368 26.9352 5
      vertex 28.689 25.0515 5
    endloop
  endfacet
  facet normal 0 0 1
    outer loop
      vertex 35.0486 31.3113 5
      vertex 27.622 28.4602 5
      vertex 28.2368 26.9352 5
    endloop
  endfacet
  facet normal 0 0 1
    outer loop
      vertex 33.7827 33.4588 5
      vertex 26.8626 29.7441 5
      vertex 27.622 28.4602 5
    endloop
  endfacet
  facet normal 0 0 1
    outer loop
      vertex 24.8947 31.6097 5
      vertex 28.4783 38.1408 5
      vertex 26.2572 39.0056 5
    endloop
  endfacet
  facet normal 0 0 1
    outer loop
      vertex 32.2516 35.344 5
      vertex 25.9584 30.7868 5
      vertex 26.8626 29.7441 5
    endloop
  endfacet
  facet normal 0 0 1
    outer loop
      vertex 30.4764 36.9203 5
      vertex 24.8947 31.6097 5
      vertex 25.9584 30.7868 5
    endloop
  endfacet
  facet normal 0 0 1
    outer loop
      vertex 23.656 32.2336 5
      vertex 26.2572 39.0056 5
      vertex 24.259 39.4276 5
    endloop
  endfacet
  facet normal 0 0 1
    outer loop
      vertex 26.2572 39.0056 5
      vertex 23.656 32.2336 5
      vertex 24.8947 31.6097 5
    endloop
  endfacet
  facet normal 0 0 1
    outer loop
      vertex 24.259 39.4276 5
      vertex 22.2424 32.6584 5
      vertex 23.656 32.2336 5
    endloop
  endfacet
  facet normal 0 0 1
    outer loop
      vertex 21.7363 39.6808 5
      vertex 22.2424 32.6584 5
      vertex 24.259 39.4276 5
    endloop
  endfacet
  facet normal 0 0 1
    outer loop
      vertex 21.7363 39.6808 5
      vertex 20.7627 32.8695 5
      vertex 22.2424 32.6584 5
    endloop
  endfacet
  facet normal 0 0 1
    outer loop
      vertex 18.6892 39.7652 5
      vertex 20.7627 32.8695 5
      vertex 21.7363 39.6808 5
    endloop
  endfacet
  facet normal 0 0 1
    outer loop
      vertex 18.6892 39.7652 5
      vertex 18.5656 32.9962 5
      vertex 20.7627 32.8695 5
    endloop
  endfacet
  facet normal 0 0 1
    outer loop
      vertex 18.6892 39.7652 5
      vertex 15.6512 33.0384 5
      vertex 18.5656 32.9962 5
    endloop
  endfacet
  facet normal 0 0 1
    outer loop
      vertex 18.6892 39.7652 5
      vertex 12.0436 33.0384 5
      vertex 15.6512 33.0384 5
    endloop
  endfacet
  facet normal 0 0 1
    outer loop
      vertex 12.0436 33.0384 5
      vertex 4.01439 39.7652 5
      vertex 12.0436 6.7 5
    endloop
  endfacet
  facet normal -0 0 1
    outer loop
      vertex 4.01439 39.7652 5
      vertex 12.0436 33.0384 5
      vertex 18.6892 39.7652 5
    endloop
  endfacet
  facet normal -0 0 1
    outer loop
      vertex 27.6416 10.9586 5
      vertex 34.9943 8.33047 5
      vertex 28.2368 12.5724 5
    endloop
  endfacet
  facet normal 0 0 1
    outer loop
      vertex 34.9943 8.33047 5
      vertex 27.6416 10.9586 5
      vertex 33.5748 5.98862 5
    endloop
  endfacet
  facet normal -0 0 1
    outer loop
      vertex 26.941 9.67923 5
      vertex 33.5748 5.98862 5
      vertex 27.6416 10.9586 5
    endloop
  endfacet
  facet normal 0 0 1
    outer loop
      vertex 33.5748 5.98862 5
      vertex 26.941 9.67923 5
      vertex 31.872 4.01439 5
    endloop
  endfacet
  facet normal -0 0 1
    outer loop
      vertex 26.1348 8.73439 5
      vertex 31.872 4.01439 5
      vertex 26.941 9.67923 5
    endloop
  endfacet
  facet normal 0 0 1
    outer loop
      vertex 31.872 4.01439 5
      vertex 26.1348 8.73439 5
      vertex 30.3167 2.7576 5
    endloop
  endfacet
  facet normal -0 0 1
    outer loop
      vertex 25.202 8.03212 5
      vertex 30.3167 2.7576 5
      vertex 26.1348 8.73439 5
    endloop
  endfacet
  facet normal 0 0 1
    outer loop
      vertex 30.3167 2.7576 5
      vertex 25.202 8.03212 5
      vertex 28.4361 1.69972 5
    endloop
  endfacet
  facet normal -0 0 1
    outer loop
      vertex 24.1216 7.48053 5
      vertex 28.4361 1.69972 5
      vertex 25.202 8.03212 5
    endloop
  endfacet
  facet normal 0 0 1
    outer loop
      vertex 28.4361 1.69972 5
      vertex 24.1216 7.48053 5
      vertex 26.23 0.84079 5
    endloop
  endfacet
  facet normal -0 0 1
    outer loop
      vertex 22.8936 7.07959 5
      vertex 26.23 0.84079 5
      vertex 24.1216 7.48053 5
    endloop
  endfacet
  facet normal 0 0 1
    outer loop
      vertex 26.23 0.84079 5
      vertex 22.8936 7.07959 5
      vertex 24.2588 0.373688 5
    endloop
  endfacet
  facet normal -0 0 1
    outer loop
      vertex 21.691 6.8687 5
      vertex 24.2588 0.373688 5
      vertex 22.8936 7.07959 5
    endloop
  endfacet
  facet normal 0 0 1
    outer loop
      vertex 24.2588 0.373688 5
      vertex 21.691 6.8687 5
      vertex 21.8899 0.0934143 5
    endloop
  endfacet
  facet normal -0 0 1
    outer loop
      vertex 20.0724 6.74217 5
      vertex 21.8899 0.0934143 5
      vertex 21.691 6.8687 5
    endloop
  endfacet
  facet normal 0 0 1
    outer loop
      vertex 20.0724 6.74217 5
      vertex 19.1232 0 5
      vertex 21.8899 0.0934143 5
    endloop
  endfacet
  facet normal -0 0 1
    outer loop
      vertex 18.038 6.7 5
      vertex 19.1232 0 5
      vertex 20.0724 6.74217 5
    endloop
  endfacet
  facet normal -0 0 1
    outer loop
      vertex 12.0436 6.7 5
      vertex 19.1232 0 5
      vertex 18.038 6.7 5
    endloop
  endfacet
  facet normal 0 0 1
    outer loop
      vertex 12.0436 6.7 5
      vertex 4.01439 0 5
      vertex 19.1232 0 5
    endloop
  endfacet
  facet normal 0 0 1
    outer loop
      vertex 4.01439 0 5
      vertex 12.0436 6.7 5
      vertex 4.01439 39.7652 5
    endloop
  endfacet
  facet normal 0.117494 -0.993074 0
    outer loop
      vertex 21.8899 0.0934143 0
      vertex 24.2588 0.373688 5
      vertex 21.8899 0.0934143 5
    endloop
  endfacet
  facet normal 0.117494 -0.993074 0
    outer loop
      vertex 24.2588 0.373688 5
      vertex 21.8899 0.0934143 0
      vertex 24.2588 0.373688 0
    endloop
  endfacet
  facet normal 0.230578 -0.973054 0
    outer loop
      vertex 24.2588 0.373688 0
      vertex 26.23 0.84079 5
      vertex 24.2588 0.373688 5
    endloop
  endfacet
  facet normal 0.230578 -0.973054 0
    outer loop
      vertex 26.23 0.84079 5
      vertex 24.2588 0.373688 0
      vertex 26.23 0.84079 0
    endloop
  endfacet
  facet normal 0.362814 -0.931862 0
    outer loop
      vertex 26.23 0.84079 0
      vertex 28.4361 1.69972 5
      vertex 26.23 0.84079 5
    endloop
  endfacet
  facet normal 0.362814 -0.931862 0
    outer loop
      vertex 28.4361 1.69972 5
      vertex 26.23 0.84079 0
      vertex 28.4361 1.69972 0
    endloop
  endfacet
  facet normal 0.490276 -0.871567 0
    outer loop
      vertex 28.4361 1.69972 0
      vertex 30.3167 2.7576 5
      vertex 28.4361 1.69972 5
    endloop
  endfacet
  facet normal 0.490276 -0.871567 0
    outer loop
      vertex 30.3167 2.7576 5
      vertex 28.4361 1.69972 0
      vertex 30.3167 2.7576 0
    endloop
  endfacet
  facet normal 0.628514 -0.777798 0
    outer loop
      vertex 30.3167 2.7576 0
      vertex 31.872 4.01439 5
      vertex 30.3167 2.7576 5
    endloop
  endfacet
  facet normal 0.628514 -0.777798 0
    outer loop
      vertex 31.872 4.01439 5
      vertex 30.3167 2.7576 0
      vertex 31.872 4.01439 0
    endloop
  endfacet
  facet normal 0.757243 -0.653133 0
    outer loop
      vertex 31.872 4.01439 5
      vertex 33.5748 5.98862 0
      vertex 33.5748 5.98862 5
    endloop
  endfacet
  facet normal 0.757243 -0.653133 0
    outer loop
      vertex 33.5748 5.98862 0
      vertex 31.872 4.01439 5
      vertex 31.872 4.01439 0
    endloop
  endfacet
  facet normal 0.855166 -0.518354 0
    outer loop
      vertex 33.5748 5.98862 5
      vertex 34.9943 8.33047 0
      vertex 34.9943 8.33047 5
    endloop
  endfacet
  facet normal 0.855166 -0.518354 0
    outer loop
      vertex 34.9943 8.33047 0
      vertex 33.5748 5.98862 5
      vertex 33.5748 5.98862 0
    endloop
  endfacet
  facet normal 0.922213 -0.386682 0
    outer loop
      vertex 34.9943 8.33047 5
      vertex 36.1304 11.04 0
      vertex 36.1304 11.04 5
    endloop
  endfacet
  facet normal 0.922213 -0.386682 0
    outer loop
      vertex 36.1304 11.04 0
      vertex 34.9943 8.33047 5
      vertex 34.9943 8.33047 0
    endloop
  endfacet
  facet normal 0.965628 -0.259928 0
    outer loop
      vertex 36.1304 11.04 5
      vertex 36.8086 13.5595 0
      vertex 36.8086 13.5595 5
    endloop
  endfacet
  facet normal 0.965628 -0.259928 0
    outer loop
      vertex 36.8086 13.5595 0
      vertex 36.1304 11.04 5
      vertex 36.1304 11.04 0
    endloop
  endfacet
  facet normal 0.989756 -0.142767 0
    outer loop
      vertex 36.8086 13.5595 5
      vertex 37.2155 16.3804 0
      vertex 37.2155 16.3804 5
    endloop
  endfacet
  facet normal 0.989756 -0.142767 0
    outer loop
      vertex 37.2155 16.3804 0
      vertex 36.8086 13.5595 5
      vertex 36.8086 13.5595 0
    endloop
  endfacet
  facet normal 0.999057 -0.0434192 0
    outer loop
      vertex 37.2155 16.3804 5
      vertex 37.3512 19.5028 0
      vertex 37.3512 19.5028 5
    endloop
  endfacet
  facet normal 0.999057 -0.0434192 0
    outer loop
      vertex 37.3512 19.5028 0
      vertex 37.2155 16.3804 5
      vertex 37.2155 16.3804 0
    endloop
  endfacet
  facet normal 0.99916 0.0409814 0
    outer loop
      vertex 37.3512 19.5028 5
      vertex 37.2065 23.0307 0
      vertex 37.2065 23.0307 5
    endloop
  endfacet
  facet normal 0.99916 0.0409814 0
    outer loop
      vertex 37.2065 23.0307 0
      vertex 37.3512 19.5028 5
      vertex 37.3512 19.5028 0
    endloop
  endfacet
  facet normal 0.990541 0.137219 0
    outer loop
      vertex 37.2065 23.0307 5
      vertex 36.7725 26.1636 0
      vertex 36.7725 26.1636 5
    endloop
  endfacet
  facet normal 0.990541 0.137219 0
    outer loop
      vertex 36.7725 26.1636 0
      vertex 37.2065 23.0307 5
      vertex 37.2065 23.0307 0
    endloop
  endfacet
  facet normal 0.966833 0.255409 0
    outer loop
      vertex 36.7725 26.1636 5
      vertex 36.0492 28.9016 0
      vertex 36.0492 28.9016 5
    endloop
  endfacet
  facet normal 0.966833 0.255409 0
    outer loop
      vertex 36.0492 28.9016 0
      vertex 36.7725 26.1636 5
      vertex 36.7725 26.1636 0
    endloop
  endfacet
  facet normal 0.923545 0.383491 0
    outer loop
      vertex 36.0492 28.9016 5
      vertex 35.0486 31.3113 0
      vertex 35.0486 31.3113 5
    endloop
  endfacet
  facet normal 0.923545 0.383491 0
    outer loop
      vertex 35.0486 31.3113 0
      vertex 36.0492 28.9016 5
      vertex 36.0492 28.9016 0
    endloop
  endfacet
  facet normal 0.861467 0.507814 0
    outer loop
      vertex 35.0486 31.3113 5
      vertex 33.7827 33.4588 0
      vertex 33.7827 33.4588 5
    endloop
  endfacet
  facet normal 0.861467 0.507814 0
    outer loop
      vertex 33.7827 33.4588 0
      vertex 35.0486 31.3113 5
      vertex 35.0486 31.3113 0
    endloop
  endfacet
  facet normal 0.77624 0.630438 0
    outer loop
      vertex 33.7827 33.4588 5
      vertex 32.2516 35.344 0
      vertex 32.2516 35.344 5
    endloop
  endfacet
  facet normal 0.77624 0.630438 0
    outer loop
      vertex 32.2516 35.344 0
      vertex 33.7827 33.4588 5
      vertex 33.7827 33.4588 0
    endloop
  endfacet
  facet normal 0.663974 0.747755 -0
    outer loop
      vertex 32.2516 35.344 0
      vertex 30.4764 36.9203 5
      vertex 32.2516 35.344 5
    endloop
  endfacet
  facet normal 0.663974 0.747755 0
    outer loop
      vertex 30.4764 36.9203 5
      vertex 32.2516 35.344 0
      vertex 30.4764 36.9203 0
    endloop
  endfacet
  facet normal 0.521276 0.853388 -0
    outer loop
      vertex 30.4764 36.9203 0
      vertex 28.4783 38.1408 5
      vertex 30.4764 36.9203 5
    endloop
  endfacet
  facet normal 0.521276 0.853388 0
    outer loop
      vertex 28.4783 38.1408 5
      vertex 30.4764 36.9203 0
      vertex 28.4783 38.1408 0
    endloop
  endfacet
  facet normal 0.362825 0.931857 -0
    outer loop
      vertex 28.4783 38.1408 0
      vertex 26.2572 39.0056 5
      vertex 28.4783 38.1408 5
    endloop
  endfacet
  facet normal 0.362825 0.931857 0
    outer loop
      vertex 26.2572 39.0056 5
      vertex 28.4783 38.1408 0
      vertex 26.2572 39.0056 0
    endloop
  endfacet
  facet normal 0.206632 0.978419 -0
    outer loop
      vertex 26.2572 39.0056 0
      vertex 24.259 39.4276 5
      vertex 26.2572 39.0056 5
    endloop
  endfacet
  facet normal 0.206632 0.978419 0
    outer loop
      vertex 24.259 39.4276 5
      vertex 26.2572 39.0056 0
      vertex 24.259 39.4276 0
    endloop
  endfacet
  facet normal 0.0998669 0.995001 -0
    outer loop
      vertex 24.259 39.4276 0
      vertex 21.7363 39.6808 5
      vertex 24.259 39.4276 5
    endloop
  endfacet
  facet normal 0.0998669 0.995001 0
    outer loop
      vertex 21.7363 39.6808 5
      vertex 24.259 39.4276 0
      vertex 21.7363 39.6808 0
    endloop
  endfacet
  facet normal 0.0276878 0.999617 -0
    outer loop
      vertex 21.7363 39.6808 0
      vertex 18.6892 39.7652 5
      vertex 21.7363 39.6808 5
    endloop
  endfacet
  facet normal 0.0276878 0.999617 0
    outer loop
      vertex 18.6892 39.7652 5
      vertex 21.7363 39.6808 0
      vertex 18.6892 39.7652 0
    endloop
  endfacet
  facet normal 0 1 -0
    outer loop
      vertex 18.6892 39.7652 0
      vertex 4.01439 39.7652 5
      vertex 18.6892 39.7652 5
    endloop
  endfacet
  facet normal 0 1 0
    outer loop
      vertex 4.01439 39.7652 5
      vertex 18.6892 39.7652 0
      vertex 4.01439 39.7652 0
    endloop
  endfacet
  facet normal -1 0 0
    outer loop
      vertex 4.01439 0 0
      vertex 4.01439 39.7652 5
      vertex 4.01439 39.7652 0
    endloop
  endfacet
  facet normal -1 -0 0
    outer loop
      vertex 4.01439 39.7652 5
      vertex 4.01439 0 0
      vertex 4.01439 0 5
    endloop
  endfacet
  facet normal 0 -1 0
    outer loop
      vertex 4.01439 0 0
      vertex 19.1232 0 5
      vertex 4.01439 0 5
    endloop
  endfacet
  facet normal 0 -1 -0
    outer loop
      vertex 19.1232 0 5
      vertex 4.01439 0 0
      vertex 19.1232 0 0
    endloop
  endfacet
  facet normal 0.0337446 -0.99943 0
    outer loop
      vertex 19.1232 0 0
      vertex 21.8899 0.0934143 5
      vertex 19.1232 0 5
    endloop
  endfacet
  facet normal 0.0337446 -0.99943 0
    outer loop
      vertex 21.8899 0.0934143 5
      vertex 19.1232 0 0
      vertex 21.8899 0.0934143 0
    endloop
  endfacet
  facet normal 1 -0 0
    outer loop
      vertex 12.0436 6.7 5
      vertex 12.0436 33.0384 0
      vertex 12.0436 33.0384 5
    endloop
  endfacet
  facet normal 1 0 0
    outer loop
      vertex 12.0436 33.0384 0
      vertex 12.0436 6.7 5
      vertex 12.0436 6.7 0
    endloop
  endfacet
  facet normal 0 -1 0
    outer loop
      vertex 12.0436 33.0384 0
      vertex 15.6512 33.0384 5
      vertex 12.0436 33.0384 5
    endloop
  endfacet
  facet normal 0 -1 -0
    outer loop
      vertex 15.6512 33.0384 5
      vertex 12.0436 33.0384 0
      vertex 15.6512 33.0384 0
    endloop
  endfacet
  facet normal -0.0144783 -0.999895 0
    outer loop
      vertex 15.6512 33.0384 0
      vertex 18.5656 32.9962 5
      vertex 15.6512 33.0384 5
    endloop
  endfacet
  facet normal -0.0144783 -0.999895 -0
    outer loop
      vertex 18.5656 32.9962 5
      vertex 15.6512 33.0384 0
      vertex 18.5656 32.9962 0
    endloop
  endfacet
  facet normal -0.0575713 -0.998341 0
    outer loop
      vertex 18.5656 32.9962 0
      vertex 20.7627 32.8695 5
      vertex 18.5656 32.9962 5
    endloop
  endfacet
  facet normal -0.0575713 -0.998341 -0
    outer loop
      vertex 20.7627 32.8695 5
      vertex 18.5656 32.9962 0
      vertex 20.7627 32.8695 0
    endloop
  endfacet
  facet normal -0.141234 -0.989976 0
    outer loop
      vertex 20.7627 32.8695 0
      vertex 22.2424 32.6584 5
      vertex 20.7627 32.8695 5
    endloop
  endfacet
  facet normal -0.141234 -0.989976 -0
    outer loop
      vertex 22.2424 32.6584 5
      vertex 20.7627 32.8695 0
      vertex 22.2424 32.6584 0
    endloop
  endfacet
  facet normal -0.287795 -0.957692 0
    outer loop
      vertex 22.2424 32.6584 0
      vertex 23.656 32.2336 5
      vertex 22.2424 32.6584 5
    endloop
  endfacet
  facet normal -0.287795 -0.957692 -0
    outer loop
      vertex 23.656 32.2336 5
      vertex 22.2424 32.6584 0
      vertex 23.656 32.2336 0
    endloop
  endfacet
  facet normal -0.449836 -0.893111 0
    outer loop
      vertex 23.656 32.2336 0
      vertex 24.8947 31.6097 5
      vertex 23.656 32.2336 5
    endloop
  endfacet
  facet normal -0.449836 -0.893111 -0
    outer loop
      vertex 24.8947 31.6097 5
      vertex 23.656 32.2336 0
      vertex 24.8947 31.6097 0
    endloop
  endfacet
  facet normal -0.61189 -0.790943 0
    outer loop
      vertex 24.8947 31.6097 0
      vertex 25.9584 30.7868 5
      vertex 24.8947 31.6097 5
    endloop
  endfacet
  facet normal -0.61189 -0.790943 -0
    outer loop
      vertex 25.9584 30.7868 5
      vertex 24.8947 31.6097 0
      vertex 25.9584 30.7868 0
    endloop
  endfacet
  facet normal -0.7555 -0.655148 0
    outer loop
      vertex 26.8626 29.7441 0
      vertex 25.9584 30.7868 5
      vertex 25.9584 30.7868 0
    endloop
  endfacet
  facet normal -0.7555 -0.655148 0
    outer loop
      vertex 25.9584 30.7868 5
      vertex 26.8626 29.7441 0
      vertex 26.8626 29.7441 5
    endloop
  endfacet
  facet normal -0.860712 -0.509093 0
    outer loop
      vertex 27.622 28.4602 0
      vertex 26.8626 29.7441 5
      vertex 26.8626 29.7441 0
    endloop
  endfacet
  facet normal -0.860712 -0.509093 0
    outer loop
      vertex 26.8626 29.7441 5
      vertex 27.622 28.4602 0
      vertex 27.622 28.4602 5
    endloop
  endfacet
  facet normal -0.927467 -0.373906 0
    outer loop
      vertex 28.2368 26.9352 0
      vertex 27.622 28.4602 5
      vertex 27.622 28.4602 0
    endloop
  endfacet
  facet normal -0.927467 -0.373906 0
    outer loop
      vertex 27.622 28.4602 5
      vertex 28.2368 26.9352 0
      vertex 28.2368 26.9352 5
    endloop
  endfacet
  facet normal -0.972374 -0.233428 0
    outer loop
      vertex 28.689 25.0515 0
      vertex 28.2368 26.9352 5
      vertex 28.2368 26.9352 0
    endloop
  endfacet
  facet normal -0.972374 -0.233428 0
    outer loop
      vertex 28.2368 26.9352 5
      vertex 28.689 25.0515 0
      vertex 28.689 25.0515 5
    endloop
  endfacet
  facet normal -0.993457 -0.11421 0
    outer loop
      vertex 28.9603 22.6916 0
      vertex 28.689 25.0515 5
      vertex 28.689 25.0515 0
    endloop
  endfacet
  facet normal -0.993457 -0.11421 0
    outer loop
      vertex 28.689 25.0515 5
      vertex 28.9603 22.6916 0
      vertex 28.9603 22.6916 5
    endloop
  endfacet
  facet normal -0.999491 -0.0318949 0
    outer loop
      vertex 29.0508 19.8556 0
      vertex 28.9603 22.6916 5
      vertex 28.9603 22.6916 0
    endloop
  endfacet
  facet normal -0.999491 -0.0318949 0
    outer loop
      vertex 28.9603 22.6916 5
      vertex 29.0508 19.8556 0
      vertex 29.0508 19.8556 5
    endloop
  endfacet
  facet normal -0.999499 0.0316419 0
    outer loop
      vertex 28.9603 16.9969 0
      vertex 29.0508 19.8556 5
      vertex 29.0508 19.8556 0
    endloop
  endfacet
  facet normal -0.999499 0.0316419 0
    outer loop
      vertex 29.0508 19.8556 5
      vertex 28.9603 16.9969 0
      vertex 28.9603 16.9969 5
    endloop
  endfacet
  facet normal -0.993814 0.111061 0
    outer loop
      vertex 28.689 14.5692 0
      vertex 28.9603 16.9969 5
      vertex 28.9603 16.9969 0
    endloop
  endfacet
  facet normal -0.993814 0.111061 0
    outer loop
      vertex 28.9603 16.9969 5
      vertex 28.689 14.5692 0
      vertex 28.689 14.5692 5
    endloop
  endfacet
  facet normal -0.975303 0.220869 0
    outer loop
      vertex 28.2368 12.5724 0
      vertex 28.689 14.5692 5
      vertex 28.689 14.5692 0
    endloop
  endfacet
  facet normal -0.975303 0.220869 0
    outer loop
      vertex 28.689 14.5692 5
      vertex 28.2368 12.5724 0
      vertex 28.2368 12.5724 5
    endloop
  endfacet
  facet normal -0.938222 0.346034 0
    outer loop
      vertex 27.6416 10.9586 0
      vertex 28.2368 12.5724 5
      vertex 28.2368 12.5724 0
    endloop
  endfacet
  facet normal -0.938222 0.346034 0
    outer loop
      vertex 28.2368 12.5724 5
      vertex 27.6416 10.9586 0
      vertex 27.6416 10.9586 5
    endloop
  endfacet
  facet normal -0.877098 0.480311 0
    outer loop
      vertex 26.941 9.67923 0
      vertex 27.6416 10.9586 5
      vertex 27.6416 10.9586 0
    endloop
  endfacet
  facet normal -0.877098 0.480311 0
    outer loop
      vertex 27.6416 10.9586 5
      vertex 26.941 9.67923 0
      vertex 26.941 9.67923 5
    endloop
  endfacet
  facet normal -0.760712 0.64909 0
    outer loop
      vertex 26.1348 8.73439 0
      vertex 26.941 9.67923 5
      vertex 26.941 9.67923 0
    endloop
  endfacet
  facet normal -0.760712 0.64909 0
    outer loop
      vertex 26.941 9.67923 5
      vertex 26.1348 8.73439 0
      vertex 26.1348 8.73439 5
    endloop
  endfacet
  facet normal -0.601463 0.798901 0
    outer loop
      vertex 26.1348 8.73439 0
      vertex 25.202 8.03212 5
      vertex 26.1348 8.73439 5
    endloop
  endfacet
  facet normal -0.601463 0.798901 0
    outer loop
      vertex 25.202 8.03212 5
      vertex 26.1348 8.73439 0
      vertex 25.202 8.03212 0
    endloop
  endfacet
  facet normal -0.454709 0.89064 0
    outer loop
      vertex 25.202 8.03212 0
      vertex 24.1216 7.48053 5
      vertex 25.202 8.03212 5
    endloop
  endfacet
  facet normal -0.454709 0.89064 0
    outer loop
      vertex 24.1216 7.48053 5
      vertex 25.202 8.03212 0
      vertex 24.1216 7.48053 0
    endloop
  endfacet
  facet normal -0.310374 0.950614 0
    outer loop
      vertex 24.1216 7.48053 0
      vertex 22.8936 7.07959 5
      vertex 24.1216 7.48053 5
    endloop
  endfacet
  facet normal -0.310374 0.950614 0
    outer loop
      vertex 22.8936 7.07959 5
      vertex 24.1216 7.48053 0
      vertex 22.8936 7.07959 0
    endloop
  endfacet
  facet normal -0.172726 0.98497 0
    outer loop
      vertex 22.8936 7.07959 0
      vertex 21.691 6.8687 5
      vertex 22.8936 7.07959 5
    endloop
  endfacet
  facet normal -0.172726 0.98497 0
    outer loop
      vertex 21.691 6.8687 5
      vertex 22.8936 7.07959 0
      vertex 21.691 6.8687 0
    endloop
  endfacet
  facet normal -0.0779347 0.996958 0
    outer loop
      vertex 21.691 6.8687 0
      vertex 20.0724 6.74217 5
      vertex 21.691 6.8687 5
    endloop
  endfacet
  facet normal -0.0779347 0.996958 0
    outer loop
      vertex 20.0724 6.74217 5
      vertex 21.691 6.8687 0
      vertex 20.0724 6.74217 0
    endloop
  endfacet
  facet normal -0.020724 0.999785 0
    outer loop
      vertex 20.0724 6.74217 0
      vertex 18.038 6.7 5
      vertex 20.0724 6.74217 5
    endloop
  endfacet
  facet normal -0.020724 0.999785 0
    outer loop
      vertex 18.038 6.7 5
      vertex 20.0724 6.74217 0
      vertex 18.038 6.7 0
    endloop
  endfacet
  facet normal 0 1 -0
    outer loop
      vertex 18.038 6.7 0
      vertex 12.0436 6.7 5
      vertex 18.038 6.7 5
    endloop
  endfacet
  facet normal 0 1 0
    outer loop
      vertex 12.0436 6.7 5
      vertex 18.038 6.7 0
      vertex 12.0436 6.7 0
    endloop
  endfacet
  facet normal -0.999493 -0.031831 0
    outer loop
      vertex 19.337 36.554 0
      vertex 19.335 36.6168 2
      vertex 19.335 36.6168 0
    endloop
  endfacet
  facet normal -0.999493 -0.031831 0
    outer loop
      vertex 19.335 36.6168 2
      vertex 19.337 36.554 0
      vertex 19.337 36.554 2
    endloop
  endfacet
  facet normal 0.999493 0.031831 0
    outer loop
      vertex 17.339 36.4912 2
      vertex 17.337 36.554 0
      vertex 17.337 36.554 2
    endloop
  endfacet
  facet normal 0.999493 0.031831 0
    outer loop
      vertex 17.337 36.554 0
      vertex 17.339 36.4912 2
      vertex 17.339 36.4912 0
    endloop
  endfacet
  facet normal 0.031831 -0.999493 0
    outer loop
      vertex 18.2742 37.552 0
      vertex 18.337 37.554 2
      vertex 18.2742 37.552 2
    endloop
  endfacet
  facet normal 0.031831 -0.999493 0
    outer loop
      vertex 18.337 37.554 2
      vertex 18.2742 37.552 0
      vertex 18.337 37.554 0
    endloop
  endfacet
  facet normal -0.031831 0.999493 0
    outer loop
      vertex 18.3998 35.556 0
      vertex 18.337 35.554 2
      vertex 18.3998 35.556 2
    endloop
  endfacet
  facet normal -0.031831 0.999493 0
    outer loop
      vertex 18.337 35.554 2
      vertex 18.3998 35.556 0
      vertex 18.337 35.554 0
    endloop
  endfacet
  facet normal 0.661095 0.750303 -0
    outer loop
      vertex 17.6996 35.7835 0
      vertex 17.6525 35.825 2
      vertex 17.6996 35.7835 2
    endloop
  endfacet
  facet normal 0.661095 0.750303 0
    outer loop
      vertex 17.6525 35.825 2
      vertex 17.6996 35.7835 0
      vertex 17.6525 35.825 0
    endloop
  endfacet
  facet normal -0.707107 -0.707107 0
    outer loop
      vertex 19.0215 37.283 0
      vertex 19.066 37.2385 2
      vertex 19.0215 37.283 2
    endloop
  endfacet
  facet normal -0.707107 -0.707107 -0
    outer loop
      vertex 19.066 37.2385 2
      vertex 19.0215 37.283 0
      vertex 19.066 37.2385 0
    endloop
  endfacet
  facet normal 0.750303 -0.661095 0
    outer loop
      vertex 17.5665 37.1914 2
      vertex 17.608 37.2385 0
      vertex 17.608 37.2385 2
    endloop
  endfacet
  facet normal 0.750303 -0.661095 0
    outer loop
      vertex 17.608 37.2385 0
      vertex 17.5665 37.1914 2
      vertex 17.5665 37.1914 0
    endloop
  endfacet
  facet normal 0.453568 -0.891222 0
    outer loop
      vertex 17.8552 37.4303 0
      vertex 17.9112 37.4588 2
      vertex 17.8552 37.4303 2
    endloop
  endfacet
  facet normal 0.453568 -0.891222 0
    outer loop
      vertex 17.9112 37.4588 2
      vertex 17.8552 37.4303 0
      vertex 17.9112 37.4588 0
    endloop
  endfacet
  facet normal -0.917575 -0.397563 0
    outer loop
      vertex 19.2668 36.9221 0
      vertex 19.2418 36.9798 2
      vertex 19.2418 36.9798 0
    endloop
  endfacet
  facet normal -0.917575 -0.397563 0
    outer loop
      vertex 19.2418 36.9798 2
      vertex 19.2668 36.9221 0
      vertex 19.2668 36.9221 2
    endloop
  endfacet
  facet normal -0.339058 -0.940766 0
    outer loop
      vertex 18.646 37.5051 0
      vertex 18.7051 37.4838 2
      vertex 18.646 37.5051 2
    endloop
  endfacet
  facet normal -0.339058 -0.940766 -0
    outer loop
      vertex 18.7051 37.4838 2
      vertex 18.646 37.5051 0
      vertex 18.7051 37.4838 0
    endloop
  endfacet
  facet normal -0.561657 -0.82737 0
    outer loop
      vertex 18.8728 37.3983 0
      vertex 18.9248 37.363 2
      vertex 18.8728 37.3983 2
    endloop
  endfacet
  facet normal -0.561657 -0.82737 -0
    outer loop
      vertex 18.9248 37.363 2
      vertex 18.8728 37.3983 0
      vertex 18.9248 37.363 0
    endloop
  endfacet
  facet normal 0.940766 -0.339058 0
    outer loop
      vertex 17.3859 36.863 2
      vertex 17.4072 36.9221 0
      vertex 17.4072 36.9221 2
    endloop
  endfacet
  facet normal 0.940766 -0.339058 0
    outer loop
      vertex 17.4072 36.9221 0
      vertex 17.3859 36.863 2
      vertex 17.3859 36.863 0
    endloop
  endfacet
  facet normal 0.21811 -0.975924 0
    outer loop
      vertex 18.0883 37.5226 0
      vertex 18.1496 37.5363 2
      vertex 18.0883 37.5226 2
    endloop
  endfacet
  facet normal 0.21811 -0.975924 0
    outer loop
      vertex 18.1496 37.5363 2
      vertex 18.0883 37.5226 0
      vertex 18.1496 37.5363 0
    endloop
  endfacet
  facet normal 0.707107 0.707107 0
    outer loop
      vertex 17.6525 35.825 2
      vertex 17.608 35.8695 0
      vertex 17.608 35.8695 2
    endloop
  endfacet
  facet normal 0.707107 0.707107 0
    outer loop
      vertex 17.608 35.8695 0
      vertex 17.6525 35.825 2
      vertex 17.6525 35.825 0
    endloop
  endfacet
  facet normal 0.987776 0.155881 0
    outer loop
      vertex 17.3547 36.3666 2
      vertex 17.3449 36.4287 0
      vertex 17.3449 36.4287 2
    endloop
  endfacet
  facet normal 0.987776 0.155881 0
    outer loop
      vertex 17.3449 36.4287 0
      vertex 17.3547 36.3666 2
      vertex 17.3547 36.3666 0
    endloop
  endfacet
  facet normal -0.987776 -0.155881 0
    outer loop
      vertex 19.3291 36.6793 0
      vertex 19.3193 36.7414 2
      vertex 19.3193 36.7414 0
    endloop
  endfacet
  facet normal -0.987776 -0.155881 0
    outer loop
      vertex 19.3193 36.7414 2
      vertex 19.3291 36.6793 0
      vertex 19.3291 36.6793 2
    endloop
  endfacet
  facet normal -0.995574 -0.0939822 0
    outer loop
      vertex 19.335 36.6168 0
      vertex 19.3291 36.6793 2
      vertex 19.3291 36.6793 0
    endloop
  endfacet
  facet normal -0.995574 -0.0939822 0
    outer loop
      vertex 19.3291 36.6793 2
      vertex 19.335 36.6168 0
      vertex 19.335 36.6168 2
    endloop
  endfacet
  facet normal -0.960374 -0.278715 0
    outer loop
      vertex 19.3056 36.8027 0
      vertex 19.2881 36.863 2
      vertex 19.2881 36.863 0
    endloop
  endfacet
  facet normal -0.960374 -0.278715 0
    outer loop
      vertex 19.2881 36.863 2
      vertex 19.3056 36.8027 0
      vertex 19.3056 36.8027 2
    endloop
  endfacet
  facet normal -0.82737 -0.561657 0
    outer loop
      vertex 19.1813 37.0898 0
      vertex 19.146 37.1418 2
      vertex 19.146 37.1418 0
    endloop
  endfacet
  facet normal -0.82737 -0.561657 0
    outer loop
      vertex 19.146 37.1418 2
      vertex 19.1813 37.0898 0
      vertex 19.1813 37.0898 2
    endloop
  endfacet
  facet normal -0.750303 -0.661095 0
    outer loop
      vertex 19.1075 37.1914 0
      vertex 19.066 37.2385 2
      vertex 19.066 37.2385 0
    endloop
  endfacet
  facet normal -0.750303 -0.661095 0
    outer loop
      vertex 19.066 37.2385 2
      vertex 19.1075 37.1914 0
      vertex 19.1075 37.1914 2
    endloop
  endfacet
  facet normal -0.860292 -0.509802 0
    outer loop
      vertex 19.2133 37.0358 0
      vertex 19.1813 37.0898 2
      vertex 19.1813 37.0898 0
    endloop
  endfacet
  facet normal -0.860292 -0.509802 0
    outer loop
      vertex 19.1813 37.0898 2
      vertex 19.2133 37.0358 0
      vertex 19.2133 37.0358 2
    endloop
  endfacet
  facet normal -0.21811 -0.975924 0
    outer loop
      vertex 18.5244 37.5363 0
      vertex 18.5857 37.5226 2
      vertex 18.5244 37.5363 2
    endloop
  endfacet
  facet normal -0.21811 -0.975924 -0
    outer loop
      vertex 18.5857 37.5226 2
      vertex 18.5244 37.5363 0
      vertex 18.5857 37.5226 0
    endloop
  endfacet
  facet normal -0.278715 -0.960374 0
    outer loop
      vertex 18.5857 37.5226 0
      vertex 18.646 37.5051 2
      vertex 18.5857 37.5226 2
    endloop
  endfacet
  facet normal -0.278715 -0.960374 -0
    outer loop
      vertex 18.646 37.5051 2
      vertex 18.5857 37.5226 0
      vertex 18.646 37.5051 0
    endloop
  endfacet
  facet normal -0.661095 -0.750303 0
    outer loop
      vertex 18.9744 37.3245 0
      vertex 19.0215 37.283 2
      vertex 18.9744 37.3245 2
    endloop
  endfacet
  facet normal -0.661095 -0.750303 -0
    outer loop
      vertex 19.0215 37.283 2
      vertex 18.9744 37.3245 0
      vertex 19.0215 37.283 0
    endloop
  endfacet
  facet normal 0.987776 -0.155881 0
    outer loop
      vertex 17.3449 36.6793 2
      vertex 17.3547 36.7414 0
      vertex 17.3547 36.7414 2
    endloop
  endfacet
  facet normal 0.987776 -0.155881 0
    outer loop
      vertex 17.3547 36.7414 0
      vertex 17.3449 36.6793 2
      vertex 17.3449 36.6793 0
    endloop
  endfacet
  facet normal 0.82737 -0.561657 0
    outer loop
      vertex 17.4927 37.0898 2
      vertex 17.528 37.1418 0
      vertex 17.528 37.1418 2
    endloop
  endfacet
  facet normal 0.82737 -0.561657 0
    outer loop
      vertex 17.528 37.1418 0
      vertex 17.4927 37.0898 2
      vertex 17.4927 37.0898 0
    endloop
  endfacet
  facet normal 0.789952 -0.613168 0
    outer loop
      vertex 17.528 37.1418 2
      vertex 17.5665 37.1914 0
      vertex 17.5665 37.1914 2
    endloop
  endfacet
  facet normal 0.789952 -0.613168 0
    outer loop
      vertex 17.5665 37.1914 0
      vertex 17.528 37.1418 2
      vertex 17.528 37.1418 0
    endloop
  endfacet
  facet normal 0.975924 -0.21811 0
    outer loop
      vertex 17.3547 36.7414 2
      vertex 17.3684 36.8027 0
      vertex 17.3684 36.8027 2
    endloop
  endfacet
  facet normal 0.975924 -0.21811 0
    outer loop
      vertex 17.3684 36.8027 0
      vertex 17.3547 36.7414 2
      vertex 17.3547 36.7414 0
    endloop
  endfacet
  facet normal 0.995574 -0.0939822 0
    outer loop
      vertex 17.339 36.6168 2
      vertex 17.3449 36.6793 0
      vertex 17.3449 36.6793 2
    endloop
  endfacet
  facet normal 0.995574 -0.0939822 0
    outer loop
      vertex 17.3449 36.6793 0
      vertex 17.339 36.6168 2
      vertex 17.339 36.6168 0
    endloop
  endfacet
  facet normal 0.561657 -0.82737 0
    outer loop
      vertex 17.7492 37.363 0
      vertex 17.8012 37.3983 2
      vertex 17.7492 37.363 2
    endloop
  endfacet
  facet normal 0.561657 -0.82737 0
    outer loop
      vertex 17.8012 37.3983 2
      vertex 17.7492 37.363 0
      vertex 17.8012 37.3983 0
    endloop
  endfacet
  facet normal 0.509802 -0.860292 0
    outer loop
      vertex 17.8012 37.3983 0
      vertex 17.8552 37.4303 2
      vertex 17.8012 37.3983 2
    endloop
  endfacet
  facet normal 0.509802 -0.860292 0
    outer loop
      vertex 17.8552 37.4303 2
      vertex 17.8012 37.3983 0
      vertex 17.8552 37.4303 0
    endloop
  endfacet
  facet normal 0.661095 -0.750303 0
    outer loop
      vertex 17.6525 37.283 0
      vertex 17.6996 37.3245 2
      vertex 17.6525 37.283 2
    endloop
  endfacet
  facet normal 0.661095 -0.750303 0
    outer loop
      vertex 17.6996 37.3245 2
      vertex 17.6525 37.283 0
      vertex 17.6996 37.3245 0
    endloop
  endfacet
  facet normal 0.0939822 -0.995574 0
    outer loop
      vertex 18.2117 37.5461 0
      vertex 18.2742 37.552 2
      vertex 18.2117 37.5461 2
    endloop
  endfacet
  facet normal 0.0939822 -0.995574 0
    outer loop
      vertex 18.2742 37.552 2
      vertex 18.2117 37.5461 0
      vertex 18.2742 37.552 0
    endloop
  endfacet
  facet normal -0.155881 0.987776 0
    outer loop
      vertex 18.5244 35.5717 0
      vertex 18.4623 35.5619 2
      vertex 18.5244 35.5717 2
    endloop
  endfacet
  facet normal -0.155881 0.987776 0
    outer loop
      vertex 18.4623 35.5619 2
      vertex 18.5244 35.5717 0
      vertex 18.4623 35.5619 0
    endloop
  endfacet
  facet normal -0.0939822 0.995574 0
    outer loop
      vertex 18.4623 35.5619 0
      vertex 18.3998 35.556 2
      vertex 18.4623 35.5619 2
    endloop
  endfacet
  facet normal -0.0939822 0.995574 0
    outer loop
      vertex 18.3998 35.556 2
      vertex 18.4623 35.5619 0
      vertex 18.3998 35.556 0
    endloop
  endfacet
  facet normal -0.613168 0.789952 0
    outer loop
      vertex 18.9744 35.7835 0
      vertex 18.9248 35.745 2
      vertex 18.9744 35.7835 2
    endloop
  endfacet
  facet normal -0.613168 0.789952 0
    outer loop
      vertex 18.9248 35.745 2
      vertex 18.9744 35.7835 0
      vertex 18.9248 35.745 0
    endloop
  endfacet
  facet normal -0.707107 0.707107 0
    outer loop
      vertex 19.0215 35.825 0
      vertex 19.066 35.8695 2
      vertex 19.066 35.8695 0
    endloop
  endfacet
  facet normal -0.707107 0.707107 0
    outer loop
      vertex 19.066 35.8695 2
      vertex 19.0215 35.825 0
      vertex 19.0215 35.825 2
    endloop
  endfacet
  facet normal -0.561657 0.82737 0
    outer loop
      vertex 18.9248 35.745 0
      vertex 18.8728 35.7097 2
      vertex 18.9248 35.745 2
    endloop
  endfacet
  facet normal -0.561657 0.82737 0
    outer loop
      vertex 18.8728 35.7097 2
      vertex 18.9248 35.745 0
      vertex 18.8728 35.7097 0
    endloop
  endfacet
  facet normal -0.453568 0.891222 0
    outer loop
      vertex 18.8188 35.6777 0
      vertex 18.7628 35.6492 2
      vertex 18.8188 35.6777 2
    endloop
  endfacet
  facet normal -0.453568 0.891222 0
    outer loop
      vertex 18.7628 35.6492 2
      vertex 18.8188 35.6777 0
      vertex 18.7628 35.6492 0
    endloop
  endfacet
  facet normal -0.789952 0.613168 0
    outer loop
      vertex 19.1075 35.9166 0
      vertex 19.146 35.9662 2
      vertex 19.146 35.9662 0
    endloop
  endfacet
  facet normal -0.789952 0.613168 0
    outer loop
      vertex 19.146 35.9662 2
      vertex 19.1075 35.9166 0
      vertex 19.1075 35.9166 2
    endloop
  endfacet
  facet normal -0.750303 0.661095 0
    outer loop
      vertex 19.066 35.8695 0
      vertex 19.1075 35.9166 2
      vertex 19.1075 35.9166 0
    endloop
  endfacet
  facet normal -0.750303 0.661095 0
    outer loop
      vertex 19.1075 35.9166 2
      vertex 19.066 35.8695 0
      vertex 19.066 35.8695 2
    endloop
  endfacet
  facet normal -0.940766 0.339058 0
    outer loop
      vertex 19.2668 36.1859 0
      vertex 19.2881 36.245 2
      vertex 19.2881 36.245 0
    endloop
  endfacet
  facet normal -0.940766 0.339058 0
    outer loop
      vertex 19.2881 36.245 2
      vertex 19.2668 36.1859 0
      vertex 19.2668 36.1859 2
    endloop
  endfacet
  facet normal 0.561657 0.82737 -0
    outer loop
      vertex 17.8012 35.7097 0
      vertex 17.7492 35.745 2
      vertex 17.8012 35.7097 2
    endloop
  endfacet
  facet normal 0.561657 0.82737 0
    outer loop
      vertex 17.7492 35.745 2
      vertex 17.8012 35.7097 0
      vertex 17.7492 35.745 0
    endloop
  endfacet
  facet normal 0.613168 0.789952 -0
    outer loop
      vertex 17.7492 35.745 0
      vertex 17.6996 35.7835 2
      vertex 17.7492 35.745 2
    endloop
  endfacet
  facet normal 0.613168 0.789952 0
    outer loop
      vertex 17.6996 35.7835 2
      vertex 17.7492 35.745 0
      vertex 17.6996 35.7835 0
    endloop
  endfacet
  facet normal 0.0939822 0.995574 -0
    outer loop
      vertex 18.2742 35.556 0
      vertex 18.2117 35.5619 2
      vertex 18.2742 35.556 2
    endloop
  endfacet
  facet normal 0.0939822 0.995574 0
    outer loop
      vertex 18.2117 35.5619 2
      vertex 18.2742 35.556 0
      vertex 18.2117 35.5619 0
    endloop
  endfacet
  facet normal 0.789952 0.613168 0
    outer loop
      vertex 17.5665 35.9166 2
      vertex 17.528 35.9662 0
      vertex 17.528 35.9662 2
    endloop
  endfacet
  facet normal 0.789952 0.613168 0
    outer loop
      vertex 17.528 35.9662 0
      vertex 17.5665 35.9166 2
      vertex 17.5665 35.9166 0
    endloop
  endfacet
  facet normal 0.750303 0.661095 0
    outer loop
      vertex 17.608 35.8695 2
      vertex 17.5665 35.9166 0
      vertex 17.5665 35.9166 2
    endloop
  endfacet
  facet normal 0.750303 0.661095 0
    outer loop
      vertex 17.5665 35.9166 0
      vertex 17.608 35.8695 2
      vertex 17.608 35.8695 0
    endloop
  endfacet
  facet normal 0.891222 0.453568 0
    outer loop
      vertex 17.4607 36.0722 2
      vertex 17.4322 36.1282 0
      vertex 17.4322 36.1282 2
    endloop
  endfacet
  facet normal 0.891222 0.453568 0
    outer loop
      vertex 17.4322 36.1282 0
      vertex 17.4607 36.0722 2
      vertex 17.4607 36.0722 0
    endloop
  endfacet
  facet normal 0.917575 0.397563 0
    outer loop
      vertex 17.4322 36.1282 2
      vertex 17.4072 36.1859 0
      vertex 17.4072 36.1859 2
    endloop
  endfacet
  facet normal 0.917575 0.397563 0
    outer loop
      vertex 17.4072 36.1859 0
      vertex 17.4322 36.1282 2
      vertex 17.4322 36.1282 0
    endloop
  endfacet
  facet normal 0.995574 0.0939822 0
    outer loop
      vertex 17.3449 36.4287 2
      vertex 17.339 36.4912 0
      vertex 17.339 36.4912 2
    endloop
  endfacet
  facet normal 0.995574 0.0939822 0
    outer loop
      vertex 17.339 36.4912 0
      vertex 17.3449 36.4287 2
      vertex 17.3449 36.4287 0
    endloop
  endfacet
  facet normal -0.975924 -0.21811 0
    outer loop
      vertex 19.3193 36.7414 0
      vertex 19.3056 36.8027 2
      vertex 19.3056 36.8027 0
    endloop
  endfacet
  facet normal -0.975924 -0.21811 0
    outer loop
      vertex 19.3056 36.8027 2
      vertex 19.3193 36.7414 0
      vertex 19.3193 36.7414 2
    endloop
  endfacet
  facet normal -0.789952 -0.613168 0
    outer loop
      vertex 19.146 37.1418 0
      vertex 19.1075 37.1914 2
      vertex 19.1075 37.1914 0
    endloop
  endfacet
  facet normal -0.789952 -0.613168 0
    outer loop
      vertex 19.1075 37.1914 2
      vertex 19.146 37.1418 0
      vertex 19.146 37.1418 2
    endloop
  endfacet
  facet normal -0.891222 -0.453568 0
    outer loop
      vertex 19.2418 36.9798 0
      vertex 19.2133 37.0358 2
      vertex 19.2133 37.0358 0
    endloop
  endfacet
  facet normal -0.891222 -0.453568 0
    outer loop
      vertex 19.2133 37.0358 2
      vertex 19.2418 36.9798 0
      vertex 19.2418 36.9798 2
    endloop
  endfacet
  facet normal -0.155881 -0.987776 0
    outer loop
      vertex 18.4623 37.5461 0
      vertex 18.5244 37.5363 2
      vertex 18.4623 37.5461 2
    endloop
  endfacet
  facet normal -0.155881 -0.987776 -0
    outer loop
      vertex 18.5244 37.5363 2
      vertex 18.4623 37.5461 0
      vertex 18.5244 37.5363 0
    endloop
  endfacet
  facet normal -0.0939822 -0.995574 0
    outer loop
      vertex 18.3998 37.552 0
      vertex 18.4623 37.5461 2
      vertex 18.3998 37.552 2
    endloop
  endfacet
  facet normal -0.0939822 -0.995574 -0
    outer loop
      vertex 18.4623 37.5461 2
      vertex 18.3998 37.552 0
      vertex 18.4623 37.5461 0
    endloop
  endfacet
  facet normal -0.031831 -0.999493 0
    outer loop
      vertex 18.337 37.554 0
      vertex 18.3998 37.552 2
      vertex 18.337 37.554 2
    endloop
  endfacet
  facet normal -0.031831 -0.999493 -0
    outer loop
      vertex 18.3998 37.552 2
      vertex 18.337 37.554 0
      vertex 18.3998 37.552 0
    endloop
  endfacet
  facet normal -0.509802 -0.860292 0
    outer loop
      vertex 18.8188 37.4303 0
      vertex 18.8728 37.3983 2
      vertex 18.8188 37.4303 2
    endloop
  endfacet
  facet normal -0.509802 -0.860292 -0
    outer loop
      vertex 18.8728 37.3983 2
      vertex 18.8188 37.4303 0
      vertex 18.8728 37.3983 0
    endloop
  endfacet
  facet normal -0.453568 -0.891222 0
    outer loop
      vertex 18.7628 37.4588 0
      vertex 18.8188 37.4303 2
      vertex 18.7628 37.4588 2
    endloop
  endfacet
  facet normal -0.453568 -0.891222 -0
    outer loop
      vertex 18.8188 37.4303 2
      vertex 18.7628 37.4588 0
      vertex 18.8188 37.4303 0
    endloop
  endfacet
  facet normal 0.860292 -0.509802 0
    outer loop
      vertex 17.4607 37.0358 2
      vertex 17.4927 37.0898 0
      vertex 17.4927 37.0898 2
    endloop
  endfacet
  facet normal 0.860292 -0.509802 0
    outer loop
      vertex 17.4927 37.0898 0
      vertex 17.4607 37.0358 2
      vertex 17.4607 37.0358 0
    endloop
  endfacet
  facet normal 0.891222 -0.453568 0
    outer loop
      vertex 17.4322 36.9798 2
      vertex 17.4607 37.0358 0
      vertex 17.4607 37.0358 2
    endloop
  endfacet
  facet normal 0.891222 -0.453568 0
    outer loop
      vertex 17.4607 37.0358 0
      vertex 17.4322 36.9798 2
      vertex 17.4322 36.9798 0
    endloop
  endfacet
  facet normal 0.917575 -0.397563 0
    outer loop
      vertex 17.4072 36.9221 2
      vertex 17.4322 36.9798 0
      vertex 17.4322 36.9798 2
    endloop
  endfacet
  facet normal 0.917575 -0.397563 0
    outer loop
      vertex 17.4322 36.9798 0
      vertex 17.4072 36.9221 2
      vertex 17.4072 36.9221 0
    endloop
  endfacet
  facet normal 0.960374 -0.278715 0
    outer loop
      vertex 17.3684 36.8027 2
      vertex 17.3859 36.863 0
      vertex 17.3859 36.863 2
    endloop
  endfacet
  facet normal 0.960374 -0.278715 0
    outer loop
      vertex 17.3859 36.863 0
      vertex 17.3684 36.8027 2
      vertex 17.3684 36.8027 0
    endloop
  endfacet
  facet normal 0.999493 -0.031831 0
    outer loop
      vertex 17.337 36.554 2
      vertex 17.339 36.6168 0
      vertex 17.339 36.6168 2
    endloop
  endfacet
  facet normal 0.999493 -0.031831 0
    outer loop
      vertex 17.339 36.6168 0
      vertex 17.337 36.554 2
      vertex 17.337 36.554 0
    endloop
  endfacet
  facet normal 0 0 -1
    outer loop
      vertex 19.335 36.4912 2
      vertex 19.335 36.6168 2
      vertex 19.337 36.554 2
    endloop
  endfacet
  facet normal 0 0 -1
    outer loop
      vertex 19.3291 36.4287 2
      vertex 19.335 36.6168 2
      vertex 19.335 36.4912 2
    endloop
  endfacet
  facet normal 0 0 -1
    outer loop
      vertex 19.3291 36.4287 2
      vertex 19.3291 36.6793 2
      vertex 19.335 36.6168 2
    endloop
  endfacet
  facet normal 0 0 -1
    outer loop
      vertex 19.3193 36.3666 2
      vertex 19.3291 36.6793 2
      vertex 19.3291 36.4287 2
    endloop
  endfacet
  facet normal 0 0 -1
    outer loop
      vertex 19.3193 36.3666 2
      vertex 19.3193 36.7414 2
      vertex 19.3291 36.6793 2
    endloop
  endfacet
  facet normal 0 0 -1
    outer loop
      vertex 19.3056 36.3053 2
      vertex 19.3193 36.7414 2
      vertex 19.3193 36.3666 2
    endloop
  endfacet
  facet normal 0 0 -1
    outer loop
      vertex 19.3056 36.3053 2
      vertex 19.3056 36.8027 2
      vertex 19.3193 36.7414 2
    endloop
  endfacet
  facet normal 0 0 -1
    outer loop
      vertex 19.2881 36.245 2
      vertex 19.3056 36.8027 2
      vertex 19.3056 36.3053 2
    endloop
  endfacet
  facet normal 0 0 -1
    outer loop
      vertex 19.2881 36.245 2
      vertex 19.2881 36.863 2
      vertex 19.3056 36.8027 2
    endloop
  endfacet
  facet normal 0 0 -1
    outer loop
      vertex 19.2668 36.1859 2
      vertex 19.2881 36.863 2
      vertex 19.2881 36.245 2
    endloop
  endfacet
  facet normal 0 0 -1
    outer loop
      vertex 19.2668 36.1859 2
      vertex 19.2668 36.9221 2
      vertex 19.2881 36.863 2
    endloop
  endfacet
  facet normal 0 0 -1
    outer loop
      vertex 19.2418 36.1282 2
      vertex 19.2668 36.9221 2
      vertex 19.2668 36.1859 2
    endloop
  endfacet
  facet normal 0 0 -1
    outer loop
      vertex 19.2418 36.1282 2
      vertex 19.2418 36.9798 2
      vertex 19.2668 36.9221 2
    endloop
  endfacet
  facet normal 0 0 -1
    outer loop
      vertex 19.2133 36.0722 2
      vertex 19.2418 36.9798 2
      vertex 19.2418 36.1282 2
    endloop
  endfacet
  facet normal 0 0 -1
    outer loop
      vertex 19.2133 36.0722 2
      vertex 19.2133 37.0358 2
      vertex 19.2418 36.9798 2
    endloop
  endfacet
  facet normal 0 0 -1
    outer loop
      vertex 19.1813 36.0182 2
      vertex 19.2133 37.0358 2
      vertex 19.2133 36.0722 2
    endloop
  endfacet
  facet normal 0 0 -1
    outer loop
      vertex 19.1813 36.0182 2
      vertex 19.1813 37.0898 2
      vertex 19.2133 37.0358 2
    endloop
  endfacet
  facet normal 0 0 -1
    outer loop
      vertex 19.146 35.9662 2
      vertex 19.1813 37.0898 2
      vertex 19.1813 36.0182 2
    endloop
  endfacet
  facet normal 0 0 -1
    outer loop
      vertex 19.146 35.9662 2
      vertex 19.146 37.1418 2
      vertex 19.1813 37.0898 2
    endloop
  endfacet
  facet normal 0 0 -1
    outer loop
      vertex 19.1075 35.9166 2
      vertex 19.146 37.1418 2
      vertex 19.146 35.9662 2
    endloop
  endfacet
  facet normal 0 0 -1
    outer loop
      vertex 19.1075 35.9166 2
      vertex 19.1075 37.1914 2
      vertex 19.146 37.1418 2
    endloop
  endfacet
  facet normal 0 0 -1
    outer loop
      vertex 19.066 35.8695 2
      vertex 19.1075 37.1914 2
      vertex 19.1075 35.9166 2
    endloop
  endfacet
  facet normal 0 0 -1
    outer loop
      vertex 19.066 35.8695 2
      vertex 19.066 37.2385 2
      vertex 19.1075 37.1914 2
    endloop
  endfacet
  facet normal 0 0 -1
    outer loop
      vertex 19.0215 35.825 2
      vertex 19.066 37.2385 2
      vertex 19.066 35.8695 2
    endloop
  endfacet
  facet normal 0 0 -1
    outer loop
      vertex 19.0215 35.825 2
      vertex 19.0215 37.283 2
      vertex 19.066 37.2385 2
    endloop
  endfacet
  facet normal 0 0 -1
    outer loop
      vertex 18.9744 35.7835 2
      vertex 19.0215 37.283 2
      vertex 19.0215 35.825 2
    endloop
  endfacet
  facet normal 0 0 -1
    outer loop
      vertex 18.9744 35.7835 2
      vertex 18.9744 37.3245 2
      vertex 19.0215 37.283 2
    endloop
  endfacet
  facet normal 0 0 -1
    outer loop
      vertex 18.9248 35.745 2
      vertex 18.9744 37.3245 2
      vertex 18.9744 35.7835 2
    endloop
  endfacet
  facet normal 0 0 -1
    outer loop
      vertex 18.9248 35.745 2
      vertex 18.9248 37.363 2
      vertex 18.9744 37.3245 2
    endloop
  endfacet
  facet normal 0 0 -1
    outer loop
      vertex 18.8728 35.7097 2
      vertex 18.9248 37.363 2
      vertex 18.9248 35.745 2
    endloop
  endfacet
  facet normal 0 0 -1
    outer loop
      vertex 18.8728 35.7097 2
      vertex 18.8728 37.3983 2
      vertex 18.9248 37.363 2
    endloop
  endfacet
  facet normal 0 0 -1
    outer loop
      vertex 18.8188 35.6777 2
      vertex 18.8728 37.3983 2
      vertex 18.8728 35.7097 2
    endloop
  endfacet
  facet normal 0 0 -1
    outer loop
      vertex 18.8188 35.6777 2
      vertex 18.8188 37.4303 2
      vertex 18.8728 37.3983 2
    endloop
  endfacet
  facet normal 0 0 -1
    outer loop
      vertex 18.7628 35.6492 2
      vertex 18.8188 37.4303 2
      vertex 18.8188 35.6777 2
    endloop
  endfacet
  facet normal 0 0 -1
    outer loop
      vertex 18.7628 35.6492 2
      vertex 18.7628 37.4588 2
      vertex 18.8188 37.4303 2
    endloop
  endfacet
  facet normal 0 0 -1
    outer loop
      vertex 18.7051 35.6242 2
      vertex 18.7628 37.4588 2
      vertex 18.7628 35.6492 2
    endloop
  endfacet
  facet normal 0 0 -1
    outer loop
      vertex 18.7051 35.6242 2
      vertex 18.7051 37.4838 2
      vertex 18.7628 37.4588 2
    endloop
  endfacet
  facet normal 0 0 -1
    outer loop
      vertex 18.646 35.6029 2
      vertex 18.7051 37.4838 2
      vertex 18.7051 35.6242 2
    endloop
  endfacet
  facet normal 0 0 -1
    outer loop
      vertex 18.646 35.6029 2
      vertex 18.646 37.5051 2
      vertex 18.7051 37.4838 2
    endloop
  endfacet
  facet normal 0 0 -1
    outer loop
      vertex 18.5857 35.5854 2
      vertex 18.646 37.5051 2
      vertex 18.646 35.6029 2
    endloop
  endfacet
  facet normal 0 0 -1
    outer loop
      vertex 18.5857 35.5854 2
      vertex 18.5857 37.5226 2
      vertex 18.646 37.5051 2
    endloop
  endfacet
  facet normal 0 0 -1
    outer loop
      vertex 18.5244 35.5717 2
      vertex 18.5857 37.5226 2
      vertex 18.5857 35.5854 2
    endloop
  endfacet
  facet normal 0 0 -1
    outer loop
      vertex 18.5244 35.5717 2
      vertex 18.5244 37.5363 2
      vertex 18.5857 37.5226 2
    endloop
  endfacet
  facet normal 0 0 -1
    outer loop
      vertex 18.4623 35.5619 2
      vertex 18.5244 37.5363 2
      vertex 18.5244 35.5717 2
    endloop
  endfacet
  facet normal 0 0 -1
    outer loop
      vertex 18.4623 35.5619 2
      vertex 18.4623 37.5461 2
      vertex 18.5244 37.5363 2
    endloop
  endfacet
  facet normal 0 0 -1
    outer loop
      vertex 18.3998 35.556 2
      vertex 18.4623 37.5461 2
      vertex 18.4623 35.5619 2
    endloop
  endfacet
  facet normal 0 0 -1
    outer loop
      vertex 18.3998 35.556 2
      vertex 18.3998 37.552 2
      vertex 18.4623 37.5461 2
    endloop
  endfacet
  facet normal 0 0 -1
    outer loop
      vertex 18.337 35.554 2
      vertex 18.3998 37.552 2
      vertex 18.3998 35.556 2
    endloop
  endfacet
  facet normal 0 0 -1
    outer loop
      vertex 18.337 35.554 2
      vertex 18.337 37.554 2
      vertex 18.3998 37.552 2
    endloop
  endfacet
  facet normal 0 0 -1
    outer loop
      vertex 18.2742 35.556 2
      vertex 18.337 37.554 2
      vertex 18.337 35.554 2
    endloop
  endfacet
  facet normal 0 0 -1
    outer loop
      vertex 18.2742 35.556 2
      vertex 18.2742 37.552 2
      vertex 18.337 37.554 2
    endloop
  endfacet
  facet normal 0 0 -1
    outer loop
      vertex 18.2117 35.5619 2
      vertex 18.2742 37.552 2
      vertex 18.2742 35.556 2
    endloop
  endfacet
  facet normal 0 0 -1
    outer loop
      vertex 18.2117 35.5619 2
      vertex 18.2117 37.5461 2
      vertex 18.2742 37.552 2
    endloop
  endfacet
  facet normal 0 0 -1
    outer loop
      vertex 18.1496 35.5717 2
      vertex 18.2117 37.5461 2
      vertex 18.2117 35.5619 2
    endloop
  endfacet
  facet normal 0 0 -1
    outer loop
      vertex 18.1496 35.5717 2
      vertex 18.1496 37.5363 2
      vertex 18.2117 37.5461 2
    endloop
  endfacet
  facet normal 0 0 -1
    outer loop
      vertex 18.0883 35.5854 2
      vertex 18.1496 37.5363 2
      vertex 18.1496 35.5717 2
    endloop
  endfacet
  facet normal 0 0 -1
    outer loop
      vertex 18.0883 35.5854 2
      vertex 18.0883 37.5226 2
      vertex 18.1496 37.5363 2
    endloop
  endfacet
  facet normal 0 0 -1
    outer loop
      vertex 18.028 35.6029 2
      vertex 18.0883 37.5226 2
      vertex 18.0883 35.5854 2
    endloop
  endfacet
  facet normal 0 0 -1
    outer loop
      vertex 18.028 35.6029 2
      vertex 18.028 37.5051 2
      vertex 18.0883 37.5226 2
    endloop
  endfacet
  facet normal 0 0 -1
    outer loop
      vertex 17.9689 35.6242 2
      vertex 18.028 37.5051 2
      vertex 18.028 35.6029 2
    endloop
  endfacet
  facet normal 0 0 -1
    outer loop
      vertex 17.9689 35.6242 2
      vertex 17.9689 37.4838 2
      vertex 18.028 37.5051 2
    endloop
  endfacet
  facet normal 0 0 -1
    outer loop
      vertex 17.9112 35.6492 2
      vertex 17.9689 37.4838 2
      vertex 17.9689 35.6242 2
    endloop
  endfacet
  facet normal 0 0 -1
    outer loop
      vertex 17.9112 35.6492 2
      vertex 17.9112 37.4588 2
      vertex 17.9689 37.4838 2
    endloop
  endfacet
  facet normal 0 0 -1
    outer loop
      vertex 17.8552 35.6777 2
      vertex 17.9112 37.4588 2
      vertex 17.9112 35.6492 2
    endloop
  endfacet
  facet normal 0 0 -1
    outer loop
      vertex 17.8552 35.6777 2
      vertex 17.8552 37.4303 2
      vertex 17.9112 37.4588 2
    endloop
  endfacet
  facet normal 0 0 -1
    outer loop
      vertex 17.8012 35.7097 2
      vertex 17.8552 37.4303 2
      vertex 17.8552 35.6777 2
    endloop
  endfacet
  facet normal 0 0 -1
    outer loop
      vertex 17.8012 35.7097 2
      vertex 17.8012 37.3983 2
      vertex 17.8552 37.4303 2
    endloop
  endfacet
  facet normal 0 0 -1
    outer loop
      vertex 17.7492 35.745 2
      vertex 17.8012 37.3983 2
      vertex 17.8012 35.7097 2
    endloop
  endfacet
  facet normal 0 0 -1
    outer loop
      vertex 17.7492 35.745 2
      vertex 17.7492 37.363 2
      vertex 17.8012 37.3983 2
    endloop
  endfacet
  facet normal 0 0 -1
    outer loop
      vertex 17.6996 35.7835 2
      vertex 17.7492 37.363 2
      vertex 17.7492 35.745 2
    endloop
  endfacet
  facet normal 0 0 -1
    outer loop
      vertex 17.6996 35.7835 2
      vertex 17.6996 37.3245 2
      vertex 17.7492 37.363 2
    endloop
  endfacet
  facet normal 0 0 -1
    outer loop
      vertex 17.6525 35.825 2
      vertex 17.6996 37.3245 2
      vertex 17.6996 35.7835 2
    endloop
  endfacet
  facet normal 0 0 -1
    outer loop
      vertex 17.6525 35.825 2
      vertex 17.6525 37.283 2
      vertex 17.6996 37.3245 2
    endloop
  endfacet
  facet normal 0 0 -1
    outer loop
      vertex 17.608 35.8695 2
      vertex 17.6525 37.283 2
      vertex 17.6525 35.825 2
    endloop
  endfacet
  facet normal 0 0 -1
    outer loop
      vertex 17.608 35.8695 2
      vertex 17.608 37.2385 2
      vertex 17.6525 37.283 2
    endloop
  endfacet
  facet normal 0 0 -1
    outer loop
      vertex 17.5665 35.9166 2
      vertex 17.608 37.2385 2
      vertex 17.608 35.8695 2
    endloop
  endfacet
  facet normal 0 0 -1
    outer loop
      vertex 17.5665 35.9166 2
      vertex 17.5665 37.1914 2
      vertex 17.608 37.2385 2
    endloop
  endfacet
  facet normal 0 0 -1
    outer loop
      vertex 17.528 35.9662 2
      vertex 17.5665 37.1914 2
      vertex 17.5665 35.9166 2
    endloop
  endfacet
  facet normal 0 0 -1
    outer loop
      vertex 17.528 35.9662 2
      vertex 17.528 37.1418 2
      vertex 17.5665 37.1914 2
    endloop
  endfacet
  facet normal 0 0 -1
    outer loop
      vertex 17.4927 36.0182 2
      vertex 17.528 37.1418 2
      vertex 17.528 35.9662 2
    endloop
  endfacet
  facet normal 0 0 -1
    outer loop
      vertex 17.4927 36.0182 2
      vertex 17.4927 37.0898 2
      vertex 17.528 37.1418 2
    endloop
  endfacet
  facet normal 0 0 -1
    outer loop
      vertex 17.4607 36.0722 2
      vertex 17.4927 37.0898 2
      vertex 17.4927 36.0182 2
    endloop
  endfacet
  facet normal 0 0 -1
    outer loop
      vertex 17.4607 36.0722 2
      vertex 17.4607 37.0358 2
      vertex 17.4927 37.0898 2
    endloop
  endfacet
  facet normal 0 0 -1
    outer loop
      vertex 17.4322 36.1282 2
      vertex 17.4607 37.0358 2
      vertex 17.4607 36.0722 2
    endloop
  endfacet
  facet normal 0 0 -1
    outer loop
      vertex 17.4322 36.1282 2
      vertex 17.4322 36.9798 2
      vertex 17.4607 37.0358 2
    endloop
  endfacet
  facet normal 0 0 -1
    outer loop
      vertex 17.4072 36.1859 2
      vertex 17.4322 36.9798 2
      vertex 17.4322 36.1282 2
    endloop
  endfacet
  facet normal 0 0 -1
    outer loop
      vertex 17.4072 36.1859 2
      vertex 17.4072 36.9221 2
      vertex 17.4322 36.9798 2
    endloop
  endfacet
  facet normal 0 0 -1
    outer loop
      vertex 17.3859 36.245 2
      vertex 17.4072 36.9221 2
      vertex 17.4072 36.1859 2
    endloop
  endfacet
  facet normal 0 0 -1
    outer loop
      vertex 17.3859 36.245 2
      vertex 17.3859 36.863 2
      vertex 17.4072 36.9221 2
    endloop
  endfacet
  facet normal 0 0 -1
    outer loop
      vertex 17.3684 36.3053 2
      vertex 17.3859 36.863 2
      vertex 17.3859 36.245 2
    endloop
  endfacet
  facet normal 0 0 -1
    outer loop
      vertex 17.3684 36.3053 2
      vertex 17.3684 36.8027 2
      vertex 17.3859 36.863 2
    endloop
  endfacet
  facet normal 0 0 -1
    outer loop
      vertex 17.3547 36.3666 2
      vertex 17.3684 36.8027 2
      vertex 17.3684 36.3053 2
    endloop
  endfacet
  facet normal 0 0 -1
    outer loop
      vertex 17.3547 36.3666 2
      vertex 17.3547 36.7414 2
      vertex 17.3684 36.8027 2
    endloop
  endfacet
  facet normal 0 0 -1
    outer loop
      vertex 17.3449 36.4287 2
      vertex 17.3547 36.7414 2
      vertex 17.3547 36.3666 2
    endloop
  endfacet
  facet normal 0 0 -1
    outer loop
      vertex 17.3449 36.4287 2
      vertex 17.3449 36.6793 2
      vertex 17.3547 36.7414 2
    endloop
  endfacet
  facet normal 0 0 -1
    outer loop
      vertex 17.339 36.4912 2
      vertex 17.3449 36.6793 2
      vertex 17.3449 36.4287 2
    endloop
  endfacet
  facet normal 0 0 -1
    outer loop
      vertex 17.339 36.4912 2
      vertex 17.339 36.6168 2
      vertex 17.3449 36.6793 2
    endloop
  endfacet
  facet normal 0 -0 -1
    outer loop
      vertex 17.339 36.6168 2
      vertex 17.339 36.4912 2
      vertex 17.337 36.554 2
    endloop
  endfacet
  facet normal 0.613168 -0.789952 0
    outer loop
      vertex 17.6996 37.3245 0
      vertex 17.7492 37.363 2
      vertex 17.6996 37.3245 2
    endloop
  endfacet
  facet normal 0.613168 -0.789952 0
    outer loop
      vertex 17.7492 37.363 2
      vertex 17.6996 37.3245 0
      vertex 17.7492 37.363 0
    endloop
  endfacet
  facet normal 0.339058 -0.940766 0
    outer loop
      vertex 17.9689 37.4838 0
      vertex 18.028 37.5051 2
      vertex 17.9689 37.4838 2
    endloop
  endfacet
  facet normal 0.339058 -0.940766 0
    outer loop
      vertex 18.028 37.5051 2
      vertex 17.9689 37.4838 0
      vertex 18.028 37.5051 0
    endloop
  endfacet
  facet normal 0.155881 -0.987776 0
    outer loop
      vertex 18.1496 37.5363 0
      vertex 18.2117 37.5461 2
      vertex 18.1496 37.5363 2
    endloop
  endfacet
  facet normal 0.155881 -0.987776 0
    outer loop
      vertex 18.2117 37.5461 2
      vertex 18.1496 37.5363 0
      vertex 18.2117 37.5461 0
    endloop
  endfacet
  facet normal -0.999493 0.031831 0
    outer loop
      vertex 19.335 36.4912 0
      vertex 19.337 36.554 2
      vertex 19.337 36.554 0
    endloop
  endfacet
  facet normal -0.999493 0.031831 0
    outer loop
      vertex 19.337 36.554 2
      vertex 19.335 36.4912 0
      vertex 19.335 36.4912 2
    endloop
  endfacet
  facet normal -0.278715 0.960374 0
    outer loop
      vertex 18.646 35.6029 0
      vertex 18.5857 35.5854 2
      vertex 18.646 35.6029 2
    endloop
  endfacet
  facet normal -0.278715 0.960374 0
    outer loop
      vertex 18.5857 35.5854 2
      vertex 18.646 35.6029 0
      vertex 18.5857 35.5854 0
    endloop
  endfacet
  facet normal -0.397563 0.917575 0
    outer loop
      vertex 18.7628 35.6492 0
      vertex 18.7051 35.6242 2
      vertex 18.7628 35.6492 2
    endloop
  endfacet
  facet normal -0.397563 0.917575 0
    outer loop
      vertex 18.7051 35.6242 2
      vertex 18.7628 35.6492 0
      vertex 18.7051 35.6242 0
    endloop
  endfacet
  facet normal -0.339058 0.940766 0
    outer loop
      vertex 18.7051 35.6242 0
      vertex 18.646 35.6029 2
      vertex 18.7051 35.6242 2
    endloop
  endfacet
  facet normal -0.339058 0.940766 0
    outer loop
      vertex 18.646 35.6029 2
      vertex 18.7051 35.6242 0
      vertex 18.646 35.6029 0
    endloop
  endfacet
  facet normal -0.661095 0.750303 0
    outer loop
      vertex 19.0215 35.825 0
      vertex 18.9744 35.7835 2
      vertex 19.0215 35.825 2
    endloop
  endfacet
  facet normal -0.661095 0.750303 0
    outer loop
      vertex 18.9744 35.7835 2
      vertex 19.0215 35.825 0
      vertex 18.9744 35.7835 0
    endloop
  endfacet
  facet normal -0.509802 0.860292 0
    outer loop
      vertex 18.8728 35.7097 0
      vertex 18.8188 35.6777 2
      vertex 18.8728 35.7097 2
    endloop
  endfacet
  facet normal -0.509802 0.860292 0
    outer loop
      vertex 18.8188 35.6777 2
      vertex 18.8728 35.7097 0
      vertex 18.8188 35.6777 0
    endloop
  endfacet
  facet normal -0.860292 0.509802 0
    outer loop
      vertex 19.1813 36.0182 0
      vertex 19.2133 36.0722 2
      vertex 19.2133 36.0722 0
    endloop
  endfacet
  facet normal -0.860292 0.509802 0
    outer loop
      vertex 19.2133 36.0722 2
      vertex 19.1813 36.0182 0
      vertex 19.1813 36.0182 2
    endloop
  endfacet
  facet normal -0.917575 0.397563 0
    outer loop
      vertex 19.2418 36.1282 0
      vertex 19.2668 36.1859 2
      vertex 19.2668 36.1859 0
    endloop
  endfacet
  facet normal -0.917575 0.397563 0
    outer loop
      vertex 19.2668 36.1859 2
      vertex 19.2418 36.1282 0
      vertex 19.2418 36.1282 2
    endloop
  endfacet
  facet normal -0.891222 0.453568 0
    outer loop
      vertex 19.2133 36.0722 0
      vertex 19.2418 36.1282 2
      vertex 19.2418 36.1282 0
    endloop
  endfacet
  facet normal -0.891222 0.453568 0
    outer loop
      vertex 19.2418 36.1282 2
      vertex 19.2133 36.0722 0
      vertex 19.2133 36.0722 2
    endloop
  endfacet
  facet normal -0.960374 0.278715 0
    outer loop
      vertex 19.2881 36.245 0
      vertex 19.3056 36.3053 2
      vertex 19.3056 36.3053 0
    endloop
  endfacet
  facet normal -0.960374 0.278715 0
    outer loop
      vertex 19.3056 36.3053 2
      vertex 19.2881 36.245 0
      vertex 19.2881 36.245 2
    endloop
  endfacet
  facet normal -0.995574 0.0939822 0
    outer loop
      vertex 19.3291 36.4287 0
      vertex 19.335 36.4912 2
      vertex 19.335 36.4912 0
    endloop
  endfacet
  facet normal -0.995574 0.0939822 0
    outer loop
      vertex 19.335 36.4912 2
      vertex 19.3291 36.4287 0
      vertex 19.3291 36.4287 2
    endloop
  endfacet
  facet normal 0.453568 0.891222 -0
    outer loop
      vertex 17.9112 35.6492 0
      vertex 17.8552 35.6777 2
      vertex 17.9112 35.6492 2
    endloop
  endfacet
  facet normal 0.453568 0.891222 0
    outer loop
      vertex 17.8552 35.6777 2
      vertex 17.9112 35.6492 0
      vertex 17.8552 35.6777 0
    endloop
  endfacet
  facet normal 0.339058 0.940766 -0
    outer loop
      vertex 18.028 35.6029 0
      vertex 17.9689 35.6242 2
      vertex 18.028 35.6029 2
    endloop
  endfacet
  facet normal 0.339058 0.940766 0
    outer loop
      vertex 17.9689 35.6242 2
      vertex 18.028 35.6029 0
      vertex 17.9689 35.6242 0
    endloop
  endfacet
  facet normal 0.397563 0.917575 -0
    outer loop
      vertex 17.9689 35.6242 0
      vertex 17.9112 35.6492 2
      vertex 17.9689 35.6242 2
    endloop
  endfacet
  facet normal 0.397563 0.917575 0
    outer loop
      vertex 17.9112 35.6492 2
      vertex 17.9689 35.6242 0
      vertex 17.9112 35.6492 0
    endloop
  endfacet
  facet normal 0.155881 0.987776 -0
    outer loop
      vertex 18.2117 35.5619 0
      vertex 18.1496 35.5717 2
      vertex 18.2117 35.5619 2
    endloop
  endfacet
  facet normal 0.155881 0.987776 0
    outer loop
      vertex 18.1496 35.5717 2
      vertex 18.2117 35.5619 0
      vertex 18.1496 35.5717 0
    endloop
  endfacet
  facet normal 0.278715 0.960374 -0
    outer loop
      vertex 18.0883 35.5854 0
      vertex 18.028 35.6029 2
      vertex 18.0883 35.5854 2
    endloop
  endfacet
  facet normal 0.278715 0.960374 0
    outer loop
      vertex 18.028 35.6029 2
      vertex 18.0883 35.5854 0
      vertex 18.028 35.6029 0
    endloop
  endfacet
  facet normal 0.21811 0.975924 -0
    outer loop
      vertex 18.1496 35.5717 0
      vertex 18.0883 35.5854 2
      vertex 18.1496 35.5717 2
    endloop
  endfacet
  facet normal 0.21811 0.975924 0
    outer loop
      vertex 18.0883 35.5854 2
      vertex 18.1496 35.5717 0
      vertex 18.0883 35.5854 0
    endloop
  endfacet
  facet normal 0.031831 0.999493 -0
    outer loop
      vertex 18.337 35.554 0
      vertex 18.2742 35.556 2
      vertex 18.337 35.554 2
    endloop
  endfacet
  facet normal 0.031831 0.999493 0
    outer loop
      vertex 18.2742 35.556 2
      vertex 18.337 35.554 0
      vertex 18.2742 35.556 0
    endloop
  endfacet
  facet normal 0.860292 0.509802 0
    outer loop
      vertex 17.4927 36.0182 2
      vertex 17.4607 36.0722 0
      vertex 17.4607 36.0722 2
    endloop
  endfacet
  facet normal 0.860292 0.509802 0
    outer loop
      vertex 17.4607 36.0722 0
      vertex 17.4927 36.0182 2
      vertex 17.4927 36.0182 0
    endloop
  endfacet
  facet normal 0.82737 0.561657 0
    outer loop
      vertex 17.528 35.9662 2
      vertex 17.4927 36.0182 0
      vertex 17.4927 36.0182 2
    endloop
  endfacet
  facet normal 0.82737 0.561657 0
    outer loop
      vertex 17.4927 36.0182 0
      vertex 17.528 35.9662 2
      vertex 17.528 35.9662 0
    endloop
  endfacet
  facet normal 0.960374 0.278715 0
    outer loop
      vertex 17.3859 36.245 2
      vertex 17.3684 36.3053 0
      vertex 17.3684 36.3053 2
    endloop
  endfacet
  facet normal 0.960374 0.278715 0
    outer loop
      vertex 17.3684 36.3053 0
      vertex 17.3859 36.245 2
      vertex 17.3859 36.245 0
    endloop
  endfacet
  facet normal -0.940766 -0.339058 0
    outer loop
      vertex 19.2881 36.863 0
      vertex 19.2668 36.9221 2
      vertex 19.2668 36.9221 0
    endloop
  endfacet
  facet normal -0.940766 -0.339058 0
    outer loop
      vertex 19.2668 36.9221 2
      vertex 19.2881 36.863 0
      vertex 19.2881 36.863 2
    endloop
  endfacet
  facet normal -0.397563 -0.917575 0
    outer loop
      vertex 18.7051 37.4838 0
      vertex 18.7628 37.4588 2
      vertex 18.7051 37.4838 2
    endloop
  endfacet
  facet normal -0.397563 -0.917575 -0
    outer loop
      vertex 18.7628 37.4588 2
      vertex 18.7051 37.4838 0
      vertex 18.7628 37.4588 0
    endloop
  endfacet
  facet normal -0.613168 -0.789952 0
    outer loop
      vertex 18.9248 37.363 0
      vertex 18.9744 37.3245 2
      vertex 18.9248 37.363 2
    endloop
  endfacet
  facet normal -0.613168 -0.789952 -0
    outer loop
      vertex 18.9744 37.3245 2
      vertex 18.9248 37.363 0
      vertex 18.9744 37.3245 0
    endloop
  endfacet
  facet normal 0.707107 -0.707107 0
    outer loop
      vertex 17.608 37.2385 0
      vertex 17.6525 37.283 2
      vertex 17.608 37.2385 2
    endloop
  endfacet
  facet normal 0.707107 -0.707107 0
    outer loop
      vertex 17.6525 37.283 2
      vertex 17.608 37.2385 0
      vertex 17.6525 37.283 0
    endloop
  endfacet
  facet normal 0.397563 -0.917575 0
    outer loop
      vertex 17.9112 37.4588 0
      vertex 17.9689 37.4838 2
      vertex 17.9112 37.4588 2
    endloop
  endfacet
  facet normal 0.397563 -0.917575 0
    outer loop
      vertex 17.9689 37.4838 2
      vertex 17.9112 37.4588 0
      vertex 17.9689 37.4838 0
    endloop
  endfacet
  facet normal 0.278715 -0.960374 0
    outer loop
      vertex 18.028 37.5051 0
      vertex 18.0883 37.5226 2
      vertex 18.028 37.5051 2
    endloop
  endfacet
  facet normal 0.278715 -0.960374 0
    outer loop
      vertex 18.0883 37.5226 2
      vertex 18.028 37.5051 0
      vertex 18.0883 37.5226 0
    endloop
  endfacet
  facet normal -0.21811 0.975924 0
    outer loop
      vertex 18.5857 35.5854 0
      vertex 18.5244 35.5717 2
      vertex 18.5857 35.5854 2
    endloop
  endfacet
  facet normal -0.21811 0.975924 0
    outer loop
      vertex 18.5244 35.5717 2
      vertex 18.5857 35.5854 0
      vertex 18.5244 35.5717 0
    endloop
  endfacet
  facet normal -0.82737 0.561657 0
    outer loop
      vertex 19.146 35.9662 0
      vertex 19.1813 36.0182 2
      vertex 19.1813 36.0182 0
    endloop
  endfacet
  facet normal -0.82737 0.561657 0
    outer loop
      vertex 19.1813 36.0182 2
      vertex 19.146 35.9662 0
      vertex 19.146 35.9662 2
    endloop
  endfacet
  facet normal -0.975924 0.21811 0
    outer loop
      vertex 19.3056 36.3053 0
      vertex 19.3193 36.3666 2
      vertex 19.3193 36.3666 0
    endloop
  endfacet
  facet normal -0.975924 0.21811 0
    outer loop
      vertex 19.3193 36.3666 2
      vertex 19.3056 36.3053 0
      vertex 19.3056 36.3053 2
    endloop
  endfacet
  facet normal 0.509802 0.860292 -0
    outer loop
      vertex 17.8552 35.6777 0
      vertex 17.8012 35.7097 2
      vertex 17.8552 35.6777 2
    endloop
  endfacet
  facet normal 0.509802 0.860292 0
    outer loop
      vertex 17.8012 35.7097 2
      vertex 17.8552 35.6777 0
      vertex 17.8012 35.7097 0
    endloop
  endfacet
  facet normal 0.940766 0.339058 0
    outer loop
      vertex 17.4072 36.1859 2
      vertex 17.3859 36.245 0
      vertex 17.3859 36.245 2
    endloop
  endfacet
  facet normal 0.940766 0.339058 0
    outer loop
      vertex 17.3859 36.245 0
      vertex 17.4072 36.1859 2
      vertex 17.4072 36.1859 0
    endloop
  endfacet
  facet normal 0.975924 0.21811 0
    outer loop
      vertex 17.3684 36.3053 2
      vertex 17.3547 36.3666 0
      vertex 17.3547 36.3666 2
    endloop
  endfacet
  facet normal 0.975924 0.21811 0
    outer loop
      vertex 17.3547 36.3666 0
      vertex 17.3684 36.3053 2
      vertex 17.3684 36.3053 0
    endloop
  endfacet
  facet normal -0.987776 0.155881 0
    outer loop
      vertex 19.3193 36.3666 0
      vertex 19.3291 36.4287 2
      vertex 19.3291 36.4287 0
    endloop
  endfacet
  facet normal -0.987776 0.155881 0
    outer loop
      vertex 19.3291 36.4287 2
      vertex 19.3193 36.3666 0
      vertex 19.3193 36.3666 2
    endloop
  endfacet
endsolid OpenSCAD_Model
