solid OpenSCAD_Model
  facet normal 0 0 -1
    outer loop
      vertex 34.8828 0 0
      vertex 11.718 6.18439 0
      vertex 34.8828 6.18439 0
    endloop
  endfacet
  facet normal 0 0 -1
    outer loop
      vertex 3.71599 0 0
      vertex 11.718 16.248 0
      vertex 11.718 6.18439 0
    endloop
  endfacet
  facet normal 0 0 -1
    outer loop
      vertex 3.71599 38.2192 0
      vertex 11.718 16.248 0
      vertex 3.71599 0 0
    endloop
  endfacet
  facet normal 0 0 -1
    outer loop
      vertex 11.718 16.248 0
      vertex 3.71599 38.2192 0
      vertex 11.718 22.4324 0
    endloop
  endfacet
  facet normal 0 0 -1
    outer loop
      vertex 3.71599 0 0
      vertex 11.718 6.18439 0
      vertex 34.8828 0 0
    endloop
  endfacet
  facet normal 0 0 -1
    outer loop
      vertex 17.9487 16.248 0
      vertex 32.116 22.4324 0
      vertex 32.116 16.248 0
    endloop
  endfacet
  facet normal 0 0 -1
    outer loop
      vertex 17.8719 16.3247 0
      vertex 32.116 22.4324 0
      vertex 17.9487 16.248 0
    endloop
  endfacet
  facet normal 0 0 -1
    outer loop
      vertex 11.718 16.248 0
      vertex 17.8719 16.3247 0
      vertex 17.7952 16.248 0
    endloop
  endfacet
  facet normal 0 0 -1
    outer loop
      vertex 11.718 22.4324 0
      vertex 17.8719 16.3247 0
      vertex 11.718 16.248 0
    endloop
  endfacet
  facet normal 0 0 -1
    outer loop
      vertex 17.8719 16.3247 0
      vertex 11.718 22.4324 0
      vertex 32.116 22.4324 0
    endloop
  endfacet
  facet normal 0 0 -1
    outer loop
      vertex 11.718 32.0348 0
      vertex 33.7708 38.2192 0
      vertex 33.7708 32.0348 0
    endloop
  endfacet
  facet normal 0 0 -1
    outer loop
      vertex 11.718 32.0348 0
      vertex 3.71599 38.2192 0
      vertex 33.7708 38.2192 0
    endloop
  endfacet
  facet normal 0 0 -1
    outer loop
      vertex 11.718 22.4324 0
      vertex 3.71599 38.2192 0
      vertex 11.718 32.0348 0
    endloop
  endfacet
  facet normal 0 0 1
    outer loop
      vertex 33.7708 38.2192 5
      vertex 11.718 32.0348 5
      vertex 33.7708 32.0348 5
    endloop
  endfacet
  facet normal 0 0 1
    outer loop
      vertex 3.71599 38.2192 5
      vertex 11.718 22.4324 5
      vertex 11.718 32.0348 5
    endloop
  endfacet
  facet normal 0 0 1
    outer loop
      vertex 11.718 22.4324 5
      vertex 3.71599 38.2192 5
      vertex 11.718 16.248 5
    endloop
  endfacet
  facet normal 0 0 1
    outer loop
      vertex 3.71599 0 5
      vertex 11.718 16.248 5
      vertex 3.71599 38.2192 5
    endloop
  endfacet
  facet normal -0 0 1
    outer loop
      vertex 3.71599 38.2192 5
      vertex 11.718 32.0348 5
      vertex 33.7708 38.2192 5
    endloop
  endfacet
  facet normal -0 0 1
    outer loop
      vertex 11.718 22.4324 5
      vertex 32.116 16.248 5
      vertex 32.116 22.4324 5
    endloop
  endfacet
  facet normal 0 0 1
    outer loop
      vertex 32.116 16.248 5
      vertex 11.718 22.4324 5
      vertex 11.718 16.248 5
    endloop
  endfacet
  facet normal -0 0 1
    outer loop
      vertex 11.718 6.18439 5
      vertex 34.8828 0 5
      vertex 34.8828 6.18439 5
    endloop
  endfacet
  facet normal 0 0 1
    outer loop
      vertex 11.718 6.18439 5
      vertex 3.71599 0 5
      vertex 34.8828 0 5
    endloop
  endfacet
  facet normal 0 0 1
    outer loop
      vertex 11.718 16.248 5
      vertex 3.71599 0 5
      vertex 11.718 6.18439 5
    endloop
  endfacet
  facet normal 0 1 -0
    outer loop
      vertex 34.8828 6.18439 0
      vertex 11.718 6.18439 5
      vertex 34.8828 6.18439 5
    endloop
  endfacet
  facet normal 0 1 0
    outer loop
      vertex 11.718 6.18439 5
      vertex 34.8828 6.18439 0
      vertex 11.718 6.18439 0
    endloop
  endfacet
  facet normal 1 -0 0
    outer loop
      vertex 11.718 6.18439 5
      vertex 11.718 16.248 0
      vertex 11.718 16.248 5
    endloop
  endfacet
  facet normal 1 0 0
    outer loop
      vertex 11.718 16.248 0
      vertex 11.718 6.18439 5
      vertex 11.718 6.18439 0
    endloop
  endfacet
  facet normal 0 -1 0
    outer loop
      vertex 17.9487 16.248 2
      vertex 11.718 16.248 5
      vertex 17.7952 16.248 2
    endloop
  endfacet
  facet normal 0 -1 0
    outer loop
      vertex 11.718 16.248 0
      vertex 17.7952 16.248 2
      vertex 11.718 16.248 5
    endloop
  endfacet
  facet normal 0 -1 -0
    outer loop
      vertex 17.7952 16.248 2
      vertex 11.718 16.248 0
      vertex 17.7952 16.248 0
    endloop
  endfacet
  facet normal 0 -1 0
    outer loop
      vertex 11.718 16.248 5
      vertex 17.9487 16.248 2
      vertex 32.116 16.248 5
    endloop
  endfacet
  facet normal 0 -1 0
    outer loop
      vertex 32.116 16.248 0
      vertex 17.9487 16.248 2
      vertex 17.9487 16.248 0
    endloop
  endfacet
  facet normal 0 -1 0
    outer loop
      vertex 17.9487 16.248 2
      vertex 32.116 16.248 0
      vertex 32.116 16.248 5
    endloop
  endfacet
  facet normal 1 -0 0
    outer loop
      vertex 32.116 16.248 5
      vertex 32.116 22.4324 0
      vertex 32.116 22.4324 5
    endloop
  endfacet
  facet normal 1 0 0
    outer loop
      vertex 32.116 22.4324 0
      vertex 32.116 16.248 5
      vertex 32.116 16.248 0
    endloop
  endfacet
  facet normal 0 1 -0
    outer loop
      vertex 32.116 22.4324 0
      vertex 11.718 22.4324 5
      vertex 32.116 22.4324 5
    endloop
  endfacet
  facet normal 0 1 0
    outer loop
      vertex 11.718 22.4324 5
      vertex 32.116 22.4324 0
      vertex 11.718 22.4324 0
    endloop
  endfacet
  facet normal 1 -0 0
    outer loop
      vertex 11.718 22.4324 5
      vertex 11.718 32.0348 0
      vertex 11.718 32.0348 5
    endloop
  endfacet
  facet normal 1 0 0
    outer loop
      vertex 11.718 32.0348 0
      vertex 11.718 22.4324 5
      vertex 11.718 22.4324 0
    endloop
  endfacet
  facet normal 0 -1 0
    outer loop
      vertex 11.718 32.0348 0
      vertex 33.7708 32.0348 5
      vertex 11.718 32.0348 5
    endloop
  endfacet
  facet normal 0 -1 -0
    outer loop
      vertex 33.7708 32.0348 5
      vertex 11.718 32.0348 0
      vertex 33.7708 32.0348 0
    endloop
  endfacet
  facet normal 1 -0 0
    outer loop
      vertex 33.7708 32.0348 5
      vertex 33.7708 38.2192 0
      vertex 33.7708 38.2192 5
    endloop
  endfacet
  facet normal 1 0 0
    outer loop
      vertex 33.7708 38.2192 0
      vertex 33.7708 32.0348 5
      vertex 33.7708 32.0348 0
    endloop
  endfacet
  facet normal 0 1 -0
    outer loop
      vertex 33.7708 38.2192 0
      vertex 3.71599 38.2192 5
      vertex 33.7708 38.2192 5
    endloop
  endfacet
  facet normal 0 1 0
    outer loop
      vertex 3.71599 38.2192 5
      vertex 33.7708 38.2192 0
      vertex 3.71599 38.2192 0
    endloop
  endfacet
  facet normal -1 0 0
    outer loop
      vertex 3.71599 0 0
      vertex 3.71599 38.2192 5
      vertex 3.71599 38.2192 0
    endloop
  endfacet
  facet normal -1 -0 0
    outer loop
      vertex 3.71599 38.2192 5
      vertex 3.71599 0 0
      vertex 3.71599 0 5
    endloop
  endfacet
  facet normal 0 -1 0
    outer loop
      vertex 3.71599 0 0
      vertex 34.8828 0 5
      vertex 3.71599 0 5
    endloop
  endfacet
  facet normal 0 -1 -0
    outer loop
      vertex 34.8828 0 5
      vertex 3.71599 0 0
      vertex 34.8828 0 0
    endloop
  endfacet
  facet normal 1 -0 0
    outer loop
      vertex 34.8828 0 5
      vertex 34.8828 6.18439 0
      vertex 34.8828 6.18439 5
    endloop
  endfacet
  facet normal 1 0 0
    outer loop
      vertex 34.8828 6.18439 0
      vertex 34.8828 0 5
      vertex 34.8828 0 0
    endloop
  endfacet
  facet normal 0.707107 -0.707107 0
    outer loop
      vertex 17.7952 16.248 2
      vertex 17.8719 16.3247 0
      vertex 17.8719 16.3247 2
    endloop
  endfacet
  facet normal 0.707107 -0.707107 0
    outer loop
      vertex 17.8719 16.3247 0
      vertex 17.7952 16.248 2
      vertex 17.7952 16.248 0
    endloop
  endfacet
  facet normal -0.706646 -0.707567 0
    outer loop
      vertex 17.9487 16.248 0
      vertex 17.8719 16.3247 2
      vertex 17.8719 16.3247 0
    endloop
  endfacet
  facet normal -0.706646 -0.707567 0
    outer loop
      vertex 17.8719 16.3247 2
      vertex 17.9487 16.248 0
      vertex 17.9487 16.248 2
    endloop
  endfacet
  facet normal 0 -0 -1
    outer loop
      vertex 17.8719 16.3247 2
      vertex 17.9487 16.248 2
      vertex 17.7952 16.248 2
    endloop
  endfacet
endsolid OpenSCAD_Model
