solid OpenSCAD_Model
  facet normal 0 0 -1
    outer loop
      vertex 26.1212 28.1556 0
      vertex 33.2053 31.5956 0
      vertex 33.8792 29.2136 0
    endloop
  endfacet
  facet normal -0 0 -1
    outer loop
      vertex 33.2053 31.5956 0
      vertex 25.7458 29.3135 0
      vertex 32.2143 33.6147 0
    endloop
  endfacet
  facet normal 0 0 -1
    outer loop
      vertex 25.2161 30.3188 0
      vertex 32.2143 33.6147 0
      vertex 25.7458 29.3135 0
    endloop
  endfacet
  facet normal -0 0 -1
    outer loop
      vertex 32.2143 33.6147 0
      vertex 25.2161 30.3188 0
      vertex 30.9063 35.271 0
    endloop
  endfacet
  facet normal 0 0 -1
    outer loop
      vertex 33.2053 31.5956 0
      vertex 26.1212 28.1556 0
      vertex 25.7458 29.3135 0
    endloop
  endfacet
  facet normal -0 0 -1
    outer loop
      vertex 30.9063 35.271 0
      vertex 25.2161 30.3188 0
      vertex 29.2812 36.5644 0
    endloop
  endfacet
  facet normal 0 0 -1
    outer loop
      vertex 24.532 31.1715 0
      vertex 29.2812 36.5644 0
      vertex 25.2161 30.3188 0
    endloop
  endfacet
  facet normal -0 0 -1
    outer loop
      vertex 29.2812 36.5644 0
      vertex 24.532 31.1715 0
      vertex 27.2765 37.5376 0
    endloop
  endfacet
  facet normal 0 0 -1
    outer loop
      vertex 23.6936 31.8716 0
      vertex 27.2765 37.5376 0
      vertex 24.532 31.1715 0
    endloop
  endfacet
  facet normal -0 0 -1
    outer loop
      vertex 27.2765 37.5376 0
      vertex 23.6936 31.8716 0
      vertex 24.8294 38.2327 0
    endloop
  endfacet
  facet normal 0 0 -1
    outer loop
      vertex 22.679 32.4176 0
      vertex 24.8294 38.2327 0
      vertex 23.6936 31.8716 0
    endloop
  endfacet
  facet normal 0 0 -1
    outer loop
      vertex 21.4661 32.8076 0
      vertex 24.8294 38.2327 0
      vertex 22.679 32.4176 0
    endloop
  endfacet
  facet normal -0 0 -1
    outer loop
      vertex 24.8294 38.2327 0
      vertex 21.4661 32.8076 0
      vertex 21.9397 38.6498 0
    endloop
  endfacet
  facet normal 0 0 -1
    outer loop
      vertex 20.0548 33.0416 0
      vertex 21.9397 38.6498 0
      vertex 21.4661 32.8076 0
    endloop
  endfacet
  facet normal 0 0 -1
    outer loop
      vertex 20.0548 33.0416 0
      vertex 18.6076 38.7888 0
      vertex 21.9397 38.6498 0
    endloop
  endfacet
  facet normal 0 0 -1
    outer loop
      vertex 18.4452 33.1196 0
      vertex 18.6076 38.7888 0
      vertex 20.0548 33.0416 0
    endloop
  endfacet
  facet normal 0 0 -1
    outer loop
      vertex 15.1128 38.6167 0
      vertex 18.4452 33.1196 0
      vertex 15.2647 32.8348 0
    endloop
  endfacet
  facet normal 0 0 -1
    outer loop
      vertex 18.4452 33.1196 0
      vertex 15.1128 38.6167 0
      vertex 18.6076 38.7888 0
    endloop
  endfacet
  facet normal 0 0 -1
    outer loop
      vertex 12.0605 38.1005 0
      vertex 15.2647 32.8348 0
      vertex 12.993 31.9804 0
    endloop
  endfacet
  facet normal 0 0 -1
    outer loop
      vertex 15.2647 32.8348 0
      vertex 12.0605 38.1005 0
      vertex 15.1128 38.6167 0
    endloop
  endfacet
  facet normal 0 0 -1
    outer loop
      vertex 7.28319 36.0356 0
      vertex 12.993 31.9804 0
      vertex 11.6299 30.5564 0
    endloop
  endfacet
  facet normal 0 0 -1
    outer loop
      vertex 4.36389 32.6755 0
      vertex 11.6299 30.5564 0
      vertex 11.1756 28.5628 0
    endloop
  endfacet
  facet normal -0 0 -1
    outer loop
      vertex 12.3816 25.6644 0
      vertex 7.0506 20.1954 0
      vertex 11.9484 26.1212 0
    endloop
  endfacet
  facet normal 0 0 -1
    outer loop
      vertex 6.44879 20.6727 0
      vertex 11.9484 26.1212 0
      vertex 7.0506 20.1954 0
    endloop
  endfacet
  facet normal 0 0 -1
    outer loop
      vertex 12.993 31.9804 0
      vertex 9.45062 37.2401 0
      vertex 12.0605 38.1005 0
    endloop
  endfacet
  facet normal 0 0 -1
    outer loop
      vertex 5.8978 21.1924 0
      vertex 11.9484 26.1212 0
      vertex 6.44879 20.6727 0
    endloop
  endfacet
  facet normal 0 0 -1
    outer loop
      vertex 5.3976 21.7544 0
      vertex 11.9484 26.1212 0
      vertex 5.8978 21.1924 0
    endloop
  endfacet
  facet normal -0 0 -1
    outer loop
      vertex 11.9484 26.1212 0
      vertex 5.3976 21.7544 0
      vertex 11.6103 26.6299 0
    endloop
  endfacet
  facet normal 0 -0 -1
    outer loop
      vertex 3.63406 30.5403 0
      vertex 11.1756 28.5628 0
      vertex 3.39079 28.1016 0
    endloop
  endfacet
  facet normal 0 0 -1
    outer loop
      vertex 4.94926 22.363 0
      vertex 11.6103 26.6299 0
      vertex 5.3976 21.7544 0
    endloop
  endfacet
  facet normal 0 0 -1
    outer loop
      vertex 4.5535 23.0225 0
      vertex 11.6103 26.6299 0
      vertex 4.94926 22.363 0
    endloop
  endfacet
  facet normal 0 0 -1
    outer loop
      vertex 4.21027 23.7328 0
      vertex 11.6103 26.6299 0
      vertex 4.5535 23.0225 0
    endloop
  endfacet
  facet normal 0 0 -1
    outer loop
      vertex 11.2239 27.8507 0
      vertex 3.39079 28.1016 0
      vertex 11.1756 28.5628 0
    endloop
  endfacet
  facet normal -0 0 -1
    outer loop
      vertex 11.6103 26.6299 0
      vertex 4.21027 23.7328 0
      vertex 11.3688 27.2064 0
    endloop
  endfacet
  facet normal 0 0 -1
    outer loop
      vertex 3.91959 24.494 0
      vertex 11.3688 27.2064 0
      vertex 4.21027 23.7328 0
    endloop
  endfacet
  facet normal 0 0 -1
    outer loop
      vertex 3.68825 25.3094 0
      vertex 11.3688 27.2064 0
      vertex 3.91959 24.494 0
    endloop
  endfacet
  facet normal 0 0 -1
    outer loop
      vertex 12.993 31.9804 0
      vertex 7.28319 36.0356 0
      vertex 9.45062 37.2401 0
    endloop
  endfacet
  facet normal 0 0 -1
    outer loop
      vertex 3.52299 26.1825 0
      vertex 11.3688 27.2064 0
      vertex 3.68825 25.3094 0
    endloop
  endfacet
  facet normal -0 0 -1
    outer loop
      vertex 11.3688 27.2064 0
      vertex 3.52299 26.1825 0
      vertex 11.2239 27.8507 0
    endloop
  endfacet
  facet normal 0 0 -1
    outer loop
      vertex 3.42384 27.1132 0
      vertex 11.2239 27.8507 0
      vertex 3.52299 26.1825 0
    endloop
  endfacet
  facet normal 0 0 -1
    outer loop
      vertex 3.39079 28.1016 0
      vertex 11.2239 27.8507 0
      vertex 3.42384 27.1132 0
    endloop
  endfacet
  facet normal 0 -0 -1
    outer loop
      vertex 4.36389 32.6755 0
      vertex 11.1756 28.5628 0
      vertex 3.63406 30.5403 0
    endloop
  endfacet
  facet normal 0 0 -1
    outer loop
      vertex 11.6299 30.5564 0
      vertex 5.58026 34.5073 0
      vertex 7.28319 36.0356 0
    endloop
  endfacet
  facet normal 0 0 -1
    outer loop
      vertex 11.6299 30.5564 0
      vertex 4.36389 32.6755 0
      vertex 5.58026 34.5073 0
    endloop
  endfacet
  facet normal 0 0 -1
    outer loop
      vertex 25.6042 13.7437 0
      vertex 25.7301 15.694 0
      vertex 26.1348 13.2368 0
    endloop
  endfacet
  facet normal 0 0 -1
    outer loop
      vertex 24.9753 14.2066 0
      vertex 25.7301 15.694 0
      vertex 25.6042 13.7437 0
    endloop
  endfacet
  facet normal 0 0 -1
    outer loop
      vertex 24.9753 14.2066 0
      vertex 24.7301 14.694 0
      vertex 25.7301 15.694 0
    endloop
  endfacet
  facet normal 0 0 -1
    outer loop
      vertex 24.248 14.6253 0
      vertex 24.7301 14.694 0
      vertex 24.9753 14.2066 0
    endloop
  endfacet
  facet normal 0 0 -1
    outer loop
      vertex 24.248 14.6253 0
      vertex 23.7301 15.694 0
      vertex 24.7301 14.694 0
    endloop
  endfacet
  facet normal 0 -0 -1
    outer loop
      vertex 23.7301 15.694 0
      vertex 24.248 14.6253 0
      vertex 23.4224 15 0
    endloop
  endfacet
  facet normal 0 0 -1
    outer loop
      vertex 27.0378 11.3298 0
      vertex 34.837 12.1714 0
      vertex 34.8828 11.0128 0
    endloop
  endfacet
  facet normal 0 0 -1
    outer loop
      vertex 27.098 10.5516 0
      vertex 34.8828 11.0128 0
      vertex 34.6225 8.37067 0
    endloop
  endfacet
  facet normal 0 0 -1
    outer loop
      vertex 27.0378 11.3298 0
      vertex 34.8828 11.0128 0
      vertex 27.098 10.5516 0
    endloop
  endfacet
  facet normal 0 0 -1
    outer loop
      vertex 26.8572 12.0367 0
      vertex 34.6997 13.2606 0
      vertex 27.0378 11.3298 0
    endloop
  endfacet
  facet normal 0 0 -1
    outer loop
      vertex 26.5741 8.32051 0
      vertex 34.6225 8.37067 0
      vertex 33.8418 6.0591 0
    endloop
  endfacet
  facet normal -0 0 -1
    outer loop
      vertex 34.837 12.1714 0
      vertex 27.0378 11.3298 0
      vertex 34.6997 13.2606 0
    endloop
  endfacet
  facet normal -0 0 -1
    outer loop
      vertex 34.6997 13.2606 0
      vertex 26.8572 12.0367 0
      vertex 34.4708 14.2802 0
    endloop
  endfacet
  facet normal -0 0 -1
    outer loop
      vertex 34.1504 15.2304 0
      vertex 26.8572 12.0367 0
      vertex 33.7435 16.1138 0
    endloop
  endfacet
  facet normal 0 0 -1
    outer loop
      vertex 26.5741 8.32051 0
      vertex 33.8418 6.0591 0
      vertex 32.5405 4.07806 0
    endloop
  endfacet
  facet normal -0 0 -1
    outer loop
      vertex 34.4708 14.2802 0
      vertex 26.8572 12.0367 0
      vertex 34.1504 15.2304 0
    endloop
  endfacet
  facet normal 0 0 -1
    outer loop
      vertex 26.5562 12.6724 0
      vertex 33.7435 16.1138 0
      vertex 26.8572 12.0367 0
    endloop
  endfacet
  facet normal 0 0 -1
    outer loop
      vertex 26.5741 8.32051 0
      vertex 32.5405 4.07806 0
      vertex 30.7188 2.4276 0
    endloop
  endfacet
  facet normal -0 0 -1
    outer loop
      vertex 33.7435 16.1138 0
      vertex 26.5562 12.6724 0
      vertex 33.2552 16.9327 0
    endloop
  endfacet
  facet normal -0 0 -1
    outer loop
      vertex 33.2552 16.9327 0
      vertex 26.5562 12.6724 0
      vertex 32.6855 17.6872 0
    endloop
  endfacet
  facet normal 0 0 -1
    outer loop
      vertex 25.0026 6.7269 0
      vertex 30.7188 2.4276 0
      vertex 28.3937 1.12822 0
    endloop
  endfacet
  facet normal 0 0 -1
    outer loop
      vertex 25.7301 15.694 0
      vertex 32.6855 17.6872 0
      vertex 26.5562 12.6724 0
    endloop
  endfacet
  facet normal -0 0 -1
    outer loop
      vertex 32.6855 17.6872 0
      vertex 25.7301 15.694 0
      vertex 32.0344 18.3772 0
    endloop
  endfacet
  facet normal -0 0 -1
    outer loop
      vertex 34.6225 8.37067 0
      vertex 26.5741 8.32051 0
      vertex 27.098 10.5516 0
    endloop
  endfacet
  facet normal 0 0 -1
    outer loop
      vertex 25.0026 6.7269 0
      vertex 28.3937 1.12822 0
      vertex 25.5821 0.200089 0
    endloop
  endfacet
  facet normal 0 0 -1
    outer loop
      vertex 30.7188 2.4276 0
      vertex 25.0026 6.7269 0
      vertex 26.5741 8.32051 0
    endloop
  endfacet
  facet normal 0 0 -1
    outer loop
      vertex 25.5821 0.200089 0
      vertex 22.3833 5.77072 0
      vertex 25.0026 6.7269 0
    endloop
  endfacet
  facet normal 0 0 -1
    outer loop
      vertex 22.2839 -0.356766 0
      vertex 22.3833 5.77072 0
      vertex 25.5821 0.200089 0
    endloop
  endfacet
  facet normal 0 0 -1
    outer loop
      vertex 22.2839 -0.356766 0
      vertex 18.7164 5.452 0
      vertex 22.3833 5.77072 0
    endloop
  endfacet
  facet normal 0 0 -1
    outer loop
      vertex 18.4992 -0.542389 0
      vertex 18.7164 5.452 0
      vertex 22.2839 -0.356766 0
    endloop
  endfacet
  facet normal 0 0 -1
    outer loop
      vertex 18.4992 -0.542389 0
      vertex 16.8058 5.5376 0
      vertex 18.7164 5.452 0
    endloop
  endfacet
  facet normal 0 0 -1
    outer loop
      vertex 15.0221 -0.379639 0
      vertex 16.8058 5.5376 0
      vertex 18.4992 -0.542389 0
    endloop
  endfacet
  facet normal -0 0 -1
    outer loop
      vertex 16.8058 5.5376 0
      vertex 15.0221 -0.379639 0
      vertex 15.1155 5.79439 0
    endloop
  endfacet
  facet normal 0 0 -1
    outer loop
      vertex 11.9418 0.108597 0
      vertex 15.1155 5.79439 0
      vertex 15.0221 -0.379639 0
    endloop
  endfacet
  facet normal -0 0 -1
    outer loop
      vertex 15.1155 5.79439 0
      vertex 11.9418 0.108597 0
      vertex 13.6456 6.2224 0
    endloop
  endfacet
  facet normal -0 0 -1
    outer loop
      vertex 13.6456 6.2224 0
      vertex 11.9418 0.108597 0
      vertex 12.396 6.82159 0
    endloop
  endfacet
  facet normal 0 0 -1
    outer loop
      vertex 9.25815 0.922348 0
      vertex 12.396 6.82159 0
      vertex 11.9418 0.108597 0
    endloop
  endfacet
  facet normal -0 0 -1
    outer loop
      vertex 12.396 6.82159 0
      vertex 9.25815 0.922348 0
      vertex 11.35 7.61084 0
    endloop
  endfacet
  facet normal 0 0 -1
    outer loop
      vertex 6.97119 2.0616 0
      vertex 11.35 7.61084 0
      vertex 9.25815 0.922348 0
    endloop
  endfacet
  facet normal 0 0 -1
    outer loop
      vertex 5.06906 3.53142 0
      vertex 11.35 7.61084 0
      vertex 6.97119 2.0616 0
    endloop
  endfacet
  facet normal -0 0 -1
    outer loop
      vertex 11.35 7.61084 0
      vertex 5.06906 3.53142 0
      vertex 10.4906 8.6086 0
    endloop
  endfacet
  facet normal 0 0 -1
    outer loop
      vertex 3.53989 5.3369 0
      vertex 10.4906 8.6086 0
      vertex 5.06906 3.53142 0
    endloop
  endfacet
  facet normal -0 0 -1
    outer loop
      vertex 10.4906 8.6086 0
      vertex 3.53989 5.3369 0
      vertex 9.81764 9.81485 0
    endloop
  endfacet
  facet normal 0 0 -1
    outer loop
      vertex 2.38367 7.47801 0
      vertex 9.81764 9.81485 0
      vertex 3.53989 5.3369 0
    endloop
  endfacet
  facet normal -0 0 -1
    outer loop
      vertex 9.81764 9.81485 0
      vertex 2.38367 7.47801 0
      vertex 9.33119 11.2296 0
    endloop
  endfacet
  facet normal 0 0 -1
    outer loop
      vertex 9.33119 11.2296 0
      vertex 2.38367 7.47801 0
      vertex 1.60039 9.95479 0
    endloop
  endfacet
  facet normal -0 0 -1
    outer loop
      vertex 32.0344 18.3772 0
      vertex 25.7301 15.694 0
      vertex 31.2809 19.0146 0
    endloop
  endfacet
  facet normal -0 0 -1
    outer loop
      vertex 31.2809 19.0146 0
      vertex 25.7301 15.694 0
      vertex 30.4036 19.6114 0
    endloop
  endfacet
  facet normal -0 0 -1
    outer loop
      vertex 30.4036 19.6114 0
      vertex 25.7301 15.694 0
      vertex 29.4025 20.1674 0
    endloop
  endfacet
  facet normal -0 0 -1
    outer loop
      vertex 29.4025 20.1674 0
      vertex 25.7301 15.694 0
      vertex 28.2776 20.6828 0
    endloop
  endfacet
  facet normal 0 0 -1
    outer loop
      vertex 25.7301 15.694 0
      vertex 26.5562 12.6724 0
      vertex 26.1348 13.2368 0
    endloop
  endfacet
  facet normal 0 0 -1
    outer loop
      vertex 24.7301 16.694 0
      vertex 28.2776 20.6828 0
      vertex 25.7301 15.694 0
    endloop
  endfacet
  facet normal -0 0 -1
    outer loop
      vertex 28.2776 20.6828 0
      vertex 24.7301 16.694 0
      vertex 26.8952 21.1888 0
    endloop
  endfacet
  facet normal -0 0 -1
    outer loop
      vertex 26.8952 21.1888 0
      vertex 24.7301 16.694 0
      vertex 25.1211 21.7169 0
    endloop
  endfacet
  facet normal 0 0 -1
    outer loop
      vertex 22.3467 15.3713 0
      vertex 24.7301 16.694 0
      vertex 23.7301 15.694 0
    endloop
  endfacet
  facet normal 0 0 -1
    outer loop
      vertex 22.3467 15.3713 0
      vertex 23.7301 15.694 0
      vertex 23.4224 15 0
    endloop
  endfacet
  facet normal 0 0 -1
    outer loop
      vertex 24.7301 16.694 0
      vertex 22.3467 15.3713 0
      vertex 20.8693 15.7799 0
    endloop
  endfacet
  facet normal 0 0 -1
    outer loop
      vertex 24.7301 16.694 0
      vertex 22.9554 22.267 0
      vertex 25.1211 21.7169 0
    endloop
  endfacet
  facet normal -0 0 -1
    outer loop
      vertex 24.7301 16.694 0
      vertex 20.8693 15.7799 0
      vertex 22.9554 22.267 0
    endloop
  endfacet
  facet normal 0 0 -1
    outer loop
      vertex 20.8693 15.7799 0
      vertex 20.398 22.8392 0
      vertex 22.9554 22.267 0
    endloop
  endfacet
  facet normal 0 0 -1
    outer loop
      vertex 18.9901 16.2259 0
      vertex 20.398 22.8392 0
      vertex 20.8693 15.7799 0
    endloop
  endfacet
  facet normal 0 0 -1
    outer loop
      vertex 18.9901 16.2259 0
      vertex 18.2737 23.3198 0
      vertex 20.398 22.8392 0
    endloop
  endfacet
  facet normal 0 0 -1
    outer loop
      vertex 16.7092 16.7092 0
      vertex 18.2737 23.3198 0
      vertex 18.9901 16.2259 0
    endloop
  endfacet
  facet normal 0 0 -1
    outer loop
      vertex 16.7092 16.7092 0
      vertex 16.5394 23.758 0
      vertex 18.2737 23.3198 0
    endloop
  endfacet
  facet normal 0 0 -1
    outer loop
      vertex 14.7289 17.1864 0
      vertex 16.5394 23.758 0
      vertex 16.7092 16.7092 0
    endloop
  endfacet
  facet normal -0 0 -1
    outer loop
      vertex 16.5394 23.758 0
      vertex 14.7289 17.1864 0
      vertex 15.1949 24.1538 0
    endloop
  endfacet
  facet normal 0 0 -1
    outer loop
      vertex 13.0742 17.6144 0
      vertex 15.1949 24.1538 0
      vertex 14.7289 17.1864 0
    endloop
  endfacet
  facet normal -0 0 -1
    outer loop
      vertex 15.1949 24.1538 0
      vertex 13.0742 17.6144 0
      vertex 14.2404 24.5072 0
    endloop
  endfacet
  facet normal 0 0 -1
    outer loop
      vertex 11.7449 17.9932 0
      vertex 14.2404 24.5072 0
      vertex 13.0742 17.6144 0
    endloop
  endfacet
  facet normal -0 0 -1
    outer loop
      vertex 14.2404 24.5072 0
      vertex 11.7449 17.9932 0
      vertex 13.5276 24.8574 0
    endloop
  endfacet
  facet normal 0 0 -1
    outer loop
      vertex 10.7412 18.3228 0
      vertex 13.5276 24.8574 0
      vertex 11.7449 17.9932 0
    endloop
  endfacet
  facet normal 0 0 -1
    outer loop
      vertex 9.92072 18.6415 0
      vertex 13.5276 24.8574 0
      vertex 10.7412 18.3228 0
    endloop
  endfacet
  facet normal -0 0 -1
    outer loop
      vertex 13.5276 24.8574 0
      vertex 9.92072 18.6415 0
      vertex 12.908 25.2431 0
    endloop
  endfacet
  facet normal 0 0 -1
    outer loop
      vertex 9.1409 18.9874 0
      vertex 12.908 25.2431 0
      vertex 9.92072 18.6415 0
    endloop
  endfacet
  facet normal 0 0 -1
    outer loop
      vertex 8.40172 19.3603 0
      vertex 12.908 25.2431 0
      vertex 9.1409 18.9874 0
    endloop
  endfacet
  facet normal -0 0 -1
    outer loop
      vertex 12.908 25.2431 0
      vertex 8.40172 19.3603 0
      vertex 12.3816 25.6644 0
    endloop
  endfacet
  facet normal 0 0 -1
    outer loop
      vertex 7.70319 19.7604 0
      vertex 12.3816 25.6644 0
      vertex 8.40172 19.3603 0
    endloop
  endfacet
  facet normal 0 0 -1
    outer loop
      vertex 7.0506 20.1954 0
      vertex 12.3816 25.6644 0
      vertex 7.70319 19.7604 0
    endloop
  endfacet
  facet normal 0 0 1
    outer loop
      vertex 25.7458 29.3135 5
      vertex 33.2053 31.5956 5
      vertex 32.2143 33.6147 5
    endloop
  endfacet
  facet normal 0 0 1
    outer loop
      vertex 25.2161 30.3188 5
      vertex 32.2143 33.6147 5
      vertex 30.9063 35.271 5
    endloop
  endfacet
  facet normal 0 0 1
    outer loop
      vertex 25.2161 30.3188 5
      vertex 30.9063 35.271 5
      vertex 29.2812 36.5644 5
    endloop
  endfacet
  facet normal 0 0 1
    outer loop
      vertex 24.532 31.1715 5
      vertex 29.2812 36.5644 5
      vertex 27.2765 37.5376 5
    endloop
  endfacet
  facet normal 0 0 1
    outer loop
      vertex 32.2143 33.6147 5
      vertex 25.2161 30.3188 5
      vertex 25.7458 29.3135 5
    endloop
  endfacet
  facet normal 0 0 1
    outer loop
      vertex 33.2053 31.5956 5
      vertex 26.1212 28.1556 5
      vertex 33.8792 29.2136 5
    endloop
  endfacet
  facet normal 0 -0 1
    outer loop
      vertex 26.1212 28.1556 5
      vertex 33.2053 31.5956 5
      vertex 25.7458 29.3135 5
    endloop
  endfacet
  facet normal 0 0 1
    outer loop
      vertex 23.6936 31.8716 5
      vertex 27.2765 37.5376 5
      vertex 24.8294 38.2327 5
    endloop
  endfacet
  facet normal 0 0 1
    outer loop
      vertex 29.2812 36.5644 5
      vertex 24.532 31.1715 5
      vertex 25.2161 30.3188 5
    endloop
  endfacet
  facet normal 0 0 1
    outer loop
      vertex 27.2765 37.5376 5
      vertex 23.6936 31.8716 5
      vertex 24.532 31.1715 5
    endloop
  endfacet
  facet normal 0 0 1
    outer loop
      vertex 24.8294 38.2327 5
      vertex 22.679 32.4176 5
      vertex 23.6936 31.8716 5
    endloop
  endfacet
  facet normal 0 0 1
    outer loop
      vertex 21.4661 32.8076 5
      vertex 24.8294 38.2327 5
      vertex 21.9397 38.6498 5
    endloop
  endfacet
  facet normal 0 0 1
    outer loop
      vertex 24.8294 38.2327 5
      vertex 21.4661 32.8076 5
      vertex 22.679 32.4176 5
    endloop
  endfacet
  facet normal 0 0 1
    outer loop
      vertex 21.9397 38.6498 5
      vertex 20.0548 33.0416 5
      vertex 21.4661 32.8076 5
    endloop
  endfacet
  facet normal 0 0 1
    outer loop
      vertex 18.6076 38.7888 5
      vertex 20.0548 33.0416 5
      vertex 21.9397 38.6498 5
    endloop
  endfacet
  facet normal 0 0 1
    outer loop
      vertex 18.6076 38.7888 5
      vertex 18.4452 33.1196 5
      vertex 20.0548 33.0416 5
    endloop
  endfacet
  facet normal -0 0 1
    outer loop
      vertex 15.1128 38.6167 5
      vertex 18.4452 33.1196 5
      vertex 18.6076 38.7888 5
    endloop
  endfacet
  facet normal 0 0 1
    outer loop
      vertex 18.4452 33.1196 5
      vertex 15.1128 38.6167 5
      vertex 15.2647 32.8348 5
    endloop
  endfacet
  facet normal -0 0 1
    outer loop
      vertex 12.0605 38.1005 5
      vertex 15.2647 32.8348 5
      vertex 15.1128 38.6167 5
    endloop
  endfacet
  facet normal 0 0 1
    outer loop
      vertex 15.2647 32.8348 5
      vertex 12.0605 38.1005 5
      vertex 12.993 31.9804 5
    endloop
  endfacet
  facet normal -0 0 1
    outer loop
      vertex 9.45062 37.2401 5
      vertex 12.993 31.9804 5
      vertex 12.0605 38.1005 5
    endloop
  endfacet
  facet normal -0 0 1
    outer loop
      vertex 7.28319 36.0356 5
      vertex 12.993 31.9804 5
      vertex 9.45062 37.2401 5
    endloop
  endfacet
  facet normal 0 0 1
    outer loop
      vertex 13.5276 24.8574 5
      vertex 9.92072 18.6415 5
      vertex 10.7412 18.3228 5
    endloop
  endfacet
  facet normal 0 0 1
    outer loop
      vertex 12.993 31.9804 5
      vertex 7.28319 36.0356 5
      vertex 11.6299 30.5564 5
    endloop
  endfacet
  facet normal -0 0 1
    outer loop
      vertex 5.58026 34.5073 5
      vertex 11.6299 30.5564 5
      vertex 7.28319 36.0356 5
    endloop
  endfacet
  facet normal 0 0 1
    outer loop
      vertex 11.2239 27.8507 5
      vertex 9.1409 18.9874 5
      vertex 9.92072 18.6415 5
    endloop
  endfacet
  facet normal 0 0 1
    outer loop
      vertex 11.2239 27.8507 5
      vertex 3.39079 28.1016 5
      vertex 3.42384 27.1132 5
    endloop
  endfacet
  facet normal 0 0 1
    outer loop
      vertex 11.2239 27.8507 5
      vertex 8.40172 19.3603 5
      vertex 9.1409 18.9874 5
    endloop
  endfacet
  facet normal -0 0 1
    outer loop
      vertex 4.36389 32.6755 5
      vertex 11.6299 30.5564 5
      vertex 5.58026 34.5073 5
    endloop
  endfacet
  facet normal 0 0 1
    outer loop
      vertex 11.2239 27.8507 5
      vertex 3.42384 27.1132 5
      vertex 3.52299 26.1825 5
    endloop
  endfacet
  facet normal 0 0 1
    outer loop
      vertex 11.2239 27.8507 5
      vertex 3.52299 26.1825 5
      vertex 3.68825 25.3094 5
    endloop
  endfacet
  facet normal 0 0 1
    outer loop
      vertex 11.2239 27.8507 5
      vertex 7.0506 20.1954 5
      vertex 7.70319 19.7604 5
    endloop
  endfacet
  facet normal 0 0 1
    outer loop
      vertex 11.6299 30.5564 5
      vertex 4.36389 32.6755 5
      vertex 11.1756 28.5628 5
    endloop
  endfacet
  facet normal 0 0 1
    outer loop
      vertex 11.2239 27.8507 5
      vertex 6.44879 20.6727 5
      vertex 7.0506 20.1954 5
    endloop
  endfacet
  facet normal 0 0 1
    outer loop
      vertex 11.2239 27.8507 5
      vertex 5.8978 21.1924 5
      vertex 6.44879 20.6727 5
    endloop
  endfacet
  facet normal 0 0 1
    outer loop
      vertex 11.2239 27.8507 5
      vertex 5.3976 21.7544 5
      vertex 5.8978 21.1924 5
    endloop
  endfacet
  facet normal 0 0 1
    outer loop
      vertex 11.1756 28.5628 5
      vertex 4.36389 32.6755 5
      vertex 3.63406 30.5403 5
    endloop
  endfacet
  facet normal 0 0 1
    outer loop
      vertex 11.2239 27.8507 5
      vertex 4.94926 22.363 5
      vertex 5.3976 21.7544 5
    endloop
  endfacet
  facet normal 0 0 1
    outer loop
      vertex 11.2239 27.8507 5
      vertex 4.5535 23.0225 5
      vertex 4.94926 22.363 5
    endloop
  endfacet
  facet normal 0 0 1
    outer loop
      vertex 11.2239 27.8507 5
      vertex 4.21027 23.7328 5
      vertex 4.5535 23.0225 5
    endloop
  endfacet
  facet normal 0 0 1
    outer loop
      vertex 11.1756 28.5628 5
      vertex 3.63406 30.5403 5
      vertex 3.39079 28.1016 5
    endloop
  endfacet
  facet normal 0 0 1
    outer loop
      vertex 11.2239 27.8507 5
      vertex 3.68825 25.3094 5
      vertex 3.91959 24.494 5
    endloop
  endfacet
  facet normal 0 0 1
    outer loop
      vertex 11.2239 27.8507 5
      vertex 3.91959 24.494 5
      vertex 4.21027 23.7328 5
    endloop
  endfacet
  facet normal 0 0 1
    outer loop
      vertex 11.2239 27.8507 5
      vertex 7.70319 19.7604 5
      vertex 8.40172 19.3603 5
    endloop
  endfacet
  facet normal 0 0 1
    outer loop
      vertex 34.8828 11.0128 5
      vertex 27.0378 11.3298 5
      vertex 27.098 10.5516 5
    endloop
  endfacet
  facet normal 0 0 1
    outer loop
      vertex 24.248 14.6253 5
      vertex 28.2776 20.6828 5
      vertex 26.8952 21.1888 5
    endloop
  endfacet
  facet normal 0 0 1
    outer loop
      vertex 29.4025 20.1674 5
      vertex 26.8572 12.0367 5
      vertex 27.0378 11.3298 5
    endloop
  endfacet
  facet normal 0 0 1
    outer loop
      vertex 29.4025 20.1674 5
      vertex 26.5562 12.6724 5
      vertex 26.8572 12.0367 5
    endloop
  endfacet
  facet normal 0 0 1
    outer loop
      vertex 29.4025 20.1674 5
      vertex 26.1348 13.2368 5
      vertex 26.5562 12.6724 5
    endloop
  endfacet
  facet normal 0 0 1
    outer loop
      vertex 29.4025 20.1674 5
      vertex 25.6042 13.7437 5
      vertex 26.1348 13.2368 5
    endloop
  endfacet
  facet normal 0 0 1
    outer loop
      vertex 23.4224 15 5
      vertex 26.8952 21.1888 5
      vertex 25.1211 21.7169 5
    endloop
  endfacet
  facet normal 0 0 1
    outer loop
      vertex 29.4025 20.1674 5
      vertex 24.9753 14.2066 5
      vertex 25.6042 13.7437 5
    endloop
  endfacet
  facet normal 0 0 1
    outer loop
      vertex 28.2776 20.6828 5
      vertex 24.248 14.6253 5
      vertex 24.9753 14.2066 5
    endloop
  endfacet
  facet normal 0 0 1
    outer loop
      vertex 26.8952 21.1888 5
      vertex 23.4224 15 5
      vertex 24.248 14.6253 5
    endloop
  endfacet
  facet normal 0 0 1
    outer loop
      vertex 22.3467 15.3713 5
      vertex 25.1211 21.7169 5
      vertex 22.9554 22.267 5
    endloop
  endfacet
  facet normal 0 0 1
    outer loop
      vertex 25.1211 21.7169 5
      vertex 22.3467 15.3713 5
      vertex 23.4224 15 5
    endloop
  endfacet
  facet normal 0 0 1
    outer loop
      vertex 22.9554 22.267 5
      vertex 20.8693 15.7799 5
      vertex 22.3467 15.3713 5
    endloop
  endfacet
  facet normal 0 0 1
    outer loop
      vertex 20.398 22.8392 5
      vertex 20.8693 15.7799 5
      vertex 22.9554 22.267 5
    endloop
  endfacet
  facet normal 0 0 1
    outer loop
      vertex 20.398 22.8392 5
      vertex 18.9901 16.2259 5
      vertex 20.8693 15.7799 5
    endloop
  endfacet
  facet normal 0 0 1
    outer loop
      vertex 18.2737 23.3198 5
      vertex 18.9901 16.2259 5
      vertex 20.398 22.8392 5
    endloop
  endfacet
  facet normal 0 0 1
    outer loop
      vertex 18.2737 23.3198 5
      vertex 16.7092 16.7092 5
      vertex 18.9901 16.2259 5
    endloop
  endfacet
  facet normal 0 0 1
    outer loop
      vertex 16.5394 23.758 5
      vertex 16.7092 16.7092 5
      vertex 18.2737 23.3198 5
    endloop
  endfacet
  facet normal 0 0 1
    outer loop
      vertex 14.7289 17.1864 5
      vertex 16.5394 23.758 5
      vertex 15.1949 24.1538 5
    endloop
  endfacet
  facet normal 0 0 1
    outer loop
      vertex 16.5394 23.758 5
      vertex 14.7289 17.1864 5
      vertex 16.7092 16.7092 5
    endloop
  endfacet
  facet normal 0 0 1
    outer loop
      vertex 13.0742 17.6144 5
      vertex 15.1949 24.1538 5
      vertex 14.2404 24.5072 5
    endloop
  endfacet
  facet normal 0 0 1
    outer loop
      vertex 11.7449 17.9932 5
      vertex 14.2404 24.5072 5
      vertex 13.5276 24.8574 5
    endloop
  endfacet
  facet normal 0 0 1
    outer loop
      vertex 15.1949 24.1538 5
      vertex 13.0742 17.6144 5
      vertex 14.7289 17.1864 5
    endloop
  endfacet
  facet normal 0 0 1
    outer loop
      vertex 9.92072 18.6415 5
      vertex 13.5276 24.8574 5
      vertex 12.908 25.2431 5
    endloop
  endfacet
  facet normal 0 0 1
    outer loop
      vertex 9.92072 18.6415 5
      vertex 12.908 25.2431 5
      vertex 12.3816 25.6644 5
    endloop
  endfacet
  facet normal 0 0 1
    outer loop
      vertex 9.92072 18.6415 5
      vertex 12.3816 25.6644 5
      vertex 11.9484 26.1212 5
    endloop
  endfacet
  facet normal 0 0 1
    outer loop
      vertex 14.2404 24.5072 5
      vertex 11.7449 17.9932 5
      vertex 13.0742 17.6144 5
    endloop
  endfacet
  facet normal 0 0 1
    outer loop
      vertex 9.92072 18.6415 5
      vertex 11.9484 26.1212 5
      vertex 11.6103 26.6299 5
    endloop
  endfacet
  facet normal 0 0 1
    outer loop
      vertex 9.92072 18.6415 5
      vertex 11.6103 26.6299 5
      vertex 11.3688 27.2064 5
    endloop
  endfacet
  facet normal 0 0 1
    outer loop
      vertex 9.92072 18.6415 5
      vertex 11.3688 27.2064 5
      vertex 11.2239 27.8507 5
    endloop
  endfacet
  facet normal -0 0 1
    outer loop
      vertex 3.39079 28.1016 5
      vertex 11.2239 27.8507 5
      vertex 11.1756 28.5628 5
    endloop
  endfacet
  facet normal 0 0 1
    outer loop
      vertex 13.5276 24.8574 5
      vertex 10.7412 18.3228 5
      vertex 11.7449 17.9932 5
    endloop
  endfacet
  facet normal 0 0 1
    outer loop
      vertex 27.0378 11.3298 5
      vertex 34.837 12.1714 5
      vertex 34.6997 13.2606 5
    endloop
  endfacet
  facet normal -0 0 1
    outer loop
      vertex 27.0378 11.3298 5
      vertex 34.8828 11.0128 5
      vertex 34.837 12.1714 5
    endloop
  endfacet
  facet normal 0 0 1
    outer loop
      vertex 27.0378 11.3298 5
      vertex 34.6997 13.2606 5
      vertex 34.4708 14.2802 5
    endloop
  endfacet
  facet normal 0 0 1
    outer loop
      vertex 27.0378 11.3298 5
      vertex 34.4708 14.2802 5
      vertex 34.1504 15.2304 5
    endloop
  endfacet
  facet normal 0 0 1
    outer loop
      vertex 34.8828 11.0128 5
      vertex 27.098 10.5516 5
      vertex 34.6225 8.37067 5
    endloop
  endfacet
  facet normal 0 0 1
    outer loop
      vertex 27.0378 11.3298 5
      vertex 34.1504 15.2304 5
      vertex 33.7435 16.1138 5
    endloop
  endfacet
  facet normal 0 0 1
    outer loop
      vertex 27.0378 11.3298 5
      vertex 33.7435 16.1138 5
      vertex 33.2552 16.9327 5
    endloop
  endfacet
  facet normal 0 0 1
    outer loop
      vertex 27.0378 11.3298 5
      vertex 33.2552 16.9327 5
      vertex 32.6855 17.6872 5
    endloop
  endfacet
  facet normal 0 0 1
    outer loop
      vertex 26.5741 8.32051 5
      vertex 34.6225 8.37067 5
      vertex 27.098 10.5516 5
    endloop
  endfacet
  facet normal 0 0 1
    outer loop
      vertex 27.0378 11.3298 5
      vertex 32.6855 17.6872 5
      vertex 32.0344 18.3772 5
    endloop
  endfacet
  facet normal 0 0 1
    outer loop
      vertex 27.0378 11.3298 5
      vertex 32.0344 18.3772 5
      vertex 31.2809 19.0146 5
    endloop
  endfacet
  facet normal 0 0 1
    outer loop
      vertex 34.6225 8.37067 5
      vertex 26.5741 8.32051 5
      vertex 33.8418 6.0591 5
    endloop
  endfacet
  facet normal 0 0 1
    outer loop
      vertex 27.0378 11.3298 5
      vertex 31.2809 19.0146 5
      vertex 30.4036 19.6114 5
    endloop
  endfacet
  facet normal 0 0 1
    outer loop
      vertex 27.0378 11.3298 5
      vertex 30.4036 19.6114 5
      vertex 29.4025 20.1674 5
    endloop
  endfacet
  facet normal 0 0 1
    outer loop
      vertex 33.8418 6.0591 5
      vertex 26.5741 8.32051 5
      vertex 32.5405 4.07806 5
    endloop
  endfacet
  facet normal 0 0 1
    outer loop
      vertex 24.9753 14.2066 5
      vertex 29.4025 20.1674 5
      vertex 28.2776 20.6828 5
    endloop
  endfacet
  facet normal 0 0 1
    outer loop
      vertex 32.5405 4.07806 5
      vertex 26.5741 8.32051 5
      vertex 30.7188 2.4276 5
    endloop
  endfacet
  facet normal -0 0 1
    outer loop
      vertex 25.0026 6.7269 5
      vertex 30.7188 2.4276 5
      vertex 26.5741 8.32051 5
    endloop
  endfacet
  facet normal 0 0 1
    outer loop
      vertex 30.7188 2.4276 5
      vertex 25.0026 6.7269 5
      vertex 28.3937 1.12822 5
    endloop
  endfacet
  facet normal 0 0 1
    outer loop
      vertex 28.3937 1.12822 5
      vertex 25.0026 6.7269 5
      vertex 25.5821 0.200089 5
    endloop
  endfacet
  facet normal -0 0 1
    outer loop
      vertex 22.3833 5.77072 5
      vertex 25.5821 0.200089 5
      vertex 25.0026 6.7269 5
    endloop
  endfacet
  facet normal 0 0 1
    outer loop
      vertex 22.3833 5.77072 5
      vertex 22.2839 -0.356766 5
      vertex 25.5821 0.200089 5
    endloop
  endfacet
  facet normal -0 0 1
    outer loop
      vertex 18.7164 5.452 5
      vertex 22.2839 -0.356766 5
      vertex 22.3833 5.77072 5
    endloop
  endfacet
  facet normal 0 0 1
    outer loop
      vertex 18.7164 5.452 5
      vertex 18.4992 -0.542389 5
      vertex 22.2839 -0.356766 5
    endloop
  endfacet
  facet normal 0 0 1
    outer loop
      vertex 16.8058 5.5376 5
      vertex 18.4992 -0.542389 5
      vertex 18.7164 5.452 5
    endloop
  endfacet
  facet normal 0 0 1
    outer loop
      vertex 15.0221 -0.379639 5
      vertex 16.8058 5.5376 5
      vertex 15.1155 5.79439 5
    endloop
  endfacet
  facet normal 0 0 1
    outer loop
      vertex 16.8058 5.5376 5
      vertex 15.0221 -0.379639 5
      vertex 18.4992 -0.542389 5
    endloop
  endfacet
  facet normal 0 0 1
    outer loop
      vertex 11.9418 0.108597 5
      vertex 15.1155 5.79439 5
      vertex 13.6456 6.2224 5
    endloop
  endfacet
  facet normal 0 0 1
    outer loop
      vertex 11.9418 0.108597 5
      vertex 13.6456 6.2224 5
      vertex 12.396 6.82159 5
    endloop
  endfacet
  facet normal 0 0 1
    outer loop
      vertex 15.1155 5.79439 5
      vertex 11.9418 0.108597 5
      vertex 15.0221 -0.379639 5
    endloop
  endfacet
  facet normal 0 0 1
    outer loop
      vertex 9.25815 0.922348 5
      vertex 12.396 6.82159 5
      vertex 11.35 7.61084 5
    endloop
  endfacet
  facet normal 0 0 1
    outer loop
      vertex 5.06906 3.53142 5
      vertex 11.35 7.61084 5
      vertex 10.4906 8.6086 5
    endloop
  endfacet
  facet normal 0 0 1
    outer loop
      vertex 3.53989 5.3369 5
      vertex 10.4906 8.6086 5
      vertex 9.81764 9.81485 5
    endloop
  endfacet
  facet normal 0 0 1
    outer loop
      vertex 2.38367 7.47801 5
      vertex 9.81764 9.81485 5
      vertex 9.33119 11.2296 5
    endloop
  endfacet
  facet normal 0 0 1
    outer loop
      vertex 12.396 6.82159 5
      vertex 9.25815 0.922348 5
      vertex 11.9418 0.108597 5
    endloop
  endfacet
  facet normal 0 0 1
    outer loop
      vertex 11.35 7.61084 5
      vertex 6.97119 2.0616 5
      vertex 9.25815 0.922348 5
    endloop
  endfacet
  facet normal 0 0 1
    outer loop
      vertex 11.35 7.61084 5
      vertex 5.06906 3.53142 5
      vertex 6.97119 2.0616 5
    endloop
  endfacet
  facet normal 0 0 1
    outer loop
      vertex 10.4906 8.6086 5
      vertex 3.53989 5.3369 5
      vertex 5.06906 3.53142 5
    endloop
  endfacet
  facet normal 0 0 1
    outer loop
      vertex 9.81764 9.81485 5
      vertex 2.38367 7.47801 5
      vertex 3.53989 5.3369 5
    endloop
  endfacet
  facet normal 0 -0 1
    outer loop
      vertex 2.38367 7.47801 5
      vertex 9.33119 11.2296 5
      vertex 1.60039 9.95479 5
    endloop
  endfacet
  facet normal 0.16648 -0.986045 0
    outer loop
      vertex 22.2839 -0.356766 0
      vertex 25.5821 0.200089 5
      vertex 22.2839 -0.356766 5
    endloop
  endfacet
  facet normal 0.16648 -0.986045 0
    outer loop
      vertex 25.5821 0.200089 5
      vertex 22.2839 -0.356766 0
      vertex 25.5821 0.200089 0
    endloop
  endfacet
  facet normal 0.31347 -0.949598 0
    outer loop
      vertex 25.5821 0.200089 0
      vertex 28.3937 1.12822 5
      vertex 25.5821 0.200089 5
    endloop
  endfacet
  facet normal 0.31347 -0.949598 0
    outer loop
      vertex 28.3937 1.12822 5
      vertex 25.5821 0.200089 0
      vertex 28.3937 1.12822 0
    endloop
  endfacet
  facet normal 0.487838 -0.872934 0
    outer loop
      vertex 28.3937 1.12822 0
      vertex 30.7188 2.4276 5
      vertex 28.3937 1.12822 5
    endloop
  endfacet
  facet normal 0.487838 -0.872934 0
    outer loop
      vertex 30.7188 2.4276 5
      vertex 28.3937 1.12822 0
      vertex 30.7188 2.4276 0
    endloop
  endfacet
  facet normal 0.671418 -0.741079 0
    outer loop
      vertex 30.7188 2.4276 0
      vertex 32.5405 4.07806 5
      vertex 30.7188 2.4276 5
    endloop
  endfacet
  facet normal 0.671418 -0.741079 0
    outer loop
      vertex 32.5405 4.07806 5
      vertex 30.7188 2.4276 0
      vertex 32.5405 4.07806 0
    endloop
  endfacet
  facet normal 0.835807 -0.549023 0
    outer loop
      vertex 32.5405 4.07806 5
      vertex 33.8418 6.0591 0
      vertex 33.8418 6.0591 5
    endloop
  endfacet
  facet normal 0.835807 -0.549023 0
    outer loop
      vertex 33.8418 6.0591 0
      vertex 32.5405 4.07806 5
      vertex 32.5405 4.07806 0
    endloop
  endfacet
  facet normal 0.947425 -0.319979 0
    outer loop
      vertex 33.8418 6.0591 5
      vertex 34.6225 8.37067 0
      vertex 34.6225 8.37067 5
    endloop
  endfacet
  facet normal 0.947425 -0.319979 0
    outer loop
      vertex 34.6225 8.37067 0
      vertex 33.8418 6.0591 5
      vertex 33.8418 6.0591 0
    endloop
  endfacet
  facet normal 0.995182 -0.0980443 0
    outer loop
      vertex 34.6225 8.37067 5
      vertex 34.8828 11.0128 0
      vertex 34.8828 11.0128 5
    endloop
  endfacet
  facet normal 0.995182 -0.0980443 0
    outer loop
      vertex 34.8828 11.0128 0
      vertex 34.6225 8.37067 5
      vertex 34.6225 8.37067 0
    endloop
  endfacet
  facet normal 0.99922 0.0394996 0
    outer loop
      vertex 34.8828 11.0128 5
      vertex 34.837 12.1714 0
      vertex 34.837 12.1714 5
    endloop
  endfacet
  facet normal 0.99922 0.0394996 0
    outer loop
      vertex 34.837 12.1714 0
      vertex 34.8828 11.0128 5
      vertex 34.8828 11.0128 0
    endloop
  endfacet
  facet normal 0.992148 0.125066 0
    outer loop
      vertex 34.837 12.1714 5
      vertex 34.6997 13.2606 0
      vertex 34.6997 13.2606 5
    endloop
  endfacet
  facet normal 0.992148 0.125066 0
    outer loop
      vertex 34.6997 13.2606 0
      vertex 34.837 12.1714 5
      vertex 34.837 12.1714 0
    endloop
  endfacet
  facet normal 0.975714 0.219048 0
    outer loop
      vertex 34.6997 13.2606 5
      vertex 34.4708 14.2802 0
      vertex 34.4708 14.2802 5
    endloop
  endfacet
  facet normal 0.975714 0.219048 0
    outer loop
      vertex 34.4708 14.2802 0
      vertex 34.6997 13.2606 5
      vertex 34.6997 13.2606 0
    endloop
  endfacet
  facet normal 0.947581 0.319517 0
    outer loop
      vertex 34.4708 14.2802 5
      vertex 34.1504 15.2304 0
      vertex 34.1504 15.2304 5
    endloop
  endfacet
  facet normal 0.947581 0.319517 0
    outer loop
      vertex 34.1504 15.2304 0
      vertex 34.4708 14.2802 5
      vertex 34.4708 14.2802 0
    endloop
  endfacet
  facet normal 0.908281 0.41836 0
    outer loop
      vertex 34.1504 15.2304 5
      vertex 33.7435 16.1138 0
      vertex 33.7435 16.1138 5
    endloop
  endfacet
  facet normal 0.908281 0.41836 0
    outer loop
      vertex 33.7435 16.1138 0
      vertex 34.1504 15.2304 5
      vertex 34.1504 15.2304 0
    endloop
  endfacet
  facet normal 0.858896 0.512149 0
    outer loop
      vertex 33.7435 16.1138 5
      vertex 33.2552 16.9327 0
      vertex 33.2552 16.9327 5
    endloop
  endfacet
  facet normal 0.858896 0.512149 0
    outer loop
      vertex 33.2552 16.9327 0
      vertex 33.7435 16.1138 5
      vertex 33.7435 16.1138 0
    endloop
  endfacet
  facet normal 0.798054 0.602586 0
    outer loop
      vertex 33.2552 16.9327 5
      vertex 32.6855 17.6872 0
      vertex 32.6855 17.6872 5
    endloop
  endfacet
  facet normal 0.798054 0.602586 0
    outer loop
      vertex 32.6855 17.6872 0
      vertex 33.2552 16.9327 5
      vertex 33.2552 16.9327 0
    endloop
  endfacet
  facet normal 0.727311 0.686308 0
    outer loop
      vertex 32.6855 17.6872 5
      vertex 32.0344 18.3772 0
      vertex 32.0344 18.3772 5
    endloop
  endfacet
  facet normal 0.727311 0.686308 0
    outer loop
      vertex 32.0344 18.3772 0
      vertex 32.6855 17.6872 5
      vertex 32.6855 17.6872 0
    endloop
  endfacet
  facet normal 0.645838 0.763475 -0
    outer loop
      vertex 32.0344 18.3772 0
      vertex 31.2809 19.0146 5
      vertex 32.0344 18.3772 5
    endloop
  endfacet
  facet normal 0.645838 0.763475 0
    outer loop
      vertex 31.2809 19.0146 5
      vertex 32.0344 18.3772 0
      vertex 31.2809 19.0146 0
    endloop
  endfacet
  facet normal 0.562462 0.826823 -0
    outer loop
      vertex 31.2809 19.0146 0
      vertex 30.4036 19.6114 5
      vertex 31.2809 19.0146 5
    endloop
  endfacet
  facet normal 0.562462 0.826823 0
    outer loop
      vertex 30.4036 19.6114 5
      vertex 31.2809 19.0146 0
      vertex 30.4036 19.6114 0
    endloop
  endfacet
  facet normal 0.485532 0.874219 -0
    outer loop
      vertex 30.4036 19.6114 0
      vertex 29.4025 20.1674 5
      vertex 30.4036 19.6114 5
    endloop
  endfacet
  facet normal 0.485532 0.874219 0
    outer loop
      vertex 29.4025 20.1674 5
      vertex 30.4036 19.6114 0
      vertex 29.4025 20.1674 0
    endloop
  endfacet
  facet normal 0.416535 0.90912 -0
    outer loop
      vertex 29.4025 20.1674 0
      vertex 28.2776 20.6828 5
      vertex 29.4025 20.1674 5
    endloop
  endfacet
  facet normal 0.416535 0.90912 0
    outer loop
      vertex 28.2776 20.6828 5
      vertex 29.4025 20.1674 0
      vertex 28.2776 20.6828 0
    endloop
  endfacet
  facet normal 0.343728 0.939069 -0
    outer loop
      vertex 28.2776 20.6828 0
      vertex 26.8952 21.1888 5
      vertex 28.2776 20.6828 5
    endloop
  endfacet
  facet normal 0.343728 0.939069 0
    outer loop
      vertex 26.8952 21.1888 5
      vertex 28.2776 20.6828 0
      vertex 26.8952 21.1888 0
    endloop
  endfacet
  facet normal 0.2853 0.958438 -0
    outer loop
      vertex 26.8952 21.1888 0
      vertex 25.1211 21.7169 5
      vertex 26.8952 21.1888 5
    endloop
  endfacet
  facet normal 0.2853 0.958438 0
    outer loop
      vertex 25.1211 21.7169 5
      vertex 26.8952 21.1888 0
      vertex 25.1211 21.7169 0
    endloop
  endfacet
  facet normal 0.246188 0.969222 -0
    outer loop
      vertex 25.1211 21.7169 0
      vertex 22.9554 22.267 5
      vertex 25.1211 21.7169 5
    endloop
  endfacet
  facet normal 0.246188 0.969222 0
    outer loop
      vertex 22.9554 22.267 5
      vertex 25.1211 21.7169 0
      vertex 22.9554 22.267 0
    endloop
  endfacet
  facet normal 0.218344 0.975872 -0
    outer loop
      vertex 22.9554 22.267 0
      vertex 20.398 22.8392 5
      vertex 22.9554 22.267 5
    endloop
  endfacet
  facet normal 0.218344 0.975872 0
    outer loop
      vertex 20.398 22.8392 5
      vertex 22.9554 22.267 0
      vertex 20.398 22.8392 0
    endloop
  endfacet
  facet normal 0.220662 0.97535 -0
    outer loop
      vertex 20.398 22.8392 0
      vertex 18.2737 23.3198 5
      vertex 20.398 22.8392 5
    endloop
  endfacet
  facet normal 0.220662 0.97535 0
    outer loop
      vertex 18.2737 23.3198 5
      vertex 20.398 22.8392 0
      vertex 18.2737 23.3198 0
    endloop
  endfacet
  facet normal 0.244968 0.969531 -0
    outer loop
      vertex 18.2737 23.3198 0
      vertex 16.5394 23.758 5
      vertex 18.2737 23.3198 5
    endloop
  endfacet
  facet normal 0.244968 0.969531 0
    outer loop
      vertex 16.5394 23.758 5
      vertex 18.2737 23.3198 0
      vertex 16.5394 23.758 0
    endloop
  endfacet
  facet normal 0.282402 0.959296 -0
    outer loop
      vertex 16.5394 23.758 0
      vertex 15.1949 24.1538 5
      vertex 16.5394 23.758 5
    endloop
  endfacet
  facet normal 0.282402 0.959296 0
    outer loop
      vertex 15.1949 24.1538 5
      vertex 16.5394 23.758 0
      vertex 15.1949 24.1538 0
    endloop
  endfacet
  facet normal 0.347212 0.937787 -0
    outer loop
      vertex 15.1949 24.1538 0
      vertex 14.2404 24.5072 5
      vertex 15.1949 24.1538 5
    endloop
  endfacet
  facet normal 0.347212 0.937787 0
    outer loop
      vertex 14.2404 24.5072 5
      vertex 15.1949 24.1538 0
      vertex 14.2404 24.5072 0
    endloop
  endfacet
  facet normal 0.440957 0.897528 -0
    outer loop
      vertex 14.2404 24.5072 0
      vertex 13.5276 24.8574 5
      vertex 14.2404 24.5072 5
    endloop
  endfacet
  facet normal 0.440957 0.897528 0
    outer loop
      vertex 13.5276 24.8574 5
      vertex 14.2404 24.5072 0
      vertex 13.5276 24.8574 0
    endloop
  endfacet
  facet normal 0.528471 0.848951 -0
    outer loop
      vertex 13.5276 24.8574 0
      vertex 12.908 25.2431 5
      vertex 13.5276 24.8574 5
    endloop
  endfacet
  facet normal 0.528471 0.848951 0
    outer loop
      vertex 12.908 25.2431 5
      vertex 13.5276 24.8574 0
      vertex 12.908 25.2431 0
    endloop
  endfacet
  facet normal 0.624858 0.780739 -0
    outer loop
      vertex 12.908 25.2431 0
      vertex 12.3816 25.6644 5
      vertex 12.908 25.2431 5
    endloop
  endfacet
  facet normal 0.624858 0.780739 0
    outer loop
      vertex 12.3816 25.6644 5
      vertex 12.908 25.2431 0
      vertex 12.3816 25.6644 0
    endloop
  endfacet
  facet normal 0.725602 0.688115 0
    outer loop
      vertex 12.3816 25.6644 5
      vertex 11.9484 26.1212 0
      vertex 11.9484 26.1212 5
    endloop
  endfacet
  facet normal 0.725602 0.688115 0
    outer loop
      vertex 11.9484 26.1212 0
      vertex 12.3816 25.6644 5
      vertex 12.3816 25.6644 0
    endloop
  endfacet
  facet normal 0.83283 0.553528 0
    outer loop
      vertex 11.9484 26.1212 5
      vertex 11.6103 26.6299 0
      vertex 11.6103 26.6299 5
    endloop
  endfacet
  facet normal 0.83283 0.553528 0
    outer loop
      vertex 11.6103 26.6299 0
      vertex 11.9484 26.1212 5
      vertex 11.9484 26.1212 0
    endloop
  endfacet
  facet normal 0.922342 0.386376 0
    outer loop
      vertex 11.6103 26.6299 5
      vertex 11.3688 27.2064 0
      vertex 11.3688 27.2064 5
    endloop
  endfacet
  facet normal 0.922342 0.386376 0
    outer loop
      vertex 11.3688 27.2064 0
      vertex 11.6103 26.6299 5
      vertex 11.6103 26.6299 0
    endloop
  endfacet
  facet normal 0.975632 0.219415 0
    outer loop
      vertex 11.3688 27.2064 5
      vertex 11.2239 27.8507 0
      vertex 11.2239 27.8507 5
    endloop
  endfacet
  facet normal 0.975632 0.219415 0
    outer loop
      vertex 11.2239 27.8507 0
      vertex 11.3688 27.2064 5
      vertex 11.3688 27.2064 0
    endloop
  endfacet
  facet normal 0.997708 0.0676721 0
    outer loop
      vertex 11.2239 27.8507 5
      vertex 11.1756 28.5628 0
      vertex 11.1756 28.5628 5
    endloop
  endfacet
  facet normal 0.997708 0.0676721 0
    outer loop
      vertex 11.1756 28.5628 0
      vertex 11.2239 27.8507 5
      vertex 11.2239 27.8507 0
    endloop
  endfacet
  facet normal 0.975005 -0.222183 0
    outer loop
      vertex 11.1756 28.5628 5
      vertex 11.6299 30.5564 0
      vertex 11.6299 30.5564 5
    endloop
  endfacet
  facet normal 0.975005 -0.222183 0
    outer loop
      vertex 11.6299 30.5564 0
      vertex 11.1756 28.5628 5
      vertex 11.1756 28.5628 0
    endloop
  endfacet
  facet normal 0.722385 -0.691491 0
    outer loop
      vertex 11.6299 30.5564 5
      vertex 12.993 31.9804 0
      vertex 12.993 31.9804 5
    endloop
  endfacet
  facet normal 0.722385 -0.691491 0
    outer loop
      vertex 12.993 31.9804 0
      vertex 11.6299 30.5564 5
      vertex 11.6299 30.5564 0
    endloop
  endfacet
  facet normal 0.352031 -0.935988 0
    outer loop
      vertex 12.993 31.9804 0
      vertex 15.2647 32.8348 5
      vertex 12.993 31.9804 5
    endloop
  endfacet
  facet normal 0.352031 -0.935988 0
    outer loop
      vertex 15.2647 32.8348 5
      vertex 12.993 31.9804 0
      vertex 15.2647 32.8348 0
    endloop
  endfacet
  facet normal 0.0891888 -0.996015 0
    outer loop
      vertex 15.2647 32.8348 0
      vertex 18.4452 33.1196 5
      vertex 15.2647 32.8348 5
    endloop
  endfacet
  facet normal 0.0891888 -0.996015 0
    outer loop
      vertex 18.4452 33.1196 5
      vertex 15.2647 32.8348 0
      vertex 18.4452 33.1196 0
    endloop
  endfacet
  facet normal -0.0484024 -0.998828 0
    outer loop
      vertex 18.4452 33.1196 0
      vertex 20.0548 33.0416 5
      vertex 18.4452 33.1196 5
    endloop
  endfacet
  facet normal -0.0484024 -0.998828 -0
    outer loop
      vertex 20.0548 33.0416 5
      vertex 18.4452 33.1196 0
      vertex 20.0548 33.0416 0
    endloop
  endfacet
  facet normal -0.163571 -0.986531 0
    outer loop
      vertex 20.0548 33.0416 0
      vertex 21.4661 32.8076 5
      vertex 20.0548 33.0416 5
    endloop
  endfacet
  facet normal -0.163571 -0.986531 -0
    outer loop
      vertex 21.4661 32.8076 5
      vertex 20.0548 33.0416 0
      vertex 21.4661 32.8076 0
    endloop
  endfacet
  facet normal -0.306108 -0.951997 0
    outer loop
      vertex 21.4661 32.8076 0
      vertex 22.679 32.4176 5
      vertex 21.4661 32.8076 5
    endloop
  endfacet
  facet normal -0.306108 -0.951997 -0
    outer loop
      vertex 22.679 32.4176 5
      vertex 21.4661 32.8076 0
      vertex 22.679 32.4176 0
    endloop
  endfacet
  facet normal -0.473882 -0.880588 0
    outer loop
      vertex 22.679 32.4176 0
      vertex 23.6936 31.8716 5
      vertex 22.679 32.4176 5
    endloop
  endfacet
  facet normal -0.473882 -0.880588 -0
    outer loop
      vertex 23.6936 31.8716 5
      vertex 22.679 32.4176 0
      vertex 23.6936 31.8716 0
    endloop
  endfacet
  facet normal -0.640959 -0.767576 0
    outer loop
      vertex 23.6936 31.8716 0
      vertex 24.532 31.1715 5
      vertex 23.6936 31.8716 5
    endloop
  endfacet
  facet normal -0.640959 -0.767576 -0
    outer loop
      vertex 24.532 31.1715 5
      vertex 23.6936 31.8716 0
      vertex 24.532 31.1715 0
    endloop
  endfacet
  facet normal -0.780002 -0.625777 0
    outer loop
      vertex 25.2161 30.3188 0
      vertex 24.532 31.1715 5
      vertex 24.532 31.1715 0
    endloop
  endfacet
  facet normal -0.780002 -0.625777 0
    outer loop
      vertex 24.532 31.1715 5
      vertex 25.2161 30.3188 0
      vertex 25.2161 30.3188 5
    endloop
  endfacet
  facet normal -0.884702 -0.466156 0
    outer loop
      vertex 25.7458 29.3135 0
      vertex 25.2161 30.3188 5
      vertex 25.2161 30.3188 0
    endloop
  endfacet
  facet normal -0.884702 -0.466156 0
    outer loop
      vertex 25.2161 30.3188 5
      vertex 25.7458 29.3135 0
      vertex 25.7458 29.3135 5
    endloop
  endfacet
  facet normal -0.951255 -0.308404 0
    outer loop
      vertex 26.1212 28.1556 0
      vertex 25.7458 29.3135 5
      vertex 25.7458 29.3135 0
    endloop
  endfacet
  facet normal -0.951255 -0.308404 0
    outer loop
      vertex 25.7458 29.3135 5
      vertex 26.1212 28.1556 0
      vertex 26.1212 28.1556 5
    endloop
  endfacet
  facet normal 0.135125 -0.990829 0
    outer loop
      vertex 26.1212 28.1556 0
      vertex 33.8792 29.2136 5
      vertex 26.1212 28.1556 5
    endloop
  endfacet
  facet normal 0.135125 -0.990829 0
    outer loop
      vertex 33.8792 29.2136 5
      vertex 26.1212 28.1556 0
      vertex 33.8792 29.2136 0
    endloop
  endfacet
  facet normal 0.962233 0.272229 0
    outer loop
      vertex 33.8792 29.2136 5
      vertex 33.2053 31.5956 0
      vertex 33.2053 31.5956 5
    endloop
  endfacet
  facet normal 0.962233 0.272229 0
    outer loop
      vertex 33.2053 31.5956 0
      vertex 33.8792 29.2136 5
      vertex 33.8792 29.2136 0
    endloop
  endfacet
  facet normal 0.897702 0.440603 0
    outer loop
      vertex 33.2053 31.5956 5
      vertex 32.2143 33.6147 0
      vertex 32.2143 33.6147 5
    endloop
  endfacet
  facet normal 0.897702 0.440603 0
    outer loop
      vertex 32.2143 33.6147 0
      vertex 33.2053 31.5956 5
      vertex 33.2053 31.5956 0
    endloop
  endfacet
  facet normal 0.784792 0.61976 0
    outer loop
      vertex 32.2143 33.6147 5
      vertex 30.9063 35.271 0
      vertex 30.9063 35.271 5
    endloop
  endfacet
  facet normal 0.784792 0.61976 0
    outer loop
      vertex 30.9063 35.271 0
      vertex 32.2143 33.6147 5
      vertex 32.2143 33.6147 0
    endloop
  endfacet
  facet normal 0.622732 0.782435 -0
    outer loop
      vertex 30.9063 35.271 0
      vertex 29.2812 36.5644 5
      vertex 30.9063 35.271 5
    endloop
  endfacet
  facet normal 0.622732 0.782435 0
    outer loop
      vertex 29.2812 36.5644 5
      vertex 30.9063 35.271 0
      vertex 29.2812 36.5644 0
    endloop
  endfacet
  facet normal 0.436718 0.899598 -0
    outer loop
      vertex 29.2812 36.5644 0
      vertex 27.2765 37.5376 5
      vertex 29.2812 36.5644 5
    endloop
  endfacet
  facet normal 0.436718 0.899598 0
    outer loop
      vertex 27.2765 37.5376 5
      vertex 29.2812 36.5644 0
      vertex 27.2765 37.5376 0
    endloop
  endfacet
  facet normal 0.273241 0.961946 -0
    outer loop
      vertex 27.2765 37.5376 0
      vertex 24.8294 38.2327 5
      vertex 27.2765 37.5376 5
    endloop
  endfacet
  facet normal 0.273241 0.961946 0
    outer loop
      vertex 24.8294 38.2327 5
      vertex 27.2765 37.5376 0
      vertex 24.8294 38.2327 0
    endloop
  endfacet
  facet normal 0.14286 0.989743 -0
    outer loop
      vertex 24.8294 38.2327 0
      vertex 21.9397 38.6498 5
      vertex 24.8294 38.2327 5
    endloop
  endfacet
  facet normal 0.14286 0.989743 0
    outer loop
      vertex 21.9397 38.6498 5
      vertex 24.8294 38.2327 0
      vertex 21.9397 38.6498 0
    endloop
  endfacet
  facet normal 0.0416792 0.999131 -0
    outer loop
      vertex 21.9397 38.6498 0
      vertex 18.6076 38.7888 5
      vertex 21.9397 38.6498 5
    endloop
  endfacet
  facet normal 0.0416792 0.999131 0
    outer loop
      vertex 18.6076 38.7888 5
      vertex 21.9397 38.6498 0
      vertex 18.6076 38.7888 0
    endloop
  endfacet
  facet normal -0.049185 0.99879 0
    outer loop
      vertex 18.6076 38.7888 0
      vertex 15.1128 38.6167 5
      vertex 18.6076 38.7888 5
    endloop
  endfacet
  facet normal -0.049185 0.99879 0
    outer loop
      vertex 15.1128 38.6167 5
      vertex 18.6076 38.7888 0
      vertex 15.1128 38.6167 0
    endloop
  endfacet
  facet normal -0.166751 0.985999 0
    outer loop
      vertex 15.1128 38.6167 0
      vertex 12.0605 38.1005 5
      vertex 15.1128 38.6167 5
    endloop
  endfacet
  facet normal -0.166751 0.985999 0
    outer loop
      vertex 12.0605 38.1005 5
      vertex 15.1128 38.6167 0
      vertex 12.0605 38.1005 0
    endloop
  endfacet
  facet normal -0.313095 0.949722 0
    outer loop
      vertex 12.0605 38.1005 0
      vertex 9.45062 37.2401 5
      vertex 12.0605 38.1005 5
    endloop
  endfacet
  facet normal -0.313095 0.949722 0
    outer loop
      vertex 9.45062 37.2401 5
      vertex 12.0605 38.1005 0
      vertex 9.45062 37.2401 0
    endloop
  endfacet
  facet normal -0.485758 0.874094 0
    outer loop
      vertex 9.45062 37.2401 0
      vertex 7.28319 36.0356 5
      vertex 9.45062 37.2401 5
    endloop
  endfacet
  facet normal -0.485758 0.874094 0
    outer loop
      vertex 7.28319 36.0356 5
      vertex 9.45062 37.2401 0
      vertex 7.28319 36.0356 0
    endloop
  endfacet
  facet normal -0.667917 0.744236 0
    outer loop
      vertex 7.28319 36.0356 0
      vertex 5.58026 34.5073 5
      vertex 7.28319 36.0356 5
    endloop
  endfacet
  facet normal -0.667917 0.744236 0
    outer loop
      vertex 5.58026 34.5073 5
      vertex 7.28319 36.0356 0
      vertex 5.58026 34.5073 0
    endloop
  endfacet
  facet normal -0.833063 0.553179 0
    outer loop
      vertex 4.36389 32.6755 0
      vertex 5.58026 34.5073 5
      vertex 5.58026 34.5073 0
    endloop
  endfacet
  facet normal -0.833063 0.553179 0
    outer loop
      vertex 5.58026 34.5073 5
      vertex 4.36389 32.6755 0
      vertex 4.36389 32.6755 5
    endloop
  endfacet
  facet normal -0.94625 0.323436 0
    outer loop
      vertex 3.63406 30.5403 0
      vertex 4.36389 32.6755 5
      vertex 4.36389 32.6755 0
    endloop
  endfacet
  facet normal -0.94625 0.323436 0
    outer loop
      vertex 4.36389 32.6755 5
      vertex 3.63406 30.5403 0
      vertex 3.63406 30.5403 5
    endloop
  endfacet
  facet normal -0.995061 0.0992613 0
    outer loop
      vertex 3.39079 28.1016 0
      vertex 3.63406 30.5403 5
      vertex 3.63406 30.5403 0
    endloop
  endfacet
  facet normal -0.995061 0.0992613 0
    outer loop
      vertex 3.63406 30.5403 5
      vertex 3.39079 28.1016 0
      vertex 3.39079 28.1016 5
    endloop
  endfacet
  facet normal -0.999441 -0.0334192 0
    outer loop
      vertex 3.42384 27.1132 0
      vertex 3.39079 28.1016 5
      vertex 3.39079 28.1016 0
    endloop
  endfacet
  facet normal -0.999441 -0.0334192 0
    outer loop
      vertex 3.39079 28.1016 5
      vertex 3.42384 27.1132 0
      vertex 3.42384 27.1132 5
    endloop
  endfacet
  facet normal -0.994373 -0.105933 0
    outer loop
      vertex 3.52299 26.1825 0
      vertex 3.42384 27.1132 5
      vertex 3.42384 27.1132 0
    endloop
  endfacet
  facet normal -0.994373 -0.105933 0
    outer loop
      vertex 3.42384 27.1132 5
      vertex 3.52299 26.1825 0
      vertex 3.52299 26.1825 5
    endloop
  endfacet
  facet normal -0.982554 -0.185977 0
    outer loop
      vertex 3.68825 25.3094 0
      vertex 3.52299 26.1825 5
      vertex 3.52299 26.1825 0
    endloop
  endfacet
  facet normal -0.982554 -0.185977 0
    outer loop
      vertex 3.52299 26.1825 5
      vertex 3.68825 25.3094 0
      vertex 3.68825 25.3094 5
    endloop
  endfacet
  facet normal -0.962031 -0.272941 0
    outer loop
      vertex 3.91959 24.494 0
      vertex 3.68825 25.3094 5
      vertex 3.68825 25.3094 0
    endloop
  endfacet
  facet normal -0.962031 -0.272941 0
    outer loop
      vertex 3.68825 25.3094 5
      vertex 3.91959 24.494 0
      vertex 3.91959 24.494 5
    endloop
  endfacet
  facet normal -0.934202 -0.356744 0
    outer loop
      vertex 4.21027 23.7328 0
      vertex 3.91959 24.494 5
      vertex 3.91959 24.494 0
    endloop
  endfacet
  facet normal -0.934202 -0.356744 0
    outer loop
      vertex 3.91959 24.494 5
      vertex 4.21027 23.7328 0
      vertex 4.21027 23.7328 5
    endloop
  endfacet
  facet normal -0.90039 -0.435085 0
    outer loop
      vertex 4.5535 23.0225 0
      vertex 4.21027 23.7328 5
      vertex 4.21027 23.7328 0
    endloop
  endfacet
  facet normal -0.90039 -0.435085 0
    outer loop
      vertex 4.21027 23.7328 5
      vertex 4.5535 23.0225 0
      vertex 4.5535 23.0225 5
    endloop
  endfacet
  facet normal -0.857459 -0.514553 0
    outer loop
      vertex 4.94926 22.363 0
      vertex 4.5535 23.0225 5
      vertex 4.5535 23.0225 0
    endloop
  endfacet
  facet normal -0.857459 -0.514553 0
    outer loop
      vertex 4.5535 23.0225 5
      vertex 4.94926 22.363 0
      vertex 4.94926 22.363 5
    endloop
  endfacet
  facet normal -0.80512 -0.593111 0
    outer loop
      vertex 5.3976 21.7544 0
      vertex 4.94926 22.363 5
      vertex 4.94926 22.363 0
    endloop
  endfacet
  facet normal -0.80512 -0.593111 0
    outer loop
      vertex 4.94926 22.363 5
      vertex 5.3976 21.7544 0
      vertex 5.3976 21.7544 5
    endloop
  endfacet
  facet normal -0.746984 -0.664842 0
    outer loop
      vertex 5.8978 21.1924 0
      vertex 5.3976 21.7544 5
      vertex 5.3976 21.7544 0
    endloop
  endfacet
  facet normal -0.746984 -0.664842 0
    outer loop
      vertex 5.3976 21.7544 5
      vertex 5.8978 21.1924 0
      vertex 5.8978 21.1924 5
    endloop
  endfacet
  facet normal -0.686149 -0.727461 0
    outer loop
      vertex 5.8978 21.1924 0
      vertex 6.44879 20.6727 5
      vertex 5.8978 21.1924 5
    endloop
  endfacet
  facet normal -0.686149 -0.727461 -0
    outer loop
      vertex 6.44879 20.6727 5
      vertex 5.8978 21.1924 0
      vertex 6.44879 20.6727 0
    endloop
  endfacet
  facet normal -0.621397 -0.783496 0
    outer loop
      vertex 6.44879 20.6727 0
      vertex 7.0506 20.1954 5
      vertex 6.44879 20.6727 5
    endloop
  endfacet
  facet normal -0.621397 -0.783496 -0
    outer loop
      vertex 7.0506 20.1954 5
      vertex 6.44879 20.6727 0
      vertex 7.0506 20.1954 0
    endloop
  endfacet
  facet normal -0.554647 -0.832086 0
    outer loop
      vertex 7.0506 20.1954 0
      vertex 7.70319 19.7604 5
      vertex 7.0506 20.1954 5
    endloop
  endfacet
  facet normal -0.554647 -0.832086 -0
    outer loop
      vertex 7.70319 19.7604 5
      vertex 7.0506 20.1954 0
      vertex 7.70319 19.7604 0
    endloop
  endfacet
  facet normal -0.497019 -0.86774 0
    outer loop
      vertex 7.70319 19.7604 0
      vertex 8.40172 19.3603 5
      vertex 7.70319 19.7604 5
    endloop
  endfacet
  facet normal -0.497019 -0.86774 -0
    outer loop
      vertex 8.40172 19.3603 5
      vertex 7.70319 19.7604 0
      vertex 8.40172 19.3603 0
    endloop
  endfacet
  facet normal -0.450409 -0.892822 0
    outer loop
      vertex 8.40172 19.3603 0
      vertex 9.1409 18.9874 5
      vertex 8.40172 19.3603 5
    endloop
  endfacet
  facet normal -0.450409 -0.892822 -0
    outer loop
      vertex 9.1409 18.9874 5
      vertex 8.40172 19.3603 0
      vertex 9.1409 18.9874 0
    endloop
  endfacet
  facet normal -0.405466 -0.91411 0
    outer loop
      vertex 9.1409 18.9874 0
      vertex 9.92072 18.6415 5
      vertex 9.1409 18.9874 5
    endloop
  endfacet
  facet normal -0.405466 -0.91411 -0
    outer loop
      vertex 9.92072 18.6415 5
      vertex 9.1409 18.9874 0
      vertex 9.92072 18.6415 0
    endloop
  endfacet
  facet normal -0.362076 -0.932149 0
    outer loop
      vertex 9.92072 18.6415 0
      vertex 10.7412 18.3228 5
      vertex 9.92072 18.6415 5
    endloop
  endfacet
  facet normal -0.362076 -0.932149 -0
    outer loop
      vertex 10.7412 18.3228 5
      vertex 9.92072 18.6415 0
      vertex 10.7412 18.3228 0
    endloop
  endfacet
  facet normal -0.311993 -0.950084 0
    outer loop
      vertex 10.7412 18.3228 0
      vertex 11.7449 17.9932 5
      vertex 10.7412 18.3228 5
    endloop
  endfacet
  facet normal -0.311993 -0.950084 -0
    outer loop
      vertex 11.7449 17.9932 5
      vertex 10.7412 18.3228 0
      vertex 11.7449 17.9932 0
    endloop
  endfacet
  facet normal -0.274052 -0.961715 0
    outer loop
      vertex 11.7449 17.9932 0
      vertex 13.0742 17.6144 5
      vertex 11.7449 17.9932 5
    endloop
  endfacet
  facet normal -0.274052 -0.961715 -0
    outer loop
      vertex 13.0742 17.6144 5
      vertex 11.7449 17.9932 0
      vertex 13.0742 17.6144 0
    endloop
  endfacet
  facet normal -0.250416 -0.968138 0
    outer loop
      vertex 13.0742 17.6144 0
      vertex 14.7289 17.1864 5
      vertex 13.0742 17.6144 5
    endloop
  endfacet
  facet normal -0.250416 -0.968138 -0
    outer loop
      vertex 14.7289 17.1864 5
      vertex 13.0742 17.6144 0
      vertex 14.7289 17.1864 0
    endloop
  endfacet
  facet normal -0.234268 -0.972172 0
    outer loop
      vertex 14.7289 17.1864 0
      vertex 16.7092 16.7092 5
      vertex 14.7289 17.1864 5
    endloop
  endfacet
  facet normal -0.234268 -0.972172 -0
    outer loop
      vertex 16.7092 16.7092 5
      vertex 14.7289 17.1864 0
      vertex 16.7092 16.7092 0
    endloop
  endfacet
  facet normal -0.207288 -0.97828 0
    outer loop
      vertex 16.7092 16.7092 0
      vertex 18.9901 16.2259 5
      vertex 16.7092 16.7092 5
    endloop
  endfacet
  facet normal -0.207288 -0.97828 -0
    outer loop
      vertex 18.9901 16.2259 5
      vertex 16.7092 16.7092 0
      vertex 18.9901 16.2259 0
    endloop
  endfacet
  facet normal -0.23092 -0.972973 0
    outer loop
      vertex 18.9901 16.2259 0
      vertex 20.8693 15.7799 5
      vertex 18.9901 16.2259 5
    endloop
  endfacet
  facet normal -0.23092 -0.972973 -0
    outer loop
      vertex 20.8693 15.7799 5
      vertex 18.9901 16.2259 0
      vertex 20.8693 15.7799 0
    endloop
  endfacet
  facet normal -0.26656 -0.963818 0
    outer loop
      vertex 20.8693 15.7799 0
      vertex 22.3467 15.3713 5
      vertex 20.8693 15.7799 5
    endloop
  endfacet
  facet normal -0.26656 -0.963818 -0
    outer loop
      vertex 22.3467 15.3713 5
      vertex 20.8693 15.7799 0
      vertex 22.3467 15.3713 0
    endloop
  endfacet
  facet normal -0.32628 -0.945273 0
    outer loop
      vertex 22.3467 15.3713 0
      vertex 23.4224 15 5
      vertex 22.3467 15.3713 5
    endloop
  endfacet
  facet normal -0.32628 -0.945273 -0
    outer loop
      vertex 23.4224 15 5
      vertex 22.3467 15.3713 0
      vertex 23.4224 15 0
    endloop
  endfacet
  facet normal -0.413279 -0.910604 0
    outer loop
      vertex 23.4224 15 0
      vertex 24.248 14.6253 5
      vertex 23.4224 15 5
    endloop
  endfacet
  facet normal -0.413279 -0.910604 -0
    outer loop
      vertex 24.248 14.6253 5
      vertex 23.4224 15 0
      vertex 24.248 14.6253 0
    endloop
  endfacet
  facet normal -0.498921 -0.866647 0
    outer loop
      vertex 24.248 14.6253 0
      vertex 24.9753 14.2066 5
      vertex 24.248 14.6253 5
    endloop
  endfacet
  facet normal -0.498921 -0.866647 -0
    outer loop
      vertex 24.9753 14.2066 5
      vertex 24.248 14.6253 0
      vertex 24.9753 14.2066 0
    endloop
  endfacet
  facet normal -0.592784 -0.805362 0
    outer loop
      vertex 24.9753 14.2066 0
      vertex 25.6042 13.7437 5
      vertex 24.9753 14.2066 5
    endloop
  endfacet
  facet normal -0.592784 -0.805362 -0
    outer loop
      vertex 25.6042 13.7437 5
      vertex 24.9753 14.2066 0
      vertex 25.6042 13.7437 0
    endloop
  endfacet
  facet normal -0.690774 -0.723071 0
    outer loop
      vertex 25.6042 13.7437 0
      vertex 26.1348 13.2368 5
      vertex 25.6042 13.7437 5
    endloop
  endfacet
  facet normal -0.690774 -0.723071 -0
    outer loop
      vertex 26.1348 13.2368 5
      vertex 25.6042 13.7437 0
      vertex 26.1348 13.2368 0
    endloop
  endfacet
  facet normal -0.801293 -0.598272 0
    outer loop
      vertex 26.5562 12.6724 0
      vertex 26.1348 13.2368 5
      vertex 26.1348 13.2368 0
    endloop
  endfacet
  facet normal -0.801293 -0.598272 0
    outer loop
      vertex 26.1348 13.2368 5
      vertex 26.5562 12.6724 0
      vertex 26.5562 12.6724 5
    endloop
  endfacet
  facet normal -0.903804 -0.427946 0
    outer loop
      vertex 26.8572 12.0367 0
      vertex 26.5562 12.6724 5
      vertex 26.5562 12.6724 0
    endloop
  endfacet
  facet normal -0.903804 -0.427946 0
    outer loop
      vertex 26.5562 12.6724 5
      vertex 26.8572 12.0367 0
      vertex 26.8572 12.0367 5
    endloop
  endfacet
  facet normal -0.96888 -0.247531 0
    outer loop
      vertex 27.0378 11.3298 0
      vertex 26.8572 12.0367 5
      vertex 26.8572 12.0367 0
    endloop
  endfacet
  facet normal -0.96888 -0.247531 0
    outer loop
      vertex 26.8572 12.0367 5
      vertex 27.0378 11.3298 0
      vertex 27.0378 11.3298 5
    endloop
  endfacet
  facet normal -0.997021 -0.0771276 0
    outer loop
      vertex 27.098 10.5516 0
      vertex 27.0378 11.3298 5
      vertex 27.0378 11.3298 0
    endloop
  endfacet
  facet normal -0.997021 -0.0771276 0
    outer loop
      vertex 27.0378 11.3298 5
      vertex 27.098 10.5516 0
      vertex 27.098 10.5516 5
    endloop
  endfacet
  facet normal -0.97352 0.2286 0
    outer loop
      vertex 26.5741 8.32051 0
      vertex 27.098 10.5516 5
      vertex 27.098 10.5516 0
    endloop
  endfacet
  facet normal -0.97352 0.2286 0
    outer loop
      vertex 27.098 10.5516 5
      vertex 26.5741 8.32051 0
      vertex 26.5741 8.32051 5
    endloop
  endfacet
  facet normal -0.712029 0.70215 0
    outer loop
      vertex 25.0026 6.7269 0
      vertex 26.5741 8.32051 5
      vertex 26.5741 8.32051 0
    endloop
  endfacet
  facet normal -0.712029 0.70215 0
    outer loop
      vertex 26.5741 8.32051 5
      vertex 25.0026 6.7269 0
      vertex 25.0026 6.7269 5
    endloop
  endfacet
  facet normal -0.342917 0.939366 0
    outer loop
      vertex 25.0026 6.7269 0
      vertex 22.3833 5.77072 5
      vertex 25.0026 6.7269 5
    endloop
  endfacet
  facet normal -0.342917 0.939366 0
    outer loop
      vertex 22.3833 5.77072 5
      vertex 25.0026 6.7269 0
      vertex 22.3833 5.77072 0
    endloop
  endfacet
  facet normal -0.0865916 0.996244 0
    outer loop
      vertex 22.3833 5.77072 0
      vertex 18.7164 5.452 5
      vertex 22.3833 5.77072 5
    endloop
  endfacet
  facet normal -0.0865916 0.996244 0
    outer loop
      vertex 18.7164 5.452 5
      vertex 22.3833 5.77072 0
      vertex 18.7164 5.452 0
    endloop
  endfacet
  facet normal 0.0447578 0.998998 -0
    outer loop
      vertex 18.7164 5.452 0
      vertex 16.8058 5.5376 5
      vertex 18.7164 5.452 5
    endloop
  endfacet
  facet normal 0.0447578 0.998998 0
    outer loop
      vertex 16.8058 5.5376 5
      vertex 18.7164 5.452 0
      vertex 16.8058 5.5376 0
    endloop
  endfacet
  facet normal 0.150196 0.988656 -0
    outer loop
      vertex 16.8058 5.5376 0
      vertex 15.1155 5.79439 5
      vertex 16.8058 5.5376 5
    endloop
  endfacet
  facet normal 0.150196 0.988656 0
    outer loop
      vertex 15.1155 5.79439 5
      vertex 16.8058 5.5376 0
      vertex 15.1155 5.79439 0
    endloop
  endfacet
  facet normal 0.279572 0.960125 -0
    outer loop
      vertex 15.1155 5.79439 0
      vertex 13.6456 6.2224 5
      vertex 15.1155 5.79439 5
    endloop
  endfacet
  facet normal 0.279572 0.960125 0
    outer loop
      vertex 13.6456 6.2224 5
      vertex 15.1155 5.79439 0
      vertex 13.6456 6.2224 0
    endloop
  endfacet
  facet normal 0.432369 0.901697 -0
    outer loop
      vertex 13.6456 6.2224 0
      vertex 12.396 6.82159 5
      vertex 13.6456 6.2224 5
    endloop
  endfacet
  facet normal 0.432369 0.901697 0
    outer loop
      vertex 12.396 6.82159 5
      vertex 13.6456 6.2224 0
      vertex 12.396 6.82159 0
    endloop
  endfacet
  facet normal 0.602317 0.798257 -0
    outer loop
      vertex 12.396 6.82159 0
      vertex 11.35 7.61084 5
      vertex 12.396 6.82159 5
    endloop
  endfacet
  facet normal 0.602317 0.798257 0
    outer loop
      vertex 11.35 7.61084 5
      vertex 12.396 6.82159 0
      vertex 11.35 7.61084 0
    endloop
  endfacet
  facet normal 0.757687 0.652618 0
    outer loop
      vertex 11.35 7.61084 5
      vertex 10.4906 8.6086 0
      vertex 10.4906 8.6086 5
    endloop
  endfacet
  facet normal 0.757687 0.652618 0
    outer loop
      vertex 10.4906 8.6086 0
      vertex 11.35 7.61084 5
      vertex 11.35 7.61084 0
    endloop
  endfacet
  facet normal 0.873289 0.487203 0
    outer loop
      vertex 10.4906 8.6086 5
      vertex 9.81764 9.81485 0
      vertex 9.81764 9.81485 5
    endloop
  endfacet
  facet normal 0.873289 0.487203 0
    outer loop
      vertex 9.81764 9.81485 0
      vertex 10.4906 8.6086 5
      vertex 10.4906 8.6086 0
    endloop
  endfacet
  facet normal 0.94566 0.325157 0
    outer loop
      vertex 9.81764 9.81485 5
      vertex 9.33119 11.2296 0
      vertex 9.33119 11.2296 5
    endloop
  endfacet
  facet normal 0.94566 0.325157 0
    outer loop
      vertex 9.33119 11.2296 0
      vertex 9.81764 9.81485 5
      vertex 9.81764 9.81485 0
    endloop
  endfacet
  facet normal -0.162703 0.986675 0
    outer loop
      vertex 9.33119 11.2296 0
      vertex 1.60039 9.95479 5
      vertex 9.33119 11.2296 5
    endloop
  endfacet
  facet normal -0.162703 0.986675 0
    outer loop
      vertex 1.60039 9.95479 5
      vertex 9.33119 11.2296 0
      vertex 1.60039 9.95479 0
    endloop
  endfacet
  facet normal -0.953457 -0.30153 0
    outer loop
      vertex 2.38367 7.47801 0
      vertex 1.60039 9.95479 5
      vertex 1.60039 9.95479 0
    endloop
  endfacet
  facet normal -0.953457 -0.30153 0
    outer loop
      vertex 1.60039 9.95479 5
      vertex 2.38367 7.47801 0
      vertex 2.38367 7.47801 5
    endloop
  endfacet
  facet normal -0.879902 -0.475155 0
    outer loop
      vertex 3.53989 5.3369 0
      vertex 2.38367 7.47801 5
      vertex 2.38367 7.47801 0
    endloop
  endfacet
  facet normal -0.879902 -0.475155 0
    outer loop
      vertex 2.38367 7.47801 5
      vertex 3.53989 5.3369 0
      vertex 3.53989 5.3369 5
    endloop
  endfacet
  facet normal -0.763083 -0.646301 0
    outer loop
      vertex 5.06906 3.53142 0
      vertex 3.53989 5.3369 5
      vertex 3.53989 5.3369 0
    endloop
  endfacet
  facet normal -0.763083 -0.646301 0
    outer loop
      vertex 3.53989 5.3369 5
      vertex 5.06906 3.53142 0
      vertex 5.06906 3.53142 5
    endloop
  endfacet
  facet normal -0.611445 -0.791287 0
    outer loop
      vertex 5.06906 3.53142 0
      vertex 6.97119 2.0616 5
      vertex 5.06906 3.53142 5
    endloop
  endfacet
  facet normal -0.611445 -0.791287 -0
    outer loop
      vertex 6.97119 2.0616 5
      vertex 5.06906 3.53142 0
      vertex 6.97119 2.0616 0
    endloop
  endfacet
  facet normal -0.445889 -0.895088 0
    outer loop
      vertex 6.97119 2.0616 0
      vertex 9.25815 0.922348 5
      vertex 6.97119 2.0616 5
    endloop
  endfacet
  facet normal -0.445889 -0.895088 -0
    outer loop
      vertex 9.25815 0.922348 5
      vertex 6.97119 2.0616 0
      vertex 9.25815 0.922348 0
    endloop
  endfacet
  facet normal -0.290178 -0.956973 0
    outer loop
      vertex 9.25815 0.922348 0
      vertex 11.9418 0.108597 5
      vertex 9.25815 0.922348 5
    endloop
  endfacet
  facet normal -0.290178 -0.956973 -0
    outer loop
      vertex 11.9418 0.108597 5
      vertex 9.25815 0.922348 0
      vertex 11.9418 0.108597 0
    endloop
  endfacet
  facet normal -0.156548 -0.98767 0
    outer loop
      vertex 11.9418 0.108597 0
      vertex 15.0221 -0.379639 5
      vertex 11.9418 0.108597 5
    endloop
  endfacet
  facet normal -0.156548 -0.98767 -0
    outer loop
      vertex 15.0221 -0.379639 5
      vertex 11.9418 0.108597 0
      vertex 15.0221 -0.379639 0
    endloop
  endfacet
  facet normal -0.0467551 -0.998906 0
    outer loop
      vertex 15.0221 -0.379639 0
      vertex 18.4992 -0.542389 5
      vertex 15.0221 -0.379639 5
    endloop
  endfacet
  facet normal -0.0467551 -0.998906 -0
    outer loop
      vertex 18.4992 -0.542389 5
      vertex 15.0221 -0.379639 0
      vertex 18.4992 -0.542389 0
    endloop
  endfacet
  facet normal 0.0489867 -0.998799 0
    outer loop
      vertex 18.4992 -0.542389 0
      vertex 22.2839 -0.356766 5
      vertex 18.4992 -0.542389 5
    endloop
  endfacet
  facet normal 0.0489867 -0.998799 0
    outer loop
      vertex 22.2839 -0.356766 5
      vertex 18.4992 -0.542389 0
      vertex 22.2839 -0.356766 0
    endloop
  endfacet
  facet normal 0.707107 -0.707107 0
    outer loop
      vertex 23.7301 15.694 2
      vertex 24.7301 16.694 0
      vertex 24.7301 16.694 2
    endloop
  endfacet
  facet normal 0.707107 -0.707107 0
    outer loop
      vertex 24.7301 16.694 0
      vertex 23.7301 15.694 2
      vertex 23.7301 15.694 0
    endloop
  endfacet
  facet normal -0.707107 -0.707107 0
    outer loop
      vertex 25.7301 15.694 0
      vertex 24.7301 16.694 2
      vertex 24.7301 16.694 0
    endloop
  endfacet
  facet normal -0.707107 -0.707107 0
    outer loop
      vertex 24.7301 16.694 2
      vertex 25.7301 15.694 0
      vertex 25.7301 15.694 2
    endloop
  endfacet
  facet normal 0 0 -1
    outer loop
      vertex 24.7301 14.694 2
      vertex 24.7301 16.694 2
      vertex 25.7301 15.694 2
    endloop
  endfacet
  facet normal 0 -0 -1
    outer loop
      vertex 24.7301 16.694 2
      vertex 24.7301 14.694 2
      vertex 23.7301 15.694 2
    endloop
  endfacet
  facet normal -0.707107 0.707107 0
    outer loop
      vertex 24.7301 14.694 0
      vertex 25.7301 15.694 2
      vertex 25.7301 15.694 0
    endloop
  endfacet
  facet normal -0.707107 0.707107 0
    outer loop
      vertex 25.7301 15.694 2
      vertex 24.7301 14.694 0
      vertex 24.7301 14.694 2
    endloop
  endfacet
  facet normal 0.707107 0.707107 0
    outer loop
      vertex 24.7301 14.694 2
      vertex 23.7301 15.694 0
      vertex 23.7301 15.694 2
    endloop
  endfacet
  facet normal 0.707107 0.707107 0
    outer loop
      vertex 23.7301 15.694 0
      vertex 24.7301 14.694 2
      vertex 24.7301 14.694 0
    endloop
  endfacet
endsolid OpenSCAD_Model
