solid OpenSCAD_Model
  facet normal 0 0 -1
    outer loop
      vertex 20.5608 13.6712 0
      vertex 36.6732 38.2192 0
      vertex 22.6224 0 0
    endloop
  endfacet
  facet normal -0 0 -1
    outer loop
      vertex 36.6732 38.2192 0
      vertex 20.5608 13.6712 0
      vertex 28.4 38.2192 0
    endloop
  endfacet
  facet normal 0 0 -1
    outer loop
      vertex 22.6224 0 0
      vertex 19.1772 8.78839 0
      vertex 20.5608 13.6712 0
    endloop
  endfacet
  facet normal 0 0 -1
    outer loop
      vertex 22.6224 0 0
      vertex 18.6076 6.4556 0
      vertex 19.1772 8.78839 0
    endloop
  endfacet
  facet normal 0 0 -1
    outer loop
      vertex 14.512 0 0
      vertex 18.0041 8.71722 0
      vertex 18.6076 6.4556 0
    endloop
  endfacet
  facet normal -0 0 -1
    outer loop
      vertex 18.0041 8.71722 0
      vertex 14.512 0 0
      vertex 17.4684 10.6737 0
    endloop
  endfacet
  facet normal -0 0 -1
    outer loop
      vertex 17.4684 10.6737 0
      vertex 14.512 0 0
      vertex 17.0005 12.325 0
    endloop
  endfacet
  facet normal 0 0 -1
    outer loop
      vertex 14.512 0 0
      vertex 18.6076 6.4556 0
      vertex 22.6224 0 0
    endloop
  endfacet
  facet normal -0 0 -1
    outer loop
      vertex 17.0005 12.325 0
      vertex 14.512 0 0
      vertex 16.6004 13.6712 0
    endloop
  endfacet
  facet normal 0 0 -1
    outer loop
      vertex 0.379593 38.2192 0
      vertex 16.6004 13.6712 0
      vertex 14.512 0 0
    endloop
  endfacet
  facet normal 0 0 -1
    outer loop
      vertex 16.6004 13.6712 0
      vertex 0.379593 38.2192 0
      vertex 8.73439 38.2192 0
    endloop
  endfacet
  facet normal 0 0 1
    outer loop
      vertex 20.5608 13.6712 5
      vertex 36.6732 38.2192 5
      vertex 28.4 38.2192 5
    endloop
  endfacet
  facet normal 0 0 1
    outer loop
      vertex 36.6732 38.2192 5
      vertex 20.5608 13.6712 5
      vertex 22.6224 0 5
    endloop
  endfacet
  facet normal -0 0 1
    outer loop
      vertex 19.1772 8.78839 5
      vertex 22.6224 0 5
      vertex 20.5608 13.6712 5
    endloop
  endfacet
  facet normal -0 0 1
    outer loop
      vertex 18.6076 6.4556 5
      vertex 22.6224 0 5
      vertex 19.1772 8.78839 5
    endloop
  endfacet
  facet normal 0 0 1
    outer loop
      vertex 14.512 0 5
      vertex 18.0041 8.71722 5
      vertex 17.4684 10.6737 5
    endloop
  endfacet
  facet normal 0 0 1
    outer loop
      vertex 14.512 0 5
      vertex 17.4684 10.6737 5
      vertex 17.0005 12.325 5
    endloop
  endfacet
  facet normal 0 0 1
    outer loop
      vertex 14.512 0 5
      vertex 17.0005 12.325 5
      vertex 16.6004 13.6712 5
    endloop
  endfacet
  facet normal 0 0 1
    outer loop
      vertex 18.6076 6.4556 5
      vertex 14.512 0 5
      vertex 22.6224 0 5
    endloop
  endfacet
  facet normal 0 0 1
    outer loop
      vertex 18.0041 8.71722 5
      vertex 14.512 0 5
      vertex 18.6076 6.4556 5
    endloop
  endfacet
  facet normal -0 0 1
    outer loop
      vertex 0.379593 38.2192 5
      vertex 16.6004 13.6712 5
      vertex 8.73439 38.2192 5
    endloop
  endfacet
  facet normal 0 0 1
    outer loop
      vertex 16.6004 13.6712 5
      vertex 0.379593 38.2192 5
      vertex 14.512 0 5
    endloop
  endfacet
  facet normal 0 1 -0
    outer loop
      vertex 36.6732 38.2192 0
      vertex 28.4 38.2192 5
      vertex 36.6732 38.2192 5
    endloop
  endfacet
  facet normal 0 1 0
    outer loop
      vertex 28.4 38.2192 5
      vertex 36.6732 38.2192 0
      vertex 28.4 38.2192 0
    endloop
  endfacet
  facet normal -0.952606 0.304207 0
    outer loop
      vertex 20.5608 13.6712 0
      vertex 28.4 38.2192 5
      vertex 28.4 38.2192 0
    endloop
  endfacet
  facet normal -0.952606 0.304207 0
    outer loop
      vertex 28.4 38.2192 5
      vertex 20.5608 13.6712 0
      vertex 20.5608 13.6712 5
    endloop
  endfacet
  facet normal -0.96212 0.272628 0
    outer loop
      vertex 19.1772 8.78839 0
      vertex 20.5608 13.6712 5
      vertex 20.5608 13.6712 0
    endloop
  endfacet
  facet normal -0.96212 0.272628 0
    outer loop
      vertex 20.5608 13.6712 5
      vertex 19.1772 8.78839 0
      vertex 19.1772 8.78839 5
    endloop
  endfacet
  facet normal -0.97146 0.237203 0
    outer loop
      vertex 18.6076 6.4556 0
      vertex 19.1772 8.78839 5
      vertex 19.1772 8.78839 0
    endloop
  endfacet
  facet normal -0.97146 0.237203 0
    outer loop
      vertex 19.1772 8.78839 5
      vertex 18.6076 6.4556 0
      vertex 18.6076 6.4556 5
    endloop
  endfacet
  facet normal 0.966192 0.257823 0
    outer loop
      vertex 18.6076 6.4556 5
      vertex 18.0041 8.71722 0
      vertex 18.0041 8.71722 5
    endloop
  endfacet
  facet normal 0.966192 0.257823 0
    outer loop
      vertex 18.0041 8.71722 0
      vertex 18.6076 6.4556 5
      vertex 18.6076 6.4556 0
    endloop
  endfacet
  facet normal 0.964499 0.264088 0
    outer loop
      vertex 18.0041 8.71722 5
      vertex 17.4684 10.6737 0
      vertex 17.4684 10.6737 5
    endloop
  endfacet
  facet normal 0.964499 0.264088 0
    outer loop
      vertex 17.4684 10.6737 0
      vertex 18.0041 8.71722 5
      vertex 18.0041 8.71722 0
    endloop
  endfacet
  facet normal 0.962122 0.27262 0
    outer loop
      vertex 17.4684 10.6737 5
      vertex 17.0005 12.325 0
      vertex 17.0005 12.325 5
    endloop
  endfacet
  facet normal 0.962122 0.27262 0
    outer loop
      vertex 17.0005 12.325 0
      vertex 17.4684 10.6737 5
      vertex 17.4684 10.6737 0
    endloop
  endfacet
  facet normal 0.95856 0.284891 0
    outer loop
      vertex 17.0005 12.325 5
      vertex 16.6004 13.6712 0
      vertex 16.6004 13.6712 5
    endloop
  endfacet
  facet normal 0.95856 0.284891 0
    outer loop
      vertex 16.6004 13.6712 0
      vertex 17.0005 12.325 5
      vertex 17.0005 12.325 0
    endloop
  endfacet
  facet normal 0.952304 0.30515 0
    outer loop
      vertex 16.6004 13.6712 5
      vertex 8.73439 38.2192 0
      vertex 8.73439 38.2192 5
    endloop
  endfacet
  facet normal 0.952304 0.30515 0
    outer loop
      vertex 8.73439 38.2192 0
      vertex 16.6004 13.6712 5
      vertex 16.6004 13.6712 0
    endloop
  endfacet
  facet normal 0 1 -0
    outer loop
      vertex 8.73439 38.2192 0
      vertex 0.379593 38.2192 5
      vertex 8.73439 38.2192 5
    endloop
  endfacet
  facet normal 0 1 0
    outer loop
      vertex 0.379593 38.2192 5
      vertex 8.73439 38.2192 0
      vertex 0.379593 38.2192 0
    endloop
  endfacet
  facet normal -0.937931 -0.346821 0
    outer loop
      vertex 14.512 0 0
      vertex 0.379593 38.2192 5
      vertex 0.379593 38.2192 0
    endloop
  endfacet
  facet normal -0.937931 -0.346821 0
    outer loop
      vertex 0.379593 38.2192 5
      vertex 14.512 0 0
      vertex 14.512 0 5
    endloop
  endfacet
  facet normal 0 -1 0
    outer loop
      vertex 14.512 0 0
      vertex 22.6224 0 5
      vertex 14.512 0 5
    endloop
  endfacet
  facet normal 0 -1 -0
    outer loop
      vertex 22.6224 0 5
      vertex 14.512 0 0
      vertex 22.6224 0 0
    endloop
  endfacet
  facet normal 0.938582 -0.345058 0
    outer loop
      vertex 22.6224 0 5
      vertex 36.6732 38.2192 0
      vertex 36.6732 38.2192 5
    endloop
  endfacet
  facet normal 0.938582 -0.345058 0
    outer loop
      vertex 36.6732 38.2192 0
      vertex 22.6224 0 5
      vertex 22.6224 0 0
    endloop
  endfacet
endsolid OpenSCAD_Model
