solid OpenSCAD_Model
  facet normal -1 0 0
    outer loop
      vertex 3.79759 0 0
      vertex 3.79759 39.7652 5
      vertex 3.79759 39.7652 0
    endloop
  endfacet
  facet normal -1 -0 0
    outer loop
      vertex 3.79759 39.7652 5
      vertex 3.79759 0 0
      vertex 3.79759 0 5
    endloop
  endfacet
  facet normal 1 -0 0
    outer loop
      vertex 11.8264 0 5
      vertex 11.8264 39.7652 0
      vertex 11.8264 39.7652 5
    endloop
  endfacet
  facet normal 1 0 0
    outer loop
      vertex 11.8264 39.7652 0
      vertex 11.8264 0 5
      vertex 11.8264 0 0
    endloop
  endfacet
  facet normal 0 0 -1
    outer loop
      vertex 11.8264 0 0
      vertex 8.783 29.47 0
      vertex 11.8264 39.7652 0
    endloop
  endfacet
  facet normal 0 0 -1
    outer loop
      vertex 11.8264 0 0
      vertex 7.783 28.47 0
      vertex 8.783 29.47 0
    endloop
  endfacet
  facet normal 0 0 -1
    outer loop
      vertex 3.79759 0 0
      vertex 7.783 28.47 0
      vertex 11.8264 0 0
    endloop
  endfacet
  facet normal -0 0 -1
    outer loop
      vertex 7.783 28.47 0
      vertex 3.79759 0 0
      vertex 6.783 29.47 0
    endloop
  endfacet
  facet normal 0 0 -1
    outer loop
      vertex 7.783 30.47 0
      vertex 11.8264 39.7652 0
      vertex 8.783 29.47 0
    endloop
  endfacet
  facet normal 0 0 -1
    outer loop
      vertex 3.79759 39.7652 0
      vertex 7.783 30.47 0
      vertex 6.783 29.47 0
    endloop
  endfacet
  facet normal 0 0 -1
    outer loop
      vertex 7.783 30.47 0
      vertex 3.79759 39.7652 0
      vertex 11.8264 39.7652 0
    endloop
  endfacet
  facet normal 0 0 -1
    outer loop
      vertex 3.79759 39.7652 0
      vertex 6.783 29.47 0
      vertex 3.79759 0 0
    endloop
  endfacet
  facet normal -0 0 1
    outer loop
      vertex 3.79759 39.7652 5
      vertex 11.8264 0 5
      vertex 11.8264 39.7652 5
    endloop
  endfacet
  facet normal 0 0 1
    outer loop
      vertex 11.8264 0 5
      vertex 3.79759 39.7652 5
      vertex 3.79759 0 5
    endloop
  endfacet
  facet normal 0 1 -0
    outer loop
      vertex 11.8264 39.7652 0
      vertex 3.79759 39.7652 5
      vertex 11.8264 39.7652 5
    endloop
  endfacet
  facet normal 0 1 0
    outer loop
      vertex 3.79759 39.7652 5
      vertex 11.8264 39.7652 0
      vertex 3.79759 39.7652 0
    endloop
  endfacet
  facet normal 0 -1 0
    outer loop
      vertex 3.79759 0 0
      vertex 11.8264 0 5
      vertex 3.79759 0 5
    endloop
  endfacet
  facet normal 0 -1 -0
    outer loop
      vertex 11.8264 0 5
      vertex 3.79759 0 0
      vertex 11.8264 0 0
    endloop
  endfacet
  facet normal 0.707107 -0.707107 0
    outer loop
      vertex 6.783 29.47 2
      vertex 7.783 30.47 0
      vertex 7.783 30.47 2
    endloop
  endfacet
  facet normal 0.707107 -0.707107 0
    outer loop
      vertex 7.783 30.47 0
      vertex 6.783 29.47 2
      vertex 6.783 29.47 0
    endloop
  endfacet
  facet normal -0.707107 -0.707107 0
    outer loop
      vertex 8.783 29.47 0
      vertex 7.783 30.47 2
      vertex 7.783 30.47 0
    endloop
  endfacet
  facet normal -0.707107 -0.707107 0
    outer loop
      vertex 7.783 30.47 2
      vertex 8.783 29.47 0
      vertex 8.783 29.47 2
    endloop
  endfacet
  facet normal 0 0 -1
    outer loop
      vertex 7.783 28.47 2
      vertex 7.783 30.47 2
      vertex 8.783 29.47 2
    endloop
  endfacet
  facet normal 0 -0 -1
    outer loop
      vertex 7.783 30.47 2
      vertex 7.783 28.47 2
      vertex 6.783 29.47 2
    endloop
  endfacet
  facet normal -0.707107 0.707107 0
    outer loop
      vertex 7.783 28.47 0
      vertex 8.783 29.47 2
      vertex 8.783 29.47 0
    endloop
  endfacet
  facet normal -0.707107 0.707107 0
    outer loop
      vertex 8.783 29.47 2
      vertex 7.783 28.47 0
      vertex 7.783 28.47 2
    endloop
  endfacet
  facet normal 0.707107 0.707107 0
    outer loop
      vertex 7.783 28.47 2
      vertex 6.783 29.47 0
      vertex 6.783 29.47 2
    endloop
  endfacet
  facet normal 0.707107 0.707107 0
    outer loop
      vertex 6.783 29.47 0
      vertex 7.783 28.47 2
      vertex 7.783 28.47 0
    endloop
  endfacet
endsolid OpenSCAD_Model
