solid OpenSCAD_Model
  facet normal 0 0 -1
    outer loop
      vertex 27.1144 39.8374 0
      vertex 22.661 37.0702 0
      vertex 22.663 37.133 0
    endloop
  endfacet
  facet normal 0 0 -1
    outer loop
      vertex 27.1144 39.8374 0
      vertex 22.6551 37.0077 0
      vertex 22.661 37.0702 0
    endloop
  endfacet
  facet normal 0 0 -1
    outer loop
      vertex 24.818 33.2071 0
      vertex 22.6453 36.9456 0
      vertex 22.6551 37.0077 0
    endloop
  endfacet
  facet normal 0 0 -1
    outer loop
      vertex 24.818 33.2071 0
      vertex 22.6316 36.8843 0
      vertex 22.6453 36.9456 0
    endloop
  endfacet
  facet normal 0 0 -1
    outer loop
      vertex 24.818 33.2071 0
      vertex 22.6141 36.824 0
      vertex 22.6316 36.8843 0
    endloop
  endfacet
  facet normal 0 0 -1
    outer loop
      vertex 24.818 33.2071 0
      vertex 22.5928 36.7649 0
      vertex 22.6141 36.824 0
    endloop
  endfacet
  facet normal 0 0 -1
    outer loop
      vertex 24.818 33.2071 0
      vertex 22.5678 36.7072 0
      vertex 22.5928 36.7649 0
    endloop
  endfacet
  facet normal 0 0 -1
    outer loop
      vertex 24.818 33.2071 0
      vertex 22.5393 36.6512 0
      vertex 22.5678 36.7072 0
    endloop
  endfacet
  facet normal 0 0 -1
    outer loop
      vertex 24.818 33.2071 0
      vertex 22.5073 36.5972 0
      vertex 22.5393 36.6512 0
    endloop
  endfacet
  facet normal 0 0 -1
    outer loop
      vertex 24.818 33.2071 0
      vertex 22.472 36.5452 0
      vertex 22.5073 36.5972 0
    endloop
  endfacet
  facet normal 0 0 -1
    outer loop
      vertex 24.818 33.2071 0
      vertex 22.4335 36.4956 0
      vertex 22.472 36.5452 0
    endloop
  endfacet
  facet normal 0 0 -1
    outer loop
      vertex 24.818 33.2071 0
      vertex 22.392 36.4485 0
      vertex 22.4335 36.4956 0
    endloop
  endfacet
  facet normal 0 0 -1
    outer loop
      vertex 24.818 33.2071 0
      vertex 22.3475 36.404 0
      vertex 22.392 36.4485 0
    endloop
  endfacet
  facet normal 0 0 -1
    outer loop
      vertex 24.818 33.2071 0
      vertex 22.3004 36.3625 0
      vertex 22.3475 36.404 0
    endloop
  endfacet
  facet normal 0 0 -1
    outer loop
      vertex 24.818 33.2071 0
      vertex 22.2508 36.324 0
      vertex 22.3004 36.3625 0
    endloop
  endfacet
  facet normal 0 0 -1
    outer loop
      vertex 21.7272 33.5808 0
      vertex 22.2508 36.324 0
      vertex 24.818 33.2071 0
    endloop
  endfacet
  facet normal 0 0 -1
    outer loop
      vertex 22.2508 36.324 0
      vertex 21.7272 33.5808 0
      vertex 22.1988 36.2887 0
    endloop
  endfacet
  facet normal 0 0 -1
    outer loop
      vertex 22.1988 36.2887 0
      vertex 21.7272 33.5808 0
      vertex 22.1448 36.2567 0
    endloop
  endfacet
  facet normal 0 0 -1
    outer loop
      vertex 22.1448 36.2567 0
      vertex 21.7272 33.5808 0
      vertex 22.0888 36.2282 0
    endloop
  endfacet
  facet normal 0 0 -1
    outer loop
      vertex 22.0888 36.2282 0
      vertex 21.7272 33.5808 0
      vertex 22.0311 36.2032 0
    endloop
  endfacet
  facet normal 0 0 -1
    outer loop
      vertex 22.0311 36.2032 0
      vertex 21.7272 33.5808 0
      vertex 21.972 36.1819 0
    endloop
  endfacet
  facet normal 0 0 -1
    outer loop
      vertex 21.972 36.1819 0
      vertex 21.7272 33.5808 0
      vertex 21.9117 36.1644 0
    endloop
  endfacet
  facet normal 0 0 -1
    outer loop
      vertex 21.9117 36.1644 0
      vertex 21.7272 33.5808 0
      vertex 21.8504 36.1507 0
    endloop
  endfacet
  facet normal 0 0 -1
    outer loop
      vertex 21.8504 36.1507 0
      vertex 21.7272 33.5808 0
      vertex 21.7883 36.1409 0
    endloop
  endfacet
  facet normal 0 0 -1
    outer loop
      vertex 21.7272 33.5808 0
      vertex 21.7258 36.135 0
      vertex 21.7883 36.1409 0
    endloop
  endfacet
  facet normal 0 0 -1
    outer loop
      vertex 21.7272 33.5808 0
      vertex 21.663 36.133 0
      vertex 21.7258 36.135 0
    endloop
  endfacet
  facet normal 0 0 -1
    outer loop
      vertex 21.7272 33.5808 0
      vertex 21.6002 36.135 0
      vertex 21.663 36.133 0
    endloop
  endfacet
  facet normal 0 0 -1
    outer loop
      vertex 21.7272 33.5808 0
      vertex 21.5377 36.1409 0
      vertex 21.6002 36.135 0
    endloop
  endfacet
  facet normal 0 0 -1
    outer loop
      vertex 21.7272 33.5808 0
      vertex 21.4756 36.1507 0
      vertex 21.5377 36.1409 0
    endloop
  endfacet
  facet normal 0 0 -1
    outer loop
      vertex 21.7272 33.5808 0
      vertex 21.4143 36.1644 0
      vertex 21.4756 36.1507 0
    endloop
  endfacet
  facet normal 0 0 -1
    outer loop
      vertex 21.7272 33.5808 0
      vertex 21.354 36.1819 0
      vertex 21.4143 36.1644 0
    endloop
  endfacet
  facet normal 0 0 -1
    outer loop
      vertex 21.7272 33.5808 0
      vertex 21.2949 36.2032 0
      vertex 21.354 36.1819 0
    endloop
  endfacet
  facet normal 0 0 -1
    outer loop
      vertex 21.7272 33.5808 0
      vertex 21.2372 36.2282 0
      vertex 21.2949 36.2032 0
    endloop
  endfacet
  facet normal 0 0 -1
    outer loop
      vertex 21.7272 33.5808 0
      vertex 21.1812 36.2567 0
      vertex 21.2372 36.2282 0
    endloop
  endfacet
  facet normal 0 0 -1
    outer loop
      vertex 21.7272 33.5808 0
      vertex 21.1272 36.2887 0
      vertex 21.1812 36.2567 0
    endloop
  endfacet
  facet normal 0 0 -1
    outer loop
      vertex 18.6319 33.2025 0
      vertex 21.1272 36.2887 0
      vertex 21.7272 33.5808 0
    endloop
  endfacet
  facet normal -0 0 -1
    outer loop
      vertex 21.1272 36.2887 0
      vertex 18.6319 33.2025 0
      vertex 21.0752 36.324 0
    endloop
  endfacet
  facet normal -0 0 -1
    outer loop
      vertex 21.0752 36.324 0
      vertex 18.6319 33.2025 0
      vertex 21.0256 36.3625 0
    endloop
  endfacet
  facet normal -0 0 -1
    outer loop
      vertex 21.0256 36.3625 0
      vertex 18.6319 33.2025 0
      vertex 20.9785 36.404 0
    endloop
  endfacet
  facet normal -0 0 -1
    outer loop
      vertex 20.9785 36.404 0
      vertex 18.6319 33.2025 0
      vertex 20.934 36.4485 0
    endloop
  endfacet
  facet normal -0 0 -1
    outer loop
      vertex 20.934 36.4485 0
      vertex 18.6319 33.2025 0
      vertex 20.8925 36.4956 0
    endloop
  endfacet
  facet normal -0 0 -1
    outer loop
      vertex 20.8925 36.4956 0
      vertex 18.6319 33.2025 0
      vertex 20.854 36.5452 0
    endloop
  endfacet
  facet normal -0 0 -1
    outer loop
      vertex 20.854 36.5452 0
      vertex 18.6319 33.2025 0
      vertex 20.8187 36.5972 0
    endloop
  endfacet
  facet normal -0 0 -1
    outer loop
      vertex 20.8187 36.5972 0
      vertex 18.6319 33.2025 0
      vertex 20.7867 36.6512 0
    endloop
  endfacet
  facet normal -0 0 -1
    outer loop
      vertex 20.7867 36.6512 0
      vertex 18.6319 33.2025 0
      vertex 20.7582 36.7072 0
    endloop
  endfacet
  facet normal -0 0 -1
    outer loop
      vertex 20.7582 36.7072 0
      vertex 18.6319 33.2025 0
      vertex 20.7332 36.7649 0
    endloop
  endfacet
  facet normal 0 0 -1
    outer loop
      vertex 20.6709 37.0077 0
      vertex 15.6783 39.744 0
      vertex 20.665 37.0702 0
    endloop
  endfacet
  facet normal 0 0 -1
    outer loop
      vertex 15.6783 39.744 0
      vertex 20.6709 37.0077 0
      vertex 18.6319 33.2025 0
    endloop
  endfacet
  facet normal -0 0 -1
    outer loop
      vertex 20.6807 36.9456 0
      vertex 18.6319 33.2025 0
      vertex 20.6709 37.0077 0
    endloop
  endfacet
  facet normal -0 0 -1
    outer loop
      vertex 20.6944 36.8843 0
      vertex 18.6319 33.2025 0
      vertex 20.6807 36.9456 0
    endloop
  endfacet
  facet normal -0 0 -1
    outer loop
      vertex 20.7119 36.824 0
      vertex 18.6319 33.2025 0
      vertex 20.6944 36.8843 0
    endloop
  endfacet
  facet normal -0 0 -1
    outer loop
      vertex 20.7332 36.7649 0
      vertex 18.6319 33.2025 0
      vertex 20.7119 36.824 0
    endloop
  endfacet
  facet normal 0 0 -1
    outer loop
      vertex 32.3435 15.7912 0
      vertex 40.986 19.8284 0
      vertex 40.4043 13.8745 0
    endloop
  endfacet
  facet normal 0 0 -1
    outer loop
      vertex 31.3172 12.3327 0
      vertex 40.4043 13.8745 0
      vertex 38.6592 8.85185 0
    endloop
  endfacet
  facet normal 0 0 -1
    outer loop
      vertex 40.986 19.8284 0
      vertex 32.6856 20.0184 0
      vertex 40.3998 25.8291 0
    endloop
  endfacet
  facet normal 0 0 -1
    outer loop
      vertex 31.3172 12.3327 0
      vertex 38.6592 8.85185 0
      vertex 35.7508 4.76039 0
    endloop
  endfacet
  facet normal -0 0 -1
    outer loop
      vertex 40.986 19.8284 0
      vertex 32.3435 15.7912 0
      vertex 32.6856 20.0184 0
    endloop
  endfacet
  facet normal -0 0 -1
    outer loop
      vertex 40.3998 25.8291 0
      vertex 32.3526 24.1895 0
      vertex 38.6411 30.8833 0
    endloop
  endfacet
  facet normal 0 0 -1
    outer loop
      vertex 32.3526 24.1895 0
      vertex 40.3998 25.8291 0
      vertex 32.6856 20.0184 0
    endloop
  endfacet
  facet normal 0 0 -1
    outer loop
      vertex 29.6068 9.64279 0
      vertex 35.7508 4.76039 0
      vertex 31.8689 1.73906 0
    endloop
  endfacet
  facet normal -0 0 -1
    outer loop
      vertex 40.4043 13.8745 0
      vertex 31.3172 12.3327 0
      vertex 32.3435 15.7912 0
    endloop
  endfacet
  facet normal 0 0 -1
    outer loop
      vertex 35.7508 4.76039 0
      vertex 29.6068 9.64279 0
      vertex 31.3172 12.3327 0
    endloop
  endfacet
  facet normal 0 0 -1
    outer loop
      vertex 31.8689 1.73906 0
      vertex 27.3631 7.72147 0
      vertex 29.6068 9.64279 0
    endloop
  endfacet
  facet normal 0 0 -1
    outer loop
      vertex 27.2034 -0.0737305 0
      vertex 27.3631 7.72147 0
      vertex 31.8689 1.73906 0
    endloop
  endfacet
  facet normal 0 0 -1
    outer loop
      vertex 27.2034 -0.0737305 0
      vertex 24.7366 6.56866 0
      vertex 27.3631 7.72147 0
    endloop
  endfacet
  facet normal 0 0 -1
    outer loop
      vertex 21.7544 -0.677994 0
      vertex 24.7366 6.56866 0
      vertex 27.2034 -0.0737305 0
    endloop
  endfacet
  facet normal 0 0 -1
    outer loop
      vertex 21.7544 -0.677994 0
      vertex 21.7272 6.18439 0
      vertex 24.7366 6.56866 0
    endloop
  endfacet
  facet normal 0 0 -1
    outer loop
      vertex 21.7544 -0.677994 0
      vertex 18.7132 6.57169 0
      vertex 21.7272 6.18439 0
    endloop
  endfacet
  facet normal 0 0 -1
    outer loop
      vertex 16.2449 -0.0767517 0
      vertex 18.7132 6.57169 0
      vertex 21.7544 -0.677994 0
    endloop
  endfacet
  facet normal 0 0 -1
    outer loop
      vertex 16.2449 -0.0767517 0
      vertex 16.073 7.73355 0
      vertex 18.7132 6.57169 0
    endloop
  endfacet
  facet normal 0 0 -1
    outer loop
      vertex 11.5432 1.72697 0
      vertex 16.073 7.73355 0
      vertex 16.2449 -0.0767517 0
    endloop
  endfacet
  facet normal -0 0 -1
    outer loop
      vertex 16.073 7.73355 0
      vertex 11.5432 1.72697 0
      vertex 13.8064 9.67 0
    endloop
  endfacet
  facet normal 0 0 -1
    outer loop
      vertex 7.64919 4.73318 0
      vertex 13.8064 9.67 0
      vertex 11.5432 1.72697 0
    endloop
  endfacet
  facet normal -0 0 -1
    outer loop
      vertex 13.8064 9.67 0
      vertex 7.64919 4.73318 0
      vertex 12.0735 12.3569 0
    endloop
  endfacet
  facet normal 0 0 -1
    outer loop
      vertex 4.74075 8.79448 0
      vertex 12.0735 12.3569 0
      vertex 7.64919 4.73318 0
    endloop
  endfacet
  facet normal 0 0 -1
    outer loop
      vertex 2.99568 13.7629 0
      vertex 12.0735 12.3569 0
      vertex 4.74075 8.79448 0
    endloop
  endfacet
  facet normal 0 -0 -1
    outer loop
      vertex 2.61595 23.4721 0
      vertex 10.6872 19.9096 0
      vertex 2.41399 19.6384 0
    endloop
  endfacet
  facet normal 0 0 -1
    outer loop
      vertex 12.0735 12.3569 0
      vertex 2.99568 13.7629 0
      vertex 11.0338 15.7701 0
    endloop
  endfacet
  facet normal 0 -0 -1
    outer loop
      vertex 3.22182 26.8718 0
      vertex 10.6872 19.9096 0
      vertex 2.61595 23.4721 0
    endloop
  endfacet
  facet normal 0 -0 -1
    outer loop
      vertex 4.2316 29.8376 0
      vertex 10.6872 19.9096 0
      vertex 3.22182 26.8718 0
    endloop
  endfacet
  facet normal 0 0 -1
    outer loop
      vertex 2.41399 19.6384 0
      vertex 11.0338 15.7701 0
      vertex 2.99568 13.7629 0
    endloop
  endfacet
  facet normal 0 0 -1
    outer loop
      vertex 10.6872 19.9096 0
      vertex 7.93399 35.2896 0
      vertex 9.54799 36.7603 0
    endloop
  endfacet
  facet normal 0 0 -1
    outer loop
      vertex 10.6872 19.9096 0
      vertex 5.24564 31.7936 0
      vertex 6.47977 33.6109 0
    endloop
  endfacet
  facet normal 0 0 -1
    outer loop
      vertex 11.0338 15.7701 0
      vertex 2.41399 19.6384 0
      vertex 10.6872 19.9096 0
    endloop
  endfacet
  facet normal 0 0 -1
    outer loop
      vertex 10.6872 19.9096 0
      vertex 4.2316 29.8376 0
      vertex 5.24564 31.7936 0
    endloop
  endfacet
  facet normal 0 0 -1
    outer loop
      vertex 10.6872 19.9096 0
      vertex 6.47977 33.6109 0
      vertex 7.93399 35.2896 0
    endloop
  endfacet
  facet normal 0 0 -1
    outer loop
      vertex 31.3535 27.5891 0
      vertex 38.6411 30.8833 0
      vertex 32.3526 24.1895 0
    endloop
  endfacet
  facet normal -0 0 -1
    outer loop
      vertex 38.6411 30.8833 0
      vertex 31.3535 27.5891 0
      vertex 35.71 34.9912 0
    endloop
  endfacet
  facet normal 0 0 -1
    outer loop
      vertex 29.6884 30.2172 0
      vertex 35.71 34.9912 0
      vertex 31.3535 27.5891 0
    endloop
  endfacet
  facet normal -0 0 -1
    outer loop
      vertex 35.71 34.9912 0
      vertex 29.6884 30.2172 0
      vertex 31.8026 38.0201 0
    endloop
  endfacet
  facet normal 0 0 -1
    outer loop
      vertex 27.4717 32.0859 0
      vertex 31.8026 38.0201 0
      vertex 29.6884 30.2172 0
    endloop
  endfacet
  facet normal 0 0 -1
    outer loop
      vertex 27.4717 32.0859 0
      vertex 27.1144 39.8374 0
      vertex 31.8026 38.0201 0
    endloop
  endfacet
  facet normal 0 0 -1
    outer loop
      vertex 24.818 33.2071 0
      vertex 27.1144 39.8374 0
      vertex 27.4717 32.0859 0
    endloop
  endfacet
  facet normal 0 0 -1
    outer loop
      vertex 22.6551 37.0077 0
      vertex 27.1144 39.8374 0
      vertex 24.818 33.2071 0
    endloop
  endfacet
  facet normal 0 0 -1
    outer loop
      vertex 22.661 37.1958 0
      vertex 27.1144 39.8374 0
      vertex 22.663 37.133 0
    endloop
  endfacet
  facet normal 0 0 -1
    outer loop
      vertex 22.6551 37.2583 0
      vertex 27.1144 39.8374 0
      vertex 22.661 37.1958 0
    endloop
  endfacet
  facet normal 0 0 -1
    outer loop
      vertex 22.6453 37.3204 0
      vertex 27.1144 39.8374 0
      vertex 22.6551 37.2583 0
    endloop
  endfacet
  facet normal 0 0 -1
    outer loop
      vertex 22.6316 37.3817 0
      vertex 27.1144 39.8374 0
      vertex 22.6453 37.3204 0
    endloop
  endfacet
  facet normal 0 0 -1
    outer loop
      vertex 22.6141 37.442 0
      vertex 27.1144 39.8374 0
      vertex 22.6316 37.3817 0
    endloop
  endfacet
  facet normal 0 0 -1
    outer loop
      vertex 22.5928 37.5011 0
      vertex 27.1144 39.8374 0
      vertex 22.6141 37.442 0
    endloop
  endfacet
  facet normal 0 0 -1
    outer loop
      vertex 22.5678 37.5588 0
      vertex 27.1144 39.8374 0
      vertex 22.5928 37.5011 0
    endloop
  endfacet
  facet normal 0 0 -1
    outer loop
      vertex 22.5393 37.6148 0
      vertex 27.1144 39.8374 0
      vertex 22.5678 37.5588 0
    endloop
  endfacet
  facet normal 0 0 -1
    outer loop
      vertex 22.5073 37.6688 0
      vertex 27.1144 39.8374 0
      vertex 22.5393 37.6148 0
    endloop
  endfacet
  facet normal 0 0 -1
    outer loop
      vertex 22.472 37.7208 0
      vertex 27.1144 39.8374 0
      vertex 22.5073 37.6688 0
    endloop
  endfacet
  facet normal 0 0 -1
    outer loop
      vertex 22.4335 37.7704 0
      vertex 27.1144 39.8374 0
      vertex 22.472 37.7208 0
    endloop
  endfacet
  facet normal 0 0 -1
    outer loop
      vertex 22.392 37.8175 0
      vertex 27.1144 39.8374 0
      vertex 22.4335 37.7704 0
    endloop
  endfacet
  facet normal 0 0 -1
    outer loop
      vertex 22.3475 37.862 0
      vertex 27.1144 39.8374 0
      vertex 22.392 37.8175 0
    endloop
  endfacet
  facet normal 0 0 -1
    outer loop
      vertex 21.6456 40.4432 0
      vertex 22.3475 37.862 0
      vertex 22.3004 37.9035 0
    endloop
  endfacet
  facet normal 0 0 -1
    outer loop
      vertex 21.6456 40.4432 0
      vertex 22.3004 37.9035 0
      vertex 22.2508 37.942 0
    endloop
  endfacet
  facet normal 0 0 -1
    outer loop
      vertex 21.6456 40.4432 0
      vertex 22.2508 37.942 0
      vertex 22.1988 37.9773 0
    endloop
  endfacet
  facet normal 0 0 -1
    outer loop
      vertex 21.6456 40.4432 0
      vertex 22.1988 37.9773 0
      vertex 22.1448 38.0093 0
    endloop
  endfacet
  facet normal 0 0 -1
    outer loop
      vertex 21.6456 40.4432 0
      vertex 22.1448 38.0093 0
      vertex 22.0888 38.0378 0
    endloop
  endfacet
  facet normal 0 0 -1
    outer loop
      vertex 21.6456 40.4432 0
      vertex 22.0888 38.0378 0
      vertex 22.0311 38.0628 0
    endloop
  endfacet
  facet normal 0 0 -1
    outer loop
      vertex 21.6456 40.4432 0
      vertex 22.0311 38.0628 0
      vertex 21.972 38.0841 0
    endloop
  endfacet
  facet normal 0 0 -1
    outer loop
      vertex 21.6456 40.4432 0
      vertex 21.972 38.0841 0
      vertex 21.9117 38.1016 0
    endloop
  endfacet
  facet normal 0 0 -1
    outer loop
      vertex 21.6456 40.4432 0
      vertex 21.9117 38.1016 0
      vertex 21.8504 38.1153 0
    endloop
  endfacet
  facet normal 0 0 -1
    outer loop
      vertex 21.6456 40.4432 0
      vertex 21.8504 38.1153 0
      vertex 21.7883 38.1251 0
    endloop
  endfacet
  facet normal 0 0 -1
    outer loop
      vertex 21.6456 40.4432 0
      vertex 21.7883 38.1251 0
      vertex 21.7258 38.131 0
    endloop
  endfacet
  facet normal 0 0 -1
    outer loop
      vertex 21.6456 40.4432 0
      vertex 21.7258 38.131 0
      vertex 21.663 38.133 0
    endloop
  endfacet
  facet normal 0 0 -1
    outer loop
      vertex 22.3475 37.862 0
      vertex 21.6456 40.4432 0
      vertex 27.1144 39.8374 0
    endloop
  endfacet
  facet normal 0 0 -1
    outer loop
      vertex 21.6002 38.131 0
      vertex 21.6456 40.4432 0
      vertex 21.663 38.133 0
    endloop
  endfacet
  facet normal 0 0 -1
    outer loop
      vertex 21.5377 38.1251 0
      vertex 21.6456 40.4432 0
      vertex 21.6002 38.131 0
    endloop
  endfacet
  facet normal 0 0 -1
    outer loop
      vertex 21.4756 38.1153 0
      vertex 21.6456 40.4432 0
      vertex 21.5377 38.1251 0
    endloop
  endfacet
  facet normal 0 0 -1
    outer loop
      vertex 21.4143 38.1016 0
      vertex 21.6456 40.4432 0
      vertex 21.4756 38.1153 0
    endloop
  endfacet
  facet normal 0 0 -1
    outer loop
      vertex 21.354 38.0841 0
      vertex 21.6456 40.4432 0
      vertex 21.4143 38.1016 0
    endloop
  endfacet
  facet normal 0 0 -1
    outer loop
      vertex 21.2949 38.0628 0
      vertex 21.6456 40.4432 0
      vertex 21.354 38.0841 0
    endloop
  endfacet
  facet normal 0 0 -1
    outer loop
      vertex 21.2372 38.0378 0
      vertex 21.6456 40.4432 0
      vertex 21.2949 38.0628 0
    endloop
  endfacet
  facet normal 0 0 -1
    outer loop
      vertex 21.1812 38.0093 0
      vertex 21.6456 40.4432 0
      vertex 21.2372 38.0378 0
    endloop
  endfacet
  facet normal 0 0 -1
    outer loop
      vertex 21.1272 37.9773 0
      vertex 21.6456 40.4432 0
      vertex 21.1812 38.0093 0
    endloop
  endfacet
  facet normal 0 0 -1
    outer loop
      vertex 18.5354 40.2684 0
      vertex 21.1272 37.9773 0
      vertex 21.0752 37.942 0
    endloop
  endfacet
  facet normal 0 0 -1
    outer loop
      vertex 18.5354 40.2684 0
      vertex 21.0752 37.942 0
      vertex 21.0256 37.9035 0
    endloop
  endfacet
  facet normal 0 0 -1
    outer loop
      vertex 18.5354 40.2684 0
      vertex 21.0256 37.9035 0
      vertex 20.9785 37.862 0
    endloop
  endfacet
  facet normal 0 0 -1
    outer loop
      vertex 18.5354 40.2684 0
      vertex 20.9785 37.862 0
      vertex 20.934 37.8175 0
    endloop
  endfacet
  facet normal 0 0 -1
    outer loop
      vertex 18.5354 40.2684 0
      vertex 20.934 37.8175 0
      vertex 20.8925 37.7704 0
    endloop
  endfacet
  facet normal 0 0 -1
    outer loop
      vertex 18.5354 40.2684 0
      vertex 20.8925 37.7704 0
      vertex 20.854 37.7208 0
    endloop
  endfacet
  facet normal 0 0 -1
    outer loop
      vertex 18.5354 40.2684 0
      vertex 20.854 37.7208 0
      vertex 20.8187 37.6688 0
    endloop
  endfacet
  facet normal 0 0 -1
    outer loop
      vertex 18.5354 40.2684 0
      vertex 20.8187 37.6688 0
      vertex 20.7867 37.6148 0
    endloop
  endfacet
  facet normal 0 0 -1
    outer loop
      vertex 18.5354 40.2684 0
      vertex 20.7867 37.6148 0
      vertex 20.7582 37.5588 0
    endloop
  endfacet
  facet normal 0 0 -1
    outer loop
      vertex 18.5354 40.2684 0
      vertex 20.7582 37.5588 0
      vertex 20.7332 37.5011 0
    endloop
  endfacet
  facet normal 0 0 -1
    outer loop
      vertex 18.5354 40.2684 0
      vertex 20.7332 37.5011 0
      vertex 20.7119 37.442 0
    endloop
  endfacet
  facet normal 0 0 -1
    outer loop
      vertex 20.665 37.0702 0
      vertex 15.6783 39.744 0
      vertex 20.663 37.133 0
    endloop
  endfacet
  facet normal 0 0 -1
    outer loop
      vertex 20.663 37.133 0
      vertex 15.6783 39.744 0
      vertex 20.665 37.1958 0
    endloop
  endfacet
  facet normal 0 -0 -1
    outer loop
      vertex 18.5354 40.2684 0
      vertex 20.665 37.1958 0
      vertex 15.6783 39.744 0
    endloop
  endfacet
  facet normal 0 0 -1
    outer loop
      vertex 20.665 37.1958 0
      vertex 18.5354 40.2684 0
      vertex 20.6709 37.2583 0
    endloop
  endfacet
  facet normal 0 0 -1
    outer loop
      vertex 20.6709 37.2583 0
      vertex 18.5354 40.2684 0
      vertex 20.6807 37.3204 0
    endloop
  endfacet
  facet normal 0 0 -1
    outer loop
      vertex 20.6807 37.3204 0
      vertex 18.5354 40.2684 0
      vertex 20.6944 37.3817 0
    endloop
  endfacet
  facet normal 0 0 -1
    outer loop
      vertex 21.1272 37.9773 0
      vertex 18.5354 40.2684 0
      vertex 21.6456 40.4432 0
    endloop
  endfacet
  facet normal 0 0 -1
    outer loop
      vertex 15.6783 39.744 0
      vertex 18.6319 33.2025 0
      vertex 15.9645 32.0677 0
    endloop
  endfacet
  facet normal 0 0 -1
    outer loop
      vertex 20.6944 37.3817 0
      vertex 18.5354 40.2684 0
      vertex 20.7119 37.442 0
    endloop
  endfacet
  facet normal 0 0 -1
    outer loop
      vertex 9.54799 36.7603 0
      vertex 15.9645 32.0677 0
      vertex 13.7252 30.1764 0
    endloop
  endfacet
  facet normal 0 0 -1
    outer loop
      vertex 15.9645 32.0677 0
      vertex 13.0744 38.87 0
      vertex 15.6783 39.744 0
    endloop
  endfacet
  facet normal 0 0 -1
    outer loop
      vertex 9.54799 36.7603 0
      vertex 13.7252 30.1764 0
      vertex 12.0374 27.5228 0
    endloop
  endfacet
  facet normal 0 0 -1
    outer loop
      vertex 15.9645 32.0677 0
      vertex 11.2615 37.9538 0
      vertex 13.0744 38.87 0
    endloop
  endfacet
  facet normal 0 0 -1
    outer loop
      vertex 9.54799 36.7603 0
      vertex 12.0374 27.5228 0
      vertex 11.0247 24.1005 0
    endloop
  endfacet
  facet normal 0 0 -1
    outer loop
      vertex 9.54799 36.7603 0
      vertex 11.0247 24.1005 0
      vertex 10.6872 19.9096 0
    endloop
  endfacet
  facet normal 0 0 -1
    outer loop
      vertex 15.9645 32.0677 0
      vertex 9.54799 36.7603 0
      vertex 11.2615 37.9538 0
    endloop
  endfacet
  facet normal 0 0 1
    outer loop
      vertex 40.3998 25.8291 5
      vertex 32.3526 24.1895 5
      vertex 32.6856 20.0184 5
    endloop
  endfacet
  facet normal 0 0 1
    outer loop
      vertex 29.6884 30.2172 5
      vertex 35.71 34.9912 5
      vertex 31.8026 38.0201 5
    endloop
  endfacet
  facet normal 0 0 1
    outer loop
      vertex 38.6411 30.8833 5
      vertex 31.3535 27.5891 5
      vertex 32.3526 24.1895 5
    endloop
  endfacet
  facet normal 0 0 1
    outer loop
      vertex 35.71 34.9912 5
      vertex 29.6884 30.2172 5
      vertex 31.3535 27.5891 5
    endloop
  endfacet
  facet normal 0 0 1
    outer loop
      vertex 31.8026 38.0201 5
      vertex 27.4717 32.0859 5
      vertex 29.6884 30.2172 5
    endloop
  endfacet
  facet normal 0 0 1
    outer loop
      vertex 27.1144 39.8374 5
      vertex 27.4717 32.0859 5
      vertex 31.8026 38.0201 5
    endloop
  endfacet
  facet normal 0 0 1
    outer loop
      vertex 27.1144 39.8374 5
      vertex 24.818 33.2071 5
      vertex 27.4717 32.0859 5
    endloop
  endfacet
  facet normal 0 0 1
    outer loop
      vertex 21.6456 40.4432 5
      vertex 24.818 33.2071 5
      vertex 27.1144 39.8374 5
    endloop
  endfacet
  facet normal 0 0 1
    outer loop
      vertex 24.818 33.2071 5
      vertex 21.6456 40.4432 5
      vertex 21.7272 33.5808 5
    endloop
  endfacet
  facet normal -0 0 1
    outer loop
      vertex 18.5354 40.2684 5
      vertex 21.7272 33.5808 5
      vertex 21.6456 40.4432 5
    endloop
  endfacet
  facet normal 0 0 1
    outer loop
      vertex 21.7272 33.5808 5
      vertex 18.5354 40.2684 5
      vertex 18.6319 33.2025 5
    endloop
  endfacet
  facet normal -0 0 1
    outer loop
      vertex 15.6783 39.744 5
      vertex 18.6319 33.2025 5
      vertex 18.5354 40.2684 5
    endloop
  endfacet
  facet normal 0 0 1
    outer loop
      vertex 18.6319 33.2025 5
      vertex 15.6783 39.744 5
      vertex 15.9645 32.0677 5
    endloop
  endfacet
  facet normal -0 0 1
    outer loop
      vertex 13.0744 38.87 5
      vertex 15.9645 32.0677 5
      vertex 15.6783 39.744 5
    endloop
  endfacet
  facet normal -0 0 1
    outer loop
      vertex 11.2615 37.9538 5
      vertex 15.9645 32.0677 5
      vertex 13.0744 38.87 5
    endloop
  endfacet
  facet normal -0 0 1
    outer loop
      vertex 9.54799 36.7603 5
      vertex 15.9645 32.0677 5
      vertex 11.2615 37.9538 5
    endloop
  endfacet
  facet normal 0 0 1
    outer loop
      vertex 15.9645 32.0677 5
      vertex 9.54799 36.7603 5
      vertex 13.7252 30.1764 5
    endloop
  endfacet
  facet normal -0 0 1
    outer loop
      vertex 7.93399 35.2896 5
      vertex 13.7252 30.1764 5
      vertex 9.54799 36.7603 5
    endloop
  endfacet
  facet normal -0 0 1
    outer loop
      vertex 6.47977 33.6109 5
      vertex 13.7252 30.1764 5
      vertex 7.93399 35.2896 5
    endloop
  endfacet
  facet normal 0 0 1
    outer loop
      vertex 13.7252 30.1764 5
      vertex 6.47977 33.6109 5
      vertex 12.0374 27.5228 5
    endloop
  endfacet
  facet normal -0 0 1
    outer loop
      vertex 32.6856 20.0184 5
      vertex 40.986 19.8284 5
      vertex 40.3998 25.8291 5
    endloop
  endfacet
  facet normal 0 0 1
    outer loop
      vertex 32.3435 15.7912 5
      vertex 40.986 19.8284 5
      vertex 32.6856 20.0184 5
    endloop
  endfacet
  facet normal 0 0 1
    outer loop
      vertex 32.3526 24.1895 5
      vertex 40.3998 25.8291 5
      vertex 38.6411 30.8833 5
    endloop
  endfacet
  facet normal 0 0 1
    outer loop
      vertex 40.986 19.8284 5
      vertex 32.3435 15.7912 5
      vertex 40.4043 13.8745 5
    endloop
  endfacet
  facet normal 0 0 1
    outer loop
      vertex 31.3535 27.5891 5
      vertex 38.6411 30.8833 5
      vertex 35.71 34.9912 5
    endloop
  endfacet
  facet normal 0 0 1
    outer loop
      vertex 31.3172 12.3327 5
      vertex 40.4043 13.8745 5
      vertex 32.3435 15.7912 5
    endloop
  endfacet
  facet normal 0 0 1
    outer loop
      vertex 40.4043 13.8745 5
      vertex 31.3172 12.3327 5
      vertex 38.6592 8.85185 5
    endloop
  endfacet
  facet normal 0 0 1
    outer loop
      vertex 38.6592 8.85185 5
      vertex 31.3172 12.3327 5
      vertex 35.7508 4.76039 5
    endloop
  endfacet
  facet normal -0 0 1
    outer loop
      vertex 29.6068 9.64279 5
      vertex 35.7508 4.76039 5
      vertex 31.3172 12.3327 5
    endloop
  endfacet
  facet normal 0 0 1
    outer loop
      vertex 35.7508 4.76039 5
      vertex 29.6068 9.64279 5
      vertex 31.8689 1.73906 5
    endloop
  endfacet
  facet normal -0 0 1
    outer loop
      vertex 27.3631 7.72147 5
      vertex 31.8689 1.73906 5
      vertex 29.6068 9.64279 5
    endloop
  endfacet
  facet normal 0 0 1
    outer loop
      vertex 27.3631 7.72147 5
      vertex 27.2034 -0.0737305 5
      vertex 31.8689 1.73906 5
    endloop
  endfacet
  facet normal -0 0 1
    outer loop
      vertex 24.7366 6.56866 5
      vertex 27.2034 -0.0737305 5
      vertex 27.3631 7.72147 5
    endloop
  endfacet
  facet normal 0 0 1
    outer loop
      vertex 24.7366 6.56866 5
      vertex 21.7544 -0.677994 5
      vertex 27.2034 -0.0737305 5
    endloop
  endfacet
  facet normal -0 0 1
    outer loop
      vertex 21.7272 6.18439 5
      vertex 21.7544 -0.677994 5
      vertex 24.7366 6.56866 5
    endloop
  endfacet
  facet normal 0 0 1
    outer loop
      vertex 18.7132 6.57169 5
      vertex 21.7544 -0.677994 5
      vertex 21.7272 6.18439 5
    endloop
  endfacet
  facet normal 0 0 1
    outer loop
      vertex 18.7132 6.57169 5
      vertex 16.2449 -0.0767517 5
      vertex 21.7544 -0.677994 5
    endloop
  endfacet
  facet normal 0 0 1
    outer loop
      vertex 16.073 7.73355 5
      vertex 16.2449 -0.0767517 5
      vertex 18.7132 6.57169 5
    endloop
  endfacet
  facet normal 0 0 1
    outer loop
      vertex 11.5432 1.72697 5
      vertex 16.073 7.73355 5
      vertex 13.8064 9.67 5
    endloop
  endfacet
  facet normal 0 0 1
    outer loop
      vertex 7.64919 4.73318 5
      vertex 13.8064 9.67 5
      vertex 12.0735 12.3569 5
    endloop
  endfacet
  facet normal 0 0 1
    outer loop
      vertex 16.073 7.73355 5
      vertex 11.5432 1.72697 5
      vertex 16.2449 -0.0767517 5
    endloop
  endfacet
  facet normal -0 0 1
    outer loop
      vertex 2.99568 13.7629 5
      vertex 12.0735 12.3569 5
      vertex 11.0338 15.7701 5
    endloop
  endfacet
  facet normal -0 0 1
    outer loop
      vertex 2.41399 19.6384 5
      vertex 11.0338 15.7701 5
      vertex 10.6872 19.9096 5
    endloop
  endfacet
  facet normal -0 0 1
    outer loop
      vertex 5.24564 31.7936 5
      vertex 12.0374 27.5228 5
      vertex 6.47977 33.6109 5
    endloop
  endfacet
  facet normal -0 0 1
    outer loop
      vertex 4.2316 29.8376 5
      vertex 12.0374 27.5228 5
      vertex 5.24564 31.7936 5
    endloop
  endfacet
  facet normal 0 0 1
    outer loop
      vertex 11.0338 15.7701 5
      vertex 2.41399 19.6384 5
      vertex 2.99568 13.7629 5
    endloop
  endfacet
  facet normal 0 0 1
    outer loop
      vertex 3.22182 26.8718 5
      vertex 12.0374 27.5228 5
      vertex 4.2316 29.8376 5
    endloop
  endfacet
  facet normal 0 0 1
    outer loop
      vertex 12.0374 27.5228 5
      vertex 3.22182 26.8718 5
      vertex 11.0247 24.1005 5
    endloop
  endfacet
  facet normal 0 0 1
    outer loop
      vertex 12.0735 12.3569 5
      vertex 2.99568 13.7629 5
      vertex 4.74075 8.79448 5
    endloop
  endfacet
  facet normal 0 0 1
    outer loop
      vertex 2.61595 23.4721 5
      vertex 11.0247 24.1005 5
      vertex 3.22182 26.8718 5
    endloop
  endfacet
  facet normal 0 0 1
    outer loop
      vertex 11.0247 24.1005 5
      vertex 2.61595 23.4721 5
      vertex 10.6872 19.9096 5
    endloop
  endfacet
  facet normal 0 0 1
    outer loop
      vertex 10.6872 19.9096 5
      vertex 2.61595 23.4721 5
      vertex 2.41399 19.6384 5
    endloop
  endfacet
  facet normal 0 0 1
    outer loop
      vertex 12.0735 12.3569 5
      vertex 4.74075 8.79448 5
      vertex 7.64919 4.73318 5
    endloop
  endfacet
  facet normal 0 0 1
    outer loop
      vertex 13.8064 9.67 5
      vertex 7.64919 4.73318 5
      vertex 11.5432 1.72697 5
    endloop
  endfacet
  facet normal 0.362174 -0.932111 0
    outer loop
      vertex 27.2034 -0.0737305 0
      vertex 31.8689 1.73906 5
      vertex 27.2034 -0.0737305 5
    endloop
  endfacet
  facet normal 0.362174 -0.932111 0
    outer loop
      vertex 31.8689 1.73906 5
      vertex 27.2034 -0.0737305 0
      vertex 31.8689 1.73906 0
    endloop
  endfacet
  facet normal 0.614203 -0.789148 0
    outer loop
      vertex 31.8689 1.73906 0
      vertex 35.7508 4.76039 5
      vertex 31.8689 1.73906 5
    endloop
  endfacet
  facet normal 0.614203 -0.789148 0
    outer loop
      vertex 35.7508 4.76039 5
      vertex 31.8689 1.73906 0
      vertex 35.7508 4.76039 0
    endloop
  endfacet
  facet normal 0.815057 -0.579381 0
    outer loop
      vertex 35.7508 4.76039 5
      vertex 38.6592 8.85185 0
      vertex 38.6592 8.85185 5
    endloop
  endfacet
  facet normal 0.815057 -0.579381 0
    outer loop
      vertex 38.6592 8.85185 0
      vertex 35.7508 4.76039 5
      vertex 35.7508 4.76039 0
    endloop
  endfacet
  facet normal 0.944608 -0.3282 0
    outer loop
      vertex 38.6592 8.85185 5
      vertex 40.4043 13.8745 0
      vertex 40.4043 13.8745 5
    endloop
  endfacet
  facet normal 0.944608 -0.3282 0
    outer loop
      vertex 40.4043 13.8745 0
      vertex 38.6592 8.85185 5
      vertex 38.6592 8.85185 0
    endloop
  endfacet
  facet normal 0.995261 -0.0972377 0
    outer loop
      vertex 40.4043 13.8745 5
      vertex 40.986 19.8284 0
      vertex 40.986 19.8284 5
    endloop
  endfacet
  facet normal 0.995261 -0.0972377 0
    outer loop
      vertex 40.986 19.8284 0
      vertex 40.4043 13.8745 5
      vertex 40.4043 13.8745 0
    endloop
  endfacet
  facet normal 0.995262 0.0972258 0
    outer loop
      vertex 40.986 19.8284 5
      vertex 40.3998 25.8291 0
      vertex 40.3998 25.8291 5
    endloop
  endfacet
  facet normal 0.995262 0.0972258 0
    outer loop
      vertex 40.3998 25.8291 0
      vertex 40.986 19.8284 5
      vertex 40.986 19.8284 0
    endloop
  endfacet
  facet normal 0.944455 0.32864 0
    outer loop
      vertex 40.3998 25.8291 5
      vertex 38.6411 30.8833 0
      vertex 38.6411 30.8833 5
    endloop
  endfacet
  facet normal 0.944455 0.32864 0
    outer loop
      vertex 38.6411 30.8833 0
      vertex 40.3998 25.8291 5
      vertex 40.3998 25.8291 0
    endloop
  endfacet
  facet normal 0.814025 0.580829 0
    outer loop
      vertex 38.6411 30.8833 5
      vertex 35.71 34.9912 0
      vertex 35.71 34.9912 5
    endloop
  endfacet
  facet normal 0.814025 0.580829 0
    outer loop
      vertex 35.71 34.9912 0
      vertex 38.6411 30.8833 5
      vertex 38.6411 30.8833 0
    endloop
  endfacet
  facet normal 0.612656 0.79035 -0
    outer loop
      vertex 35.71 34.9912 0
      vertex 31.8026 38.0201 5
      vertex 35.71 34.9912 5
    endloop
  endfacet
  facet normal 0.612656 0.79035 0
    outer loop
      vertex 31.8026 38.0201 5
      vertex 35.71 34.9912 0
      vertex 31.8026 38.0201 0
    endloop
  endfacet
  facet normal 0.361429 0.9324 -0
    outer loop
      vertex 31.8026 38.0201 0
      vertex 27.1144 39.8374 5
      vertex 31.8026 38.0201 5
    endloop
  endfacet
  facet normal 0.361429 0.9324 0
    outer loop
      vertex 27.1144 39.8374 5
      vertex 31.8026 38.0201 0
      vertex 27.1144 39.8374 0
    endloop
  endfacet
  facet normal 0.1101 0.99392 -0
    outer loop
      vertex 27.1144 39.8374 0
      vertex 21.6456 40.4432 5
      vertex 27.1144 39.8374 5
    endloop
  endfacet
  facet normal 0.1101 0.99392 0
    outer loop
      vertex 21.6456 40.4432 5
      vertex 27.1144 39.8374 0
      vertex 21.6456 40.4432 0
    endloop
  endfacet
  facet normal -0.0561136 0.998424 0
    outer loop
      vertex 21.6456 40.4432 0
      vertex 18.5354 40.2684 5
      vertex 21.6456 40.4432 5
    endloop
  endfacet
  facet normal -0.0561136 0.998424 0
    outer loop
      vertex 18.5354 40.2684 5
      vertex 21.6456 40.4432 0
      vertex 18.5354 40.2684 0
    endloop
  endfacet
  facet normal -0.180527 0.98357 0
    outer loop
      vertex 18.5354 40.2684 0
      vertex 15.6783 39.744 5
      vertex 18.5354 40.2684 5
    endloop
  endfacet
  facet normal -0.180527 0.98357 0
    outer loop
      vertex 15.6783 39.744 5
      vertex 18.5354 40.2684 0
      vertex 15.6783 39.744 0
    endloop
  endfacet
  facet normal -0.318204 0.948022 0
    outer loop
      vertex 15.6783 39.744 0
      vertex 13.0744 38.87 5
      vertex 15.6783 39.744 5
    endloop
  endfacet
  facet normal -0.318204 0.948022 0
    outer loop
      vertex 13.0744 38.87 5
      vertex 15.6783 39.744 0
      vertex 13.0744 38.87 0
    endloop
  endfacet
  facet normal -0.451049 0.892499 0
    outer loop
      vertex 13.0744 38.87 0
      vertex 11.2615 37.9538 5
      vertex 13.0744 38.87 5
    endloop
  endfacet
  facet normal -0.451049 0.892499 0
    outer loop
      vertex 11.2615 37.9538 5
      vertex 13.0744 38.87 0
      vertex 11.2615 37.9538 0
    endloop
  endfacet
  facet normal -0.571546 0.82057 0
    outer loop
      vertex 11.2615 37.9538 0
      vertex 9.54799 36.7603 5
      vertex 11.2615 37.9538 5
    endloop
  endfacet
  facet normal -0.571546 0.82057 0
    outer loop
      vertex 9.54799 36.7603 5
      vertex 11.2615 37.9538 0
      vertex 9.54799 36.7603 0
    endloop
  endfacet
  facet normal -0.673532 0.739158 0
    outer loop
      vertex 9.54799 36.7603 0
      vertex 7.93399 35.2896 5
      vertex 9.54799 36.7603 5
    endloop
  endfacet
  facet normal -0.673532 0.739158 0
    outer loop
      vertex 7.93399 35.2896 5
      vertex 9.54799 36.7603 0
      vertex 7.93399 35.2896 0
    endloop
  endfacet
  facet normal -0.755835 0.654763 0
    outer loop
      vertex 6.47977 33.6109 0
      vertex 7.93399 35.2896 5
      vertex 7.93399 35.2896 0
    endloop
  endfacet
  facet normal -0.755835 0.654763 0
    outer loop
      vertex 7.93399 35.2896 5
      vertex 6.47977 33.6109 0
      vertex 6.47977 33.6109 5
    endloop
  endfacet
  facet normal -0.827272 0.561801 0
    outer loop
      vertex 5.24564 31.7936 0
      vertex 6.47977 33.6109 5
      vertex 6.47977 33.6109 0
    endloop
  endfacet
  facet normal -0.827272 0.561801 0
    outer loop
      vertex 6.47977 33.6109 5
      vertex 5.24564 31.7936 0
      vertex 5.24564 31.7936 5
    endloop
  endfacet
  facet normal -0.887788 0.460252 0
    outer loop
      vertex 4.2316 29.8376 0
      vertex 5.24564 31.7936 5
      vertex 5.24564 31.7936 0
    endloop
  endfacet
  facet normal -0.887788 0.460252 0
    outer loop
      vertex 5.24564 31.7936 5
      vertex 4.2316 29.8376 0
      vertex 4.2316 29.8376 5
    endloop
  endfacet
  facet normal -0.946636 0.322306 0
    outer loop
      vertex 3.22182 26.8718 0
      vertex 4.2316 29.8376 5
      vertex 4.2316 29.8376 0
    endloop
  endfacet
  facet normal -0.946636 0.322306 0
    outer loop
      vertex 4.2316 29.8376 5
      vertex 3.22182 26.8718 0
      vertex 3.22182 26.8718 5
    endloop
  endfacet
  facet normal -0.984489 0.175448 0
    outer loop
      vertex 2.61595 23.4721 0
      vertex 3.22182 26.8718 5
      vertex 3.22182 26.8718 0
    endloop
  endfacet
  facet normal -0.984489 0.175448 0
    outer loop
      vertex 3.22182 26.8718 5
      vertex 2.61595 23.4721 0
      vertex 2.61595 23.4721 5
    endloop
  endfacet
  facet normal -0.998615 0.0526072 0
    outer loop
      vertex 2.41399 19.6384 0
      vertex 2.61595 23.4721 5
      vertex 2.61595 23.4721 0
    endloop
  endfacet
  facet normal -0.998615 0.0526072 0
    outer loop
      vertex 2.61595 23.4721 5
      vertex 2.41399 19.6384 0
      vertex 2.41399 19.6384 5
    endloop
  endfacet
  facet normal -0.995135 -0.098521 0
    outer loop
      vertex 2.99568 13.7629 0
      vertex 2.41399 19.6384 5
      vertex 2.41399 19.6384 0
    endloop
  endfacet
  facet normal -0.995135 -0.098521 0
    outer loop
      vertex 2.41399 19.6384 5
      vertex 2.99568 13.7629 0
      vertex 2.99568 13.7629 5
    endloop
  endfacet
  facet normal -0.943495 -0.331386 0
    outer loop
      vertex 4.74075 8.79448 0
      vertex 2.99568 13.7629 5
      vertex 2.99568 13.7629 0
    endloop
  endfacet
  facet normal -0.943495 -0.331386 0
    outer loop
      vertex 2.99568 13.7629 5
      vertex 4.74075 8.79448 0
      vertex 4.74075 8.79448 5
    endloop
  endfacet
  facet normal -0.813022 -0.582233 0
    outer loop
      vertex 7.64919 4.73318 0
      vertex 4.74075 8.79448 5
      vertex 4.74075 8.79448 0
    endloop
  endfacet
  facet normal -0.813022 -0.582233 0
    outer loop
      vertex 4.74075 8.79448 5
      vertex 7.64919 4.73318 0
      vertex 7.64919 4.73318 5
    endloop
  endfacet
  facet normal -0.611091 -0.79156 0
    outer loop
      vertex 7.64919 4.73318 0
      vertex 11.5432 1.72697 5
      vertex 7.64919 4.73318 5
    endloop
  endfacet
  facet normal -0.611091 -0.79156 -0
    outer loop
      vertex 11.5432 1.72697 5
      vertex 7.64919 4.73318 0
      vertex 11.5432 1.72697 0
    endloop
  endfacet
  facet normal -0.358179 -0.933653 0
    outer loop
      vertex 11.5432 1.72697 0
      vertex 16.2449 -0.0767517 5
      vertex 11.5432 1.72697 5
    endloop
  endfacet
  facet normal -0.358179 -0.933653 -0
    outer loop
      vertex 16.2449 -0.0767517 5
      vertex 11.5432 1.72697 0
      vertex 16.2449 -0.0767517 0
    endloop
  endfacet
  facet normal -0.108484 -0.994098 0
    outer loop
      vertex 16.2449 -0.0767517 0
      vertex 21.7544 -0.677994 5
      vertex 16.2449 -0.0767517 5
    endloop
  endfacet
  facet normal -0.108484 -0.994098 -0
    outer loop
      vertex 21.7544 -0.677994 5
      vertex 16.2449 -0.0767517 0
      vertex 21.7544 -0.677994 0
    endloop
  endfacet
  facet normal 0.110219 -0.993907 0
    outer loop
      vertex 21.7544 -0.677994 0
      vertex 27.2034 -0.0737305 5
      vertex 21.7544 -0.677994 5
    endloop
  endfacet
  facet normal 0.110219 -0.993907 0
    outer loop
      vertex 27.2034 -0.0737305 5
      vertex 21.7544 -0.677994 0
      vertex 27.2034 -0.0737305 0
    endloop
  endfacet
  facet normal 0.402789 0.915293 -0
    outer loop
      vertex 18.7132 6.57169 0
      vertex 16.073 7.73355 5
      vertex 18.7132 6.57169 5
    endloop
  endfacet
  facet normal 0.402789 0.915293 0
    outer loop
      vertex 16.073 7.73355 5
      vertex 18.7132 6.57169 0
      vertex 16.073 7.73355 0
    endloop
  endfacet
  facet normal 0.649563 0.760308 -0
    outer loop
      vertex 16.073 7.73355 0
      vertex 13.8064 9.67 5
      vertex 16.073 7.73355 5
    endloop
  endfacet
  facet normal 0.649563 0.760308 0
    outer loop
      vertex 13.8064 9.67 5
      vertex 16.073 7.73355 0
      vertex 13.8064 9.67 0
    endloop
  endfacet
  facet normal 0.84038 0.541998 0
    outer loop
      vertex 13.8064 9.67 5
      vertex 12.0735 12.3569 0
      vertex 12.0735 12.3569 5
    endloop
  endfacet
  facet normal 0.84038 0.541998 0
    outer loop
      vertex 12.0735 12.3569 0
      vertex 13.8064 9.67 5
      vertex 13.8064 9.67 0
    endloop
  endfacet
  facet normal 0.956604 0.291392 0
    outer loop
      vertex 12.0735 12.3569 5
      vertex 11.0338 15.7701 0
      vertex 11.0338 15.7701 5
    endloop
  endfacet
  facet normal 0.956604 0.291392 0
    outer loop
      vertex 11.0338 15.7701 0
      vertex 12.0735 12.3569 5
      vertex 12.0735 12.3569 0
    endloop
  endfacet
  facet normal 0.996513 0.083438 0
    outer loop
      vertex 11.0338 15.7701 5
      vertex 10.6872 19.9096 0
      vertex 10.6872 19.9096 5
    endloop
  endfacet
  facet normal 0.996513 0.083438 0
    outer loop
      vertex 10.6872 19.9096 0
      vertex 11.0338 15.7701 5
      vertex 11.0338 15.7701 0
    endloop
  endfacet
  facet normal 0.996773 -0.0802718 0
    outer loop
      vertex 10.6872 19.9096 5
      vertex 11.0247 24.1005 0
      vertex 11.0247 24.1005 5
    endloop
  endfacet
  facet normal 0.996773 -0.0802718 0
    outer loop
      vertex 11.0247 24.1005 0
      vertex 10.6872 19.9096 5
      vertex 10.6872 19.9096 0
    endloop
  endfacet
  facet normal 0.958898 -0.28375 0
    outer loop
      vertex 11.0247 24.1005 5
      vertex 12.0374 27.5228 0
      vertex 12.0374 27.5228 5
    endloop
  endfacet
  facet normal 0.958898 -0.28375 0
    outer loop
      vertex 12.0374 27.5228 0
      vertex 11.0247 24.1005 5
      vertex 11.0247 24.1005 0
    endloop
  endfacet
  facet normal 0.843785 -0.536682 0
    outer loop
      vertex 12.0374 27.5228 5
      vertex 13.7252 30.1764 0
      vertex 13.7252 30.1764 5
    endloop
  endfacet
  facet normal 0.843785 -0.536682 0
    outer loop
      vertex 13.7252 30.1764 0
      vertex 12.0374 27.5228 5
      vertex 12.0374 27.5228 0
    endloop
  endfacet
  facet normal 0.645248 -0.763973 0
    outer loop
      vertex 13.7252 30.1764 0
      vertex 15.9645 32.0677 5
      vertex 13.7252 30.1764 5
    endloop
  endfacet
  facet normal 0.645248 -0.763973 0
    outer loop
      vertex 15.9645 32.0677 5
      vertex 13.7252 30.1764 0
      vertex 15.9645 32.0677 0
    endloop
  endfacet
  facet normal 0.391478 -0.920187 0
    outer loop
      vertex 15.9645 32.0677 0
      vertex 18.6319 33.2025 5
      vertex 15.9645 32.0677 5
    endloop
  endfacet
  facet normal 0.391478 -0.920187 0
    outer loop
      vertex 18.6319 33.2025 5
      vertex 15.9645 32.0677 0
      vertex 18.6319 33.2025 0
    endloop
  endfacet
  facet normal 0.121315 -0.992614 0
    outer loop
      vertex 18.6319 33.2025 0
      vertex 21.7272 33.5808 5
      vertex 18.6319 33.2025 5
    endloop
  endfacet
  facet normal 0.121315 -0.992614 0
    outer loop
      vertex 21.7272 33.5808 5
      vertex 18.6319 33.2025 0
      vertex 21.7272 33.5808 0
    endloop
  endfacet
  facet normal -0.120033 -0.99277 0
    outer loop
      vertex 21.7272 33.5808 0
      vertex 24.818 33.2071 5
      vertex 21.7272 33.5808 5
    endloop
  endfacet
  facet normal -0.120033 -0.99277 -0
    outer loop
      vertex 24.818 33.2071 5
      vertex 21.7272 33.5808 0
      vertex 24.818 33.2071 0
    endloop
  endfacet
  facet normal -0.389193 -0.921156 0
    outer loop
      vertex 24.818 33.2071 0
      vertex 27.4717 32.0859 5
      vertex 24.818 33.2071 5
    endloop
  endfacet
  facet normal -0.389193 -0.921156 -0
    outer loop
      vertex 27.4717 32.0859 5
      vertex 24.818 33.2071 0
      vertex 27.4717 32.0859 0
    endloop
  endfacet
  facet normal -0.64454 -0.76457 0
    outer loop
      vertex 27.4717 32.0859 0
      vertex 29.6884 30.2172 5
      vertex 27.4717 32.0859 5
    endloop
  endfacet
  facet normal -0.64454 -0.76457 -0
    outer loop
      vertex 29.6884 30.2172 5
      vertex 27.4717 32.0859 0
      vertex 29.6884 30.2172 0
    endloop
  endfacet
  facet normal -0.844727 -0.535198 0
    outer loop
      vertex 31.3535 27.5891 0
      vertex 29.6884 30.2172 5
      vertex 29.6884 30.2172 0
    endloop
  endfacet
  facet normal -0.844727 -0.535198 0
    outer loop
      vertex 29.6884 30.2172 5
      vertex 31.3535 27.5891 0
      vertex 31.3535 27.5891 5
    endloop
  endfacet
  facet normal -0.959425 -0.281963 0
    outer loop
      vertex 32.3526 24.1895 0
      vertex 31.3535 27.5891 5
      vertex 31.3535 27.5891 0
    endloop
  endfacet
  facet normal -0.959425 -0.281963 0
    outer loop
      vertex 31.3535 27.5891 5
      vertex 32.3526 24.1895 0
      vertex 32.3526 24.1895 5
    endloop
  endfacet
  facet normal -0.996828 -0.0795818 0
    outer loop
      vertex 32.6856 20.0184 0
      vertex 32.3526 24.1895 5
      vertex 32.3526 24.1895 0
    endloop
  endfacet
  facet normal -0.996828 -0.0795818 0
    outer loop
      vertex 32.3526 24.1895 5
      vertex 32.6856 20.0184 0
      vertex 32.6856 20.0184 5
    endloop
  endfacet
  facet normal -0.996741 0.0806646 0
    outer loop
      vertex 32.3435 15.7912 0
      vertex 32.6856 20.0184 5
      vertex 32.6856 20.0184 0
    endloop
  endfacet
  facet normal -0.996741 0.0806646 0
    outer loop
      vertex 32.6856 20.0184 5
      vertex 32.3435 15.7912 0
      vertex 32.3435 15.7912 5
    endloop
  endfacet
  facet normal -0.95868 0.284486 0
    outer loop
      vertex 31.3172 12.3327 0
      vertex 32.3435 15.7912 5
      vertex 32.3435 15.7912 0
    endloop
  endfacet
  facet normal -0.95868 0.284486 0
    outer loop
      vertex 32.3435 15.7912 5
      vertex 31.3172 12.3327 0
      vertex 31.3172 12.3327 5
    endloop
  endfacet
  facet normal -0.843855 0.536572 0
    outer loop
      vertex 29.6068 9.64279 0
      vertex 31.3172 12.3327 5
      vertex 31.3172 12.3327 0
    endloop
  endfacet
  facet normal -0.843855 0.536572 0
    outer loop
      vertex 31.3172 12.3327 5
      vertex 29.6068 9.64279 0
      vertex 29.6068 9.64279 5
    endloop
  endfacet
  facet normal -0.65043 0.759566 0
    outer loop
      vertex 29.6068 9.64279 0
      vertex 27.3631 7.72147 5
      vertex 29.6068 9.64279 5
    endloop
  endfacet
  facet normal -0.65043 0.759566 0
    outer loop
      vertex 27.3631 7.72147 5
      vertex 29.6068 9.64279 0
      vertex 27.3631 7.72147 0
    endloop
  endfacet
  facet normal -0.401906 0.915681 0
    outer loop
      vertex 27.3631 7.72147 0
      vertex 24.7366 6.56866 5
      vertex 27.3631 7.72147 5
    endloop
  endfacet
  facet normal -0.401906 0.915681 0
    outer loop
      vertex 24.7366 6.56866 5
      vertex 27.3631 7.72147 0
      vertex 24.7366 6.56866 0
    endloop
  endfacet
  facet normal -0.126661 0.991946 0
    outer loop
      vertex 24.7366 6.56866 0
      vertex 21.7272 6.18439 5
      vertex 24.7366 6.56866 5
    endloop
  endfacet
  facet normal -0.126661 0.991946 0
    outer loop
      vertex 21.7272 6.18439 5
      vertex 24.7366 6.56866 0
      vertex 21.7272 6.18439 0
    endloop
  endfacet
  facet normal 0.127452 0.991845 -0
    outer loop
      vertex 21.7272 6.18439 0
      vertex 18.7132 6.57169 5
      vertex 21.7272 6.18439 5
    endloop
  endfacet
  facet normal 0.127452 0.991845 0
    outer loop
      vertex 18.7132 6.57169 5
      vertex 21.7272 6.18439 0
      vertex 18.7132 6.57169 0
    endloop
  endfacet
  facet normal -0.999493 0.031831 0
    outer loop
      vertex 22.661 37.0702 0
      vertex 22.663 37.133 2
      vertex 22.663 37.133 0
    endloop
  endfacet
  facet normal -0.999493 0.031831 0
    outer loop
      vertex 22.663 37.133 2
      vertex 22.661 37.0702 0
      vertex 22.661 37.0702 2
    endloop
  endfacet
  facet normal -0.860292 -0.509802 0
    outer loop
      vertex 22.5393 37.6148 0
      vertex 22.5073 37.6688 2
      vertex 22.5073 37.6688 0
    endloop
  endfacet
  facet normal -0.860292 -0.509802 0
    outer loop
      vertex 22.5073 37.6688 2
      vertex 22.5393 37.6148 0
      vertex 22.5393 37.6148 2
    endloop
  endfacet
  facet normal -0.339058 -0.940766 0
    outer loop
      vertex 21.972 38.0841 0
      vertex 22.0311 38.0628 2
      vertex 21.972 38.0841 2
    endloop
  endfacet
  facet normal -0.339058 -0.940766 -0
    outer loop
      vertex 22.0311 38.0628 2
      vertex 21.972 38.0841 0
      vertex 22.0311 38.0628 0
    endloop
  endfacet
  facet normal 0.397563 -0.917575 0
    outer loop
      vertex 21.2372 38.0378 0
      vertex 21.2949 38.0628 2
      vertex 21.2372 38.0378 2
    endloop
  endfacet
  facet normal 0.397563 -0.917575 0
    outer loop
      vertex 21.2949 38.0628 2
      vertex 21.2372 38.0378 0
      vertex 21.2949 38.0628 0
    endloop
  endfacet
  facet normal 0.917575 -0.397563 0
    outer loop
      vertex 20.7332 37.5011 2
      vertex 20.7582 37.5588 0
      vertex 20.7582 37.5588 2
    endloop
  endfacet
  facet normal 0.917575 -0.397563 0
    outer loop
      vertex 20.7582 37.5588 0
      vertex 20.7332 37.5011 2
      vertex 20.7332 37.5011 0
    endloop
  endfacet
  facet normal -0.0939822 -0.995574 0
    outer loop
      vertex 21.7258 38.131 0
      vertex 21.7883 38.1251 2
      vertex 21.7258 38.131 2
    endloop
  endfacet
  facet normal -0.0939822 -0.995574 -0
    outer loop
      vertex 21.7883 38.1251 2
      vertex 21.7258 38.131 0
      vertex 21.7883 38.1251 0
    endloop
  endfacet
  facet normal -0.509802 -0.860292 0
    outer loop
      vertex 22.1448 38.0093 0
      vertex 22.1988 37.9773 2
      vertex 22.1448 38.0093 2
    endloop
  endfacet
  facet normal -0.509802 -0.860292 -0
    outer loop
      vertex 22.1988 37.9773 2
      vertex 22.1448 38.0093 0
      vertex 22.1988 37.9773 0
    endloop
  endfacet
  facet normal 0.750303 -0.661095 0
    outer loop
      vertex 20.8925 37.7704 2
      vertex 20.934 37.8175 0
      vertex 20.934 37.8175 2
    endloop
  endfacet
  facet normal 0.750303 -0.661095 0
    outer loop
      vertex 20.934 37.8175 0
      vertex 20.8925 37.7704 2
      vertex 20.8925 37.7704 0
    endloop
  endfacet
  facet normal 0.21811 -0.975924 0
    outer loop
      vertex 21.4143 38.1016 0
      vertex 21.4756 38.1153 2
      vertex 21.4143 38.1016 2
    endloop
  endfacet
  facet normal 0.21811 -0.975924 0
    outer loop
      vertex 21.4756 38.1153 2
      vertex 21.4143 38.1016 0
      vertex 21.4756 38.1153 0
    endloop
  endfacet
  facet normal -0.960374 -0.278715 0
    outer loop
      vertex 22.6316 37.3817 0
      vertex 22.6141 37.442 2
      vertex 22.6141 37.442 0
    endloop
  endfacet
  facet normal -0.960374 -0.278715 0
    outer loop
      vertex 22.6141 37.442 2
      vertex 22.6316 37.3817 0
      vertex 22.6316 37.3817 2
    endloop
  endfacet
  facet normal -0.789952 -0.613168 0
    outer loop
      vertex 22.472 37.7208 0
      vertex 22.4335 37.7704 2
      vertex 22.4335 37.7704 0
    endloop
  endfacet
  facet normal -0.789952 -0.613168 0
    outer loop
      vertex 22.4335 37.7704 2
      vertex 22.472 37.7208 0
      vertex 22.472 37.7208 2
    endloop
  endfacet
  facet normal -0.750303 -0.661095 0
    outer loop
      vertex 22.4335 37.7704 0
      vertex 22.392 37.8175 2
      vertex 22.392 37.8175 0
    endloop
  endfacet
  facet normal -0.750303 -0.661095 0
    outer loop
      vertex 22.392 37.8175 2
      vertex 22.4335 37.7704 0
      vertex 22.4335 37.7704 2
    endloop
  endfacet
  facet normal -0.155881 -0.987776 0
    outer loop
      vertex 21.7883 38.1251 0
      vertex 21.8504 38.1153 2
      vertex 21.7883 38.1251 2
    endloop
  endfacet
  facet normal -0.155881 -0.987776 -0
    outer loop
      vertex 21.8504 38.1153 2
      vertex 21.7883 38.1251 0
      vertex 21.8504 38.1153 0
    endloop
  endfacet
  facet normal -0.453568 -0.891222 0
    outer loop
      vertex 22.0888 38.0378 0
      vertex 22.1448 38.0093 2
      vertex 22.0888 38.0378 2
    endloop
  endfacet
  facet normal -0.453568 -0.891222 -0
    outer loop
      vertex 22.1448 38.0093 2
      vertex 22.0888 38.0378 0
      vertex 22.1448 38.0093 0
    endloop
  endfacet
  facet normal -0.561657 -0.82737 0
    outer loop
      vertex 22.1988 37.9773 0
      vertex 22.2508 37.942 2
      vertex 22.1988 37.9773 2
    endloop
  endfacet
  facet normal -0.561657 -0.82737 -0
    outer loop
      vertex 22.2508 37.942 2
      vertex 22.1988 37.9773 0
      vertex 22.2508 37.942 0
    endloop
  endfacet
  facet normal 0.975924 -0.21811 0
    outer loop
      vertex 20.6807 37.3204 2
      vertex 20.6944 37.3817 0
      vertex 20.6944 37.3817 2
    endloop
  endfacet
  facet normal 0.975924 -0.21811 0
    outer loop
      vertex 20.6944 37.3817 0
      vertex 20.6807 37.3204 2
      vertex 20.6807 37.3204 0
    endloop
  endfacet
  facet normal 0.891222 -0.453568 0
    outer loop
      vertex 20.7582 37.5588 2
      vertex 20.7867 37.6148 0
      vertex 20.7867 37.6148 2
    endloop
  endfacet
  facet normal 0.891222 -0.453568 0
    outer loop
      vertex 20.7867 37.6148 0
      vertex 20.7582 37.5588 2
      vertex 20.7582 37.5588 0
    endloop
  endfacet
  facet normal 0.82737 -0.561657 0
    outer loop
      vertex 20.8187 37.6688 2
      vertex 20.854 37.7208 0
      vertex 20.854 37.7208 2
    endloop
  endfacet
  facet normal 0.82737 -0.561657 0
    outer loop
      vertex 20.854 37.7208 0
      vertex 20.8187 37.6688 2
      vertex 20.8187 37.6688 0
    endloop
  endfacet
  facet normal 0.278715 -0.960374 0
    outer loop
      vertex 21.354 38.0841 0
      vertex 21.4143 38.1016 2
      vertex 21.354 38.0841 2
    endloop
  endfacet
  facet normal 0.278715 -0.960374 0
    outer loop
      vertex 21.4143 38.1016 2
      vertex 21.354 38.0841 0
      vertex 21.4143 38.1016 0
    endloop
  endfacet
  facet normal 0.0939822 -0.995574 0
    outer loop
      vertex 21.5377 38.1251 0
      vertex 21.6002 38.131 2
      vertex 21.5377 38.1251 2
    endloop
  endfacet
  facet normal 0.0939822 -0.995574 0
    outer loop
      vertex 21.6002 38.131 2
      vertex 21.5377 38.1251 0
      vertex 21.6002 38.131 0
    endloop
  endfacet
  facet normal 0.561657 -0.82737 0
    outer loop
      vertex 21.0752 37.942 0
      vertex 21.1272 37.9773 2
      vertex 21.0752 37.942 2
    endloop
  endfacet
  facet normal 0.561657 -0.82737 0
    outer loop
      vertex 21.1272 37.9773 2
      vertex 21.0752 37.942 0
      vertex 21.1272 37.9773 0
    endloop
  endfacet
  facet normal 0.613168 -0.789952 0
    outer loop
      vertex 21.0256 37.9035 0
      vertex 21.0752 37.942 2
      vertex 21.0256 37.9035 2
    endloop
  endfacet
  facet normal 0.613168 -0.789952 0
    outer loop
      vertex 21.0752 37.942 2
      vertex 21.0256 37.9035 0
      vertex 21.0752 37.942 0
    endloop
  endfacet
  facet normal 0.453568 -0.891222 0
    outer loop
      vertex 21.1812 38.0093 0
      vertex 21.2372 38.0378 2
      vertex 21.1812 38.0093 2
    endloop
  endfacet
  facet normal 0.453568 -0.891222 0
    outer loop
      vertex 21.2372 38.0378 2
      vertex 21.1812 38.0093 0
      vertex 21.2372 38.0378 0
    endloop
  endfacet
  facet normal 0.661095 -0.750303 0
    outer loop
      vertex 20.9785 37.862 0
      vertex 21.0256 37.9035 2
      vertex 20.9785 37.862 2
    endloop
  endfacet
  facet normal 0.661095 -0.750303 0
    outer loop
      vertex 21.0256 37.9035 2
      vertex 20.9785 37.862 0
      vertex 21.0256 37.9035 0
    endloop
  endfacet
  facet normal -0.995574 0.0939822 0
    outer loop
      vertex 22.6551 37.0077 0
      vertex 22.661 37.0702 2
      vertex 22.661 37.0702 0
    endloop
  endfacet
  facet normal -0.995574 0.0939822 0
    outer loop
      vertex 22.661 37.0702 2
      vertex 22.6551 37.0077 0
      vertex 22.6551 37.0077 2
    endloop
  endfacet
  facet normal -0.750303 0.661095 0
    outer loop
      vertex 22.392 36.4485 0
      vertex 22.4335 36.4956 2
      vertex 22.4335 36.4956 0
    endloop
  endfacet
  facet normal -0.750303 0.661095 0
    outer loop
      vertex 22.4335 36.4956 2
      vertex 22.392 36.4485 0
      vertex 22.392 36.4485 2
    endloop
  endfacet
  facet normal -0.339058 0.940766 0
    outer loop
      vertex 22.0311 36.2032 0
      vertex 21.972 36.1819 2
      vertex 22.0311 36.2032 2
    endloop
  endfacet
  facet normal -0.339058 0.940766 0
    outer loop
      vertex 21.972 36.1819 2
      vertex 22.0311 36.2032 0
      vertex 21.972 36.1819 0
    endloop
  endfacet
  facet normal -0.995574 -0.0939822 0
    outer loop
      vertex 22.661 37.1958 0
      vertex 22.6551 37.2583 2
      vertex 22.6551 37.2583 0
    endloop
  endfacet
  facet normal -0.995574 -0.0939822 0
    outer loop
      vertex 22.6551 37.2583 2
      vertex 22.661 37.1958 0
      vertex 22.661 37.1958 2
    endloop
  endfacet
  facet normal -0.940766 -0.339058 0
    outer loop
      vertex 22.6141 37.442 0
      vertex 22.5928 37.5011 2
      vertex 22.5928 37.5011 0
    endloop
  endfacet
  facet normal -0.940766 -0.339058 0
    outer loop
      vertex 22.5928 37.5011 2
      vertex 22.6141 37.442 0
      vertex 22.6141 37.442 2
    endloop
  endfacet
  facet normal -0.987776 -0.155881 0
    outer loop
      vertex 22.6551 37.2583 0
      vertex 22.6453 37.3204 2
      vertex 22.6453 37.3204 0
    endloop
  endfacet
  facet normal -0.987776 -0.155881 0
    outer loop
      vertex 22.6453 37.3204 2
      vertex 22.6551 37.2583 0
      vertex 22.6551 37.2583 2
    endloop
  endfacet
  facet normal -0.82737 -0.561657 0
    outer loop
      vertex 22.5073 37.6688 0
      vertex 22.472 37.7208 2
      vertex 22.472 37.7208 0
    endloop
  endfacet
  facet normal -0.82737 -0.561657 0
    outer loop
      vertex 22.472 37.7208 2
      vertex 22.5073 37.6688 0
      vertex 22.5073 37.6688 2
    endloop
  endfacet
  facet normal -0.661095 -0.750303 0
    outer loop
      vertex 22.3004 37.9035 0
      vertex 22.3475 37.862 2
      vertex 22.3004 37.9035 2
    endloop
  endfacet
  facet normal -0.661095 -0.750303 -0
    outer loop
      vertex 22.3475 37.862 2
      vertex 22.3004 37.9035 0
      vertex 22.3475 37.862 0
    endloop
  endfacet
  facet normal 0.031831 -0.999493 0
    outer loop
      vertex 21.6002 38.131 0
      vertex 21.663 38.133 2
      vertex 21.6002 38.131 2
    endloop
  endfacet
  facet normal 0.031831 -0.999493 0
    outer loop
      vertex 21.663 38.133 2
      vertex 21.6002 38.131 0
      vertex 21.663 38.133 0
    endloop
  endfacet
  facet normal -0.21811 -0.975924 0
    outer loop
      vertex 21.8504 38.1153 0
      vertex 21.9117 38.1016 2
      vertex 21.8504 38.1153 2
    endloop
  endfacet
  facet normal -0.21811 -0.975924 -0
    outer loop
      vertex 21.9117 38.1016 2
      vertex 21.8504 38.1153 0
      vertex 21.9117 38.1016 0
    endloop
  endfacet
  facet normal -0.278715 -0.960374 0
    outer loop
      vertex 21.9117 38.1016 0
      vertex 21.972 38.0841 2
      vertex 21.9117 38.1016 2
    endloop
  endfacet
  facet normal -0.278715 -0.960374 -0
    outer loop
      vertex 21.972 38.0841 2
      vertex 21.9117 38.1016 0
      vertex 21.972 38.0841 0
    endloop
  endfacet
  facet normal -0.397563 -0.917575 0
    outer loop
      vertex 22.0311 38.0628 0
      vertex 22.0888 38.0378 2
      vertex 22.0311 38.0628 2
    endloop
  endfacet
  facet normal -0.397563 -0.917575 -0
    outer loop
      vertex 22.0888 38.0378 2
      vertex 22.0311 38.0628 0
      vertex 22.0888 38.0378 0
    endloop
  endfacet
  facet normal -0.613168 -0.789952 0
    outer loop
      vertex 22.2508 37.942 0
      vertex 22.3004 37.9035 2
      vertex 22.2508 37.942 2
    endloop
  endfacet
  facet normal -0.613168 -0.789952 -0
    outer loop
      vertex 22.3004 37.9035 2
      vertex 22.2508 37.942 0
      vertex 22.3004 37.9035 0
    endloop
  endfacet
  facet normal 0.999493 -0.031831 0
    outer loop
      vertex 20.663 37.133 2
      vertex 20.665 37.1958 0
      vertex 20.665 37.1958 2
    endloop
  endfacet
  facet normal 0.999493 -0.031831 0
    outer loop
      vertex 20.665 37.1958 0
      vertex 20.663 37.133 2
      vertex 20.663 37.133 0
    endloop
  endfacet
  facet normal 0.960374 -0.278715 0
    outer loop
      vertex 20.6944 37.3817 2
      vertex 20.7119 37.442 0
      vertex 20.7119 37.442 2
    endloop
  endfacet
  facet normal 0.960374 -0.278715 0
    outer loop
      vertex 20.7119 37.442 0
      vertex 20.6944 37.3817 2
      vertex 20.6944 37.3817 0
    endloop
  endfacet
  facet normal 0.940766 -0.339058 0
    outer loop
      vertex 20.7119 37.442 2
      vertex 20.7332 37.5011 0
      vertex 20.7332 37.5011 2
    endloop
  endfacet
  facet normal 0.940766 -0.339058 0
    outer loop
      vertex 20.7332 37.5011 0
      vertex 20.7119 37.442 2
      vertex 20.7119 37.442 0
    endloop
  endfacet
  facet normal 0.987776 -0.155881 0
    outer loop
      vertex 20.6709 37.2583 2
      vertex 20.6807 37.3204 0
      vertex 20.6807 37.3204 2
    endloop
  endfacet
  facet normal 0.987776 -0.155881 0
    outer loop
      vertex 20.6807 37.3204 0
      vertex 20.6709 37.2583 2
      vertex 20.6709 37.2583 0
    endloop
  endfacet
  facet normal 0.860292 -0.509802 0
    outer loop
      vertex 20.7867 37.6148 2
      vertex 20.8187 37.6688 0
      vertex 20.8187 37.6688 2
    endloop
  endfacet
  facet normal 0.860292 -0.509802 0
    outer loop
      vertex 20.8187 37.6688 0
      vertex 20.7867 37.6148 2
      vertex 20.7867 37.6148 0
    endloop
  endfacet
  facet normal 0.789952 -0.613168 0
    outer loop
      vertex 20.854 37.7208 2
      vertex 20.8925 37.7704 0
      vertex 20.8925 37.7704 2
    endloop
  endfacet
  facet normal 0.789952 -0.613168 0
    outer loop
      vertex 20.8925 37.7704 0
      vertex 20.854 37.7208 2
      vertex 20.854 37.7208 0
    endloop
  endfacet
  facet normal 0.509802 -0.860292 0
    outer loop
      vertex 21.1272 37.9773 0
      vertex 21.1812 38.0093 2
      vertex 21.1272 37.9773 2
    endloop
  endfacet
  facet normal 0.509802 -0.860292 0
    outer loop
      vertex 21.1812 38.0093 2
      vertex 21.1272 37.9773 0
      vertex 21.1812 38.0093 0
    endloop
  endfacet
  facet normal 0.707107 -0.707107 0
    outer loop
      vertex 20.934 37.8175 2
      vertex 20.9785 37.862 0
      vertex 20.9785 37.862 2
    endloop
  endfacet
  facet normal 0.707107 -0.707107 0
    outer loop
      vertex 20.9785 37.862 0
      vertex 20.934 37.8175 2
      vertex 20.934 37.8175 0
    endloop
  endfacet
  facet normal -0.999493 -0.031831 0
    outer loop
      vertex 22.663 37.133 0
      vertex 22.661 37.1958 2
      vertex 22.661 37.1958 0
    endloop
  endfacet
  facet normal -0.999493 -0.031831 0
    outer loop
      vertex 22.661 37.1958 2
      vertex 22.663 37.133 0
      vertex 22.663 37.133 2
    endloop
  endfacet
  facet normal -0.860292 0.509802 0
    outer loop
      vertex 22.5073 36.5972 0
      vertex 22.5393 36.6512 2
      vertex 22.5393 36.6512 0
    endloop
  endfacet
  facet normal -0.860292 0.509802 0
    outer loop
      vertex 22.5393 36.6512 2
      vertex 22.5073 36.5972 0
      vertex 22.5073 36.5972 2
    endloop
  endfacet
  facet normal 0.031831 0.999493 -0
    outer loop
      vertex 21.663 36.133 0
      vertex 21.6002 36.135 2
      vertex 21.663 36.133 2
    endloop
  endfacet
  facet normal 0.031831 0.999493 0
    outer loop
      vertex 21.6002 36.135 2
      vertex 21.663 36.133 0
      vertex 21.6002 36.135 0
    endloop
  endfacet
  facet normal 0.960374 0.278715 0
    outer loop
      vertex 20.7119 36.824 2
      vertex 20.6944 36.8843 0
      vertex 20.6944 36.8843 2
    endloop
  endfacet
  facet normal 0.960374 0.278715 0
    outer loop
      vertex 20.6944 36.8843 0
      vertex 20.7119 36.824 2
      vertex 20.7119 36.824 0
    endloop
  endfacet
  facet normal -0.0939822 0.995574 0
    outer loop
      vertex 21.7883 36.1409 0
      vertex 21.7258 36.135 2
      vertex 21.7883 36.1409 2
    endloop
  endfacet
  facet normal -0.0939822 0.995574 0
    outer loop
      vertex 21.7258 36.135 2
      vertex 21.7883 36.1409 0
      vertex 21.7258 36.135 0
    endloop
  endfacet
  facet normal -0.891222 -0.453568 0
    outer loop
      vertex 22.5678 37.5588 0
      vertex 22.5393 37.6148 2
      vertex 22.5393 37.6148 0
    endloop
  endfacet
  facet normal -0.891222 -0.453568 0
    outer loop
      vertex 22.5393 37.6148 2
      vertex 22.5678 37.5588 0
      vertex 22.5678 37.5588 2
    endloop
  endfacet
  facet normal -0.917575 -0.397563 0
    outer loop
      vertex 22.5928 37.5011 0
      vertex 22.5678 37.5588 2
      vertex 22.5678 37.5588 0
    endloop
  endfacet
  facet normal -0.917575 -0.397563 0
    outer loop
      vertex 22.5678 37.5588 2
      vertex 22.5928 37.5011 0
      vertex 22.5928 37.5011 2
    endloop
  endfacet
  facet normal -0.975924 -0.21811 0
    outer loop
      vertex 22.6453 37.3204 0
      vertex 22.6316 37.3817 2
      vertex 22.6316 37.3817 0
    endloop
  endfacet
  facet normal -0.975924 -0.21811 0
    outer loop
      vertex 22.6316 37.3817 2
      vertex 22.6453 37.3204 0
      vertex 22.6453 37.3204 2
    endloop
  endfacet
  facet normal -0.707107 -0.707107 0
    outer loop
      vertex 22.392 37.8175 0
      vertex 22.3475 37.862 2
      vertex 22.3475 37.862 0
    endloop
  endfacet
  facet normal -0.707107 -0.707107 0
    outer loop
      vertex 22.3475 37.862 2
      vertex 22.392 37.8175 0
      vertex 22.392 37.8175 2
    endloop
  endfacet
  facet normal -0.031831 -0.999493 0
    outer loop
      vertex 21.663 38.133 0
      vertex 21.7258 38.131 2
      vertex 21.663 38.133 2
    endloop
  endfacet
  facet normal -0.031831 -0.999493 -0
    outer loop
      vertex 21.7258 38.131 2
      vertex 21.663 38.133 0
      vertex 21.7258 38.131 0
    endloop
  endfacet
  facet normal 0 0 -1
    outer loop
      vertex 22.661 37.0702 2
      vertex 22.661 37.1958 2
      vertex 22.663 37.133 2
    endloop
  endfacet
  facet normal 0 0 -1
    outer loop
      vertex 22.6551 37.0077 2
      vertex 22.661 37.1958 2
      vertex 22.661 37.0702 2
    endloop
  endfacet
  facet normal 0 0 -1
    outer loop
      vertex 22.6551 37.0077 2
      vertex 22.6551 37.2583 2
      vertex 22.661 37.1958 2
    endloop
  endfacet
  facet normal 0 0 -1
    outer loop
      vertex 22.6453 36.9456 2
      vertex 22.6551 37.2583 2
      vertex 22.6551 37.0077 2
    endloop
  endfacet
  facet normal 0 0 -1
    outer loop
      vertex 22.6453 36.9456 2
      vertex 22.6453 37.3204 2
      vertex 22.6551 37.2583 2
    endloop
  endfacet
  facet normal 0 0 -1
    outer loop
      vertex 22.6316 36.8843 2
      vertex 22.6453 37.3204 2
      vertex 22.6453 36.9456 2
    endloop
  endfacet
  facet normal 0 0 -1
    outer loop
      vertex 22.6316 36.8843 2
      vertex 22.6316 37.3817 2
      vertex 22.6453 37.3204 2
    endloop
  endfacet
  facet normal 0 0 -1
    outer loop
      vertex 22.6141 36.824 2
      vertex 22.6316 37.3817 2
      vertex 22.6316 36.8843 2
    endloop
  endfacet
  facet normal 0 0 -1
    outer loop
      vertex 22.6141 36.824 2
      vertex 22.6141 37.442 2
      vertex 22.6316 37.3817 2
    endloop
  endfacet
  facet normal 0 0 -1
    outer loop
      vertex 22.5928 36.7649 2
      vertex 22.6141 37.442 2
      vertex 22.6141 36.824 2
    endloop
  endfacet
  facet normal 0 0 -1
    outer loop
      vertex 22.5928 36.7649 2
      vertex 22.5928 37.5011 2
      vertex 22.6141 37.442 2
    endloop
  endfacet
  facet normal 0 0 -1
    outer loop
      vertex 22.5678 36.7072 2
      vertex 22.5928 37.5011 2
      vertex 22.5928 36.7649 2
    endloop
  endfacet
  facet normal 0 0 -1
    outer loop
      vertex 22.5678 36.7072 2
      vertex 22.5678 37.5588 2
      vertex 22.5928 37.5011 2
    endloop
  endfacet
  facet normal 0 0 -1
    outer loop
      vertex 22.5393 36.6512 2
      vertex 22.5678 37.5588 2
      vertex 22.5678 36.7072 2
    endloop
  endfacet
  facet normal 0 0 -1
    outer loop
      vertex 22.5393 36.6512 2
      vertex 22.5393 37.6148 2
      vertex 22.5678 37.5588 2
    endloop
  endfacet
  facet normal 0 0 -1
    outer loop
      vertex 22.5073 36.5972 2
      vertex 22.5393 37.6148 2
      vertex 22.5393 36.6512 2
    endloop
  endfacet
  facet normal 0 0 -1
    outer loop
      vertex 22.5073 36.5972 2
      vertex 22.5073 37.6688 2
      vertex 22.5393 37.6148 2
    endloop
  endfacet
  facet normal 0 0 -1
    outer loop
      vertex 22.472 36.5452 2
      vertex 22.5073 37.6688 2
      vertex 22.5073 36.5972 2
    endloop
  endfacet
  facet normal 0 0 -1
    outer loop
      vertex 22.472 36.5452 2
      vertex 22.472 37.7208 2
      vertex 22.5073 37.6688 2
    endloop
  endfacet
  facet normal 0 0 -1
    outer loop
      vertex 22.4335 36.4956 2
      vertex 22.472 37.7208 2
      vertex 22.472 36.5452 2
    endloop
  endfacet
  facet normal 0 0 -1
    outer loop
      vertex 22.4335 36.4956 2
      vertex 22.4335 37.7704 2
      vertex 22.472 37.7208 2
    endloop
  endfacet
  facet normal 0 0 -1
    outer loop
      vertex 22.392 36.4485 2
      vertex 22.4335 37.7704 2
      vertex 22.4335 36.4956 2
    endloop
  endfacet
  facet normal 0 0 -1
    outer loop
      vertex 22.392 36.4485 2
      vertex 22.392 37.8175 2
      vertex 22.4335 37.7704 2
    endloop
  endfacet
  facet normal 0 0 -1
    outer loop
      vertex 22.3475 36.404 2
      vertex 22.392 37.8175 2
      vertex 22.392 36.4485 2
    endloop
  endfacet
  facet normal 0 0 -1
    outer loop
      vertex 22.3475 36.404 2
      vertex 22.3475 37.862 2
      vertex 22.392 37.8175 2
    endloop
  endfacet
  facet normal 0 0 -1
    outer loop
      vertex 22.3004 36.3625 2
      vertex 22.3475 37.862 2
      vertex 22.3475 36.404 2
    endloop
  endfacet
  facet normal 0 0 -1
    outer loop
      vertex 22.3004 36.3625 2
      vertex 22.3004 37.9035 2
      vertex 22.3475 37.862 2
    endloop
  endfacet
  facet normal 0 0 -1
    outer loop
      vertex 22.2508 36.324 2
      vertex 22.3004 37.9035 2
      vertex 22.3004 36.3625 2
    endloop
  endfacet
  facet normal 0 0 -1
    outer loop
      vertex 22.2508 36.324 2
      vertex 22.2508 37.942 2
      vertex 22.3004 37.9035 2
    endloop
  endfacet
  facet normal 0 0 -1
    outer loop
      vertex 22.1988 36.2887 2
      vertex 22.2508 37.942 2
      vertex 22.2508 36.324 2
    endloop
  endfacet
  facet normal 0 0 -1
    outer loop
      vertex 22.1988 36.2887 2
      vertex 22.1988 37.9773 2
      vertex 22.2508 37.942 2
    endloop
  endfacet
  facet normal 0 0 -1
    outer loop
      vertex 22.1448 36.2567 2
      vertex 22.1988 37.9773 2
      vertex 22.1988 36.2887 2
    endloop
  endfacet
  facet normal 0 0 -1
    outer loop
      vertex 22.1448 36.2567 2
      vertex 22.1448 38.0093 2
      vertex 22.1988 37.9773 2
    endloop
  endfacet
  facet normal 0 0 -1
    outer loop
      vertex 22.0888 36.2282 2
      vertex 22.1448 38.0093 2
      vertex 22.1448 36.2567 2
    endloop
  endfacet
  facet normal 0 0 -1
    outer loop
      vertex 22.0888 36.2282 2
      vertex 22.0888 38.0378 2
      vertex 22.1448 38.0093 2
    endloop
  endfacet
  facet normal 0 0 -1
    outer loop
      vertex 22.0311 36.2032 2
      vertex 22.0888 38.0378 2
      vertex 22.0888 36.2282 2
    endloop
  endfacet
  facet normal 0 0 -1
    outer loop
      vertex 22.0311 36.2032 2
      vertex 22.0311 38.0628 2
      vertex 22.0888 38.0378 2
    endloop
  endfacet
  facet normal 0 0 -1
    outer loop
      vertex 21.972 36.1819 2
      vertex 22.0311 38.0628 2
      vertex 22.0311 36.2032 2
    endloop
  endfacet
  facet normal 0 0 -1
    outer loop
      vertex 21.972 36.1819 2
      vertex 21.972 38.0841 2
      vertex 22.0311 38.0628 2
    endloop
  endfacet
  facet normal 0 0 -1
    outer loop
      vertex 21.9117 36.1644 2
      vertex 21.972 38.0841 2
      vertex 21.972 36.1819 2
    endloop
  endfacet
  facet normal 0 0 -1
    outer loop
      vertex 21.9117 36.1644 2
      vertex 21.9117 38.1016 2
      vertex 21.972 38.0841 2
    endloop
  endfacet
  facet normal 0 0 -1
    outer loop
      vertex 21.8504 36.1507 2
      vertex 21.9117 38.1016 2
      vertex 21.9117 36.1644 2
    endloop
  endfacet
  facet normal 0 0 -1
    outer loop
      vertex 21.8504 36.1507 2
      vertex 21.8504 38.1153 2
      vertex 21.9117 38.1016 2
    endloop
  endfacet
  facet normal 0 0 -1
    outer loop
      vertex 21.7883 36.1409 2
      vertex 21.8504 38.1153 2
      vertex 21.8504 36.1507 2
    endloop
  endfacet
  facet normal 0 0 -1
    outer loop
      vertex 21.7883 36.1409 2
      vertex 21.7883 38.1251 2
      vertex 21.8504 38.1153 2
    endloop
  endfacet
  facet normal 0 0 -1
    outer loop
      vertex 21.7258 36.135 2
      vertex 21.7883 38.1251 2
      vertex 21.7883 36.1409 2
    endloop
  endfacet
  facet normal 0 0 -1
    outer loop
      vertex 21.7258 36.135 2
      vertex 21.7258 38.131 2
      vertex 21.7883 38.1251 2
    endloop
  endfacet
  facet normal 0 0 -1
    outer loop
      vertex 21.663 36.133 2
      vertex 21.7258 38.131 2
      vertex 21.7258 36.135 2
    endloop
  endfacet
  facet normal 0 0 -1
    outer loop
      vertex 21.663 36.133 2
      vertex 21.663 38.133 2
      vertex 21.7258 38.131 2
    endloop
  endfacet
  facet normal 0 0 -1
    outer loop
      vertex 21.6002 36.135 2
      vertex 21.663 38.133 2
      vertex 21.663 36.133 2
    endloop
  endfacet
  facet normal 0 0 -1
    outer loop
      vertex 21.6002 36.135 2
      vertex 21.6002 38.131 2
      vertex 21.663 38.133 2
    endloop
  endfacet
  facet normal 0 0 -1
    outer loop
      vertex 21.5377 36.1409 2
      vertex 21.6002 38.131 2
      vertex 21.6002 36.135 2
    endloop
  endfacet
  facet normal 0 0 -1
    outer loop
      vertex 21.5377 36.1409 2
      vertex 21.5377 38.1251 2
      vertex 21.6002 38.131 2
    endloop
  endfacet
  facet normal 0 0 -1
    outer loop
      vertex 21.4756 36.1507 2
      vertex 21.5377 38.1251 2
      vertex 21.5377 36.1409 2
    endloop
  endfacet
  facet normal 0 0 -1
    outer loop
      vertex 21.4756 36.1507 2
      vertex 21.4756 38.1153 2
      vertex 21.5377 38.1251 2
    endloop
  endfacet
  facet normal 0 0 -1
    outer loop
      vertex 21.4143 36.1644 2
      vertex 21.4756 38.1153 2
      vertex 21.4756 36.1507 2
    endloop
  endfacet
  facet normal 0 0 -1
    outer loop
      vertex 21.4143 36.1644 2
      vertex 21.4143 38.1016 2
      vertex 21.4756 38.1153 2
    endloop
  endfacet
  facet normal 0 0 -1
    outer loop
      vertex 21.354 36.1819 2
      vertex 21.4143 38.1016 2
      vertex 21.4143 36.1644 2
    endloop
  endfacet
  facet normal 0 0 -1
    outer loop
      vertex 21.354 36.1819 2
      vertex 21.354 38.0841 2
      vertex 21.4143 38.1016 2
    endloop
  endfacet
  facet normal 0 0 -1
    outer loop
      vertex 21.2949 36.2032 2
      vertex 21.354 38.0841 2
      vertex 21.354 36.1819 2
    endloop
  endfacet
  facet normal 0 0 -1
    outer loop
      vertex 21.2949 36.2032 2
      vertex 21.2949 38.0628 2
      vertex 21.354 38.0841 2
    endloop
  endfacet
  facet normal 0 0 -1
    outer loop
      vertex 21.2372 36.2282 2
      vertex 21.2949 38.0628 2
      vertex 21.2949 36.2032 2
    endloop
  endfacet
  facet normal 0 0 -1
    outer loop
      vertex 21.2372 36.2282 2
      vertex 21.2372 38.0378 2
      vertex 21.2949 38.0628 2
    endloop
  endfacet
  facet normal 0 0 -1
    outer loop
      vertex 21.1812 36.2567 2
      vertex 21.2372 38.0378 2
      vertex 21.2372 36.2282 2
    endloop
  endfacet
  facet normal 0 0 -1
    outer loop
      vertex 21.1812 36.2567 2
      vertex 21.1812 38.0093 2
      vertex 21.2372 38.0378 2
    endloop
  endfacet
  facet normal 0 0 -1
    outer loop
      vertex 21.1272 36.2887 2
      vertex 21.1812 38.0093 2
      vertex 21.1812 36.2567 2
    endloop
  endfacet
  facet normal 0 0 -1
    outer loop
      vertex 21.1272 36.2887 2
      vertex 21.1272 37.9773 2
      vertex 21.1812 38.0093 2
    endloop
  endfacet
  facet normal 0 0 -1
    outer loop
      vertex 21.0752 36.324 2
      vertex 21.1272 37.9773 2
      vertex 21.1272 36.2887 2
    endloop
  endfacet
  facet normal 0 0 -1
    outer loop
      vertex 21.0752 36.324 2
      vertex 21.0752 37.942 2
      vertex 21.1272 37.9773 2
    endloop
  endfacet
  facet normal 0 0 -1
    outer loop
      vertex 21.0256 36.3625 2
      vertex 21.0752 37.942 2
      vertex 21.0752 36.324 2
    endloop
  endfacet
  facet normal 0 0 -1
    outer loop
      vertex 21.0256 36.3625 2
      vertex 21.0256 37.9035 2
      vertex 21.0752 37.942 2
    endloop
  endfacet
  facet normal 0 0 -1
    outer loop
      vertex 20.9785 36.404 2
      vertex 21.0256 37.9035 2
      vertex 21.0256 36.3625 2
    endloop
  endfacet
  facet normal 0 0 -1
    outer loop
      vertex 20.9785 36.404 2
      vertex 20.9785 37.862 2
      vertex 21.0256 37.9035 2
    endloop
  endfacet
  facet normal 0 0 -1
    outer loop
      vertex 20.934 36.4485 2
      vertex 20.9785 37.862 2
      vertex 20.9785 36.404 2
    endloop
  endfacet
  facet normal 0 0 -1
    outer loop
      vertex 20.934 36.4485 2
      vertex 20.934 37.8175 2
      vertex 20.9785 37.862 2
    endloop
  endfacet
  facet normal 0 0 -1
    outer loop
      vertex 20.8925 36.4956 2
      vertex 20.934 37.8175 2
      vertex 20.934 36.4485 2
    endloop
  endfacet
  facet normal 0 0 -1
    outer loop
      vertex 20.8925 36.4956 2
      vertex 20.8925 37.7704 2
      vertex 20.934 37.8175 2
    endloop
  endfacet
  facet normal 0 0 -1
    outer loop
      vertex 20.854 36.5452 2
      vertex 20.8925 37.7704 2
      vertex 20.8925 36.4956 2
    endloop
  endfacet
  facet normal 0 0 -1
    outer loop
      vertex 20.854 36.5452 2
      vertex 20.854 37.7208 2
      vertex 20.8925 37.7704 2
    endloop
  endfacet
  facet normal 0 0 -1
    outer loop
      vertex 20.8187 36.5972 2
      vertex 20.854 37.7208 2
      vertex 20.854 36.5452 2
    endloop
  endfacet
  facet normal 0 0 -1
    outer loop
      vertex 20.8187 36.5972 2
      vertex 20.8187 37.6688 2
      vertex 20.854 37.7208 2
    endloop
  endfacet
  facet normal 0 0 -1
    outer loop
      vertex 20.7867 36.6512 2
      vertex 20.8187 37.6688 2
      vertex 20.8187 36.5972 2
    endloop
  endfacet
  facet normal 0 0 -1
    outer loop
      vertex 20.7867 36.6512 2
      vertex 20.7867 37.6148 2
      vertex 20.8187 37.6688 2
    endloop
  endfacet
  facet normal 0 0 -1
    outer loop
      vertex 20.7582 36.7072 2
      vertex 20.7867 37.6148 2
      vertex 20.7867 36.6512 2
    endloop
  endfacet
  facet normal 0 0 -1
    outer loop
      vertex 20.7582 36.7072 2
      vertex 20.7582 37.5588 2
      vertex 20.7867 37.6148 2
    endloop
  endfacet
  facet normal 0 0 -1
    outer loop
      vertex 20.7332 36.7649 2
      vertex 20.7582 37.5588 2
      vertex 20.7582 36.7072 2
    endloop
  endfacet
  facet normal 0 0 -1
    outer loop
      vertex 20.7332 36.7649 2
      vertex 20.7332 37.5011 2
      vertex 20.7582 37.5588 2
    endloop
  endfacet
  facet normal 0 0 -1
    outer loop
      vertex 20.7119 36.824 2
      vertex 20.7332 37.5011 2
      vertex 20.7332 36.7649 2
    endloop
  endfacet
  facet normal 0 0 -1
    outer loop
      vertex 20.7119 36.824 2
      vertex 20.7119 37.442 2
      vertex 20.7332 37.5011 2
    endloop
  endfacet
  facet normal 0 0 -1
    outer loop
      vertex 20.6944 36.8843 2
      vertex 20.7119 37.442 2
      vertex 20.7119 36.824 2
    endloop
  endfacet
  facet normal 0 0 -1
    outer loop
      vertex 20.6944 36.8843 2
      vertex 20.6944 37.3817 2
      vertex 20.7119 37.442 2
    endloop
  endfacet
  facet normal 0 0 -1
    outer loop
      vertex 20.6807 36.9456 2
      vertex 20.6944 37.3817 2
      vertex 20.6944 36.8843 2
    endloop
  endfacet
  facet normal 0 0 -1
    outer loop
      vertex 20.6807 36.9456 2
      vertex 20.6807 37.3204 2
      vertex 20.6944 37.3817 2
    endloop
  endfacet
  facet normal 0 0 -1
    outer loop
      vertex 20.6709 37.0077 2
      vertex 20.6807 37.3204 2
      vertex 20.6807 36.9456 2
    endloop
  endfacet
  facet normal 0 0 -1
    outer loop
      vertex 20.6709 37.0077 2
      vertex 20.6709 37.2583 2
      vertex 20.6807 37.3204 2
    endloop
  endfacet
  facet normal 0 0 -1
    outer loop
      vertex 20.665 37.0702 2
      vertex 20.6709 37.2583 2
      vertex 20.6709 37.0077 2
    endloop
  endfacet
  facet normal 0 0 -1
    outer loop
      vertex 20.665 37.0702 2
      vertex 20.665 37.1958 2
      vertex 20.6709 37.2583 2
    endloop
  endfacet
  facet normal 0 -0 -1
    outer loop
      vertex 20.665 37.1958 2
      vertex 20.665 37.0702 2
      vertex 20.663 37.133 2
    endloop
  endfacet
  facet normal 0.995574 -0.0939822 0
    outer loop
      vertex 20.665 37.1958 2
      vertex 20.6709 37.2583 0
      vertex 20.6709 37.2583 2
    endloop
  endfacet
  facet normal 0.995574 -0.0939822 0
    outer loop
      vertex 20.6709 37.2583 0
      vertex 20.665 37.1958 2
      vertex 20.665 37.1958 0
    endloop
  endfacet
  facet normal 0.339058 -0.940766 0
    outer loop
      vertex 21.2949 38.0628 0
      vertex 21.354 38.0841 2
      vertex 21.2949 38.0628 2
    endloop
  endfacet
  facet normal 0.339058 -0.940766 0
    outer loop
      vertex 21.354 38.0841 2
      vertex 21.2949 38.0628 0
      vertex 21.354 38.0841 0
    endloop
  endfacet
  facet normal 0.155881 -0.987776 0
    outer loop
      vertex 21.4756 38.1153 0
      vertex 21.5377 38.1251 2
      vertex 21.4756 38.1153 2
    endloop
  endfacet
  facet normal 0.155881 -0.987776 0
    outer loop
      vertex 21.5377 38.1251 2
      vertex 21.4756 38.1153 0
      vertex 21.5377 38.1251 0
    endloop
  endfacet
  facet normal -0.987776 0.155881 0
    outer loop
      vertex 22.6453 36.9456 0
      vertex 22.6551 37.0077 2
      vertex 22.6551 37.0077 0
    endloop
  endfacet
  facet normal -0.987776 0.155881 0
    outer loop
      vertex 22.6551 37.0077 2
      vertex 22.6453 36.9456 0
      vertex 22.6453 36.9456 2
    endloop
  endfacet
  facet normal -0.975924 0.21811 0
    outer loop
      vertex 22.6316 36.8843 0
      vertex 22.6453 36.9456 2
      vertex 22.6453 36.9456 0
    endloop
  endfacet
  facet normal -0.975924 0.21811 0
    outer loop
      vertex 22.6453 36.9456 2
      vertex 22.6316 36.8843 0
      vertex 22.6316 36.8843 2
    endloop
  endfacet
  facet normal -0.940766 0.339058 0
    outer loop
      vertex 22.5928 36.7649 0
      vertex 22.6141 36.824 2
      vertex 22.6141 36.824 0
    endloop
  endfacet
  facet normal -0.940766 0.339058 0
    outer loop
      vertex 22.6141 36.824 2
      vertex 22.5928 36.7649 0
      vertex 22.5928 36.7649 2
    endloop
  endfacet
  facet normal 0.509802 0.860292 -0
    outer loop
      vertex 21.1812 36.2567 0
      vertex 21.1272 36.2887 2
      vertex 21.1812 36.2567 2
    endloop
  endfacet
  facet normal 0.509802 0.860292 0
    outer loop
      vertex 21.1272 36.2887 2
      vertex 21.1812 36.2567 0
      vertex 21.1272 36.2887 0
    endloop
  endfacet
  facet normal 0.0939822 0.995574 -0
    outer loop
      vertex 21.6002 36.135 0
      vertex 21.5377 36.1409 2
      vertex 21.6002 36.135 2
    endloop
  endfacet
  facet normal 0.0939822 0.995574 0
    outer loop
      vertex 21.5377 36.1409 2
      vertex 21.6002 36.135 0
      vertex 21.5377 36.1409 0
    endloop
  endfacet
  facet normal 0.999493 0.031831 0
    outer loop
      vertex 20.665 37.0702 2
      vertex 20.663 37.133 0
      vertex 20.663 37.133 2
    endloop
  endfacet
  facet normal 0.999493 0.031831 0
    outer loop
      vertex 20.663 37.133 0
      vertex 20.665 37.0702 2
      vertex 20.665 37.0702 0
    endloop
  endfacet
  facet normal 0.975924 0.21811 0
    outer loop
      vertex 20.6944 36.8843 2
      vertex 20.6807 36.9456 0
      vertex 20.6807 36.9456 2
    endloop
  endfacet
  facet normal 0.975924 0.21811 0
    outer loop
      vertex 20.6807 36.9456 0
      vertex 20.6944 36.8843 2
      vertex 20.6944 36.8843 0
    endloop
  endfacet
  facet normal 0.987776 0.155881 0
    outer loop
      vertex 20.6807 36.9456 2
      vertex 20.6709 37.0077 0
      vertex 20.6709 37.0077 2
    endloop
  endfacet
  facet normal 0.987776 0.155881 0
    outer loop
      vertex 20.6709 37.0077 0
      vertex 20.6807 36.9456 2
      vertex 20.6807 36.9456 0
    endloop
  endfacet
  facet normal 0.940766 0.339058 0
    outer loop
      vertex 20.7332 36.7649 2
      vertex 20.7119 36.824 0
      vertex 20.7119 36.824 2
    endloop
  endfacet
  facet normal 0.940766 0.339058 0
    outer loop
      vertex 20.7119 36.824 0
      vertex 20.7332 36.7649 2
      vertex 20.7332 36.7649 0
    endloop
  endfacet
  facet normal -0.453568 0.891222 0
    outer loop
      vertex 22.1448 36.2567 0
      vertex 22.0888 36.2282 2
      vertex 22.1448 36.2567 2
    endloop
  endfacet
  facet normal -0.453568 0.891222 0
    outer loop
      vertex 22.0888 36.2282 2
      vertex 22.1448 36.2567 0
      vertex 22.0888 36.2282 0
    endloop
  endfacet
  facet normal -0.509802 0.860292 0
    outer loop
      vertex 22.1988 36.2887 0
      vertex 22.1448 36.2567 2
      vertex 22.1988 36.2887 2
    endloop
  endfacet
  facet normal -0.509802 0.860292 0
    outer loop
      vertex 22.1448 36.2567 2
      vertex 22.1988 36.2887 0
      vertex 22.1448 36.2567 0
    endloop
  endfacet
  facet normal -0.891222 0.453568 0
    outer loop
      vertex 22.5393 36.6512 0
      vertex 22.5678 36.7072 2
      vertex 22.5678 36.7072 0
    endloop
  endfacet
  facet normal -0.891222 0.453568 0
    outer loop
      vertex 22.5678 36.7072 2
      vertex 22.5393 36.6512 0
      vertex 22.5393 36.6512 2
    endloop
  endfacet
  facet normal -0.917575 0.397563 0
    outer loop
      vertex 22.5678 36.7072 0
      vertex 22.5928 36.7649 2
      vertex 22.5928 36.7649 0
    endloop
  endfacet
  facet normal -0.917575 0.397563 0
    outer loop
      vertex 22.5928 36.7649 2
      vertex 22.5678 36.7072 0
      vertex 22.5678 36.7072 2
    endloop
  endfacet
  facet normal -0.82737 0.561657 0
    outer loop
      vertex 22.472 36.5452 0
      vertex 22.5073 36.5972 2
      vertex 22.5073 36.5972 0
    endloop
  endfacet
  facet normal -0.82737 0.561657 0
    outer loop
      vertex 22.5073 36.5972 2
      vertex 22.472 36.5452 0
      vertex 22.472 36.5452 2
    endloop
  endfacet
  facet normal -0.789952 0.613168 0
    outer loop
      vertex 22.4335 36.4956 0
      vertex 22.472 36.5452 2
      vertex 22.472 36.5452 0
    endloop
  endfacet
  facet normal -0.789952 0.613168 0
    outer loop
      vertex 22.472 36.5452 2
      vertex 22.4335 36.4956 0
      vertex 22.4335 36.4956 2
    endloop
  endfacet
  facet normal -0.21811 0.975924 0
    outer loop
      vertex 21.9117 36.1644 0
      vertex 21.8504 36.1507 2
      vertex 21.9117 36.1644 2
    endloop
  endfacet
  facet normal -0.21811 0.975924 0
    outer loop
      vertex 21.8504 36.1507 2
      vertex 21.9117 36.1644 0
      vertex 21.8504 36.1507 0
    endloop
  endfacet
  facet normal -0.155881 0.987776 0
    outer loop
      vertex 21.8504 36.1507 0
      vertex 21.7883 36.1409 2
      vertex 21.8504 36.1507 2
    endloop
  endfacet
  facet normal -0.155881 0.987776 0
    outer loop
      vertex 21.7883 36.1409 2
      vertex 21.8504 36.1507 0
      vertex 21.7883 36.1409 0
    endloop
  endfacet
  facet normal -0.278715 0.960374 0
    outer loop
      vertex 21.972 36.1819 0
      vertex 21.9117 36.1644 2
      vertex 21.972 36.1819 2
    endloop
  endfacet
  facet normal -0.278715 0.960374 0
    outer loop
      vertex 21.9117 36.1644 2
      vertex 21.972 36.1819 0
      vertex 21.9117 36.1644 0
    endloop
  endfacet
  facet normal -0.397563 0.917575 0
    outer loop
      vertex 22.0888 36.2282 0
      vertex 22.0311 36.2032 2
      vertex 22.0888 36.2282 2
    endloop
  endfacet
  facet normal -0.397563 0.917575 0
    outer loop
      vertex 22.0311 36.2032 2
      vertex 22.0888 36.2282 0
      vertex 22.0311 36.2032 0
    endloop
  endfacet
  facet normal -0.960374 0.278715 0
    outer loop
      vertex 22.6141 36.824 0
      vertex 22.6316 36.8843 2
      vertex 22.6316 36.8843 0
    endloop
  endfacet
  facet normal -0.960374 0.278715 0
    outer loop
      vertex 22.6316 36.8843 2
      vertex 22.6141 36.824 0
      vertex 22.6141 36.824 2
    endloop
  endfacet
  facet normal 0.661095 0.750303 -0
    outer loop
      vertex 21.0256 36.3625 0
      vertex 20.9785 36.404 2
      vertex 21.0256 36.3625 2
    endloop
  endfacet
  facet normal 0.661095 0.750303 0
    outer loop
      vertex 20.9785 36.404 2
      vertex 21.0256 36.3625 0
      vertex 20.9785 36.404 0
    endloop
  endfacet
  facet normal 0.397563 0.917575 -0
    outer loop
      vertex 21.2949 36.2032 0
      vertex 21.2372 36.2282 2
      vertex 21.2949 36.2032 2
    endloop
  endfacet
  facet normal 0.397563 0.917575 0
    outer loop
      vertex 21.2372 36.2282 2
      vertex 21.2949 36.2032 0
      vertex 21.2372 36.2282 0
    endloop
  endfacet
  facet normal 0.278715 0.960374 -0
    outer loop
      vertex 21.4143 36.1644 0
      vertex 21.354 36.1819 2
      vertex 21.4143 36.1644 2
    endloop
  endfacet
  facet normal 0.278715 0.960374 0
    outer loop
      vertex 21.354 36.1819 2
      vertex 21.4143 36.1644 0
      vertex 21.354 36.1819 0
    endloop
  endfacet
  facet normal -0.031831 0.999493 0
    outer loop
      vertex 21.7258 36.135 0
      vertex 21.663 36.133 2
      vertex 21.7258 36.135 2
    endloop
  endfacet
  facet normal -0.031831 0.999493 0
    outer loop
      vertex 21.663 36.133 2
      vertex 21.7258 36.135 0
      vertex 21.663 36.133 0
    endloop
  endfacet
  facet normal 0.82737 0.561657 0
    outer loop
      vertex 20.854 36.5452 2
      vertex 20.8187 36.5972 0
      vertex 20.8187 36.5972 2
    endloop
  endfacet
  facet normal 0.82737 0.561657 0
    outer loop
      vertex 20.8187 36.5972 0
      vertex 20.854 36.5452 2
      vertex 20.854 36.5452 0
    endloop
  endfacet
  facet normal 0.707107 0.707107 0
    outer loop
      vertex 20.9785 36.404 2
      vertex 20.934 36.4485 0
      vertex 20.934 36.4485 2
    endloop
  endfacet
  facet normal 0.707107 0.707107 0
    outer loop
      vertex 20.934 36.4485 0
      vertex 20.9785 36.404 2
      vertex 20.9785 36.404 0
    endloop
  endfacet
  facet normal 0.995574 0.0939822 0
    outer loop
      vertex 20.6709 37.0077 2
      vertex 20.665 37.0702 0
      vertex 20.665 37.0702 2
    endloop
  endfacet
  facet normal 0.995574 0.0939822 0
    outer loop
      vertex 20.665 37.0702 0
      vertex 20.6709 37.0077 2
      vertex 20.6709 37.0077 0
    endloop
  endfacet
  facet normal 0.917575 0.397563 0
    outer loop
      vertex 20.7582 36.7072 2
      vertex 20.7332 36.7649 0
      vertex 20.7332 36.7649 2
    endloop
  endfacet
  facet normal 0.917575 0.397563 0
    outer loop
      vertex 20.7332 36.7649 0
      vertex 20.7582 36.7072 2
      vertex 20.7582 36.7072 0
    endloop
  endfacet
  facet normal -0.661095 0.750303 0
    outer loop
      vertex 22.3475 36.404 0
      vertex 22.3004 36.3625 2
      vertex 22.3475 36.404 2
    endloop
  endfacet
  facet normal -0.661095 0.750303 0
    outer loop
      vertex 22.3004 36.3625 2
      vertex 22.3475 36.404 0
      vertex 22.3004 36.3625 0
    endloop
  endfacet
  facet normal -0.613168 0.789952 0
    outer loop
      vertex 22.3004 36.3625 0
      vertex 22.2508 36.324 2
      vertex 22.3004 36.3625 2
    endloop
  endfacet
  facet normal -0.613168 0.789952 0
    outer loop
      vertex 22.2508 36.324 2
      vertex 22.3004 36.3625 0
      vertex 22.2508 36.324 0
    endloop
  endfacet
  facet normal 0.561657 0.82737 -0
    outer loop
      vertex 21.1272 36.2887 0
      vertex 21.0752 36.324 2
      vertex 21.1272 36.2887 2
    endloop
  endfacet
  facet normal 0.561657 0.82737 0
    outer loop
      vertex 21.0752 36.324 2
      vertex 21.1272 36.2887 0
      vertex 21.0752 36.324 0
    endloop
  endfacet
  facet normal 0.613168 0.789952 -0
    outer loop
      vertex 21.0752 36.324 0
      vertex 21.0256 36.3625 2
      vertex 21.0752 36.324 2
    endloop
  endfacet
  facet normal 0.613168 0.789952 0
    outer loop
      vertex 21.0256 36.3625 2
      vertex 21.0752 36.324 0
      vertex 21.0256 36.3625 0
    endloop
  endfacet
  facet normal 0.155881 0.987776 -0
    outer loop
      vertex 21.5377 36.1409 0
      vertex 21.4756 36.1507 2
      vertex 21.5377 36.1409 2
    endloop
  endfacet
  facet normal 0.155881 0.987776 0
    outer loop
      vertex 21.4756 36.1507 2
      vertex 21.5377 36.1409 0
      vertex 21.4756 36.1507 0
    endloop
  endfacet
  facet normal 0.860292 0.509802 0
    outer loop
      vertex 20.8187 36.5972 2
      vertex 20.7867 36.6512 0
      vertex 20.7867 36.6512 2
    endloop
  endfacet
  facet normal 0.860292 0.509802 0
    outer loop
      vertex 20.7867 36.6512 0
      vertex 20.8187 36.5972 2
      vertex 20.8187 36.5972 0
    endloop
  endfacet
  facet normal 0.891222 0.453568 0
    outer loop
      vertex 20.7867 36.6512 2
      vertex 20.7582 36.7072 0
      vertex 20.7582 36.7072 2
    endloop
  endfacet
  facet normal 0.891222 0.453568 0
    outer loop
      vertex 20.7582 36.7072 0
      vertex 20.7867 36.6512 2
      vertex 20.7867 36.6512 0
    endloop
  endfacet
  facet normal 0.750303 0.661095 0
    outer loop
      vertex 20.934 36.4485 2
      vertex 20.8925 36.4956 0
      vertex 20.8925 36.4956 2
    endloop
  endfacet
  facet normal 0.750303 0.661095 0
    outer loop
      vertex 20.8925 36.4956 0
      vertex 20.934 36.4485 2
      vertex 20.934 36.4485 0
    endloop
  endfacet
  facet normal 0.789952 0.613168 0
    outer loop
      vertex 20.8925 36.4956 2
      vertex 20.854 36.5452 0
      vertex 20.854 36.5452 2
    endloop
  endfacet
  facet normal 0.789952 0.613168 0
    outer loop
      vertex 20.854 36.5452 0
      vertex 20.8925 36.4956 2
      vertex 20.8925 36.4956 0
    endloop
  endfacet
  facet normal -0.561657 0.82737 0
    outer loop
      vertex 22.2508 36.324 0
      vertex 22.1988 36.2887 2
      vertex 22.2508 36.324 2
    endloop
  endfacet
  facet normal -0.561657 0.82737 0
    outer loop
      vertex 22.1988 36.2887 2
      vertex 22.2508 36.324 0
      vertex 22.1988 36.2887 0
    endloop
  endfacet
  facet normal -0.707107 0.707107 0
    outer loop
      vertex 22.3475 36.404 0
      vertex 22.392 36.4485 2
      vertex 22.392 36.4485 0
    endloop
  endfacet
  facet normal -0.707107 0.707107 0
    outer loop
      vertex 22.392 36.4485 2
      vertex 22.3475 36.404 0
      vertex 22.3475 36.404 2
    endloop
  endfacet
  facet normal 0.453568 0.891222 -0
    outer loop
      vertex 21.2372 36.2282 0
      vertex 21.1812 36.2567 2
      vertex 21.2372 36.2282 2
    endloop
  endfacet
  facet normal 0.453568 0.891222 0
    outer loop
      vertex 21.1812 36.2567 2
      vertex 21.2372 36.2282 0
      vertex 21.1812 36.2567 0
    endloop
  endfacet
  facet normal 0.339058 0.940766 -0
    outer loop
      vertex 21.354 36.1819 0
      vertex 21.2949 36.2032 2
      vertex 21.354 36.1819 2
    endloop
  endfacet
  facet normal 0.339058 0.940766 0
    outer loop
      vertex 21.2949 36.2032 2
      vertex 21.354 36.1819 0
      vertex 21.2949 36.2032 0
    endloop
  endfacet
  facet normal 0.21811 0.975924 -0
    outer loop
      vertex 21.4756 36.1507 0
      vertex 21.4143 36.1644 2
      vertex 21.4756 36.1507 2
    endloop
  endfacet
  facet normal 0.21811 0.975924 0
    outer loop
      vertex 21.4143 36.1644 2
      vertex 21.4756 36.1507 0
      vertex 21.4143 36.1644 0
    endloop
  endfacet
endsolid OpenSCAD_Model
