solid OpenSCAD_Model
  facet normal 0 0 -1
    outer loop
      vertex 37.1072 -10.172 0
      vertex 36.3491 -4.81145 0
      vertex 37.1612 -4.69279 0
    endloop
  endfacet
  facet normal 0 0 -1
    outer loop
      vertex 37.1072 -10.172 0
      vertex 35.5404 -4.89619 0
      vertex 36.3491 -4.81145 0
    endloop
  endfacet
  facet normal 0 0 -1
    outer loop
      vertex 35.4152 -10.5041 0
      vertex 35.5404 -4.89619 0
      vertex 37.1072 -10.172 0
    endloop
  endfacet
  facet normal 0 0 -1
    outer loop
      vertex 35.4152 -10.5041 0
      vertex 34.7351 -4.94704 0
      vertex 35.5404 -4.89619 0
    endloop
  endfacet
  facet normal 0 0 -1
    outer loop
      vertex 35.4152 -10.5041 0
      vertex 33.9332 -4.96399 0
      vertex 34.7351 -4.94704 0
    endloop
  endfacet
  facet normal 0 0 -1
    outer loop
      vertex 33.7571 -10.7414 0
      vertex 33.9332 -4.96399 0
      vertex 35.4152 -10.5041 0
    endloop
  endfacet
  facet normal 0 0 -1
    outer loop
      vertex 33.7571 -10.7414 0
      vertex 32.5117 -4.88939 0
      vertex 33.9332 -4.96399 0
    endloop
  endfacet
  facet normal 0 0 -1
    outer loop
      vertex 32.133 -10.8837 0
      vertex 32.5117 -4.88939 0
      vertex 33.7571 -10.7414 0
    endloop
  endfacet
  facet normal 0 0 -1
    outer loop
      vertex 32.133 -10.8837 0
      vertex 31.258 -4.66559 0
      vertex 32.5117 -4.88939 0
    endloop
  endfacet
  facet normal 0 0 -1
    outer loop
      vertex 30.5428 -10.9312 0
      vertex 31.258 -4.66559 0
      vertex 32.133 -10.8837 0
    endloop
  endfacet
  facet normal 0 0 -1
    outer loop
      vertex 28.4269 -10.7769 0
      vertex 31.258 -4.66559 0
      vertex 30.5428 -10.9312 0
    endloop
  endfacet
  facet normal -0 0 -1
    outer loop
      vertex 31.258 -4.66559 0
      vertex 28.4269 -10.7769 0
      vertex 30.1721 -4.29259 0
    endloop
  endfacet
  facet normal 0 0 -1
    outer loop
      vertex 26.501 -10.3141 0
      vertex 30.1721 -4.29259 0
      vertex 28.4269 -10.7769 0
    endloop
  endfacet
  facet normal -0 0 -1
    outer loop
      vertex 30.1721 -4.29259 0
      vertex 26.501 -10.3141 0
      vertex 29.254 -3.77039 0
    endloop
  endfacet
  facet normal 0 0 -1
    outer loop
      vertex 24.7649 -9.54272 0
      vertex 29.254 -3.77039 0
      vertex 26.501 -10.3141 0
    endloop
  endfacet
  facet normal -0 0 -1
    outer loop
      vertex 29.254 -3.77039 0
      vertex 24.7649 -9.54272 0
      vertex 28.4666 -3.08037 0
    endloop
  endfacet
  facet normal 0 0 -1
    outer loop
      vertex 23.2188 -8.4628 0
      vertex 28.4666 -3.08037 0
      vertex 24.7649 -9.54272 0
    endloop
  endfacet
  facet normal 0 0 -1
    outer loop
      vertex 21.839 -7.02531 0
      vertex 28.4666 -3.08037 0
      vertex 23.2188 -8.4628 0
    endloop
  endfacet
  facet normal 0 0 -1
    outer loop
      vertex 32.7128 19.286 0
      vertex 40.8772 19.286 0
      vertex 40.6424 15.6216 0
    endloop
  endfacet
  facet normal 0 0 -1
    outer loop
      vertex 32.5305 16.2175 0
      vertex 40.6424 15.6216 0
      vertex 39.938 12.2776 0
    endloop
  endfacet
  facet normal 0 0 -1
    outer loop
      vertex 32.5297 22.2112 0
      vertex 40.8772 19.286 0
      vertex 32.7128 19.286 0
    endloop
  endfacet
  facet normal 0 0 -1
    outer loop
      vertex 31.9838 13.5219 0
      vertex 39.938 12.2776 0
      vertex 38.764 9.254 0
    endloop
  endfacet
  facet normal 0 0 -1
    outer loop
      vertex 40.8772 19.286 0
      vertex 32.5297 22.2112 0
      vertex 40.5576 23.587 0
    endloop
  endfacet
  facet normal 0 0 -1
    outer loop
      vertex 31.0725 11.1993 0
      vertex 38.764 9.254 0
      vertex 37.1204 6.5508 0
    endloop
  endfacet
  facet normal 0 0 -1
    outer loop
      vertex 31.9804 24.8024 0
      vertex 40.5576 23.587 0
      vertex 32.5297 22.2112 0
    endloop
  endfacet
  facet normal 0 0 -1
    outer loop
      vertex 29.7968 9.24959 0
      vertex 37.1204 6.5508 0
      vertex 35.0581 4.24089 0
    endloop
  endfacet
  facet normal 0 0 -1
    outer loop
      vertex 40.5576 23.587 0
      vertex 31.9804 24.8024 0
      vertex 39.5989 27.4031 0
    endloop
  endfacet
  facet normal -0 0 -1
    outer loop
      vertex 39.5989 27.4031 0
      vertex 31.9804 24.8024 0
      vertex 38.001 30.7344 0
    endloop
  endfacet
  facet normal 0 0 -1
    outer loop
      vertex 29.7968 9.24959 0
      vertex 35.0581 4.24089 0
      vertex 32.6279 2.39719 0
    endloop
  endfacet
  facet normal 0 0 -1
    outer loop
      vertex 40.6424 15.6216 0
      vertex 32.5305 16.2175 0
      vertex 32.7128 19.286 0
    endloop
  endfacet
  facet normal 0 0 -1
    outer loop
      vertex 39.938 12.2776 0
      vertex 31.9838 13.5219 0
      vertex 32.5305 16.2175 0
    endloop
  endfacet
  facet normal 0 0 -1
    outer loop
      vertex 38.764 9.254 0
      vertex 31.0725 11.1993 0
      vertex 31.9838 13.5219 0
    endloop
  endfacet
  facet normal 0 0 -1
    outer loop
      vertex 28.1854 7.70679 0
      vertex 32.6279 2.39719 0
      vertex 29.8299 1.0197 0
    endloop
  endfacet
  facet normal 0 0 -1
    outer loop
      vertex 37.1204 6.5508 0
      vertex 29.7968 9.24959 0
      vertex 31.0725 11.1993 0
    endloop
  endfacet
  facet normal 0 0 -1
    outer loop
      vertex 32.6279 2.39719 0
      vertex 28.1854 7.70679 0
      vertex 29.7968 9.24959 0
    endloop
  endfacet
  facet normal 0 0 -1
    outer loop
      vertex 26.2671 6.6048 0
      vertex 29.8299 1.0197 0
      vertex 26.664 0.108398 0
    endloop
  endfacet
  facet normal 0 0 -1
    outer loop
      vertex 29.8299 1.0197 0
      vertex 26.2671 6.6048 0
      vertex 28.1854 7.70679 0
    endloop
  endfacet
  facet normal -0 0 -1
    outer loop
      vertex 28.4666 -3.08037 0
      vertex 21.839 -7.02531 0
      vertex 27.7725 -2.20389 0
    endloop
  endfacet
  facet normal 0 0 -1
    outer loop
      vertex 20.6015 -5.18089 0
      vertex 27.7725 -2.20389 0
      vertex 21.839 -7.02531 0
    endloop
  endfacet
  facet normal -0 0 -1
    outer loop
      vertex 27.7725 -2.20389 0
      vertex 20.6015 -5.18089 0
      vertex 27.1716 -1.14096 0
    endloop
  endfacet
  facet normal 0 0 -1
    outer loop
      vertex 19.5064 -2.92952 0
      vertex 27.1716 -1.14096 0
      vertex 20.6015 -5.18089 0
    endloop
  endfacet
  facet normal -0 0 -1
    outer loop
      vertex 27.1716 -1.14096 0
      vertex 19.5064 -2.92952 0
      vertex 26.664 0.108398 0
    endloop
  endfacet
  facet normal 0 0 -1
    outer loop
      vertex 26.664 0.108398 0
      vertex 24.042 5.94359 0
      vertex 26.2671 6.6048 0
    endloop
  endfacet
  facet normal 0 0 -1
    outer loop
      vertex 18.5536 -0.271194 0
      vertex 26.664 0.108398 0
      vertex 19.5064 -2.92952 0
    endloop
  endfacet
  facet normal 0 -0 -1
    outer loop
      vertex 21.51 5.72319 0
      vertex 26.664 0.108398 0
      vertex 18.5536 -0.271194 0
    endloop
  endfacet
  facet normal 0 0 -1
    outer loop
      vertex 26.664 0.108398 0
      vertex 21.51 5.72319 0
      vertex 24.042 5.94359 0
    endloop
  endfacet
  facet normal -0 0 -1
    outer loop
      vertex 21.51 5.72319 0
      vertex 18.5536 -0.271194 0
      vertex 19.045 5.95036 0
    endloop
  endfacet
  facet normal 0 0 -1
    outer loop
      vertex 14.9043 0.372162 0
      vertex 19.045 5.95036 0
      vertex 18.5536 -0.271194 0
    endloop
  endfacet
  facet normal -0 0 -1
    outer loop
      vertex 19.045 5.95036 0
      vertex 14.9043 0.372162 0
      vertex 16.8581 6.6319 0
    endloop
  endfacet
  facet normal 0 0 -1
    outer loop
      vertex 11.6874 1.56989 0
      vertex 16.8581 6.6319 0
      vertex 14.9043 0.372162 0
    endloop
  endfacet
  facet normal -0 0 -1
    outer loop
      vertex 16.8581 6.6319 0
      vertex 11.6874 1.56989 0
      vertex 14.9492 7.76776 0
    endloop
  endfacet
  facet normal 0 0 -1
    outer loop
      vertex 8.90274 3.32196 0
      vertex 14.9492 7.76776 0
      vertex 11.6874 1.56989 0
    endloop
  endfacet
  facet normal -0 0 -1
    outer loop
      vertex 14.9492 7.76776 0
      vertex 8.90274 3.32196 0
      vertex 13.3184 9.35799 0
    endloop
  endfacet
  facet normal 0 0 -1
    outer loop
      vertex 6.5504 5.62839 0
      vertex 13.3184 9.35799 0
      vertex 8.90274 3.32196 0
    endloop
  endfacet
  facet normal -0 0 -1
    outer loop
      vertex 13.3184 9.35799 0
      vertex 6.5504 5.62839 0
      vertex 12.0131 11.3415 0
    endloop
  endfacet
  facet normal 0 0 -1
    outer loop
      vertex 4.6814 8.41969 0
      vertex 12.0131 11.3415 0
      vertex 6.5504 5.62839 0
    endloop
  endfacet
  facet normal -0 0 -1
    outer loop
      vertex 12.0131 11.3415 0
      vertex 4.6814 8.41969 0
      vertex 11.0807 13.6574 0
    endloop
  endfacet
  facet normal 0 0 -1
    outer loop
      vertex 3.34639 11.6264 0
      vertex 11.0807 13.6574 0
      vertex 4.6814 8.41969 0
    endloop
  endfacet
  facet normal 0 -0 -1
    outer loop
      vertex 2.59712 23.631 0
      vertex 10.3348 19.286 0
      vertex 2.2784 19.286 0
    endloop
  endfacet
  facet normal -0 0 -1
    outer loop
      vertex 11.0807 13.6574 0
      vertex 3.34639 11.6264 0
      vertex 10.5213 16.3055 0
    endloop
  endfacet
  facet normal 0 -0 -1
    outer loop
      vertex 3.5533 27.4708 0
      vertex 10.3348 19.286 0
      vertex 2.59712 23.631 0
    endloop
  endfacet
  facet normal 0 0 -1
    outer loop
      vertex 2.54539 15.2485 0
      vertex 10.5213 16.3055 0
      vertex 3.34639 11.6264 0
    endloop
  endfacet
  facet normal 0 -0 -1
    outer loop
      vertex 5.14691 30.8054 0
      vertex 10.3348 19.286 0
      vertex 3.5533 27.4708 0
    endloop
  endfacet
  facet normal -0 0 -1
    outer loop
      vertex 10.5213 16.3055 0
      vertex 2.54539 15.2485 0
      vertex 10.3348 19.286 0
    endloop
  endfacet
  facet normal 0 0 -1
    outer loop
      vertex 10.3348 19.286 0
      vertex 7.37799 33.6348 0
      vertex 10.177 35.8897 0
    endloop
  endfacet
  facet normal -0 0 -1
    outer loop
      vertex 10.3348 19.286 0
      vertex 2.54539 15.2485 0
      vertex 2.2784 19.286 0
    endloop
  endfacet
  facet normal 0 0 -1
    outer loop
      vertex 10.3348 19.286 0
      vertex 5.14691 30.8054 0
      vertex 7.37799 33.6348 0
    endloop
  endfacet
  facet normal 0 0 -1
    outer loop
      vertex 31.0649 27.0596 0
      vertex 38.001 30.7344 0
      vertex 31.9804 24.8024 0
    endloop
  endfacet
  facet normal -0 0 -1
    outer loop
      vertex 38.001 30.7344 0
      vertex 31.0649 27.0596 0
      vertex 35.764 33.5808 0
    endloop
  endfacet
  facet normal 0 0 -1
    outer loop
      vertex 29.7832 28.9828 0
      vertex 35.764 33.5808 0
      vertex 31.0649 27.0596 0
    endloop
  endfacet
  facet normal -0 0 -1
    outer loop
      vertex 35.764 33.5808 0
      vertex 29.7832 28.9828 0
      vertex 32.9592 35.8593 0
    endloop
  endfacet
  facet normal 0 0 -1
    outer loop
      vertex 28.1709 30.5196 0
      vertex 32.9592 35.8593 0
      vertex 29.7832 28.9828 0
    endloop
  endfacet
  facet normal -0 0 -1
    outer loop
      vertex 32.9592 35.8593 0
      vertex 28.1709 30.5196 0
      vertex 29.6577 37.4868 0
    endloop
  endfacet
  facet normal 0 0 -1
    outer loop
      vertex 26.2637 31.6174 0
      vertex 29.6577 37.4868 0
      vertex 28.1709 30.5196 0
    endloop
  endfacet
  facet normal 0 0 -1
    outer loop
      vertex 25.5448 35.727 0
      vertex 29.6577 37.4868 0
      vertex 26.2637 31.6174 0
    endloop
  endfacet
  facet normal -0 0 -1
    outer loop
      vertex 29.6577 37.4868 0
      vertex 25.5448 35.727 0
      vertex 25.8594 38.4633 0
    endloop
  endfacet
  facet normal 0 0 -1
    outer loop
      vertex 26.2637 31.6174 0
      vertex 24.5448 34.727 0
      vertex 25.5448 35.727 0
    endloop
  endfacet
  facet normal 0 0 -1
    outer loop
      vertex 24.0615 32.276 0
      vertex 24.5448 34.727 0
      vertex 26.2637 31.6174 0
    endloop
  endfacet
  facet normal 0 0 -1
    outer loop
      vertex 21.5644 32.4956 0
      vertex 24.5448 34.727 0
      vertex 24.0615 32.276 0
    endloop
  endfacet
  facet normal -0 0 -1
    outer loop
      vertex 24.5448 34.727 0
      vertex 21.5644 32.4956 0
      vertex 23.5448 35.727 0
    endloop
  endfacet
  facet normal 0 0 -1
    outer loop
      vertex 24.5448 36.727 0
      vertex 25.8594 38.4633 0
      vertex 25.5448 35.727 0
    endloop
  endfacet
  facet normal 0 0 -1
    outer loop
      vertex 21.5644 38.7888 0
      vertex 24.5448 36.727 0
      vertex 23.5448 35.727 0
    endloop
  endfacet
  facet normal 0 0 -1
    outer loop
      vertex 24.5448 36.727 0
      vertex 21.5644 38.7888 0
      vertex 25.8594 38.4633 0
    endloop
  endfacet
  facet normal 0 0 -1
    outer loop
      vertex 21.5644 32.4956 0
      vertex 21.5644 38.7888 0
      vertex 23.5448 35.727 0
    endloop
  endfacet
  facet normal 0 0 -1
    outer loop
      vertex 19.0316 32.2777 0
      vertex 21.5644 38.7888 0
      vertex 21.5644 32.4956 0
    endloop
  endfacet
  facet normal 0 0 -1
    outer loop
      vertex 19.0316 32.2777 0
      vertex 17.2702 38.4667 0
      vertex 21.5644 38.7888 0
    endloop
  endfacet
  facet normal 0 0 -1
    outer loop
      vertex 16.8039 31.6242 0
      vertex 17.2702 38.4667 0
      vertex 19.0316 32.2777 0
    endloop
  endfacet
  facet normal 0 0 -1
    outer loop
      vertex 13.4744 37.5003 0
      vertex 16.8039 31.6242 0
      vertex 14.8814 30.5349 0
    endloop
  endfacet
  facet normal 0 0 -1
    outer loop
      vertex 16.8039 31.6242 0
      vertex 13.4744 37.5003 0
      vertex 17.2702 38.4667 0
    endloop
  endfacet
  facet normal 0 0 -1
    outer loop
      vertex 10.177 35.8897 0
      vertex 14.8814 30.5349 0
      vertex 13.264 29.01 0
    endloop
  endfacet
  facet normal 0 0 -1
    outer loop
      vertex 10.177 35.8897 0
      vertex 13.264 29.01 0
      vertex 11.9825 27.0953 0
    endloop
  endfacet
  facet normal 0 0 -1
    outer loop
      vertex 10.177 35.8897 0
      vertex 11.9825 27.0953 0
      vertex 11.0671 24.8364 0
    endloop
  endfacet
  facet normal 0 0 -1
    outer loop
      vertex 10.177 35.8897 0
      vertex 11.0671 24.8364 0
      vertex 10.5179 22.2333 0
    endloop
  endfacet
  facet normal 0 0 -1
    outer loop
      vertex 14.8814 30.5349 0
      vertex 10.177 35.8897 0
      vertex 13.4744 37.5003 0
    endloop
  endfacet
  facet normal 0 0 -1
    outer loop
      vertex 10.177 35.8897 0
      vertex 10.5179 22.2333 0
      vertex 10.3348 19.286 0
    endloop
  endfacet
  facet normal 0 0 1
    outer loop
      vertex 40.8772 19.286 5
      vertex 32.5297 22.2112 5
      vertex 32.7128 19.286 5
    endloop
  endfacet
  facet normal 0 0 1
    outer loop
      vertex 35.764 33.5808 5
      vertex 31.9804 24.8024 5
      vertex 32.5297 22.2112 5
    endloop
  endfacet
  facet normal 0 0 1
    outer loop
      vertex 35.764 33.5808 5
      vertex 31.0649 27.0596 5
      vertex 31.9804 24.8024 5
    endloop
  endfacet
  facet normal 0 0 1
    outer loop
      vertex 35.764 33.5808 5
      vertex 29.7832 28.9828 5
      vertex 31.0649 27.0596 5
    endloop
  endfacet
  facet normal 0 0 1
    outer loop
      vertex 28.1709 30.5196 5
      vertex 32.9592 35.8593 5
      vertex 29.6577 37.4868 5
    endloop
  endfacet
  facet normal 0 0 1
    outer loop
      vertex 32.9592 35.8593 5
      vertex 28.1709 30.5196 5
      vertex 29.7832 28.9828 5
    endloop
  endfacet
  facet normal 0 0 1
    outer loop
      vertex 29.6577 37.4868 5
      vertex 26.2637 31.6174 5
      vertex 28.1709 30.5196 5
    endloop
  endfacet
  facet normal 0 0 1
    outer loop
      vertex 25.8594 38.4633 5
      vertex 26.2637 31.6174 5
      vertex 29.6577 37.4868 5
    endloop
  endfacet
  facet normal 0 0 1
    outer loop
      vertex 25.8594 38.4633 5
      vertex 24.0615 32.276 5
      vertex 26.2637 31.6174 5
    endloop
  endfacet
  facet normal 0 0 1
    outer loop
      vertex 21.5644 38.7888 5
      vertex 24.0615 32.276 5
      vertex 25.8594 38.4633 5
    endloop
  endfacet
  facet normal 0 0 1
    outer loop
      vertex 21.5644 38.7888 5
      vertex 21.5644 32.4956 5
      vertex 24.0615 32.276 5
    endloop
  endfacet
  facet normal 0 0 1
    outer loop
      vertex 21.5644 38.7888 5
      vertex 19.0316 32.2777 5
      vertex 21.5644 32.4956 5
    endloop
  endfacet
  facet normal -0 0 1
    outer loop
      vertex 17.2702 38.4667 5
      vertex 19.0316 32.2777 5
      vertex 21.5644 38.7888 5
    endloop
  endfacet
  facet normal 0 0 1
    outer loop
      vertex 17.2702 38.4667 5
      vertex 16.8039 31.6242 5
      vertex 19.0316 32.2777 5
    endloop
  endfacet
  facet normal -0 0 1
    outer loop
      vertex 13.4744 37.5003 5
      vertex 16.8039 31.6242 5
      vertex 17.2702 38.4667 5
    endloop
  endfacet
  facet normal 0 0 1
    outer loop
      vertex 16.8039 31.6242 5
      vertex 13.4744 37.5003 5
      vertex 14.8814 30.5349 5
    endloop
  endfacet
  facet normal -0 0 1
    outer loop
      vertex 10.177 35.8897 5
      vertex 14.8814 30.5349 5
      vertex 13.4744 37.5003 5
    endloop
  endfacet
  facet normal 0 0 1
    outer loop
      vertex 14.8814 30.5349 5
      vertex 10.177 35.8897 5
      vertex 13.264 29.01 5
    endloop
  endfacet
  facet normal -0 0 1
    outer loop
      vertex 7.37799 33.6348 5
      vertex 13.264 29.01 5
      vertex 10.177 35.8897 5
    endloop
  endfacet
  facet normal 0 0 1
    outer loop
      vertex 13.264 29.01 5
      vertex 7.37799 33.6348 5
      vertex 11.9825 27.0953 5
    endloop
  endfacet
  facet normal 0 0 1
    outer loop
      vertex 11.9825 27.0953 5
      vertex 5.14691 30.8054 5
      vertex 11.0671 24.8364 5
    endloop
  endfacet
  facet normal -0 0 1
    outer loop
      vertex 5.14691 30.8054 5
      vertex 11.9825 27.0953 5
      vertex 7.37799 33.6348 5
    endloop
  endfacet
  facet normal -0 0 1
    outer loop
      vertex 32.5297 22.2112 5
      vertex 40.8772 19.286 5
      vertex 40.5576 23.587 5
    endloop
  endfacet
  facet normal 0 0 1
    outer loop
      vertex 40.8772 19.286 5
      vertex 32.7128 19.286 5
      vertex 40.6424 15.6216 5
    endloop
  endfacet
  facet normal 0 0 1
    outer loop
      vertex 32.5297 22.2112 5
      vertex 40.5576 23.587 5
      vertex 39.5989 27.4031 5
    endloop
  endfacet
  facet normal -0 0 1
    outer loop
      vertex 32.5305 16.2175 5
      vertex 40.6424 15.6216 5
      vertex 32.7128 19.286 5
    endloop
  endfacet
  facet normal 0 0 1
    outer loop
      vertex 32.5297 22.2112 5
      vertex 39.5989 27.4031 5
      vertex 38.001 30.7344 5
    endloop
  endfacet
  facet normal 0 0 1
    outer loop
      vertex 40.6424 15.6216 5
      vertex 32.5305 16.2175 5
      vertex 39.938 12.2776 5
    endloop
  endfacet
  facet normal 0 0 1
    outer loop
      vertex 32.5297 22.2112 5
      vertex 38.001 30.7344 5
      vertex 35.764 33.5808 5
    endloop
  endfacet
  facet normal -0 0 1
    outer loop
      vertex 31.9838 13.5219 5
      vertex 39.938 12.2776 5
      vertex 32.5305 16.2175 5
    endloop
  endfacet
  facet normal 0 0 1
    outer loop
      vertex 29.7832 28.9828 5
      vertex 35.764 33.5808 5
      vertex 32.9592 35.8593 5
    endloop
  endfacet
  facet normal 0 0 1
    outer loop
      vertex 39.938 12.2776 5
      vertex 31.9838 13.5219 5
      vertex 38.764 9.254 5
    endloop
  endfacet
  facet normal -0 0 1
    outer loop
      vertex 31.0725 11.1993 5
      vertex 38.764 9.254 5
      vertex 31.9838 13.5219 5
    endloop
  endfacet
  facet normal 0 0 1
    outer loop
      vertex 38.764 9.254 5
      vertex 31.0725 11.1993 5
      vertex 37.1204 6.5508 5
    endloop
  endfacet
  facet normal -0 0 1
    outer loop
      vertex 29.7968 9.24959 5
      vertex 37.1204 6.5508 5
      vertex 31.0725 11.1993 5
    endloop
  endfacet
  facet normal 0 0 1
    outer loop
      vertex 37.1204 6.5508 5
      vertex 29.7968 9.24959 5
      vertex 35.0581 4.24089 5
    endloop
  endfacet
  facet normal 0 0 1
    outer loop
      vertex 35.0581 4.24089 5
      vertex 29.7968 9.24959 5
      vertex 32.6279 2.39719 5
    endloop
  endfacet
  facet normal -0 0 1
    outer loop
      vertex 28.1854 7.70679 5
      vertex 32.6279 2.39719 5
      vertex 29.7968 9.24959 5
    endloop
  endfacet
  facet normal 0 0 1
    outer loop
      vertex 32.6279 2.39719 5
      vertex 28.1854 7.70679 5
      vertex 29.8299 1.0197 5
    endloop
  endfacet
  facet normal -0 0 1
    outer loop
      vertex 26.2671 6.6048 5
      vertex 29.8299 1.0197 5
      vertex 28.1854 7.70679 5
    endloop
  endfacet
  facet normal 0 0 1
    outer loop
      vertex 29.8299 1.0197 5
      vertex 26.2671 6.6048 5
      vertex 26.664 0.108398 5
    endloop
  endfacet
  facet normal -0 0 1
    outer loop
      vertex 24.042 5.94359 5
      vertex 26.664 0.108398 5
      vertex 26.2671 6.6048 5
    endloop
  endfacet
  facet normal 0 0 1
    outer loop
      vertex 26.664 0.108398 5
      vertex 24.7649 -9.54272 5
      vertex 26.501 -10.3141 5
    endloop
  endfacet
  facet normal -0 0 1
    outer loop
      vertex 21.51 5.72319 5
      vertex 26.664 0.108398 5
      vertex 24.042 5.94359 5
    endloop
  endfacet
  facet normal 0 0 1
    outer loop
      vertex 26.664 0.108398 5
      vertex 23.2188 -8.4628 5
      vertex 24.7649 -9.54272 5
    endloop
  endfacet
  facet normal 0 0 1
    outer loop
      vertex 26.664 0.108398 5
      vertex 21.839 -7.02531 5
      vertex 23.2188 -8.4628 5
    endloop
  endfacet
  facet normal 0 0 1
    outer loop
      vertex 26.664 0.108398 5
      vertex 21.51 5.72319 5
      vertex 18.5536 -0.271194 5
    endloop
  endfacet
  facet normal 0 0 1
    outer loop
      vertex 26.664 0.108398 5
      vertex 20.6015 -5.18089 5
      vertex 21.839 -7.02531 5
    endloop
  endfacet
  facet normal 0 0 1
    outer loop
      vertex 26.664 0.108398 5
      vertex 19.5064 -2.92952 5
      vertex 20.6015 -5.18089 5
    endloop
  endfacet
  facet normal 0 0 1
    outer loop
      vertex 18.5536 -0.271194 5
      vertex 21.51 5.72319 5
      vertex 19.045 5.95036 5
    endloop
  endfacet
  facet normal 0 0 1
    outer loop
      vertex 26.664 0.108398 5
      vertex 18.5536 -0.271194 5
      vertex 19.5064 -2.92952 5
    endloop
  endfacet
  facet normal 0 0 1
    outer loop
      vertex 14.9043 0.372162 5
      vertex 19.045 5.95036 5
      vertex 16.8581 6.6319 5
    endloop
  endfacet
  facet normal 0 0 1
    outer loop
      vertex 11.6874 1.56989 5
      vertex 16.8581 6.6319 5
      vertex 14.9492 7.76776 5
    endloop
  endfacet
  facet normal 0 0 1
    outer loop
      vertex 19.045 5.95036 5
      vertex 14.9043 0.372162 5
      vertex 18.5536 -0.271194 5
    endloop
  endfacet
  facet normal 0 0 1
    outer loop
      vertex 8.90274 3.32196 5
      vertex 14.9492 7.76776 5
      vertex 13.3184 9.35799 5
    endloop
  endfacet
  facet normal 0 0 1
    outer loop
      vertex 6.5504 5.62839 5
      vertex 13.3184 9.35799 5
      vertex 12.0131 11.3415 5
    endloop
  endfacet
  facet normal 0 0 1
    outer loop
      vertex 16.8581 6.6319 5
      vertex 11.6874 1.56989 5
      vertex 14.9043 0.372162 5
    endloop
  endfacet
  facet normal 0 0 1
    outer loop
      vertex 4.6814 8.41969 5
      vertex 12.0131 11.3415 5
      vertex 11.0807 13.6574 5
    endloop
  endfacet
  facet normal 0 0 1
    outer loop
      vertex 3.34639 11.6264 5
      vertex 11.0807 13.6574 5
      vertex 10.5213 16.3055 5
    endloop
  endfacet
  facet normal 0 0 1
    outer loop
      vertex 14.9492 7.76776 5
      vertex 8.90274 3.32196 5
      vertex 11.6874 1.56989 5
    endloop
  endfacet
  facet normal 0 0 1
    outer loop
      vertex 2.54539 15.2485 5
      vertex 10.5213 16.3055 5
      vertex 10.3348 19.286 5
    endloop
  endfacet
  facet normal -0 0 1
    outer loop
      vertex 3.5533 27.4708 5
      vertex 11.0671 24.8364 5
      vertex 5.14691 30.8054 5
    endloop
  endfacet
  facet normal 0 0 1
    outer loop
      vertex 2.59712 23.631 5
      vertex 11.0671 24.8364 5
      vertex 3.5533 27.4708 5
    endloop
  endfacet
  facet normal 0 -0 1
    outer loop
      vertex 2.54539 15.2485 5
      vertex 10.3348 19.286 5
      vertex 2.2784 19.286 5
    endloop
  endfacet
  facet normal 0 0 1
    outer loop
      vertex 11.0671 24.8364 5
      vertex 2.59712 23.631 5
      vertex 10.5179 22.2333 5
    endloop
  endfacet
  facet normal 0 0 1
    outer loop
      vertex 10.5213 16.3055 5
      vertex 2.54539 15.2485 5
      vertex 3.34639 11.6264 5
    endloop
  endfacet
  facet normal 0 0 1
    outer loop
      vertex 2.2784 19.286 5
      vertex 10.5179 22.2333 5
      vertex 2.59712 23.631 5
    endloop
  endfacet
  facet normal 0 0 1
    outer loop
      vertex 11.0807 13.6574 5
      vertex 3.34639 11.6264 5
      vertex 4.6814 8.41969 5
    endloop
  endfacet
  facet normal 0 0 1
    outer loop
      vertex 10.5179 22.2333 5
      vertex 2.2784 19.286 5
      vertex 10.3348 19.286 5
    endloop
  endfacet
  facet normal 0 0 1
    outer loop
      vertex 12.0131 11.3415 5
      vertex 4.6814 8.41969 5
      vertex 6.5504 5.62839 5
    endloop
  endfacet
  facet normal 0 0 1
    outer loop
      vertex 13.3184 9.35799 5
      vertex 6.5504 5.62839 5
      vertex 8.90274 3.32196 5
    endloop
  endfacet
  facet normal -0 0 1
    outer loop
      vertex 36.3491 -4.81145 5
      vertex 37.1072 -10.172 5
      vertex 37.1612 -4.69279 5
    endloop
  endfacet
  facet normal -0 0 1
    outer loop
      vertex 35.5404 -4.89619 5
      vertex 37.1072 -10.172 5
      vertex 36.3491 -4.81145 5
    endloop
  endfacet
  facet normal 0 0 1
    outer loop
      vertex 35.5404 -4.89619 5
      vertex 35.4152 -10.5041 5
      vertex 37.1072 -10.172 5
    endloop
  endfacet
  facet normal -0 0 1
    outer loop
      vertex 34.7351 -4.94704 5
      vertex 35.4152 -10.5041 5
      vertex 35.5404 -4.89619 5
    endloop
  endfacet
  facet normal -0 0 1
    outer loop
      vertex 33.9332 -4.96399 5
      vertex 35.4152 -10.5041 5
      vertex 34.7351 -4.94704 5
    endloop
  endfacet
  facet normal 0 0 1
    outer loop
      vertex 33.9332 -4.96399 5
      vertex 33.7571 -10.7414 5
      vertex 35.4152 -10.5041 5
    endloop
  endfacet
  facet normal 0 0 1
    outer loop
      vertex 32.5117 -4.88939 5
      vertex 33.7571 -10.7414 5
      vertex 33.9332 -4.96399 5
    endloop
  endfacet
  facet normal 0 0 1
    outer loop
      vertex 32.5117 -4.88939 5
      vertex 32.133 -10.8837 5
      vertex 33.7571 -10.7414 5
    endloop
  endfacet
  facet normal 0 0 1
    outer loop
      vertex 31.258 -4.66559 5
      vertex 32.133 -10.8837 5
      vertex 32.5117 -4.88939 5
    endloop
  endfacet
  facet normal 0 0 1
    outer loop
      vertex 31.258 -4.66559 5
      vertex 30.5428 -10.9312 5
      vertex 32.133 -10.8837 5
    endloop
  endfacet
  facet normal 0 0 1
    outer loop
      vertex 28.4269 -10.7769 5
      vertex 31.258 -4.66559 5
      vertex 30.1721 -4.29259 5
    endloop
  endfacet
  facet normal 0 0 1
    outer loop
      vertex 26.501 -10.3141 5
      vertex 30.1721 -4.29259 5
      vertex 29.254 -3.77039 5
    endloop
  endfacet
  facet normal 0 0 1
    outer loop
      vertex 26.501 -10.3141 5
      vertex 29.254 -3.77039 5
      vertex 28.4666 -3.08037 5
    endloop
  endfacet
  facet normal 0 0 1
    outer loop
      vertex 31.258 -4.66559 5
      vertex 28.4269 -10.7769 5
      vertex 30.5428 -10.9312 5
    endloop
  endfacet
  facet normal 0 0 1
    outer loop
      vertex 26.501 -10.3141 5
      vertex 28.4666 -3.08037 5
      vertex 27.7725 -2.20389 5
    endloop
  endfacet
  facet normal 0 0 1
    outer loop
      vertex 26.501 -10.3141 5
      vertex 27.7725 -2.20389 5
      vertex 27.1716 -1.14096 5
    endloop
  endfacet
  facet normal 0 0 1
    outer loop
      vertex 26.501 -10.3141 5
      vertex 27.1716 -1.14096 5
      vertex 26.664 0.108398 5
    endloop
  endfacet
  facet normal 0 0 1
    outer loop
      vertex 30.1721 -4.29259 5
      vertex 26.501 -10.3141 5
      vertex 28.4269 -10.7769 5
    endloop
  endfacet
  facet normal 0.0872834 -0.996184 0
    outer loop
      vertex 32.133 -10.8837 0
      vertex 33.7571 -10.7414 5
      vertex 32.133 -10.8837 5
    endloop
  endfacet
  facet normal 0.0872834 -0.996184 0
    outer loop
      vertex 33.7571 -10.7414 5
      vertex 32.133 -10.8837 0
      vertex 33.7571 -10.7414 0
    endloop
  endfacet
  facet normal 0.141672 -0.989914 0
    outer loop
      vertex 33.7571 -10.7414 0
      vertex 35.4152 -10.5041 5
      vertex 33.7571 -10.7414 5
    endloop
  endfacet
  facet normal 0.141672 -0.989914 0
    outer loop
      vertex 35.4152 -10.5041 5
      vertex 33.7571 -10.7414 0
      vertex 35.4152 -10.5041 0
    endloop
  endfacet
  facet normal 0.192602 -0.981277 0
    outer loop
      vertex 35.4152 -10.5041 0
      vertex 37.1072 -10.172 5
      vertex 35.4152 -10.5041 5
    endloop
  endfacet
  facet normal 0.192602 -0.981277 0
    outer loop
      vertex 37.1072 -10.172 5
      vertex 35.4152 -10.5041 0
      vertex 37.1072 -10.172 0
    endloop
  endfacet
  facet normal 0.999951 -0.00985496 0
    outer loop
      vertex 37.1072 -10.172 5
      vertex 37.1612 -4.69279 0
      vertex 37.1612 -4.69279 5
    endloop
  endfacet
  facet normal 0.999951 -0.00985496 0
    outer loop
      vertex 37.1612 -4.69279 0
      vertex 37.1072 -10.172 5
      vertex 37.1072 -10.172 0
    endloop
  endfacet
  facet normal -0.14458 0.989493 0
    outer loop
      vertex 37.1612 -4.69279 0
      vertex 36.3491 -4.81145 5
      vertex 37.1612 -4.69279 5
    endloop
  endfacet
  facet normal -0.14458 0.989493 0
    outer loop
      vertex 36.3491 -4.81145 5
      vertex 37.1612 -4.69279 0
      vertex 36.3491 -4.81145 0
    endloop
  endfacet
  facet normal -0.104215 0.994555 0
    outer loop
      vertex 36.3491 -4.81145 0
      vertex 35.5404 -4.89619 5
      vertex 36.3491 -4.81145 5
    endloop
  endfacet
  facet normal -0.104215 0.994555 0
    outer loop
      vertex 35.5404 -4.89619 5
      vertex 36.3491 -4.81145 0
      vertex 35.5404 -4.89619 0
    endloop
  endfacet
  facet normal -0.0630187 0.998012 0
    outer loop
      vertex 35.5404 -4.89619 0
      vertex 34.7351 -4.94704 5
      vertex 35.5404 -4.89619 5
    endloop
  endfacet
  facet normal -0.0630187 0.998012 0
    outer loop
      vertex 34.7351 -4.94704 5
      vertex 35.5404 -4.89619 0
      vertex 34.7351 -4.94704 0
    endloop
  endfacet
  facet normal -0.0211326 0.999777 0
    outer loop
      vertex 34.7351 -4.94704 0
      vertex 33.9332 -4.96399 5
      vertex 34.7351 -4.94704 5
    endloop
  endfacet
  facet normal -0.0211326 0.999777 0
    outer loop
      vertex 33.9332 -4.96399 5
      vertex 34.7351 -4.94704 0
      vertex 33.9332 -4.96399 0
    endloop
  endfacet
  facet normal 0.0524077 0.998626 -0
    outer loop
      vertex 33.9332 -4.96399 0
      vertex 32.5117 -4.88939 5
      vertex 33.9332 -4.96399 5
    endloop
  endfacet
  facet normal 0.0524077 0.998626 0
    outer loop
      vertex 32.5117 -4.88939 5
      vertex 33.9332 -4.96399 0
      vertex 32.5117 -4.88939 0
    endloop
  endfacet
  facet normal 0.175734 0.984438 -0
    outer loop
      vertex 32.5117 -4.88939 0
      vertex 31.258 -4.66559 5
      vertex 32.5117 -4.88939 5
    endloop
  endfacet
  facet normal 0.175734 0.984438 0
    outer loop
      vertex 31.258 -4.66559 5
      vertex 32.5117 -4.88939 0
      vertex 31.258 -4.66559 0
    endloop
  endfacet
  facet normal 0.324863 0.945761 -0
    outer loop
      vertex 31.258 -4.66559 0
      vertex 30.1721 -4.29259 5
      vertex 31.258 -4.66559 5
    endloop
  endfacet
  facet normal 0.324863 0.945761 0
    outer loop
      vertex 30.1721 -4.29259 5
      vertex 31.258 -4.66559 0
      vertex 30.1721 -4.29259 0
    endloop
  endfacet
  facet normal 0.494405 0.869232 -0
    outer loop
      vertex 30.1721 -4.29259 0
      vertex 29.254 -3.77039 5
      vertex 30.1721 -4.29259 5
    endloop
  endfacet
  facet normal 0.494405 0.869232 0
    outer loop
      vertex 29.254 -3.77039 5
      vertex 30.1721 -4.29259 0
      vertex 29.254 -3.77039 0
    endloop
  endfacet
  facet normal 0.65907 0.752082 -0
    outer loop
      vertex 29.254 -3.77039 0
      vertex 28.4666 -3.08037 5
      vertex 29.254 -3.77039 5
    endloop
  endfacet
  facet normal 0.65907 0.752082 0
    outer loop
      vertex 28.4666 -3.08037 5
      vertex 29.254 -3.77039 0
      vertex 28.4666 -3.08037 0
    endloop
  endfacet
  facet normal 0.78395 0.620824 0
    outer loop
      vertex 28.4666 -3.08037 5
      vertex 27.7725 -2.20389 0
      vertex 27.7725 -2.20389 5
    endloop
  endfacet
  facet normal 0.78395 0.620824 0
    outer loop
      vertex 27.7725 -2.20389 0
      vertex 28.4666 -3.08037 5
      vertex 28.4666 -3.08037 0
    endloop
  endfacet
  facet normal 0.870523 0.492128 0
    outer loop
      vertex 27.7725 -2.20389 5
      vertex 27.1716 -1.14096 0
      vertex 27.1716 -1.14096 5
    endloop
  endfacet
  facet normal 0.870523 0.492128 0
    outer loop
      vertex 27.1716 -1.14096 0
      vertex 27.7725 -2.20389 5
      vertex 27.7725 -2.20389 0
    endloop
  endfacet
  facet normal 0.926454 0.376408 0
    outer loop
      vertex 27.1716 -1.14096 5
      vertex 26.664 0.108398 0
      vertex 26.664 0.108398 5
    endloop
  endfacet
  facet normal 0.926454 0.376408 0
    outer loop
      vertex 26.664 0.108398 0
      vertex 27.1716 -1.14096 5
      vertex 27.1716 -1.14096 0
    endloop
  endfacet
  facet normal 0.276617 -0.96098 0
    outer loop
      vertex 26.664 0.108398 0
      vertex 29.8299 1.0197 5
      vertex 26.664 0.108398 5
    endloop
  endfacet
  facet normal 0.276617 -0.96098 0
    outer loop
      vertex 29.8299 1.0197 5
      vertex 26.664 0.108398 0
      vertex 29.8299 1.0197 0
    endloop
  endfacet
  facet normal 0.441687 -0.897169 0
    outer loop
      vertex 29.8299 1.0197 0
      vertex 32.6279 2.39719 5
      vertex 29.8299 1.0197 5
    endloop
  endfacet
  facet normal 0.441687 -0.897169 0
    outer loop
      vertex 32.6279 2.39719 5
      vertex 29.8299 1.0197 0
      vertex 32.6279 2.39719 0
    endloop
  endfacet
  facet normal 0.604407 -0.796675 0
    outer loop
      vertex 32.6279 2.39719 0
      vertex 35.0581 4.24089 5
      vertex 32.6279 2.39719 5
    endloop
  endfacet
  facet normal 0.604407 -0.796675 0
    outer loop
      vertex 35.0581 4.24089 5
      vertex 32.6279 2.39719 0
      vertex 35.0581 4.24089 0
    endloop
  endfacet
  facet normal 0.745957 -0.665994 0
    outer loop
      vertex 35.0581 4.24089 5
      vertex 37.1204 6.5508 0
      vertex 37.1204 6.5508 5
    endloop
  endfacet
  facet normal 0.745957 -0.665994 0
    outer loop
      vertex 37.1204 6.5508 0
      vertex 35.0581 4.24089 5
      vertex 35.0581 4.24089 0
    endloop
  endfacet
  facet normal 0.854455 -0.519526 0
    outer loop
      vertex 37.1204 6.5508 5
      vertex 38.764 9.254 0
      vertex 38.764 9.254 5
    endloop
  endfacet
  facet normal 0.854455 -0.519526 0
    outer loop
      vertex 38.764 9.254 0
      vertex 37.1204 6.5508 5
      vertex 37.1204 6.5508 0
    endloop
  endfacet
  facet normal 0.932197 -0.361952 0
    outer loop
      vertex 38.764 9.254 5
      vertex 39.938 12.2776 0
      vertex 39.938 12.2776 5
    endloop
  endfacet
  facet normal 0.932197 -0.361952 0
    outer loop
      vertex 39.938 12.2776 0
      vertex 38.764 9.254 5
      vertex 38.764 9.254 0
    endloop
  endfacet
  facet normal 0.978526 -0.206123 0
    outer loop
      vertex 39.938 12.2776 5
      vertex 40.6424 15.6216 0
      vertex 40.6424 15.6216 5
    endloop
  endfacet
  facet normal 0.978526 -0.206123 0
    outer loop
      vertex 40.6424 15.6216 0
      vertex 39.938 12.2776 5
      vertex 39.938 12.2776 0
    endloop
  endfacet
  facet normal 0.997953 -0.0639448 0
    outer loop
      vertex 40.6424 15.6216 5
      vertex 40.8772 19.286 0
      vertex 40.8772 19.286 5
    endloop
  endfacet
  facet normal 0.997953 -0.0639448 0
    outer loop
      vertex 40.8772 19.286 0
      vertex 40.6424 15.6216 5
      vertex 40.6424 15.6216 0
    endloop
  endfacet
  facet normal 0.997251 0.074104 0
    outer loop
      vertex 40.8772 19.286 5
      vertex 40.5576 23.587 0
      vertex 40.5576 23.587 5
    endloop
  endfacet
  facet normal 0.997251 0.074104 0
    outer loop
      vertex 40.5576 23.587 0
      vertex 40.8772 19.286 5
      vertex 40.8772 19.286 0
    endloop
  endfacet
  facet normal 0.969862 0.243654 0
    outer loop
      vertex 40.5576 23.587 5
      vertex 39.5989 27.4031 0
      vertex 39.5989 27.4031 5
    endloop
  endfacet
  facet normal 0.969862 0.243654 0
    outer loop
      vertex 39.5989 27.4031 0
      vertex 40.5576 23.587 5
      vertex 40.5576 23.587 0
    endloop
  endfacet
  facet normal 0.901642 0.432484 0
    outer loop
      vertex 39.5989 27.4031 5
      vertex 38.001 30.7344 0
      vertex 38.001 30.7344 5
    endloop
  endfacet
  facet normal 0.901642 0.432484 0
    outer loop
      vertex 38.001 30.7344 0
      vertex 39.5989 27.4031 5
      vertex 39.5989 27.4031 0
    endloop
  endfacet
  facet normal 0.786245 0.617914 0
    outer loop
      vertex 38.001 30.7344 5
      vertex 35.764 33.5808 0
      vertex 35.764 33.5808 5
    endloop
  endfacet
  facet normal 0.786245 0.617914 0
    outer loop
      vertex 35.764 33.5808 0
      vertex 38.001 30.7344 5
      vertex 38.001 30.7344 0
    endloop
  endfacet
  facet normal 0.630526 0.776168 -0
    outer loop
      vertex 35.764 33.5808 0
      vertex 32.9592 35.8593 5
      vertex 35.764 33.5808 5
    endloop
  endfacet
  facet normal 0.630526 0.776168 0
    outer loop
      vertex 32.9592 35.8593 5
      vertex 35.764 33.5808 0
      vertex 32.9592 35.8593 0
    endloop
  endfacet
  facet normal 0.442153 0.89694 -0
    outer loop
      vertex 32.9592 35.8593 0
      vertex 29.6577 37.4868 5
      vertex 32.9592 35.8593 5
    endloop
  endfacet
  facet normal 0.442153 0.89694 0
    outer loop
      vertex 29.6577 37.4868 5
      vertex 32.9592 35.8593 0
      vertex 29.6577 37.4868 0
    endloop
  endfacet
  facet normal 0.248992 0.968506 -0
    outer loop
      vertex 29.6577 37.4868 0
      vertex 25.8594 38.4633 5
      vertex 29.6577 37.4868 5
    endloop
  endfacet
  facet normal 0.248992 0.968506 0
    outer loop
      vertex 25.8594 38.4633 5
      vertex 29.6577 37.4868 0
      vertex 25.8594 38.4633 0
    endloop
  endfacet
  facet normal 0.0755691 0.997141 -0
    outer loop
      vertex 25.8594 38.4633 0
      vertex 21.5644 38.7888 5
      vertex 25.8594 38.4633 5
    endloop
  endfacet
  facet normal 0.0755691 0.997141 0
    outer loop
      vertex 21.5644 38.7888 5
      vertex 25.8594 38.4633 0
      vertex 21.5644 38.7888 0
    endloop
  endfacet
  facet normal -0.074798 0.997199 0
    outer loop
      vertex 21.5644 38.7888 0
      vertex 17.2702 38.4667 5
      vertex 21.5644 38.7888 5
    endloop
  endfacet
  facet normal -0.074798 0.997199 0
    outer loop
      vertex 17.2702 38.4667 5
      vertex 21.5644 38.7888 0
      vertex 17.2702 38.4667 0
    endloop
  endfacet
  facet normal -0.246726 0.969085 0
    outer loop
      vertex 17.2702 38.4667 0
      vertex 13.4744 37.5003 5
      vertex 17.2702 38.4667 5
    endloop
  endfacet
  facet normal -0.246726 0.969085 0
    outer loop
      vertex 13.4744 37.5003 5
      vertex 17.2702 38.4667 0
      vertex 13.4744 37.5003 0
    endloop
  endfacet
  facet normal -0.438889 0.898542 0
    outer loop
      vertex 13.4744 37.5003 0
      vertex 10.177 35.8897 5
      vertex 13.4744 37.5003 5
    endloop
  endfacet
  facet normal -0.438889 0.898542 0
    outer loop
      vertex 10.177 35.8897 5
      vertex 13.4744 37.5003 0
      vertex 10.177 35.8897 0
    endloop
  endfacet
  facet normal -0.627353 0.778735 0
    outer loop
      vertex 10.177 35.8897 0
      vertex 7.37799 33.6348 5
      vertex 10.177 35.8897 5
    endloop
  endfacet
  facet normal -0.627353 0.778735 0
    outer loop
      vertex 7.37799 33.6348 5
      vertex 10.177 35.8897 0
      vertex 7.37799 33.6348 0
    endloop
  endfacet
  facet normal -0.785241 0.61919 0
    outer loop
      vertex 5.14691 30.8054 0
      vertex 7.37799 33.6348 5
      vertex 7.37799 33.6348 0
    endloop
  endfacet
  facet normal -0.785241 0.61919 0
    outer loop
      vertex 7.37799 33.6348 5
      vertex 5.14691 30.8054 0
      vertex 5.14691 30.8054 5
    endloop
  endfacet
  facet normal -0.90226 0.431192 0
    outer loop
      vertex 3.5533 27.4708 0
      vertex 5.14691 30.8054 5
      vertex 5.14691 30.8054 0
    endloop
  endfacet
  facet normal -0.90226 0.431192 0
    outer loop
      vertex 5.14691 30.8054 5
      vertex 3.5533 27.4708 0
      vertex 3.5533 27.4708 5
    endloop
  endfacet
  facet normal -0.970366 0.241639 0
    outer loop
      vertex 2.59712 23.631 0
      vertex 3.5533 27.4708 5
      vertex 3.5533 27.4708 0
    endloop
  endfacet
  facet normal -0.970366 0.241639 0
    outer loop
      vertex 3.5533 27.4708 5
      vertex 2.59712 23.631 0
      vertex 2.59712 23.631 5
    endloop
  endfacet
  facet normal -0.99732 0.0731567 0
    outer loop
      vertex 2.2784 19.286 0
      vertex 2.59712 23.631 5
      vertex 2.59712 23.631 0
    endloop
  endfacet
  facet normal -0.99732 0.0731567 0
    outer loop
      vertex 2.59712 23.631 5
      vertex 2.2784 19.286 0
      vertex 2.2784 19.286 5
    endloop
  endfacet
  facet normal -0.997821 -0.0659834 0
    outer loop
      vertex 2.54539 15.2485 0
      vertex 2.2784 19.286 5
      vertex 2.2784 19.286 0
    endloop
  endfacet
  facet normal -0.997821 -0.0659834 0
    outer loop
      vertex 2.2784 19.286 5
      vertex 2.54539 15.2485 0
      vertex 2.54539 15.2485 5
    endloop
  endfacet
  facet normal -0.97641 -0.215926 0
    outer loop
      vertex 3.34639 11.6264 0
      vertex 2.54539 15.2485 5
      vertex 2.54539 15.2485 0
    endloop
  endfacet
  facet normal -0.97641 -0.215926 0
    outer loop
      vertex 2.54539 15.2485 5
      vertex 3.34639 11.6264 0
      vertex 3.34639 11.6264 5
    endloop
  endfacet
  facet normal -0.923191 -0.384341 0
    outer loop
      vertex 4.6814 8.41969 0
      vertex 3.34639 11.6264 5
      vertex 3.34639 11.6264 0
    endloop
  endfacet
  facet normal -0.923191 -0.384341 0
    outer loop
      vertex 3.34639 11.6264 5
      vertex 4.6814 8.41969 0
      vertex 4.6814 8.41969 5
    endloop
  endfacet
  facet normal -0.830931 -0.556375 0
    outer loop
      vertex 6.5504 5.62839 0
      vertex 4.6814 8.41969 5
      vertex 4.6814 8.41969 0
    endloop
  endfacet
  facet normal -0.830931 -0.556375 0
    outer loop
      vertex 4.6814 8.41969 5
      vertex 6.5504 5.62839 0
      vertex 6.5504 5.62839 5
    endloop
  endfacet
  facet normal -0.700105 -0.71404 0
    outer loop
      vertex 6.5504 5.62839 0
      vertex 8.90274 3.32196 5
      vertex 6.5504 5.62839 5
    endloop
  endfacet
  facet normal -0.700105 -0.71404 -0
    outer loop
      vertex 8.90274 3.32196 5
      vertex 6.5504 5.62839 0
      vertex 8.90274 3.32196 0
    endloop
  endfacet
  facet normal -0.532545 -0.846402 0
    outer loop
      vertex 8.90274 3.32196 0
      vertex 11.6874 1.56989 5
      vertex 8.90274 3.32196 5
    endloop
  endfacet
  facet normal -0.532545 -0.846402 -0
    outer loop
      vertex 11.6874 1.56989 5
      vertex 8.90274 3.32196 0
      vertex 11.6874 1.56989 0
    endloop
  endfacet
  facet normal -0.348924 -0.937151 0
    outer loop
      vertex 11.6874 1.56989 0
      vertex 14.9043 0.372162 5
      vertex 11.6874 1.56989 5
    endloop
  endfacet
  facet normal -0.348924 -0.937151 -0
    outer loop
      vertex 14.9043 0.372162 5
      vertex 11.6874 1.56989 0
      vertex 14.9043 0.372162 0
    endloop
  endfacet
  facet normal -0.173618 -0.984813 0
    outer loop
      vertex 14.9043 0.372162 0
      vertex 18.5536 -0.271194 5
      vertex 14.9043 0.372162 5
    endloop
  endfacet
  facet normal -0.173618 -0.984813 -0
    outer loop
      vertex 18.5536 -0.271194 5
      vertex 14.9043 0.372162 0
      vertex 18.5536 -0.271194 0
    endloop
  endfacet
  facet normal -0.94136 -0.337403 0
    outer loop
      vertex 19.5064 -2.92952 0
      vertex 18.5536 -0.271194 5
      vertex 18.5536 -0.271194 0
    endloop
  endfacet
  facet normal -0.94136 -0.337403 0
    outer loop
      vertex 18.5536 -0.271194 5
      vertex 19.5064 -2.92952 0
      vertex 19.5064 -2.92952 5
    endloop
  endfacet
  facet normal -0.89926 -0.437414 0
    outer loop
      vertex 20.6015 -5.18089 0
      vertex 19.5064 -2.92952 5
      vertex 19.5064 -2.92952 0
    endloop
  endfacet
  facet normal -0.89926 -0.437414 0
    outer loop
      vertex 19.5064 -2.92952 5
      vertex 20.6015 -5.18089 0
      vertex 20.6015 -5.18089 5
    endloop
  endfacet
  facet normal -0.830408 -0.557156 0
    outer loop
      vertex 21.839 -7.02531 0
      vertex 20.6015 -5.18089 5
      vertex 20.6015 -5.18089 0
    endloop
  endfacet
  facet normal -0.830408 -0.557156 0
    outer loop
      vertex 20.6015 -5.18089 5
      vertex 21.839 -7.02531 0
      vertex 21.839 -7.02531 5
    endloop
  endfacet
  facet normal -0.721435 -0.692482 0
    outer loop
      vertex 23.2188 -8.4628 0
      vertex 21.839 -7.02531 5
      vertex 21.839 -7.02531 0
    endloop
  endfacet
  facet normal -0.721435 -0.692482 0
    outer loop
      vertex 21.839 -7.02531 5
      vertex 23.2188 -8.4628 0
      vertex 23.2188 -8.4628 5
    endloop
  endfacet
  facet normal -0.572626 -0.819817 0
    outer loop
      vertex 23.2188 -8.4628 0
      vertex 24.7649 -9.54272 5
      vertex 23.2188 -8.4628 5
    endloop
  endfacet
  facet normal -0.572626 -0.819817 -0
    outer loop
      vertex 24.7649 -9.54272 5
      vertex 23.2188 -8.4628 0
      vertex 24.7649 -9.54272 0
    endloop
  endfacet
  facet normal -0.406042 -0.913855 0
    outer loop
      vertex 24.7649 -9.54272 0
      vertex 26.501 -10.3141 5
      vertex 24.7649 -9.54272 5
    endloop
  endfacet
  facet normal -0.406042 -0.913855 -0
    outer loop
      vertex 26.501 -10.3141 5
      vertex 24.7649 -9.54272 0
      vertex 26.501 -10.3141 0
    endloop
  endfacet
  facet normal -0.233652 -0.97232 0
    outer loop
      vertex 26.501 -10.3141 0
      vertex 28.4269 -10.7769 5
      vertex 26.501 -10.3141 5
    endloop
  endfacet
  facet normal -0.233652 -0.97232 -0
    outer loop
      vertex 28.4269 -10.7769 5
      vertex 26.501 -10.3141 0
      vertex 28.4269 -10.7769 0
    endloop
  endfacet
  facet normal -0.0727309 -0.997352 0
    outer loop
      vertex 28.4269 -10.7769 0
      vertex 30.5428 -10.9312 5
      vertex 28.4269 -10.7769 5
    endloop
  endfacet
  facet normal -0.0727309 -0.997352 -0
    outer loop
      vertex 30.5428 -10.9312 5
      vertex 28.4269 -10.7769 0
      vertex 30.5428 -10.9312 0
    endloop
  endfacet
  facet normal 0.0298571 -0.999554 0
    outer loop
      vertex 30.5428 -10.9312 0
      vertex 32.133 -10.8837 5
      vertex 30.5428 -10.9312 5
    endloop
  endfacet
  facet normal 0.0298571 -0.999554 0
    outer loop
      vertex 32.133 -10.8837 5
      vertex 30.5428 -10.9312 0
      vertex 32.133 -10.8837 0
    endloop
  endfacet
  facet normal 0.297533 0.954712 -0
    outer loop
      vertex 19.045 5.95036 0
      vertex 16.8581 6.6319 5
      vertex 19.045 5.95036 5
    endloop
  endfacet
  facet normal 0.297533 0.954712 0
    outer loop
      vertex 16.8581 6.6319 5
      vertex 19.045 5.95036 0
      vertex 16.8581 6.6319 0
    endloop
  endfacet
  facet normal 0.511354 0.85937 -0
    outer loop
      vertex 16.8581 6.6319 0
      vertex 14.9492 7.76776 5
      vertex 16.8581 6.6319 5
    endloop
  endfacet
  facet normal 0.511354 0.85937 0
    outer loop
      vertex 14.9492 7.76776 5
      vertex 16.8581 6.6319 0
      vertex 14.9492 7.76776 0
    endloop
  endfacet
  facet normal 0.698145 0.715956 -0
    outer loop
      vertex 14.9492 7.76776 0
      vertex 13.3184 9.35799 5
      vertex 14.9492 7.76776 5
    endloop
  endfacet
  facet normal 0.698145 0.715956 0
    outer loop
      vertex 13.3184 9.35799 5
      vertex 14.9492 7.76776 0
      vertex 13.3184 9.35799 0
    endloop
  endfacet
  facet normal 0.835348 0.549722 0
    outer loop
      vertex 13.3184 9.35799 5
      vertex 12.0131 11.3415 0
      vertex 12.0131 11.3415 5
    endloop
  endfacet
  facet normal 0.835348 0.549722 0
    outer loop
      vertex 12.0131 11.3415 0
      vertex 13.3184 9.35799 5
      vertex 13.3184 9.35799 0
    endloop
  endfacet
  facet normal 0.92764 0.373475 0
    outer loop
      vertex 12.0131 11.3415 5
      vertex 11.0807 13.6574 0
      vertex 11.0807 13.6574 5
    endloop
  endfacet
  facet normal 0.92764 0.373475 0
    outer loop
      vertex 11.0807 13.6574 0
      vertex 12.0131 11.3415 5
      vertex 12.0131 11.3415 0
    endloop
  endfacet
  facet normal 0.978408 0.206685 0
    outer loop
      vertex 11.0807 13.6574 5
      vertex 10.5213 16.3055 0
      vertex 10.5213 16.3055 5
    endloop
  endfacet
  facet normal 0.978408 0.206685 0
    outer loop
      vertex 10.5213 16.3055 0
      vertex 11.0807 13.6574 5
      vertex 11.0807 13.6574 0
    endloop
  endfacet
  facet normal 0.998048 0.0624513 0
    outer loop
      vertex 10.5213 16.3055 5
      vertex 10.3348 19.286 0
      vertex 10.3348 19.286 5
    endloop
  endfacet
  facet normal 0.998048 0.0624513 0
    outer loop
      vertex 10.3348 19.286 0
      vertex 10.5213 16.3055 5
      vertex 10.5213 16.3055 0
    endloop
  endfacet
  facet normal 0.998076 -0.0620051 0
    outer loop
      vertex 10.3348 19.286 5
      vertex 10.5179 22.2333 0
      vertex 10.5179 22.2333 5
    endloop
  endfacet
  facet normal 0.998076 -0.0620051 0
    outer loop
      vertex 10.5179 22.2333 0
      vertex 10.3348 19.286 5
      vertex 10.3348 19.286 0
    endloop
  endfacet
  facet normal 0.97846 -0.206435 0
    outer loop
      vertex 10.5179 22.2333 5
      vertex 11.0671 24.8364 0
      vertex 11.0671 24.8364 5
    endloop
  endfacet
  facet normal 0.97846 -0.206435 0
    outer loop
      vertex 11.0671 24.8364 0
      vertex 10.5179 22.2333 5
      vertex 10.5179 22.2333 0
    endloop
  endfacet
  facet normal 0.926792 -0.375575 0
    outer loop
      vertex 11.0671 24.8364 5
      vertex 11.9825 27.0953 0
      vertex 11.9825 27.0953 5
    endloop
  endfacet
  facet normal 0.926792 -0.375575 0
    outer loop
      vertex 11.9825 27.0953 0
      vertex 11.0671 24.8364 5
      vertex 11.0671 24.8364 0
    endloop
  endfacet
  facet normal 0.831041 -0.556212 0
    outer loop
      vertex 11.9825 27.0953 5
      vertex 13.264 29.01 0
      vertex 13.264 29.01 5
    endloop
  endfacet
  facet normal 0.831041 -0.556212 0
    outer loop
      vertex 13.264 29.01 0
      vertex 11.9825 27.0953 5
      vertex 11.9825 27.0953 0
    endloop
  endfacet
  facet normal 0.685994 -0.727607 0
    outer loop
      vertex 13.264 29.01 0
      vertex 14.8814 30.5349 5
      vertex 13.264 29.01 5
    endloop
  endfacet
  facet normal 0.685994 -0.727607 0
    outer loop
      vertex 14.8814 30.5349 5
      vertex 13.264 29.01 0
      vertex 14.8814 30.5349 0
    endloop
  endfacet
  facet normal 0.492973 -0.870045 0
    outer loop
      vertex 14.8814 30.5349 0
      vertex 16.8039 31.6242 5
      vertex 14.8814 30.5349 5
    endloop
  endfacet
  facet normal 0.492973 -0.870045 0
    outer loop
      vertex 16.8039 31.6242 5
      vertex 14.8814 30.5349 0
      vertex 16.8039 31.6242 0
    endloop
  endfacet
  facet normal 0.28149 -0.959564 0
    outer loop
      vertex 16.8039 31.6242 0
      vertex 19.0316 32.2777 5
      vertex 16.8039 31.6242 5
    endloop
  endfacet
  facet normal 0.28149 -0.959564 0
    outer loop
      vertex 19.0316 32.2777 5
      vertex 16.8039 31.6242 0
      vertex 19.0316 32.2777 0
    endloop
  endfacet
  facet normal 0.0857147 -0.99632 0
    outer loop
      vertex 19.0316 32.2777 0
      vertex 21.5644 32.4956 5
      vertex 19.0316 32.2777 5
    endloop
  endfacet
  facet normal 0.0857147 -0.99632 0
    outer loop
      vertex 21.5644 32.4956 5
      vertex 19.0316 32.2777 0
      vertex 21.5644 32.4956 0
    endloop
  endfacet
  facet normal -0.0876039 -0.996155 0
    outer loop
      vertex 21.5644 32.4956 0
      vertex 24.0615 32.276 5
      vertex 21.5644 32.4956 5
    endloop
  endfacet
  facet normal -0.0876039 -0.996155 -0
    outer loop
      vertex 24.0615 32.276 5
      vertex 21.5644 32.4956 0
      vertex 24.0615 32.276 0
    endloop
  endfacet
  facet normal -0.286526 -0.958073 0
    outer loop
      vertex 24.0615 32.276 0
      vertex 26.2637 31.6174 5
      vertex 24.0615 32.276 5
    endloop
  endfacet
  facet normal -0.286526 -0.958073 -0
    outer loop
      vertex 26.2637 31.6174 5
      vertex 24.0615 32.276 0
      vertex 26.2637 31.6174 0
    endloop
  endfacet
  facet normal -0.498867 -0.866678 0
    outer loop
      vertex 26.2637 31.6174 0
      vertex 28.1709 30.5196 5
      vertex 26.2637 31.6174 5
    endloop
  endfacet
  facet normal -0.498867 -0.866678 -0
    outer loop
      vertex 28.1709 30.5196 5
      vertex 26.2637 31.6174 0
      vertex 28.1709 30.5196 0
    endloop
  endfacet
  facet normal -0.689956 -0.723852 0
    outer loop
      vertex 28.1709 30.5196 0
      vertex 29.7832 28.9828 5
      vertex 28.1709 30.5196 5
    endloop
  endfacet
  facet normal -0.689956 -0.723852 -0
    outer loop
      vertex 29.7832 28.9828 5
      vertex 28.1709 30.5196 0
      vertex 29.7832 28.9828 0
    endloop
  endfacet
  facet normal -0.832137 -0.55457 0
    outer loop
      vertex 31.0649 27.0596 0
      vertex 29.7832 28.9828 5
      vertex 29.7832 28.9828 0
    endloop
  endfacet
  facet normal -0.832137 -0.55457 0
    outer loop
      vertex 29.7832 28.9828 5
      vertex 31.0649 27.0596 0
      vertex 31.0649 27.0596 5
    endloop
  endfacet
  facet normal -0.926679 -0.375853 0
    outer loop
      vertex 31.9804 24.8024 0
      vertex 31.0649 27.0596 5
      vertex 31.0649 27.0596 0
    endloop
  endfacet
  facet normal -0.926679 -0.375853 0
    outer loop
      vertex 31.0649 27.0596 5
      vertex 31.9804 24.8024 0
      vertex 31.9804 24.8024 5
    endloop
  endfacet
  facet normal -0.978261 -0.207378 0
    outer loop
      vertex 32.5297 22.2112 0
      vertex 31.9804 24.8024 5
      vertex 31.9804 24.8024 0
    endloop
  endfacet
  facet normal -0.978261 -0.207378 0
    outer loop
      vertex 31.9804 24.8024 5
      vertex 32.5297 22.2112 0
      vertex 32.5297 22.2112 5
    endloop
  endfacet
  facet normal -0.998047 -0.0624717 0
    outer loop
      vertex 32.7128 19.286 0
      vertex 32.5297 22.2112 5
      vertex 32.5297 22.2112 0
    endloop
  endfacet
  facet normal -0.998047 -0.0624717 0
    outer loop
      vertex 32.5297 22.2112 5
      vertex 32.7128 19.286 0
      vertex 32.7128 19.286 5
    endloop
  endfacet
  facet normal -0.99824 0.0593056 0
    outer loop
      vertex 32.5305 16.2175 0
      vertex 32.7128 19.286 5
      vertex 32.7128 19.286 0
    endloop
  endfacet
  facet normal -0.99824 0.0593056 0
    outer loop
      vertex 32.7128 19.286 5
      vertex 32.5305 16.2175 0
      vertex 32.5305 16.2175 5
    endloop
  endfacet
  facet normal -0.980047 0.198765 0
    outer loop
      vertex 31.9838 13.5219 0
      vertex 32.5305 16.2175 5
      vertex 32.5305 16.2175 0
    endloop
  endfacet
  facet normal -0.980047 0.198765 0
    outer loop
      vertex 32.5305 16.2175 5
      vertex 31.9838 13.5219 0
      vertex 31.9838 13.5219 5
    endloop
  endfacet
  facet normal -0.930908 0.365253 0
    outer loop
      vertex 31.0725 11.1993 0
      vertex 31.9838 13.5219 5
      vertex 31.9838 13.5219 0
    endloop
  endfacet
  facet normal -0.930908 0.365253 0
    outer loop
      vertex 31.9838 13.5219 5
      vertex 31.0725 11.1993 0
      vertex 31.0725 11.1993 5
    endloop
  endfacet
  facet normal -0.836795 0.547517 0
    outer loop
      vertex 29.7968 9.24959 0
      vertex 31.0725 11.1993 5
      vertex 31.0725 11.1993 0
    endloop
  endfacet
  facet normal -0.836795 0.547517 0
    outer loop
      vertex 31.0725 11.1993 5
      vertex 29.7968 9.24959 0
      vertex 29.7968 9.24959 5
    endloop
  endfacet
  facet normal -0.691565 0.722315 0
    outer loop
      vertex 29.7968 9.24959 0
      vertex 28.1854 7.70679 5
      vertex 29.7968 9.24959 5
    endloop
  endfacet
  facet normal -0.691565 0.722315 0
    outer loop
      vertex 28.1854 7.70679 5
      vertex 29.7968 9.24959 0
      vertex 28.1854 7.70679 0
    endloop
  endfacet
  facet normal -0.49812 0.867108 0
    outer loop
      vertex 28.1854 7.70679 0
      vertex 26.2671 6.6048 5
      vertex 28.1854 7.70679 5
    endloop
  endfacet
  facet normal -0.49812 0.867108 0
    outer loop
      vertex 26.2671 6.6048 5
      vertex 28.1854 7.70679 0
      vertex 26.2671 6.6048 0
    endloop
  endfacet
  facet normal -0.284849 0.958572 0
    outer loop
      vertex 26.2671 6.6048 0
      vertex 24.042 5.94359 5
      vertex 26.2671 6.6048 5
    endloop
  endfacet
  facet normal -0.284849 0.958572 0
    outer loop
      vertex 24.042 5.94359 5
      vertex 26.2671 6.6048 0
      vertex 24.042 5.94359 0
    endloop
  endfacet
  facet normal -0.0867179 0.996233 0
    outer loop
      vertex 24.042 5.94359 0
      vertex 21.51 5.72319 5
      vertex 24.042 5.94359 5
    endloop
  endfacet
  facet normal -0.0867179 0.996233 0
    outer loop
      vertex 21.51 5.72319 5
      vertex 24.042 5.94359 0
      vertex 21.51 5.72319 0
    endloop
  endfacet
  facet normal 0.0917693 0.99578 -0
    outer loop
      vertex 21.51 5.72319 0
      vertex 19.045 5.95036 5
      vertex 21.51 5.72319 5
    endloop
  endfacet
  facet normal 0.0917693 0.99578 0
    outer loop
      vertex 19.045 5.95036 5
      vertex 21.51 5.72319 0
      vertex 19.045 5.95036 0
    endloop
  endfacet
  facet normal 0.707107 -0.707107 0
    outer loop
      vertex 23.5448 35.727 2
      vertex 24.5448 36.727 0
      vertex 24.5448 36.727 2
    endloop
  endfacet
  facet normal 0.707107 -0.707107 0
    outer loop
      vertex 24.5448 36.727 0
      vertex 23.5448 35.727 2
      vertex 23.5448 35.727 0
    endloop
  endfacet
  facet normal -0.707107 -0.707107 0
    outer loop
      vertex 25.5448 35.727 0
      vertex 24.5448 36.727 2
      vertex 24.5448 36.727 0
    endloop
  endfacet
  facet normal -0.707107 -0.707107 0
    outer loop
      vertex 24.5448 36.727 2
      vertex 25.5448 35.727 0
      vertex 25.5448 35.727 2
    endloop
  endfacet
  facet normal 0 0 -1
    outer loop
      vertex 24.5448 34.727 2
      vertex 24.5448 36.727 2
      vertex 25.5448 35.727 2
    endloop
  endfacet
  facet normal 0 -0 -1
    outer loop
      vertex 24.5448 36.727 2
      vertex 24.5448 34.727 2
      vertex 23.5448 35.727 2
    endloop
  endfacet
  facet normal 0.707107 0.707107 0
    outer loop
      vertex 24.5448 34.727 2
      vertex 23.5448 35.727 0
      vertex 23.5448 35.727 2
    endloop
  endfacet
  facet normal 0.707107 0.707107 0
    outer loop
      vertex 23.5448 35.727 0
      vertex 24.5448 34.727 2
      vertex 24.5448 34.727 0
    endloop
  endfacet
  facet normal -0.707107 0.707107 0
    outer loop
      vertex 24.5448 34.727 0
      vertex 25.5448 35.727 2
      vertex 25.5448 35.727 0
    endloop
  endfacet
  facet normal -0.707107 0.707107 0
    outer loop
      vertex 25.5448 35.727 2
      vertex 24.5448 34.727 0
      vertex 24.5448 34.727 2
    endloop
  endfacet
endsolid OpenSCAD_Model
